g DinnertableChair.007
v 0.2504656 -0.053850353 -0.24510612
v 0.30487403 -0.053850334 -0.24403246
v 0.304874 0.046149686 -0.24403247
v 0.2504656 0.04614967 -0.24510616
v 0.3048742 -0.60980076 -0.24403226
v 0.2504658 -0.60980076 -0.24510592
v -0.23832399 -0.053850513 -0.2547516
v -0.238324 0.046149515 -0.25475165
v -0.29500917 -0.05385053 -0.25587016
v -0.2383238 -0.60980093 -0.2547514
v -0.295009 -0.60980093 -0.25586998
v -0.2950092 0.046149496 -0.25587022
v 0.25046548 0.38037762 -0.24510625
v 0.30487388 0.38037765 -0.24403259
v 0.25046545 0.42790493 -0.2451063
v 0.30487385 0.42790496 -0.24403262
v 0.2504654 0.68268186 -0.24510637
v 0.3048738 0.68268186 -0.24403268
v 0.25046536 0.7434946 -0.24510638
v 0.30487376 0.7434946 -0.24403273
v 0.29619697 -0.053850193 0.19568089
v 0.29500923 -0.053850174 0.25587022
v 0.2950092 0.046149854 0.25587016
v 0.29619694 0.046149835 0.19568084
v 0.2995352 -0.053850275 0.02651363
v 0.29953519 0.046149798 0.026513604
v 0.2950094 -0.6098006 0.2558704
v 0.29619715 -0.6098006 0.19568107
v 0.30048084 -0.053850286 -0.021405902
v 0.30048078 0.046149783 -0.021405928
v 0.30374873 -0.053850316 -0.18700804
v 0.3037487 0.046149705 -0.18700807
v 0.30487403 -0.053850334 -0.24403246
v 0.304874 0.046149686 -0.24403247
v 0.3037489 -0.6098007 -0.18700784
v 0.3048742 -0.60980076 -0.24403226
v 0.3004807 0.38037768 -0.02140604
v 0.29953507 0.3803777 0.026513495
v 0.30048066 0.427905 -0.021406054
v 0.299535 0.42790502 0.026513478
v 0.3004806 0.6826819 -0.02140614
v 0.3037485 0.6826819 -0.18700828
v 0.30374846 0.74349463 -0.1870083
v 0.30487376 0.7434946 -0.24403273
v 0.3048738 0.68268186 -0.24403268
v 0.30048057 0.74349463 -0.02140616
v 0.30374855 0.42790496 -0.1870082
v 0.30487385 0.42790496 -0.24403262
v 0.29953498 0.68268204 0.026513392
v 0.2961968 0.42790508 0.19568071
v 0.29619673 0.6826821 0.19568065
v 0.29500905 0.4279051 0.25587004
v 0.295009 0.6826821 0.25586995
v 0.2961967 0.7434947 0.19568062
v 0.29500896 0.7434947 0.25586995
v 0.29953495 0.7434947 0.026513373
v 0.30374855 0.38037765 -0.18700817
v 0.30487388 0.38037765 -0.24403259
v 0.29500908 0.3803778 0.25587007
v 0.29619682 0.38037777 0.19568072
v -0.24818873 -0.05385035 0.24515107
v -0.30487397 -0.053850368 0.24403247
v -0.304874 0.04614966 0.24403246
v -0.24818876 0.04614968 0.24515106
v 0.24060087 -0.053850193 0.25479656
v 0.24060082 0.046149835 0.2547965
v 0.29500923 -0.053850174 0.25587022
v 0.24060103 -0.6098006 0.25479674
v 0.2950094 -0.6098006 0.2558704
v 0.2950092 0.046149854 0.25587016
v -0.3048738 -0.60980076 0.24403268
v -0.24818854 -0.60980076 0.24515128
v 0.29500908 0.3803778 0.25587007
v 0.24060073 0.38037777 0.25479642
v 0.29500905 0.4279051 0.25587004
v 0.24060072 0.42790508 0.2547964
v 0.295009 0.6826821 0.25586995
v 0.24060062 0.6826821 0.2547963
v 0.29500896 0.7434947 0.25586995
v 0.24060062 0.7434947 0.2547963
v -0.2961344 -0.053850513 -0.19884576
v -0.29500917 -0.05385053 -0.25587016
v -0.2950092 0.046149496 -0.25587022
v -0.29613447 0.046149515 -0.19884579
v -0.29940233 -0.053850487 -0.033243615
v -0.29940236 0.046149585 -0.033243656
v -0.295009 -0.60980093 -0.25586998
v -0.29613426 -0.60980093 -0.19884555
v -0.30034795 -0.05385047 0.014675916
v -0.30034798 0.0461496 0.014675875
v -0.30368623 -0.053850386 0.18384317
v -0.30368626 0.046149634 0.18384314
v -0.30487397 -0.053850368 0.24403247
v -0.304874 0.04614966 0.24403246
v -0.30368605 -0.60980076 0.18384336
v -0.3048738 -0.60980076 0.24403268
v -0.23944929 0.046149533 -0.19772717
v -0.29613447 0.046149515 -0.19884579
v -0.2950092 0.046149496 -0.25587022
v -0.238324 0.046149515 -0.25475165
v -0.24271716 0.0461496 -0.03212506
v -0.29940236 0.046149585 -0.033243656
v 0.24607243 0.046149764 -0.022479586
v 0.2493403 0.04614969 -0.18808174
v 0.2504656 0.04614967 -0.24510616
v 0.24512681 0.04614978 0.025439944
v -0.24366279 0.04614962 0.015794475
v 0.24178855 0.046149816 0.19460718
v -0.24700104 0.046149652 0.18496174
v 0.24060082 0.046149835 0.2547965
v -0.24818876 0.04614968 0.24515106
v -0.30368626 0.046149634 0.18384314
v -0.304874 0.04614966 0.24403246
v -0.30034798 0.0461496 0.014675875
v -0.23944926 -0.05385049 -0.19772716
v -0.23944907 -0.6098009 -0.19772696
v -0.29613426 -0.60980093 -0.19884555
v -0.2961344 -0.053850513 -0.19884576
v -0.24366276 -0.05385045 0.0157945
v -0.30034795 -0.05385047 0.014675916
v -0.30368623 -0.053850386 0.18384317
v -0.24700099 -0.053850368 0.18496175
v 0.24512683 -0.053850293 0.02543997
v 0.2417886 -0.05385021 0.19460721
v 0.2995352 -0.053850275 0.02651363
v 0.29619697 -0.053850193 0.19568089
v -0.24818873 -0.05385035 0.24515107
v 0.24060087 -0.053850193 0.25479656
v 0.24607246 -0.053850308 -0.02247956
v -0.24271715 -0.05385047 -0.032125033
v 0.24934034 -0.053850334 -0.1880817
v -0.23944926 -0.05385049 -0.19772716
v 0.2504656 -0.053850353 -0.24510612
v -0.23832399 -0.053850513 -0.2547516
v 0.30374873 -0.053850316 -0.18700804
v 0.30048084 -0.053850286 -0.021405902
v -0.29940233 -0.053850487 -0.033243615
v -0.2961344 -0.053850513 -0.19884576
v -0.24700083 -0.60980076 0.18496196
v -0.30368605 -0.60980076 0.18384336
v -0.3048738 -0.60980076 0.24403268
v -0.24818854 -0.60980076 0.24515128
v -0.2383238 -0.60980093 -0.2547514
v -0.295009 -0.60980093 -0.25586998
v -0.29613426 -0.60980093 -0.19884555
v -0.23944907 -0.6098009 -0.19772696
v 0.3048742 -0.60980076 -0.24403226
v 0.2504658 -0.60980076 -0.24510592
v 0.2493405 -0.60980076 -0.1880815
v 0.3037489 -0.6098007 -0.18700784
v 0.29619715 -0.6098006 0.19568107
v 0.24178876 -0.60980064 0.1946074
v 0.24060103 -0.6098006 0.25479674
v 0.2950094 -0.6098006 0.2558704
v -0.30368623 -0.053850386 0.18384317
v -0.30368605 -0.60980076 0.18384336
v -0.24700083 -0.60980076 0.18496196
v -0.24700099 -0.053850368 0.18496175
v 0.24934034 -0.053850334 -0.1880817
v 0.2493405 -0.60980076 -0.1880815
v 0.2504658 -0.60980076 -0.24510592
v 0.2504656 -0.053850353 -0.24510612
v 0.24060087 -0.053850193 0.25479656
v 0.24060103 -0.6098006 0.25479674
v 0.24178876 -0.60980064 0.1946074
v 0.2417886 -0.05385021 0.19460721
v -0.23832399 -0.053850513 -0.2547516
v -0.2383238 -0.60980093 -0.2547514
v -0.23944907 -0.6098009 -0.19772696
v -0.23944926 -0.05385049 -0.19772716
v 0.30374873 -0.053850316 -0.18700804
v 0.3037489 -0.6098007 -0.18700784
v 0.2493405 -0.60980076 -0.1880815
v 0.24934034 -0.053850334 -0.1880817
v -0.24700099 -0.053850368 0.18496175
v -0.24700083 -0.60980076 0.18496196
v -0.24818854 -0.60980076 0.24515128
v -0.24818873 -0.05385035 0.24515107
v 0.2417886 -0.05385021 0.19460721
v 0.24178876 -0.60980064 0.1946074
v 0.29619715 -0.6098006 0.19568107
v 0.29619697 -0.053850193 0.19568089
v 0.30048057 0.74349463 -0.02140616
v 0.24607219 0.74349463 -0.02247982
v 0.24934009 0.7434946 -0.18808196
v 0.30374846 0.74349463 -0.1870083
v 0.25046536 0.7434946 -0.24510638
v 0.30487376 0.7434946 -0.24403273
v 0.29953495 0.7434947 0.026513373
v 0.24512659 0.74349463 0.02543971
v 0.2961967 0.7434947 0.19568062
v 0.24178834 0.7434947 0.19460694
v 0.29500896 0.7434947 0.25586995
v 0.24060062 0.7434947 0.2547963
v 0.2504654 0.68268186 -0.24510637
v 0.25046536 0.7434946 -0.24510638
v 0.24934009 0.7434946 -0.18808196
v 0.24934009 0.68268186 -0.18808195
v 0.25046545 0.42790493 -0.2451063
v 0.24934019 0.42790496 -0.18808188
v 0.24607219 0.74349463 -0.02247982
v 0.24607222 0.6826819 -0.022479806
v 0.24512659 0.74349463 0.02543971
v 0.2451266 0.6826819 0.025439724
v 0.24178834 0.7434947 0.19460694
v 0.24178834 0.68268204 0.19460697
v 0.24060062 0.7434947 0.2547963
v 0.24060062 0.6826821 0.2547963
v 0.24178843 0.42790508 0.19460702
v 0.24060072 0.42790508 0.2547964
v 0.2460723 0.427905 -0.022479717
v 0.24512668 0.427905 0.025439817
v 0.24607232 0.38037768 -0.022479698
v 0.2451267 0.38037768 0.025439832
v 0.24607243 0.046149764 -0.022479586
v 0.24512681 0.04614978 0.025439944
v 0.24178846 0.38037777 0.19460706
v 0.24060073 0.38037777 0.25479642
v 0.24178855 0.046149816 0.19460718
v 0.24060082 0.046149835 0.2547965
v 0.24178834 0.68268204 0.19460697
v 0.28272256 0.6826821 0.19541477
v 0.2860608 0.68268204 0.026247494
v 0.2451266 0.6826819 0.025439724
v 0.2460723 0.427905 -0.022479717
v 0.2870065 0.427905 -0.021671947
v 0.28700644 0.6826819 -0.021672038
v 0.24607222 0.6826819 -0.022479806
v 0.24607232 0.38037768 -0.022479698
v 0.28700653 0.38037768 -0.021671928
v 0.24607243 0.046149764 -0.022479586
v 0.28700665 0.04614978 -0.021671819
v 0.28606087 0.427905 0.026247587
v 0.2860608 0.68268204 0.026247494
v 0.28272256 0.6826821 0.19541477
v 0.28272262 0.42790508 0.19541483
v 0.29027438 0.42790496 -0.18727407
v 0.29027432 0.6826819 -0.18727414
v 0.28700644 0.6826819 -0.021672038
v 0.2870065 0.427905 -0.021671947
v 0.2493402 0.38037765 -0.18808183
v 0.2902744 0.38037765 -0.18727405
v 0.29027453 0.046149705 -0.18727393
v 0.2493403 0.04614969 -0.18808174
v 0.24934019 0.42790496 -0.18808188
v 0.29027438 0.42790496 -0.18727407
v 0.24934009 0.68268186 -0.18808195
v 0.29027432 0.6826819 -0.18727414
v 0.24178843 0.42790508 0.19460702
v 0.28272262 0.42790508 0.19541483
v 0.28272256 0.6826821 0.19541477
v 0.24178834 0.68268204 0.19460697
v 0.24178846 0.38037777 0.19460706
v 0.28272265 0.38037777 0.19541484
v 0.24178855 0.046149816 0.19460718
v 0.28272277 0.04614983 0.19541498
v 0.24607222 0.6826819 -0.022479806
v 0.28700644 0.6826819 -0.021672038
v 0.29027432 0.6826819 -0.18727414
v 0.24934009 0.68268186 -0.18808195
v 0.2451267 0.38037768 0.025439832
v 0.2860609 0.38037768 0.0262476
v 0.28606102 0.04614979 0.026247714
v 0.24512681 0.04614978 0.025439944
v 0.24512668 0.427905 0.025439817
v 0.28606087 0.427905 0.026247587
v 0.2451266 0.6826819 0.025439724
v 0.2860608 0.68268204 0.026247494
v 0.29027453 0.046149705 -0.18727393
v 0.2902745 0.11656097 -0.18727398
v 0.24934028 0.11656095 -0.18808177
v 0.2493403 0.04614969 -0.18808174
v 0.24178855 0.046149816 0.19460718
v 0.24178855 0.116561085 0.19460715
v 0.28272274 0.11656109 0.19541495
v 0.28272277 0.04614983 0.19541498
v 0.24934028 0.11656095 -0.18808177
v 0.2902745 0.11656097 -0.18727398
v 0.2870066 0.11656105 -0.021671843
v 0.2460724 0.11656104 -0.02247961
v 0.2451268 0.11656105 0.02543992
v 0.286061 0.116561055 0.02624769
v 0.28272274 0.11656109 0.19541495
v 0.24178855 0.116561085 0.19460715
v 0.24512681 0.04614978 0.025439944
v 0.2451268 0.11656105 0.02543992
v 0.24178855 0.116561085 0.19460715
v 0.24178855 0.046149816 0.19460718
v 0.2493403 0.04614969 -0.18808174
v 0.24934028 0.11656095 -0.18808177
v 0.2460724 0.11656104 -0.02247961
v 0.24607243 0.046149764 -0.022479586
v 0.28606102 0.04614979 0.026247714
v 0.286061 0.116561055 0.02624769
v 0.2451268 0.11656105 0.02543992
v 0.24512681 0.04614978 0.025439944
v 0.28700665 0.04614978 -0.021671819
v 0.2870066 0.11656105 -0.021671843
v 0.2902745 0.11656097 -0.18727398
v 0.29027453 0.046149705 -0.18727393
v 0.28272277 0.04614983 0.19541498
v 0.28272274 0.11656109 0.19541495
v 0.286061 0.116561055 0.02624769
v 0.28606102 0.04614979 0.026247714
v 0.24607243 0.046149764 -0.022479586
v 0.2460724 0.11656104 -0.02247961
v 0.2870066 0.11656105 -0.021671843
v 0.28700665 0.04614978 -0.021671819
v 0.29027453 0.046149705 -0.18727393
v 0.2902744 0.38037765 -0.18727405
v 0.28700653 0.38037768 -0.021671928
v 0.28700665 0.04614978 -0.021671819
v 0.2860609 0.38037768 0.0262476
v 0.26046452 0.38037768 0.0257425
v 0.25712627 0.38037777 0.19490974
v 0.28272265 0.38037777 0.19541484
v 0.28606102 0.04614979 0.026247714
v 0.2860609 0.38037768 0.0262476
v 0.28272265 0.38037777 0.19541484
v 0.28272277 0.04614983 0.19541498
v 0.28606087 0.427905 0.026247587
v 0.2604645 0.427905 0.025742482
v 0.26046452 0.38037768 0.0257425
v 0.2860609 0.38037768 0.0262476
v 0.2504656 0.04614967 -0.24510616
v 0.25046548 0.38037762 -0.24510625
v 0.2493402 0.38037765 -0.18808183
v 0.2493403 0.04614969 -0.18808174
v 0.26467803 0.38037765 -0.18777916
v 0.264678 0.42790496 -0.18777919
v 0.26141012 0.427905 -0.022177052
v 0.26141015 0.38037768 -0.022177033
v 0.26046452 0.38037768 0.0257425
v 0.2604645 0.427905 0.025742482
v 0.25712624 0.42790508 0.19490972
v 0.25712627 0.38037777 0.19490974
v 0.28700653 0.38037768 -0.021671928
v 0.26141015 0.38037768 -0.022177033
v 0.26141012 0.427905 -0.022177052
v 0.2870065 0.427905 -0.021671947
v 0.2902744 0.38037765 -0.18727405
v 0.26467803 0.38037765 -0.18777916
v 0.26141015 0.38037768 -0.022177033
v 0.28700653 0.38037768 -0.021671928
v 0.29027438 0.42790496 -0.18727407
v 0.264678 0.42790496 -0.18777919
v 0.26467803 0.38037765 -0.18777916
v 0.2902744 0.38037765 -0.18727405
v 0.28272265 0.38037777 0.19541484
v 0.25712627 0.38037777 0.19490974
v 0.25712624 0.42790508 0.19490972
v 0.28272262 0.42790508 0.19541483
v 0.28272262 0.42790508 0.19541483
v 0.25712624 0.42790508 0.19490972
v 0.2604645 0.427905 0.025742482
v 0.28606087 0.427905 0.026247587
v 0.2870065 0.427905 -0.021671947
v 0.26141012 0.427905 -0.022177052
v 0.264678 0.42790496 -0.18777919
v 0.29027438 0.42790496 -0.18727407
v 0.1780985 0.04125358 -0.23153128
v 0.2452477 0.03711638 -0.23020619
v 0.24524768 0.079972826 -0.23020622
v 0.17809848 0.09454043 -0.23153129
v -0.23504795 0.04125344 -0.23968406
v -0.23504797 0.0945403 -0.23968408
v -0.29301137 0.037116203 -0.2408279
v -0.2930114 0.079972655 -0.24082792
v 0.2369613 0.03711652 0.18971227
v 0.23597482 0.037116535 0.23970231
v 0.23597482 0.07997298 0.23970231
v 0.23696129 0.07997297 0.18971226
v 0.2441709 0.0371164 -0.17563821
v 0.24417089 0.07997285 -0.17563823
v 0.2452477 0.03711638 -0.23020619
v 0.24524768 0.079972826 -0.23020622
v -0.24432082 0.0412536 0.23022445
v -0.30228427 0.03711636 0.22908063
v -0.3022843 0.079972796 0.22908062
v -0.24432082 0.094540454 0.23022443
v 0.16882563 0.041253734 0.23837726
v 0.1688256 0.09454058 0.23837724
v 0.23597482 0.037116535 0.23970231
v 0.23597482 0.07997298 0.23970231
v -0.29408818 0.037116222 -0.18625991
v -0.29301137 0.037116203 -0.2408279
v -0.2930114 0.079972655 -0.24082792
v -0.2940882 0.07997268 -0.18625991
v -0.3012978 0.03711634 0.17909057
v -0.30129784 0.079972796 0.17909056
v -0.30228427 0.03711636 0.22908063
v -0.3022843 0.079972796 0.22908062
v -0.24333434 0.04125359 0.18023439
v -0.3012978 0.03711634 0.17909057
v -0.30228427 0.03711636 0.22908063
v -0.24432082 0.0412536 0.23022445
v -0.23612475 0.04125347 -0.18511608
v -0.29408818 0.037116222 -0.18625991
v -0.23504795 0.04125344 -0.23968406
v -0.29301137 0.037116203 -0.2408279
v -0.23612475 0.10357371 -0.1851161
v -0.2940882 0.07997268 -0.18625991
v -0.2930114 0.079972655 -0.24082792
v -0.23504797 0.0945403 -0.23968408
v 0.24417089 0.07997285 -0.17563823
v 0.17702167 0.103573844 -0.17696328
v 0.17809848 0.09454043 -0.23153129
v 0.24524768 0.079972826 -0.23020622
v 0.17702167 0.103573844 -0.17696328
v -0.23612475 0.10357371 -0.1851161
v -0.23504797 0.0945403 -0.23968408
v 0.17809848 0.09454043 -0.23153129
v 0.2369613 0.03711652 0.18971227
v 0.1698121 0.041253723 0.1883872
v 0.16882563 0.041253734 0.23837726
v 0.23597482 0.037116535 0.23970231
v 0.2441709 0.0371164 -0.17563821
v 0.1770217 0.041253604 -0.17696328
v 0.2452477 0.03711638 -0.23020619
v 0.1780985 0.04125358 -0.23153128
v 0.1698121 0.041253723 0.1883872
v -0.24333434 0.04125359 0.18023439
v -0.24432082 0.0412536 0.23022445
v 0.16882563 0.041253734 0.23837726
v 0.1770217 0.041253604 -0.17696328
v -0.23612475 0.04125347 -0.18511608
v 0.1780985 0.04125358 -0.23153128
v -0.23504795 0.04125344 -0.23968406
v 0.1688256 0.09454058 0.23837724
v -0.24432082 0.094540454 0.23022443
v -0.24333437 0.10357384 0.18023439
v 0.16981208 0.10357397 0.18838719
v 0.16981208 0.10357397 0.18838719
v -0.24333437 0.10357384 0.18023439
v -0.23612475 0.10357371 -0.1851161
v 0.17702167 0.103573844 -0.17696328
v 0.23597482 0.07997298 0.23970231
v 0.1688256 0.09454058 0.23837724
v 0.16981208 0.10357397 0.18838719
v 0.23696129 0.07997297 0.18971226
v 0.23696129 0.07997297 0.18971226
v 0.16981208 0.10357397 0.18838719
v 0.17702167 0.103573844 -0.17696328
v 0.24417089 0.07997285 -0.17563823
v -0.24432082 0.094540454 0.23022443
v -0.3022843 0.079972796 0.22908062
v -0.30129784 0.079972796 0.17909056
v -0.24333437 0.10357384 0.18023439
v -0.24333437 0.10357384 0.18023439
v -0.30129784 0.079972796 0.17909056
v -0.2940882 0.07997268 -0.18625991
v -0.23612475 0.10357371 -0.1851161
vn 0.019729765 -3.095977E-07 -0.9998054
vn 0.019729765 -3.095977E-07 -0.9998054
vn 0.019729765 -3.095977E-07 -0.9998054
vn 0.019729765 -3.095977E-07 -0.9998054
vn 0.019729754 -3.6939826E-07 -0.9998054
vn 0.019729754 -3.6939826E-07 -0.9998054
vn 0.019729191 -3.2501444E-07 -0.9998054
vn 0.01972919 -5.1777283E-07 -0.9998054
vn 0.019729191 -3.2501444E-07 -0.9998054
vn 0.019729191 -3.2501444E-07 -0.9998054
vn 0.019729191 -3.2501444E-07 -0.9998054
vn 0.01972919 -5.1777283E-07 -0.9998054
vn 0.019729756 -2.5602174E-07 -0.9998054
vn 0.019729756 -2.5602174E-07 -0.9998054
vn 0.019729758 -3.3586096E-07 -0.9998054
vn 0.019729758 -3.3586096E-07 -0.9998054
vn 0.019729763 -5.6284114E-07 -0.9998054
vn 0.019729763 -5.6284114E-07 -0.9998054
vn 0.019729763 -5.6284114E-07 -0.9998054
vn 0.019729763 -5.6284114E-07 -0.9998054
vn 0.9998054 3.0462323E-07 0.019729769
vn 0.9998054 3.0462323E-07 0.019729769
vn 0.9998054 3.0462323E-07 0.019729769
vn 0.9998054 3.0462323E-07 0.019729769
vn 0.9998054 3.0510333E-07 0.019729696
vn 0.9998054 3.0510333E-07 0.019729696
vn 0.9998054 3.2870167E-07 0.019729279
vn 0.9998054 3.2870167E-07 0.019729279
vn 0.9998054 3.0060733E-07 0.019729473
vn 0.9998054 3.0060733E-07 0.019729473
vn 0.9998054 3.0363304E-07 0.019729452
vn 0.9998054 3.0363304E-07 0.019729452
vn 0.9998054 3.0363304E-07 0.019729452
vn 0.9998054 3.0363304E-07 0.019729452
vn 0.9998054 3.2858804E-07 0.019729689
vn 0.9998054 3.2858804E-07 0.019729689
vn 0.9998054 3.6320657E-07 0.019729348
vn 0.9998054 3.6320657E-07 0.019729348
vn 0.9998054 2.400042E-07 0.019729473
vn 0.9998054 2.403473E-07 0.019729588
vn 0.9998054 4.9408493E-07 0.019729557
vn 0.9998054 5.0345614E-07 0.019729434
vn 0.9998054 5.0345614E-07 0.019729434
vn 0.9998054 5.0345614E-07 0.019729434
vn 0.9998054 5.0345614E-07 0.019729434
vn 0.9998054 4.9408493E-07 0.019729557
vn 0.9998054 2.400042E-07 0.019729473
vn 0.9998054 2.3933848E-07 0.01972988
vn 0.9998054 2.403473E-07 0.019729588
vn 0.9998054 2.390873E-07 0.01972982
vn 0.9998054 5.0083275E-07 0.019729566
vn 0.9998054 2.390873E-07 0.01972982
vn 0.9998054 5.0083275E-07 0.019729566
vn 0.9998054 5.0083275E-07 0.019729566
vn 0.9998054 5.0083275E-07 0.019729566
vn 0.9998054 4.97814E-07 0.019729642
vn 0.9998054 3.6259823E-07 0.019729739
vn 0.9998054 3.6259823E-07 0.019729739
vn 0.9998054 3.6305897E-07 0.019729182
vn 0.9998054 3.6333842E-07 0.019729797
vn -0.019729696 1.3289693E-07 0.9998054
vn -0.019729696 1.3289693E-07 0.9998054
vn -0.019729696 1.3289693E-07 0.9998054
vn -0.019729696 1.3289693E-07 0.9998054
vn -0.019729491 3.0783204E-07 0.9998054
vn -0.019729506 7.108257E-07 0.9998054
vn -0.019729491 3.0783204E-07 0.9998054
vn -0.019729491 3.0783204E-07 0.9998054
vn -0.019729491 3.0783204E-07 0.9998054
vn -0.019729506 7.108257E-07 0.9998054
vn -0.019729698 3.5456088E-07 0.9998054
vn -0.019729698 3.5456088E-07 0.9998054
vn -0.019729493 2.5602196E-07 0.9998054
vn -0.019729493 2.5602196E-07 0.9998054
vn -0.0197295 3.3586122E-07 0.9998054
vn -0.0197295 3.3586122E-07 0.9998054
vn -0.019729517 0 0.9998054
vn -0.019729517 0 0.9998054
vn -0.019729517 0 0.9998054
vn -0.019729517 0 0.9998054
vn -0.9998054 -3.062218E-07 -0.019729452
vn -0.9998054 -3.062218E-07 -0.019729452
vn -0.9998054 -3.062218E-07 -0.019729452
vn -0.9998054 -3.062218E-07 -0.019729452
vn -0.9998054 -3.0506644E-07 -0.019729583
vn -0.9998054 -3.0506644E-07 -0.019729583
vn -0.9998054 -3.2767025E-07 -0.019729324
vn -0.9998054 -3.2767025E-07 -0.019729324
vn -0.9998054 -3.0440611E-07 -0.019729806
vn -0.9998054 -3.0440611E-07 -0.019729806
vn -0.9998054 -3.0816943E-07 -0.01972946
vn -0.9998054 -3.0816943E-07 -0.01972946
vn -0.9998054 -3.0816943E-07 -0.01972946
vn -0.9998054 -3.0816943E-07 -0.01972946
vn -0.9998054 -3.2783208E-07 -0.019730268
vn -0.9998054 -3.2783208E-07 -0.019730268
vn -2.160039E-07 1 -3.329942E-07
vn -2.160039E-07 1 -3.329942E-07
vn -2.160039E-07 1 -3.329942E-07
vn -2.160039E-07 1 -3.329942E-07
vn -2.4793374E-07 1 -4.337284E-07
vn -2.4793374E-07 1 -4.337284E-07
vn -3.2203354E-07 1 -4.3371116E-07
vn -3.2203354E-07 1 -4.3371116E-07
vn -3.4235134E-07 1 -3.329773E-07
vn -3.096175E-07 1 -2.1551075E-07
vn -3.096175E-07 1 -2.1551075E-07
vn -3.3226073E-07 1 -3.466677E-07
vn -2.7286112E-07 1 -3.7769453E-07
vn -3.3226073E-07 1 -3.466677E-07
vn -2.7286112E-07 1 -3.7769453E-07
vn -2.7286112E-07 1 -3.7769453E-07
vn -2.7286112E-07 1 -3.7769453E-07
vn -3.397919E-07 1 -2.0459679E-07
vn -0.019729728 3.250146E-07 0.9998054
vn -0.019729728 3.250146E-07 0.9998054
vn -0.019729728 3.250146E-07 0.9998054
vn -0.019729728 3.250146E-07 0.9998054
vn 2.9125022E-07 -1 4.6875005E-07
vn 2.9125022E-07 -1 4.6875005E-07
vn 2.9125022E-07 -1 4.6875005E-07
vn 2.9125022E-07 -1 4.6875005E-07
vn 3.0343818E-07 -1 4.91034E-07
vn 3.0343818E-07 -1 4.91034E-07
vn 3.0343818E-07 -1 4.91034E-07
vn 3.0343818E-07 -1 4.91034E-07
vn 3.1643864E-07 -1 3.4666752E-07
vn 3.1643864E-07 -1 3.4666752E-07
vn 3.1053233E-07 -1 1.638712E-07
vn 3.1053233E-07 -1 1.638712E-07
vn 3.173013E-07 -1 3.3297735E-07
vn 3.173013E-07 -1 3.3297735E-07
vn 3.173013E-07 -1 3.3297735E-07
vn 3.173013E-07 -1 3.3297735E-07
vn 3.099706E-07 -1 1.7472775E-07
vn 3.099706E-07 -1 1.7472775E-07
vn 4.958675E-07 -1 1.6388847E-07
vn 4.958675E-07 -1 1.6388847E-07
vn 1.0914446E-06 -1 5.0532094E-07
vn 1.0914446E-06 -1 5.0532094E-07
vn 1.0914446E-06 -1 5.0532094E-07
vn 1.0914446E-06 -1 5.0532094E-07
vn -0 -1 5.327912E-07
vn -0 -1 5.327912E-07
vn -0 -1 5.327912E-07
vn -0 -1 5.327912E-07
vn -0 -1 5.3322555E-07
vn -0 -1 5.3322555E-07
vn -0 -1 5.3322555E-07
vn -0 -1 5.3322555E-07
vn -0 -1 5.0575505E-07
vn -0 -1 5.0575505E-07
vn -0 -1 5.0575505E-07
vn -0 -1 5.0575505E-07
vn 0.019729717 -2.9546766E-07 -0.9998054
vn 0.019729717 -2.9546766E-07 -0.9998054
vn 0.019729717 -2.9546766E-07 -0.9998054
vn 0.019729717 -2.9546766E-07 -0.9998054
vn -0.9998054 -3.2858804E-07 -0.019729791
vn -0.9998054 -3.2858804E-07 -0.019729791
vn -0.9998054 -3.2858804E-07 -0.019729791
vn -0.9998054 -3.2858804E-07 -0.019729791
vn -0.9998054 -3.2783197E-07 -0.019728843
vn -0.9998054 -3.2783197E-07 -0.019728843
vn -0.9998054 -3.2783197E-07 -0.019728843
vn -0.9998054 -3.2783197E-07 -0.019728843
vn 0.9998054 3.285879E-07 0.019729761
vn 0.9998054 3.285879E-07 0.019729761
vn 0.9998054 3.285879E-07 0.019729761
vn 0.9998054 3.285879E-07 0.019729761
vn -0.01972975 3.6939824E-07 0.9998054
vn -0.01972975 3.6939824E-07 0.9998054
vn -0.01972975 3.6939824E-07 0.9998054
vn -0.01972975 3.6939824E-07 0.9998054
vn 0.9998054 3.2957126E-07 0.019729279
vn 0.9998054 3.2957126E-07 0.019729279
vn 0.9998054 3.2957126E-07 0.019729279
vn 0.9998054 3.2957126E-07 0.019729279
vn 0.01972975 -2.7704868E-07 -0.9998054
vn 0.01972975 -2.7704868E-07 -0.9998054
vn 0.01972975 -2.7704868E-07 -0.9998054
vn 0.01972975 -2.7704868E-07 -0.9998054
vn -0 1 -1.9069809E-07
vn -0 1 -1.9069809E-07
vn -0 1 -1.9069809E-07
vn -0 1 -1.9069809E-07
vn -1.2002298E-06 1 -5.332251E-07
vn -1.2002298E-06 1 -5.332251E-07
vn -1.6183376E-06 1 -3.7381392E-07
vn -1.6183376E-06 1 -3.7381392E-07
vn -0 1 -5.0575454E-07
vn -0 1 -5.0575454E-07
vn -0 1 -5.0575454E-07
vn -0 1 -5.0575454E-07
vn -0.9998054 -3.7759253E-07 -0.019729864
vn -0.9998054 -3.7759253E-07 -0.019729864
vn -0.9998054 -3.7759253E-07 -0.019729864
vn -0.9998054 -3.7759253E-07 -0.019729864
vn -0.9998054 -2.974206E-07 -0.019729149
vn -0.9998054 -2.974206E-07 -0.019729149
vn -0.9998054 -2.4848714E-07 -0.019729543
vn -0.9998054 -3.5792561E-07 -0.019729638
vn -0.9998054 -2.5456455E-07 -0.01972955
vn -0.9998054 -2.5456455E-07 -0.01972955
vn -0.9998054 -2.4644126E-07 -0.019729657
vn -0.9998054 -2.4644126E-07 -0.019729657
vn -0.9998054 -2.4644126E-07 -0.019729657
vn -0.9998054 -2.4644126E-07 -0.019729657
vn -0.9998054 -3.567334E-07 -0.019729296
vn -0.9998054 -3.567334E-07 -0.019729296
vn -0.9998054 -3.5792561E-07 -0.019729638
vn -0.9998054 -3.5792561E-07 -0.019729638
vn -0.9998054 -3.1861657E-07 -0.019730179
vn -0.9998054 -3.1861657E-07 -0.019730179
vn -0.9998054 -3.1861657E-07 -0.019730179
vn -0.9998054 -3.1861657E-07 -0.019730179
vn -0.9998054 -3.196654E-07 -0.01972911
vn -0.9998054 -3.196654E-07 -0.01972911
vn -0.9998054 -3.196654E-07 -0.01972911
vn -0.9998054 -3.196654E-07 -0.01972911
vn 1.0755195E-06 -1 3.809274E-07
vn 1.0755195E-06 -1 3.809274E-07
vn 1.0755195E-06 -1 3.809274E-07
vn 1.0755195E-06 -1 3.809274E-07
vn 0.019729482 -3.414638E-07 -0.9998054
vn 0.019729482 -3.414638E-07 -0.9998054
vn 0.019729482 -3.414638E-07 -0.9998054
vn 0.019729482 -3.414638E-07 -0.9998054
vn 0.019729484 -3.2916816E-07 -0.9998054
vn 0.019729484 -3.2916816E-07 -0.9998054
vn 0.019729484 -3.2916816E-07 -0.9998054
vn 0.019729484 -3.2916816E-07 -0.9998054
vn -0.9998054 -2.3967212E-07 -0.019729735
vn -0.9998054 -2.3967212E-07 -0.019729735
vn -0.9998054 -2.3967212E-07 -0.019729735
vn -0.9998054 -2.3967212E-07 -0.019729735
vn -0.9998054 -2.413835E-07 -0.019729469
vn -0.9998054 -2.413835E-07 -0.019729469
vn -0.9998054 -2.413835E-07 -0.019729469
vn -0.9998054 -2.413835E-07 -0.019729469
vn -0.019730074 3.042975E-07 0.9998054
vn -0.019730074 3.042975E-07 0.9998054
vn -0.019730074 3.042975E-07 0.9998054
vn -0.019730074 3.042975E-07 0.9998054
vn -0.01973007 3.112001E-07 0.9998054
vn -0.01973007 3.112001E-07 0.9998054
vn -0.01973007 3.112001E-07 0.9998054
vn -0.01973007 3.112001E-07 0.9998054
vn 0.019730076 -2.2262324E-07 -0.9998054
vn 0.019730076 -2.2262324E-07 -0.9998054
vn 0.019730076 -2.2262324E-07 -0.9998054
vn 0.019730076 -2.2262324E-07 -0.9998054
vn 0.019730065 -4.0746252E-07 -0.9998054
vn 0.019730065 -4.0746252E-07 -0.9998054
vn 0.019730065 -4.0746252E-07 -0.9998054
vn 0.019730065 -4.0746252E-07 -0.9998054
vn 1.0986734E-06 -1 1.9425477E-07
vn 1.0986734E-06 -1 1.9425477E-07
vn 1.0986734E-06 -1 1.9425477E-07
vn 1.0986734E-06 -1 1.9425477E-07
vn -0.019729517 3.3282953E-07 0.9998054
vn -0.019729517 3.3282953E-07 0.9998054
vn -0.019729517 3.3282953E-07 0.9998054
vn -0.019729517 3.3282953E-07 0.9998054
vn -0.01972953 3.6339617E-07 0.9998054
vn -0.01972953 3.6339617E-07 0.9998054
vn -0.01972953 3.6339617E-07 0.9998054
vn -0.01972953 3.6339617E-07 0.9998054
vn 0.019730072 -3.2306295E-07 -0.9998054
vn 0.019730072 -3.2306295E-07 -0.9998054
vn 0.019730072 -3.2306295E-07 -0.9998054
vn 0.019730072 -3.2306295E-07 -0.9998054
vn -0.019730074 6.461259E-07 0.9998054
vn -0.019730074 6.461259E-07 0.9998054
vn -0.019730074 6.461259E-07 0.9998054
vn -0.019730074 6.461259E-07 0.9998054
vn -0 1 -4.776055E-07
vn -0 1 -4.776055E-07
vn -0 1 -4.776055E-07
vn -0 1 -4.776055E-07
vn -5.377601E-07 1 -2.0350066E-07
vn -5.377601E-07 1 -2.0350066E-07
vn -5.377601E-07 1 -2.0350066E-07
vn -5.377601E-07 1 -2.0350066E-07
vn -0.9998054 -2.1986175E-07 -0.01972977
vn -0.9998054 -2.1986175E-07 -0.01972977
vn -0.9998054 -2.1986175E-07 -0.01972977
vn -0.9998054 -2.1986175E-07 -0.01972977
vn -0.9998054 -2.1710842E-07 -0.01972952
vn -0.9998054 -2.1710842E-07 -0.01972952
vn -0.9998054 -2.1710842E-07 -0.01972952
vn -0.9998054 -2.1710842E-07 -0.01972952
vn 0.01972955 -3.2306332E-07 -0.9998054
vn 0.01972955 -3.2306332E-07 -0.9998054
vn 0.01972955 -3.2306332E-07 -0.9998054
vn 0.01972955 -3.2306332E-07 -0.9998054
vn 0.9998054 4.34217E-07 0.01972947
vn 0.9998054 4.34217E-07 0.01972947
vn 0.9998054 4.34217E-07 0.01972947
vn 0.9998054 4.34217E-07 0.01972947
vn 0.9998054 4.275089E-07 0.019729424
vn 0.9998054 4.275089E-07 0.019729424
vn 0.9998054 4.275089E-07 0.019729424
vn 0.9998054 4.275089E-07 0.019729424
vn -0.019729493 3.4325456E-07 0.9998054
vn -0.019729493 3.4325456E-07 0.9998054
vn -0.019729493 3.4325456E-07 0.9998054
vn -0.019729493 3.4325456E-07 0.9998054
vn -0.9998054 -3.632746E-07 -0.019729542
vn -0.9998054 -3.632746E-07 -0.019729542
vn -0.9998054 -3.632746E-07 -0.019729542
vn -0.9998054 -3.632746E-07 -0.019729542
vn -0 -1 3.5220432E-07
vn -0 -1 3.5220432E-07
vn -0 -1 3.5220432E-07
vn -0 -1 3.5220432E-07
vn -0.9998054 -3.6230915E-07 -0.01972968
vn -0.9998054 -3.6230915E-07 -0.01972968
vn -0.9998054 -3.6230915E-07 -0.01972968
vn -0.9998054 -3.6230915E-07 -0.01972968
vn 0.019729527 -2.9564663E-07 -0.9998054
vn 0.019729527 -2.9564663E-07 -0.9998054
vn 0.019729527 -2.9564663E-07 -0.9998054
vn 0.019729527 -2.9564663E-07 -0.9998054
vn -0.9998054 -3.4046056E-07 -0.019729346
vn -0.9998054 -3.4046056E-07 -0.019729346
vn -0.9998054 -3.4046056E-07 -0.019729346
vn -0.9998054 -3.4046056E-07 -0.019729346
vn -0.9998054 -6.321974E-07 -0.019729506
vn -0.9998054 -6.321974E-07 -0.019729506
vn -0.9998054 -6.321974E-07 -0.019729506
vn -0.9998054 -6.321974E-07 -0.019729506
vn -0.9998054 -6.369693E-07 -0.019729318
vn -0.9998054 -6.369693E-07 -0.019729318
vn -0.9998054 -6.369693E-07 -0.019729318
vn -0.9998054 -6.369693E-07 -0.019729318
vn -0.019729538 3.6573917E-07 0.9998054
vn -0.019729538 3.6573917E-07 0.9998054
vn -0.019729538 3.6573917E-07 0.9998054
vn -0.019729538 3.6573917E-07 0.9998054
vn -0 -1 3.5978667E-07
vn -0 -1 3.5978667E-07
vn -0 -1 3.5978667E-07
vn -0 -1 3.5978667E-07
vn 0.019729607 -7.585717E-07 -0.9998054
vn 0.019729607 -7.585717E-07 -0.9998054
vn 0.019729607 -7.585717E-07 -0.9998054
vn 0.019729607 -7.585717E-07 -0.9998054
vn -0.019729607 5.641922E-07 0.9998054
vn -0.019729607 5.641922E-07 0.9998054
vn -0.019729607 5.641922E-07 0.9998054
vn -0.019729607 5.641922E-07 0.9998054
vn -0 1 -3.522044E-07
vn -0 1 -3.522044E-07
vn -0 1 -3.522044E-07
vn -0 1 -3.522044E-07
vn -0 1 -3.5978664E-07
vn -0 1 -3.5978664E-07
vn -0 1 -3.5978664E-07
vn -0 1 -3.5978664E-07
vn 0.019729357 -1.9710474E-07 -0.9998054
vn 0.019729357 -1.9710474E-07 -0.9998054
vn 0.019729357 -1.9710474E-07 -0.9998054
vn 0.019729357 -1.9710474E-07 -0.9998054
vn 0.019729832 -6.131909E-07 -0.9998054
vn 0.019729832 -6.131909E-07 -0.9998054
vn 0.019729832 -6.131909E-07 -0.9998054
vn 0.019729832 -6.131909E-07 -0.9998054
vn 0.9998054 3.562247E-07 0.019729413
vn 0.9998054 3.562247E-07 0.019729413
vn 0.9998054 3.562247E-07 0.019729413
vn 0.9998054 3.562247E-07 0.019729413
vn 0.9998054 3.5552551E-07 0.019729
vn 0.9998054 3.5552551E-07 0.019729
vn 0.9998054 3.5552551E-07 0.019729
vn 0.9998054 3.5552551E-07 0.019729
vn -0.019729814 4.446448E-07 0.9998054
vn -0.019729814 4.446448E-07 0.9998054
vn -0.019729814 4.446448E-07 0.9998054
vn -0.019729814 4.446448E-07 0.9998054
vn -0.019729355 5.2327704E-07 0.9998054
vn -0.019729355 5.2327704E-07 0.9998054
vn -0.019729355 5.2327704E-07 0.9998054
vn -0.019729355 5.2327704E-07 0.9998054
vn -0.9998054 -7.0434845E-07 -0.019729793
vn -0.9998054 -7.0434845E-07 -0.019729793
vn -0.9998054 -7.0434845E-07 -0.019729793
vn -0.9998054 -7.0434845E-07 -0.019729793
vn -0.9998054 -7.0098764E-07 -0.019729417
vn -0.9998054 -7.0098764E-07 -0.019729417
vn -0.9998054 -7.0098764E-07 -0.019729417
vn -0.9998054 -7.0098764E-07 -0.019729417
vn 0.07116802 -0.99746335 0.0014046541
vn 0.07116802 -0.99746335 0.0014046541
vn 0.07116802 -0.99746335 0.0014046541
vn 0.07116802 -0.99746335 0.0014046541
vn 0.071167916 -0.99746335 0.0014048244
vn 0.071167916 -0.99746335 0.0014048244
vn 0.071167916 -0.99746335 0.0014048244
vn 0.071167916 -0.99746335 0.0014048244
vn -0.31010985 0.94693804 -0.08449981
vn -0.31010985 0.94693804 -0.08449981
vn -0.31010985 0.94693804 -0.08449981
vn -0.31010985 0.94693804 -0.08449981
vn 0.27398205 0.95888656 -0.07396291
vn 0.27398205 0.95888656 -0.07396291
vn 0.27398205 0.95888656 -0.07396291
vn 0.27398205 0.95888656 -0.07396291
vn 0.0032213281 0.986578 -0.16325878
vn 0.0032213281 0.986578 -0.16325878
vn 0.0032213281 0.986578 -0.16325878
vn 0.0032213281 0.986578 -0.16325878
vn -0.06147162 -0.99810815 -0.0012127543
vn -0.06147162 -0.99810815 -0.0012127543
vn -0.06147162 -0.99810815 -0.0012127543
vn -0.06147162 -0.99810815 -0.0012127543
vn -0.06147153 -0.99810815 -0.0012126479
vn -0.06147153 -0.99810815 -0.0012126479
vn -0.06147153 -0.99810815 -0.0012126479
vn -0.06147153 -0.99810815 -0.0012126479
vn 3.267996E-07 -1 2.2987801E-07
vn 3.267996E-07 -1 2.2987801E-07
vn 3.267996E-07 -1 2.2987801E-07
vn 3.267996E-07 -1 2.2987801E-07
vn 3.200301E-07 -1 4.5006635E-07
vn 3.200301E-07 -1 4.5006635E-07
vn 3.200301E-07 -1 4.5006635E-07
vn 3.200301E-07 -1 4.5006635E-07
vn -0.0035080493 0.98406845 0.17775552
vn -0.0035080493 0.98406845 0.17775552
vn -0.0035080493 0.98406845 0.17775552
vn -0.0035080493 0.98406845 0.17775552
vn -3.453865E-07 1 -3.325636E-07
vn -3.453865E-07 1 -3.325636E-07
vn -3.453865E-07 1 -3.325636E-07
vn -3.453865E-07 1 -3.325636E-07
vn 0.27054426 0.9583088 0.091923565
vn 0.27054426 0.9583088 0.091923565
vn 0.27054426 0.9583088 0.091923565
vn 0.27054426 0.9583088 0.091923565
vn 0.33146456 0.94344497 0.00654061
vn 0.33146456 0.94344497 0.00654061
vn 0.33146456 0.94344497 0.00654061
vn 0.33146456 0.94344497 0.00654061
vn -0.31315953 0.9463817 0.07932748
vn -0.31315953 0.9463817 0.07932748
vn -0.31315953 0.9463817 0.07932748
vn -0.31315953 0.9463817 0.07932748
vn -0.3769727 0.92619455 -0.0074392557
vn -0.3769727 0.92619455 -0.0074392557
vn -0.3769727 0.92619455 -0.0074392557
vn -0.3769727 0.92619455 -0.0074392557
g DinnertableChair.007_0
f 3/3/3 2/2/2 1/1/1
f 4/4/4 3/3/3 1/1/1
f 2/2/2 5/5/5 1/1/1
f 5/5/5 6/6/6 1/1/1
f 4/4/4 1/1/1 7/7/7
f 8/8/8 4/4/4 7/7/7
f 8/8/8 7/7/7 9/9/9
f 7/7/7 10/10/10 9/9/9
f 10/10/10 11/11/11 9/9/9
f 12/12/12 8/8/8 9/9/9
f 4/4/4 13/13/13 3/3/3
f 13/13/13 14/14/14 3/3/3
f 13/13/13 15/15/15 14/14/14
f 15/15/15 16/16/16 14/14/14
f 15/15/15 17/17/17 16/16/16
f 17/17/17 18/18/18 16/16/16
f 17/17/17 19/19/19 18/18/18
f 19/19/19 20/20/20 18/18/18
f 23/23/23 22/22/22 21/21/21
f 24/24/24 23/23/23 21/21/21
f 24/24/24 21/21/21 25/25/25
f 26/26/26 24/24/24 25/25/25
f 22/22/22 27/27/27 21/21/21
f 27/27/27 28/28/28 21/21/21
f 26/26/26 25/25/25 29/29/29
f 30/30/30 26/26/26 29/29/29
f 30/30/30 29/29/29 31/31/31
f 32/32/32 30/30/30 31/31/31
f 32/32/32 31/31/31 33/33/33
f 34/34/34 32/32/32 33/33/33
f 31/31/31 35/35/35 33/33/33
f 35/35/35 36/36/36 33/33/33
f 30/30/30 37/37/37 26/26/26
f 37/37/37 38/38/38 26/26/26
f 26/26/26 38/38/38 24/24/24
f 37/37/37 39/39/39 38/38/38
f 39/39/39 40/40/40 38/38/38
f 39/39/39 41/41/41 40/40/40
f 42/42/42 41/41/41 39/39/39
f 42/42/42 43/43/43 41/41/41
f 44/44/44 43/43/43 42/42/42
f 45/45/45 44/44/44 42/42/42
f 43/43/43 46/46/46 41/41/41
f 47/47/47 42/42/42 39/39/39
f 45/45/45 42/42/42 47/47/47
f 47/47/47 39/39/39 37/37/37
f 48/48/48 45/45/45 47/47/47
f 41/41/41 49/49/49 40/40/40
f 41/41/41 46/46/46 49/49/49
f 40/40/40 49/49/49 50/50/50
f 49/49/49 51/51/51 50/50/50
f 50/50/50 51/51/51 52/52/52
f 51/51/51 53/53/53 52/52/52
f 51/51/51 54/54/54 53/53/53
f 54/54/54 55/55/55 53/53/53
f 56/56/56 54/54/54 51/51/51
f 49/49/49 56/56/56 51/51/51
f 46/46/46 56/56/56 49/49/49
f 48/48/48 47/47/47 57/57/57
f 58/58/58 48/48/48 57/57/57
f 58/58/58 57/57/57 32/32/32
f 34/34/34 58/58/58 32/32/32
f 50/50/50 52/52/52 59/59/59
f 60/60/60 50/50/50 59/59/59
f 40/40/40 50/50/50 60/60/60
f 38/38/38 40/40/40 60/60/60
f 38/38/38 60/60/60 24/24/24
f 60/60/60 59/59/59 23/23/23
f 24/24/24 60/60/60 23/23/23
f 32/32/32 57/57/57 30/30/30
f 57/57/57 37/37/37 30/30/30
f 57/57/57 47/47/47 37/37/37
f 63/63/63 62/62/62 61/61/61
f 64/64/64 63/63/63 61/61/61
f 64/64/64 61/61/61 65/65/65
f 66/66/66 64/64/64 65/65/65
f 66/66/66 65/65/65 67/67/67
f 65/65/65 68/68/68 67/67/67
f 68/68/68 69/69/69 67/67/67
f 70/70/70 66/66/66 67/67/67
f 62/62/62 71/71/71 61/61/61
f 71/71/71 72/72/72 61/61/61
f 70/70/70 73/73/73 66/66/66
f 73/73/73 74/74/74 66/66/66
f 73/73/73 75/75/75 74/74/74
f 75/75/75 76/76/76 74/74/74
f 75/75/75 77/77/77 76/76/76
f 77/77/77 78/78/78 76/76/76
f 77/77/77 79/79/79 78/78/78
f 79/79/79 80/80/80 78/78/78
f 83/83/83 82/82/82 81/81/81
f 84/84/84 83/83/83 81/81/81
f 84/84/84 81/81/81 85/85/85
f 86/86/86 84/84/84 85/85/85
f 82/82/82 87/87/87 81/81/81
f 87/87/87 88/88/88 81/81/81
f 86/86/86 85/85/85 89/89/89
f 90/90/90 86/86/86 89/89/89
f 90/90/90 89/89/89 91/91/91
f 92/92/92 90/90/90 91/91/91
f 92/92/92 91/91/91 93/93/93
f 94/94/94 92/92/92 93/93/93
f 91/91/91 95/95/95 93/93/93
f 95/95/95 96/96/96 93/93/93
f 99/99/99 98/98/98 97/97/97
f 100/100/100 99/99/99 97/97/97
f 97/97/97 98/98/98 101/101/101
f 98/98/98 102/102/102 101/101/101
f 97/97/97 101/101/101 103/103/103
f 104/104/104 97/97/97 103/103/103
f 100/100/100 97/97/97 104/104/104
f 105/105/105 100/100/100 104/104/104
f 103/103/103 101/101/101 106/106/106
f 101/101/101 107/107/107 106/106/106
f 101/101/101 102/102/102 107/107/107
f 106/106/106 107/107/107 108/108/108
f 107/107/107 109/109/109 108/108/108
f 108/108/108 109/109/109 110/110/110
f 109/109/109 111/111/111 110/110/110
f 109/109/109 112/112/112 111/111/111
f 112/112/112 113/113/113 111/111/111
f 114/114/114 112/112/112 109/109/109
f 107/107/107 114/114/114 109/109/109
f 102/102/102 114/114/114 107/107/107
f 117/117/117 116/116/116 115/115/115
f 118/118/118 117/117/117 115/115/115
f 121/121/121 120/120/120 119/119/119
f 122/122/122 121/121/121 119/119/119
f 122/122/122 119/119/119 123/123/123
f 124/124/124 122/122/122 123/123/123
f 124/124/124 123/123/123 125/125/125
f 126/126/126 124/124/124 125/125/125
f 127/127/127 122/122/122 124/124/124
f 128/128/128 127/127/127 124/124/124
f 123/123/123 119/119/119 129/129/129
f 119/119/119 130/130/130 129/129/129
f 119/119/119 120/120/120 130/130/130
f 129/129/129 130/130/130 131/131/131
f 130/130/130 132/132/132 131/131/131
f 131/131/131 132/132/132 133/133/133
f 132/132/132 134/134/134 133/133/133
f 129/129/129 131/131/131 135/135/135
f 136/136/136 129/129/129 135/135/135
f 123/123/123 129/129/129 136/136/136
f 125/125/125 123/123/123 136/136/136
f 130/130/130 137/137/137 132/132/132
f 137/137/137 138/138/138 132/132/132
f 120/120/120 137/137/137 130/130/130
f 141/141/141 140/140/140 139/139/139
f 142/142/142 141/141/141 139/139/139
f 145/145/145 144/144/144 143/143/143
f 146/146/146 145/145/145 143/143/143
f 149/149/149 148/148/148 147/147/147
f 150/150/150 149/149/149 147/147/147
f 153/153/153 152/152/152 151/151/151
f 154/154/154 153/153/153 151/151/151
f 157/157/157 156/156/156 155/155/155
f 158/158/158 157/157/157 155/155/155
f 161/161/161 160/160/160 159/159/159
f 162/162/162 161/161/161 159/159/159
f 165/165/165 164/164/164 163/163/163
f 166/166/166 165/165/165 163/163/163
f 169/169/169 168/168/168 167/167/167
f 170/170/170 169/169/169 167/167/167
f 173/173/173 172/172/172 171/171/171
f 174/174/174 173/173/173 171/171/171
f 177/177/177 176/176/176 175/175/175
f 178/178/178 177/177/177 175/175/175
f 181/181/181 180/180/180 179/179/179
f 182/182/182 181/181/181 179/179/179
f 185/185/185 184/184/184 183/183/183
f 186/186/186 185/185/185 183/183/183
f 187/187/187 185/185/185 186/186/186
f 188/188/188 187/187/187 186/186/186
f 183/183/183 184/184/184 189/189/189
f 184/184/184 190/190/190 189/189/189
f 189/189/189 190/190/190 191/191/191
f 190/190/190 192/192/192 191/191/191
f 191/191/191 192/192/192 193/193/193
f 192/192/192 194/194/194 193/193/193
f 197/197/197 196/196/196 195/195/195
f 198/198/198 197/197/197 195/195/195
f 198/198/198 195/195/195 199/199/199
f 200/200/200 198/198/198 199/199/199
f 201/201/201 197/197/197 198/198/198
f 202/202/202 201/201/201 198/198/198
f 203/203/203 201/201/201 202/202/202
f 204/204/204 203/203/203 202/202/202
f 205/205/205 203/203/203 204/204/204
f 206/206/206 205/205/205 204/204/204
f 207/207/207 205/205/205 206/206/206
f 208/208/208 207/207/207 206/206/206
f 208/208/208 206/206/206 209/209/209
f 210/210/210 208/208/208 209/209/209
f 204/204/204 202/202/202 211/211/211
f 212/212/212 204/204/204 211/211/211
f 212/212/212 211/211/211 213/213/213
f 214/214/214 212/212/212 213/213/213
f 214/214/214 213/213/213 215/215/215
f 216/216/216 214/214/214 215/215/215
f 210/210/210 209/209/209 217/217/217
f 218/218/218 210/210/210 217/217/217
f 218/218/218 217/217/217 219/219/219
f 220/220/220 218/218/218 219/219/219
f 223/223/223 222/222/222 221/221/221
f 224/224/224 223/223/223 221/221/221
f 227/227/227 226/226/226 225/225/225
f 228/228/228 227/227/227 225/225/225
f 225/225/225 226/226/226 229/229/229
f 226/226/226 230/230/230 229/229/229
f 229/229/229 230/230/230 231/231/231
f 230/230/230 232/232/232 231/231/231
f 235/235/235 234/234/234 233/233/233
f 236/236/236 235/235/235 233/233/233
f 239/239/239 238/238/238 237/237/237
f 240/240/240 239/239/239 237/237/237
f 243/243/243 242/242/242 241/241/241
f 244/244/244 243/243/243 241/241/241
f 241/241/241 242/242/242 245/245/245
f 242/242/242 246/246/246 245/245/245
f 245/245/245 246/246/246 247/247/247
f 246/246/246 248/248/248 247/247/247
f 251/251/251 250/250/250 249/249/249
f 252/252/252 251/251/251 249/249/249
f 249/249/249 250/250/250 253/253/253
f 250/250/250 254/254/254 253/253/253
f 253/253/253 254/254/254 255/255/255
f 254/254/254 256/256/256 255/255/255
f 259/259/259 258/258/258 257/257/257
f 260/260/260 259/259/259 257/257/257
f 263/263/263 262/262/262 261/261/261
f 264/264/264 263/263/263 261/261/261
f 261/261/261 262/262/262 265/265/265
f 262/262/262 266/266/266 265/265/265
f 265/265/265 266/266/266 267/267/267
f 266/266/266 268/268/268 267/267/267
f 271/271/271 270/270/270 269/269/269
f 272/272/272 271/271/271 269/269/269
f 275/275/275 274/274/274 273/273/273
f 276/276/276 275/275/275 273/273/273
f 279/279/279 278/278/278 277/277/277
f 280/280/280 279/279/279 277/277/277
f 283/283/283 282/282/282 281/281/281
f 284/284/284 283/283/283 281/281/281
f 287/287/287 286/286/286 285/285/285
f 288/288/288 287/287/287 285/285/285
f 291/291/291 290/290/290 289/289/289
f 292/292/292 291/291/291 289/289/289
f 295/295/295 294/294/294 293/293/293
f 296/296/296 295/295/295 293/293/293
f 299/299/299 298/298/298 297/297/297
f 300/300/300 299/299/299 297/297/297
f 303/303/303 302/302/302 301/301/301
f 304/304/304 303/303/303 301/301/301
f 307/307/307 306/306/306 305/305/305
f 308/308/308 307/307/307 305/305/305
f 311/311/311 310/310/310 309/309/309
f 312/312/312 311/311/311 309/309/309
f 315/315/315 314/314/314 313/313/313
f 316/316/316 315/315/315 313/313/313
f 319/319/319 318/318/318 317/317/317
f 320/320/320 319/319/319 317/317/317
f 323/323/323 322/322/322 321/321/321
f 324/324/324 323/323/323 321/321/321
f 327/327/327 326/326/326 325/325/325
f 328/328/328 327/327/327 325/325/325
f 327/327/327 200/200/200 326/326/326
f 200/200/200 199/199/199 326/326/326
f 331/331/331 330/330/330 329/329/329
f 332/332/332 331/331/331 329/329/329
f 335/335/335 334/334/334 333/333/333
f 336/336/336 335/335/335 333/333/333
f 339/339/339 338/338/338 337/337/337
f 340/340/340 339/339/339 337/337/337
f 343/343/343 342/342/342 341/341/341
f 344/344/344 343/343/343 341/341/341
f 347/347/347 346/346/346 345/345/345
f 348/348/348 347/347/347 345/345/345
f 351/351/351 350/350/350 349/349/349
f 352/352/352 351/351/351 349/349/349
f 355/355/355 354/354/354 353/353/353
f 356/356/356 355/355/355 353/353/353
f 359/359/359 358/358/358 357/357/357
f 360/360/360 359/359/359 357/357/357
g DinnertableChair.007_1
f 363/363/363 362/362/362 361/361/361
f 364/364/364 363/363/363 361/361/361
f 364/364/364 361/361/361 365/365/365
f 366/366/366 364/364/364 365/365/365
f 366/366/366 365/365/365 367/367/367
f 368/368/368 366/366/366 367/367/367
f 371/371/371 370/370/370 369/369/369
f 372/372/372 371/371/371 369/369/369
f 372/372/372 369/369/369 373/373/373
f 374/374/374 372/372/372 373/373/373
f 374/374/374 373/373/373 375/375/375
f 376/376/376 374/374/374 375/375/375
f 379/379/379 378/378/378 377/377/377
f 380/380/380 379/379/379 377/377/377
f 380/380/380 377/377/377 381/381/381
f 382/382/382 380/380/380 381/381/381
f 382/382/382 381/381/381 383/383/383
f 384/384/384 382/382/382 383/383/383
f 387/387/387 386/386/386 385/385/385
f 388/388/388 387/387/387 385/385/385
f 388/388/388 385/385/385 389/389/389
f 390/390/390 388/388/388 389/389/389
f 390/390/390 389/389/389 391/391/391
f 392/392/392 390/390/390 391/391/391
f 395/395/395 394/394/394 393/393/393
f 396/396/396 395/395/395 393/393/393
f 393/393/393 394/394/394 397/397/397
f 394/394/394 398/398/398 397/397/397
f 397/397/397 398/398/398 399/399/399
f 398/398/398 400/400/400 399/399/399
f 403/403/403 402/402/402 401/401/401
f 404/404/404 403/403/403 401/401/401
f 407/407/407 406/406/406 405/405/405
f 408/408/408 407/407/407 405/405/405
f 411/411/411 410/410/410 409/409/409
f 412/412/412 411/411/411 409/409/409
f 415/415/415 414/414/414 413/413/413
f 416/416/416 415/415/415 413/413/413
f 413/413/413 414/414/414 417/417/417
f 414/414/414 418/418/418 417/417/417
f 417/417/417 418/418/418 419/419/419
f 418/418/418 420/420/420 419/419/419
f 423/423/423 422/422/422 421/421/421
f 424/424/424 423/423/423 421/421/421
f 421/421/421 422/422/422 425/425/425
f 422/422/422 426/426/426 425/425/425
f 425/425/425 426/426/426 427/427/427
f 426/426/426 428/428/428 427/427/427
f 431/431/431 430/430/430 429/429/429
f 432/432/432 431/431/431 429/429/429
f 435/435/435 434/434/434 433/433/433
f 436/436/436 435/435/435 433/433/433
f 439/439/439 438/438/438 437/437/437
f 440/440/440 439/439/439 437/437/437
f 443/443/443 442/442/442 441/441/441
f 444/444/444 443/443/443 441/441/441
f 447/447/447 446/446/446 445/445/445
f 448/448/448 447/447/447 445/445/445
f 451/451/451 450/450/450 449/449/449
f 452/452/452 451/451/451 449/449/449
