g Matress
v 1.1848633 0.08858146 -1.3327224
v 1.1848633 0.08858146 1.3327224
v -1.1848633 0.08858146 1.3327224
v -1.1848633 0.08858146 -1.3327224
v 1.2271409 -0.046303943 -1.3327224
v 1.2271409 -0.046303943 1.3327224
v 1.2271409 -0.038251083 1.3327224
v 1.2271409 -0.038251083 -1.3327224
v 1.227141 -0.010066072 -1.3327223
v 1.2271409 -0.010066072 1.3327224
v 1.2271409 0.018118935 -1.3327224
v 1.227141 0.018118937 1.3327223
v 1.2271409 0.046303943 -1.3327224
v 1.2271409 0.046303943 1.3327224
v 1.1848633 -0.046303943 1.375
v -1.1848633 -0.046303943 1.375
v -1.1848633 -0.038251083 1.375
v 1.1848633 -0.038251083 1.375
v 1.1848632 -0.010066072 1.375
v -1.1848633 -0.010066072 1.375
v 1.1848633 0.018118935 1.375
v -1.1848632 0.018118938 1.375
v 1.1848634 0.046303943 1.375
v -1.1848634 0.046303943 1.375
v -1.1848633 -0.046303943 -1.375
v 1.1848633 -0.046303943 -1.375
v 1.1848633 -0.038251083 -1.375
v -1.1848633 -0.038251083 -1.375
v -1.1848632 -0.010066072 -1.375
v 1.1848633 -0.010066072 -1.375
v -1.1848633 0.018118935 -1.375
v 1.1848632 0.018118937 -1.375
v -1.1848634 0.046303943 -1.375
v 1.1848634 0.046303943 -1.375
v -1.1848633 -0.08858146 -1.3327224
v -1.1848633 -0.08858146 1.3327224
v 1.1848633 -0.08858146 1.3327224
v 1.1848633 -0.08858146 -1.3327224
v -1.2271409 -0.046303943 1.3327224
v -1.2214928 -0.046303943 1.3538334
v -1.2160064 -0.06652154 1.3529401
v -1.2214928 -0.06741497 1.3327224
v -1.2214928 -0.06741497 1.3327224
v -1.2160064 -0.06652154 1.3529401
v -1.205081 -0.07744694 1.3529401
v -1.2059743 -0.08293334 1.3327224
v -1.1848633 -0.08858146 1.3327224
v -1.2059743 -0.08293334 1.3327224
v -1.205081 -0.07744694 1.3529401
v -1.1848633 -0.08293334 1.3538334
v -1.1848633 -0.08293334 1.3538334
v -1.205081 -0.07744694 1.3529401
v -1.205081 -0.06652154 1.3638655
v -1.1848633 -0.06741497 1.3693517
v -1.1848633 -0.046303943 1.375
v -1.1848633 -0.06741497 1.3693517
v -1.205081 -0.06652154 1.3638655
v -1.2059743 -0.046303943 1.3693517
v -1.2059743 -0.046303943 1.3693517
v -1.205081 -0.06652154 1.3638655
v -1.2160064 -0.06652154 1.3529401
v -1.2214928 -0.046303943 1.3538334
v -1.2160064 -0.06652154 1.3529401
v -1.205081 -0.06652154 1.3638655
v -1.205081 -0.07744694 1.3529401
v -1.1848634 0.046303943 1.375
v -1.2059743 0.046303943 1.3693517
v -1.205081 0.06652154 1.3638655
v -1.1848633 0.06741497 1.3693517
v -1.1848633 0.06741497 1.3693517
v -1.205081 0.06652154 1.3638655
v -1.2050809 0.07744694 1.3529401
v -1.1848633 0.08293334 1.3538334
v -1.1848633 0.08858146 1.3327224
v -1.1848633 0.08293334 1.3538334
v -1.2050809 0.07744694 1.3529401
v -1.2059743 0.08293334 1.3327224
v -1.2059743 0.08293334 1.3327224
v -1.2050809 0.07744694 1.3529401
v -1.2160063 0.06652154 1.3529401
v -1.2214925 0.06741497 1.3327224
v -1.2271409 0.046303943 1.3327224
v -1.2214925 0.06741497 1.3327224
v -1.2160063 0.06652154 1.3529401
v -1.2214928 0.046303943 1.3538334
v -1.2214928 0.046303943 1.3538334
v -1.2160063 0.06652154 1.3529401
v -1.205081 0.06652154 1.3638655
v -1.2059743 0.046303943 1.3693517
v -1.205081 0.06652154 1.3638655
v -1.2160063 0.06652154 1.3529401
v -1.2050809 0.07744694 1.3529401
v -1.1848633 -0.08858146 -1.3327224
v -1.1848633 -0.08293334 -1.3538334
v -1.205081 -0.07744694 -1.3529401
v -1.2059743 -0.08293334 -1.3327224
v -1.2059743 -0.08293334 -1.3327224
v -1.205081 -0.07744694 -1.3529401
v -1.2160064 -0.06652154 -1.3529401
v -1.2214928 -0.06741497 -1.3327224
v -1.2271409 -0.046303943 -1.3327224
v -1.2214928 -0.06741497 -1.3327224
v -1.2160064 -0.06652154 -1.3529401
v -1.2214928 -0.046303943 -1.3538334
v -1.2214928 -0.046303943 -1.3538334
v -1.2160064 -0.06652154 -1.3529401
v -1.205081 -0.06652154 -1.3638655
v -1.2059743 -0.046303943 -1.3693517
v -1.1848633 -0.046303943 -1.375
v -1.2059743 -0.046303943 -1.3693517
v -1.205081 -0.06652154 -1.3638655
v -1.1848633 -0.06741497 -1.3693517
v -1.1848633 -0.06741497 -1.3693517
v -1.205081 -0.06652154 -1.3638655
v -1.205081 -0.07744694 -1.3529401
v -1.1848633 -0.08293334 -1.3538334
v -1.205081 -0.07744694 -1.3529401
v -1.205081 -0.06652154 -1.3638655
v -1.2160064 -0.06652154 -1.3529401
v -1.2271409 0.046303943 -1.3327224
v -1.2214928 0.046303943 -1.3538334
v -1.2160063 0.06652154 -1.3529401
v -1.2214925 0.06741497 -1.3327224
v -1.2214925 0.06741497 -1.3327224
v -1.2160063 0.06652154 -1.3529401
v -1.2050809 0.07744694 -1.3529401
v -1.2059743 0.08293334 -1.3327224
v -1.1848633 0.08858146 -1.3327224
v -1.2059743 0.08293334 -1.3327224
v -1.2050809 0.07744694 -1.3529401
v -1.1848633 0.08293334 -1.3538334
v -1.1848633 0.08293334 -1.3538334
v -1.2050809 0.07744694 -1.3529401
v -1.205081 0.06652154 -1.3638655
v -1.1848633 0.06741497 -1.3693517
v -1.1848634 0.046303943 -1.375
v -1.1848633 0.06741497 -1.3693517
v -1.205081 0.06652154 -1.3638655
v -1.2059743 0.046303943 -1.3693517
v -1.2059743 0.046303943 -1.3693517
v -1.205081 0.06652154 -1.3638655
v -1.2160063 0.06652154 -1.3529401
v -1.2214928 0.046303943 -1.3538334
v -1.2160063 0.06652154 -1.3529401
v -1.205081 0.06652154 -1.3638655
v -1.2050809 0.07744694 -1.3529401
v 1.1848633 -0.08858146 1.3327224
v 1.1848633 -0.08293334 1.3538334
v 1.205081 -0.07744694 1.3529401
v 1.2059743 -0.08293334 1.3327224
v 1.2059743 -0.08293334 1.3327224
v 1.205081 -0.07744694 1.3529401
v 1.2160064 -0.06652154 1.3529401
v 1.2214928 -0.06741497 1.3327224
v 1.2271409 -0.046303943 1.3327224
v 1.2214928 -0.06741497 1.3327224
v 1.2160064 -0.06652154 1.3529401
v 1.2214928 -0.046303943 1.3538334
v 1.2214928 -0.046303943 1.3538334
v 1.2160064 -0.06652154 1.3529401
v 1.205081 -0.06652154 1.3638655
v 1.2059743 -0.046303943 1.3693517
v 1.1848633 -0.046303943 1.375
v 1.2059743 -0.046303943 1.3693517
v 1.205081 -0.06652154 1.3638655
v 1.1848633 -0.06741497 1.3693517
v 1.1848633 -0.06741497 1.3693517
v 1.205081 -0.06652154 1.3638655
v 1.205081 -0.07744694 1.3529401
v 1.1848633 -0.08293334 1.3538334
v 1.205081 -0.07744694 1.3529401
v 1.205081 -0.06652154 1.3638655
v 1.2160064 -0.06652154 1.3529401
v 1.2271409 0.046303943 1.3327224
v 1.2214928 0.046303943 1.3538334
v 1.2160063 0.06652154 1.3529401
v 1.2214925 0.06741497 1.3327224
v 1.2214925 0.06741497 1.3327224
v 1.2160063 0.06652154 1.3529401
v 1.2050809 0.07744694 1.3529401
v 1.2059743 0.08293334 1.3327224
v 1.1848633 0.08858146 1.3327224
v 1.2059743 0.08293334 1.3327224
v 1.2050809 0.07744694 1.3529401
v 1.1848633 0.08293334 1.3538334
v 1.1848633 0.08293334 1.3538334
v 1.2050809 0.07744694 1.3529401
v 1.205081 0.06652154 1.3638655
v 1.1848633 0.06741497 1.3693517
v 1.1848634 0.046303943 1.375
v 1.1848633 0.06741497 1.3693517
v 1.205081 0.06652154 1.3638655
v 1.2059743 0.046303943 1.3693517
v 1.2059743 0.046303943 1.3693517
v 1.205081 0.06652154 1.3638655
v 1.2160063 0.06652154 1.3529401
v 1.2214928 0.046303943 1.3538334
v 1.2160063 0.06652154 1.3529401
v 1.205081 0.06652154 1.3638655
v 1.2050809 0.07744694 1.3529401
v 1.1848633 -0.08858146 -1.3327224
v 1.2059743 -0.08293334 -1.3327224
v 1.205081 -0.07744694 -1.3529401
v 1.1848633 -0.08293334 -1.3538334
v 1.1848633 -0.08293334 -1.3538334
v 1.205081 -0.07744694 -1.3529401
v 1.205081 -0.06652154 -1.3638655
v 1.1848633 -0.06741497 -1.3693517
v 1.1848633 -0.046303943 -1.375
v 1.1848633 -0.06741497 -1.3693517
v 1.205081 -0.06652154 -1.3638655
v 1.2059743 -0.046303943 -1.3693517
v 1.2059743 -0.046303943 -1.3693517
v 1.205081 -0.06652154 -1.3638655
v 1.2160064 -0.06652154 -1.3529401
v 1.2214928 -0.046303943 -1.3538334
v 1.2271409 -0.046303943 -1.3327224
v 1.2214928 -0.046303943 -1.3538334
v 1.2160064 -0.06652154 -1.3529401
v 1.2214928 -0.06741497 -1.3327224
v 1.2214928 -0.06741497 -1.3327224
v 1.2160064 -0.06652154 -1.3529401
v 1.205081 -0.07744694 -1.3529401
v 1.2059743 -0.08293334 -1.3327224
v 1.205081 -0.07744694 -1.3529401
v 1.2160064 -0.06652154 -1.3529401
v 1.205081 -0.06652154 -1.3638655
v 1.1848634 0.046303943 -1.375
v 1.2059743 0.046303943 -1.3693517
v 1.205081 0.06652154 -1.3638655
v 1.1848633 0.06741497 -1.3693517
v 1.1848633 0.06741497 -1.3693517
v 1.205081 0.06652154 -1.3638655
v 1.2050809 0.07744694 -1.3529401
v 1.1848633 0.08293334 -1.3538334
v 1.1848633 0.08858146 -1.3327224
v 1.1848633 0.08293334 -1.3538334
v 1.2050809 0.07744694 -1.3529401
v 1.2059743 0.08293334 -1.3327224
v 1.2059743 0.08293334 -1.3327224
v 1.2050809 0.07744694 -1.3529401
v 1.2160063 0.06652154 -1.3529401
v 1.2214925 0.06741497 -1.3327224
v 1.2271409 0.046303943 -1.3327224
v 1.2214925 0.06741497 -1.3327224
v 1.2160063 0.06652154 -1.3529401
v 1.2214928 0.046303943 -1.3538334
v 1.2214928 0.046303943 -1.3538334
v 1.2160063 0.06652154 -1.3529401
v 1.205081 0.06652154 -1.3638655
v 1.2059743 0.046303943 -1.3693517
v 1.205081 0.06652154 -1.3638655
v 1.2160063 0.06652154 -1.3529401
v 1.2050809 0.07744694 -1.3529401
v -1.2271409 0.046303943 1.3327224
v -1.2214928 0.046303943 1.3538334
v -1.2209072 0.018118937 1.3548183
v -1.2271409 0.018118935 1.3327224
v -1.2209072 -0.010066076 1.3548183
v -1.2271409 -0.010066074 1.3327224
v -1.2271409 -0.038251083 1.3327224
v -1.2208679 -0.038251083 1.3534733
v -1.2208679 -0.038251083 1.3534733
v -1.2209072 -0.010066076 1.3548183
v -1.206959 -0.010066072 1.3687664
v -1.2059742 -0.03825108 1.369352
v -1.2209072 0.018118937 1.3548183
v -1.2069592 0.018118938 1.3687663
v -1.2056143 0.046303943 1.368727
v -1.2214928 0.046303943 1.3538334
v -1.1848633 -0.038251083 1.375
v -1.2059742 -0.03825108 1.369352
v -1.206959 -0.010066072 1.3687664
v -1.1848633 -0.010066072 1.375
v -1.2069592 0.018118938 1.3687663
v -1.1848632 0.018118938 1.375
v -1.1848634 0.046303943 1.375
v -1.2056143 0.046303943 1.368727
v -1.1848633 -0.046303943 1.375
v -1.2059743 -0.046303943 1.3693517
v -1.2271409 -0.038251083 -1.3327224
v -1.2214929 -0.038251083 -1.3538334
v -1.2209073 -0.0100660715 -1.3548183
v -1.2271409 -0.010066072 -1.3327224
v -1.2209074 0.018118937 -1.3548182
v -1.227141 0.018118937 -1.3327223
v -1.2271409 0.046303943 -1.3327224
v -1.220868 0.046303947 -1.3534733
v -1.2271409 -0.046303943 -1.3327224
v -1.2214928 -0.046303943 -1.3538334
v -1.220868 0.046303947 -1.3534733
v -1.2209074 0.018118937 -1.3548182
v -1.2069594 0.018118935 -1.3687664
v -1.2059743 0.046303943 -1.3693517
v -1.2209073 -0.0100660715 -1.3548183
v -1.2069592 -0.010066076 -1.3687664
v -1.2056142 -0.038251083 -1.368727
v -1.2214929 -0.038251083 -1.3538334
v -1.1848634 0.046303943 -1.375
v -1.2059743 0.046303943 -1.3693517
v -1.2069594 0.018118935 -1.3687664
v -1.1848633 0.018118935 -1.375
v -1.2069592 -0.010066076 -1.3687664
v -1.1848632 -0.010066072 -1.375
v -1.1848633 -0.038251083 -1.375
v -1.2056142 -0.038251083 -1.368727
v 1.1848633 -0.038251083 -1.375
v 1.2059743 -0.038251083 -1.369352
v 1.2069592 -0.0100660715 -1.3687664
v 1.1848633 -0.010066072 -1.375
v 1.2069594 0.018118938 -1.3687664
v 1.1848632 0.018118937 -1.375
v 1.1848634 0.046303943 -1.375
v 1.2056143 0.046303943 -1.368727
v 1.1848633 -0.046303943 -1.375
v 1.2059743 -0.046303943 -1.3693517
v 1.2056143 0.046303943 -1.368727
v 1.2069594 0.018118938 -1.3687664
v 1.2209074 0.018118935 -1.3548182
v 1.221493 0.046303943 -1.3538334
v 1.2069592 -0.0100660715 -1.3687664
v 1.2209074 -0.010066076 -1.3548182
v 1.2208679 -0.038251083 -1.3534733
v 1.2059743 -0.038251083 -1.369352
v 1.2271409 0.046303943 -1.3327224
v 1.221493 0.046303943 -1.3538334
v 1.2209074 0.018118935 -1.3548182
v 1.2271409 0.018118935 -1.3327224
v 1.2209074 -0.010066076 -1.3548182
v 1.227141 -0.010066072 -1.3327223
v 1.2271409 -0.038251083 -1.3327224
v 1.2208679 -0.038251083 -1.3534733
v 1.2271409 -0.038251083 1.3327224
v 1.2214929 -0.038251083 1.3538334
v 1.2209073 -0.0100660715 1.3548183
v 1.2271409 -0.010066072 1.3327224
v 1.2209074 0.018118937 1.3548182
v 1.227141 0.018118937 1.3327223
v 1.2271409 0.046303943 1.3327224
v 1.220868 0.046303947 1.3534733
v 1.2271409 -0.046303943 1.3327224
v 1.2214928 -0.046303943 1.3538334
v 1.220868 0.046303947 1.3534733
v 1.2209074 0.018118937 1.3548182
v 1.2069594 0.018118935 1.3687664
v 1.2059743 0.046303943 1.3693517
v 1.2209073 -0.0100660715 1.3548183
v 1.2069592 -0.010066076 1.3687664
v 1.2056142 -0.038251083 1.368727
v 1.2214929 -0.038251083 1.3538334
v 1.1848634 0.046303943 1.375
v 1.2059743 0.046303943 1.3693517
v 1.2069594 0.018118935 1.3687664
v 1.1848633 0.018118935 1.375
v 1.2069592 -0.010066076 1.3687664
v 1.1848632 -0.010066072 1.375
v 1.1848633 -0.038251083 1.375
v 1.1848633 -0.038251083 1.375
v 1.2069592 -0.010066076 1.3687664
v 1.2056142 -0.038251083 1.368727
v -1.1848633 -0.08858146 -1.3327224
v -1.2059743 -0.08293334 -1.3327224
v -1.2059743 -0.08293334 1.3327224
v -1.1848633 -0.08858146 1.3327224
v -1.2059743 -0.08293334 -1.3327224
v -1.2214928 -0.06741497 -1.3327224
v -1.2214928 -0.06741497 1.3327224
v -1.2059743 -0.08293334 1.3327224
v -1.2214928 -0.06741497 -1.3327224
v -1.2271409 -0.046303943 -1.3327224
v -1.2271409 -0.046303943 1.3327224
v -1.2214928 -0.06741497 1.3327224
v -1.1848634 0.046303943 1.375
v -1.2056143 0.046303943 1.368727
v -1.2059743 0.046303943 1.3693517
v -1.2214928 0.046303943 1.3538334
v -1.1848633 0.08858146 1.3327224
v -1.2059743 0.08293334 1.3327224
v -1.2059743 0.08293334 -1.3327224
v -1.1848633 0.08858146 -1.3327224
v -1.2059743 0.08293334 1.3327224
v -1.2214925 0.06741497 1.3327224
v -1.2214925 0.06741497 -1.3327224
v -1.2059743 0.08293334 -1.3327224
v -1.2214925 0.06741497 1.3327224
v -1.2271409 0.046303943 1.3327224
v -1.2271409 0.046303943 -1.3327224
v -1.2214925 0.06741497 -1.3327224
v -1.1848633 -0.038251083 -1.375
v -1.2056142 -0.038251083 -1.368727
v -1.2059743 -0.046303943 -1.3693517
v -1.1848633 -0.046303943 -1.375
v -1.2056142 -0.038251083 -1.368727
v -1.2214929 -0.038251083 -1.3538334
v -1.2214928 -0.046303943 -1.3538334
v -1.2059743 -0.046303943 -1.3693517
v 1.1848633 -0.08858146 -1.3327224
v 1.1848633 -0.08293334 -1.3538334
v -1.1848633 -0.08293334 -1.3538334
v -1.1848633 -0.08858146 -1.3327224
v 1.1848633 -0.08293334 -1.3538334
v 1.1848633 -0.06741497 -1.3693517
v -1.1848633 -0.06741497 -1.3693517
v -1.1848633 -0.08293334 -1.3538334
v 1.1848633 -0.06741497 -1.3693517
v 1.1848633 -0.046303943 -1.375
v -1.1848633 -0.046303943 -1.375
v -1.1848633 -0.06741497 -1.3693517
v -1.1848633 0.08858146 -1.3327224
v -1.1848633 0.08293334 -1.3538334
v 1.1848633 0.08293334 -1.3538334
v 1.1848633 0.08858146 -1.3327224
v -1.1848633 0.08293334 -1.3538334
v -1.1848633 0.06741497 -1.3693517
v 1.1848633 0.06741497 -1.3693517
v 1.1848633 0.08293334 -1.3538334
v -1.1848633 0.06741497 -1.3693517
v -1.1848634 0.046303943 -1.375
v 1.1848634 0.046303943 -1.375
v 1.1848633 0.06741497 -1.3693517
v 1.2271409 -0.038251083 -1.3327224
v 1.2208679 -0.038251083 -1.3534733
v 1.2214928 -0.046303943 -1.3538334
v 1.2271409 -0.046303943 -1.3327224
v 1.2208679 -0.038251083 -1.3534733
v 1.2059743 -0.038251083 -1.369352
v 1.2059743 -0.046303943 -1.3693517
v 1.2214928 -0.046303943 -1.3538334
v 1.1848633 -0.08858146 1.3327224
v 1.2059743 -0.08293334 1.3327224
v 1.2059743 -0.08293334 -1.3327224
v 1.1848633 -0.08858146 -1.3327224
v 1.2059743 -0.08293334 1.3327224
v 1.2214928 -0.06741497 1.3327224
v 1.2214928 -0.06741497 -1.3327224
v 1.2059743 -0.08293334 -1.3327224
v 1.2214928 -0.06741497 1.3327224
v 1.2271409 -0.046303943 1.3327224
v 1.2271409 -0.046303943 -1.3327224
v 1.2214928 -0.06741497 -1.3327224
v 1.1848633 0.08858146 -1.3327224
v 1.2059743 0.08293334 -1.3327224
v 1.2059743 0.08293334 1.3327224
v 1.1848633 0.08858146 1.3327224
v 1.2059743 0.08293334 -1.3327224
v 1.2214925 0.06741497 -1.3327224
v 1.2214925 0.06741497 1.3327224
v 1.2059743 0.08293334 1.3327224
v 1.2214925 0.06741497 -1.3327224
v 1.2271409 0.046303943 -1.3327224
v 1.2271409 0.046303943 1.3327224
v 1.2214925 0.06741497 1.3327224
v 1.1848633 -0.038251083 1.375
v 1.2056142 -0.038251083 1.368727
v 1.2059743 -0.046303943 1.3693517
v 1.1848633 -0.046303943 1.375
v 1.2056142 -0.038251083 1.368727
v 1.2214929 -0.038251083 1.3538334
v 1.2214928 -0.046303943 1.3538334
v 1.2059743 -0.046303943 1.3693517
v -1.1848633 -0.08858146 1.3327224
v -1.1848633 -0.08293334 1.3538334
v 1.1848633 -0.08293334 1.3538334
v 1.1848633 -0.08858146 1.3327224
v -1.1848633 -0.08293334 1.3538334
v -1.1848633 -0.06741497 1.3693517
v 1.1848633 -0.06741497 1.3693517
v 1.1848633 -0.08293334 1.3538334
v -1.1848633 -0.06741497 1.3693517
v -1.1848633 -0.046303943 1.375
v 1.1848633 -0.046303943 1.375
v -1.1848633 -0.06741497 1.3693517
v 1.1848633 -0.046303943 1.375
v 1.1848633 -0.06741497 1.3693517
v 1.1848633 0.08858146 1.3327224
v 1.1848633 0.08293334 1.3538334
v -1.1848633 0.08293334 1.3538334
v -1.1848633 0.08858146 1.3327224
v 1.1848633 0.08293334 1.3538334
v 1.1848633 0.06741497 1.3693517
v -1.1848633 0.06741497 1.3693517
v -1.1848633 0.08293334 1.3538334
v 1.1848633 0.06741497 1.3693517
v 1.1848634 0.046303943 1.375
v -1.1848634 0.046303943 1.375
v -1.1848633 0.06741497 1.3693517
v -1.2059743 -0.046303943 1.3693517
v -1.2214928 -0.046303943 1.3538334
v -1.2208679 -0.038251083 1.3534733
v -1.2059742 -0.03825108 1.369352
v -1.2214928 -0.046303943 1.3538334
v -1.2271409 -0.046303943 1.3327224
v -1.2271409 -0.038251083 1.3327224
v -1.2208679 -0.038251083 1.3534733
v -1.2059743 0.046303943 -1.3693517
v -1.2214928 0.046303943 -1.3538334
v -1.220868 0.046303947 -1.3534733
v -1.2271409 0.046303943 -1.3327224
v 1.2271409 0.046303943 -1.3327224
v 1.2214928 0.046303943 -1.3538334
v 1.221493 0.046303943 -1.3538334
v 1.2214928 0.046303943 -1.3538334
v 1.2059743 0.046303943 -1.3693517
v 1.2056143 0.046303943 -1.368727
v 1.1848634 0.046303943 -1.375
v 1.2214928 0.046303943 -1.3538334
v 1.2056143 0.046303943 -1.368727
v 1.221493 0.046303943 -1.3538334
v 1.2059743 0.046303943 1.3693517
v 1.2214928 0.046303943 1.3538334
v 1.220868 0.046303947 1.3534733
v 1.2271409 0.046303943 1.3327224
v -1.2271409 0.046303943 1.3327224
v -1.2271409 0.018118935 1.3327224
v -1.227141 0.018118937 -1.3327223
v -1.2271409 0.046303943 -1.3327224
v -1.2271409 -0.010066072 -1.3327224
v -1.2271409 -0.010066074 1.3327224
v -1.2271409 -0.038251083 -1.3327224
v -1.2271409 -0.038251083 1.3327224
v -1.2271409 -0.046303943 1.3327224
v -1.2271409 -0.046303943 -1.3327224
vn -0 1 0
vn -0 1 0
vn -0 1 0
vn -0 1 0
vn 1 0 0
vn 1 0 0
vn 1 0 0
vn 1 0 0
vn 1 0 0
vn 1 0 0
vn 1 2.1147641E-06 0
vn 1 2.1147641E-06 0
vn 1 2.1147641E-06 0
vn 1 2.1147641E-06 0
vn -0 0 1
vn -0 0 1
vn -0 0 1
vn -0 0 1
vn -0 0 1
vn -0 0 1
vn -0 3.5696335E-06 1
vn -0 3.5696335E-06 1
vn -0 3.5696335E-06 1
vn -0 3.5696335E-06 1
vn -0 0 -1
vn -0 0 -1
vn -0 0 -1
vn -0 0 -1
vn -0 0 -1
vn -0 0 -1
vn -0 3.5696335E-06 -1
vn -0 3.5696335E-06 -1
vn -0 3.5696335E-06 -1
vn -0 3.5696335E-06 -1
vn -0 -1 0
vn -0 -1 0
vn -0 -1 0
vn -0 -1 0
vn -0.93183386 -0.25659606 0.25660118
vn -0.93183386 -0.25659606 0.25660118
vn -0.93183386 -0.25659606 0.25660118
vn -0.93183386 -0.25659606 0.25660118
vn -0.6901341 -0.69013685 0.21777506
vn -0.6901341 -0.69013685 0.21777506
vn -0.6901341 -0.69013685 0.21777506
vn -0.6901341 -0.69013685 0.21777506
vn -0.25659645 -0.9318353 0.25659546
vn -0.25659645 -0.9318353 0.25659546
vn -0.25659645 -0.9318353 0.25659546
vn -0.25659645 -0.9318353 0.25659546
vn -0.21777552 -0.6901354 0.6901354
vn -0.21777552 -0.6901354 0.6901354
vn -0.21777552 -0.6901354 0.6901354
vn -0.21777552 -0.6901354 0.6901354
vn -0.25659582 -0.25659722 0.931835
vn -0.25659582 -0.25659722 0.931835
vn -0.25659582 -0.25659722 0.931835
vn -0.25659582 -0.25659722 0.931835
vn -0.6901378 -0.21777393 0.6901335
vn -0.6901378 -0.21777393 0.6901335
vn -0.6901378 -0.21777393 0.6901335
vn -0.6901378 -0.21777393 0.6901335
vn -0.5773581 -0.5773463 0.5773463
vn -0.5773581 -0.5773463 0.5773463
vn -0.5773581 -0.5773463 0.5773463
vn -0.2565944 0.25659654 0.93183565
vn -0.2565944 0.25659654 0.93183565
vn -0.2565944 0.25659654 0.93183565
vn -0.2565944 0.25659654 0.93183565
vn -0.21777606 0.69013786 0.69013274
vn -0.21777606 0.69013786 0.69013274
vn -0.21777606 0.69013786 0.69013274
vn -0.21777606 0.69013786 0.69013274
vn -0.25659788 0.9318343 0.25659776
vn -0.25659788 0.9318343 0.25659776
vn -0.25659788 0.9318343 0.25659776
vn -0.25659788 0.9318343 0.25659776
vn -0.69013566 0.69013596 0.21777314
vn -0.69013566 0.69013596 0.21777314
vn -0.69013566 0.69013596 0.21777314
vn -0.69013566 0.69013596 0.21777314
vn -0.93183315 0.25660098 0.25659895
vn -0.93183315 0.25660098 0.25659895
vn -0.93183315 0.25660098 0.25659895
vn -0.93183315 0.25660098 0.25659895
vn -0.69013906 0.2177815 0.6901298
vn -0.69013906 0.2177815 0.6901298
vn -0.69013906 0.2177815 0.6901298
vn -0.69013906 0.2177815 0.6901298
vn -0.5773581 0.5773463 0.5773463
vn -0.5773581 0.5773463 0.5773463
vn -0.5773581 0.5773463 0.5773463
vn -0.25659695 -0.9318351 -0.25659585
vn -0.25659695 -0.9318351 -0.25659585
vn -0.25659695 -0.9318351 -0.25659585
vn -0.25659695 -0.9318351 -0.25659585
vn -0.6901326 -0.69013774 -0.21777704
vn -0.6901326 -0.69013774 -0.21777704
vn -0.6901326 -0.69013774 -0.21777704
vn -0.6901326 -0.69013774 -0.21777704
vn -0.9318343 -0.25659624 -0.25659928
vn -0.9318343 -0.25659624 -0.25659928
vn -0.9318343 -0.25659624 -0.25659928
vn -0.9318343 -0.25659624 -0.25659928
vn -0.6901375 -0.21777618 -0.69013315
vn -0.6901375 -0.21777618 -0.69013315
vn -0.6901375 -0.21777618 -0.69013315
vn -0.6901375 -0.21777618 -0.69013315
vn -0.2565955 -0.2565954 -0.93183565
vn -0.2565955 -0.2565954 -0.93183565
vn -0.2565955 -0.2565954 -0.93183565
vn -0.2565955 -0.2565954 -0.93183565
vn -0.21777575 -0.6901366 -0.69013417
vn -0.21777575 -0.6901366 -0.69013417
vn -0.21777575 -0.6901366 -0.69013417
vn -0.21777575 -0.6901366 -0.69013417
vn -0.5773581 -0.5773463 -0.5773463
vn -0.5773581 -0.5773463 -0.5773463
vn -0.5773581 -0.5773463 -0.5773463
vn -0.9318326 0.2566008 -0.2566008
vn -0.9318326 0.2566008 -0.2566008
vn -0.9318326 0.2566008 -0.2566008
vn -0.9318326 0.2566008 -0.2566008
vn -0.69013643 0.6901343 -0.2177758
vn -0.69013643 0.6901343 -0.2177758
vn -0.69013643 0.6901343 -0.2177758
vn -0.69013643 0.6901343 -0.2177758
vn -0.25659746 0.9318345 -0.25659746
vn -0.25659746 0.9318345 -0.25659746
vn -0.25659746 0.9318345 -0.25659746
vn -0.25659746 0.9318345 -0.25659746
vn -0.21777585 0.69013673 -0.69013405
vn -0.21777585 0.69013673 -0.69013405
vn -0.21777585 0.69013673 -0.69013405
vn -0.21777585 0.69013673 -0.69013405
vn -0.25659484 0.25659624 -0.93183553
vn -0.25659484 0.25659624 -0.93183553
vn -0.25659484 0.25659624 -0.93183553
vn -0.25659484 0.25659624 -0.93183553
vn -0.69013906 0.21778153 -0.6901299
vn -0.69013906 0.21778153 -0.6901299
vn -0.69013906 0.21778153 -0.6901299
vn -0.69013906 0.21778153 -0.6901299
vn -0.57735854 0.5773456 -0.5773467
vn -0.57735854 0.5773456 -0.5773467
vn -0.57735854 0.5773456 -0.5773467
vn 0.25659695 -0.9318351 0.25659585
vn 0.25659695 -0.9318351 0.25659585
vn 0.25659695 -0.9318351 0.25659585
vn 0.25659695 -0.9318351 0.25659585
vn 0.6901326 -0.69013774 0.21777704
vn 0.6901326 -0.69013774 0.21777704
vn 0.6901326 -0.69013774 0.21777704
vn 0.6901326 -0.69013774 0.21777704
vn 0.9318343 -0.25659624 0.25659928
vn 0.9318343 -0.25659624 0.25659928
vn 0.9318343 -0.25659624 0.25659928
vn 0.9318343 -0.25659624 0.25659928
vn 0.6901375 -0.21777618 0.69013315
vn 0.6901375 -0.21777618 0.69013315
vn 0.6901375 -0.21777618 0.69013315
vn 0.6901375 -0.21777618 0.69013315
vn 0.2565955 -0.2565954 0.93183565
vn 0.2565955 -0.2565954 0.93183565
vn 0.2565955 -0.2565954 0.93183565
vn 0.2565955 -0.2565954 0.93183565
vn 0.21777575 -0.6901366 0.69013417
vn 0.21777575 -0.6901366 0.69013417
vn 0.21777575 -0.6901366 0.69013417
vn 0.21777575 -0.6901366 0.69013417
vn 0.5773581 -0.5773463 0.5773463
vn 0.5773581 -0.5773463 0.5773463
vn 0.5773581 -0.5773463 0.5773463
vn 0.9318326 0.2566008 0.2566008
vn 0.9318326 0.2566008 0.2566008
vn 0.9318326 0.2566008 0.2566008
vn 0.9318326 0.2566008 0.2566008
vn 0.69013643 0.6901343 0.2177758
vn 0.69013643 0.6901343 0.2177758
vn 0.69013643 0.6901343 0.2177758
vn 0.69013643 0.6901343 0.2177758
vn 0.25659746 0.9318345 0.25659746
vn 0.25659746 0.9318345 0.25659746
vn 0.25659746 0.9318345 0.25659746
vn 0.25659746 0.9318345 0.25659746
vn 0.21777585 0.69013673 0.69013405
vn 0.21777585 0.69013673 0.69013405
vn 0.21777585 0.69013673 0.69013405
vn 0.21777585 0.69013673 0.69013405
vn 0.25659484 0.25659624 0.93183553
vn 0.25659484 0.25659624 0.93183553
vn 0.25659484 0.25659624 0.93183553
vn 0.25659484 0.25659624 0.93183553
vn 0.69013906 0.21778153 0.6901299
vn 0.69013906 0.21778153 0.6901299
vn 0.69013906 0.21778153 0.6901299
vn 0.69013906 0.21778153 0.6901299
vn 0.57735854 0.5773456 0.5773467
vn 0.57735854 0.5773456 0.5773467
vn 0.57735854 0.5773456 0.5773467
vn 0.25659645 -0.9318353 -0.25659546
vn 0.25659645 -0.9318353 -0.25659546
vn 0.25659645 -0.9318353 -0.25659546
vn 0.25659645 -0.9318353 -0.25659546
vn 0.21777552 -0.6901354 -0.6901354
vn 0.21777552 -0.6901354 -0.6901354
vn 0.21777552 -0.6901354 -0.6901354
vn 0.21777552 -0.6901354 -0.6901354
vn 0.25659582 -0.25659722 -0.931835
vn 0.25659582 -0.25659722 -0.931835
vn 0.25659582 -0.25659722 -0.931835
vn 0.25659582 -0.25659722 -0.931835
vn 0.6901378 -0.21777393 -0.6901335
vn 0.6901378 -0.21777393 -0.6901335
vn 0.6901378 -0.21777393 -0.6901335
vn 0.6901378 -0.21777393 -0.6901335
vn 0.93183386 -0.25659606 -0.25660118
vn 0.93183386 -0.25659606 -0.25660118
vn 0.93183386 -0.25659606 -0.25660118
vn 0.93183386 -0.25659606 -0.25660118
vn 0.6901341 -0.69013685 -0.21777506
vn 0.6901341 -0.69013685 -0.21777506
vn 0.6901341 -0.69013685 -0.21777506
vn 0.6901341 -0.69013685 -0.21777506
vn 0.5773581 -0.5773463 -0.5773463
vn 0.5773581 -0.5773463 -0.5773463
vn 0.5773581 -0.5773463 -0.5773463
vn 0.2565944 0.25659654 -0.93183565
vn 0.2565944 0.25659654 -0.93183565
vn 0.2565944 0.25659654 -0.93183565
vn 0.2565944 0.25659654 -0.93183565
vn 0.21777606 0.69013786 -0.69013274
vn 0.21777606 0.69013786 -0.69013274
vn 0.21777606 0.69013786 -0.69013274
vn 0.21777606 0.69013786 -0.69013274
vn 0.25659788 0.9318343 -0.25659776
vn 0.25659788 0.9318343 -0.25659776
vn 0.25659788 0.9318343 -0.25659776
vn 0.25659788 0.9318343 -0.25659776
vn 0.69013566 0.69013596 -0.21777314
vn 0.69013566 0.69013596 -0.21777314
vn 0.69013566 0.69013596 -0.21777314
vn 0.69013566 0.69013596 -0.21777314
vn 0.93183315 0.25660098 -0.25659895
vn 0.93183315 0.25660098 -0.25659895
vn 0.93183315 0.25660098 -0.25659895
vn 0.93183315 0.25660098 -0.25659895
vn 0.69013906 0.2177815 -0.6901298
vn 0.69013906 0.2177815 -0.6901298
vn 0.69013906 0.2177815 -0.6901298
vn 0.69013906 0.2177815 -0.6901298
vn 0.5773581 0.5773463 -0.5773463
vn 0.5773581 0.5773463 -0.5773463
vn 0.5773581 0.5773463 -0.5773463
vn -0.964192 -0.0053835283 0.26515046
vn -0.964192 -0.0053835283 0.26515046
vn -0.964192 -0.0053835283 0.26515046
vn -0.964192 -0.0053835283 0.26515046
vn -0.9624312 1.4392648E-06 0.27152592
vn -0.9624312 1.4392648E-06 0.27152592
vn -0.95991457 -0.0073554455 0.28019622
vn -0.95991457 -0.0073554455 0.28019622
vn -0.71869683 -0.02241778 0.694962
vn -0.71869683 -0.02241778 0.694962
vn -0.71869683 -0.02241778 0.694962
vn -0.71869683 -0.02241778 0.694962
vn -0.6949656 0.02242445 0.7186932
vn -0.6949656 0.02242445 0.7186932
vn -0.6949656 0.02242445 0.7186932
vn -0.6949656 0.02242445 0.7186932
vn -0.26514715 0.005386045 0.964193
vn -0.26514715 0.005386045 0.964193
vn -0.26514715 0.005386045 0.964193
vn -0.26514715 0.005386045 0.964193
vn -0.27151948 -2.2968204E-06 0.962433
vn -0.27151948 -2.2968204E-06 0.962433
vn -0.28019246 0.0073524425 0.9599157
vn -0.28019246 0.0073524425 0.9599157
vn -0.2584512 -6.7582096E-06 0.9660243
vn -0.2584512 -6.7582096E-06 0.9660243
vn -0.9641951 0.0053835446 -0.2651395
vn -0.9641951 0.0053835446 -0.2651395
vn -0.9641951 0.0053835446 -0.2651395
vn -0.9641951 0.0053835446 -0.2651395
vn -0.9624343 -3.4783425E-06 -0.2715146
vn -0.9624343 -3.4783425E-06 -0.2715146
vn -0.959917 0.0073569235 -0.2801879
vn -0.959917 0.0073569235 -0.2801879
vn -0.9660244 -7.938171E-06 -0.25845096
vn -0.9660244 -7.938171E-06 -0.25845096
vn -0.71870184 0.022427484 -0.6949566
vn -0.71870184 0.022427484 -0.6949566
vn -0.71870184 0.022427484 -0.6949566
vn -0.71870184 0.022427484 -0.6949566
vn -0.6949574 -0.022424089 -0.7187013
vn -0.6949574 -0.022424089 -0.7187013
vn -0.6949574 -0.022424089 -0.7187013
vn -0.6949574 -0.022424089 -0.7187013
vn -0.26514664 -0.00538174 -0.9641931
vn -0.26514664 -0.00538174 -0.9641931
vn -0.26514664 -0.00538174 -0.9641931
vn -0.26514664 -0.00538174 -0.9641931
vn -0.27151707 -1.1483893E-06 -0.96243364
vn -0.27151707 -1.1483893E-06 -0.96243364
vn -0.2801918 -0.0073554553 -0.9599159
vn -0.2801918 -0.0073554553 -0.9599159
vn 0.26514262 0.005383003 -0.9641942
vn 0.26514262 0.005383003 -0.9641942
vn 0.26514262 0.005383003 -0.9641942
vn 0.26514262 0.005383003 -0.9641942
vn 0.27151707 -1.1483893E-06 -0.96243364
vn 0.27151707 -1.1483893E-06 -0.96243364
vn 0.28018913 0.007355384 -0.95991665
vn 0.28018913 0.007355384 -0.95991665
vn 0.25845104 0 -0.9660244
vn 0.25845104 0 -0.9660244
vn 0.6949609 0.022424115 -0.7186978
vn 0.6949609 0.022424115 -0.7186978
vn 0.6949609 0.022424115 -0.7186978
vn 0.6949609 0.022424115 -0.7186978
vn 0.7187036 -0.022421086 -0.694955
vn 0.7187036 -0.022421086 -0.694955
vn 0.7187036 -0.022421086 -0.694955
vn 0.7187036 -0.022421086 -0.694955
vn 0.96419483 -0.0053834664 -0.26514018
vn 0.96419483 -0.0053834664 -0.26514018
vn 0.96419483 -0.0053834664 -0.26514018
vn 0.96419483 -0.0053834664 -0.26514018
vn 0.9624342 1.4392695E-06 -0.27151528
vn 0.9624342 1.4392695E-06 -0.27151528
vn 0.9599168 -0.0073598833 -0.28018832
vn 0.9599168 -0.0073598833 -0.28018832
vn 0.9641951 0.0053835446 0.2651395
vn 0.9641951 0.0053835446 0.2651395
vn 0.9641951 0.0053835446 0.2651395
vn 0.9641951 0.0053835446 0.2651395
vn 0.9624343 -3.4783425E-06 0.2715146
vn 0.9624343 -3.4783425E-06 0.2715146
vn 0.959917 0.0073569235 0.2801879
vn 0.959917 0.0073569235 0.2801879
vn 0.9660244 -7.938171E-06 0.25845096
vn 0.9660244 -7.938171E-06 0.25845096
vn 0.71870184 0.022427484 0.6949566
vn 0.71870184 0.022427484 0.6949566
vn 0.71870184 0.022427484 0.6949566
vn 0.71870184 0.022427484 0.6949566
vn 0.6949574 -0.022424089 0.7187013
vn 0.6949574 -0.022424089 0.7187013
vn 0.6949574 -0.022424089 0.7187013
vn 0.6949574 -0.022424089 0.7187013
vn 0.26514664 -0.00538174 0.9641931
vn 0.26514664 -0.00538174 0.9641931
vn 0.26514664 -0.00538174 0.9641931
vn 0.26514664 -0.00538174 0.9641931
vn 0.27151707 -1.1483893E-06 0.96243364
vn 0.27151707 -1.1483893E-06 0.96243364
vn 0.2801918 -0.0073554553 0.9599159
vn 0.2801918 -0.0073554553 0.9599159
vn 0.2801918 -0.0073554553 0.9599159
vn 0.2801918 -0.0073554553 0.9599159
vn -0.2584533 -0.96602374 0
vn -0.2584533 -0.96602374 0
vn -0.2584533 -0.96602374 0
vn -0.2584533 -0.96602374 0
vn -0.7071056 -0.70710796 0
vn -0.7071056 -0.70710796 0
vn -0.7071056 -0.70710796 0
vn -0.7071056 -0.70710796 0
vn -0.9660235 -0.25845417 0
vn -0.9660235 -0.25845417 0
vn -0.9660235 -0.25845417 0
vn -0.9660235 -0.25845417 0
vn 1.1948825E-06 -1 -1.0244075E-05
vn 1.1948825E-06 -1 -1.0244075E-05
vn 1.1948825E-06 -1 -1.0244075E-05
vn -0 -1 -7.650308E-06
vn -0.2584533 0.96602374 0
vn -0.2584533 0.96602374 0
vn -0.2584533 0.96602374 0
vn -0.2584533 0.96602374 0
vn -0.70710826 0.7071052 0
vn -0.70710826 0.7071052 0
vn -0.70710826 0.7071052 0
vn -0.70710826 0.7071052 0
vn -0.96602213 0.25845924 0
vn -0.96602213 0.25845924 0
vn -0.96602213 0.25845924 0
vn -0.96602213 0.25845924 0
vn -0.273626 0.043390375 -0.960857
vn -0.273626 0.043390375 -0.960857
vn -0.273626 0.043390375 -0.960857
vn -0.273626 0.043390375 -0.960857
vn -0.69509447 0.04338896 -0.7176079
vn -0.69509447 0.04338896 -0.7176079
vn -0.69509447 0.04338896 -0.7176079
vn -0.69509447 0.04338896 -0.7176079
vn -0 -0.96602374 -0.25845313
vn -0 -0.96602374 -0.25845313
vn -0 -0.96602374 -0.25845313
vn -0 -0.96602374 -0.25845313
vn -0 -0.70710766 -0.7071059
vn -0 -0.70710766 -0.7071059
vn -0 -0.70710766 -0.7071059
vn -0 -0.70710766 -0.7071059
vn -0 -0.25845495 -0.9660234
vn -0 -0.25845495 -0.9660234
vn -0 -0.25845495 -0.9660234
vn -0 -0.25845495 -0.9660234
vn -0 0.96602374 -0.25845313
vn -0 0.96602374 -0.25845313
vn -0 0.96602374 -0.25845313
vn -0 0.96602374 -0.25845313
vn -0 0.70710766 -0.7071059
vn -0 0.70710766 -0.7071059
vn -0 0.70710766 -0.7071059
vn -0 0.70710766 -0.7071059
vn -0 0.2584506 -0.9660245
vn -0 0.2584506 -0.9660245
vn -0 0.2584506 -0.9660245
vn -0 0.2584506 -0.9660245
vn 0.960857 0.043396156 -0.27362508
vn 0.960857 0.043396156 -0.27362508
vn 0.960857 0.043396156 -0.27362508
vn 0.960857 0.043396156 -0.27362508
vn 0.7176109 0.043375388 -0.6950922
vn 0.7176109 0.043375388 -0.6950922
vn 0.7176109 0.043375388 -0.6950922
vn 0.7176109 0.043375388 -0.6950922
vn 0.2584533 -0.96602374 0
vn 0.2584533 -0.96602374 0
vn 0.2584533 -0.96602374 0
vn 0.2584533 -0.96602374 0
vn 0.7071056 -0.70710796 0
vn 0.7071056 -0.70710796 0
vn 0.7071056 -0.70710796 0
vn 0.7071056 -0.70710796 0
vn 0.9660235 -0.25845417 0
vn 0.9660235 -0.25845417 0
vn 0.9660235 -0.25845417 0
vn 0.9660235 -0.25845417 0
vn 0.2584533 0.96602374 0
vn 0.2584533 0.96602374 0
vn 0.2584533 0.96602374 0
vn 0.2584533 0.96602374 0
vn 0.70710826 0.7071052 0
vn 0.70710826 0.7071052 0
vn 0.70710826 0.7071052 0
vn 0.70710826 0.7071052 0
vn 0.96602213 0.25845924 0
vn 0.96602213 0.25845924 0
vn 0.96602213 0.25845924 0
vn 0.96602213 0.25845924 0
vn 0.273626 0.043390375 0.960857
vn 0.273626 0.043390375 0.960857
vn 0.273626 0.043390375 0.960857
vn 0.273626 0.043390375 0.960857
vn 0.69509447 0.04338896 0.7176079
vn 0.69509447 0.04338896 0.7176079
vn 0.69509447 0.04338896 0.7176079
vn 0.69509447 0.04338896 0.7176079
vn -0 -0.96602374 0.25845313
vn -0 -0.96602374 0.25845313
vn -0 -0.96602374 0.25845313
vn -0 -0.96602374 0.25845313
vn -0 -0.70710766 0.7071059
vn -0 -0.70710766 0.7071059
vn -0 -0.70710766 0.7071059
vn -0 -0.70710766 0.7071059
vn -0 -0.25845495 0.9660234
vn -0 -0.25845495 0.9660234
vn -0 -0.25845495 0.9660234
vn -0 -0.25845495 0.9660234
vn -0 -0.25845495 0.9660234
vn -0 -0.25845495 0.9660234
vn -0 0.96602374 0.25845313
vn -0 0.96602374 0.25845313
vn -0 0.96602374 0.25845313
vn -0 0.96602374 0.25845313
vn -0 0.70710766 0.7071059
vn -0 0.70710766 0.7071059
vn -0 0.70710766 0.7071059
vn -0 0.70710766 0.7071059
vn -0 0.2584506 0.9660245
vn -0 0.2584506 0.9660245
vn -0 0.2584506 0.9660245
vn -0 0.2584506 0.9660245
vn -0.7176108 0.043387715 0.69509166
vn -0.7176108 0.043387715 0.69509166
vn -0.7176108 0.043387715 0.69509166
vn -0.7176108 0.043387715 0.69509166
vn -0.960857 0.043396484 0.27362508
vn -0.960857 0.043396484 0.27362508
vn -0.960857 0.043396484 0.27362508
vn -0.960857 0.043396484 0.27362508
vn 8.5680995E-06 -1 1.1193915E-05
vn 8.5680995E-06 -1 1.1193915E-05
vn 8.5680995E-06 -1 1.1193915E-05
vn 2.2941393E-05 -1 4.299294E-06
vn -0.048365574 0.9987915 0.008741425
vn -0.048365574 0.9987915 0.008741425
vn -0.048365574 0.9987915 0.008741425
vn -2.6184093E-06 -1 7.653047E-06
vn -2.6184093E-06 -1 7.653047E-06
vn -2.6184093E-06 -1 7.653047E-06
vn -0 -1 1.0245172E-05
vn -2.6184093E-06 -1 7.653047E-06
vn -2.6184093E-06 -1 7.653047E-06
vn -2.6184093E-06 -1 7.653047E-06
vn -8.5680995E-06 -1 -1.1193915E-05
vn -8.5680995E-06 -1 -1.1193915E-05
vn -8.5680995E-06 -1 -1.1193915E-05
vn -2.2941393E-05 -1 -4.299294E-06
vn -1 2.1147641E-06 0
vn -1 2.1147641E-06 0
vn -1 2.1147641E-06 0
vn -1 2.1147641E-06 0
vn -1 -2.1147641E-06 0
vn -1 -2.1147641E-06 0
vn -1 0 0
vn -1 0 0
vn -1 0 0
vn -1 0 0
g Matress_0
f 3/3/3 2/2/2 1/1/1
f 4/4/4 3/3/3 1/1/1
f 7/7/7 6/6/6 5/5/5
f 8/8/8 7/7/7 5/5/5
f 7/7/7 8/8/8 9/9/9
f 10/10/10 7/7/7 9/9/9
f 10/10/10 9/9/9 11/11/11
f 12/12/12 10/10/10 11/11/11
f 12/12/12 11/11/11 13/13/13
f 14/14/14 12/12/12 13/13/13
f 17/17/17 16/16/16 15/15/15
f 18/18/18 17/17/17 15/15/15
f 17/17/17 18/18/18 19/19/19
f 20/20/20 17/17/17 19/19/19
f 20/20/20 19/19/19 21/21/21
f 22/22/22 20/20/20 21/21/21
f 22/22/22 21/21/21 23/23/23
f 24/24/24 22/22/22 23/23/23
f 27/27/27 26/26/26 25/25/25
f 28/28/28 27/27/27 25/25/25
f 27/27/27 28/28/28 29/29/29
f 30/30/30 27/27/27 29/29/29
f 30/30/30 29/29/29 31/31/31
f 32/32/32 30/30/30 31/31/31
f 32/32/32 31/31/31 33/33/33
f 34/34/34 32/32/32 33/33/33
f 37/37/37 36/36/36 35/35/35
f 38/38/38 37/37/37 35/35/35
f 41/41/41 40/40/40 39/39/39
f 42/42/42 41/41/41 39/39/39
f 45/45/45 44/44/44 43/43/43
f 46/46/46 45/45/45 43/43/43
f 49/49/49 48/48/48 47/47/47
f 50/50/50 49/49/49 47/47/47
f 53/53/53 52/52/52 51/51/51
f 54/54/54 53/53/53 51/51/51
f 57/57/57 56/56/56 55/55/55
f 58/58/58 57/57/57 55/55/55
f 61/61/61 60/60/60 59/59/59
f 62/62/62 61/61/61 59/59/59
f 65/65/65 64/64/64 63/63/63
f 68/68/68 67/67/67 66/66/66
f 69/69/69 68/68/68 66/66/66
f 72/72/72 71/71/71 70/70/70
f 73/73/73 72/72/72 70/70/70
f 76/76/76 75/75/75 74/74/74
f 77/77/77 76/76/76 74/74/74
f 80/80/80 79/79/79 78/78/78
f 81/81/81 80/80/80 78/78/78
f 84/84/84 83/83/83 82/82/82
f 85/85/85 84/84/84 82/82/82
f 88/88/88 87/87/87 86/86/86
f 89/89/89 88/88/88 86/86/86
f 92/92/92 91/91/91 90/90/90
f 95/95/95 94/94/94 93/93/93
f 96/96/96 95/95/95 93/93/93
f 99/99/99 98/98/98 97/97/97
f 100/100/100 99/99/99 97/97/97
f 103/103/103 102/102/102 101/101/101
f 104/104/104 103/103/103 101/101/101
f 107/107/107 106/106/106 105/105/105
f 108/108/108 107/107/107 105/105/105
f 111/111/111 110/110/110 109/109/109
f 112/112/112 111/111/111 109/109/109
f 115/115/115 114/114/114 113/113/113
f 116/116/116 115/115/115 113/113/113
f 119/119/119 118/118/118 117/117/117
f 122/122/122 121/121/121 120/120/120
f 123/123/123 122/122/122 120/120/120
f 126/126/126 125/125/125 124/124/124
f 127/127/127 126/126/126 124/124/124
f 130/130/130 129/129/129 128/128/128
f 131/131/131 130/130/130 128/128/128
f 134/134/134 133/133/133 132/132/132
f 135/135/135 134/134/134 132/132/132
f 138/138/138 137/137/137 136/136/136
f 139/139/139 138/138/138 136/136/136
f 142/142/142 141/141/141 140/140/140
f 143/143/143 142/142/142 140/140/140
f 146/146/146 145/145/145 144/144/144
f 149/149/149 148/148/148 147/147/147
f 150/150/150 149/149/149 147/147/147
f 153/153/153 152/152/152 151/151/151
f 154/154/154 153/153/153 151/151/151
f 157/157/157 156/156/156 155/155/155
f 158/158/158 157/157/157 155/155/155
f 161/161/161 160/160/160 159/159/159
f 162/162/162 161/161/161 159/159/159
f 165/165/165 164/164/164 163/163/163
f 166/166/166 165/165/165 163/163/163
f 169/169/169 168/168/168 167/167/167
f 170/170/170 169/169/169 167/167/167
f 173/173/173 172/172/172 171/171/171
f 176/176/176 175/175/175 174/174/174
f 177/177/177 176/176/176 174/174/174
f 180/180/180 179/179/179 178/178/178
f 181/181/181 180/180/180 178/178/178
f 184/184/184 183/183/183 182/182/182
f 185/185/185 184/184/184 182/182/182
f 188/188/188 187/187/187 186/186/186
f 189/189/189 188/188/188 186/186/186
f 192/192/192 191/191/191 190/190/190
f 193/193/193 192/192/192 190/190/190
f 196/196/196 195/195/195 194/194/194
f 197/197/197 196/196/196 194/194/194
f 200/200/200 199/199/199 198/198/198
f 203/203/203 202/202/202 201/201/201
f 204/204/204 203/203/203 201/201/201
f 207/207/207 206/206/206 205/205/205
f 208/208/208 207/207/207 205/205/205
f 211/211/211 210/210/210 209/209/209
f 212/212/212 211/211/211 209/209/209
f 215/215/215 214/214/214 213/213/213
f 216/216/216 215/215/215 213/213/213
f 219/219/219 218/218/218 217/217/217
f 220/220/220 219/219/219 217/217/217
f 223/223/223 222/222/222 221/221/221
f 224/224/224 223/223/223 221/221/221
f 227/227/227 226/226/226 225/225/225
f 230/230/230 229/229/229 228/228/228
f 231/231/231 230/230/230 228/228/228
f 234/234/234 233/233/233 232/232/232
f 235/235/235 234/234/234 232/232/232
f 238/238/238 237/237/237 236/236/236
f 239/239/239 238/238/238 236/236/236
f 242/242/242 241/241/241 240/240/240
f 243/243/243 242/242/242 240/240/240
f 246/246/246 245/245/245 244/244/244
f 247/247/247 246/246/246 244/244/244
f 250/250/250 249/249/249 248/248/248
f 251/251/251 250/250/250 248/248/248
f 254/254/254 253/253/253 252/252/252
f 257/257/257 256/256/256 255/255/255
f 258/258/258 257/257/257 255/255/255
f 259/259/259 257/257/257 258/258/258
f 260/260/260 259/259/259 258/258/258
f 259/259/259 260/260/260 261/261/261
f 262/262/262 259/259/259 261/261/261
f 265/265/265 264/264/264 263/263/263
f 266/266/266 265/265/265 263/263/263
f 264/264/264 265/265/265 267/267/267
f 265/265/265 268/268/268 267/267/267
f 267/267/267 268/268/268 269/269/269
f 270/270/270 267/267/267 269/269/269
f 273/273/273 272/272/272 271/271/271
f 274/274/274 273/273/273 271/271/271
f 275/275/275 273/273/273 274/274/274
f 276/276/276 275/275/275 274/274/274
f 275/275/275 276/276/276 277/277/277
f 278/278/278 275/275/275 277/277/277
f 271/271/271 272/272/272 279/279/279
f 272/272/272 280/280/280 279/279/279
f 283/283/283 282/282/282 281/281/281
f 284/284/284 283/283/283 281/281/281
f 285/285/285 283/283/283 284/284/284
f 286/286/286 285/285/285 284/284/284
f 285/285/285 286/286/286 287/287/287
f 288/288/288 285/285/285 287/287/287
f 289/289/289 281/281/281 282/282/282
f 290/290/290 289/289/289 282/282/282
f 293/293/293 292/292/292 291/291/291
f 294/294/294 293/293/293 291/291/291
f 292/292/292 293/293/293 295/295/295
f 293/293/293 296/296/296 295/295/295
f 295/295/295 296/296/296 297/297/297
f 298/298/298 295/295/295 297/297/297
f 301/301/301 300/300/300 299/299/299
f 302/302/302 301/301/301 299/299/299
f 303/303/303 301/301/301 302/302/302
f 304/304/304 303/303/303 302/302/302
f 303/303/303 304/304/304 305/305/305
f 306/306/306 303/303/303 305/305/305
f 309/309/309 308/308/308 307/307/307
f 310/310/310 309/309/309 307/307/307
f 311/311/311 309/309/309 310/310/310
f 312/312/312 311/311/311 310/310/310
f 311/311/311 312/312/312 313/313/313
f 314/314/314 311/311/311 313/313/313
f 315/315/315 307/307/307 308/308/308
f 316/316/316 315/315/315 308/308/308
f 319/319/319 318/318/318 317/317/317
f 320/320/320 319/319/319 317/317/317
f 318/318/318 319/319/319 321/321/321
f 319/319/319 322/322/322 321/321/321
f 321/321/321 322/322/322 323/323/323
f 324/324/324 321/321/321 323/323/323
f 327/327/327 326/326/326 325/325/325
f 328/328/328 327/327/327 325/325/325
f 329/329/329 327/327/327 328/328/328
f 330/330/330 329/329/329 328/328/328
f 329/329/329 330/330/330 331/331/331
f 332/332/332 329/329/329 331/331/331
f 335/335/335 334/334/334 333/333/333
f 336/336/336 335/335/335 333/333/333
f 337/337/337 335/335/335 336/336/336
f 338/338/338 337/337/337 336/336/336
f 337/337/337 338/338/338 339/339/339
f 340/340/340 337/337/337 339/339/339
f 341/341/341 333/333/333 334/334/334
f 342/342/342 341/341/341 334/334/334
f 345/345/345 344/344/344 343/343/343
f 346/346/346 345/345/345 343/343/343
f 344/344/344 345/345/345 347/347/347
f 345/345/345 348/348/348 347/347/347
f 347/347/347 348/348/348 349/349/349
f 350/350/350 347/347/347 349/349/349
f 353/353/353 352/352/352 351/351/351
f 354/354/354 353/353/353 351/351/351
f 355/355/355 353/353/353 354/354/354
f 356/356/356 355/355/355 354/354/354
f 355/355/355 356/356/356 357/357/357
f 360/360/360 359/359/359 358/358/358
f 363/363/363 362/362/362 361/361/361
f 364/364/364 363/363/363 361/361/361
f 367/367/367 366/366/366 365/365/365
f 368/368/368 367/367/367 365/365/365
f 371/371/371 370/370/370 369/369/369
f 372/372/372 371/371/371 369/369/369
f 375/375/375 374/374/374 373/373/373
f 375/375/375 376/376/376 374/374/374
f 379/379/379 378/378/378 377/377/377
f 380/380/380 379/379/379 377/377/377
f 383/383/383 382/382/382 381/381/381
f 384/384/384 383/383/383 381/381/381
f 387/387/387 386/386/386 385/385/385
f 388/388/388 387/387/387 385/385/385
f 391/391/391 390/390/390 389/389/389
f 392/392/392 391/391/391 389/389/389
f 395/395/395 394/394/394 393/393/393
f 396/396/396 395/395/395 393/393/393
f 399/399/399 398/398/398 397/397/397
f 400/400/400 399/399/399 397/397/397
f 403/403/403 402/402/402 401/401/401
f 404/404/404 403/403/403 401/401/401
f 407/407/407 406/406/406 405/405/405
f 408/408/408 407/407/407 405/405/405
f 411/411/411 410/410/410 409/409/409
f 412/412/412 411/411/411 409/409/409
f 415/415/415 414/414/414 413/413/413
f 416/416/416 415/415/415 413/413/413
f 419/419/419 418/418/418 417/417/417
f 420/420/420 419/419/419 417/417/417
f 423/423/423 422/422/422 421/421/421
f 424/424/424 423/423/423 421/421/421
f 427/427/427 426/426/426 425/425/425
f 428/428/428 427/427/427 425/425/425
f 431/431/431 430/430/430 429/429/429
f 432/432/432 431/431/431 429/429/429
f 435/435/435 434/434/434 433/433/433
f 436/436/436 435/435/435 433/433/433
f 439/439/439 438/438/438 437/437/437
f 440/440/440 439/439/439 437/437/437
f 443/443/443 442/442/442 441/441/441
f 444/444/444 443/443/443 441/441/441
f 447/447/447 446/446/446 445/445/445
f 448/448/448 447/447/447 445/445/445
f 451/451/451 450/450/450 449/449/449
f 452/452/452 451/451/451 449/449/449
f 455/455/455 454/454/454 453/453/453
f 456/456/456 455/455/455 453/453/453
f 459/459/459 458/458/458 457/457/457
f 460/460/460 459/459/459 457/457/457
f 463/463/463 462/462/462 461/461/461
f 464/464/464 463/463/463 461/461/461
f 467/467/467 466/466/466 465/465/465
f 468/468/468 467/467/467 465/465/465
f 471/471/471 470/470/470 469/469/469
f 474/474/474 473/473/473 472/472/472
f 477/477/477 476/476/476 475/475/475
f 478/478/478 477/477/477 475/475/475
f 481/481/481 480/480/480 479/479/479
f 482/482/482 481/481/481 479/479/479
f 485/485/485 484/484/484 483/483/483
f 486/486/486 485/485/485 483/483/483
f 489/489/489 488/488/488 487/487/487
f 490/490/490 489/489/489 487/487/487
f 493/493/493 492/492/492 491/491/491
f 494/494/494 493/493/493 491/491/491
f 497/497/497 496/496/496 495/495/495
f 497/497/497 498/498/498 496/496/496
f 501/501/501 500/500/500 499/499/499
f 504/504/504 503/503/503 502/502/502
f 504/504/504 505/505/505 503/503/503
f 508/508/508 507/507/507 506/506/506
f 511/511/511 510/510/510 509/509/509
f 511/511/511 512/512/512 510/510/510
f 515/515/515 514/514/514 513/513/513
f 516/516/516 515/515/515 513/513/513
f 515/515/515 517/517/517 514/514/514
f 517/517/517 518/518/518 514/514/514
f 517/517/517 519/519/519 518/518/518
f 519/519/519 520/520/520 518/518/518
f 520/520/520 519/519/519 521/521/521
f 519/519/519 522/522/522 521/521/521
