g Cube.022
v -0.18202546 0.07633774 0
v -0.19976488 -0.047586348 0
v -0.19976488 -0.047586348 0.19976488
v -0.18202546 0.07633774 0.18202546
v -0.18202546 0.07633774 -0.18202546
v -0.19976488 -0.047586348 -0.19976488
v -0 0.07633774 -0.18202546
v -0 -0.047586348 -0.19976488
v -0.19976488 -0.047586348 -0.19976488
v -0.18202546 0.07633774 -0.18202546
v 0.18202546 0.07633774 -0.18202546
v 0.19976488 -0.047586348 -0.19976488
v 0.18202546 0.11325949 0
v 0.18202546 0.07633774 0
v 0.18202546 0.07633774 -0.18202546
v 0.18202546 0.11325949 -0.18202546
v 0.18202546 0.11325949 0.18202546
v 0.18202546 0.07633774 0.18202546
v -0.19251598 0.11325949 0.19251598
v -0.18202546 0.11325949 0.18202546
v -0.00084411335 0.11325949 0.18202546
v -0.0008927614 0.11325949 0.19251598
v 0.18202546 0.11325949 0.18202546
v 0.19251598 0.11325949 0.19251598
v -0.19251598 0.11325949 0
v -0.18202546 0.11325949 0
v -0.19251598 0.11325949 -0.19251598
v -0.18202546 0.11325949 -0.18202546
v -0 0.11325949 -0.19251598
v -0 0.11325949 -0.18202546
v 0.19251598 0.11325949 -0.19251598
v 0.18202546 0.11325949 -0.18202546
v 0.19251598 0.11325949 0
v 0.18202546 0.11325949 0
v -0.46161932 -0.3438086 0
v -0.43757698 -0.3438086 0
v -0.31976622 -0.3438086 -0.31976622
v -0.3438086 -0.3438086 -0.3438086
v -0 -0.3438086 -0.4438189
v -0 -0.3438086 -0.46786124
v 0.31976622 -0.3438086 -0.31976622
v 0.3438086 -0.3438086 -0.3438086
v 0.42386454 -0.3438086 0
v 0.44790694 -0.3438086 0
v -0.3438086 -0.3438086 0.3438086
v -0.31976622 -0.3438086 0.31976622
v -0.0015943559 -0.3438086 0.4565523
v -0.0014828636 -0.3438086 0.43251
v 0.3438086 -0.3438086 0.3438086
v 0.31976622 -0.3438086 0.31976622
v -0.31976622 -0.3438086 -0.31976622
v -0.19976488 -0.047586348 -0.19976488
v -0 -0.047586348 -0.19976488
v -0 -0.3438086 -0.4438189
v -0.0008927614 0.11325949 0.19251598
v -0.0015943559 -0.3438086 0.4565523
v -0.3438086 -0.3438086 0.3438086
v -0.19251598 0.11325949 0.19251598
v 0.18202546 0.11325949 -0.18202546
v 0.18202546 0.07633774 -0.18202546
v -0 0.07633774 -0.18202546
v -0 0.11325949 -0.18202546
v -0.18202546 0.07633774 -0.18202546
v -0.18202546 0.11325949 -0.18202546
v 0.31976622 -0.3438086 0.31976622
v 0.19976488 -0.047586348 0.19976488
v -0.00092637684 -0.047586348 0.19976488
v -0.0014828636 -0.3438086 0.43251
v 0.18202546 0.07633774 0.18202546
v 0.19976488 -0.047586348 0.19976488
v 0.19976488 -0.047586348 0
v 0.18202546 0.07633774 0
v 0.19976488 -0.047586348 -0.19976488
v 0.18202546 0.07633774 -0.18202546
v -0.31976622 -0.3438086 0.31976622
v -0.19976488 -0.047586348 0.19976488
v -0.19976488 -0.047586348 0
v -0.43757698 -0.3438086 0
v -0.00084411335 0.07633774 0.18202546
v -0.00092637684 -0.047586348 0.19976488
v 0.19976488 -0.047586348 0.19976488
v 0.18202546 0.07633774 0.18202546
v -0.18202546 0.07633774 0.18202546
v -0.19976488 -0.047586348 0.19976488
v 0.19251598 0.11325949 0.19251598
v 0.3438086 -0.3438086 0.3438086
v -0.0015943559 -0.3438086 0.4565523
v -0.0008927614 0.11325949 0.19251598
v 0.42386454 -0.3438086 0
v 0.19976488 -0.047586348 0
v 0.19976488 -0.047586348 0.19976488
v 0.31976622 -0.3438086 0.31976622
v -0.43757698 -0.3438086 0
v -0.19976488 -0.047586348 0
v -0.19976488 -0.047586348 -0.19976488
v -0.31976622 -0.3438086 -0.31976622
v -0.18202546 0.11325949 0
v -0.18202546 0.07633774 0
v -0.18202546 0.07633774 0.18202546
v -0.18202546 0.11325949 0.18202546
v -0.18202546 0.11325949 -0.18202546
v -0.18202546 0.07633774 -0.18202546
v -0.00084411335 0.11325949 0.18202546
v -0.00084411335 0.07633774 0.18202546
v 0.18202546 0.07633774 0.18202546
v 0.18202546 0.11325949 0.18202546
v -0.18202546 0.11325949 0.18202546
v -0.18202546 0.07633774 0.18202546
v -0.0014828636 -0.3438086 0.43251
v -0.00092637684 -0.047586348 0.19976488
v -0.19976488 -0.047586348 0.19976488
v -0.31976622 -0.3438086 0.31976622
v -0 -0.3438086 -0.4438189
v -0 -0.047586348 -0.19976488
v 0.19976488 -0.047586348 -0.19976488
v 0.31976622 -0.3438086 -0.31976622
v -0 0.11325949 -0.19251598
v -0 -0.3438086 -0.46786124
v 0.3438086 -0.3438086 -0.3438086
v 0.19251598 0.11325949 -0.19251598
v -0.19251598 0.11325949 -0.19251598
v -0.3438086 -0.3438086 -0.3438086
v -0 -0.3438086 -0.46786124
v -0 0.11325949 -0.19251598
v -0.19251598 0.11325949 0
v -0.46161932 -0.3438086 0
v -0.3438086 -0.3438086 -0.3438086
v -0.19251598 0.11325949 -0.19251598
v -0.19251598 0.11325949 0.19251598
v -0.3438086 -0.3438086 0.3438086
v -0.46161932 -0.3438086 0
v -0.19251598 0.11325949 0
v 0.31976622 -0.3438086 -0.31976622
v 0.19976488 -0.047586348 -0.19976488
v 0.19976488 -0.047586348 0
v 0.42386454 -0.3438086 0
v 0.19251598 0.11325949 0
v 0.44790694 -0.3438086 0
v 0.3438086 -0.3438086 0.3438086
v 0.19251598 0.11325949 0.19251598
v 0.19251598 0.11325949 -0.19251598
v 0.3438086 -0.3438086 -0.3438086
v 0.44790694 -0.3438086 0
v 0.19251598 0.11325949 0
v -0.01294668 -0.028270632 0.012946926
v -0.01294668 -0.028270632 -0.012946926
v -0.01294668 2.094972 -0.012946926
v -0.01294668 2.094972 0.012946926
v -0.01294668 -0.028270632 -0.012946926
v 0.012947169 -0.028270632 -0.012946926
v 0.012947169 2.094972 -0.012946926
v -0.01294668 2.094972 -0.012946926
v 0.012947169 -0.028270632 -0.012946926
v 0.012947169 -0.028270632 0.012946926
v 0.012947169 2.094972 0.012946926
v 0.012947169 2.094972 -0.012946926
v 0.012947169 -0.028270632 0.012946926
v -0.01294668 -0.028270632 0.012946926
v -0.01294668 2.094972 0.012946926
v 0.012947169 2.094972 0.012946926
v -0.01294668 -0.028270632 -0.012946926
v -0.01294668 -0.028270632 0.012946926
v 0.012947169 -0.028270632 0.012946926
v 0.012947169 -0.028270632 -0.012946926
v 0.012947169 2.094972 -0.012946926
v 0.012947169 2.094972 0.012946926
v -0.01294668 2.094972 0.012946926
v -0.01294668 2.094972 -0.012946926
vn 0.9899093 -0.14170283 0
vn 0.9899093 -0.14170283 0
vn 0.9899093 -0.14170283 0
vn 0.9899093 -0.14170283 0
vn 0.9899093 -0.14170283 0
vn 0.9899093 -0.14170283 0
vn -0 -0.14170274 0.9899093
vn -0 -0.14170274 0.9899093
vn -0 -0.14170274 0.9899093
vn -0 -0.14170274 0.9899093
vn -0 -0.14170274 0.9899093
vn -0 -0.14170274 0.9899093
vn -1 0 0
vn -1 0 0
vn -1 0 0
vn -1 0 0
vn -1 0 0
vn -1 0 0
vn -0 1 0
vn -0 1 0
vn -0 1 0
vn -0 1 0
vn -0 1 0
vn -0 1 0
vn -0 1 0
vn -0 1 0
vn -0 1 0
vn -0 1 0
vn -0 1 0
vn -0 1 0
vn -0 1 0
vn -0 1 0
vn -0 1 0
vn -0 1 0
vn -0 -1 0
vn -0 -1 0
vn -0 -1 0
vn -0 -1 0
vn -0 -1 0
vn -0 -1 0
vn -0 -1 0
vn -0 -1 0
vn -0 -1 0
vn -0 -1 0
vn -0 -1 0
vn -0 -1 0
vn -0 -1 0
vn -0 -1 0
vn 3.978744E-07 -1 0
vn 3.978744E-07 -1 0
vn 0.1951958 -0.54187506 0.81747776
vn 0.1951958 -0.54187506 0.81747776
vn 0.1951958 -0.54187506 0.81747776
vn 0.1951958 -0.54187506 0.81747776
vn -0.18636829 0.43191895 0.88244706
vn -0.18636829 0.43191895 0.88244706
vn -0.18636829 0.43191895 0.88244706
vn -0.18636829 0.43191895 0.88244706
vn -0 0 1
vn -0 0 1
vn -0 0 1
vn -0 0 1
vn -0 0 1
vn -0 0 1
vn -0.17908153 -0.529727 -0.82904714
vn -0.17908153 -0.529727 -0.82904714
vn -0.17908153 -0.529727 -0.82904714
vn -0.17908153 -0.529727 -0.82904714
vn -0.9899093 -0.14170283 0
vn -0.9899093 -0.14170283 0
vn -0.9899093 -0.14170283 0
vn -0.9899093 -0.14170283 0
vn -0.9899093 -0.14170283 0
vn -0.9899093 -0.14170283 0
vn 0.823727 -0.5353343 -0.18679132
vn 0.823727 -0.5353343 -0.18679132
vn 0.823727 -0.5353343 -0.18679132
vn 0.823727 -0.5353343 -0.18679132
vn -0 -0.141703 -0.9899092
vn -0 -0.141703 -0.9899092
vn -0 -0.141703 -0.9899092
vn -0 -0.141703 -0.9899092
vn -0 -0.14170265 -0.9899093
vn -0 -0.14170265 -0.9899093
vn 0.18475215 0.4315934 0.882946
vn 0.18475215 0.4315934 0.882946
vn 0.18475215 0.4315934 0.882946
vn 0.18475215 0.4315934 0.882946
vn -0.8373297 -0.5203177 -0.16777556
vn -0.8373297 -0.5203177 -0.16777556
vn -0.8373297 -0.5203177 -0.16777556
vn -0.8373297 -0.5203177 -0.16777556
vn 0.823727 -0.5353343 0.18679132
vn 0.823727 -0.5353343 0.18679132
vn 0.823727 -0.5353343 0.18679132
vn 0.823727 -0.5353343 0.18679132
vn 1 0 0
vn 1 0 0
vn 1 0 0
vn 1 0 0
vn 1 0 0
vn 1 0 0
vn -0 0 -1
vn -0 0 -1
vn -0 0 -1
vn -0 0 -1
vn -0 0 -1
vn -0 0 -1
vn 0.18063132 -0.5300539 -0.8285018
vn 0.18063132 -0.5300539 -0.8285018
vn 0.18063132 -0.5300539 -0.8285018
vn 0.18063132 -0.5300539 -0.8285018
vn -0.19519584 -0.54187506 0.81747776
vn -0.19519584 -0.54187506 0.81747776
vn -0.19519584 -0.54187506 0.81747776
vn -0.19519584 -0.54187506 0.81747776
vn 0.2022035 0.4414639 -0.87419873
vn 0.2022035 0.4414639 -0.87419873
vn 0.2022035 0.4414639 -0.87419873
vn 0.2022035 0.4414639 -0.87419873
vn -0.2022035 0.4414639 -0.87419873
vn -0.2022035 0.4414639 -0.87419873
vn -0.2022035 0.4414639 -0.87419873
vn -0.2022035 0.4414639 -0.87419873
vn -0.87891775 0.43615264 -0.19306587
vn -0.87891775 0.43615264 -0.19306587
vn -0.87891775 0.43615264 -0.19306587
vn -0.87891775 0.43615264 -0.19306587
vn -0.87891775 0.43615264 0.19306587
vn -0.87891775 0.43615264 0.19306587
vn -0.87891775 0.43615264 0.19306587
vn -0.87891775 0.43615264 0.19306587
vn -0.8373297 -0.5203177 0.16777556
vn -0.8373297 -0.5203177 0.16777556
vn -0.8373297 -0.5203177 0.16777556
vn -0.8373297 -0.5203177 0.16777556
vn 0.8890353 0.4240755 0.17255807
vn 0.8890353 0.4240755 0.17255807
vn 0.8890353 0.4240755 0.17255807
vn 0.8890353 0.4240755 0.17255807
vn 0.8890353 0.4240755 -0.17255807
vn 0.8890353 0.4240755 -0.17255807
vn 0.8890353 0.4240755 -0.17255807
vn 0.8890353 0.4240755 -0.17255807
vn -1 0 0
vn -1 0 0
vn -1 0 0
vn -1 0 0
vn -0 0 -1
vn -0 0 -1
vn -0 0 -1
vn -0 0 -1
vn 1 0 0
vn 1 0 0
vn 1 0 0
vn 1 0 0
vn -0 0 1
vn -0 0 1
vn -0 0 1
vn -0 0 1
vn -0 -1 0
vn -0 -1 0
vn -0 -1 0
vn -0 -1 0
vn -0 1 0
vn -0 1 0
vn -0 1 0
vn -0 1 0
g Cube.022_0
f 3/3/3 2/2/2 1/1/1
f 4/4/4 3/3/3 1/1/1
f 1/1/1 2/2/2 5/5/5
f 2/2/2 6/6/6 5/5/5
f 9/9/9 8/8/8 7/7/7
f 10/10/10 9/9/9 7/7/7
f 7/7/7 8/8/8 11/11/11
f 8/8/8 12/12/12 11/11/11
f 15/15/15 14/14/14 13/13/13
f 16/16/16 15/15/15 13/13/13
f 13/13/13 14/14/14 17/17/17
f 14/14/14 18/18/18 17/17/17
f 21/21/21 20/20/20 19/19/19
f 22/22/22 21/21/21 19/19/19
f 23/23/23 21/21/21 22/22/22
f 24/24/24 23/23/23 22/22/22
f 19/19/19 20/20/20 25/25/25
f 20/20/20 26/26/26 25/25/25
f 25/25/25 26/26/26 27/27/27
f 26/26/26 28/28/28 27/27/27
f 27/27/27 28/28/28 29/29/29
f 28/28/28 30/30/30 29/29/29
f 29/29/29 30/30/30 31/31/31
f 30/30/30 32/32/32 31/31/31
f 31/31/31 32/32/32 33/33/33
f 32/32/32 34/34/34 33/33/33
f 34/34/34 23/23/23 24/24/24
f 33/33/33 34/34/34 24/24/24
f 37/37/37 36/36/36 35/35/35
f 38/38/38 37/37/37 35/35/35
f 39/39/39 37/37/37 38/38/38
f 40/40/40 39/39/39 38/38/38
f 41/41/41 39/39/39 40/40/40
f 42/42/42 41/41/41 40/40/40
f 43/43/43 41/41/41 42/42/42
f 44/44/44 43/43/43 42/42/42
f 35/35/35 36/36/36 45/45/45
f 36/36/36 46/46/46 45/45/45
f 45/45/45 46/46/46 47/47/47
f 46/46/46 48/48/48 47/47/47
f 47/47/47 48/48/48 49/49/49
f 48/48/48 50/50/50 49/49/49
f 50/50/50 43/43/43 44/44/44
f 49/49/49 50/50/50 44/44/44
f 53/53/53 52/52/52 51/51/51
f 54/54/54 53/53/53 51/51/51
f 57/57/57 56/56/56 55/55/55
f 58/58/58 57/57/57 55/55/55
f 61/61/61 60/60/60 59/59/59
f 62/62/62 61/61/61 59/59/59
f 63/63/63 61/61/61 62/62/62
f 64/64/64 63/63/63 62/62/62
f 67/67/67 66/66/66 65/65/65
f 68/68/68 67/67/67 65/65/65
f 71/71/71 70/70/70 69/69/69
f 72/72/72 71/71/71 69/69/69
f 73/73/73 71/71/71 72/72/72
f 74/74/74 73/73/73 72/72/72
f 77/77/77 76/76/76 75/75/75
f 78/78/78 77/77/77 75/75/75
f 81/81/81 80/80/80 79/79/79
f 82/82/82 81/81/81 79/79/79
f 79/79/79 80/80/80 83/83/83
f 80/80/80 84/84/84 83/83/83
f 87/87/87 86/86/86 85/85/85
f 88/88/88 87/87/87 85/85/85
f 91/91/91 90/90/90 89/89/89
f 92/92/92 91/91/91 89/89/89
f 95/95/95 94/94/94 93/93/93
f 96/96/96 95/95/95 93/93/93
f 99/99/99 98/98/98 97/97/97
f 100/100/100 99/99/99 97/97/97
f 97/97/97 98/98/98 101/101/101
f 98/98/98 102/102/102 101/101/101
f 105/105/105 104/104/104 103/103/103
f 106/106/106 105/105/105 103/103/103
f 103/103/103 104/104/104 107/107/107
f 104/104/104 108/108/108 107/107/107
f 111/111/111 110/110/110 109/109/109
f 112/112/112 111/111/111 109/109/109
f 115/115/115 114/114/114 113/113/113
f 116/116/116 115/115/115 113/113/113
f 119/119/119 118/118/118 117/117/117
f 120/120/120 119/119/119 117/117/117
f 123/123/123 122/122/122 121/121/121
f 124/124/124 123/123/123 121/121/121
f 127/127/127 126/126/126 125/125/125
f 128/128/128 127/127/127 125/125/125
f 131/131/131 130/130/130 129/129/129
f 132/132/132 131/131/131 129/129/129
f 135/135/135 134/134/134 133/133/133
f 136/136/136 135/135/135 133/133/133
f 139/139/139 138/138/138 137/137/137
f 140/140/140 139/139/139 137/137/137
f 143/143/143 142/142/142 141/141/141
f 144/144/144 143/143/143 141/141/141
g Cube.022_1
f 147/147/147 146/146/146 145/145/145
f 148/148/148 147/147/147 145/145/145
f 151/151/151 150/150/150 149/149/149
f 152/152/152 151/151/151 149/149/149
f 155/155/155 154/154/154 153/153/153
f 156/156/156 155/155/155 153/153/153
f 159/159/159 158/158/158 157/157/157
f 160/160/160 159/159/159 157/157/157
f 163/163/163 162/162/162 161/161/161
f 164/164/164 163/163/163 161/161/161
f 167/167/167 166/166/166 165/165/165
f 168/168/168 167/167/167 165/165/165
