g DinnertableLamp
v -0 -0.21232566 -0.21232566
v 0.04142268 -0.21232566 -0.20824586
v 0.04142268 0.21232566 -0.20824586
v -0 0.21232566 -0.21232566
v 0.04142268 -0.21232566 -0.20824586
v 0.08125351 -0.21232566 -0.19616333
v 0.08125351 0.21232566 -0.19616333
v 0.04142268 0.21232566 -0.20824586
v 0.08125351 -0.21232566 -0.19616333
v 0.117961824 -0.21232566 -0.17654231
v 0.117961824 0.21232566 -0.17654231
v 0.08125351 0.21232566 -0.19616333
v 0.117961824 -0.21232566 -0.17654231
v 0.15013692 -0.21232566 -0.15013692
v 0.15013692 0.21232566 -0.15013692
v 0.117961824 0.21232566 -0.17654231
v 0.15013692 -0.21232566 -0.15013692
v 0.17654234 -0.21232566 -0.1179618
v 0.17654234 0.21232566 -0.1179618
v 0.15013692 0.21232566 -0.15013692
v 0.17654234 -0.21232566 -0.1179618
v 0.19616333 -0.21232566 -0.081253506
v 0.19616333 0.21232566 -0.081253506
v 0.17654234 0.21232566 -0.1179618
v 0.19616333 -0.21232566 -0.081253506
v 0.20824586 -0.21232566 -0.041422687
v 0.20824586 0.21232566 -0.041422687
v 0.19616333 0.21232566 -0.081253506
v 0.20824586 -0.21232566 -0.041422687
v 0.21232566 -0.21232566 -1.603014E-08
v 0.21232566 0.21232566 -1.603014E-08
v 0.20824586 0.21232566 -0.041422687
v 0.21232566 -0.21232566 -1.603014E-08
v 0.20824589 -0.21232566 0.041422658
v 0.20824589 0.21232566 0.041422658
v 0.21232566 0.21232566 -1.603014E-08
v 0.20824589 -0.21232566 0.041422658
v 0.19616334 -0.21232566 0.08125348
v 0.19616334 0.21232566 0.08125348
v 0.20824589 0.21232566 0.041422658
v 0.19616334 -0.21232566 0.08125348
v 0.17654234 -0.21232566 0.1179618
v 0.17654234 0.21232566 0.1179618
v 0.19616334 0.21232566 0.08125348
v 0.17654234 -0.21232566 0.1179618
v 0.15013692 -0.21232566 0.15013692
v 0.15013692 0.21232566 0.15013692
v 0.17654234 0.21232566 0.1179618
v 0.15013692 -0.21232566 0.15013692
v 0.1179618 -0.21232566 0.17654234
v 0.1179618 0.21232566 0.17654234
v 0.15013692 0.21232566 0.15013692
v 0.1179618 -0.21232566 0.17654234
v 0.08125348 -0.21232566 0.19616334
v 0.08125348 0.21232566 0.19616334
v 0.1179618 0.21232566 0.17654234
v 0.08125348 -0.21232566 0.19616334
v 0.041422628 -0.21232566 0.20824589
v 0.041422628 0.21232566 0.20824589
v 0.08125348 0.21232566 0.19616334
v 0.041422628 -0.21232566 0.20824589
v -6.918449E-08 -0.21232566 0.21232566
v -6.918449E-08 0.21232566 0.21232566
v 0.041422628 0.21232566 0.20824589
v -6.918449E-08 -0.21232566 0.21232566
v -0.041422766 -0.21232566 0.20824584
v -0.041422766 0.21232566 0.20824584
v -6.918449E-08 0.21232566 0.21232566
v -0.041422766 -0.21232566 0.20824584
v -0.08125361 -0.21232566 0.19616328
v -0.08125361 0.21232566 0.19616328
v -0.041422766 0.21232566 0.20824584
v -0.08125361 -0.21232566 0.19616328
v -0.11796192 -0.21232566 0.17654225
v -0.11796192 0.21232566 0.17654225
v -0.08125361 0.21232566 0.19616328
v -0.11796192 -0.21232566 0.17654225
v -0.150137 -0.21232566 0.15013683
v -0.150137 0.21232566 0.15013683
v -0.11796192 0.21232566 0.17654225
v -0.150137 -0.21232566 0.15013683
v -0.17654242 -0.21232566 0.11796169
v -0.17654242 0.21232566 0.11796169
v -0.150137 0.21232566 0.15013683
v -0.17654242 -0.21232566 0.11796169
v -0.1961634 -0.21232566 0.08125336
v -0.1961634 0.21232566 0.08125336
v -0.17654242 0.21232566 0.11796169
v -0.1961634 -0.21232566 0.08125336
v -0.20824592 -0.21232566 0.041422494
v -0.20824592 0.21232566 0.041422494
v -0.1961634 0.21232566 0.08125336
v -0.20824592 -0.21232566 0.041422494
v -0.21232566 -0.21232566 -2.0502148E-07
v -0.21232566 0.21232566 -2.0502148E-07
v -0.20824592 0.21232566 0.041422494
v -0.21232566 -0.21232566 -2.0502148E-07
v -0.20824584 -0.21232566 -0.0414229
v -0.20824584 0.21232566 -0.0414229
v -0.21232566 0.21232566 -2.0502148E-07
v -0.20824584 -0.21232566 -0.0414229
v -0.19616324 -0.21232566 -0.08125373
v -0.19616324 0.21232566 -0.08125373
v -0.20824584 0.21232566 -0.0414229
v -0.19616324 -0.21232566 -0.08125373
v -0.17654218 -0.21232566 -0.11796203
v -0.17654218 0.21232566 -0.11796203
v -0.19616324 0.21232566 -0.08125373
v -0.17654218 -0.21232566 -0.11796203
v -0.15013672 -0.21232566 -0.1501371
v -0.15013672 0.21232566 -0.1501371
v -0.17654218 0.21232566 -0.11796203
v -0.15013672 -0.21232566 -0.1501371
v -0.11796158 -0.21232566 -0.17654249
v -0.11796158 0.21232566 -0.17654249
v -0.15013672 0.21232566 -0.1501371
v -0.11796158 -0.21232566 -0.17654249
v -0.08125323 -0.21232566 -0.19616346
v -0.08125323 0.21232566 -0.19616346
v -0.11796158 0.21232566 -0.17654249
v 0.19616334 -0.21232566 0.08125348
v 0.18005325 -0.1948882 0.07458046
v 0.16204365 -0.1948882 0.10827409
v 0.17654234 -0.21232566 0.1179618
v -0.08125323 -0.21232566 -0.19616346
v -0.04142236 -0.21232566 -0.20824593
v -0.04142236 0.21232566 -0.20824593
v -0.08125323 0.21232566 -0.19616346
v -0.04142236 -0.21232566 -0.20824593
v -0 -0.21232566 -0.21232566
v -0 0.21232566 -0.21232566
v -0.04142236 0.21232566 -0.20824593
v 0.04142268 -0.21232566 -0.20824586
v 0.03802081 -0.1948882 -0.19114348
v 0.0745805 -0.1948882 -0.18005323
v 0.08125351 -0.21232566 -0.19616333
v -0.11796192 -0.21232566 0.17654225
v -0.10827419 -0.1948882 0.16204357
v -0.13780688 -0.1948882 0.1378067
v -0.150137 -0.21232566 0.15013683
v -0.15013672 -0.21232566 -0.1501371
v -0.13780661 -0.1948882 -0.13780695
v -0.108273864 -0.1948882 -0.1620438
v -0.11796158 -0.21232566 -0.17654249
v 0.19616333 -0.21232566 -0.081253506
v 0.18005323 -0.1948882 -0.0745805
v 0.19114348 -0.1948882 -0.038020812
v 0.20824586 -0.21232566 -0.041422687
v 0.041422628 -0.21232566 0.20824589
v 0.038020756 -0.1948882 0.19114351
v -6.350265E-08 -0.1948882 0.1948882
v -6.918449E-08 -0.21232566 0.21232566
v -0.21232566 -0.21232566 -2.0502148E-07
v -0.1948882 -0.1948882 -1.881839E-07
v -0.19114345 -0.1948882 -0.038021006
v -0.20824584 -0.21232566 -0.0414229
v 0.08125351 -0.21232566 -0.19616333
v 0.0745805 -0.1948882 -0.18005323
v 0.108274095 -0.1948882 -0.16204365
v 0.117961824 -0.21232566 -0.17654231
v 0.17654234 -0.21232566 0.1179618
v 0.16204365 -0.1948882 0.10827409
v 0.13780679 -0.1948882 0.13780679
v 0.15013692 -0.21232566 0.15013692
v -0.150137 -0.21232566 0.15013683
v -0.13780688 -0.1948882 0.1378067
v -0.16204372 -0.1948882 0.10827399
v -0.17654242 -0.21232566 0.11796169
v -0.11796158 -0.21232566 -0.17654249
v -0.108273864 -0.1948882 -0.1620438
v -0.07458024 -0.1948882 -0.18005334
v -0.08125323 -0.21232566 -0.19616346
v 0.20824586 -0.21232566 -0.041422687
v 0.19114348 -0.1948882 -0.038020812
v 0.1948882 -0.1948882 -1.47136525E-08
v 0.21232566 -0.21232566 -1.603014E-08
v -6.918449E-08 -0.21232566 0.21232566
v -6.350265E-08 -0.1948882 0.1948882
v -0.038020886 -0.1948882 0.19114347
v -0.041422766 -0.21232566 0.20824584
v -0.20824584 -0.21232566 -0.0414229
v -0.19114345 -0.1948882 -0.038021006
v -0.18005316 -0.1948882 -0.0745807
v -0.19616324 -0.21232566 -0.08125373
v 0.117961824 -0.21232566 -0.17654231
v 0.108274095 -0.1948882 -0.16204365
v 0.13780679 -0.1948882 -0.13780679
v 0.15013692 -0.21232566 -0.15013692
v 0.15013692 -0.21232566 0.15013692
v 0.13780679 -0.1948882 0.13780679
v 0.10827409 -0.1948882 0.16204365
v 0.1179618 -0.21232566 0.17654234
v -0.17654242 -0.21232566 0.11796169
v -0.16204372 -0.1948882 0.10827399
v -0.18005331 -0.1948882 0.07458035
v -0.1961634 -0.21232566 0.08125336
v -0.08125323 -0.21232566 -0.19616346
v -0.07458024 -0.1948882 -0.18005334
v -0.038020514 -0.1948882 -0.19114354
v -0.04142236 -0.21232566 -0.20824593
v 0.21232566 -0.21232566 -1.603014E-08
v 0.1948882 -0.1948882 -1.47136525E-08
v 0.19114351 -0.1948882 0.038020782
v 0.20824589 -0.21232566 0.041422658
v -0.041422766 -0.21232566 0.20824584
v -0.038020886 -0.1948882 0.19114347
v -0.07458058 -0.1948882 0.18005319
v -0.08125361 -0.21232566 0.19616328
v -0.19616324 -0.21232566 -0.08125373
v -0.18005316 -0.1948882 -0.0745807
v -0.16204351 -0.1948882 -0.10827429
v -0.17654218 -0.21232566 -0.11796203
v 0.15013692 -0.21232566 -0.15013692
v 0.13780679 -0.1948882 -0.13780679
v 0.16204365 -0.1948882 -0.10827409
v 0.17654234 -0.21232566 -0.1179618
v 0.1179618 -0.21232566 0.17654234
v 0.10827409 -0.1948882 0.16204365
v 0.07458046 -0.1948882 0.18005326
v 0.08125348 -0.21232566 0.19616334
v -0.1961634 -0.21232566 0.08125336
v -0.18005331 -0.1948882 0.07458035
v -0.19114354 -0.1948882 0.038020637
v -0.20824592 -0.21232566 0.041422494
v -0 -0.21232566 -0.21232566
v -0 -0.1948882 -0.1948882
v 0.03802081 -0.1948882 -0.19114348
v 0.04142268 -0.21232566 -0.20824586
v -0.04142236 -0.21232566 -0.20824593
v -0.038020514 -0.1948882 -0.19114354
v -0 -0.1948882 -0.1948882
v -0 -0.21232566 -0.21232566
v 0.20824589 -0.21232566 0.041422658
v 0.19114351 -0.1948882 0.038020782
v 0.18005325 -0.1948882 0.07458046
v 0.19616334 -0.21232566 0.08125348
v -0.08125361 -0.21232566 0.19616328
v -0.07458058 -0.1948882 0.18005319
v -0.10827419 -0.1948882 0.16204357
v -0.11796192 -0.21232566 0.17654225
v -0.17654218 -0.21232566 -0.11796203
v -0.16204351 -0.1948882 -0.10827429
v -0.13780661 -0.1948882 -0.13780695
v -0.15013672 -0.21232566 -0.1501371
v 0.17654234 -0.21232566 -0.1179618
v 0.16204365 -0.1948882 -0.10827409
v 0.18005323 -0.1948882 -0.0745805
v 0.19616333 -0.21232566 -0.081253506
v 0.08125348 -0.21232566 0.19616334
v 0.07458046 -0.1948882 0.18005326
v 0.038020756 -0.1948882 0.19114351
v 0.041422628 -0.21232566 0.20824589
v -0.20824592 -0.21232566 0.041422494
v -0.19114354 -0.1948882 0.038020637
v -0.1948882 -0.1948882 -1.881839E-07
v -0.21232566 -0.21232566 -2.0502148E-07
v -0.13780661 -0.1948882 -0.13780695
v -0.13780661 0.2024218 -0.13780695
v -0.108273864 0.2024218 -0.1620438
v -0.108273864 -0.1948882 -0.1620438
v 0.038020756 -0.1948882 0.19114351
v 0.038020756 0.2024218 0.19114351
v -6.350265E-08 0.2024218 0.1948882
v -6.350265E-08 -0.1948882 0.1948882
v 0.0745805 -0.1948882 -0.18005323
v 0.0745805 0.2024218 -0.18005323
v 0.108274095 0.2024218 -0.16204365
v 0.108274095 -0.1948882 -0.16204365
v -0.108273864 -0.1948882 -0.1620438
v -0.108273864 0.2024218 -0.1620438
v -0.07458024 0.2024218 -0.18005334
v -0.108273864 -0.1948882 -0.1620438
v -0.07458024 0.2024218 -0.18005334
v -0.07458024 -0.1948882 -0.18005334
v -6.350265E-08 -0.1948882 0.1948882
v -6.350265E-08 0.2024218 0.1948882
v -0.038020886 0.2024218 0.19114347
v -0.038020886 -0.1948882 0.19114347
v 0.108274095 -0.1948882 -0.16204365
v 0.108274095 0.2024218 -0.16204365
v 0.13780679 0.2024218 -0.13780679
v 0.13780679 -0.1948882 -0.13780679
v -0.07458024 -0.1948882 -0.18005334
v -0.07458024 0.2024218 -0.18005334
v -0.038020514 0.2024218 -0.19114354
v -0.038020514 -0.1948882 -0.19114354
v -0.038020886 -0.1948882 0.19114347
v -0.038020886 0.2024218 0.19114347
v -0.07458058 0.2024218 0.18005319
v -0.07458058 -0.1948882 0.18005319
v 0.13780679 -0.1948882 -0.13780679
v 0.13780679 0.2024218 -0.13780679
v 0.16204365 0.2024218 -0.10827409
v 0.16204365 -0.1948882 -0.10827409
v -0.038020514 -0.1948882 -0.19114354
v -0.038020514 0.2024218 -0.19114354
v -0 0.2024218 -0.1948882
v -0 -0.1948882 -0.1948882
v -0.07458058 -0.1948882 0.18005319
v -0.07458058 0.2024218 0.18005319
v -0.10827419 0.2024218 0.16204357
v -0.10827419 -0.1948882 0.16204357
v 0.16204365 -0.1948882 -0.10827409
v 0.16204365 0.2024218 -0.10827409
v 0.18005323 0.2024218 -0.0745805
v 0.18005323 -0.1948882 -0.0745805
v -0.10827419 -0.1948882 0.16204357
v -0.10827419 0.2024218 0.16204357
v -0.13780688 0.2024218 0.1378067
v -0.13780688 -0.1948882 0.1378067
v 0.18005323 -0.1948882 -0.0745805
v 0.18005323 0.2024218 -0.0745805
v 0.19114348 0.2024218 -0.038020812
v 0.19114348 -0.1948882 -0.038020812
v -0.13780688 -0.1948882 0.1378067
v -0.13780688 0.2024218 0.1378067
v -0.16204372 0.2024218 0.10827399
v -0.16204372 -0.1948882 0.10827399
v 0.19114348 -0.1948882 -0.038020812
v 0.19114348 0.2024218 -0.038020812
v 0.1948882 0.2024218 -1.47136525E-08
v 0.1948882 -0.1948882 -1.47136525E-08
v -0.16204372 -0.1948882 0.10827399
v -0.16204372 0.2024218 0.10827399
v -0.18005331 0.2024218 0.07458035
v -0.18005331 -0.1948882 0.07458035
v 0.1948882 -0.1948882 -1.47136525E-08
v 0.1948882 0.2024218 -1.47136525E-08
v 0.19114351 0.2024218 0.038020782
v 0.19114351 -0.1948882 0.038020782
v -0.18005331 -0.1948882 0.07458035
v -0.18005331 0.2024218 0.07458035
v -0.19114354 0.2024218 0.038020637
v -0.19114354 -0.1948882 0.038020637
v 0.19114351 -0.1948882 0.038020782
v 0.19114351 0.2024218 0.038020782
v 0.18005325 0.2024218 0.07458046
v 0.18005325 -0.1948882 0.07458046
v -0.19114354 -0.1948882 0.038020637
v -0.19114354 0.2024218 0.038020637
v -0.1948882 0.2024218 -1.881839E-07
v -0.1948882 -0.1948882 -1.881839E-07
v 0.18005325 -0.1948882 0.07458046
v 0.18005325 0.2024218 0.07458046
v 0.16204365 0.2024218 0.10827409
v 0.16204365 -0.1948882 0.10827409
v -0.1948882 -0.1948882 -1.881839E-07
v -0.1948882 0.2024218 -1.881839E-07
v -0.19114345 0.2024218 -0.038021006
v -0.19114345 -0.1948882 -0.038021006
v 0.16204365 -0.1948882 0.10827409
v 0.16204365 0.2024218 0.10827409
v 0.13780679 0.2024218 0.13780679
v 0.13780679 -0.1948882 0.13780679
v -0.19114345 -0.1948882 -0.038021006
v -0.19114345 0.2024218 -0.038021006
v -0.18005316 0.2024218 -0.0745807
v -0.18005316 -0.1948882 -0.0745807
v 0.13780679 -0.1948882 0.13780679
v 0.13780679 0.2024218 0.13780679
v 0.10827409 0.2024218 0.16204365
v 0.10827409 -0.1948882 0.16204365
v -0.18005316 -0.1948882 -0.0745807
v -0.18005316 0.2024218 -0.0745807
v -0.16204351 0.2024218 -0.10827429
v -0.16204351 -0.1948882 -0.10827429
v 0.10827409 -0.1948882 0.16204365
v 0.10827409 0.2024218 0.16204365
v 0.07458046 0.2024218 0.18005326
v 0.07458046 -0.1948882 0.18005326
v -0 -0.1948882 -0.1948882
v -0 0.2024218 -0.1948882
v 0.03802081 0.2024218 -0.19114348
v 0.03802081 -0.1948882 -0.19114348
v -0.16204351 -0.1948882 -0.10827429
v -0.16204351 0.2024218 -0.10827429
v -0.13780661 0.2024218 -0.13780695
v -0.13780661 -0.1948882 -0.13780695
v 0.07458046 -0.1948882 0.18005326
v 0.07458046 0.2024218 0.18005326
v 0.038020756 0.2024218 0.19114351
v 0.038020756 -0.1948882 0.19114351
v 0.03802081 -0.1948882 -0.19114348
v 0.03802081 0.2024218 -0.19114348
v 0.0745805 0.2024218 -0.18005323
v 0.0745805 -0.1948882 -0.18005323
v 0.15013692 0.21232566 -0.15013692
v 0.13780679 0.2024218 -0.13780679
v 0.108274095 0.2024218 -0.16204365
v 0.117961824 0.21232566 -0.17654231
v 0.117961824 0.21232566 -0.17654231
v 0.108274095 0.2024218 -0.16204365
v 0.0745805 0.2024218 -0.18005323
v 0.08125351 0.21232566 -0.19616333
v -0.04142236 0.21232566 -0.20824593
v -0 0.21232566 -0.21232566
v 0.04142268 0.21232566 -0.20824586
v -0.08125323 0.21232566 -0.19616346
v 0.08125351 0.21232566 -0.19616333
v 0.08125351 0.21232566 -0.19616333
v -0 0.2024218 -0.1948882
v -0.08125323 0.21232566 -0.19616346
v -0.038020514 0.2024218 -0.19114354
v 0.03802081 0.2024218 -0.19114348
v 0.0745805 0.2024218 -0.18005323
v -0.038020514 0.2024218 -0.19114354
v -0.11796158 0.21232566 -0.17654249
v -0.08125323 0.21232566 -0.19616346
v -0.07458024 0.2024218 -0.18005334
v -0.108273864 0.2024218 -0.1620438
v -0.15013672 0.21232566 -0.1501371
v -0.13780661 0.2024218 -0.13780695
v -0.17654218 0.21232566 -0.11796203
v -0.16204351 0.2024218 -0.10827429
v -0.19616324 0.21232566 -0.08125373
v -0.18005316 0.2024218 -0.0745807
v -0.20824584 0.21232566 -0.0414229
v -0.19114345 0.2024218 -0.038021006
v -0.21232566 0.21232566 -2.0502148E-07
v -0.1948882 0.2024218 -1.881839E-07
v -0.20824592 0.21232566 0.041422494
v -0.19114354 0.2024218 0.038020637
v -0.18005331 0.2024218 0.07458035
v -0.1961634 0.21232566 0.08125336
v -0.16204372 0.2024218 0.10827399
v -0.17654242 0.21232566 0.11796169
v -0.13780688 0.2024218 0.1378067
v -0.150137 0.21232566 0.15013683
v -0.10827419 0.2024218 0.16204357
v -0.11796192 0.21232566 0.17654225
v -0.07458058 0.2024218 0.18005319
v -0.08125361 0.21232566 0.19616328
v -0.038020886 0.2024218 0.19114347
v -0.038020886 0.2024218 0.19114347
v -6.350265E-08 0.2024218 0.1948882
v -0.08125361 0.21232566 0.19616328
v 0.08125348 0.21232566 0.19616334
v 0.038020756 0.2024218 0.19114351
v 0.13780679 0.2024218 -0.13780679
v 0.15013692 0.21232566 -0.15013692
v 0.17654234 0.21232566 -0.1179618
v 0.16204365 0.2024218 -0.10827409
v 0.19616333 0.21232566 -0.081253506
v 0.18005323 0.2024218 -0.0745805
v 0.20824586 0.21232566 -0.041422687
v 0.19114348 0.2024218 -0.038020812
v 0.21232566 0.21232566 -1.603014E-08
v 0.1948882 0.2024218 -1.47136525E-08
v 0.20824589 0.21232566 0.041422658
v 0.19114351 0.2024218 0.038020782
v 0.18005325 0.2024218 0.07458046
v 0.19616334 0.21232566 0.08125348
v 0.16204365 0.2024218 0.10827409
v 0.17654234 0.21232566 0.1179618
v 0.13780679 0.2024218 0.13780679
v 0.15013692 0.21232566 0.15013692
v 0.10827409 0.2024218 0.16204365
v 0.1179618 0.21232566 0.17654234
v 0.07458046 0.2024218 0.18005326
v 0.08125348 0.21232566 0.19616334
v 0.038020756 0.2024218 0.19114351
v 0.08125348 0.21232566 0.19616334
v -0.08125361 0.21232566 0.19616328
v -6.350265E-08 0.2024218 0.1948882
v 0.08125348 0.21232566 0.19616334
v -0.041422766 0.21232566 0.20824584
v -0.08125361 0.21232566 0.19616328
v 0.041422628 0.21232566 0.20824589
v -6.918449E-08 0.21232566 0.21232566
v 4.764227E-07 0.04294398 -0.0069536567
v 0.0013569744 0.04294398 -0.006820053
v 0.0013569744 0.92685026 -0.006820053
v 4.764227E-07 0.92685026 -0.0069536567
v 0.0013569744 0.04294398 -0.006820053
v 0.002661343 0.04294398 -0.0064243767
v 0.002661343 0.92685026 -0.0064243767
v 0.0013569744 0.92685026 -0.006820053
v 0.002661343 0.04294398 -0.0064243767
v 0.003863456 0.04294398 -0.005781834
v 0.003863456 0.92685026 -0.005781834
v 0.002661343 0.92685026 -0.0064243767
v 0.003863456 0.04294398 -0.005781834
v 0.0049171164 0.04294398 -0.004917117
v 0.0049171164 0.92685026 -0.004917117
v 0.003863456 0.92685026 -0.005781834
v 0.0049171164 0.04294398 -0.004917117
v 0.005781834 0.04294398 -0.0038634555
v 0.005781834 0.92685026 -0.0038634555
v 0.0049171164 0.92685026 -0.004917117
v 0.005781834 0.04294398 -0.0038634555
v 0.0064243763 0.04294398 -0.0026613425
v 0.0064243763 0.92685026 -0.0026613425
v 0.005781834 0.92685026 -0.0038634555
v 0.0064243763 0.04294398 -0.0026613425
v 0.0068200515 0.04294398 -0.0013569745
v 0.0068200515 0.92685026 -0.0013569745
v 0.0064243763 0.92685026 -0.0026613425
v 0.0068200515 0.04294398 -0.0013569745
v 0.0069536553 0.04294398 -4.7672378E-07
v 0.0069536553 0.92685026 -4.7672378E-07
v 0.0068200515 0.92685026 -0.0013569745
v 0.0069536553 0.04294398 -4.7672378E-07
v 0.006820052 0.04294398 0.001356021
v 0.006820052 0.92685026 0.001356021
v 0.0069536553 0.92685026 -4.7672378E-07
v 0.006820052 0.04294398 0.001356021
v 0.0064243767 0.04294398 0.0026603895
v 0.0064243767 0.92685026 0.0026603895
v 0.006820052 0.92685026 0.001356021
v 0.0064243767 0.04294398 0.0026603895
v 0.005781834 0.04294398 0.0038625028
v 0.005781834 0.92685026 0.0038625028
v 0.0064243767 0.92685026 0.0026603895
v 0.005781834 0.04294398 0.0038625028
v 0.0049171173 0.04294398 0.004916164
v 0.0049171173 0.92685026 0.004916164
v 0.005781834 0.92685026 0.0038625028
v 0.0049171173 0.04294398 0.004916164
v 0.003863456 0.04294398 0.0057808817
v 0.003863456 0.92685026 0.0057808817
v 0.0049171173 0.92685026 0.004916164
v 0.003863456 0.04294398 0.0057808817
v 0.0026613425 0.04294398 0.006423425
v 0.0026613425 0.92685026 0.006423425
v 0.003863456 0.92685026 0.0057808817
v 0.0026613425 0.04294398 0.006423425
v 0.0013569734 0.04294398 0.0068190997
v 0.0013569734 0.92685026 0.0068190997
v 0.0026613425 0.92685026 0.006423425
v 0.0013569734 0.04294398 0.0068190997
v 4.7498597E-07 0.04294398 0.006952703
v 4.7498597E-07 0.92685026 0.006952703
v 0.0013569734 0.92685026 0.0068190997
v 4.7498597E-07 0.04294398 0.006952703
v -0.0013560235 0.04294398 0.006819099
v -0.0013560235 0.92685026 0.006819099
v 4.7498597E-07 0.92685026 0.006952703
v -0.0013560235 0.04294398 0.006819099
v -0.002660392 0.04294398 0.006423421
v -0.002660392 0.92685026 0.006423421
v -0.0013560235 0.92685026 0.006819099
v -0.002660392 0.04294398 0.006423421
v -0.0038625055 0.04294398 0.0057808785
v -0.0038625055 0.92685026 0.0057808785
v -0.002660392 0.92685026 0.006423421
v -0.0038625055 0.04294398 0.0057808785
v -0.004916166 0.04294398 0.0049161604
v -0.004916166 0.92685026 0.0049161604
v -0.0038625055 0.92685026 0.0057808785
v -0.004916166 0.04294398 0.0049161604
v -0.0057808827 0.04294398 0.0038624983
v -0.0057808827 0.92685026 0.0038624983
v -0.004916166 0.92685026 0.0049161604
v -0.0057808827 0.04294398 0.0038624983
v -0.006423425 0.04294398 0.002660384
v -0.006423425 0.92685026 0.002660384
v -0.0057808827 0.92685026 0.0038624983
v -0.006423425 0.04294398 0.002660384
v -0.0068190997 0.04294398 0.0013560146
v -0.0068190997 0.92685026 0.0013560146
v -0.006423425 0.92685026 0.002660384
v -0.0068190997 0.04294398 0.0013560146
v -0.0069527016 0.04294398 -4.8418946E-07
v -0.0069527016 0.92685026 -4.8418946E-07
v -0.0068190997 0.92685026 0.0013560146
v -0.0069527016 0.04294398 -4.8418946E-07
v -0.0068190973 0.04294398 -0.0013569825
v -0.0068190973 0.92685026 -0.0013569825
v -0.0069527016 0.92685026 -4.8418946E-07
v -0.0068190973 0.04294398 -0.0013569825
v -0.0064234193 0.04294398 -0.0026613516
v -0.0064234193 0.92685026 -0.0026613516
v -0.0068190973 0.92685026 -0.0013569825
v -0.0064234193 0.04294398 -0.0026613516
v -0.0057808757 0.04294398 -0.0038634639
v -0.0057808757 0.92685026 -0.0038634639
v -0.0064234193 0.92685026 -0.0026613516
v -0.0057808757 0.04294398 -0.0038634639
v -0.004916157 0.04294398 -0.004917124
v -0.004916157 0.92685026 -0.004917124
v -0.0057808757 0.92685026 -0.0038634639
v -0.004916157 0.04294398 -0.004917124
v -0.0038624948 0.04294398 -0.0057818405
v -0.0038624948 0.92685026 -0.0057818405
v -0.004916157 0.92685026 -0.004917124
v -0.0038624948 0.04294398 -0.0057818405
v -0.0026603804 0.04294398 -0.0064243814
v -0.0026603804 0.92685026 -0.0064243814
v -0.0038624948 0.92685026 -0.0057818405
v -0.001356011 0.92685026 -0.006820055
v 4.764227E-07 0.92685026 -0.0069536567
v 0.0013569744 0.92685026 -0.006820053
v -0.0026603804 0.92685026 -0.0064243814
v 0.002661343 0.92685026 -0.0064243767
v -0.0038624948 0.92685026 -0.0057818405
v 0.003863456 0.92685026 -0.005781834
v -0.004916157 0.92685026 -0.004917124
v 0.0049171164 0.92685026 -0.004917117
v -0.0057808757 0.92685026 -0.0038634639
v 0.005781834 0.92685026 -0.0038634555
v -0.0064234193 0.92685026 -0.0026613516
v 0.0064243763 0.92685026 -0.0026613425
v -0.0068190973 0.92685026 -0.0013569825
v 0.0068200515 0.92685026 -0.0013569745
v -0.0069527016 0.92685026 -4.8418946E-07
v 0.0069536553 0.92685026 -4.7672378E-07
v -0.0068190997 0.92685026 0.0013560146
v 0.006820052 0.92685026 0.001356021
v -0.006423425 0.92685026 0.002660384
v 0.0064243767 0.92685026 0.0026603895
v -0.0057808827 0.92685026 0.0038624983
v 0.005781834 0.92685026 0.0038625028
v -0.004916166 0.92685026 0.0049161604
v 0.0049171173 0.92685026 0.004916164
v -0.0038625055 0.92685026 0.0057808785
v 0.003863456 0.92685026 0.0057808817
v -0.002660392 0.92685026 0.006423421
v 0.0026613425 0.92685026 0.006423425
v -0.0013560235 0.92685026 0.006819099
v 0.0013569734 0.92685026 0.0068190997
v 4.7498597E-07 0.92685026 0.006952703
v -0.0026603804 0.04294398 -0.0064243814
v -0.001356011 0.04294398 -0.006820055
v -0.001356011 0.92685026 -0.006820055
v -0.0026603804 0.92685026 -0.0064243814
v -0.001356011 0.04294398 -0.006820055
v 4.764227E-07 0.04294398 -0.0069536567
v 4.764227E-07 0.92685026 -0.0069536567
v -0.001356011 0.92685026 -0.006820055
v 0.0013569744 0.04294398 -0.006820053
v 4.764227E-07 0.04294398 -0.0069536567
v -0.001356011 0.04294398 -0.006820055
v -0.0026603804 0.04294398 -0.0064243814
v 0.002661343 0.04294398 -0.0064243767
v -0.0038624948 0.04294398 -0.0057818405
v 0.003863456 0.04294398 -0.005781834
v -0.004916157 0.04294398 -0.004917124
v 0.0049171164 0.04294398 -0.004917117
v -0.0057808757 0.04294398 -0.0038634639
v 0.005781834 0.04294398 -0.0038634555
v -0.0064234193 0.04294398 -0.0026613516
v 0.0064243763 0.04294398 -0.0026613425
v -0.0068190973 0.04294398 -0.0013569825
v 0.0068200515 0.04294398 -0.0013569745
v -0.0069527016 0.04294398 -4.8418946E-07
v 0.0069536553 0.04294398 -4.7672378E-07
v -0.0068190997 0.04294398 0.0013560146
v 0.006820052 0.04294398 0.001356021
v -0.006423425 0.04294398 0.002660384
v 0.0064243767 0.04294398 0.0026603895
v -0.0057808827 0.04294398 0.0038624983
v 0.005781834 0.04294398 0.0038625028
v -0.004916166 0.04294398 0.0049161604
v 0.0049171173 0.04294398 0.004916164
v -0.0038625055 0.04294398 0.0057808785
v 0.003863456 0.04294398 0.0057808817
v -0.002660392 0.04294398 0.006423421
v 0.0026613425 0.04294398 0.006423425
v -0.0013560235 0.04294398 0.006819099
v 0.0013569734 0.04294398 0.0068190997
v 4.7498597E-07 0.04294398 0.006952703
vn 0.09801741 0 -0.9951847
vn 0.09801741 0 -0.9951847
vn 0.09801741 0 -0.9951847
vn 0.09801741 0 -0.9951847
vn 0.29028457 0 -0.95694035
vn 0.29028457 0 -0.95694035
vn 0.29028457 0 -0.95694035
vn 0.29028457 0 -0.95694035
vn 0.47139674 0 -0.88192123
vn 0.47139674 0 -0.88192123
vn 0.47139674 0 -0.88192123
vn 0.47139674 0 -0.88192123
vn 0.63439316 0 -0.7730105
vn 0.63439316 0 -0.7730105
vn 0.63439316 0 -0.7730105
vn 0.63439316 0 -0.7730105
vn 0.77301043 0 -0.6343934
vn 0.77301043 0 -0.6343934
vn 0.77301043 0 -0.6343934
vn 0.77301043 0 -0.6343934
vn 0.8819214 0 -0.47139645
vn 0.8819214 0 -0.47139645
vn 0.8819214 0 -0.47139645
vn 0.8819214 0 -0.47139645
vn 0.95694035 0 -0.29028475
vn 0.95694035 0 -0.29028475
vn 0.95694035 0 -0.29028475
vn 0.95694035 0 -0.29028475
vn 0.9951847 0 -0.09801718
vn 0.9951847 0 -0.09801718
vn 0.9951847 0 -0.09801718
vn 0.9951847 0 -0.09801718
vn 0.9951847 0 0.09801676
vn 0.9951847 0 0.09801676
vn 0.9951847 0 0.09801676
vn 0.9951847 0 0.09801676
vn 0.95694035 0 0.29028475
vn 0.95694035 0 0.29028475
vn 0.95694035 0 0.29028475
vn 0.95694035 0 0.29028475
vn 0.8819214 0 0.4713965
vn 0.8819214 0 0.4713965
vn 0.8819214 0 0.4713965
vn 0.8819214 0 0.4713965
vn 0.77301043 0 0.6343934
vn 0.77301043 0 0.6343934
vn 0.77301043 0 0.6343934
vn 0.77301043 0 0.6343934
vn 0.6343932 0 0.7730105
vn 0.6343932 0 0.7730105
vn 0.6343932 0 0.7730105
vn 0.6343932 0 0.7730105
vn 0.47139683 0 0.88192123
vn 0.47139683 0 0.88192123
vn 0.47139683 0 0.88192123
vn 0.47139683 0 0.88192123
vn 0.2902841 0 0.9569405
vn 0.2902841 0 0.9569405
vn 0.2902841 0 0.9569405
vn 0.2902841 0 0.9569405
vn 0.09801699 0 0.9951847
vn 0.09801699 0 0.9951847
vn 0.09801699 0 0.9951847
vn 0.09801699 0 0.9951847
vn -0.09801772 0 0.9951847
vn -0.09801772 0 0.9951847
vn -0.09801772 0 0.9951847
vn -0.09801772 0 0.9951847
vn -0.2902848 0 0.95694023
vn -0.2902848 0 0.95694023
vn -0.2902848 0 0.95694023
vn -0.2902848 0 0.95694023
vn -0.4713973 0 0.88192093
vn -0.4713973 0 0.88192093
vn -0.4713973 0 0.88192093
vn -0.4713973 0 0.88192093
vn -0.6343937 0 0.77301013
vn -0.6343937 0 0.77301013
vn -0.6343937 0 0.77301013
vn -0.6343937 0 0.77301013
vn -0.7730108 0 0.6343928
vn -0.7730108 0 0.6343928
vn -0.7730108 0 0.6343928
vn -0.7730108 0 0.6343928
vn -0.8819217 0 0.471396
vn -0.8819217 0 0.471396
vn -0.8819217 0 0.471396
vn -0.8819217 0 0.471396
vn -0.9569406 0 0.29028377
vn -0.9569406 0 0.29028377
vn -0.9569406 0 0.29028377
vn -0.9569406 0 0.29028377
vn -0.99518484 0 0.098016284
vn -0.99518484 0 0.098016284
vn -0.99518484 0 0.098016284
vn -0.99518484 0 0.098016284
vn -0.9951846 0 -0.09801795
vn -0.9951846 0 -0.09801795
vn -0.9951846 0 -0.09801795
vn -0.9951846 0 -0.09801795
vn -0.95694 0 -0.2902859
vn -0.95694 0 -0.2902859
vn -0.95694 0 -0.2902859
vn -0.95694 0 -0.2902859
vn -0.88192075 0 -0.47139764
vn -0.88192075 0 -0.47139764
vn -0.88192075 0 -0.47139764
vn -0.88192075 0 -0.47139764
vn -0.7730096 0 -0.6343943
vn -0.7730096 0 -0.6343943
vn -0.7730096 0 -0.6343943
vn -0.7730096 0 -0.6343943
vn -0.6343924 0 -0.77301115
vn -0.6343924 0 -0.77301115
vn -0.6343924 0 -0.77301115
vn -0.6343924 0 -0.77301115
vn -0.47139576 0 -0.88192177
vn -0.47139576 0 -0.88192177
vn -0.47139576 0 -0.88192177
vn -0.47139576 0 -0.88192177
vn -0.62511605 -0.70539796 -0.3341312
vn -0.62511605 -0.70539796 -0.3341312
vn -0.62511605 -0.70539796 -0.3341312
vn -0.62511605 -0.70539796 -0.3341312
vn -0.29028302 0 -0.95694077
vn -0.29028302 0 -0.95694077
vn -0.29028302 0 -0.95694077
vn -0.29028302 0 -0.95694077
vn -0.09801639 0 -0.99518484
vn -0.09801639 0 -0.99518484
vn -0.09801639 0 -0.99518484
vn -0.09801639 0 -0.99518484
vn -0.20575693 -0.7053981 0.67829025
vn -0.20575693 -0.7053981 0.67829025
vn -0.20575693 -0.7053981 0.67829025
vn -0.20575693 -0.7053981 0.67829025
vn 0.4496653 -0.7053982 -0.54791844
vn 0.4496653 -0.7053982 -0.54791844
vn 0.4496653 -0.7053982 -0.54791844
vn 0.4496653 -0.7053982 -0.54791844
vn 0.44966492 -0.7053978 0.5479192
vn 0.44966492 -0.7053978 0.5479192
vn 0.44966492 -0.7053978 0.5479192
vn 0.44966492 -0.7053978 0.5479192
vn -0.67829037 -0.7053979 0.20575717
vn -0.67829037 -0.7053979 0.20575717
vn -0.67829037 -0.7053979 0.20575717
vn -0.67829037 -0.7053979 0.20575717
vn -0.06947518 -0.7053982 -0.7053982
vn -0.06947518 -0.7053982 -0.7053982
vn -0.06947518 -0.7053982 -0.7053982
vn -0.06947518 -0.7053982 -0.7053982
vn 0.7053986 -0.70539767 0.069476254
vn 0.7053986 -0.70539767 0.069476254
vn 0.7053986 -0.70539767 0.069476254
vn 0.7053986 -0.70539767 0.069476254
vn -0.33413175 -0.70539755 0.6251162
vn -0.33413175 -0.70539755 0.6251162
vn -0.33413175 -0.70539755 0.6251162
vn -0.33413175 -0.70539755 0.6251162
vn -0.54791856 -0.70539814 -0.44966516
vn -0.54791856 -0.70539814 -0.44966516
vn -0.54791856 -0.70539814 -0.44966516
vn -0.54791856 -0.70539814 -0.44966516
vn 0.5479189 -0.705398 -0.44966483
vn 0.5479189 -0.705398 -0.44966483
vn 0.5479189 -0.705398 -0.44966483
vn 0.5479189 -0.705398 -0.44966483
vn 0.3341308 -0.7053979 0.6251163
vn 0.3341308 -0.7053979 0.6251163
vn 0.3341308 -0.7053979 0.6251163
vn 0.3341308 -0.7053979 0.6251163
vn -0.7053986 -0.7053978 0.069475636
vn -0.7053986 -0.7053978 0.069475636
vn -0.7053986 -0.7053978 0.069475636
vn -0.7053986 -0.7053978 0.069475636
vn 0.069476016 -0.7053975 -0.70539886
vn 0.069476016 -0.7053975 -0.70539886
vn 0.069476016 -0.7053975 -0.70539886
vn 0.069476016 -0.7053975 -0.70539886
vn 0.67828983 -0.7053983 0.20575765
vn 0.67828983 -0.7053983 0.20575765
vn 0.67828983 -0.7053983 0.20575765
vn 0.67828983 -0.7053983 0.20575765
vn -0.44966546 -0.7053976 0.5479189
vn -0.44966546 -0.7053976 0.5479189
vn -0.44966546 -0.7053976 0.5479189
vn -0.44966546 -0.7053976 0.5479189
vn -0.44966507 -0.705398 -0.5479187
vn -0.44966507 -0.705398 -0.5479187
vn -0.44966507 -0.705398 -0.5479187
vn -0.44966507 -0.705398 -0.5479187
vn 0.6251164 -0.7053978 -0.3341309
vn 0.6251164 -0.7053978 -0.3341309
vn 0.6251164 -0.7053978 -0.3341309
vn 0.6251164 -0.7053978 -0.3341309
vn 0.20575574 -0.70539796 0.6782907
vn 0.20575574 -0.70539796 0.6782907
vn 0.20575574 -0.70539796 0.6782907
vn 0.20575574 -0.70539796 0.6782907
vn -0.7053981 -0.70539826 -0.06947567
vn -0.7053981 -0.70539826 -0.06947567
vn -0.7053981 -0.70539826 -0.06947567
vn -0.7053981 -0.70539826 -0.06947567
vn 0.20575719 -0.70539874 -0.6782896
vn 0.20575719 -0.70539874 -0.6782896
vn 0.20575719 -0.70539874 -0.6782896
vn 0.20575719 -0.70539874 -0.6782896
vn 0.6251159 -0.7053976 0.33413205
vn 0.6251159 -0.7053976 0.33413205
vn 0.6251159 -0.7053976 0.33413205
vn 0.6251159 -0.7053976 0.33413205
vn -0.54791856 -0.70539814 0.44966516
vn -0.54791856 -0.70539814 0.44966516
vn -0.54791856 -0.70539814 0.44966516
vn -0.54791856 -0.70539814 0.44966516
vn -0.33413145 -0.7053979 -0.62511605
vn -0.33413145 -0.7053979 -0.62511605
vn -0.33413145 -0.7053979 -0.62511605
vn -0.33413145 -0.7053979 -0.62511605
vn 0.67829096 -0.7053976 -0.20575614
vn 0.67829096 -0.7053976 -0.20575614
vn 0.67829096 -0.7053976 -0.20575614
vn 0.67829096 -0.7053976 -0.20575614
vn -0.06947564 -0.7053978 0.70539844
vn -0.06947564 -0.7053978 0.70539844
vn -0.06947564 -0.7053978 0.70539844
vn -0.06947564 -0.7053978 0.70539844
vn 0.06947517 -0.705398 0.7053984
vn 0.06947517 -0.705398 0.7053984
vn 0.06947517 -0.705398 0.7053984
vn 0.06947517 -0.705398 0.7053984
vn -0.6782905 -0.70539784 -0.20575696
vn -0.6782905 -0.70539784 -0.20575696
vn -0.6782905 -0.70539784 -0.20575696
vn -0.6782905 -0.70539784 -0.20575696
vn 0.33413166 -0.7053982 -0.62511545
vn 0.33413166 -0.7053982 -0.62511545
vn 0.33413166 -0.7053982 -0.62511545
vn 0.33413166 -0.7053982 -0.62511545
vn 0.54791784 -0.7053982 0.44966596
vn 0.54791784 -0.7053982 0.44966596
vn 0.54791784 -0.7053982 0.44966596
vn 0.54791784 -0.7053982 0.44966596
vn -0.62511575 -0.7053982 0.33413133
vn -0.62511575 -0.7053982 0.33413133
vn -0.62511575 -0.7053982 0.33413133
vn -0.62511575 -0.7053982 0.33413133
vn -0.20575657 -0.7053976 -0.6782907
vn -0.20575657 -0.7053976 -0.6782907
vn -0.20575657 -0.7053976 -0.6782907
vn -0.20575657 -0.7053976 -0.6782907
vn 0.7053984 -0.705398 -0.06947514
vn 0.7053984 -0.705398 -0.06947514
vn 0.7053984 -0.705398 -0.06947514
vn 0.7053984 -0.705398 -0.06947514
vn 0.6343924 0 0.77301115
vn 0.6343924 0 0.77301115
vn 0.6343924 0 0.77301115
vn 0.6343924 0 0.77301115
vn -0.098016694 0 -0.99518484
vn -0.098016694 0 -0.99518484
vn -0.098016694 0 -0.99518484
vn -0.098016694 0 -0.99518484
vn -0.47139633 0 0.88192147
vn -0.47139633 0 0.88192147
vn -0.47139633 0 0.88192147
vn -0.47139633 0 0.88192147
vn 0.47139543 0 0.88192195
vn 0.47139543 0 0.88192195
vn 0.47139543 0 0.88192195
vn 0.47139543 0 0.88192195
vn 0.47139543 0 0.88192195
vn 0.47139543 0 0.88192195
vn 0.098017454 0 -0.9951847
vn 0.098017454 0 -0.9951847
vn 0.098017454 0 -0.9951847
vn 0.098017454 0 -0.9951847
vn -0.63439345 0 0.7730104
vn -0.63439345 0 0.7730104
vn -0.63439345 0 0.7730104
vn -0.63439345 0 0.7730104
vn 0.29028308 0 0.95694077
vn 0.29028308 0 0.95694077
vn 0.29028308 0 0.95694077
vn 0.29028308 0 0.95694077
vn 0.29028508 0 -0.9569401
vn 0.29028508 0 -0.9569401
vn 0.29028508 0 -0.9569401
vn 0.29028508 0 -0.9569401
vn -0.77301055 0 0.6343931
vn -0.77301055 0 0.6343931
vn -0.77301055 0 0.6343931
vn -0.77301055 0 0.6343931
vn 0.09801632 0 0.99518484
vn 0.09801632 0 0.99518484
vn 0.09801632 0 0.99518484
vn 0.09801632 0 0.99518484
vn 0.47139728 0 -0.88192105
vn 0.47139728 0 -0.88192105
vn 0.47139728 0 -0.88192105
vn 0.47139728 0 -0.88192105
vn -0.8819214 0 0.47139645
vn -0.8819214 0 0.47139645
vn -0.8819214 0 0.47139645
vn -0.8819214 0 0.47139645
vn 0.63439363 0 -0.77301013
vn 0.63439363 0 -0.77301013
vn 0.63439363 0 -0.77301013
vn 0.63439363 0 -0.77301013
vn -0.95694023 0 0.2902848
vn -0.95694023 0 0.2902848
vn -0.95694023 0 0.2902848
vn -0.95694023 0 0.2902848
vn 0.7730108 0 -0.6343929
vn 0.7730108 0 -0.6343929
vn 0.7730108 0 -0.6343929
vn 0.7730108 0 -0.6343929
vn -0.9951847 0 0.09801753
vn -0.9951847 0 0.09801753
vn -0.9951847 0 0.09801753
vn -0.9951847 0 0.09801753
vn 0.8819217 0 -0.47139588
vn 0.8819217 0 -0.47139588
vn 0.8819217 0 -0.47139588
vn 0.8819217 0 -0.47139588
vn -0.9951847 0 -0.09801702
vn -0.9951847 0 -0.09801702
vn -0.9951847 0 -0.09801702
vn -0.9951847 0 -0.09801702
vn 0.9569405 0 -0.29028422
vn 0.9569405 0 -0.29028422
vn 0.9569405 0 -0.29028422
vn 0.9569405 0 -0.29028422
vn -0.95694023 0 -0.29028484
vn -0.95694023 0 -0.29028484
vn -0.95694023 0 -0.29028484
vn -0.95694023 0 -0.29028484
vn 0.99518484 0 -0.09801599
vn 0.99518484 0 -0.09801599
vn 0.99518484 0 -0.09801599
vn 0.99518484 0 -0.09801599
vn -0.8819214 0 -0.47139642
vn -0.8819214 0 -0.47139642
vn -0.8819214 0 -0.47139642
vn -0.8819214 0 -0.47139642
vn 0.9951846 0 0.09801845
vn 0.9951846 0 0.09801845
vn 0.9951846 0 0.09801845
vn 0.9951846 0 0.09801845
vn -0.77301055 0 -0.6343931
vn -0.77301055 0 -0.6343931
vn -0.77301055 0 -0.6343931
vn -0.77301055 0 -0.6343931
vn 0.95694 0 0.29028562
vn 0.95694 0 0.29028562
vn 0.95694 0 0.29028562
vn 0.95694 0 0.29028562
vn -0.63439316 0 -0.7730105
vn -0.63439316 0 -0.7730105
vn -0.63439316 0 -0.7730105
vn -0.63439316 0 -0.7730105
vn 0.88192075 0 0.47139758
vn 0.88192075 0 0.47139758
vn 0.88192075 0 0.47139758
vn 0.88192075 0 0.47139758
vn -0.47139674 0 -0.88192123
vn -0.47139674 0 -0.88192123
vn -0.47139674 0 -0.88192123
vn -0.47139674 0 -0.88192123
vn -0.0980171 0 0.9951847
vn -0.0980171 0 0.9951847
vn -0.0980171 0 0.9951847
vn -0.0980171 0 0.9951847
vn 0.7730096 0 0.6343943
vn 0.7730096 0 0.6343943
vn 0.7730096 0 0.6343943
vn 0.7730096 0 0.6343943
vn -0.2902843 0 -0.9569405
vn -0.2902843 0 -0.9569405
vn -0.2902843 0 -0.9569405
vn -0.2902843 0 -0.9569405
vn -0.29028475 0 0.95694023
vn -0.29028475 0 0.95694023
vn -0.29028475 0 0.95694023
vn -0.29028475 0 0.95694023
vn -0.3144507 0.8685102 0.38315904
vn -0.3144507 0.8685102 0.38315904
vn -0.3144507 0.8685102 0.38315904
vn -0.3144507 0.8685102 0.38315904
vn -0.2336582 0.86851025 0.4371427
vn -0.2336582 0.86851025 0.4371427
vn -0.2336582 0.86851025 0.4371427
vn -0.2336582 0.86851025 0.4371427
vn 0.02102092 0.99928397 -0.031460527
vn 0.02102092 0.99928397 -0.031460527
vn 0.02102092 0.99928397 -0.031460527
vn 0.02102092 0.99928397 -0.031460527
vn 0.02102092 0.99928397 -0.031460527
vn 0.02102092 0.99928397 -0.031460527
vn 0.02102092 0.99928397 -0.031460527
vn 0.02102092 0.99928397 -0.031460527
vn 0.02102092 0.99928397 -0.031460527
vn 0.02102092 0.99928397 -0.031460527
vn 0.02102092 0.99928397 -0.031460527
vn 0.02102092 0.99928397 -0.031460527
vn 0.02102092 0.99928397 -0.031460527
vn 0.02102092 0.99928397 -0.031460527
vn 0.02102092 0.99928397 -0.031460527
vn 0.02102092 0.99928397 -0.031460527
vn 0.02102092 0.99928397 -0.031460527
vn 0.02102092 0.99928397 -0.031460527
vn 0.02102092 0.99928397 -0.031460527
vn 0.02102092 0.99928397 -0.031460527
vn 0.02102092 0.99928397 -0.031460527
vn 0.02102092 0.99928397 -0.031460527
vn 0.02102092 0.99928397 -0.031460527
vn 0.02102092 0.99928397 -0.031460527
vn 0.02102092 0.99928397 -0.031460527
vn 0.02102092 0.99928397 -0.031460527
vn 0.02102092 0.99928397 -0.031460527
vn 0.02102092 0.99928397 -0.031460527
vn 0.02102092 0.99928397 -0.031460527
vn 0.02102092 0.99928397 -0.031460527
vn 0.02102092 0.99928397 -0.031460527
vn 0.02102092 0.99928397 -0.031460527
vn 0.02102092 0.99928397 -0.031460527
vn 0.02102092 0.99928397 -0.031460527
vn 0.02102092 0.99928397 -0.031460527
vn 0.02102092 0.99928397 -0.031460527
vn 0.02102092 0.99928397 -0.031460527
vn 0.02102092 0.99928397 -0.031460527
vn 0.02102092 0.99928397 -0.031460527
vn 0.02102092 0.99928397 -0.031460527
vn 0.02102092 0.99928397 -0.031460527
vn 0.02102092 0.99928397 -0.031460527
vn 0.02102092 0.99928397 -0.031460527
vn 0.02102092 0.99928397 -0.031460527
vn 0.02102092 0.99928397 -0.031460527
vn 0.02102092 0.99928397 -0.031460527
vn 0.02102092 0.99928397 -0.031460527
vn 0.02102092 0.99928397 -0.031460527
vn 0.02102092 0.99928397 -0.031460527
vn 0.02102092 0.99928397 -0.031460527
vn 0.02102092 0.99928397 -0.031460527
vn 0.02102092 0.99928397 -0.031460527
vn 0.02102092 0.99928397 -0.031460527
vn 0.02102092 0.99928397 -0.031460527
vn 0.02102092 0.99928397 -0.031460527
vn 0.02102092 0.99928397 -0.031460527
vn 0.02102092 0.99928397 -0.031460527
vn 0.02102092 0.99928397 -0.031460527
vn 0.02102092 0.99928397 -0.031460527
vn 0.02102092 0.99928397 -0.031460527
vn 0.02102092 0.99928397 -0.031460527
vn 0.02102092 0.99928397 -0.031460527
vn 0.02102092 0.99928397 -0.031460527
vn 0.02102092 0.99928397 -0.031460527
vn 0.02102092 0.99928397 -0.031460527
vn 0.02102092 0.99928397 -0.031460527
vn 0.02102092 0.99928397 -0.031460527
vn 0.02102092 0.99928397 -0.031460527
vn 0.02102092 0.99928397 -0.031460527
vn 0.02102092 0.99928397 -0.031460527
vn 0.02102092 0.99928397 -0.031460527
vn 0.02102092 0.99928397 -0.031460527
vn 0.02102092 0.99928397 -0.031460527
vn 0.02102092 0.99928397 -0.031460527
vn 0.02102092 0.99928397 -0.031460527
vn 0.09801744 0 -0.9951847
vn 0.09801744 0 -0.9951847
vn 0.09801744 0 -0.9951847
vn 0.09801744 0 -0.9951847
vn 0.29028475 0 -0.95694023
vn 0.29028475 0 -0.95694023
vn 0.29028475 0 -0.95694023
vn 0.29028475 0 -0.95694023
vn 0.4713967 0 -0.8819213
vn 0.4713967 0 -0.8819213
vn 0.4713967 0 -0.8819213
vn 0.4713967 0 -0.8819213
vn 0.63439345 0 -0.7730104
vn 0.63439345 0 -0.7730104
vn 0.63439345 0 -0.7730104
vn 0.63439345 0 -0.7730104
vn 0.7730103 0 -0.63439345
vn 0.7730103 0 -0.63439345
vn 0.7730103 0 -0.63439345
vn 0.7730103 0 -0.63439345
vn 0.8819214 0 -0.47139642
vn 0.8819214 0 -0.47139642
vn 0.8819214 0 -0.47139642
vn 0.8819214 0 -0.47139642
vn 0.95694035 0 -0.29028443
vn 0.95694035 0 -0.29028443
vn 0.95694035 0 -0.29028443
vn 0.95694035 0 -0.29028443
vn 0.9951847 0 -0.098017715
vn 0.9951847 0 -0.098017715
vn 0.9951847 0 -0.098017715
vn 0.9951847 0 -0.098017715
vn 0.9951847 0 0.09801733
vn 0.9951847 0 0.09801733
vn 0.9951847 0 0.09801733
vn 0.9951847 0 0.09801733
vn 0.9569405 0 0.2902844
vn 0.9569405 0 0.2902844
vn 0.9569405 0 0.2902844
vn 0.9569405 0 0.2902844
vn 0.8819214 0 0.4713965
vn 0.8819214 0 0.4713965
vn 0.8819214 0 0.4713965
vn 0.8819214 0 0.4713965
vn 0.7730105 0 0.6343932
vn 0.7730105 0 0.6343932
vn 0.7730105 0 0.6343932
vn 0.7730105 0 0.6343932
vn 0.63439345 0 0.7730103
vn 0.63439345 0 0.7730103
vn 0.63439345 0 0.7730103
vn 0.63439345 0 0.7730103
vn 0.4713969 0 0.88192123
vn 0.4713969 0 0.88192123
vn 0.4713969 0 0.88192123
vn 0.4713969 0 0.88192123
vn 0.29028377 0 0.9569406
vn 0.29028377 0 0.9569406
vn 0.29028377 0 0.9569406
vn 0.29028377 0 0.9569406
vn 0.098017074 0 0.9951847
vn 0.098017074 0 0.9951847
vn 0.098017074 0 0.9951847
vn 0.098017074 0 0.9951847
vn -0.09801741 0 0.9951847
vn -0.09801741 0 0.9951847
vn -0.09801741 0 0.9951847
vn -0.09801741 0 0.9951847
vn -0.29028574 0 0.95694
vn -0.29028574 0 0.95694
vn -0.29028574 0 0.95694
vn -0.29028574 0 0.95694
vn -0.4713969 0 0.88192123
vn -0.4713969 0 0.88192123
vn -0.4713969 0 0.88192123
vn -0.4713969 0 0.88192123
vn -0.6343938 0 0.77301
vn -0.6343938 0 0.77301
vn -0.6343938 0 0.77301
vn -0.6343938 0 0.77301
vn -0.7730108 0 0.6343929
vn -0.7730108 0 0.6343929
vn -0.7730108 0 0.6343929
vn -0.7730108 0 0.6343929
vn -0.8819219 0 0.4713956
vn -0.8819219 0 0.4713956
vn -0.8819219 0 0.4713956
vn -0.8819219 0 0.4713956
vn -0.9569406 0 0.29028392
vn -0.9569406 0 0.29028392
vn -0.9569406 0 0.29028392
vn -0.9569406 0 0.29028392
vn -0.99518484 0 0.098016486
vn -0.99518484 0 0.098016486
vn -0.99518484 0 0.098016486
vn -0.99518484 0 0.098016486
vn -0.9951846 0 -0.09801842
vn -0.9951846 0 -0.09801842
vn -0.9951846 0 -0.09801842
vn -0.9951846 0 -0.09801842
vn -0.95694 0 -0.2902857
vn -0.95694 0 -0.2902857
vn -0.95694 0 -0.2902857
vn -0.95694 0 -0.2902857
vn -0.88192093 0 -0.47139746
vn -0.88192093 0 -0.47139746
vn -0.88192093 0 -0.47139746
vn -0.88192093 0 -0.47139746
vn -0.77300954 0 -0.63439447
vn -0.77300954 0 -0.63439447
vn -0.77300954 0 -0.63439447
vn -0.77300954 0 -0.63439447
vn -0.6343926 0 -0.7730111
vn -0.6343926 0 -0.7730111
vn -0.6343926 0 -0.7730111
vn -0.6343926 0 -0.7730111
vn -0.4713955 0 -0.88192195
vn -0.4713955 0 -0.88192195
vn -0.4713955 0 -0.88192195
vn -0.4713955 0 -0.88192195
vn -8.099849E-06 1 0
vn -8.099849E-06 1 0
vn -8.099849E-06 1 0
vn -8.099849E-06 1 0
vn -8.099849E-06 1 0
vn -8.099849E-06 1 0
vn -8.099849E-06 1 0
vn -8.099849E-06 1 0
vn -8.099849E-06 1 0
vn -8.099849E-06 1 0
vn -8.099849E-06 1 0
vn -8.099849E-06 1 0
vn -8.099849E-06 1 0
vn -8.099849E-06 1 0
vn -8.099849E-06 1 0
vn -8.099849E-06 1 0
vn -8.099849E-06 1 0
vn -8.099849E-06 1 0
vn -8.099849E-06 1 0
vn -8.099849E-06 1 0
vn -8.099849E-06 1 0
vn -8.099849E-06 1 0
vn -8.099849E-06 1 0
vn -8.099849E-06 1 0
vn -8.099849E-06 1 0
vn -8.099849E-06 1 0
vn -8.099849E-06 1 0
vn -8.099849E-06 1 0
vn -8.099849E-06 1 0
vn -8.099849E-06 1 0
vn -8.099849E-06 1 0
vn -8.099849E-06 1 0
vn -0.29028276 0 -0.9569409
vn -0.29028276 0 -0.9569409
vn -0.29028276 0 -0.9569409
vn -0.29028276 0 -0.9569409
vn -0.098016515 0 -0.99518484
vn -0.098016515 0 -0.99518484
vn -0.098016515 0 -0.99518484
vn -0.098016515 0 -0.99518484
vn -3.1338695E-07 -1 0
vn -3.1338695E-07 -1 0
vn -3.1338695E-07 -1 0
vn -3.1338695E-07 -1 0
vn -3.1338695E-07 -1 0
vn -3.1338695E-07 -1 0
vn -3.1338695E-07 -1 0
vn -3.1338695E-07 -1 0
vn -3.1338695E-07 -1 0
vn -3.1338695E-07 -1 0
vn -3.1338695E-07 -1 0
vn -3.1338695E-07 -1 0
vn -3.1338695E-07 -1 0
vn -3.1338695E-07 -1 0
vn -3.1338695E-07 -1 0
vn -3.1338695E-07 -1 0
vn -3.1338695E-07 -1 0
vn -3.1338695E-07 -1 0
vn -3.1338695E-07 -1 0
vn -3.1338695E-07 -1 0
vn -3.1338695E-07 -1 0
vn -3.1338695E-07 -1 0
vn -3.1338695E-07 -1 0
vn -3.1338695E-07 -1 0
vn -3.1338695E-07 -1 0
vn -3.1338695E-07 -1 0
vn -3.1338695E-07 -1 0
vn -3.1338695E-07 -1 0
vn -3.1338695E-07 -1 0
vn -3.1338695E-07 -1 0
vn -3.1338695E-07 -1 0
vn -3.1338695E-07 -1 0
g DinnertableLamp_0
f 3/3/3 2/2/2 1/1/1
f 4/4/4 3/3/3 1/1/1
f 7/7/7 6/6/6 5/5/5
f 8/8/8 7/7/7 5/5/5
f 11/11/11 10/10/10 9/9/9
f 12/12/12 11/11/11 9/9/9
f 15/15/15 14/14/14 13/13/13
f 16/16/16 15/15/15 13/13/13
f 19/19/19 18/18/18 17/17/17
f 20/20/20 19/19/19 17/17/17
f 23/23/23 22/22/22 21/21/21
f 24/24/24 23/23/23 21/21/21
f 27/27/27 26/26/26 25/25/25
f 28/28/28 27/27/27 25/25/25
f 31/31/31 30/30/30 29/29/29
f 32/32/32 31/31/31 29/29/29
f 35/35/35 34/34/34 33/33/33
f 36/36/36 35/35/35 33/33/33
f 39/39/39 38/38/38 37/37/37
f 40/40/40 39/39/39 37/37/37
f 43/43/43 42/42/42 41/41/41
f 44/44/44 43/43/43 41/41/41
f 47/47/47 46/46/46 45/45/45
f 48/48/48 47/47/47 45/45/45
f 51/51/51 50/50/50 49/49/49
f 52/52/52 51/51/51 49/49/49
f 55/55/55 54/54/54 53/53/53
f 56/56/56 55/55/55 53/53/53
f 59/59/59 58/58/58 57/57/57
f 60/60/60 59/59/59 57/57/57
f 63/63/63 62/62/62 61/61/61
f 64/64/64 63/63/63 61/61/61
f 67/67/67 66/66/66 65/65/65
f 68/68/68 67/67/67 65/65/65
f 71/71/71 70/70/70 69/69/69
f 72/72/72 71/71/71 69/69/69
f 75/75/75 74/74/74 73/73/73
f 76/76/76 75/75/75 73/73/73
f 79/79/79 78/78/78 77/77/77
f 80/80/80 79/79/79 77/77/77
f 83/83/83 82/82/82 81/81/81
f 84/84/84 83/83/83 81/81/81
f 87/87/87 86/86/86 85/85/85
f 88/88/88 87/87/87 85/85/85
f 91/91/91 90/90/90 89/89/89
f 92/92/92 91/91/91 89/89/89
f 95/95/95 94/94/94 93/93/93
f 96/96/96 95/95/95 93/93/93
f 99/99/99 98/98/98 97/97/97
f 100/100/100 99/99/99 97/97/97
f 103/103/103 102/102/102 101/101/101
f 104/104/104 103/103/103 101/101/101
f 107/107/107 106/106/106 105/105/105
f 108/108/108 107/107/107 105/105/105
f 111/111/111 110/110/110 109/109/109
f 112/112/112 111/111/111 109/109/109
f 115/115/115 114/114/114 113/113/113
f 116/116/116 115/115/115 113/113/113
f 119/119/119 118/118/118 117/117/117
f 120/120/120 119/119/119 117/117/117
f 123/123/123 122/122/122 121/121/121
f 124/124/124 123/123/123 121/121/121
f 127/127/127 126/126/126 125/125/125
f 128/128/128 127/127/127 125/125/125
f 131/131/131 130/130/130 129/129/129
f 132/132/132 131/131/131 129/129/129
f 135/135/135 134/134/134 133/133/133
f 136/136/136 135/135/135 133/133/133
f 139/139/139 138/138/138 137/137/137
f 140/140/140 139/139/139 137/137/137
f 143/143/143 142/142/142 141/141/141
f 144/144/144 143/143/143 141/141/141
f 147/147/147 146/146/146 145/145/145
f 148/148/148 147/147/147 145/145/145
f 151/151/151 150/150/150 149/149/149
f 152/152/152 151/151/151 149/149/149
f 155/155/155 154/154/154 153/153/153
f 156/156/156 155/155/155 153/153/153
f 159/159/159 158/158/158 157/157/157
f 160/160/160 159/159/159 157/157/157
f 163/163/163 162/162/162 161/161/161
f 164/164/164 163/163/163 161/161/161
f 167/167/167 166/166/166 165/165/165
f 168/168/168 167/167/167 165/165/165
f 171/171/171 170/170/170 169/169/169
f 172/172/172 171/171/171 169/169/169
f 175/175/175 174/174/174 173/173/173
f 176/176/176 175/175/175 173/173/173
f 179/179/179 178/178/178 177/177/177
f 180/180/180 179/179/179 177/177/177
f 183/183/183 182/182/182 181/181/181
f 184/184/184 183/183/183 181/181/181
f 187/187/187 186/186/186 185/185/185
f 188/188/188 187/187/187 185/185/185
f 191/191/191 190/190/190 189/189/189
f 192/192/192 191/191/191 189/189/189
f 195/195/195 194/194/194 193/193/193
f 196/196/196 195/195/195 193/193/193
f 199/199/199 198/198/198 197/197/197
f 200/200/200 199/199/199 197/197/197
f 203/203/203 202/202/202 201/201/201
f 204/204/204 203/203/203 201/201/201
f 207/207/207 206/206/206 205/205/205
f 208/208/208 207/207/207 205/205/205
f 211/211/211 210/210/210 209/209/209
f 212/212/212 211/211/211 209/209/209
f 215/215/215 214/214/214 213/213/213
f 216/216/216 215/215/215 213/213/213
f 219/219/219 218/218/218 217/217/217
f 220/220/220 219/219/219 217/217/217
f 223/223/223 222/222/222 221/221/221
f 224/224/224 223/223/223 221/221/221
f 227/227/227 226/226/226 225/225/225
f 228/228/228 227/227/227 225/225/225
f 231/231/231 230/230/230 229/229/229
f 232/232/232 231/231/231 229/229/229
f 235/235/235 234/234/234 233/233/233
f 236/236/236 235/235/235 233/233/233
f 239/239/239 238/238/238 237/237/237
f 240/240/240 239/239/239 237/237/237
f 243/243/243 242/242/242 241/241/241
f 244/244/244 243/243/243 241/241/241
f 247/247/247 246/246/246 245/245/245
f 248/248/248 247/247/247 245/245/245
f 251/251/251 250/250/250 249/249/249
f 252/252/252 251/251/251 249/249/249
f 255/255/255 254/254/254 253/253/253
f 256/256/256 255/255/255 253/253/253
f 259/259/259 258/258/258 257/257/257
f 260/260/260 259/259/259 257/257/257
f 263/263/263 262/262/262 261/261/261
f 264/264/264 263/263/263 261/261/261
f 267/267/267 266/266/266 265/265/265
f 268/268/268 267/267/267 265/265/265
f 271/271/271 270/270/270 269/269/269
f 274/274/274 273/273/273 272/272/272
f 277/277/277 276/276/276 275/275/275
f 278/278/278 277/277/277 275/275/275
f 281/281/281 280/280/280 279/279/279
f 282/282/282 281/281/281 279/279/279
f 285/285/285 284/284/284 283/283/283
f 286/286/286 285/285/285 283/283/283
f 289/289/289 288/288/288 287/287/287
f 290/290/290 289/289/289 287/287/287
f 293/293/293 292/292/292 291/291/291
f 294/294/294 293/293/293 291/291/291
f 297/297/297 296/296/296 295/295/295
f 298/298/298 297/297/297 295/295/295
f 301/301/301 300/300/300 299/299/299
f 302/302/302 301/301/301 299/299/299
f 305/305/305 304/304/304 303/303/303
f 306/306/306 305/305/305 303/303/303
f 309/309/309 308/308/308 307/307/307
f 310/310/310 309/309/309 307/307/307
f 313/313/313 312/312/312 311/311/311
f 314/314/314 313/313/313 311/311/311
f 317/317/317 316/316/316 315/315/315
f 318/318/318 317/317/317 315/315/315
f 321/321/321 320/320/320 319/319/319
f 322/322/322 321/321/321 319/319/319
f 325/325/325 324/324/324 323/323/323
f 326/326/326 325/325/325 323/323/323
f 329/329/329 328/328/328 327/327/327
f 330/330/330 329/329/329 327/327/327
f 333/333/333 332/332/332 331/331/331
f 334/334/334 333/333/333 331/331/331
f 337/337/337 336/336/336 335/335/335
f 338/338/338 337/337/337 335/335/335
f 341/341/341 340/340/340 339/339/339
f 342/342/342 341/341/341 339/339/339
f 345/345/345 344/344/344 343/343/343
f 346/346/346 345/345/345 343/343/343
f 349/349/349 348/348/348 347/347/347
f 350/350/350 349/349/349 347/347/347
f 353/353/353 352/352/352 351/351/351
f 354/354/354 353/353/353 351/351/351
f 357/357/357 356/356/356 355/355/355
f 358/358/358 357/357/357 355/355/355
f 361/361/361 360/360/360 359/359/359
f 362/362/362 361/361/361 359/359/359
f 365/365/365 364/364/364 363/363/363
f 366/366/366 365/365/365 363/363/363
f 369/369/369 368/368/368 367/367/367
f 370/370/370 369/369/369 367/367/367
f 373/373/373 372/372/372 371/371/371
f 374/374/374 373/373/373 371/371/371
f 377/377/377 376/376/376 375/375/375
f 378/378/378 377/377/377 375/375/375
f 381/381/381 380/380/380 379/379/379
f 382/382/382 381/381/381 379/379/379
f 385/385/385 384/384/384 383/383/383
f 386/386/386 385/385/385 383/383/383
f 389/389/389 388/388/388 387/387/387
f 390/390/390 389/389/389 387/387/387
f 393/393/393 392/392/392 391/391/391
f 394/394/394 393/393/393 391/391/391
f 397/397/397 396/396/396 395/395/395
f 395/395/395 398/398/398 397/397/397
f 398/398/398 399/399/399 397/397/397
f 402/402/402 401/401/401 400/400/400
f 402/402/402 403/403/403 401/401/401
f 400/400/400 401/401/401 404/404/404
f 404/404/404 405/405/405 400/400/400
f 408/408/408 407/407/407 406/406/406
f 407/407/407 409/409/409 406/406/406
f 407/407/407 410/410/410 409/409/409
f 407/407/407 411/411/411 410/410/410
f 411/411/411 412/412/412 410/410/410
f 411/411/411 413/413/413 412/412/412
f 413/413/413 414/414/414 412/412/412
f 413/413/413 415/415/415 414/414/414
f 415/415/415 416/416/416 414/414/414
f 415/415/415 417/417/417 416/416/416
f 417/417/417 418/418/418 416/416/416
f 417/417/417 419/419/419 418/418/418
f 419/419/419 420/420/420 418/418/418
f 419/419/419 421/421/421 420/420/420
f 421/421/421 422/422/422 420/420/420
f 421/421/421 423/423/423 422/422/422
f 421/421/421 424/424/424 423/423/423
f 424/424/424 425/425/425 423/423/423
f 424/424/424 426/426/426 425/425/425
f 426/426/426 427/427/427 425/425/425
f 426/426/426 428/428/428 427/427/427
f 428/428/428 429/429/429 427/427/427
f 428/428/428 430/430/430 429/429/429
f 430/430/430 431/431/431 429/429/429
f 430/430/430 432/432/432 431/431/431
f 432/432/432 433/433/433 431/431/431
f 436/436/436 435/435/435 434/434/434
f 438/438/438 435/435/435 437/437/437
f 441/441/441 440/440/440 439/439/439
f 439/439/439 442/442/442 441/441/441
f 442/442/442 443/443/443 441/441/441
f 442/442/442 444/444/444 443/443/443
f 444/444/444 445/445/445 443/443/443
f 444/444/444 446/446/446 445/445/445
f 446/446/446 447/447/447 445/445/445
f 446/446/446 448/448/448 447/447/447
f 448/448/448 449/449/449 447/447/447
f 448/448/448 450/450/450 449/449/449
f 450/450/450 451/451/451 449/449/449
f 451/451/451 452/452/452 449/449/449
f 451/451/451 453/453/453 452/452/452
f 453/453/453 454/454/454 452/452/452
f 453/453/453 455/455/455 454/454/454
f 455/455/455 456/456/456 454/454/454
f 455/455/455 457/457/457 456/456/456
f 457/457/457 458/458/458 456/456/456
f 457/457/457 459/459/459 458/458/458
f 459/459/459 460/460/460 458/458/458
f 459/459/459 461/461/461 460/460/460
f 464/464/464 463/463/463 462/462/462
f 467/467/467 466/466/466 465/465/465
f 466/466/466 468/468/468 465/465/465
f 466/466/466 469/469/469 468/468/468
f 472/472/472 471/471/471 470/470/470
f 473/473/473 472/472/472 470/470/470
f 476/476/476 475/475/475 474/474/474
f 477/477/477 476/476/476 474/474/474
f 480/480/480 479/479/479 478/478/478
f 481/481/481 480/480/480 478/478/478
f 484/484/484 483/483/483 482/482/482
f 485/485/485 484/484/484 482/482/482
f 488/488/488 487/487/487 486/486/486
f 489/489/489 488/488/488 486/486/486
f 492/492/492 491/491/491 490/490/490
f 493/493/493 492/492/492 490/490/490
f 496/496/496 495/495/495 494/494/494
f 497/497/497 496/496/496 494/494/494
f 500/500/500 499/499/499 498/498/498
f 501/501/501 500/500/500 498/498/498
f 504/504/504 503/503/503 502/502/502
f 505/505/505 504/504/504 502/502/502
f 508/508/508 507/507/507 506/506/506
f 509/509/509 508/508/508 506/506/506
f 512/512/512 511/511/511 510/510/510
f 513/513/513 512/512/512 510/510/510
f 516/516/516 515/515/515 514/514/514
f 517/517/517 516/516/516 514/514/514
f 520/520/520 519/519/519 518/518/518
f 521/521/521 520/520/520 518/518/518
f 524/524/524 523/523/523 522/522/522
f 525/525/525 524/524/524 522/522/522
f 528/528/528 527/527/527 526/526/526
f 529/529/529 528/528/528 526/526/526
f 532/532/532 531/531/531 530/530/530
f 533/533/533 532/532/532 530/530/530
f 536/536/536 535/535/535 534/534/534
f 537/537/537 536/536/536 534/534/534
f 540/540/540 539/539/539 538/538/538
f 541/541/541 540/540/540 538/538/538
f 544/544/544 543/543/543 542/542/542
f 545/545/545 544/544/544 542/542/542
f 548/548/548 547/547/547 546/546/546
f 549/549/549 548/548/548 546/546/546
f 552/552/552 551/551/551 550/550/550
f 553/553/553 552/552/552 550/550/550
f 556/556/556 555/555/555 554/554/554
f 557/557/557 556/556/556 554/554/554
f 560/560/560 559/559/559 558/558/558
f 561/561/561 560/560/560 558/558/558
f 564/564/564 563/563/563 562/562/562
f 565/565/565 564/564/564 562/562/562
f 568/568/568 567/567/567 566/566/566
f 569/569/569 568/568/568 566/566/566
f 572/572/572 571/571/571 570/570/570
f 573/573/573 572/572/572 570/570/570
f 576/576/576 575/575/575 574/574/574
f 577/577/577 576/576/576 574/574/574
f 580/580/580 579/579/579 578/578/578
f 581/581/581 580/580/580 578/578/578
f 584/584/584 583/583/583 582/582/582
f 585/585/585 584/584/584 582/582/582
f 588/588/588 587/587/587 586/586/586
f 589/589/589 588/588/588 586/586/586
f 592/592/592 591/591/591 590/590/590
f 590/590/590 593/593/593 592/592/592
f 593/593/593 594/594/594 592/592/592
f 593/593/593 595/595/595 594/594/594
f 595/595/595 596/596/596 594/594/594
f 595/595/595 597/597/597 596/596/596
f 597/597/597 598/598/598 596/596/596
f 597/597/597 599/599/599 598/598/598
f 599/599/599 600/600/600 598/598/598
f 599/599/599 601/601/601 600/600/600
f 601/601/601 602/602/602 600/600/600
f 601/601/601 603/603/603 602/602/602
f 603/603/603 604/604/604 602/602/602
f 603/603/603 605/605/605 604/604/604
f 605/605/605 606/606/606 604/604/604
f 605/605/605 607/607/607 606/606/606
f 607/607/607 608/608/608 606/606/606
f 607/607/607 609/609/609 608/608/608
f 609/609/609 610/610/610 608/608/608
f 609/609/609 611/611/611 610/610/610
f 611/611/611 612/612/612 610/610/610
f 611/611/611 613/613/613 612/612/612
f 613/613/613 614/614/614 612/612/612
f 613/613/613 615/615/615 614/614/614
f 615/615/615 616/616/616 614/614/614
f 615/615/615 617/617/617 616/616/616
f 617/617/617 618/618/618 616/616/616
f 617/617/617 619/619/619 618/618/618
f 619/619/619 620/620/620 618/618/618
f 619/619/619 621/621/621 620/620/620
f 624/624/624 623/623/623 622/622/622
f 625/625/625 624/624/624 622/622/622
f 628/628/628 627/627/627 626/626/626
f 629/629/629 628/628/628 626/626/626
f 632/632/632 631/631/631 630/630/630
f 630/630/630 633/633/633 632/632/632
f 630/630/630 634/634/634 633/633/633
f 634/634/634 635/635/635 633/633/633
f 634/634/634 636/636/636 635/635/635
f 636/636/636 637/637/637 635/635/635
f 636/636/636 638/638/638 637/637/637
f 638/638/638 639/639/639 637/637/637
f 638/638/638 640/640/640 639/639/639
f 640/640/640 641/641/641 639/639/639
f 640/640/640 642/642/642 641/641/641
f 642/642/642 643/643/643 641/641/641
f 642/642/642 644/644/644 643/643/643
f 644/644/644 645/645/645 643/643/643
f 644/644/644 646/646/646 645/645/645
f 646/646/646 647/647/647 645/645/645
f 646/646/646 648/648/648 647/647/647
f 648/648/648 649/649/649 647/647/647
f 648/648/648 650/650/650 649/649/649
f 650/650/650 651/651/651 649/649/649
f 650/650/650 652/652/652 651/651/651
f 652/652/652 653/653/653 651/651/651
f 652/652/652 654/654/654 653/653/653
f 654/654/654 655/655/655 653/653/653
f 654/654/654 656/656/656 655/655/655
f 656/656/656 657/657/657 655/655/655
f 656/656/656 658/658/658 657/657/657
f 658/658/658 659/659/659 657/657/657
f 658/658/658 660/660/660 659/659/659
f 660/660/660 661/661/661 659/659/659
