g Fridge.Doors
v -0.3195593 0.51897305 0.4435035
v -0.31850725 0.518973 0.30595976
v -0.31850728 0.28088072 0.30595976
v -0.3195593 0.28088072 0.4435035
v -0.3195593 -0.34950247 0.4435035
v -0.31850725 -0.34950247 0.30595976
v -0.31850728 -0.97458196 0.30595976
v -0.3195593 -0.97458196 0.4435035
v -0.3195593 -1.1967629 0.4435035
v -0.31850725 -1.1967629 0.30595976
v -0.316029 -0.34950247 -0.018040046
v -0.316029 0.28088072 -0.018040046
v -0.313562 0.28088072 -0.3405714
v -0.31356198 -0.34950247 -0.3405714
v -0.31254363 -0.34950247 -0.4737097
v -0.31254363 0.28088075 -0.4737097
v -0.313562 -0.97458196 -0.3405714
v -0.31254363 -0.97458196 -0.4737097
v -0.316029 -0.97458196 -0.018040046
v -0.31254363 -1.1967632 -0.4737097
v -0.31356198 -1.1967629 -0.3405714
v -0.316029 -1.1967629 -0.018040046
v -0.31254363 0.51897305 -0.4737097
v -0.31356198 0.518973 -0.3405714
v -0.316029 0.518973 -0.018040046
v -0.3195593 0.51897305 0.4435035
v -0.33716577 0.55043316 0.44336882
v -0.33611372 0.55043316 0.3058251
v -0.31850725 0.518973 0.30595976
v -0.316029 0.518973 -0.018040046
v -0.3336355 0.55043316 -0.018174715
v -0.33116847 0.55043316 -0.34070605
v -0.31356198 0.518973 -0.3405714
v -0.31254363 0.51897305 -0.4737097
v -0.3301501 0.5504332 -0.47384438
v -0.3195593 0.51897305 0.4435035
v -0.33742005 0.51897305 0.4766056
v -0.35104808 0.5422768 0.4678839
v -0.33716577 0.55043316 0.44336882
v -0.3195593 0.51897305 0.4435035
v -0.3195593 0.28088072 0.4435035
v -0.33742005 0.28088072 0.4766056
v -0.33742005 0.51897305 0.4766056
v -0.3195593 -0.34950247 0.4435035
v -0.33742005 -0.34950247 0.4766056
v -0.33742005 -0.97458196 0.4766056
v -0.3195593 -0.97458196 0.4435035
v -0.3195593 -1.1967629 0.4435035
v -0.33742005 -1.1967632 0.4766056
v -0.3903242 0.51897305 0.4872805
v -0.33742005 0.51897305 0.4766056
v -0.33742005 0.28088072 0.4766056
v -0.3903242 0.28088072 0.4872805
v -0.3903242 -0.34950247 0.4872805
v -0.33742005 -0.34950247 0.4766056
v -0.33742005 -0.97458196 0.4766056
v -0.3903242 -0.97458196 0.4872805
v -0.3903242 -1.1967632 0.4872805
v -0.33742005 -1.1967632 0.4766056
v -0.3903242 0.51897305 0.4872805
v -0.39023945 0.55043316 0.4762016
v -0.35104808 0.5422768 0.4678839
v -0.33742005 0.51897305 0.4766056
v -0.3903242 0.51897305 0.4872805
v -0.44305888 0.51897305 0.47579756
v -0.42929903 0.5422768 0.46728536
v -0.39023945 0.55043316 0.4762016
v -0.3903242 0.51897305 0.4872805
v -0.3903242 0.28088072 0.4872805
v -0.44305888 0.28088072 0.47579756
v -0.44305888 0.51897305 0.47579756
v -0.3903242 -0.34950247 0.4872805
v -0.44305888 -0.34950247 0.47579756
v -0.44305888 -0.97458196 0.47579756
v -0.3903242 -0.97458196 0.4872805
v -0.3903242 -1.1967632 0.4872805
v -0.44305888 -1.1967632 0.47579756
v -0.45339543 0.51897305 -0.4747871
v -0.45441374 0.518973 -0.34164876
v -0.45441374 0.28088072 -0.34164876
v -0.45339543 0.28088072 -0.4747871
v -0.45339543 -0.34950247 -0.4747871
v -0.45441374 -0.34950247 -0.34164876
v -0.45441374 -0.97458196 -0.34164876
v -0.45339543 -0.97458196 -0.4747871
v -0.45339543 -1.1967629 -0.4747871
v -0.45441374 -1.1967629 -0.34164876
v -0.45688078 -0.34950247 -0.0191174
v -0.45688078 0.28088072 -0.0191174
v -0.45935905 0.28088072 0.3048824
v -0.45935905 -0.34950247 0.3048824
v -0.46041113 -0.34950247 0.44242615
v -0.46041113 0.28088075 0.44242615
v -0.45935905 -0.97458196 0.3048824
v -0.46041113 -0.97458196 0.44242615
v -0.45688078 -0.97458196 -0.0191174
v -0.46041113 -1.1967632 0.44242615
v -0.45935905 -1.1967629 0.3048824
v -0.45688078 -1.1967629 -0.0191174
v -0.46041113 0.51897305 0.44242615
v -0.45935905 0.518973 0.3048824
v -0.45688078 0.518973 -0.0191174
v -0.45339543 0.51897305 -0.4747871
v -0.43578896 0.5504332 -0.47465244
v -0.4368073 0.55043316 -0.34151408
v -0.45441374 0.518973 -0.34164876
v -0.45688078 0.518973 -0.0191174
v -0.4392743 0.55043316 -0.01898273
v -0.4417526 0.55043316 0.30501708
v -0.45935905 0.518973 0.3048824
v -0.46041113 0.51897305 0.44242615
v -0.44280463 0.55043316 0.4425608
v -0.45339543 0.51897305 -0.4747871
v -0.43556842 0.51897305 -0.50348383
v -0.42193168 0.5422768 -0.4959043
v -0.43578896 0.5504332 -0.47465244
v -0.45339543 0.51897305 -0.4747871
v -0.45339543 0.28088072 -0.4747871
v -0.43556845 0.28088072 -0.50348383
v -0.43556842 0.51897305 -0.50348383
v -0.45339543 -0.34950247 -0.4747871
v -0.43556845 -0.34950247 -0.5034838
v -0.43556845 -0.97458196 -0.50348383
v -0.45339543 -0.97458196 -0.4747871
v -0.45339543 -1.1967629 -0.4747871
v -0.43556845 -1.1967632 -0.5034838
v -0.3826755 0.51897305 -0.51269025
v -0.43556842 0.51897305 -0.50348383
v -0.43556845 0.28088072 -0.50348383
v -0.3826755 0.28088072 -0.51269025
v -0.3826755 -0.34950247 -0.51269025
v -0.43556845 -0.34950247 -0.5034838
v -0.43556845 -0.97458196 -0.50348383
v -0.3826755 -0.97458196 -0.51269025
v -0.3826755 -1.1967632 -0.51269025
v -0.43556845 -1.1967632 -0.5034838
v -0.3826755 0.51897305 -0.51269025
v -0.382749 0.5504332 -0.5030798
v -0.42193168 0.5422768 -0.4959043
v -0.43556842 0.51897305 -0.50348383
v -0.3826755 0.51897305 -0.51269025
v -0.32992956 0.51897305 -0.5026758
v -0.3436807 0.5422768 -0.4953057
v -0.382749 0.5504332 -0.5030798
v -0.3826755 0.51897305 -0.51269025
v -0.3826755 0.28088072 -0.51269025
v -0.32992956 0.28088072 -0.5026758
v -0.32992956 0.51897305 -0.5026758
v -0.3826755 -0.34950247 -0.51269025
v -0.32992956 -0.34950247 -0.5026758
v -0.32992956 -0.97458196 -0.5026758
v -0.3826755 -0.97458196 -0.51269025
v -0.3826755 -1.1967632 -0.51269025
v -0.32992956 -1.1967632 -0.5026758
v -0.38296953 -1.2174952 -0.4742484
v -0.38398787 -1.2174951 -0.34111008
v -0.33116847 -1.2123121 -0.34070605
v -0.33015013 -1.2123122 -0.47384438
v -0.38645488 -1.2174951 -0.018578721
v -0.33363548 -1.2123121 -0.018174715
v -0.33611372 -1.2123121 0.3058251
v -0.3889331 -1.2174951 0.30542108
v -0.3899852 -1.2174951 0.44296482
v -0.33716577 -1.2123121 0.44336882
v -0.38296953 -1.2174952 -0.4742484
v -0.4357889 -1.2123122 -0.47465244
v -0.4368073 -1.2123121 -0.34151408
v -0.38398787 -1.2174951 -0.34111008
v -0.38645488 -1.2174951 -0.018578721
v -0.43927428 -1.2123121 -0.01898273
v -0.4417526 -1.2123121 0.30501708
v -0.3889331 -1.2174951 0.30542108
v -0.3899852 -1.2174951 0.44296482
v -0.44280466 -1.2123121 0.4425608
v -0.38296953 -1.2174952 -0.4742484
v -0.38274902 -1.2123122 -0.5030798
v -0.42193168 -1.208281 -0.4959043
v -0.4357889 -1.2123122 -0.47465244
v -0.38296953 -1.2174952 -0.4742484
v -0.33015013 -1.2123122 -0.47384438
v -0.3436807 -1.208281 -0.4953057
v -0.38274902 -1.2123122 -0.5030798
v -0.3829695 0.56091994 -0.4742484
v -0.38398787 0.5609199 -0.34111008
v -0.4368073 0.55043316 -0.34151408
v -0.43578896 0.5504332 -0.47465244
v -0.3864549 0.5609199 -0.018578721
v -0.4392743 0.55043316 -0.01898273
v -0.4417526 0.55043316 0.30501708
v -0.38893318 0.5609199 0.30542105
v -0.38998523 0.5609199 0.44296476
v -0.44280463 0.55043316 0.4425608
v -0.3829695 0.56091994 -0.4742484
v -0.3301501 0.5504332 -0.47384438
v -0.33116847 0.55043316 -0.34070605
v -0.38398787 0.5609199 -0.34111008
v -0.3864549 0.5609199 -0.018578721
v -0.3336355 0.55043316 -0.018174715
v -0.33611372 0.55043316 0.3058251
v -0.38893318 0.5609199 0.30542105
v -0.38998523 0.5609199 0.44296476
v -0.33716577 0.55043316 0.44336882
v -0.3829695 0.56091994 -0.4742484
v -0.382749 0.5504332 -0.5030798
v -0.3436807 0.5422768 -0.4953057
v -0.3301501 0.5504332 -0.47384438
v -0.3829695 0.56091994 -0.4742484
v -0.43578896 0.5504332 -0.47465244
v -0.42193168 0.5422768 -0.4959043
v -0.382749 0.5504332 -0.5030798
v -0.3826755 -1.1967632 -0.51269025
v -0.43556845 -1.1967632 -0.5034838
v -0.42193168 -1.208281 -0.4959043
v -0.38274902 -1.2123122 -0.5030798
v -0.3826755 -1.1967632 -0.51269025
v -0.38274902 -1.2123122 -0.5030798
v -0.3436807 -1.208281 -0.4953057
v -0.32992956 -1.1967632 -0.5026758
v -0.45339543 -1.1967629 -0.4747871
v -0.45441374 -1.1967629 -0.34164876
v -0.4368073 -1.2123121 -0.34151408
v -0.4357889 -1.2123122 -0.47465244
v -0.45688078 -1.1967629 -0.0191174
v -0.43927428 -1.2123121 -0.01898273
v -0.4417526 -1.2123121 0.30501708
v -0.45935905 -1.1967629 0.3048824
v -0.46041113 -1.1967632 0.44242615
v -0.44280466 -1.2123121 0.4425608
v -0.45339543 -1.1967629 -0.4747871
v -0.4357889 -1.2123122 -0.47465244
v -0.42193168 -1.208281 -0.4959043
v -0.43556845 -1.1967632 -0.5034838
v -0.3903242 -1.1967632 0.4872805
v -0.33742005 -1.1967632 0.4766056
v -0.35104808 -1.2082809 0.4678839
v -0.39023945 -1.2123121 0.4762016
v -0.3903242 -1.1967632 0.4872805
v -0.39023945 -1.2123121 0.4762016
v -0.42929903 -1.208281 0.46728536
v -0.44305888 -1.1967632 0.47579756
v -0.3195593 -1.1967629 0.4435035
v -0.31850725 -1.1967629 0.30595976
v -0.33611372 -1.2123121 0.3058251
v -0.33716577 -1.2123121 0.44336882
v -0.316029 -1.1967629 -0.018040046
v -0.33363548 -1.2123121 -0.018174715
v -0.33116847 -1.2123121 -0.34070605
v -0.3195593 -1.1967629 0.4435035
v -0.33716577 -1.2123121 0.44336882
v -0.35104808 -1.2082809 0.4678839
v -0.33742005 -1.1967632 0.4766056
v -0.31254363 -0.34950247 -0.4737097
v -0.32992956 -0.34950247 -0.5026758
v -0.32992956 -0.97458196 -0.5026758
v -0.31254363 -0.97458196 -0.4737097
v -0.32992956 0.28088072 -0.5026758
v -0.31254363 0.28088075 -0.4737097
v -0.31254363 -1.1967632 -0.4737097
v -0.32992956 -1.1967632 -0.5026758
v -0.31254363 0.51897305 -0.4737097
v -0.32992956 0.51897305 -0.5026758
v -0.31254363 -1.1967632 -0.4737097
v -0.32992956 -1.1967632 -0.5026758
v -0.3436807 -1.208281 -0.4953057
v -0.33015013 -1.2123122 -0.47384438
v -0.31254363 -1.1967632 -0.4737097
v -0.33015013 -1.2123122 -0.47384438
v -0.33116847 -1.2123121 -0.34070605
v -0.31356198 -1.1967629 -0.3405714
v -0.316029 -1.1967629 -0.018040046
v -0.46041113 -0.34950247 0.44242615
v -0.44305888 -0.34950247 0.47579756
v -0.44305888 -0.97458196 0.47579756
v -0.46041113 -0.97458196 0.44242615
v -0.44305888 0.28088072 0.47579756
v -0.46041113 0.28088075 0.44242615
v -0.46041113 -1.1967632 0.44242615
v -0.44305888 -1.1967632 0.47579756
v -0.46041113 0.51897305 0.44242615
v -0.44305888 0.51897305 0.47579756
v -0.46041113 -1.1967632 0.44242615
v -0.44305888 -1.1967632 0.47579756
v -0.42929903 -1.208281 0.46728536
v -0.44280466 -1.2123121 0.4425608
v -0.38998523 0.5609199 0.44296476
v -0.39023945 0.55043316 0.4762016
v -0.42929903 0.5422768 0.46728536
v -0.44280463 0.55043316 0.4425608
v -0.38998523 0.5609199 0.44296476
v -0.33716577 0.55043316 0.44336882
v -0.35104808 0.5422768 0.4678839
v -0.39023945 0.55043316 0.4762016
v -0.3899852 -1.2174951 0.44296482
v -0.39023945 -1.2123121 0.4762016
v -0.35104808 -1.2082809 0.4678839
v -0.33716577 -1.2123121 0.44336882
v -0.3899852 -1.2174951 0.44296482
v -0.44280466 -1.2123121 0.4425608
v -0.42929903 -1.208281 0.46728536
v -0.39023945 -1.2123121 0.4762016
v -0.46041113 0.51897305 0.44242615
v -0.44280463 0.55043316 0.4425608
v -0.42929903 0.5422768 0.46728536
v -0.44305888 0.51897305 0.47579756
v -0.31254363 0.51897305 -0.4737097
v -0.3301501 0.5504332 -0.47384438
v -0.3436807 0.5422768 -0.4953057
v -0.32992956 0.51897305 -0.5026758
v -0.31956005 1.2117932 0.44356352
v -0.31850594 1.2117932 0.30575222
v -0.31850594 1.1191471 0.30575222
v -0.31956005 1.1191471 0.44356352
v -0.31602064 1.2117932 -0.019170329
v -0.31602064 1.1191471 -0.019170329
v -0.3135487 1.1191471 -0.34234184
v -0.3135487 1.2117932 -0.34234184
v -0.31253475 1.2117932 -0.47490004
v -0.31253475 1.1191471 -0.4749
v -0.31602064 0.91582793 -0.019170329
v -0.3135487 0.91582793 -0.34234184
v -0.3135487 0.7102443 -0.34234184
v -0.31602064 0.7102443 -0.019170329
v -0.31602064 0.61080486 -0.019170329
v -0.3135487 0.61080486 -0.34234184
v -0.31850594 0.7102443 0.30575222
v -0.31850594 0.61080486 0.30575222
v -0.31850594 0.91582793 0.30575222
v -0.31253475 0.61080486 -0.47490004
v -0.31253475 0.7102443 -0.4749
v -0.31253475 0.91582793 -0.47490004
v -0.31956005 0.61080486 0.44356352
v -0.31956005 0.7102443 0.44356352
v -0.31956005 0.91582793 0.44356352
v -0.31956005 1.2117932 0.44356352
v -0.33716652 1.2397754 0.44342887
v -0.3361124 1.2397754 0.30561754
v -0.31850594 1.2117932 0.30575222
v -0.31602064 1.2117932 -0.019170329
v -0.33362707 1.2397754 -0.019304998
v -0.33115515 1.2397754 -0.3424765
v -0.3135487 1.2117932 -0.34234184
v -0.31253475 1.2117932 -0.47490004
v -0.33014125 1.2397754 -0.47503465
v -0.31956005 1.2117932 0.44356352
v -0.33742037 1.2117932 0.47662058
v -0.35104853 1.2325208 0.46791062
v -0.33716652 1.2397754 0.44342887
v -0.31956005 1.2117932 0.44356352
v -0.31956005 1.1191471 0.44356352
v -0.33742037 1.1191471 0.47662058
v -0.33742037 1.2117932 0.47662058
v -0.31956005 0.91582793 0.44356352
v -0.33742037 0.91582793 0.47662058
v -0.33742037 0.7102443 0.47662058
v -0.31956005 0.7102443 0.44356352
v -0.31956005 0.61080486 0.44356352
v -0.33742037 0.61080486 0.47662058
v -0.39032444 1.2117932 0.4872805
v -0.33742037 1.2117932 0.47662058
v -0.33742037 1.1191471 0.47662058
v -0.39032444 1.1191471 0.4872805
v -0.39032444 0.91582793 0.4872805
v -0.33742037 0.91582793 0.47662058
v -0.33742037 0.7102443 0.47662058
v -0.39032444 0.7102443 0.4872805
v -0.39032444 0.61080486 0.4872805
v -0.33742037 0.61080486 0.47662058
v -0.39032444 1.2117932 0.4872805
v -0.39023978 1.2397754 0.4762166
v -0.35104853 1.2325208 0.46791062
v -0.33742037 1.2117932 0.47662058
v -0.39032444 1.2117932 0.4872805
v -0.44305927 1.2117932 0.47581255
v -0.42929953 1.2325208 0.46731207
v -0.39023978 1.2397754 0.4762166
v -0.39032444 1.2117932 0.4872805
v -0.39032444 1.1191471 0.4872805
v -0.44305927 1.1191471 0.47581255
v -0.44305927 1.2117932 0.47581255
v -0.39032444 0.91582793 0.4872805
v -0.44305924 0.91582793 0.47581255
v -0.44305927 0.7102443 0.47581255
v -0.39032444 0.7102443 0.4872805
v -0.39032444 0.61080486 0.4872805
v -0.44305924 0.61080486 0.47581255
v -0.4533866 1.2117932 -0.4759774
v -0.45440054 1.2117932 -0.3434192
v -0.45440054 1.1191471 -0.34341922
v -0.4533866 1.1191471 -0.4759774
v -0.45687246 1.2117932 -0.020247683
v -0.45687246 1.1191471 -0.020247683
v -0.45935774 1.1191471 0.30467486
v -0.45935774 1.2117932 0.30467486
v -0.46041182 1.2117932 0.44248614
v -0.46041182 1.1191471 0.44248614
v -0.45687246 0.91582793 -0.020247683
v -0.45935774 0.91582793 0.30467486
v -0.45935774 0.7102443 0.30467486
v -0.45687246 0.7102443 -0.020247683
v -0.45687246 0.61080486 -0.020247683
v -0.45935774 0.61080486 0.30467486
v -0.45440054 0.7102443 -0.34341922
v -0.45440054 0.61080486 -0.3434192
v -0.45440054 0.91582793 -0.3434192
v -0.46041182 0.61080486 0.44248614
v -0.46041182 0.7102443 0.44248614
v -0.46041182 0.91582793 0.44248614
v -0.4533866 0.61080486 -0.4759774
v -0.4533866 0.7102443 -0.4759774
v -0.4533866 0.91582793 -0.4759774
v -0.4533866 1.2117932 -0.4759774
v -0.43578014 1.2397754 -0.47584274
v -0.43679407 1.2397754 -0.34328452
v -0.45440054 1.2117932 -0.3434192
v -0.45687246 1.2117932 -0.020247683
v -0.439266 1.2397754 -0.020113012
v -0.44175127 1.2397754 0.3048095
v -0.45935774 1.2117932 0.30467486
v -0.46041182 1.2117932 0.44248614
v -0.44280535 1.2397754 0.44262084
v -0.4533866 1.2117932 -0.4759774
v -0.4355664 1.2117932 -0.5037814
v -0.4219279 1.2325208 -0.49643326
v -0.43578014 1.2397754 -0.47584274
v -0.4533866 1.2117932 -0.4759774
v -0.4533866 1.1191471 -0.4759774
v -0.4355664 1.1191471 -0.5037814
v -0.4355664 1.2117932 -0.5037814
v -0.4533866 0.91582793 -0.4759774
v -0.4355664 0.91582793 -0.5037814
v -0.4355664 0.7102443 -0.5037814
v -0.4533866 0.7102443 -0.4759774
v -0.4533866 0.61080486 -0.4759774
v -0.4355664 0.61080486 -0.5037814
v -0.38267577 1.2117932 -0.51269025
v -0.4355664 1.2117932 -0.5037814
v -0.4355664 1.1191471 -0.5037814
v -0.38267574 1.1191471 -0.51269025
v -0.38267577 0.91582793 -0.51269025
v -0.4355664 0.91582793 -0.5037814
v -0.4355664 0.7102443 -0.5037814
v -0.38267574 0.7102443 -0.51269025
v -0.38267577 0.61080486 -0.51269025
v -0.4355664 0.61080486 -0.5037814
v -0.38267577 1.2117932 -0.51269025
v -0.38274696 1.2397754 -0.5033773
v -0.4219279 1.2325208 -0.49643326
v -0.4355664 1.2117932 -0.5037814
v -0.38267577 1.2117932 -0.51269025
v -0.32992756 1.2117932 -0.5029733
v -0.3436769 1.2325208 -0.49583477
v -0.38274696 1.2397754 -0.5033773
v -0.38267577 1.2117932 -0.51269025
v -0.38267574 1.1191471 -0.51269025
v -0.32992756 1.1191471 -0.5029733
v -0.32992756 1.2117932 -0.5029733
v -0.38267577 0.91582793 -0.51269025
v -0.32992756 0.91582793 -0.5029733
v -0.3299275 0.7102443 -0.5029733
v -0.38267574 0.7102443 -0.51269025
v -0.38267577 0.61080486 -0.51269025
v -0.32992756 0.61080486 -0.5029733
v -0.38296065 0.5644375 -0.4754387
v -0.3839746 0.5644375 -0.34288052
v -0.33115515 0.57602936 -0.3424765
v -0.33014125 0.57602936 -0.47503465
v -0.38644654 0.5644375 -0.019709004
v -0.33362707 0.57602936 -0.019304998
v -0.3361124 0.57602936 0.30561754
v -0.3889318 0.5644375 0.30521354
v -0.38998592 0.5644375 0.4430248
v -0.33716652 0.57602936 0.44342887
v -0.38296065 0.5644375 -0.4754387
v -0.4357801 0.57602936 -0.47584274
v -0.43679407 0.57602936 -0.34328452
v -0.3839746 0.5644375 -0.34288052
v -0.38644654 0.5644375 -0.019709004
v -0.43926597 0.57602936 -0.020113012
v -0.44175127 0.57602936 0.3048095
v -0.3889318 0.5644375 0.30521354
v -0.38998592 0.5644375 0.4430248
v -0.44280535 0.57602936 0.44262084
v -0.38296065 0.5644375 -0.4754387
v -0.38274696 0.57602936 -0.5033774
v -0.4219279 0.5850452 -0.49643326
v -0.4357801 0.57602936 -0.47584274
v -0.38296065 0.5644375 -0.4754387
v -0.33014125 0.57602936 -0.47503465
v -0.3436769 0.5850452 -0.49583477
v -0.38274696 0.57602936 -0.5033774
v -0.38296065 1.2491028 -0.4754387
v -0.38397464 1.2491028 -0.34288052
v -0.43679407 1.2397754 -0.34328452
v -0.43578014 1.2397754 -0.47584274
v -0.38644657 1.2491028 -0.019709004
v -0.439266 1.2397754 -0.020113012
v -0.44175127 1.2397754 0.3048095
v -0.38893187 1.2491028 0.30521354
v -0.38998595 1.2491028 0.44302484
v -0.44280535 1.2397754 0.44262084
v -0.38296065 1.2491028 -0.4754387
v -0.33014125 1.2397754 -0.47503465
v -0.33115515 1.2397754 -0.3424765
v -0.38397464 1.2491028 -0.34288052
v -0.38644657 1.2491028 -0.019709004
v -0.33362707 1.2397754 -0.019304998
v -0.3361124 1.2397754 0.30561754
v -0.38893187 1.2491028 0.30521354
v -0.38998595 1.2491028 0.44302484
v -0.33716652 1.2397754 0.44342887
v -0.38296065 1.2491028 -0.4754387
v -0.38274696 1.2397754 -0.5033773
v -0.3436769 1.2325208 -0.49583477
v -0.33014125 1.2397754 -0.47503465
v -0.38296065 1.2491028 -0.4754387
v -0.43578014 1.2397754 -0.47584274
v -0.4219279 1.2325208 -0.49643326
v -0.38274696 1.2397754 -0.5033773
v -0.38998595 1.2491028 0.44302484
v -0.39023978 1.2397754 0.4762166
v -0.42929953 1.2325208 0.46731207
v -0.44280535 1.2397754 0.44262084
v -0.38998595 1.2491028 0.44302484
v -0.33716652 1.2397754 0.44342887
v -0.35104853 1.2325208 0.46791062
v -0.39023978 1.2397754 0.4762166
v -0.38998592 0.5644375 0.4430248
v -0.39023978 0.57602936 0.47621658
v -0.35104853 0.5850452 0.46791062
v -0.33716652 0.57602936 0.44342887
v -0.38998592 0.5644375 0.4430248
v -0.44280535 0.57602936 0.44262084
v -0.42929953 0.5850452 0.46731207
v -0.39023978 0.57602936 0.47621658
v -0.46041182 1.2117932 0.44248614
v -0.44305927 1.2117932 0.47581255
v -0.44305927 1.1191471 0.47581255
v -0.46041182 1.1191471 0.44248614
v -0.46041182 0.91582793 0.44248614
v -0.44305924 0.91582793 0.47581255
v -0.44305927 0.7102443 0.47581255
v -0.46041182 0.7102443 0.44248614
v -0.46041182 0.61080486 0.44248614
v -0.44305924 0.61080486 0.47581255
v -0.46041182 1.2117932 0.44248614
v -0.44280535 1.2397754 0.44262084
v -0.42929953 1.2325208 0.46731207
v -0.44305927 1.2117932 0.47581255
v -0.31253475 1.2117932 -0.47490004
v -0.32992756 1.2117932 -0.5029733
v -0.32992756 1.1191471 -0.5029733
v -0.31253475 1.1191471 -0.4749
v -0.31253475 0.91582793 -0.47490004
v -0.32992756 0.91582793 -0.5029733
v -0.3299275 0.7102443 -0.5029733
v -0.31253475 0.7102443 -0.4749
v -0.31253475 0.61080486 -0.47490004
v -0.32992756 0.61080486 -0.5029733
v -0.31253475 1.2117932 -0.47490004
v -0.33014125 1.2397754 -0.47503465
v -0.3436769 1.2325208 -0.49583477
v -0.32992756 1.2117932 -0.5029733
v -0.31602064 0.61080486 -0.019170329
v -0.3135487 0.61080486 -0.34234184
v -0.33115515 0.57602936 -0.3424765
v -0.33362707 0.57602936 -0.019304998
v -0.3361124 0.57602936 0.30561754
v -0.31850594 0.61080486 0.30575222
v -0.31253475 0.61080486 -0.47490004
v -0.33014125 0.57602936 -0.47503465
v -0.31956005 0.61080486 0.44356352
v -0.33716652 0.57602936 0.44342887
v -0.31253475 0.61080486 -0.47490004
v -0.32992756 0.61080486 -0.5029733
v -0.3436769 0.5850452 -0.49583477
v -0.33014125 0.57602936 -0.47503465
v -0.45687246 0.61080486 -0.020247683
v -0.45935774 0.61080486 0.30467486
v -0.44175127 0.57602936 0.3048095
v -0.43926597 0.57602936 -0.020113012
v -0.43679407 0.57602936 -0.34328452
v -0.45440054 0.61080486 -0.3434192
v -0.46041182 0.61080486 0.44248614
v -0.44280535 0.57602936 0.44262084
v -0.4533866 0.61080486 -0.4759774
v -0.4357801 0.57602936 -0.47584274
v -0.46041182 0.61080486 0.44248614
v -0.44305924 0.61080486 0.47581255
v -0.42929953 0.5850452 0.46731207
v -0.44280535 0.57602936 0.44262084
v -0.38267577 0.61080486 -0.51269025
v -0.4355664 0.61080486 -0.5037814
v -0.4219279 0.5850452 -0.49643326
v -0.38274696 0.57602936 -0.5033774
v -0.38267577 0.61080486 -0.51269025
v -0.38274696 0.57602936 -0.5033774
v -0.3436769 0.5850452 -0.49583477
v -0.32992756 0.61080486 -0.5029733
v -0.4533866 0.61080486 -0.4759774
v -0.4357801 0.57602936 -0.47584274
v -0.4219279 0.5850452 -0.49643326
v -0.4355664 0.61080486 -0.5037814
v -0.39032444 0.61080486 0.4872805
v -0.33742037 0.61080486 0.47662058
v -0.35104853 0.5850452 0.46791062
v -0.39023978 0.57602936 0.47621658
v -0.39032444 0.61080486 0.4872805
v -0.39023978 0.57602936 0.47621658
v -0.42929953 0.5850452 0.46731207
v -0.44305924 0.61080486 0.47581255
v -0.31956005 0.61080486 0.44356352
v -0.33716652 0.57602936 0.44342887
v -0.35104853 0.5850452 0.46791062
v -0.33742037 0.61080486 0.47662058
vt 0.22307315 0.5545566
vt 0.1909671 0.55455625
vt 0.19096711 0.6064986
vt 0.22307315 0.60649896
vt 0.22307315 0.7440237
vt 0.1909671 0.7440233
vt 0.19096711 0.8803909
vt 0.22307315 0.88039136
vt 0.22307315 0.92886245
vt 0.1909671 0.9288621
vt 0.11533766 0.74402237
vt 0.11533767 0.6064977
vt 0.040051002 0.60649675
vt 0.040051 0.7440214
vt 0.008973271 0.74402106
vt 0.008973276 0.6064964
vt 0.04005099 0.8803891
vt 0.008973264 0.8803886
vt 0.115337655 0.88039
vt 0.008973262 0.92885983
vt 0.04005099 0.9288602
vt 0.115337655 0.9288611
vt 0.008973278 0.5545541
vt 0.040051006 0.55455446
vt 0.11533767 0.55455536
vt 0.22307315 0.5545566
vt 0.22307315 0.5454055
vt 0.19096711 0.54540515
vt 0.1909671 0.55455625
vt 0.11533767 0.55455536
vt 0.11533766 0.5454042
vt 0.040051 0.54540336
vt 0.040051006 0.55455446
vt 0.008973278 0.5545541
vt 0.008973276 0.54540294
vt 0.22307315 0.5545566
vt 0.23341753 0.5545567
vt 0.23341753 0.5454056
vt 0.22307315 0.5454055
vt 0.22307315 0.5545566
vt 0.22307315 0.60649896
vt 0.23341753 0.6064991
vt 0.23341753 0.5545567
vt 0.22307315 0.7440237
vt 0.23341753 0.7440238
vt 0.23341753 0.88039136
vt 0.22307315 0.88039136
vt 0.22307315 0.92886245
vt 0.23341751 0.9288626
vt 0.94935083 0.92430365
vt 0.96582144 0.9243036
vt 0.96582144 0.8723612
vt 0.94935083 0.8723613
vt 0.94935083 0.73483664
vt 0.96582144 0.7348365
vt 0.96582144 0.59846884
vt 0.94935083 0.59846896
vt 0.94935083 0.5499978
vt 0.96582144 0.5499977
vt 0.94935083 0.92430365
vt 0.94935083 0.9334549
vt 0.96582144 0.93345475
vt 0.96582144 0.9243036
vt 0.94935083 0.92430365
vt 0.9328803 0.9243038
vt 0.9328803 0.933455
vt 0.94935083 0.9334549
vt 0.94935083 0.92430365
vt 0.94935083 0.8723613
vt 0.9328803 0.87236154
vt 0.9328803 0.9243038
vt 0.94935083 0.73483664
vt 0.9328803 0.7348367
vt 0.9328803 0.598469
vt 0.94935083 0.59846896
vt 0.94935083 0.5499978
vt 0.9328803 0.5499979
vt 0.4765111 0.9243054
vt 0.50757957 0.9242946
vt 0.50757957 0.872353
vt 0.47651112 0.87236375
vt 0.4765111 0.7348408
vt 0.50757957 0.7348301
vt 0.5075795 0.59846413
vt 0.4765111 0.5984749
vt 0.4765111 0.55000436
vt 0.50757957 0.54999363
vt 0.5828437 0.7348041
vt 0.5828437 0.87232697
vt 0.6584506 0.87230086
vt 0.6584506 0.7347779
vt 0.69054705 0.73476684
vt 0.69054705 0.8722898
vt 0.65845054 0.59841204
vt 0.690547 0.59840095
vt 0.5828437 0.59843814
vt 0.69054705 0.5499304
vt 0.6584506 0.54994154
vt 0.5828437 0.54996765
vt 0.69054705 0.9242314
vt 0.6584506 0.9242425
vt 0.5828437 0.9242686
vt 0.4765111 0.9243054
vt 0.47651112 0.9334564
vt 0.50757957 0.9334457
vt 0.50757957 0.9242946
vt 0.5828437 0.9242686
vt 0.5828437 0.93341964
vt 0.65845054 0.93339354
vt 0.6584506 0.9242425
vt 0.69054705 0.9242314
vt 0.69054705 0.9333824
vt 0.4765111 0.9243054
vt 0.46754053 0.92430854
vt 0.46754053 0.9334595
vt 0.47651112 0.9334564
vt 0.4765111 0.9243054
vt 0.47651112 0.87236375
vt 0.46754053 0.87236685
vt 0.46754053 0.92430854
vt 0.4765111 0.7348408
vt 0.4675405 0.7348439
vt 0.4675405 0.59847796
vt 0.4765111 0.5984749
vt 0.4765111 0.55000436
vt 0.4675405 0.55000746
vt 0.95076317 0.009169634
vt 0.93430585 0.00919316
vt 0.93430585 0.061106868
vt 0.95076317 0.06108335
vt 0.95076317 0.19853228
vt 0.93430585 0.1985558
vt 0.93430585 0.3348483
vt 0.95076317 0.3348248
vt 0.95076317 0.38326922
vt 0.93430585 0.38329273
vt 0.95076317 0.009169634
vt 0.9507632 2.352799E-05
vt 0.93430585 4.7056004E-05
vt 0.93430585 0.00919316
vt 0.95076317 0.009169634
vt 0.96722054 0.00914611
vt 0.96722054 0
vt 0.9507632 2.352799E-05
vt 0.95076317 0.009169634
vt 0.95076317 0.06108335
vt 0.9672205 0.061059833
vt 0.96722054 0.00914611
vt 0.95076317 0.19853228
vt 0.9672205 0.19850877
vt 0.9672205 0.3348013
vt 0.95076317 0.3348248
vt 0.95076317 0.38326922
vt 0.9672205 0.38324574
vt 0.9836103 0.21851917
vt 0.9836103 0.18826279
vt 0.96722054 0.18826945
vt 0.96722054 0.21852586
vt 0.9836103 0.11496584
vt 0.96722054 0.11497251
vt 0.96722054 0.04134185
vt 0.9836103 0.041335177
vt 0.9836103 0.010077643
vt 0.96722054 0.010084321
vt 0.9836103 0.21851917
vt 1 0.2185125
vt 1 0.1882561
vt 0.9836103 0.18826279
vt 0.9836103 0.11496584
vt 1 0.11495916
vt 1 0.041328497
vt 0.9836103 0.041335177
vt 0.9836103 0.010077643
vt 1 0.010070966
vt 0.9836103 0.21851917
vt 0.9836103 0.22725528
vt 1 0.22724861
vt 1 0.2185125
vt 0.9836103 0.21851917
vt 0.96722054 0.21852586
vt 0.9672206 0.22726196
vt 0.9836103 0.22725528
vt 0.98355436 0.44578207
vt 0.98355436 0.4155256
vt 0.96722054 0.41553253
vt 0.96722054 0.44578904
vt 0.98355436 0.3422284
vt 0.96722054 0.3422354
vt 0.96722054 0.26860452
vt 0.98355436 0.26859754
vt 0.98355436 0.23733993
vt 0.96722054 0.23734689
vt 0.98355436 0.44578207
vt 0.9998882 0.44577512
vt 0.9998882 0.41551864
vt 0.98355436 0.4155256
vt 0.98355436 0.3422284
vt 0.9998882 0.3422215
vt 0.9998882 0.2685906
vt 0.98355436 0.26859754
vt 0.98355436 0.23733993
vt 0.9998882 0.23733297
vt 0.98355436 0.44578207
vt 0.98355436 0.4545182
vt 0.9998882 0.45451126
vt 0.9998882 0.44577512
vt 0.98355436 0.44578207
vt 0.96722054 0.44578904
vt 0.96722054 0.45452517
vt 0.98355436 0.4545182
vt 0.95076317 0.38326922
vt 0.93430585 0.38329273
vt 0.93430585 0.38781318
vt 0.95076317 0.38778967
vt 0.95076317 0.38326922
vt 0.95076317 0.38778967
vt 0.9672205 0.38776615
vt 0.9672205 0.38324574
vt 0.4765111 0.55000436
vt 0.50757957 0.54999363
vt 0.50757957 0.54547083
vt 0.4765111 0.54548156
vt 0.5828437 0.54996765
vt 0.5828437 0.5454448
vt 0.65845054 0.5454186
vt 0.6584506 0.54994154
vt 0.69054705 0.5499304
vt 0.690547 0.54540753
vt 0.4765111 0.55000436
vt 0.4765111 0.54548156
vt 0.4675405 0.5454846
vt 0.4675405 0.55000746
vt 0.94935083 0.5499978
vt 0.96582144 0.5499977
vt 0.96582144 0.54547477
vt 0.94935083 0.5454749
vt 0.94935083 0.5499978
vt 0.94935083 0.5454749
vt 0.9328803 0.545475
vt 0.9328803 0.5499979
vt 0.22307315 0.92886245
vt 0.1909671 0.9288621
vt 0.19096708 0.93338495
vt 0.22307315 0.9333854
vt 0.115337655 0.9288611
vt 0.11533765 0.93338406
vt 0.040050983 0.9333831
vt 0.22307315 0.92886245
vt 0.22307315 0.9333854
vt 0.23341751 0.9333855
vt 0.23341751 0.9288626
vt 0.008973271 0.74402106
vt 1.04563975E-08 0.74402094
vt 3.485466E-09 0.8803886
vt 0.008973264 0.8803886
vt 1.8298696E-08 0.6064963
vt 0.008973276 0.6064964
vt 0.008973262 0.92885983
vt 3.485466E-09 0.9288597
vt 0.008973278 0.5545541
vt 2.0912795E-08 0.554554
vt 0.008973262 0.92885983
vt 3.485466E-09 0.9288597
vt 6.7520887E-09 0.93338263
vt 0.008973262 0.93338275
vt 0.008973262 0.92885983
vt 0.008973262 0.93338275
vt 0.040050983 0.9333831
vt 0.04005099 0.9288602
vt 0.115337655 0.9288611
vt 0.69054705 0.73476684
vt 0.7008883 0.73476326
vt 0.7008883 0.5983974
vt 0.690547 0.59840095
vt 0.7008883 0.8722862
vt 0.69054705 0.8722898
vt 0.69054705 0.5499304
vt 0.7008883 0.5499268
vt 0.69054705 0.9242314
vt 0.70088834 0.92422783
vt 0.69054705 0.5499304
vt 0.7008883 0.5499268
vt 0.7008883 0.54540396
vt 0.690547 0.54540753
vt 0.98355436 0.23733993
vt 0.98355436 0.22726892
vt 0.96722054 0.22727588
vt 0.96722054 0.23734689
vt 0.98355436 0.23733993
vt 0.9998882 0.23733297
vt 0.9998882 0.22726196
vt 0.98355436 0.22726892
vt 0.9836103 0.010077643
vt 0.9836103 6.6777775E-06
vt 0.96722054 1.3355399E-05
vt 0.96722054 0.010084321
vt 0.9836103 0.010077643
vt 1 0.010070966
vt 1 0
vt 0.9836103 6.6777775E-06
vt 0.69054705 0.9242314
vt 0.69054705 0.9333824
vt 0.70088834 0.9333789
vt 0.70088834 0.92422783
vt 0.008973278 0.5545541
vt 0.008973276 0.54540294
vt 2.0721927E-08 0.5454028
vt 2.0912795E-08 0.554554
vt 0.3792276 0.9895181
vt 0.37922764 0.9582649
vt 0.358424 0.9582651
vt 0.358424 0.98951834
vt 0.37922764 0.884578
vt 0.358424 0.8845782
vt 0.358424 0.8112885
vt 0.37922764 0.8112882
vt 0.37922764 0.7812263
vt 0.358424 0.7812265
vt 0.31276882 0.8845788
vt 0.31276882 0.8112891
vt 0.26660514 0.81128955
vt 0.26660514 0.8845793
vt 0.24427606 0.8845796
vt 0.24427606 0.8112899
vt 0.26660514 0.95826626
vt 0.24427608 0.9582665
vt 0.31276882 0.9582657
vt 0.24427606 0.78122795
vt 0.2666051 0.78122765
vt 0.3127688 0.7812271
vt 0.24427608 0.9895198
vt 0.26660514 0.9895195
vt 0.3127688 0.98951894
vt 0.3792276 0.9895181
vt 0.3876055 0.98951805
vt 0.3876055 0.9582647
vt 0.37922764 0.9582649
vt 0.37922764 0.884578
vt 0.3876055 0.8845779
vt 0.3876055 0.8112881
vt 0.37922764 0.8112882
vt 0.37922764 0.7812263
vt 0.3876055 0.78122616
vt 0.3792276 0.9895181
vt 0.37922764 0.9995545
vt 0.3876055 0.99955446
vt 0.3876055 0.98951805
vt 0.3792276 0.9895181
vt 0.358424 0.98951834
vt 0.358424 0.99955475
vt 0.37922764 0.9995545
vt 0.3127688 0.98951894
vt 0.3127688 0.99955535
vt 0.26660514 0.99955595
vt 0.26660514 0.9895195
vt 0.24427608 0.9895198
vt 0.24427606 0.9995562
vt 0.4040761 0.91400576
vt 0.42054668 0.91400564
vt 0.42054668 0.8937939
vt 0.4040761 0.89379406
vt 0.40407604 0.84943783
vt 0.42054665 0.8494377
vt 0.42054665 0.8045874
vt 0.40407604 0.8045876
vt 0.40407604 0.7828938
vt 0.42054665 0.78289366
vt 0.4040761 0.91400576
vt 0.4040761 0.9221452
vt 0.42054668 0.92214507
vt 0.42054668 0.91400564
vt 0.4040761 0.91400576
vt 0.3876055 0.9140059
vt 0.3876055 0.9221453
vt 0.4040761 0.9221452
vt 0.4040761 0.91400576
vt 0.4040761 0.89379406
vt 0.3876055 0.8937941
vt 0.3876055 0.9140059
vt 0.40407604 0.84943783
vt 0.3876055 0.84943795
vt 0.3876055 0.80458766
vt 0.40407604 0.8045876
vt 0.40407604 0.7828938
vt 0.3876055 0.7828939
vt 0.84631944 0.9911361
vt 0.84631944 0.9610831
vt 0.8255161 0.9610759
vt 0.8255161 0.9911289
vt 0.84631944 0.88781524
vt 0.8255161 0.8878081
vt 0.8255161 0.8141432
vt 0.84631944 0.8141504
vt 0.8463195 0.7829065
vt 0.8255161 0.78289926
vt 0.7798615 0.8877922
vt 0.7798615 0.8141274
vt 0.7336984 0.8141115
vt 0.73369837 0.88777626
vt 0.71136963 0.88776857
vt 0.71136963 0.8141037
vt 0.73369837 0.9610442
vt 0.71136963 0.96103644
vt 0.77986145 0.96106017
vt 0.71136963 0.7828598
vt 0.7336984 0.7828675
vt 0.7798615 0.78288347
vt 0.71136963 0.9910894
vt 0.73369837 0.9910971
vt 0.77986145 0.99111307
vt 0.84631944 0.9911361
vt 0.8546972 0.991139
vt 0.8546972 0.96108603
vt 0.84631944 0.9610831
vt 0.84631944 0.88781524
vt 0.8546972 0.88781816
vt 0.8546972 0.8141533
vt 0.84631944 0.8141504
vt 0.8463195 0.7829065
vt 0.8546972 0.7829094
vt 0.84631944 0.9911361
vt 0.84631944 0.9995816
vt 0.8546972 0.9995845
vt 0.8546972 0.991139
vt 0.84631944 0.9911361
vt 0.8255161 0.9911289
vt 0.8255161 0.99957436
vt 0.84631944 0.9995816
vt 0.77986145 0.99111307
vt 0.77986145 0.99955857
vt 0.73369837 0.9995426
vt 0.73369837 0.9910971
vt 0.71136963 0.9910894
vt 0.71136963 0.9995349
vt 0.43700403 0.7809367
vt 0.42054668 0.7809602
vt 0.42054668 0.8011608
vt 0.437004 0.80113727
vt 0.437004 0.84546906
vt 0.42054665 0.8454926
vt 0.42054665 0.8903181
vt 0.43700397 0.89029455
vt 0.43700397 0.9119764
vt 0.42054665 0.9119999
vt 0.43700403 0.7809367
vt 0.437004 0.7728017
vt 0.42054668 0.77282524
vt 0.42054668 0.7809602
vt 0.43700403 0.7809367
vt 0.45346135 0.7809132
vt 0.45346132 0.77277815
vt 0.437004 0.7728017
vt 0.43700403 0.7809367
vt 0.437004 0.80113727
vt 0.45346132 0.8011138
vt 0.45346135 0.7809132
vt 0.437004 0.84546906
vt 0.45346135 0.8454455
vt 0.45346135 0.89027107
vt 0.43700397 0.89029455
vt 0.43700397 0.9119764
vt 0.45346132 0.91195285
vt 0.9822112 0.5539471
vt 0.98221123 0.58407164
vt 0.9986009 0.58406496
vt 0.9986009 0.5539404
vt 0.98221123 0.65751404
vt 0.9986009 0.65750736
vt 0.9986009 0.7313477
vt 0.98221123 0.7313544
vt 0.98221123 0.7626727
vt 0.99860096 0.76266605
vt 0.9822112 0.5539471
vt 0.96582144 0.55395377
vt 0.96582144 0.5840783
vt 0.98221123 0.58407164
vt 0.98221123 0.65751404
vt 0.9658215 0.6575207
vt 0.9658215 0.73136103
vt 0.98221123 0.7313544
vt 0.98221123 0.7626727
vt 0.9658215 0.7626794
vt 0.9822112 0.5539471
vt 0.9822112 0.54548144
vt 0.96582144 0.5454881
vt 0.96582144 0.55395377
vt 0.9822112 0.5539471
vt 0.9986009 0.5539404
vt 0.9986009 0.54547477
vt 0.9822112 0.54548144
vt 0.98215526 0.9915274
vt 0.98215526 0.9614028
vt 0.96582144 0.9614097
vt 0.96582144 0.99153435
vt 0.9821553 0.8879601
vt 0.9658215 0.88796705
vt 0.9658215 0.8141265
vt 0.9821553 0.81411946
vt 0.9821553 0.78280103
vt 0.9658215 0.78280807
vt 0.98215526 0.9915274
vt 0.9984891 0.9915204
vt 0.9984891 0.9613958
vt 0.98215526 0.9614028
vt 0.9821553 0.8879601
vt 0.9984891 0.8879531
vt 0.9984891 0.81411254
vt 0.9821553 0.81411946
vt 0.9821553 0.78280103
vt 0.9984891 0.7827941
vt 0.98215526 0.9915274
vt 0.98215526 0.99999297
vt 0.9984891 0.99998605
vt 0.9984891 0.9915204
vt 0.98215526 0.9915274
vt 0.96582144 0.99153435
vt 0.96582144 0.99999994
vt 0.98215526 0.99999297
vt 0.9821553 0.78280103
vt 0.9821553 0.7727437
vt 0.9658215 0.7727507
vt 0.9658215 0.78280807
vt 0.9821553 0.78280103
vt 0.9984891 0.7827941
vt 0.9984891 0.7727367
vt 0.9821553 0.7727437
vt 0.98221123 0.7626727
vt 0.98221123 0.77273005
vt 0.99860096 0.7727234
vt 0.99860096 0.76266605
vt 0.98221123 0.7626727
vt 0.9658215 0.7626794
vt 0.96582156 0.7727367
vt 0.98221123 0.77273005
vt 0.8463195 0.7829065
vt 0.84631956 0.77287304
vt 0.82551616 0.7728659
vt 0.8255161 0.78289926
vt 0.7798615 0.78288347
vt 0.77986157 0.77285004
vt 0.7336985 0.7728341
vt 0.7336984 0.7828675
vt 0.71136963 0.7828598
vt 0.71136963 0.77282643
vt 0.8463195 0.7829065
vt 0.8546972 0.7829094
vt 0.8546973 0.77287596
vt 0.84631956 0.77287304
vt 0.37922764 0.7812263
vt 0.3792276 0.7727783
vt 0.35842398 0.7727785
vt 0.358424 0.7812265
vt 0.3127688 0.7812271
vt 0.3127688 0.7727791
vt 0.26660514 0.77277964
vt 0.2666051 0.78122765
vt 0.24427606 0.78122795
vt 0.24427606 0.7727799
vt 0.37922764 0.7812263
vt 0.3876055 0.78122616
vt 0.38760546 0.77277815
vt 0.3792276 0.7727783
vt 0.24427606 0.8845796
vt 0.24427606 0.8112899
vt 0.2338643 0.81128997
vt 0.2338643 0.8845798
vt 0.23386432 0.9582666
vt 0.24427608 0.9582665
vt 0.24427606 0.78122795
vt 0.2338643 0.78122807
vt 0.24427608 0.9895198
vt 0.2338643 0.98951983
vt 0.24427606 0.78122795
vt 0.24427606 0.7727799
vt 0.2338643 0.77278
vt 0.2338643 0.78122807
vt 0.71136963 0.88776857
vt 0.71136963 0.8141037
vt 0.700958 0.81410015
vt 0.700958 0.887765
vt 0.700958 0.96103287
vt 0.71136963 0.96103644
vt 0.71136963 0.7828598
vt 0.700958 0.7828562
vt 0.71136963 0.9910894
vt 0.700958 0.9910858
vt 0.71136963 0.7828598
vt 0.71136963 0.77282643
vt 0.700958 0.7728228
vt 0.700958 0.7828562
vt 0.43700397 0.9119764
vt 0.42054665 0.9119999
vt 0.42054665 0.92210984
vt 0.43700397 0.92208636
vt 0.43700397 0.9119764
vt 0.43700397 0.92208636
vt 0.45346132 0.9220628
vt 0.45346132 0.91195285
vt 0.71136963 0.9910894
vt 0.700958 0.9910858
vt 0.700958 0.9995313
vt 0.71136963 0.9995349
vt 0.40407604 0.7828938
vt 0.42054665 0.78289366
vt 0.42054668 0.77277815
vt 0.4040761 0.7727783
vt 0.40407604 0.7828938
vt 0.4040761 0.7727783
vt 0.3876055 0.7727784
vt 0.3876055 0.7828939
vt 0.24427608 0.9895198
vt 0.2338643 0.98951983
vt 0.2338643 0.9995563
vt 0.24427606 0.9995562
vn 0.9999708 0 0.007648724
vn 0.9999708 0 0.007648724
vn 0.9999708 0 0.007648724
vn 0.9999708 0 0.007648724
vn 0.9999708 0 0.007648827
vn 0.9999708 0 0.007648827
vn 0.9999708 0 0.007648908
vn 0.9999708 0 0.007648908
vn 0.9999708 0 0.007648908
vn 0.9999708 0 0.007648908
vn 0.9999708 0 0.0076487456
vn 0.9999708 0 0.0076487404
vn 0.9999708 0 0.007648485
vn 0.9999708 0 0.007648485
vn 0.9999708 0 0.007648485
vn 0.9999708 0 0.007648485
vn 0.9999708 0 0.0076485663
vn 0.9999708 0 0.0076485663
vn 0.9999708 0 0.0076487456
vn 0.9999708 0 0.007648626
vn 0.9999708 0 0.007648626
vn 0.9999708 0 0.0076486943
vn 0.9999708 0 0.007648626
vn 0.9999708 0 0.007648626
vn 0.9999708 0 0.0076488443
vn 0.87260693 0.48837742 0.0066745537
vn 0.87260693 0.48837742 0.0066745537
vn 0.87260693 0.48837742 0.0066745537
vn 0.87260693 0.48837742 0.0066745537
vn 0.8726067 0.48837796 0.0066745775
vn 0.8726067 0.48837796 0.0066745775
vn 0.8726074 0.4883768 0.0066746003
vn 0.8726074 0.4883768 0.0066746003
vn 0.8726074 0.4883768 0.0066746003
vn 0.8726074 0.4883768 0.0066746003
vn 0.73060846 0.49308333 0.47231355
vn 0.73060846 0.49308333 0.47231355
vn 0.73060846 0.49308333 0.47231355
vn 0.73060846 0.49308333 0.47231355
vn 0.88006556 0 0.47485223
vn 0.88006556 0 0.47485223
vn 0.88006556 0 0.47485223
vn 0.88006556 0 0.47485223
vn 0.88006556 0 0.4748521
vn 0.88006556 0 0.4748521
vn 0.88006556 0 0.47485223
vn 0.88006556 0 0.47485223
vn 0.88006556 0 0.47485223
vn 0.88006556 0 0.47485223
vn 0.19779201 0 0.98024404
vn 0.19779201 0 0.98024404
vn 0.19779201 0 0.98024404
vn 0.19779201 0 0.98024404
vn 0.19779189 0 0.98024404
vn 0.19779189 0 0.98024404
vn 0.19779187 0 0.98024404
vn 0.19779187 0 0.98024404
vn 0.19779187 0 0.98024404
vn 0.19779187 0 0.98024404
vn 0.21898702 0.37920982 0.89902425
vn 0.21898702 0.37920982 0.89902425
vn 0.21898702 0.37920982 0.89902425
vn 0.21898702 0.37920982 0.89902425
vn -0.23271339 0.37920916 0.8955696
vn -0.23271339 0.37920916 0.8955696
vn -0.23271339 0.37920916 0.8955696
vn -0.23271339 0.37920916 0.8955696
vn -0.21276307 1.4495359E-07 0.97710377
vn -0.21276307 1.4495359E-07 0.97710377
vn -0.21276307 1.4495359E-07 0.97710377
vn -0.21276307 1.4495359E-07 0.97710377
vn -0.21276304 0 0.97710377
vn -0.21276304 0 0.97710377
vn -0.21276313 0 0.97710377
vn -0.21276313 0 0.97710377
vn -0.21276313 0 0.97710377
vn -0.21276313 0 0.97710377
vn -0.9999708 0 -0.0076486818
vn -0.9999708 0 -0.0076486818
vn -0.9999708 0 -0.0076486818
vn -0.9999708 0 -0.0076486818
vn -0.9999708 0 -0.0076485635
vn -0.9999708 0 -0.0076485635
vn -0.9999708 0 -0.0076483744
vn -0.9999708 0 -0.0076483744
vn -0.9999708 0 -0.0076483744
vn -0.9999708 0 -0.0076483744
vn -0.9999708 0 -0.00764866
vn -0.9999708 0 -0.0076488005
vn -0.9999708 0 -0.007648918
vn -0.9999708 0 -0.007648918
vn -0.9999708 0 -0.007648918
vn -0.9999708 0 -0.007648918
vn -0.9999708 0 -0.0076490003
vn -0.9999708 0 -0.0076490003
vn -0.9999708 0 -0.00764866
vn -0.9999708 0 -0.007648908
vn -0.9999708 0 -0.007648908
vn -0.9999708 0 -0.0076486995
vn -0.9999708 0 -0.0076486887
vn -0.9999708 0 -0.0076486887
vn -0.9999708 0 -0.0076487525
vn -0.87260747 0.48837647 -0.0066743926
vn -0.87260747 0.48837647 -0.0066743926
vn -0.87260747 0.48837647 -0.0066743926
vn -0.87260747 0.48837647 -0.0066743926
vn -0.87260675 0.48837766 -0.0066745565
vn -0.87260675 0.48837766 -0.0066745565
vn -0.8726073 0.48837695 -0.006674553
vn -0.8726073 0.48837695 -0.006674553
vn -0.8726073 0.48837695 -0.006674553
vn -0.8726073 0.48837695 -0.006674553
vn -0.70523494 0.47631392 -0.5251368
vn -0.70523494 0.47631392 -0.5251368
vn -0.70523494 0.47631392 -0.5251368
vn -0.70523494 0.47631392 -0.5251368
vn -0.8494385 0 -0.5276876
vn -0.8494385 0 -0.5276876
vn -0.8494385 0 -0.5276876
vn -0.8494385 0 -0.5276876
vn -0.8494379 0 -0.5276887
vn -0.8494379 0 -0.5276887
vn -0.8494379 -1.240775E-07 -0.5276887
vn -0.8494379 -1.240775E-07 -0.5276887
vn -0.8494379 -1.240775E-07 -0.5276887
vn -0.8494379 -1.240775E-07 -0.5276887
vn -0.17147934 0 -0.98518777
vn -0.17147934 0 -0.98518777
vn -0.17147934 0 -0.98518777
vn -0.17147934 0 -0.98518777
vn -0.17147988 0 -0.98518765
vn -0.17147988 0 -0.98518765
vn -0.17147993 0 -0.98518765
vn -0.17147993 0 -0.98518765
vn -0.17147993 0 -0.98518765
vn -0.17147993 0 -0.98518765
vn -0.19378023 0.3371765 -0.9212824
vn -0.19378023 0.3371765 -0.9212824
vn -0.19378023 0.3371765 -0.9212824
vn -0.19378023 0.3371765 -0.9212824
vn 0.20785141 0.33717808 -0.91820955
vn 0.20785141 0.33717808 -0.91820955
vn 0.20785141 0.33717808 -0.91820955
vn 0.20785141 0.33717808 -0.91820955
vn 0.18653028 0 -0.9824492
vn 0.18653028 0 -0.9824492
vn 0.18653028 0 -0.9824492
vn 0.18653028 0 -0.9824492
vn 0.18653023 0 -0.9824492
vn 0.18653023 0 -0.9824492
vn 0.18653025 0 -0.9824492
vn 0.18653025 0 -0.9824492
vn 0.18653025 0 -0.9824492
vn 0.18653025 0 -0.9824492
vn 0.09765209 -0.99522036 0.0007478018
vn 0.09765209 -0.99522036 0.0007478018
vn 0.09765209 -0.99522036 0.0007478018
vn 0.09765209 -0.99522036 0.0007478018
vn 0.09765176 -0.99522036 0.0007469287
vn 0.09765176 -0.99522036 0.0007469287
vn 0.09764977 -0.9952206 0.00074694207
vn 0.09764977 -0.9952206 0.00074694207
vn 0.09764977 -0.9952206 0.00074694207
vn 0.09764977 -0.9952206 0.00074694207
vn -0.09765234 -0.99522036 -0.00074604305
vn -0.09765234 -0.99522036 -0.00074604305
vn -0.09765234 -0.99522036 -0.00074604305
vn -0.09765234 -0.99522036 -0.00074604305
vn -0.09765258 -0.99522024 -0.0007469343
vn -0.09765258 -0.99522024 -0.0007469343
vn -0.097650535 -0.9952205 -0.0007469407
vn -0.097650535 -0.9952205 -0.0007469407
vn -0.097650535 -0.9952205 -0.0007469407
vn -0.097650535 -0.9952205 -0.0007469407
vn -0.1127382 -0.97110397 -0.2103502
vn -0.1127382 -0.97110397 -0.2103502
vn -0.1127382 -0.97110397 -0.2103502
vn -0.1127382 -0.97110397 -0.2103502
vn 0.115944326 -0.97110367 -0.2086016
vn 0.115944326 -0.97110367 -0.2086016
vn 0.115944326 -0.97110367 -0.2086016
vn 0.115944326 -0.97110367 -0.2086016
vn -0.19472618 0.98085654 -0.0014890201
vn -0.19472618 0.98085654 -0.0014890201
vn -0.19472618 0.98085654 -0.0014890201
vn -0.19472618 0.98085654 -0.0014890201
vn -0.19472705 0.98085636 -0.0014894691
vn -0.19472705 0.98085636 -0.0014894691
vn -0.19472666 0.9808564 -0.0014894211
vn -0.19472666 0.9808564 -0.0014894211
vn -0.19472666 0.9808564 -0.0014894211
vn -0.19472666 0.9808564 -0.0014894211
vn 0.19472618 0.98085654 0.0014898758
vn 0.19472618 0.98085654 0.0014898758
vn 0.19472618 0.98085654 0.0014898758
vn 0.19472618 0.98085654 0.0014898758
vn 0.1947274 0.98085636 0.001489456
vn 0.1947274 0.98085636 0.001489456
vn 0.19472624 0.98085654 0.0014894528
vn 0.19472624 0.98085654 0.0014894528
vn 0.19472624 0.98085654 0.0014894528
vn 0.19472624 0.98085654 0.0014894528
vn 0.21630639 0.8954107 -0.38916713
vn 0.21630639 0.8954107 -0.38916713
vn 0.21630639 0.8954107 -0.38916713
vn 0.21630639 0.8954107 -0.38916713
vn -0.21032757 0.8954112 -0.39242965
vn -0.21032757 0.8954112 -0.39242965
vn -0.21032757 0.8954112 -0.39242965
vn -0.21032757 0.8954112 -0.39242965
vn -0.16667397 -0.586774 -0.79241157
vn -0.16667397 -0.586774 -0.79241157
vn -0.16667397 -0.586774 -0.79241157
vn -0.16667397 -0.586774 -0.79241157
vn 0.1787769 -0.58677554 -0.7897678
vn 0.1787769 -0.58677554 -0.7897678
vn 0.1787769 -0.58677554 -0.7897678
vn 0.1787769 -0.58677554 -0.7897678
vn -0.661931 -0.7495476 -0.005062742
vn -0.661931 -0.7495476 -0.005062742
vn -0.661931 -0.7495476 -0.005062742
vn -0.661931 -0.7495476 -0.005062742
vn -0.6619252 -0.74955285 -0.0050630677
vn -0.6619252 -0.74955285 -0.0050630677
vn -0.66192776 -0.7495505 -0.005063327
vn -0.66192776 -0.7495505 -0.005063327
vn -0.66192776 -0.7495505 -0.005063327
vn -0.66192776 -0.7495505 -0.005063327
vn -0.54059684 -0.7387276 -0.40253782
vn -0.54059684 -0.7387276 -0.40253782
vn -0.54059684 -0.7387276 -0.40253782
vn -0.54059684 -0.7387276 -0.40253782
vn 0.18218072 -0.63829815 0.7479209
vn 0.18218072 -0.63829815 0.7479209
vn 0.18218072 -0.63829815 0.7479209
vn 0.18218072 -0.63829815 0.7479209
vn -0.19359984 -0.63829565 0.7450489
vn -0.19359984 -0.63829565 0.7450489
vn -0.19359984 -0.63829565 0.7450489
vn -0.19359984 -0.63829565 0.7450489
vn 0.6619267 -0.74955153 0.0050630365
vn 0.6619267 -0.74955153 0.0050630365
vn 0.6619267 -0.74955153 0.0050630365
vn 0.6619267 -0.74955153 0.0050630365
vn 0.6619257 -0.74955237 0.005063064
vn 0.6619257 -0.74955237 0.005063064
vn 0.6619257 -0.74955237 0.005063064
vn 0.55195063 -0.7536815 0.356812
vn 0.55195063 -0.7536815 0.356812
vn 0.55195063 -0.7536815 0.356812
vn 0.55195063 -0.7536815 0.356812
vn 0.8574102 0 -0.5146336
vn 0.8574102 0 -0.5146336
vn 0.8574102 0 -0.5146336
vn 0.8574102 0 -0.5146336
vn 0.8574107 0 -0.51463276
vn 0.8574107 0 -0.51463276
vn 0.8574102 0 -0.5146337
vn 0.8574102 0 -0.5146337
vn 0.85741 0 -0.51463395
vn 0.85741 0 -0.51463395
vn 0.5466878 -0.7387291 -0.39422303
vn 0.5466878 -0.7387291 -0.39422303
vn 0.5466878 -0.7387291 -0.39422303
vn 0.5466878 -0.7387291 -0.39422303
vn 0.6619266 -0.7495515 0.0050636013
vn 0.6619266 -0.7495515 0.0050636013
vn 0.6619266 -0.7495515 0.0050636013
vn 0.6619266 -0.7495515 0.0050636013
vn 0.6619257 -0.74955237 0.005063064
vn -0.8872268 0 0.46133348
vn -0.8872268 0 0.46133348
vn -0.8872268 0 0.46133348
vn -0.8872268 0 0.46133348
vn -0.8872265 0 0.46133402
vn -0.8872265 0 0.46133402
vn -0.8872268 0 0.46133348
vn -0.8872268 0 0.46133348
vn -0.88722664 0 0.46133384
vn -0.88722664 0 0.46133384
vn -0.5573429 -0.75368255 0.34832683
vn -0.5573429 -0.75368255 0.34832683
vn -0.5573429 -0.75368255 0.34832683
vn -0.5573429 -0.75368255 0.34832683
vn -0.22010997 0.91283256 0.34393063
vn -0.22010997 0.91283256 0.34393063
vn -0.22010997 0.91283256 0.34393063
vn -0.22010997 0.91283256 0.34393063
vn 0.21482344 0.91283244 0.34725744
vn 0.21482344 0.91283244 0.34725744
vn 0.21482344 0.91283244 0.34725744
vn 0.21482344 0.91283244 0.34725744
vn 0.11356882 -0.9764213 0.18358526
vn 0.11356882 -0.9764213 0.18358526
vn 0.11356882 -0.9764213 0.18358526
vn 0.11356882 -0.9764213 0.18358526
vn -0.11636229 -0.97642195 0.18182403
vn -0.11636229 -0.97642195 0.18182403
vn -0.11636229 -0.97642195 0.18182403
vn -0.11636229 -0.97642195 0.18182403
vn -0.73774856 0.49308312 0.46108124
vn -0.73774856 0.49308312 0.46108124
vn -0.73774856 0.49308312 0.46108124
vn -0.73774856 0.49308312 0.46108124
vn 0.71318424 0.4763147 -0.51428837
vn 0.71318424 0.4763147 -0.51428837
vn 0.71318424 0.4763147 -0.51428837
vn 0.71318424 0.4763147 -0.51428837
vn 0.9999708 0 0.0076486547
vn 0.9999708 0 0.0076486547
vn 0.9999708 0 0.0076486547
vn 0.9999708 0 0.0076486547
vn 0.9999708 0 0.007648723
vn 0.9999708 0 0.007648723
vn 0.9999708 0 0.007648739
vn 0.9999708 0 0.007648739
vn 0.9999708 0 0.007648739
vn 0.9999708 0 0.007648739
vn 0.9999708 0 0.007648649
vn 0.9999708 0 0.007648649
vn 0.9999708 0 0.0076487605
vn 0.9999708 0 0.0076487605
vn 0.9999708 0 0.0076487605
vn 0.9999708 0 0.0076487605
vn 0.9999708 0 0.0076486403
vn 0.9999708 0 0.0076486403
vn 0.9999708 0 0.0076487386
vn 0.9999708 0 0.0076487446
vn 0.9999708 0 0.0076487446
vn 0.9999708 0 0.0076486724
vn 0.9999708 0 0.0076485937
vn 0.9999708 0 0.0076485937
vn 0.9999708 0 0.007648709
vn 0.84636366 0.53256613 0.00647391
vn 0.84636366 0.53256613 0.00647391
vn 0.84636366 0.53256613 0.00647391
vn 0.84636366 0.53256613 0.00647391
vn 0.84636533 0.53256345 0.0064738113
vn 0.84636533 0.53256345 0.0064738113
vn 0.84636486 0.5325642 0.006473735
vn 0.84636486 0.5325642 0.006473735
vn 0.84636486 0.5325642 0.006473735
vn 0.84636486 0.5325642 0.006473735
vn 0.70802814 0.5372389 0.4583345
vn 0.70802814 0.5372389 0.4583345
vn 0.70802814 0.5372389 0.4583345
vn 0.70802814 0.5372389 0.4583345
vn 0.87979937 0 0.47534528
vn 0.87979937 0 0.47534528
vn 0.87979937 0 0.47534528
vn 0.87979937 0 0.47534528
vn 0.87979925 0 0.47534543
vn 0.87979925 0 0.47534543
vn 0.87979925 0 0.47534537
vn 0.87979925 0 0.47534537
vn 0.87979925 0 0.47534537
vn 0.87979925 0 0.47534537
vn 0.1975254 3.7253935E-07 0.98029774
vn 0.1975254 3.7253935E-07 0.98029774
vn 0.1975254 3.7253935E-07 0.98029774
vn 0.1975254 3.7253935E-07 0.98029774
vn 0.19752513 0 0.98029774
vn 0.19752513 0 0.98029774
vn 0.19752525 0 0.98029774
vn 0.19752525 0 0.98029774
vn 0.19752525 0 0.98029774
vn 0.19752525 0 0.98029774
vn 0.21471025 0.4180291 0.8826954
vn 0.21471025 0.4180291 0.8826954
vn 0.21471025 0.4180291 0.8826954
vn 0.21471025 0.4180291 0.8826954
vn -0.22818634 0.4180297 0.87930775
vn -0.22818634 0.4180297 0.87930775
vn -0.22818634 0.4180297 0.87930775
vn -0.22818634 0.4180297 0.87930775
vn -0.21249735 3.7253898E-07 0.9771616
vn -0.21249735 3.7253898E-07 0.9771616
vn -0.21249735 3.7253898E-07 0.9771616
vn -0.21249735 3.7253898E-07 0.9771616
vn -0.21249738 -2.3544905E-07 0.9771616
vn -0.21249738 -2.3544905E-07 0.9771616
vn -0.2124973 -4.8141123E-07 0.9771617
vn -0.2124973 -4.8141123E-07 0.9771617
vn -0.2124973 -4.8141123E-07 0.9771617
vn -0.2124973 -4.8141123E-07 0.9771617
vn -0.9999708 0 -0.007648734
vn -0.9999708 0 -0.007648734
vn -0.9999708 0 -0.007648734
vn -0.9999708 0 -0.007648734
vn -0.9999708 0 -0.0076485295
vn -0.9999708 0 -0.0076485295
vn -0.9999708 0 -0.0076486547
vn -0.9999708 0 -0.0076486547
vn -0.9999708 0 -0.0076486547
vn -0.9999708 0 -0.0076486547
vn -0.9999708 0 -0.0076485877
vn -0.9999708 0 -0.0076485877
vn -0.9999708 0 -0.007648525
vn -0.9999708 0 -0.007648525
vn -0.9999708 0 -0.007648525
vn -0.9999708 0 -0.007648525
vn -0.9999708 0 -0.007648812
vn -0.9999708 0 -0.007648812
vn -0.9999708 0 -0.0076486818
vn -0.9999708 0 -0.0076488648
vn -0.9999708 0 -0.0076488648
vn -0.9999708 0 -0.007648807
vn -0.9999708 0 -0.0076487446
vn -0.9999708 0 -0.0076487446
vn -0.9999708 0 -0.0076488983
vn -0.84636444 0.53256506 -0.006474174
vn -0.84636444 0.53256506 -0.006474174
vn -0.84636444 0.53256506 -0.006474174
vn -0.84636444 0.53256506 -0.006474174
vn -0.8463647 0.5325645 -0.0064737936
vn -0.8463647 0.5325645 -0.0064737936
vn -0.8463633 0.53256667 -0.006473713
vn -0.8463633 0.53256667 -0.006473713
vn -0.8463633 0.53256667 -0.006473713
vn -0.8463633 0.53256667 -0.006473713
vn -0.6792949 0.51591164 -0.52191335
vn -0.6792949 0.51591164 -0.52191335
vn -0.6792949 0.51591164 -0.52191335
vn -0.6792949 0.51591164 -0.52191335
vn -0.8419188 3.0439412E-07 -0.5396043
vn -0.8419188 3.0439412E-07 -0.5396043
vn -0.8419188 3.0439412E-07 -0.5396043
vn -0.8419188 3.0439412E-07 -0.5396043
vn -0.8419183 0 -0.53960496
vn -0.8419183 0 -0.53960496
vn -0.8419188 0 -0.5396043
vn -0.8419188 0 -0.5396043
vn -0.8419188 0 -0.5396043
vn -0.8419188 0 -0.5396043
vn -0.16609952 0 -0.98610896
vn -0.16609952 0 -0.98610896
vn -0.16609952 0 -0.98610896
vn -0.16609952 0 -0.98610896
vn -0.1660996 0 -0.98610896
vn -0.1660996 0 -0.98610896
vn -0.16609964 0 -0.98610896
vn -0.16609964 0 -0.98610896
vn -0.16609964 0 -0.98610896
vn -0.16609964 0 -0.98610896
vn -0.18582547 0.36394447 -0.9126957
vn -0.18582547 0.36394447 -0.9126957
vn -0.18582547 0.36394447 -0.9126957
vn -0.18582547 0.36394447 -0.9126957
vn 0.19976442 0.3639424 -0.9097473
vn 0.19976442 0.3639424 -0.9097473
vn 0.19976442 0.3639424 -0.9097473
vn 0.19976442 0.3639424 -0.9097473
vn 0.18116504 0 -0.98345274
vn 0.18116504 0 -0.98345274
vn 0.18116504 0 -0.98345274
vn 0.18116504 0 -0.98345274
vn 0.18116528 0 -0.9834526
vn 0.18116528 0 -0.9834526
vn 0.1811651 0 -0.9834526
vn 0.1811651 0 -0.9834526
vn 0.1811651 0 -0.9834526
vn 0.1811651 0 -0.9834526
vn 0.21434854 -0.97675586 0.0016395967
vn 0.21434854 -0.97675586 0.0016395967
vn 0.21434854 -0.97675586 0.0016395967
vn 0.21434854 -0.97675586 0.0016395967
vn 0.21434678 -0.9767562 0.0016395191
vn 0.21434678 -0.9767562 0.0016395191
vn 0.21434805 -0.976756 0.0016395808
vn 0.21434805 -0.976756 0.0016395808
vn 0.21434805 -0.976756 0.0016395808
vn 0.21434805 -0.976756 0.0016395808
vn -0.21434882 -0.97675574 -0.0016395962
vn -0.21434882 -0.97675574 -0.0016395962
vn -0.21434882 -0.97675574 -0.0016395962
vn -0.21434882 -0.97675574 -0.0016395962
vn -0.21434768 -0.9767561 -0.0016395444
vn -0.21434768 -0.9767561 -0.0016395444
vn -0.21434745 -0.9767561 -0.0016394542
vn -0.21434745 -0.9767561 -0.0016394542
vn -0.21434745 -0.9767561 -0.0016394542
vn -0.21434745 -0.9767561 -0.0016394542
vn -0.22612876 -0.87130463 -0.43553877
vn -0.22612876 -0.87130463 -0.43553877
vn -0.22612876 -0.87130463 -0.43553877
vn -0.22612876 -0.87130463 -0.43553877
vn 0.23276657 -0.8713045 -0.43202797
vn 0.23276657 -0.8713045 -0.43202797
vn 0.23276657 -0.8713045 -0.43202797
vn 0.23276657 -0.8713045 -0.43202797
vn -0.17389022 0.98476416 -0.0013300738
vn -0.17389022 0.98476416 -0.0013300738
vn -0.17389022 0.98476416 -0.0013300738
vn -0.17389022 0.98476416 -0.0013300738
vn -0.17389056 0.98476404 -0.0013300603
vn -0.17389056 0.98476404 -0.0013300603
vn -0.17388932 0.9847643 -0.0013300529
vn -0.17388932 0.9847643 -0.0013300529
vn -0.17388932 0.9847643 -0.0013300529
vn -0.17388932 0.9847643 -0.0013300529
vn 0.17388768 0.98476464 0.0013301403
vn 0.17388768 0.98476464 0.0013301403
vn 0.17388768 0.98476464 0.0013301403
vn 0.17388768 0.98476464 0.0013301403
vn 0.17389148 0.9847639 0.0013300594
vn 0.17389148 0.9847639 0.0013300594
vn 0.1738899 0.98476416 0.0013300529
vn 0.1738899 0.98476416 0.0013300529
vn 0.1738899 0.98476416 0.0013300529
vn 0.1738899 0.98476416 0.0013300529
vn 0.1957907 0.91082704 -0.36340064
vn 0.1957907 0.91082704 -0.36340064
vn 0.1957907 0.91082704 -0.36340064
vn 0.1957907 0.91082704 -0.36340064
vn -0.19020759 0.91082716 -0.36635363
vn -0.19020759 0.91082716 -0.36635363
vn -0.19020759 0.91082716 -0.36635363
vn -0.19020759 0.91082716 -0.36635363
vn -0.19925325 0.92903304 0.3117625
vn -0.19925325 0.92903304 0.3117625
vn -0.19925325 0.92903304 0.3117625
vn -0.19925325 0.92903304 0.3117625
vn 0.19446087 0.9290329 0.31477427
vn 0.19446087 0.9290329 0.31477427
vn 0.19446087 0.9290329 0.31477427
vn 0.19446087 0.9290329 0.31477427
vn 0.23313837 -0.8962309 0.37738153
vn 0.23313837 -0.8962309 0.37738153
vn 0.23313837 -0.8962309 0.37738153
vn 0.23313837 -0.8962309 0.37738153
vn -0.23888485 -0.89623094 0.3737701
vn -0.23888485 -0.89623094 0.3737701
vn -0.23888485 -0.89623094 0.3737701
vn -0.23888485 -0.89623094 0.3737701
vn -0.8869677 0 0.4618314
vn -0.8869677 0 0.4618314
vn -0.8869677 0 0.4618314
vn -0.8869677 0 0.4618314
vn -0.8869679 0 0.4618311
vn -0.8869679 0 0.4618311
vn -0.8869677 0 0.46183148
vn -0.8869677 0 0.46183148
vn -0.8869677 0 0.46183148
vn -0.8869677 0 0.46183148
vn -0.7149595 0.53723675 0.44744784
vn -0.7149595 0.53723675 0.44744784
vn -0.7149595 0.53723675 0.44744784
vn -0.7149595 0.53723675 0.44744784
vn 0.8500743 0 -0.5266628
vn 0.8500743 0 -0.5266628
vn 0.8500743 0 -0.5266628
vn 0.8500743 0 -0.5266628
vn 0.8500741 1.5022668E-07 -0.5266631
vn 0.8500741 1.5022668E-07 -0.5266631
vn 0.8500743 -2.8359938E-07 -0.5266627
vn 0.8500743 -2.8359938E-07 -0.5266627
vn 0.8500743 -2.8359938E-07 -0.5266627
vn 0.8500743 -2.8359938E-07 -0.5266627
vn 0.6872006 0.5159103 -0.51146066
vn 0.6872006 0.5159103 -0.51146066
vn 0.6872006 0.5159103 -0.51146066
vn 0.6872006 0.5159103 -0.51146066
vn 0.8921397 -0.4517082 0.006823991
vn 0.8921397 -0.4517082 0.006823991
vn 0.8921397 -0.4517082 0.006823991
vn 0.8921397 -0.4517082 0.006823991
vn 0.8921402 -0.4517071 0.0068239667
vn 0.8921402 -0.4517071 0.0068239667
vn 0.89213985 -0.45170787 0.006823926
vn 0.89213985 -0.45170787 0.006823926
vn 0.89213985 -0.45170772 0.0068238624
vn 0.89213985 -0.45170772 0.0068238624
vn 0.72190267 -0.43609262 -0.53728926
vn 0.72190267 -0.43609262 -0.53728926
vn 0.72190267 -0.43609262 -0.53728926
vn 0.72190267 -0.43609262 -0.53728926
vn -0.89214003 -0.4517074 -0.006823897
vn -0.89214003 -0.4517074 -0.006823897
vn -0.89214003 -0.4517074 -0.006823897
vn -0.89214003 -0.4517074 -0.006823897
vn -0.89213985 -0.45170772 -0.0068238378
vn -0.89213985 -0.45170772 -0.0068238378
vn -0.89213985 -0.45170787 -0.0068238648
vn -0.89213985 -0.45170787 -0.0068238648
vn -0.89213985 -0.45170778 -0.0068241036
vn -0.89213985 -0.45170778 -0.0068241036
vn -0.75436544 -0.45611718 0.47211212
vn -0.75436544 -0.45611718 0.47211212
vn -0.75436544 -0.45611718 0.47211212
vn -0.75436544 -0.45611718 0.47211212
vn -0.19032183 -0.29993525 -0.93478155
vn -0.19032183 -0.29993525 -0.93478155
vn -0.19032183 -0.29993525 -0.93478155
vn -0.19032183 -0.29993525 -0.93478155
vn 0.20459911 -0.299934 -0.9317611
vn 0.20459911 -0.299934 -0.9317611
vn 0.20459911 -0.299934 -0.9317611
vn 0.20459911 -0.299934 -0.9317611
vn -0.71359855 -0.43609464 -0.54826874
vn -0.71359855 -0.43609464 -0.54826874
vn -0.71359855 -0.43609464 -0.54826874
vn -0.71359855 -0.43609464 -0.54826874
vn 0.22164498 -0.34723574 0.91120845
vn 0.22164498 -0.34723574 0.91120845
vn 0.22164498 -0.34723574 0.91120845
vn 0.22164498 -0.34723574 0.91120845
vn -0.2355571 -0.34723547 0.9077116
vn -0.2355571 -0.34723547 0.9077116
vn -0.2355571 -0.34723547 0.9077116
vn -0.2355571 -0.34723547 0.9077116
vn 0.7470544 -0.45611823 0.48359677
vn 0.7470544 -0.45611823 0.48359677
vn 0.7470544 -0.45611823 0.48359677
vn 0.7470544 -0.45611823 0.48359677
g Fridge.Doors_0
f 3/3/3 2/2/2 1/1/1
f 4/4/4 3/3/3 1/1/1
f 3/3/3 4/4/4 5/5/5
f 6/6/6 3/3/3 5/5/5
f 7/7/7 6/6/6 5/5/5
f 8/8/8 7/7/7 5/5/5
f 7/7/7 8/8/8 9/9/9
f 10/10/10 7/7/7 9/9/9
f 3/3/3 6/6/6 11/11/11
f 6/6/6 7/7/7 11/11/11
f 12/12/12 3/3/3 11/11/11
f 13/13/13 12/12/12 11/11/11
f 14/14/14 13/13/13 11/11/11
f 13/13/13 14/14/14 15/15/15
f 16/16/16 13/13/13 15/15/15
f 14/14/14 17/17/17 15/15/15
f 17/17/17 14/14/14 11/11/11
f 17/17/17 18/18/18 15/15/15
f 19/19/19 17/17/17 11/11/11
f 7/7/7 19/19/19 11/11/11
f 18/18/18 17/17/17 20/20/20
f 17/17/17 21/21/21 20/20/20
f 17/17/17 19/19/19 22/22/22
f 21/21/21 17/17/17 22/22/22
f 7/7/7 10/10/10 22/22/22
f 19/19/19 7/7/7 22/22/22
f 13/13/13 16/16/16 23/23/23
f 24/24/24 13/13/13 23/23/23
f 13/13/13 24/24/24 25/25/25
f 12/12/12 13/13/13 25/25/25
f 3/3/3 12/12/12 25/25/25
f 2/2/2 3/3/3 25/25/25
f 28/28/28 27/27/27 26/26/26
f 29/29/29 28/28/28 26/26/26
f 28/28/28 29/29/29 30/30/30
f 31/31/31 28/28/28 30/30/30
f 32/32/32 31/31/31 30/30/30
f 33/33/33 32/32/32 30/30/30
f 32/32/32 33/33/33 34/34/34
f 35/35/35 32/32/32 34/34/34
f 38/38/38 37/37/37 36/36/36
f 39/39/39 38/38/38 36/36/36
f 42/42/42 41/41/41 40/40/40
f 43/43/43 42/42/42 40/40/40
f 41/41/41 42/42/42 44/44/44
f 42/42/42 45/45/45 44/44/44
f 45/45/45 46/46/46 44/44/44
f 46/46/46 47/47/47 44/44/44
f 47/47/47 46/46/46 48/48/48
f 46/46/46 49/49/49 48/48/48
f 52/52/52 51/51/51 50/50/50
f 53/53/53 52/52/52 50/50/50
f 52/52/52 53/53/53 54/54/54
f 55/55/55 52/52/52 54/54/54
f 56/56/56 55/55/55 54/54/54
f 57/57/57 56/56/56 54/54/54
f 56/56/56 57/57/57 58/58/58
f 59/59/59 56/56/56 58/58/58
f 62/62/62 61/61/61 60/60/60
f 63/63/63 62/62/62 60/60/60
f 66/66/66 65/65/65 64/64/64
f 67/67/67 66/66/66 64/64/64
f 70/70/70 69/69/69 68/68/68
f 71/71/71 70/70/70 68/68/68
f 69/69/69 70/70/70 72/72/72
f 70/70/70 73/73/73 72/72/72
f 73/73/73 74/74/74 72/72/72
f 74/74/74 75/75/75 72/72/72
f 75/75/75 74/74/74 76/76/76
f 74/74/74 77/77/77 76/76/76
f 80/80/80 79/79/79 78/78/78
f 81/81/81 80/80/80 78/78/78
f 80/80/80 81/81/81 82/82/82
f 83/83/83 80/80/80 82/82/82
f 84/84/84 83/83/83 82/82/82
f 85/85/85 84/84/84 82/82/82
f 84/84/84 85/85/85 86/86/86
f 87/87/87 84/84/84 86/86/86
f 80/80/80 83/83/83 88/88/88
f 83/83/83 84/84/84 88/88/88
f 89/89/89 80/80/80 88/88/88
f 90/90/90 89/89/89 88/88/88
f 91/91/91 90/90/90 88/88/88
f 90/90/90 91/91/91 92/92/92
f 93/93/93 90/90/90 92/92/92
f 91/91/91 94/94/94 92/92/92
f 94/94/94 91/91/91 88/88/88
f 94/94/94 95/95/95 92/92/92
f 96/96/96 94/94/94 88/88/88
f 84/84/84 96/96/96 88/88/88
f 95/95/95 94/94/94 97/97/97
f 94/94/94 98/98/98 97/97/97
f 94/94/94 96/96/96 99/99/99
f 98/98/98 94/94/94 99/99/99
f 84/84/84 87/87/87 99/99/99
f 96/96/96 84/84/84 99/99/99
f 90/90/90 93/93/93 100/100/100
f 101/101/101 90/90/90 100/100/100
f 90/90/90 101/101/101 102/102/102
f 89/89/89 90/90/90 102/102/102
f 80/80/80 89/89/89 102/102/102
f 79/79/79 80/80/80 102/102/102
f 105/105/105 104/104/104 103/103/103
f 106/106/106 105/105/105 103/103/103
f 105/105/105 106/106/106 107/107/107
f 108/108/108 105/105/105 107/107/107
f 109/109/109 108/108/108 107/107/107
f 110/110/110 109/109/109 107/107/107
f 109/109/109 110/110/110 111/111/111
f 112/112/112 109/109/109 111/111/111
f 115/115/115 114/114/114 113/113/113
f 116/116/116 115/115/115 113/113/113
f 119/119/119 118/118/118 117/117/117
f 120/120/120 119/119/119 117/117/117
f 118/118/118 119/119/119 121/121/121
f 119/119/119 122/122/122 121/121/121
f 122/122/122 123/123/123 121/121/121
f 123/123/123 124/124/124 121/121/121
f 124/124/124 123/123/123 125/125/125
f 123/123/123 126/126/126 125/125/125
f 129/129/129 128/128/128 127/127/127
f 130/130/130 129/129/129 127/127/127
f 129/129/129 130/130/130 131/131/131
f 132/132/132 129/129/129 131/131/131
f 133/133/133 132/132/132 131/131/131
f 134/134/134 133/133/133 131/131/131
f 133/133/133 134/134/134 135/135/135
f 136/136/136 133/133/133 135/135/135
f 139/139/139 138/138/138 137/137/137
f 140/140/140 139/139/139 137/137/137
f 143/143/143 142/142/142 141/141/141
f 144/144/144 143/143/143 141/141/141
f 147/147/147 146/146/146 145/145/145
f 148/148/148 147/147/147 145/145/145
f 146/146/146 147/147/147 149/149/149
f 147/147/147 150/150/150 149/149/149
f 150/150/150 151/151/151 149/149/149
f 151/151/151 152/152/152 149/149/149
f 152/152/152 151/151/151 153/153/153
f 151/151/151 154/154/154 153/153/153
f 157/157/157 156/156/156 155/155/155
f 158/158/158 157/157/157 155/155/155
f 156/156/156 157/157/157 159/159/159
f 157/157/157 160/160/160 159/159/159
f 160/160/160 161/161/161 159/159/159
f 161/161/161 162/162/162 159/159/159
f 162/162/162 161/161/161 163/163/163
f 161/161/161 164/164/164 163/163/163
f 167/167/167 166/166/166 165/165/165
f 168/168/168 167/167/167 165/165/165
f 167/167/167 168/168/168 169/169/169
f 170/170/170 167/167/167 169/169/169
f 171/171/171 170/170/170 169/169/169
f 172/172/172 171/171/171 169/169/169
f 171/171/171 172/172/172 173/173/173
f 174/174/174 171/171/171 173/173/173
f 177/177/177 176/176/176 175/175/175
f 178/178/178 177/177/177 175/175/175
f 181/181/181 180/180/180 179/179/179
f 182/182/182 181/181/181 179/179/179
f 185/185/185 184/184/184 183/183/183
f 186/186/186 185/185/185 183/183/183
f 184/184/184 185/185/185 187/187/187
f 185/185/185 188/188/188 187/187/187
f 188/188/188 189/189/189 187/187/187
f 189/189/189 190/190/190 187/187/187
f 190/190/190 189/189/189 191/191/191
f 189/189/189 192/192/192 191/191/191
f 195/195/195 194/194/194 193/193/193
f 196/196/196 195/195/195 193/193/193
f 195/195/195 196/196/196 197/197/197
f 198/198/198 195/195/195 197/197/197
f 199/199/199 198/198/198 197/197/197
f 200/200/200 199/199/199 197/197/197
f 199/199/199 200/200/200 201/201/201
f 202/202/202 199/199/199 201/201/201
f 205/205/205 204/204/204 203/203/203
f 206/206/206 205/205/205 203/203/203
f 209/209/209 208/208/208 207/207/207
f 210/210/210 209/209/209 207/207/207
f 213/213/213 212/212/212 211/211/211
f 214/214/214 213/213/213 211/211/211
f 217/217/217 216/216/216 215/215/215
f 218/218/218 217/217/217 215/215/215
f 221/221/221 220/220/220 219/219/219
f 222/222/222 221/221/221 219/219/219
f 220/220/220 221/221/221 223/223/223
f 221/221/221 224/224/224 223/223/223
f 224/224/224 225/225/225 223/223/223
f 225/225/225 226/226/226 223/223/223
f 226/226/226 225/225/225 227/227/227
f 225/225/225 228/228/228 227/227/227
f 231/231/231 230/230/230 229/229/229
f 232/232/232 231/231/231 229/229/229
f 235/235/235 234/234/234 233/233/233
f 236/236/236 235/235/235 233/233/233
f 239/239/239 238/238/238 237/237/237
f 240/240/240 239/239/239 237/237/237
f 243/243/243 242/242/242 241/241/241
f 244/244/244 243/243/243 241/241/241
f 242/242/242 243/243/243 245/245/245
f 243/243/243 246/246/246 245/245/245
f 246/246/246 247/247/247 245/245/245
f 250/250/250 249/249/249 248/248/248
f 251/251/251 250/250/250 248/248/248
f 254/254/254 253/253/253 252/252/252
f 255/255/255 254/254/254 252/252/252
f 253/253/253 256/256/256 252/252/252
f 256/256/256 257/257/257 252/252/252
f 254/254/254 255/255/255 258/258/258
f 259/259/259 254/254/254 258/258/258
f 257/257/257 256/256/256 260/260/260
f 256/256/256 261/261/261 260/260/260
f 264/264/264 263/263/263 262/262/262
f 265/265/265 264/264/264 262/262/262
f 268/268/268 267/267/267 266/266/266
f 269/269/269 268/268/268 266/266/266
f 268/268/268 269/269/269 270/270/270
f 273/273/273 272/272/272 271/271/271
f 274/274/274 273/273/273 271/271/271
f 272/272/272 275/275/275 271/271/271
f 275/275/275 276/276/276 271/271/271
f 273/273/273 274/274/274 277/277/277
f 278/278/278 273/273/273 277/277/277
f 276/276/276 275/275/275 279/279/279
f 275/275/275 280/280/280 279/279/279
f 283/283/283 282/282/282 281/281/281
f 284/284/284 283/283/283 281/281/281
f 287/287/287 286/286/286 285/285/285
f 288/288/288 287/287/287 285/285/285
f 291/291/291 290/290/290 289/289/289
f 292/292/292 291/291/291 289/289/289
f 295/295/295 294/294/294 293/293/293
f 296/296/296 295/295/295 293/293/293
f 299/299/299 298/298/298 297/297/297
f 300/300/300 299/299/299 297/297/297
f 303/303/303 302/302/302 301/301/301
f 304/304/304 303/303/303 301/301/301
f 307/307/307 306/306/306 305/305/305
f 308/308/308 307/307/307 305/305/305
f 311/311/311 310/310/310 309/309/309
f 312/312/312 311/311/311 309/309/309
f 310/310/310 311/311/311 313/313/313
f 311/311/311 314/314/314 313/313/313
f 314/314/314 315/315/315 313/313/313
f 315/315/315 316/316/316 313/313/313
f 316/316/316 315/315/315 317/317/317
f 315/315/315 318/318/318 317/317/317
f 315/315/315 314/314/314 319/319/319
f 314/314/314 311/311/311 319/319/319
f 320/320/320 315/315/315 319/319/319
f 321/321/321 320/320/320 319/319/319
f 322/322/322 321/321/321 319/319/319
f 321/321/321 322/322/322 323/323/323
f 324/324/324 321/321/321 323/323/323
f 322/322/322 325/325/325 323/323/323
f 325/325/325 322/322/322 319/319/319
f 325/325/325 326/326/326 323/323/323
f 311/311/311 327/327/327 319/319/319
f 327/327/327 325/325/325 319/319/319
f 321/321/321 324/324/324 328/328/328
f 329/329/329 321/321/321 328/328/328
f 315/315/315 320/320/320 330/330/330
f 318/318/318 315/315/315 330/330/330
f 321/321/321 329/329/329 330/330/330
f 320/320/320 321/321/321 330/330/330
f 326/326/326 325/325/325 331/331/331
f 325/325/325 332/332/332 331/331/331
f 325/325/325 327/327/327 333/333/333
f 332/332/332 325/325/325 333/333/333
f 327/327/327 311/311/311 333/333/333
f 311/311/311 312/312/312 333/333/333
f 336/336/336 335/335/335 334/334/334
f 337/337/337 336/336/336 334/334/334
f 336/336/336 337/337/337 338/338/338
f 339/339/339 336/336/336 338/338/338
f 340/340/340 339/339/339 338/338/338
f 341/341/341 340/340/340 338/338/338
f 340/340/340 341/341/341 342/342/342
f 343/343/343 340/340/340 342/342/342
f 346/346/346 345/345/345 344/344/344
f 347/347/347 346/346/346 344/344/344
f 350/350/350 349/349/349 348/348/348
f 351/351/351 350/350/350 348/348/348
f 349/349/349 350/350/350 352/352/352
f 350/350/350 353/353/353 352/352/352
f 353/353/353 354/354/354 352/352/352
f 354/354/354 355/355/355 352/352/352
f 355/355/355 354/354/354 356/356/356
f 354/354/354 357/357/357 356/356/356
f 360/360/360 359/359/359 358/358/358
f 361/361/361 360/360/360 358/358/358
f 360/360/360 361/361/361 362/362/362
f 363/363/363 360/360/360 362/362/362
f 364/364/364 363/363/363 362/362/362
f 365/365/365 364/364/364 362/362/362
f 364/364/364 365/365/365 366/366/366
f 367/367/367 364/364/364 366/366/366
f 370/370/370 369/369/369 368/368/368
f 371/371/371 370/370/370 368/368/368
f 374/374/374 373/373/373 372/372/372
f 375/375/375 374/374/374 372/372/372
f 378/378/378 377/377/377 376/376/376
f 379/379/379 378/378/378 376/376/376
f 377/377/377 378/378/378 380/380/380
f 378/378/378 381/381/381 380/380/380
f 381/381/381 382/382/382 380/380/380
f 382/382/382 383/383/383 380/380/380
f 383/383/383 382/382/382 384/384/384
f 382/382/382 385/385/385 384/384/384
f 388/388/388 387/387/387 386/386/386
f 389/389/389 388/388/388 386/386/386
f 387/387/387 388/388/388 390/390/390
f 388/388/388 391/391/391 390/390/390
f 391/391/391 392/392/392 390/390/390
f 392/392/392 393/393/393 390/390/390
f 393/393/393 392/392/392 394/394/394
f 392/392/392 395/395/395 394/394/394
f 392/392/392 391/391/391 396/396/396
f 391/391/391 388/388/388 396/396/396
f 397/397/397 392/392/392 396/396/396
f 398/398/398 397/397/397 396/396/396
f 399/399/399 398/398/398 396/396/396
f 398/398/398 399/399/399 400/400/400
f 401/401/401 398/398/398 400/400/400
f 399/399/399 402/402/402 400/400/400
f 402/402/402 399/399/399 396/396/396
f 402/402/402 403/403/403 400/400/400
f 388/388/388 404/404/404 396/396/396
f 404/404/404 402/402/402 396/396/396
f 398/398/398 401/401/401 405/405/405
f 406/406/406 398/398/398 405/405/405
f 392/392/392 397/397/397 407/407/407
f 395/395/395 392/392/392 407/407/407
f 398/398/398 406/406/406 407/407/407
f 397/397/397 398/398/398 407/407/407
f 403/403/403 402/402/402 408/408/408
f 402/402/402 409/409/409 408/408/408
f 402/402/402 404/404/404 410/410/410
f 409/409/409 402/402/402 410/410/410
f 404/404/404 388/388/388 410/410/410
f 388/388/388 389/389/389 410/410/410
f 413/413/413 412/412/412 411/411/411
f 414/414/414 413/413/413 411/411/411
f 413/413/413 414/414/414 415/415/415
f 416/416/416 413/413/413 415/415/415
f 417/417/417 416/416/416 415/415/415
f 418/418/418 417/417/417 415/415/415
f 417/417/417 418/418/418 419/419/419
f 420/420/420 417/417/417 419/419/419
f 423/423/423 422/422/422 421/421/421
f 424/424/424 423/423/423 421/421/421
f 427/427/427 426/426/426 425/425/425
f 428/428/428 427/427/427 425/425/425
f 426/426/426 427/427/427 429/429/429
f 427/427/427 430/430/430 429/429/429
f 430/430/430 431/431/431 429/429/429
f 431/431/431 432/432/432 429/429/429
f 432/432/432 431/431/431 433/433/433
f 431/431/431 434/434/434 433/433/433
f 437/437/437 436/436/436 435/435/435
f 438/438/438 437/437/437 435/435/435
f 437/437/437 438/438/438 439/439/439
f 440/440/440 437/437/437 439/439/439
f 441/441/441 440/440/440 439/439/439
f 442/442/442 441/441/441 439/439/439
f 441/441/441 442/442/442 443/443/443
f 444/444/444 441/441/441 443/443/443
f 447/447/447 446/446/446 445/445/445
f 448/448/448 447/447/447 445/445/445
f 451/451/451 450/450/450 449/449/449
f 452/452/452 451/451/451 449/449/449
f 455/455/455 454/454/454 453/453/453
f 456/456/456 455/455/455 453/453/453
f 454/454/454 455/455/455 457/457/457
f 455/455/455 458/458/458 457/457/457
f 458/458/458 459/459/459 457/457/457
f 459/459/459 460/460/460 457/457/457
f 460/460/460 459/459/459 461/461/461
f 459/459/459 462/462/462 461/461/461
f 465/465/465 464/464/464 463/463/463
f 466/466/466 465/465/465 463/463/463
f 464/464/464 465/465/465 467/467/467
f 465/465/465 468/468/468 467/467/467
f 468/468/468 469/469/469 467/467/467
f 469/469/469 470/470/470 467/467/467
f 470/470/470 469/469/469 471/471/471
f 469/469/469 472/472/472 471/471/471
f 475/475/475 474/474/474 473/473/473
f 476/476/476 475/475/475 473/473/473
f 475/475/475 476/476/476 477/477/477
f 478/478/478 475/475/475 477/477/477
f 479/479/479 478/478/478 477/477/477
f 480/480/480 479/479/479 477/477/477
f 479/479/479 480/480/480 481/481/481
f 482/482/482 479/479/479 481/481/481
f 485/485/485 484/484/484 483/483/483
f 486/486/486 485/485/485 483/483/483
f 489/489/489 488/488/488 487/487/487
f 490/490/490 489/489/489 487/487/487
f 493/493/493 492/492/492 491/491/491
f 494/494/494 493/493/493 491/491/491
f 492/492/492 493/493/493 495/495/495
f 493/493/493 496/496/496 495/495/495
f 496/496/496 497/497/497 495/495/495
f 497/497/497 498/498/498 495/495/495
f 498/498/498 497/497/497 499/499/499
f 497/497/497 500/500/500 499/499/499
f 503/503/503 502/502/502 501/501/501
f 504/504/504 503/503/503 501/501/501
f 503/503/503 504/504/504 505/505/505
f 506/506/506 503/503/503 505/505/505
f 507/507/507 506/506/506 505/505/505
f 508/508/508 507/507/507 505/505/505
f 507/507/507 508/508/508 509/509/509
f 510/510/510 507/507/507 509/509/509
f 513/513/513 512/512/512 511/511/511
f 514/514/514 513/513/513 511/511/511
f 517/517/517 516/516/516 515/515/515
f 518/518/518 517/517/517 515/515/515
f 521/521/521 520/520/520 519/519/519
f 522/522/522 521/521/521 519/519/519
f 525/525/525 524/524/524 523/523/523
f 526/526/526 525/525/525 523/523/523
f 529/529/529 528/528/528 527/527/527
f 530/530/530 529/529/529 527/527/527
f 533/533/533 532/532/532 531/531/531
f 534/534/534 533/533/533 531/531/531
f 537/537/537 536/536/536 535/535/535
f 538/538/538 537/537/537 535/535/535
f 537/537/537 538/538/538 539/539/539
f 540/540/540 537/537/537 539/539/539
f 541/541/541 540/540/540 539/539/539
f 542/542/542 541/541/541 539/539/539
f 541/541/541 542/542/542 543/543/543
f 544/544/544 541/541/541 543/543/543
f 547/547/547 546/546/546 545/545/545
f 548/548/548 547/547/547 545/545/545
f 551/551/551 550/550/550 549/549/549
f 552/552/552 551/551/551 549/549/549
f 551/551/551 552/552/552 553/553/553
f 554/554/554 551/551/551 553/553/553
f 555/555/555 554/554/554 553/553/553
f 556/556/556 555/555/555 553/553/553
f 555/555/555 556/556/556 557/557/557
f 558/558/558 555/555/555 557/557/557
f 561/561/561 560/560/560 559/559/559
f 562/562/562 561/561/561 559/559/559
f 565/565/565 564/564/564 563/563/563
f 566/566/566 565/565/565 563/563/563
f 567/567/567 566/566/566 563/563/563
f 568/568/568 567/567/567 563/563/563
f 564/564/564 565/565/565 569/569/569
f 565/565/565 570/570/570 569/569/569
f 567/567/567 568/568/568 571/571/571
f 572/572/572 567/567/567 571/571/571
f 575/575/575 574/574/574 573/573/573
f 576/576/576 575/575/575 573/573/573
f 579/579/579 578/578/578 577/577/577
f 580/580/580 579/579/579 577/577/577
f 581/581/581 580/580/580 577/577/577
f 582/582/582 581/581/581 577/577/577
f 578/578/578 579/579/579 583/583/583
f 579/579/579 584/584/584 583/583/583
f 581/581/581 582/582/582 585/585/585
f 586/586/586 581/581/581 585/585/585
f 589/589/589 588/588/588 587/587/587
f 590/590/590 589/589/589 587/587/587
f 593/593/593 592/592/592 591/591/591
f 594/594/594 593/593/593 591/591/591
f 597/597/597 596/596/596 595/595/595
f 598/598/598 597/597/597 595/595/595
f 601/601/601 600/600/600 599/599/599
f 602/602/602 601/601/601 599/599/599
f 605/605/605 604/604/604 603/603/603
f 606/606/606 605/605/605 603/603/603
f 609/609/609 608/608/608 607/607/607
f 610/610/610 609/609/609 607/607/607
f 613/613/613 612/612/612 611/611/611
f 614/614/614 613/613/613 611/611/611
