g BathroomSinkHandles
v 0.023117146 0.13 -0.016714742
v 0.023117146 0.13 0.03194111
v -0.023117146 0.13 0.03194111
v -0.023117146 0.13 -0.016714742
v 0.023117146 0.13 -0.022832533
v -0.023117146 0.13 -0.022832533
v 0.023117146 0.13 -0.18480848
v -0.023117146 0.13 -0.18480848
v 0.023117146 0.13 -0.19092627
v -0.023117146 0.13 -0.19092627
v 0.023117146 0.13 -0.19704406
v -0.023117146 0.13 -0.19704406
v 0.023117146 0.13 -0.24389024
v -0.023117146 0.13 -0.24389024
v 0.023117146 0.0827636 -0.18926856
v 0.023117146 0.07632998 -0.19258396
v -0.023117146 0.07632998 -0.19258396
v -0.023117146 0.0827636 -0.18926856
v 0.026176043 0.1269411 -0.022832533
v 0.026176043 0.1269411 -0.18480848
v 0.026176043 0.08854159 -0.18480848
v 0.026176043 0.08854159 -0.022832533
v 0.026176043 0.1269411 -0.016714742
v 0.026176043 0.08854159 -0.016714742
v 0.026176043 0.1269411 0.03194111
v 0.026176043 0.08854159 0.03194111
v 0.026176043 0.0824238 0.03194111
v 0.026176043 0.0824238 -0.016714742
v 0.026176043 -0.074031495 -0.016714742
v 0.026176043 -0.074031495 0.03194111
v 0.026176043 0.0862245 -0.19092627
v 0.026176043 0.1269411 -0.19092627
v 0.026176043 0.076669775 -0.19704406
v 0.026176043 0.1269411 -0.19704406
v 0.026176043 0.076669775 -0.24389024
v 0.026176043 0.1269411 -0.24389024
v -0.026176043 0.08854159 0.03194111
v -0.026176043 0.08854159 -0.016714742
v -0.026176043 0.1269411 -0.016714742
v -0.026176043 0.1269411 0.03194111
v -0.026176043 0.1269411 -0.022832533
v -0.026176043 0.08854159 -0.022832533
v -0.026176043 0.1269411 -0.18480848
v -0.026176043 0.08854159 -0.18480848
v -0.026176043 0.0824238 -0.016714742
v -0.026176043 0.0824238 0.03194111
v -0.026176043 -0.074031495 0.03194111
v -0.026176043 -0.074031495 -0.016714742
v -0.026176043 0.1269411 -0.19092627
v -0.026176043 0.0862245 -0.19092627
v -0.026176043 0.1269411 -0.19704406
v -0.026176043 0.076669775 -0.19704406
v -0.026176043 0.1269411 -0.24389024
v -0.026176043 0.076669775 -0.24389024
v 0.039517898 -0.12722728 0.058585923
v -0.039755527 -0.12720983 0.057296295
v -0.023912856 -0.07988632 0.036240824
v 0.023896638 -0.07985716 0.036304533
v -0.04015741 -0.12718824 -0.041234735
v 0.039507158 -0.12718824 -0.04123473
v 0.023907205 -0.07990215 -0.020978147
v -0.023933347 -0.07990215 -0.020978147
v 0.023117146 0.085482694 -0.022832533
v 0.023117146 0.085482694 -0.18480848
v -0.023117146 0.085482694 -0.18480848
v -0.023117146 0.085482694 -0.022832533
v 0.023117146 -0.074031495 0.035000004
v -0.023117146 -0.074031495 0.035000004
v -0.023117146 0.0824238 0.035000004
v 0.023117146 0.0824238 0.035000004
v 0.023117146 0.08854159 0.035000004
v -0.023117146 0.08854159 0.035000004
v -0.023117146 0.1269411 0.035000004
v 0.023117146 0.1269411 0.035000004
v -0.023117146 0.076669775 -0.24694914
v 0.023117146 0.076669775 -0.24694914
v 0.023117146 0.1269411 -0.24694914
v -0.023117146 0.1269411 -0.24694914
v 0.023117146 0.07361088 -0.19704406
v 0.023117146 0.07361088 -0.24389024
v -0.023117146 0.07361088 -0.24389024
v -0.023117146 0.07361088 -0.19704406
v -0.04125704 -0.13 -0.03938035
v -0.04083537 -0.13 0.055472787
v 0.040572327 -0.13 0.05683627
v 0.040572327 -0.13 -0.03938035
v -0.11389887 -0.12695561 -0.03360004
v -0.11389887 -0.12695561 0.03359951
v -0.124861635 -0.08640961 0.022636747
v -0.124861635 -0.08640961 -0.022637285
v -0.023117146 -0.074031495 -0.019773638
v 0.023117146 -0.074031495 -0.019773638
v 0.023117146 0.0824238 -0.019773638
v -0.023117146 0.0824238 -0.019773638
v 0.042672887 -0.1270951 -0.037892506
v 0.04267288 -0.1270951 0.055225637
v 0.027134387 -0.07999529 0.033018123
v 0.027134385 -0.07999529 -0.017715717
v -0.17260112 0.11934449 0.021940837
v -0.17260112 0.11934449 -0.021941366
v -0.12871893 0.11934449 -0.021941371
v -0.12871893 0.11934449 0.021940831
v -0.17871335 0.11916046 -0.021744909
v -0.17871338 0.11916046 0.021744378
v -0.33384696 0.10981047 -0.012064536
v -0.33384696 0.109810464 0.012064033
v -0.18742116 -0.12695561 0.03359951
v -0.18742116 -0.12695561 -0.03360004
v -0.17645839 -0.08640961 -0.022637278
v -0.17645842 -0.08640961 0.022636749
v -0.17871298 0.116096064 -0.024809755
v -0.33384737 0.10674603 -0.015129333
v -0.33384737 0.083649434 -0.015129333
v -0.17871298 0.07429943 -0.024809755
v -0.17260112 0.116285585 -0.025000261
v -0.17260112 0.0741099 -0.025000261
v -0.12871893 0.116285585 -0.025000267
v -0.12871893 0.0741099 -0.025000267
v -0.12871893 0.06799211 -0.025000267
v -0.17260112 0.06799211 -0.025000261
v -0.17260112 -0.08039785 -0.025000261
v -0.12871893 -0.08039785 -0.025000267
v -0.12566003 0.0741099 -0.021941371
v -0.12566003 0.0741099 0.021940831
v -0.12566003 0.116285585 0.021940831
v -0.12566003 0.116285585 -0.021941371
v -0.12566003 0.06799211 0.021940831
v -0.12566003 0.06799211 -0.021941371
v -0.12566003 -0.08039785 -0.021941371
v -0.12566003 -0.08039785 0.021940831
v -0.18425979 -0.12695561 -0.036761414
v -0.11706025 -0.12695561 -0.03676141
v -0.12802301 -0.08640961 -0.025798656
v -0.17329702 -0.08640961 -0.025798652
v -0.11706025 -0.12695561 0.03676088
v -0.18425979 -0.12695561 0.036760878
v -0.17329703 -0.08640961 0.02579812
v -0.12802301 -0.08640961 0.02579812
v -0.12871893 -0.08039785 0.024999728
v -0.17260112 -0.08039785 0.024999732
v -0.17260112 0.06799211 0.024999732
v -0.12871893 0.06799211 0.024999728
v -0.12871893 0.0741099 0.024999728
v -0.17260112 0.0741099 0.024999732
v -0.17260112 0.116285585 0.024999732
v -0.12871893 0.116285585 0.024999728
v -0.178713 0.116096064 0.024809226
v -0.178713 0.07429943 0.024809228
v -0.33384737 0.10674603 0.01512883
v -0.33384737 0.083649434 0.0151288295
v -0.33690032 0.083827905 0.011879429
v -0.33690032 0.083827905 -0.011879934
v -0.33690032 0.106567554 -0.011879934
v -0.33690032 0.106567554 0.011879429
v -0.17871335 0.07123504 -0.021744909
v -0.33384696 0.08058498 -0.012064536
v -0.33384696 0.08058498 0.012064033
v -0.17871338 0.07123504 0.02174438
v 0.11063346 -0.12695561 0.03359951
v 0.11063346 -0.12695561 -0.03360004
v 0.12159623 -0.08640961 -0.022637276
v 0.12159623 -0.08640961 0.02263675
v -0.17566003 -0.08039785 0.021940837
v -0.17566001 -0.08039785 -0.021941366
v -0.17566001 0.06799211 -0.021941366
v -0.17566003 0.06799211 0.021940837
v -0.11615939 -0.12990849 0.03450037
v -0.11615939 -0.12990849 -0.034500904
v -0.18516067 -0.12990849 -0.034500904
v -0.18516067 -0.12990849 0.03450037
v 0.16933571 0.11934449 -0.021941373
v 0.16933571 0.11934449 0.021940831
v 0.12545352 0.11934449 0.021940839
v 0.12545352 0.11934449 -0.021941364
v 0.1754492 0.1191829 0.021768965
v 0.1754492 0.11918291 -0.02176951
v 0.33058032 0.11097673 0.013272811
v 0.33058032 0.11097673 -0.013273394
v 0.18415576 -0.12695561 -0.033600044
v 0.18415576 -0.12695561 0.033599503
v 0.173193 -0.08640961 0.022636745
v 0.173193 -0.08640961 -0.022637285
v 0.17544892 0.116119765 0.024832448
v 0.33058062 0.10791356 0.01633626
v 0.33058062 0.082481906 0.01633626
v 0.17544892 0.07427574 0.024832448
v 0.16933571 0.116285585 0.024999725
v 0.16933571 0.0741099 0.024999725
v 0.12545352 0.116285585 0.024999732
v 0.12545352 0.0741099 0.024999732
v 0.12545352 0.06799211 0.024999732
v 0.16933571 0.06799211 0.024999725
v 0.16933571 -0.08039785 0.024999725
v 0.12545352 -0.08039785 0.024999732
v 0.122394614 0.0741099 0.021940839
v 0.122394614 0.0741099 -0.021941364
v 0.122394614 0.116285585 -0.021941364
v 0.122394614 0.116285585 0.021940839
v 0.122394614 0.06799211 -0.021941364
v 0.122394614 0.06799211 0.021940839
v 0.122394614 -0.08039785 0.021940839
v 0.122394614 -0.08039785 -0.021941364
v 0.18099439 -0.12695561 0.036760878
v 0.11379484 -0.12695561 0.03676088
v 0.1247576 -0.08640961 0.025798121
v 0.17003162 -0.08640961 0.025798118
v 0.11379484 -0.12695561 -0.03676141
v 0.18099439 -0.12695561 -0.036761414
v 0.17003162 -0.08640961 -0.025798656
v 0.1247576 -0.08640961 -0.025798649
v 0.12545352 -0.08039785 -0.02500026
v 0.16933571 -0.08039785 -0.025000269
v 0.16933571 0.06799211 -0.025000269
v 0.12545352 0.06799211 -0.02500026
v 0.12545352 0.0741099 -0.02500026
v 0.16933571 0.0741099 -0.025000269
v 0.16933571 0.116285585 -0.025000269
v 0.12545352 0.116285585 -0.02500026
v 0.17544892 0.116119765 -0.024832992
v 0.17544892 0.07427574 -0.024832992
v 0.33058062 0.10791357 -0.016336843
v 0.33058062 0.082481906 -0.016336843
v 0.33363494 0.0826392 -0.013110671
v 0.33363494 0.0826392 0.013110088
v 0.33363494 0.10775625 0.013110088
v 0.33363494 0.10775625 -0.013110671
v 0.1754492 0.07121258 0.021768965
v 0.33058032 0.07941873 0.013272811
v 0.33058032 0.07941873 -0.013273394
v 0.1754492 0.0712126 -0.02176951
v 0.1723946 -0.08039785 -0.021941373
v 0.1723946 -0.08039785 0.021940831
v 0.1723946 0.06799211 0.021940831
v 0.1723946 0.06799211 -0.021941373
v 0.11289397 -0.12990849 -0.0345009
v 0.11289397 -0.12990849 0.034500375
v 0.18189526 -0.12990849 0.034500368
v 0.18189526 -0.12990849 -0.034500908
v -0.04292556 -0.12710091 0.053877745
v -0.039755527 -0.12720983 0.057296295
v -0.04083537 -0.13 0.055472787
v -0.023117146 0.1269411 0.035000004
v -0.026176043 0.1269411 0.03194111
v -0.023117146 0.13 0.03194111
v -0.04125704 -0.13 -0.03938035
v -0.04015741 -0.12718824 -0.041234735
v -0.043321583 -0.12710497 -0.0378967
v -0.026176043 0.1269411 -0.016714742
v -0.026176043 0.1269411 -0.022832533
v -0.023117146 0.13 -0.022832533
v -0.023117146 0.13 -0.016714742
v -0.023117146 0.13 0.03194111
v -0.026176043 0.1269411 -0.18480848
v -0.023117146 0.13 -0.18480848
v -0.023117146 0.13 -0.19092627
v -0.026176043 0.1269411 -0.19092627
v -0.023117146 0.13 -0.19704406
v -0.026176043 0.1269411 -0.19704406
v 0.040572327 -0.13 0.05683627
v 0.039517898 -0.12722728 0.058585923
v 0.04267288 -0.1270951 0.055225637
v 0.026176043 0.1269411 0.03194111
v 0.023117146 0.1269411 0.035000004
v 0.023117146 0.13 0.03194111
v 0.040572327 -0.13 -0.03938035
v 0.042672887 -0.1270951 -0.037892506
v 0.039507158 -0.12718824 -0.04123473
v 0.023117146 0.13 -0.022832533
v 0.026176043 0.1269411 -0.022832533
v 0.026176043 0.1269411 -0.016714742
v 0.023117146 0.13 -0.016714742
v 0.026176043 0.1269411 0.03194111
v 0.023117146 0.13 0.03194111
v 0.023117146 0.13 -0.18480848
v -0.026176043 0.08854159 0.03194111
v -0.023117146 0.08854159 0.035000004
v -0.023117146 0.0824238 0.035000004
v -0.026176043 0.0824238 0.03194111
v -0.026176043 0.1269411 0.03194111
v -0.023117146 0.1269411 0.035000004
v -0.026176043 0.08854159 -0.016714742
v -0.026176043 0.0824238 -0.016714742
v -0.023117146 0.0824238 -0.019773638
v -0.023117146 0.085482694 -0.022832533
v -0.026176043 0.08854159 -0.022832533
v 0.023117146 0.085482694 -0.022832533
v 0.023117146 0.0824238 -0.019773638
v 0.026176043 0.0824238 -0.016714742
v 0.026176043 0.08854159 -0.016714742
v 0.026176043 0.08854159 -0.022832533
v 0.026176043 0.08854159 0.03194111
v 0.026176043 0.0824238 0.03194111
v 0.023117146 0.0824238 0.035000004
v 0.023117146 0.08854159 0.035000004
v 0.023117146 0.1269411 0.035000004
v 0.026176043 0.1269411 0.03194111
v 0.026176043 -0.074031495 0.03194111
v 0.023117146 -0.074031495 0.035000004
v -0.023117146 0.13 -0.24389024
v -0.026176043 0.1269411 -0.24389024
v -0.023117146 0.1269411 -0.24694914
v 0.023117146 0.13 -0.24389024
v 0.023117146 0.1269411 -0.24694914
v 0.026176043 0.1269411 -0.24389024
v -0.026176043 0.076669775 -0.24389024
v -0.023117146 0.07361088 -0.24389024
v -0.023117146 0.076669775 -0.24694914
v 0.026176043 0.076669775 -0.24389024
v 0.023117146 0.076669775 -0.24694914
v 0.023117146 0.07361088 -0.24389024
v -0.023933347 -0.07990215 -0.020978147
v -0.023117146 -0.074031495 -0.019773638
v -0.026176043 -0.074031495 -0.016714742
v -0.027168758 -0.07998372 -0.017712627
v 0.027134385 -0.07999529 -0.017715717
v 0.026176043 -0.074031495 -0.016714742
v 0.023117146 -0.074031495 -0.019773638
v 0.023907205 -0.07990215 -0.020978147
v 0.023896638 -0.07985716 0.036304533
v 0.023117146 -0.074031495 0.035000004
v 0.026176043 -0.074031495 0.03194111
v 0.027134387 -0.07999529 0.033018123
v -0.023117146 -0.074031495 0.035000004
v -0.023912856 -0.07988632 0.036240824
v -0.02714672 -0.079991184 0.03296861
v -0.023117146 -0.074031495 0.035000004
v -0.02714672 -0.079991184 0.03296861
v -0.026176043 -0.074031495 0.03194111
v -0.023117146 0.07361088 -0.19704406
v -0.026176043 0.076669775 -0.19704406
v -0.026176043 0.0862245 -0.19092627
v -0.023117146 0.07632998 -0.19258396
v 0.023117146 0.07361088 -0.19704406
v 0.023117146 0.07632998 -0.19258396
v 0.026176043 0.0862245 -0.19092627
v 0.023117146 0.07361088 -0.19704406
v 0.026176043 0.0862245 -0.19092627
v 0.026176043 0.076669775 -0.19704406
v 0.023117146 0.13 -0.19704406
v 0.026176043 0.1269411 -0.19704406
v 0.026176043 0.1269411 -0.19092627
v 0.023117146 0.13 -0.19092627
v 0.023117146 0.13 -0.24389024
v 0.026176043 0.1269411 -0.24389024
v 0.026176043 0.08854159 -0.18480848
v 0.026176043 0.0862245 -0.19092627
v 0.023117146 0.0827636 -0.18926856
v 0.023117146 0.085482694 -0.18480848
v -0.026176043 0.0862245 -0.19092627
v -0.026176043 0.08854159 -0.18480848
v -0.023117146 0.085482694 -0.18480848
v -0.026176043 0.0862245 -0.19092627
v -0.023117146 0.085482694 -0.18480848
v -0.023117146 0.0827636 -0.18926856
v 0.026176043 0.1269411 -0.19092627
v 0.026176043 0.1269411 -0.18480848
v 0.023117146 0.13 -0.18480848
v 0.023117146 0.13 -0.19092627
v 0.026176043 0.1269411 -0.022832533
v -0.11389887 -0.12695561 -0.03360004
v -0.11706025 -0.12695561 -0.03676141
v -0.11615939 -0.12990849 -0.034500904
v -0.12871893 0.116285585 -0.025000267
v -0.12566003 0.116285585 -0.021941371
v -0.12871893 0.11934449 -0.021941371
v -0.11615939 -0.12990849 0.03450037
v -0.11706025 -0.12695561 0.03676088
v -0.11389887 -0.12695561 0.03359951
v -0.12566003 0.116285585 0.021940831
v -0.12871893 0.116285585 0.024999728
v -0.12871893 0.11934449 0.021940831
v -0.18516067 -0.12990849 -0.034500904
v -0.18425979 -0.12695561 -0.036761414
v -0.18742116 -0.12695561 -0.03360004
v -0.17871335 0.11916046 -0.021744909
v -0.17871298 0.116096064 -0.024809755
v -0.17260112 0.116285585 -0.025000261
v -0.17260112 0.11934449 -0.021941366
v -0.12871893 0.116285585 -0.025000267
v -0.33384696 0.10981047 -0.012064536
v -0.33384737 0.10674603 -0.015129333
v -0.18516067 -0.12990849 0.03450037
v -0.18742116 -0.12695561 0.03359951
v -0.18425979 -0.12695561 0.036760878
v -0.17260112 0.116285585 0.024999732
v -0.178713 0.116096064 0.024809226
v -0.17871338 0.11916046 0.021744378
v -0.17260112 0.11934449 0.021940837
v -0.12871893 0.11934449 0.021940831
v -0.12871893 0.116285585 0.024999728
v -0.33384737 0.10674603 0.01512883
v -0.33384696 0.109810464 0.012064033
v -0.12566003 0.0741099 -0.021941371
v -0.12871893 0.0741099 -0.025000267
v -0.12871893 0.06799211 -0.025000267
v -0.12566003 0.06799211 -0.021941371
v -0.12871893 -0.08039785 -0.025000267
v -0.12566003 0.0741099 0.021940831
v -0.12566003 0.06799211 0.021940831
v -0.12871893 0.06799211 0.024999728
v -0.12871893 0.0741099 0.024999728
v -0.12566003 -0.08039785 0.021940831
v -0.178713 0.07429943 0.024809228
v -0.17260112 0.0741099 0.024999732
v -0.17260112 0.06799211 0.024999732
v -0.17260112 0.06799211 0.024999732
v -0.17566003 0.06799211 0.021940837
v -0.178713 0.07429943 0.024809228
v -0.17871338 0.07123504 0.02174438
v -0.17566001 0.06799211 -0.021941366
v -0.17260112 0.06799211 -0.025000261
v -0.17260112 0.0741099 -0.025000261
v -0.17260112 0.0741099 -0.025000261
v -0.17871298 0.07429943 -0.024809755
v -0.17566001 0.06799211 -0.021941366
v -0.17871298 0.07429943 -0.024809755
v -0.17871335 0.07123504 -0.021744909
v -0.17566001 0.06799211 -0.021941366
v -0.33384696 0.109810464 0.012064033
v -0.33384737 0.10674603 0.01512883
v -0.33690032 0.106567554 0.011879429
v -0.33384696 0.10981047 -0.012064536
v -0.33690032 0.106567554 -0.011879934
v -0.33384737 0.10674603 -0.015129333
v -0.33384737 0.083649434 0.0151288295
v -0.33384696 0.08058498 0.012064033
v -0.33690032 0.083827905 0.011879429
v -0.33384737 0.083649434 -0.015129333
v -0.33690032 0.083827905 -0.011879934
v -0.33384696 0.08058498 -0.012064536
v -0.12802301 -0.08640961 0.02579812
v -0.12871893 -0.08039785 0.024999728
v -0.12566003 -0.08039785 0.021940831
v -0.124861635 -0.08640961 0.022636747
v -0.17645842 -0.08640961 0.022636749
v -0.17566003 -0.08039785 0.021940837
v -0.17260112 -0.08039785 0.024999732
v -0.17645842 -0.08640961 0.022636749
v -0.17260112 -0.08039785 0.024999732
v -0.17329703 -0.08640961 0.02579812
v -0.17329702 -0.08640961 -0.025798652
v -0.17260112 -0.08039785 -0.025000261
v -0.17566001 -0.08039785 -0.021941366
v -0.17645839 -0.08640961 -0.022637278
v -0.12871893 -0.08039785 -0.025000267
v -0.12802301 -0.08640961 -0.025798656
v -0.124861635 -0.08640961 -0.022637285
v -0.12566003 -0.08039785 -0.021941371
v 0.11063346 -0.12695561 0.03359951
v 0.11379484 -0.12695561 0.03676088
v 0.11289397 -0.12990849 0.034500375
v 0.12545352 0.116285585 0.024999732
v 0.122394614 0.116285585 0.021940839
v 0.12545352 0.11934449 0.021940839
v 0.11289397 -0.12990849 -0.0345009
v 0.11379484 -0.12695561 -0.03676141
v 0.11063346 -0.12695561 -0.03360004
v 0.122394614 0.116285585 -0.021941364
v 0.12545352 0.116285585 -0.02500026
v 0.12545352 0.11934449 -0.021941364
v 0.18189526 -0.12990849 0.034500368
v 0.18099439 -0.12695561 0.036760878
v 0.18415576 -0.12695561 0.033599503
v 0.1754492 0.1191829 0.021768965
v 0.17544892 0.116119765 0.024832448
v 0.16933571 0.116285585 0.024999725
v 0.16933571 0.11934449 0.021940831
v 0.12545352 0.116285585 0.024999732
v 0.33058032 0.11097673 0.013272811
v 0.33058062 0.10791356 0.01633626
v 0.18189526 -0.12990849 -0.034500908
v 0.18415576 -0.12695561 -0.033600044
v 0.18099439 -0.12695561 -0.036761414
v 0.16933571 0.116285585 -0.025000269
v 0.17544892 0.116119765 -0.024832992
v 0.1754492 0.11918291 -0.02176951
v 0.16933571 0.11934449 -0.021941373
v 0.12545352 0.11934449 -0.021941364
v 0.12545352 0.116285585 -0.02500026
v 0.33058062 0.10791357 -0.016336843
v 0.33058032 0.11097673 -0.013273394
v 0.122394614 0.0741099 0.021940839
v 0.12545352 0.0741099 0.024999732
v 0.12545352 0.06799211 0.024999732
v 0.122394614 0.06799211 0.021940839
v 0.12545352 -0.08039785 0.024999732
v 0.122394614 0.0741099 -0.021941364
v 0.122394614 0.06799211 -0.021941364
v 0.12545352 0.06799211 -0.02500026
v 0.12545352 0.0741099 -0.02500026
v 0.122394614 -0.08039785 -0.021941364
v 0.1723946 0.06799211 -0.021941373
v 0.1754492 0.0712126 -0.02176951
v 0.17544892 0.07427574 -0.024832992
v 0.17544892 0.07427574 -0.024832992
v 0.16933571 0.0741099 -0.025000269
v 0.1723946 0.06799211 -0.021941373
v 0.16933571 0.06799211 -0.025000269
v 0.17544892 0.07427574 0.024832448
v 0.1754492 0.07121258 0.021768965
v 0.1723946 0.06799211 0.021940831
v 0.1723946 0.06799211 0.021940831
v 0.16933571 0.0741099 0.024999725
v 0.17544892 0.07427574 0.024832448
v 0.1723946 0.06799211 0.021940831
v 0.16933571 0.06799211 0.024999725
v 0.16933571 0.0741099 0.024999725
v 0.33058032 0.11097673 -0.013273394
v 0.33058062 0.10791357 -0.016336843
v 0.33363494 0.10775625 -0.013110671
v 0.33058032 0.11097673 0.013272811
v 0.33363494 0.10775625 0.013110088
v 0.33058062 0.10791356 0.01633626
v 0.33058062 0.082481906 -0.016336843
v 0.33058032 0.07941873 -0.013273394
v 0.33363494 0.0826392 -0.013110671
v 0.33058062 0.082481906 0.01633626
v 0.33363494 0.0826392 0.013110088
v 0.33058032 0.07941873 0.013272811
v 0.1247576 -0.08640961 -0.025798649
v 0.12545352 -0.08039785 -0.02500026
v 0.122394614 -0.08039785 -0.021941364
v 0.12159623 -0.08640961 -0.022637276
v 0.173193 -0.08640961 -0.022637285
v 0.1723946 -0.08039785 -0.021941373
v 0.16933571 -0.08039785 -0.025000269
v 0.173193 -0.08640961 -0.022637285
v 0.16933571 -0.08039785 -0.025000269
v 0.17003162 -0.08640961 -0.025798656
v 0.17003162 -0.08640961 0.025798118
v 0.16933571 -0.08039785 0.024999725
v 0.1723946 -0.08039785 0.021940831
v 0.173193 -0.08640961 0.022636745
v 0.12545352 -0.08039785 0.024999732
v 0.1247576 -0.08640961 0.025798121
v 0.12159623 -0.08640961 0.02263675
v 0.122394614 -0.08039785 0.021940839
v -0.04125704 -0.13 -0.03938035
v -0.043321583 -0.12710497 -0.0378967
v -0.04292556 -0.12710091 0.053877745
v -0.04083537 -0.13 0.055472787
v -0.023117146 0.13 0.03194111
v -0.026176043 0.1269411 0.03194111
v -0.026176043 0.1269411 -0.016714742
v -0.023933347 -0.07990215 -0.020978147
v -0.027168758 -0.07998372 -0.017712627
v -0.043321583 -0.12710497 -0.0378967
v -0.04015741 -0.12718824 -0.041234735
v 0.040572327 -0.13 -0.03938035
v 0.039507158 -0.12718824 -0.04123473
v -0.04015741 -0.12718824 -0.041234735
v -0.04125704 -0.13 -0.03938035
v 0.027134385 -0.07999529 -0.017715717
v 0.023907205 -0.07990215 -0.020978147
v 0.039507158 -0.12718824 -0.04123473
v 0.042672887 -0.1270951 -0.037892506
v 0.040572327 -0.13 0.05683627
v 0.04267288 -0.1270951 0.055225637
v 0.042672887 -0.1270951 -0.037892506
v 0.040572327 -0.13 -0.03938035
v 0.023896638 -0.07985716 0.036304533
v 0.027134387 -0.07999529 0.033018123
v 0.04267288 -0.1270951 0.055225637
v 0.039517898 -0.12722728 0.058585923
v -0.04083537 -0.13 0.055472787
v -0.039755527 -0.12720983 0.057296295
v 0.039517898 -0.12722728 0.058585923
v 0.040572327 -0.13 0.05683627
v 0.023117146 0.13 0.03194111
v 0.023117146 0.1269411 0.035000004
v -0.023117146 0.1269411 0.035000004
v -0.023117146 0.13 0.03194111
v -0.023117146 -0.074031495 0.035000004
v -0.026176043 -0.074031495 0.03194111
v -0.026176043 0.0824238 0.03194111
v -0.023117146 0.0824238 0.035000004
v -0.023117146 0.085482694 -0.022832533
v -0.023117146 0.0824238 -0.019773638
v 0.023117146 0.0824238 -0.019773638
v 0.023117146 0.085482694 -0.022832533
v -0.023117146 0.13 -0.24389024
v -0.023117146 0.1269411 -0.24694914
v 0.023117146 0.1269411 -0.24694914
v 0.023117146 0.13 -0.24389024
v -0.023117146 0.1269411 -0.24694914
v -0.026176043 0.1269411 -0.24389024
v -0.026176043 0.076669775 -0.24389024
v -0.023117146 0.1269411 -0.24694914
v -0.026176043 0.076669775 -0.24389024
v -0.023117146 0.076669775 -0.24694914
v 0.026176043 0.1269411 -0.24389024
v 0.023117146 0.1269411 -0.24694914
v 0.023117146 0.076669775 -0.24694914
v 0.026176043 0.076669775 -0.24389024
v -0.023117146 0.076669775 -0.24694914
v -0.023117146 0.07361088 -0.24389024
v 0.023117146 0.07361088 -0.24389024
v 0.023117146 0.076669775 -0.24694914
v -0.026176043 0.076669775 -0.19704406
v -0.023117146 0.07361088 -0.19704406
v -0.023117146 0.07361088 -0.24389024
v -0.026176043 0.076669775 -0.19704406
v -0.023117146 0.07361088 -0.24389024
v -0.026176043 0.076669775 -0.24389024
v 0.026176043 0.08854159 -0.18480848
v 0.023117146 0.085482694 -0.18480848
v 0.023117146 0.085482694 -0.022832533
v 0.026176043 0.08854159 -0.022832533
v -0.026176043 0.1269411 -0.18480848
v -0.023117146 0.13 -0.022832533
v -0.026176043 0.1269411 -0.022832533
v -0.023117146 0.0824238 -0.019773638
v -0.026176043 0.0824238 -0.016714742
v -0.026176043 -0.074031495 -0.016714742
v -0.023117146 -0.074031495 -0.019773638
v 0.026176043 0.0824238 -0.016714742
v 0.023117146 0.0824238 -0.019773638
v 0.023117146 -0.074031495 -0.019773638
v 0.026176043 -0.074031495 -0.016714742
v -0.039755527 -0.12720983 0.057296295
v -0.04292556 -0.12710091 0.053877745
v -0.02714672 -0.079991184 0.03296861
v -0.023912856 -0.07988632 0.036240824
v -0.026176043 -0.074031495 0.03194111
v -0.02714672 -0.079991184 0.03296861
v -0.027168758 -0.07998372 -0.017712627
v -0.026176043 -0.074031495 -0.016714742
v -0.023117146 -0.074031495 -0.019773638
v -0.023933347 -0.07990215 -0.020978147
v 0.023907205 -0.07990215 -0.020978147
v 0.023117146 -0.074031495 -0.019773638
v 0.026176043 -0.074031495 -0.016714742
v 0.027134385 -0.07999529 -0.017715717
v 0.027134387 -0.07999529 0.033018123
v 0.026176043 -0.074031495 0.03194111
v 0.023117146 -0.074031495 0.035000004
v 0.023896638 -0.07985716 0.036304533
v -0.023912856 -0.07988632 0.036240824
v -0.023117146 -0.074031495 0.035000004
v -0.026176043 0.0862245 -0.19092627
v -0.023117146 0.0827636 -0.18926856
v -0.023117146 0.07632998 -0.19258396
v 0.026176043 0.076669775 -0.24389024
v 0.023117146 0.07361088 -0.24389024
v 0.023117146 0.07361088 -0.19704406
v 0.026176043 0.076669775 -0.19704406
v -0.026176043 0.1269411 -0.24389024
v -0.023117146 0.13 -0.24389024
v -0.023117146 0.13 -0.19704406
v -0.026176043 0.1269411 -0.19704406
v -0.023117146 0.07361088 -0.19704406
v -0.023117146 0.07632998 -0.19258396
v 0.023117146 0.07632998 -0.19258396
v 0.023117146 0.07361088 -0.19704406
v 0.026176043 0.0862245 -0.19092627
v 0.023117146 0.07632998 -0.19258396
v 0.023117146 0.0827636 -0.18926856
v -0.026176043 0.08854159 -0.022832533
v -0.023117146 0.085482694 -0.022832533
v -0.023117146 0.085482694 -0.18480848
v -0.026176043 0.08854159 -0.18480848
v -0.023117146 0.0827636 -0.18926856
v -0.023117146 0.085482694 -0.18480848
v 0.023117146 0.085482694 -0.18480848
v 0.023117146 0.0827636 -0.18926856
v -0.11615939 -0.12990849 0.03450037
v -0.11389887 -0.12695561 0.03359951
v -0.11389887 -0.12695561 -0.03360004
v -0.11615939 -0.12990849 -0.034500904
v -0.12871893 0.0741099 -0.025000267
v -0.12566003 0.0741099 -0.021941371
v -0.12566003 0.116285585 -0.021941371
v -0.12871893 0.116285585 -0.025000267
v -0.12871893 0.11934449 -0.021941371
v -0.12566003 0.116285585 -0.021941371
v -0.12566003 0.116285585 0.021940831
v -0.12871893 0.11934449 0.021940831
v -0.12802301 -0.08640961 0.02579812
v -0.124861635 -0.08640961 0.022636747
v -0.11389887 -0.12695561 0.03359951
v -0.11706025 -0.12695561 0.03676088
v -0.18516067 -0.12990849 0.03450037
v -0.18425979 -0.12695561 0.036760878
v -0.11706025 -0.12695561 0.03676088
v -0.11615939 -0.12990849 0.03450037
v -0.17645842 -0.08640961 0.022636749
v -0.17329703 -0.08640961 0.02579812
v -0.18425979 -0.12695561 0.036760878
v -0.18742116 -0.12695561 0.03359951
v -0.18516067 -0.12990849 -0.034500904
v -0.18742116 -0.12695561 -0.03360004
v -0.18742116 -0.12695561 0.03359951
v -0.18516067 -0.12990849 0.03450037
v -0.17329702 -0.08640961 -0.025798652
v -0.17645839 -0.08640961 -0.022637278
v -0.18742116 -0.12695561 -0.03360004
v -0.18425979 -0.12695561 -0.036761414
v -0.11615939 -0.12990849 -0.034500904
v -0.11706025 -0.12695561 -0.03676141
v -0.18425979 -0.12695561 -0.036761414
v -0.18516067 -0.12990849 -0.034500904
v -0.17260112 0.11934449 -0.021941366
v -0.12871893 0.116285585 -0.025000267
v -0.12871893 0.11934449 -0.021941371
v -0.12871893 -0.08039785 -0.025000267
v -0.12566003 -0.08039785 -0.021941371
v -0.12566003 0.06799211 -0.021941371
v -0.12871893 0.116285585 0.024999728
v -0.12566003 0.116285585 0.021940831
v -0.12566003 0.0741099 0.021940831
v -0.12871893 0.0741099 0.024999728
v -0.17871338 0.07123504 0.02174438
v -0.17566003 0.06799211 0.021940837
v -0.17566001 0.06799211 -0.021941366
v -0.17871335 0.07123504 -0.021744909
v -0.33384696 0.109810464 0.012064033
v -0.33690032 0.106567554 0.011879429
v -0.33690032 0.106567554 -0.011879934
v -0.33384696 0.10981047 -0.012064536
v -0.33690032 0.106567554 0.011879429
v -0.33384737 0.10674603 0.01512883
v -0.33384737 0.083649434 0.0151288295
v -0.33690032 0.083827905 0.011879429
v -0.33384737 0.10674603 -0.015129333
v -0.33690032 0.106567554 -0.011879934
v -0.33690032 0.083827905 -0.011879934
v -0.33384737 0.083649434 -0.015129333
v -0.33690032 0.083827905 0.011879429
v -0.33384696 0.08058498 0.012064033
v -0.33384696 0.08058498 -0.012064536
v -0.33690032 0.083827905 -0.011879934
v -0.17871298 0.116096064 -0.024809755
v -0.17871335 0.11916046 -0.021744909
v -0.33384696 0.10981047 -0.012064536
v -0.178713 0.07429943 0.024809228
v -0.17871338 0.07123504 0.02174438
v -0.33384696 0.08058498 0.012064033
v -0.33384737 0.083649434 0.0151288295
v -0.33384737 0.083649434 -0.015129333
v -0.33384696 0.08058498 -0.012064536
v -0.17871335 0.07123504 -0.021744909
v -0.17871298 0.07429943 -0.024809755
v -0.12871893 0.06799211 0.024999728
v -0.12566003 -0.08039785 0.021940831
v -0.12871893 -0.08039785 0.024999728
v -0.17566003 0.06799211 0.021940837
v -0.17260112 0.06799211 0.024999732
v -0.17260112 -0.08039785 0.024999732
v -0.17566003 0.06799211 0.021940837
v -0.17260112 -0.08039785 0.024999732
v -0.17566003 -0.08039785 0.021940837
v -0.17260112 0.06799211 -0.025000261
v -0.17566001 0.06799211 -0.021941366
v -0.17566001 -0.08039785 -0.021941366
v -0.17260112 0.06799211 -0.025000261
v -0.17566001 -0.08039785 -0.021941366
v -0.17260112 -0.08039785 -0.025000261
v -0.11706025 -0.12695561 -0.03676141
v -0.11389887 -0.12695561 -0.03360004
v -0.124861635 -0.08640961 -0.022637285
v -0.12802301 -0.08640961 -0.025798656
v -0.12566003 -0.08039785 -0.021941371
v -0.124861635 -0.08640961 -0.022637285
v -0.124861635 -0.08640961 0.022636747
v -0.12566003 -0.08039785 0.021940831
v -0.12871893 -0.08039785 0.024999728
v -0.12802301 -0.08640961 0.02579812
v -0.17329703 -0.08640961 0.02579812
v -0.17260112 -0.08039785 0.024999732
v -0.17566003 -0.08039785 0.021940837
v -0.17645842 -0.08640961 0.022636749
v -0.17645839 -0.08640961 -0.022637278
v -0.17566001 -0.08039785 -0.021941366
v -0.17260112 -0.08039785 -0.025000261
v -0.17329702 -0.08640961 -0.025798652
v -0.12802301 -0.08640961 -0.025798656
v -0.12871893 -0.08039785 -0.025000267
v 0.11289397 -0.12990849 -0.0345009
v 0.11063346 -0.12695561 -0.03360004
v 0.11063346 -0.12695561 0.03359951
v 0.11289397 -0.12990849 0.034500375
v 0.12545352 0.0741099 0.024999732
v 0.122394614 0.0741099 0.021940839
v 0.122394614 0.116285585 0.021940839
v 0.12545352 0.116285585 0.024999732
v 0.12545352 0.11934449 0.021940839
v 0.122394614 0.116285585 0.021940839
v 0.122394614 0.116285585 -0.021941364
v 0.12545352 0.11934449 -0.021941364
v 0.1247576 -0.08640961 -0.025798649
v 0.12159623 -0.08640961 -0.022637276
v 0.11063346 -0.12695561 -0.03360004
v 0.11379484 -0.12695561 -0.03676141
v 0.18189526 -0.12990849 -0.034500908
v 0.18099439 -0.12695561 -0.036761414
v 0.11379484 -0.12695561 -0.03676141
v 0.11289397 -0.12990849 -0.0345009
v 0.173193 -0.08640961 -0.022637285
v 0.17003162 -0.08640961 -0.025798656
v 0.18099439 -0.12695561 -0.036761414
v 0.18415576 -0.12695561 -0.033600044
v 0.18189526 -0.12990849 0.034500368
v 0.18415576 -0.12695561 0.033599503
v 0.18415576 -0.12695561 -0.033600044
v 0.18189526 -0.12990849 -0.034500908
v 0.17003162 -0.08640961 0.025798118
v 0.173193 -0.08640961 0.022636745
v 0.18415576 -0.12695561 0.033599503
v 0.18099439 -0.12695561 0.036760878
v 0.11289397 -0.12990849 0.034500375
v 0.11379484 -0.12695561 0.03676088
v 0.18099439 -0.12695561 0.036760878
v 0.18189526 -0.12990849 0.034500368
v 0.16933571 0.11934449 0.021940831
v 0.12545352 0.116285585 0.024999732
v 0.12545352 0.11934449 0.021940839
v 0.12545352 -0.08039785 0.024999732
v 0.122394614 -0.08039785 0.021940839
v 0.122394614 0.06799211 0.021940839
v 0.12545352 0.116285585 -0.02500026
v 0.122394614 0.116285585 -0.021941364
v 0.122394614 0.0741099 -0.021941364
v 0.12545352 0.0741099 -0.02500026
v 0.1754492 0.0712126 -0.02176951
v 0.1723946 0.06799211 -0.021941373
v 0.1723946 0.06799211 0.021940831
v 0.1754492 0.07121258 0.021768965
v 0.33058032 0.11097673 -0.013273394
v 0.33363494 0.10775625 -0.013110671
v 0.33363494 0.10775625 0.013110088
v 0.33058032 0.11097673 0.013272811
v 0.33363494 0.10775625 -0.013110671
v 0.33058062 0.10791357 -0.016336843
v 0.33058062 0.082481906 -0.016336843
v 0.33363494 0.0826392 -0.013110671
v 0.33058062 0.10791356 0.01633626
v 0.33363494 0.10775625 0.013110088
v 0.33363494 0.0826392 0.013110088
v 0.33058062 0.082481906 0.01633626
v 0.33363494 0.0826392 -0.013110671
v 0.33058032 0.07941873 -0.013273394
v 0.33058032 0.07941873 0.013272811
v 0.33363494 0.0826392 0.013110088
v 0.17544892 0.116119765 0.024832448
v 0.1754492 0.1191829 0.021768965
v 0.33058032 0.11097673 0.013272811
v 0.17544892 0.07427574 -0.024832992
v 0.1754492 0.0712126 -0.02176951
v 0.33058032 0.07941873 -0.013273394
v 0.33058062 0.082481906 -0.016336843
v 0.33058062 0.082481906 0.01633626
v 0.33058032 0.07941873 0.013272811
v 0.1754492 0.07121258 0.021768965
v 0.17544892 0.07427574 0.024832448
v 0.12545352 0.06799211 -0.02500026
v 0.122394614 -0.08039785 -0.021941364
v 0.12545352 -0.08039785 -0.02500026
v 0.1723946 0.06799211 -0.021941373
v 0.16933571 0.06799211 -0.025000269
v 0.16933571 -0.08039785 -0.025000269
v 0.1723946 0.06799211 -0.021941373
v 0.16933571 -0.08039785 -0.025000269
v 0.1723946 -0.08039785 -0.021941373
v 0.16933571 0.06799211 0.024999725
v 0.1723946 0.06799211 0.021940831
v 0.1723946 -0.08039785 0.021940831
v 0.16933571 0.06799211 0.024999725
v 0.1723946 -0.08039785 0.021940831
v 0.16933571 -0.08039785 0.024999725
v 0.11379484 -0.12695561 0.03676088
v 0.11063346 -0.12695561 0.03359951
v 0.12159623 -0.08640961 0.02263675
v 0.1247576 -0.08640961 0.025798121
v 0.122394614 -0.08039785 0.021940839
v 0.12159623 -0.08640961 0.02263675
v 0.12159623 -0.08640961 -0.022637276
v 0.122394614 -0.08039785 -0.021941364
v 0.12545352 -0.08039785 -0.02500026
v 0.1247576 -0.08640961 -0.025798649
v 0.17003162 -0.08640961 -0.025798656
v 0.16933571 -0.08039785 -0.025000269
v 0.1723946 -0.08039785 -0.021941373
v 0.173193 -0.08640961 -0.022637285
v 0.173193 -0.08640961 0.022636745
v 0.1723946 -0.08039785 0.021940831
v 0.16933571 -0.08039785 0.024999725
v 0.17003162 -0.08640961 0.025798118
v 0.1247576 -0.08640961 0.025798121
v 0.12545352 -0.08039785 0.024999732
v -0.04292556 -0.12710091 0.053877745
v -0.043321583 -0.12710497 -0.0378967
v -0.027168758 -0.07998372 -0.017712627
v -0.02714672 -0.079991184 0.03296861
vn -0 1 0
vn -0 1 0
vn -0 1 0
vn -0 1 0
vn -0 1 0
vn -0 1 0
vn -0 1 0
vn -0 1 0
vn -0 1 0
vn -0 1 0
vn -0 1 0
vn -0 1 0
vn -0 1 0
vn -0 1 0
vn -0 -0.45807624 0.8889129
vn -0 -0.45807624 0.8889129
vn -0 -0.45807624 0.8889129
vn -0 -0.45807624 0.8889129
vn 1 0 0
vn 1 0 0
vn 1 0 0
vn 1 0 0
vn 1 0 0
vn 1 0 0
vn 1 0 0
vn 1 0 0
vn 1 0 0
vn 1 0 0
vn 1 0 0
vn 1 0 0
vn 1 0 0
vn 1 0 0
vn 1 0 0
vn 1 0 0
vn 1 0 0
vn 1 0 0
vn -1 0 0
vn -1 0 0
vn -1 0 0
vn -1 0 0
vn -1 0 0
vn -1 0 0
vn -1 0 0
vn -1 0 0
vn -1 0 0
vn -1 0 0
vn -1 0 0
vn -1 0 0
vn -1 0 0
vn -1 0 0
vn -1 0 0
vn -1 0 0
vn -1 0 0
vn -1 0 0
vn -0.009721109 0.41614294 0.9092473
vn -0.009721109 0.41614294 0.9092473
vn -0.009721109 0.41614294 0.9092473
vn -0.009721109 0.41614294 0.9092473
vn -0 0.39377338 -0.9192075
vn -0 0.39377338 -0.9192075
vn -0 0.39377338 -0.9192075
vn -0 0.39377338 -0.9192075
vn -0 -1 0
vn -0 -1 0
vn -0 -1 0
vn -0 -1 0
vn -0 0 1
vn -0 0 1
vn -0 0 1
vn -0 0 1
vn -0 0 1
vn -0 0 1
vn -0 0 1
vn -0 0 1
vn -0 0 -1
vn -0 0 -1
vn -0 0 -1
vn -0 0 -1
vn -0 -1 0
vn -0 -1 0
vn -0 -1 0
vn -0 -1 0
vn -1.0077927E-07 -1 0
vn -1.0077927E-07 -1 0
vn -1.0077927E-07 -1 0
vn -1.0077927E-07 -1 0
vn 0.96533704 0.26100624 0
vn 0.96533704 0.26100624 0
vn 0.96533704 0.26100624 0
vn 0.96533704 0.26100624 0
vn -0 0 -1
vn -0 0 -1
vn -0 0 -1
vn -0 0 -1
vn 0.9496553 0.31329674 0
vn 0.9496553 0.31329674 0
vn 0.9496553 0.31329674 0
vn 0.9496553 0.31329674 0
vn -1.3732173E-07 1 0
vn -1.3732173E-07 1 0
vn -1.3732173E-07 1 0
vn -1.3732173E-07 1 0
vn -0.060161244 0.9981887 1.6320347E-07
vn -0.060161244 0.9981887 1.6320347E-07
vn -0.060161244 0.9981887 1.6320347E-07
vn -0.060161244 0.9981887 1.6320347E-07
vn -0.96533704 0.26100624 -1.9714261E-07
vn -0.96533704 0.26100624 -1.9714261E-07
vn -0.96533704 0.26100624 -1.9714261E-07
vn -0.96533704 0.26100624 -1.9714261E-07
vn -0.06227908 0 -0.99805874
vn -0.06227908 0 -0.99805874
vn -0.06227908 0 -0.99805874
vn -0.06227908 0 -0.99805874
vn -1.273395E-07 0 -1
vn -1.273395E-07 0 -1
vn -1.273395E-07 0 -1
vn -1.273395E-07 0 -1
vn -1.2733948E-07 0 -1
vn -1.2733948E-07 0 -1
vn -1.2733948E-07 0 -1
vn -1.2733948E-07 0 -1
vn 1 0 0
vn 1 0 0
vn 1 0 0
vn 1 0 0
vn 1 0 0
vn 1 0 0
vn 1 0 0
vn 1 0 0
vn -0 0.26100615 -0.96533716
vn -0 0.26100615 -0.96533716
vn -0 0.26100615 -0.96533716
vn -0 0.26100615 -0.96533716
vn -0 0.26100627 0.96533704
vn -0 0.26100627 0.96533704
vn -0 0.26100627 0.96533704
vn -0 0.26100627 0.96533704
vn -0 0 1
vn -0 0 1
vn -0 0 1
vn -0 0 1
vn -0 0 1
vn -0 0 1
vn -0 0 1
vn -0 0 1
vn -0.06227894 0 0.99805874
vn -0.06227894 0 0.99805874
vn -0.06227894 0 0.99805874
vn -0.06227894 0 0.99805874
vn -1 0 0
vn -1 0 0
vn -1 0 0
vn -1 0 0
vn -0.060161155 -0.9981887 -1.6320345E-07
vn -0.060161155 -0.9981887 -1.6320345E-07
vn -0.060161155 -0.9981887 -1.6320345E-07
vn -0.060161155 -0.9981887 -1.6320345E-07
vn -0.96533716 0.26100624 0
vn -0.96533716 0.26100624 0
vn -0.96533716 0.26100624 0
vn -0.96533716 0.26100624 0
vn -1 0 -2.8604686E-07
vn -1 0 -2.8604686E-07
vn -1 0 -2.8604686E-07
vn -1 0 -2.8604686E-07
vn -0 -1 0
vn -0 -1 0
vn -0 -1 0
vn -0 -1 0
vn -2.1993874E-07 1 0
vn -2.1993874E-07 1 0
vn -2.1993874E-07 1 0
vn -2.1993874E-07 1 0
vn 0.052824423 0.9986039 0
vn 0.052824423 0.9986039 0
vn 0.052824423 0.9986039 0
vn 0.052824423 0.9986039 0
vn 0.96533704 0.26100644 0
vn 0.96533704 0.26100644 0
vn 0.96533704 0.26100644 0
vn 0.96533704 0.26100644 0
vn 0.05468564 0 0.99850357
vn 0.05468564 0 0.99850357
vn 0.05468564 0 0.99850357
vn 0.05468564 0 0.99850357
vn 1.6978599E-07 0 1
vn 1.6978599E-07 0 1
vn 1.6978599E-07 0 1
vn 1.6978599E-07 0 1
vn 1.6978596E-07 0 1
vn 1.6978596E-07 0 1
vn 1.6978596E-07 0 1
vn 1.6978596E-07 0 1
vn -1 0 0
vn -1 0 0
vn -1 0 0
vn -1 0 0
vn -1 0 0
vn -1 0 0
vn -1 0 0
vn -1 0 0
vn -0 0.26100624 0.96533716
vn -0 0.26100624 0.96533716
vn -0 0.26100624 0.96533716
vn -0 0.26100624 0.96533716
vn -0 0.26100612 -0.96533716
vn -0 0.26100612 -0.96533716
vn -0 0.26100612 -0.96533716
vn -0 0.26100612 -0.96533716
vn -2.1223245E-07 0 -1
vn -2.1223245E-07 0 -1
vn -2.1223245E-07 0 -1
vn -2.1223245E-07 0 -1
vn -2.1223246E-07 0 -1
vn -2.1223246E-07 0 -1
vn -2.1223246E-07 0 -1
vn -2.1223246E-07 0 -1
vn 0.054685373 0 -0.9985037
vn 0.054685373 0 -0.9985037
vn 0.054685373 0 -0.9985037
vn 0.054685373 0 -0.9985037
vn 1 0 0
vn 1 0 0
vn 1 0 0
vn 1 0 0
vn 0.052824337 -0.9986039 0
vn 0.052824337 -0.9986039 0
vn 0.052824337 -0.9986039 0
vn 0.052824337 -0.9986039 0
vn 1 0 0
vn 1 0 0
vn 1 0 0
vn 1 0 0
vn -0 -1 0
vn -0 -1 0
vn -0 -1 0
vn -0 -1 0
vn -0.7267625 -0.15592675 0.6689568
vn -0.7267625 -0.15592675 0.6689568
vn -0.7267625 -0.15592675 0.6689568
vn -0.5773497 0.57735056 0.57735056
vn -0.5773497 0.57735056 0.57735056
vn -0.5773497 0.57735056 0.57735056
vn -0.71782535 -0.16530886 -0.67631346
vn -0.71782535 -0.16530886 -0.67631346
vn -0.71782535 -0.16530886 -0.67631346
vn -0.7071072 0.70710635 0
vn -0.7071072 0.70710635 0
vn -0.7071072 0.70710635 0
vn -0.7071072 0.70710635 0
vn -0.707107 0.7071065 0
vn -0.70710784 0.70710564 0
vn -0.70710784 0.70710564 0
vn -0.70710677 0.70710677 0
vn -0.70710677 0.70710677 0
vn -0.70710677 0.70710677 0
vn -0.70710677 0.70710677 0
vn 0.72372884 -0.14984374 0.67361957
vn 0.72372884 -0.14984374 0.67361957
vn 0.72372884 -0.14984374 0.67361957
vn 0.5773497 0.57735056 0.57735056
vn 0.5773497 0.57735056 0.57735056
vn 0.5773497 0.57735056 0.57735056
vn 0.7174479 -0.17320377 -0.6747362
vn 0.7174479 -0.17320377 -0.6747362
vn 0.7174479 -0.17320377 -0.6747362
vn 0.7071072 0.70710635 0
vn 0.7071072 0.70710635 0
vn 0.7071072 0.70710635 0
vn 0.7071072 0.70710635 0
vn 0.707107 0.7071065 0
vn 0.707107 0.7071065 0
vn 0.70710665 0.7071069 0
vn -0.7071065 0 0.707107
vn -0.7071065 0 0.707107
vn -0.7071065 0 0.707107
vn -0.7071065 0 0.707107
vn -0.70710677 0 0.70710677
vn -0.70710677 0 0.70710677
vn -0.855186 -0.3665083 -0.36650878
vn -0.855186 -0.3665083 -0.36650878
vn -0.855186 -0.3665083 -0.36650878
vn -0.855186 -0.3665083 -0.36650878
vn -0.855186 -0.3665083 -0.36650878
vn 0.85518605 -0.36650828 -0.3665086
vn 0.85518605 -0.36650828 -0.3665086
vn 0.85518605 -0.36650828 -0.3665086
vn 0.85518605 -0.36650828 -0.3665086
vn 0.85518605 -0.36650828 -0.3665086
vn 0.7071065 0 0.707107
vn 0.7071065 0 0.707107
vn 0.7071065 0 0.707107
vn 0.7071065 0 0.707107
vn 0.70710677 0 0.70710677
vn 0.70710677 0 0.70710677
vn 0.70710665 0 0.7071069
vn 0.70710665 0 0.7071069
vn -0.5773488 0.57735234 -0.57734966
vn -0.5773488 0.57735234 -0.57734966
vn -0.5773488 0.57735234 -0.57734966
vn 0.5773488 0.57735234 -0.57734966
vn 0.5773488 0.57735234 -0.57734966
vn 0.5773488 0.57735234 -0.57734966
vn -0.5773488 -0.57735234 -0.57734966
vn -0.5773488 -0.57735234 -0.57734966
vn -0.5773488 -0.57735234 -0.57734966
vn 0.5773488 -0.57735234 -0.57734966
vn 0.5773488 -0.57735234 -0.57734966
vn 0.5773488 -0.57735234 -0.57734966
vn -0.6907543 0.23318875 -0.6844571
vn -0.6907543 0.23318875 -0.6844571
vn -0.6907543 0.23318875 -0.6844571
vn -0.6907543 0.23318875 -0.6844571
vn 0.69179904 0.2297796 -0.68455493
vn 0.69179904 0.2297796 -0.68455493
vn 0.69179904 0.2297796 -0.68455493
vn 0.69179904 0.2297796 -0.68455493
vn 0.6917522 0.23958193 0.6812337
vn 0.6917522 0.23958193 0.6812337
vn 0.6917522 0.23958193 0.6812337
vn 0.6917522 0.23958193 0.6812337
vn -0.6914032 0.2345674 0.6833298
vn -0.6914032 0.2345674 0.6833298
vn -0.6914032 0.2345674 0.6833298
vn -0.6914032 0.2345674 0.6833298
vn -0.6914032 0.2345674 0.6833298
vn -0.6914032 0.2345674 0.6833298
vn -0.7620869 -0.42269397 0.49046227
vn -0.7620869 -0.42269397 0.49046227
vn -0.7620869 -0.42269397 0.49046227
vn -0.7620869 -0.42269397 0.49046227
vn 0.7620869 -0.42269397 0.49046227
vn 0.7620869 -0.42269397 0.49046227
vn 0.7620869 -0.42269397 0.49046227
vn 0.7620869 -0.42269397 0.49046227
vn 0.7620869 -0.42269397 0.49046227
vn 0.7620869 -0.42269397 0.49046227
vn 0.70710677 0.70710677 0
vn 0.70710677 0.70710677 0
vn 0.70710677 0.70710677 0
vn 0.70710677 0.70710677 0
vn 0.7071077 0.70710576 0
vn 0.7071077 0.70710576 0
vn 0.73335254 -0.6138283 0.2922479
vn 0.73335254 -0.6138283 0.2922479
vn 0.73335254 -0.6138283 0.2922479
vn 0.73335254 -0.6138283 0.2922479
vn -0.73335266 -0.61382836 0.29224762
vn -0.73335266 -0.61382836 0.29224762
vn -0.73335266 -0.61382836 0.29224762
vn -0.73335266 -0.61382836 0.29224762
vn -0.73335266 -0.61382836 0.29224762
vn -0.73335266 -0.61382836 0.29224762
vn 0.70710784 0.70710564 0
vn 0.70710784 0.70710564 0
vn 0.70710784 0.70710564 0
vn 0.70710784 0.70710564 0
vn 0.70710665 0.7071069 0
vn 0.6723668 -0.3095897 -0.6723668
vn 0.6723668 -0.3095897 -0.6723668
vn 0.6723668 -0.3095897 -0.6723668
vn 0.5773497 0.57735145 -0.5773497
vn 0.5773497 0.57735145 -0.5773497
vn 0.5773497 0.57735145 -0.5773497
vn 0.6723668 -0.3095897 0.6723668
vn 0.6723668 -0.3095897 0.6723668
vn 0.6723668 -0.3095897 0.6723668
vn 0.57734996 0.5773509 0.57734996
vn 0.57734996 0.5773509 0.57734996
vn 0.57734996 0.5773509 0.57734996
vn -0.6723668 -0.3095897 -0.6723668
vn -0.6723668 -0.3095897 -0.6723668
vn -0.6723668 -0.3095897 -0.6723668
vn -0.043949567 0.7064484 -0.7063988
vn -0.043949567 0.7064484 -0.7063988
vn -0.043949567 0.7064484 -0.7063988
vn -0.043949567 0.7064484 -0.7063988
vn -1.0320589E-07 0.70710677 -0.70710677
vn -0.08641669 0.7045075 -0.70441544
vn -0.08641669 0.7045075 -0.70441544
vn -0.67236656 -0.30959064 0.67236656
vn -0.67236656 -0.30959064 0.67236656
vn -0.67236656 -0.30959064 0.67236656
vn -0.043950196 0.70644903 0.70639807
vn -0.043950196 0.70644903 0.70639807
vn -0.043950196 0.70644903 0.70639807
vn -0.043950196 0.70644903 0.70639807
vn -0 0.70710677 0.70710677
vn -0 0.70710677 0.70710677
vn -0.08641645 0.7045084 0.7044147
vn -0.08641645 0.7045084 0.7044147
vn 0.7071062 0 -0.7071073
vn 0.7071062 0 -0.7071073
vn 0.7071062 0 -0.7071073
vn 0.7071062 0 -0.7071073
vn 0.7071064 0 -0.70710707
vn 0.7071062 0 0.7071073
vn 0.7071062 0 0.7071073
vn 0.7071062 0 0.7071073
vn 0.7071062 0 0.7071073
vn 0.7071064 0 0.70710707
vn -0.39765674 -0.3523854 0.847168
vn -0.39765674 -0.3523854 0.847168
vn -0.39765674 -0.3523854 0.847168
vn -0.39765674 -0.3523854 0.847168
vn -0.39765674 -0.3523854 0.847168
vn -0.39765674 -0.3523854 0.847168
vn -0.39765674 -0.3523854 0.847168
vn -0.39765638 -0.35238546 -0.84716815
vn -0.39765638 -0.35238546 -0.84716815
vn -0.39765638 -0.35238546 -0.84716815
vn -0.39765638 -0.35238546 -0.84716815
vn -0.39765638 -0.35238546 -0.84716815
vn -0.39765638 -0.35238546 -0.84716815
vn -0.39765638 -0.35238546 -0.84716815
vn -0.39765638 -0.35238546 -0.84716815
vn -0.39765638 -0.35238546 -0.84716815
vn -0.62175417 0.5538892 0.55374056
vn -0.62175417 0.5538892 0.55374056
vn -0.62175417 0.5538892 0.55374056
vn -0.62175643 0.55388767 -0.5537395
vn -0.62175643 0.55388767 -0.5537395
vn -0.62175643 0.55388767 -0.5537395
vn -0.6217522 -0.5538876 0.5537442
vn -0.6217522 -0.5538876 0.5537442
vn -0.6217522 -0.5538876 0.5537442
vn -0.621757 -0.55389184 -0.55373466
vn -0.621757 -0.55389184 -0.55373466
vn -0.621757 -0.55389184 -0.55373466
vn 0.6964309 0.17310771 0.6964321
vn 0.6964309 0.17310771 0.6964321
vn 0.6964309 0.17310771 0.6964321
vn 0.6964309 0.17310771 0.6964321
vn -0.6964321 0.17310746 0.69643104
vn -0.6964321 0.17310746 0.69643104
vn -0.6964321 0.17310746 0.69643104
vn -0.6964321 0.17310746 0.69643104
vn -0.6964321 0.17310746 0.69643104
vn -0.6964321 0.17310746 0.69643104
vn -0.69642997 0.17310718 -0.69643325
vn -0.69642997 0.17310718 -0.69643325
vn -0.69642997 0.17310718 -0.69643325
vn -0.69642997 0.17310718 -0.69643325
vn 0.6964309 0.17310719 -0.6964321
vn 0.6964309 0.17310719 -0.6964321
vn 0.6964309 0.17310719 -0.6964321
vn 0.6964309 0.17310719 -0.6964321
vn -0.6723686 -0.30959105 0.67236435
vn -0.6723686 -0.30959105 0.67236435
vn -0.6723686 -0.30959105 0.67236435
vn -0.5773497 0.57735145 0.5773497
vn -0.5773497 0.57735145 0.5773497
vn -0.5773497 0.57735145 0.5773497
vn -0.6723687 -0.30959055 -0.6723645
vn -0.6723687 -0.30959055 -0.6723645
vn -0.6723687 -0.30959055 -0.6723645
vn -0.5773497 0.57735145 -0.5773497
vn -0.5773497 0.57735145 -0.5773497
vn -0.5773497 0.57735145 -0.5773497
vn 0.6723706 -0.30959147 0.6723622
vn 0.6723706 -0.30959147 0.6723622
vn 0.6723706 -0.30959147 0.6723622
vn 0.03851974 0.7066012 0.70656276
vn 0.03851974 0.7066012 0.70656276
vn 0.03851974 0.7066012 0.70656276
vn 0.03851974 0.7066012 0.70656276
vn 1.8871258E-07 0.7071066 0.7071069
vn 0.07591148 0.70510256 0.7050304
vn 0.07591148 0.70510256 0.7050304
vn 0.6723703 -0.30959237 -0.67236197
vn 0.6723703 -0.30959237 -0.67236197
vn 0.6723703 -0.30959237 -0.67236197
vn 0.0385184 0.7066021 -0.7065618
vn 0.0385184 0.7066021 -0.7065618
vn 0.0385184 0.7066021 -0.7065618
vn 0.0385184 0.7066021 -0.7065618
vn -1.2090541E-07 0.70710677 -0.70710677
vn -1.2090541E-07 0.70710677 -0.70710677
vn 0.075911336 0.70510256 -0.7050304
vn 0.075911336 0.70510256 -0.7050304
vn -0.7071062 0 0.7071073
vn -0.7071062 0 0.7071073
vn -0.7071062 0 0.7071073
vn -0.7071062 0 0.7071073
vn -0.7071064 0 0.70710707
vn -0.7071062 0 -0.7071073
vn -0.7071062 0 -0.7071073
vn -0.7071062 0 -0.7071073
vn -0.7071062 0 -0.7071073
vn -0.7071064 0 -0.70710707
vn 0.39386475 -0.35412773 -0.84821224
vn 0.39386475 -0.35412773 -0.84821224
vn 0.39386475 -0.35412773 -0.84821224
vn 0.39386475 -0.35412773 -0.84821224
vn 0.39386475 -0.35412773 -0.84821224
vn 0.39386475 -0.35412773 -0.84821224
vn 0.39386475 -0.35412773 -0.84821224
vn 0.39386442 -0.3541281 0.84821224
vn 0.39386442 -0.3541281 0.84821224
vn 0.39386442 -0.3541281 0.84821224
vn 0.39386442 -0.3541281 0.84821224
vn 0.39386442 -0.3541281 0.84821224
vn 0.39386442 -0.3541281 0.84821224
vn 0.39386442 -0.3541281 0.84821224
vn 0.39386442 -0.3541281 0.84821224
vn 0.39386442 -0.3541281 0.84821224
vn 0.61661446 0.55673605 -0.55662525
vn 0.61661446 0.55673605 -0.55662525
vn 0.61661446 0.55673605 -0.55662525
vn 0.6166202 0.55673814 0.5566169
vn 0.6166202 0.55673814 0.5566169
vn 0.6166202 0.55673814 0.5566169
vn 0.61661834 -0.5567345 -0.5566224
vn 0.61661834 -0.5567345 -0.5566224
vn 0.61661834 -0.5567345 -0.5566224
vn 0.6166172 -0.5567349 0.5566232
vn 0.6166172 -0.5567349 0.5566232
vn 0.6166172 -0.5567349 0.5566232
vn -0.6964321 0.17310746 -0.69643104
vn -0.6964321 0.17310746 -0.69643104
vn -0.6964321 0.17310746 -0.69643104
vn -0.6964321 0.17310746 -0.69643104
vn 0.69642997 0.17310718 -0.69643325
vn 0.69642997 0.17310718 -0.69643325
vn 0.69642997 0.17310718 -0.69643325
vn 0.69642997 0.17310718 -0.69643325
vn 0.69642997 0.17310718 -0.69643325
vn 0.69642997 0.17310718 -0.69643325
vn 0.69642997 0.17310692 0.69643325
vn 0.69642997 0.17310692 0.69643325
vn 0.69642997 0.17310692 0.69643325
vn 0.69642997 0.17310692 0.69643325
vn -0.6964321 0.17310746 0.69643104
vn -0.6964321 0.17310746 0.69643104
vn -0.6964321 0.17310746 0.69643104
vn -0.6964321 0.17310746 0.69643104
vn -0.8126909 -0.582684 0.0035734286
vn -0.8126909 -0.582684 0.0035734286
vn -0.8126909 -0.582684 0.0035734286
vn -0.8126909 -0.582684 0.0035734286
vn -0.707107 0.7071065 0
vn -0.707107 0.7071065 0
vn -0.707107 0.7071065 0
vn -0.63064533 0.4781337 -0.6112894
vn -0.63064533 0.4781337 -0.6112894
vn -0.63064533 0.4781337 -0.6112894
vn -0.63064533 0.4781337 -0.6112894
vn -0 -0.55055624 -0.834798
vn -0 -0.55055624 -0.834798
vn -0 -0.55055624 -0.834798
vn -0 -0.55055624 -0.834798
vn 0.6335631 0.4717224 -0.6132502
vn 0.6335631 0.4717224 -0.6132502
vn 0.6335631 0.4717224 -0.6132502
vn 0.6335631 0.4717224 -0.6132502
vn 0.8103374 -0.5859636 0
vn 0.8103374 -0.5859636 0
vn 0.8103374 -0.5859636 0
vn 0.8103374 -0.5859636 0
vn 0.62796044 0.49134552 0.60352725
vn 0.62796044 0.49134552 0.60352725
vn 0.62796044 0.49134552 0.60352725
vn 0.62796044 0.49134552 0.60352725
vn -0.013950415 -0.5403426 0.84132946
vn -0.013950415 -0.5403426 0.84132946
vn -0.013950415 -0.5403426 0.84132946
vn -0.013950415 -0.5403426 0.84132946
vn -0 0.70710677 0.70710677
vn -0 0.70710677 0.70710677
vn -0 0.70710677 0.70710677
vn -0 0.70710677 0.70710677
vn -0.70710665 0 0.7071069
vn -0.70710665 0 0.7071069
vn -0.70710665 0 0.7071069
vn -0.70710665 0 0.7071069
vn -0 -0.7071069 -0.7071066
vn -0 -0.7071069 -0.7071066
vn -0 -0.7071069 -0.7071066
vn -0 -0.7071069 -0.7071066
vn -0 0.707107 -0.7071065
vn -0 0.707107 -0.7071065
vn -0 0.707107 -0.7071065
vn -0 0.707107 -0.7071065
vn -0.70710677 0 -0.7071068
vn -0.70710677 0 -0.7071068
vn -0.70710677 0 -0.7071068
vn -0.70710677 0 -0.7071068
vn -0.70710677 0 -0.7071068
vn -0.70710677 0 -0.7071068
vn 0.70710677 0 -0.7071068
vn 0.70710677 0 -0.7071068
vn 0.70710677 0 -0.7071068
vn 0.70710677 0 -0.7071068
vn -0 -0.707107 -0.7071065
vn -0 -0.707107 -0.7071065
vn -0 -0.707107 -0.7071065
vn -0 -0.707107 -0.7071065
vn -0.7071072 -0.70710635 0
vn -0.7071072 -0.70710635 0
vn -0.7071072 -0.70710635 0
vn -0.7071072 -0.70710635 0
vn -0.7071072 -0.70710635 0
vn -0.7071072 -0.70710635 0
vn 0.70710665 -0.7071069 0
vn 0.70710665 -0.7071069 0
vn 0.70710665 -0.7071069 0
vn 0.70710665 -0.7071069 0
vn -0.70710665 0.7071069 0
vn -0.70710665 0.7071069 0
vn -0.70710665 0.7071069 0
vn -0.70710665 0 -0.7071069
vn -0.70710665 0 -0.7071069
vn -0.70710665 0 -0.7071069
vn -0.70710665 0 -0.7071069
vn 0.70710665 0 -0.7071069
vn 0.70710665 0 -0.7071069
vn 0.70710665 0 -0.7071069
vn 0.70710665 0 -0.7071069
vn -0.6330688 0.48137948 0.60621583
vn -0.6330688 0.48137948 0.60621583
vn -0.6330688 0.48137948 0.60621583
vn -0.6330688 0.48137948 0.60621583
vn -0.9866867 0.16263236 0.0002311092
vn -0.9866867 0.16263236 0.0002311092
vn -0.9866867 0.16263236 0.0002311092
vn -0.9866867 0.16263236 0.0002311092
vn -0 0.20098792 -0.97959375
vn -0 0.20098792 -0.97959375
vn -0 0.20098792 -0.97959375
vn -0 0.20098792 -0.97959375
vn 0.98733354 0.15865804 0
vn 0.98733354 0.15865804 0
vn 0.98733354 0.15865804 0
vn 0.98733354 0.15865804 0
vn -0.0007279182 0.21291888 0.9770697
vn -0.0007279182 0.21291888 0.9770697
vn -0.0007279182 0.21291888 0.9770697
vn -0.0007279182 0.21291888 0.9770697
vn -0.70710766 -0.32390767 0.62855595
vn -0.70710766 -0.32390767 0.62855595
vn -0.70710766 -0.32390767 0.62855595
vn 0.7071072 -0.70710635 0
vn 0.7071072 -0.70710635 0
vn 0.7071072 -0.70710635 0
vn 0.7071072 -0.70710635 0
vn -0.7071077 0.70710576 0
vn -0.7071077 0.70710576 0
vn -0.7071077 0.70710576 0
vn -0.7071077 0.70710576 0
vn -0 -0.8538358 0.5205424
vn -0 -0.8538358 0.5205424
vn -0 -0.8538358 0.5205424
vn -0 -0.8538358 0.5205424
vn 0.70710766 -0.32390767 0.62855595
vn 0.70710766 -0.32390767 0.62855595
vn 0.70710766 -0.32390767 0.62855595
vn -0.70710665 -0.7071069 0
vn -0.70710665 -0.7071069 0
vn -0.70710665 -0.7071069 0
vn -0.70710665 -0.7071069 0
vn -0 -0.85383683 0.52054065
vn -0 -0.85383683 0.52054065
vn -0 -0.85383683 0.52054065
vn -0 -0.85383683 0.52054065
vn 0.79404175 -0.6078631 0
vn 0.79404175 -0.6078631 0
vn 0.79404175 -0.6078631 0
vn 0.79404175 -0.6078631 0
vn 0.7071069 0 -0.70710665
vn 0.7071069 0 -0.70710665
vn 0.7071069 0 -0.70710665
vn 0.7071069 0 -0.70710665
vn 0.70710665 0.7071068 0
vn 0.70710665 0.7071068 0
vn 0.70710665 0.7071068 0
vn 0.70710665 0.7071068 0
vn 0.66046983 0.35715303 0.6604705
vn 0.66046983 0.35715303 0.6604705
vn 0.66046983 0.35715303 0.6604705
vn 0.66046983 0.35715303 0.6604705
vn -0 -0.6078641 0.7940411
vn -0 -0.6078641 0.7940411
vn -0 -0.6078641 0.7940411
vn -0 -0.6078641 0.7940411
vn -0.6604706 0.3571537 0.6604694
vn -0.6604706 0.3571537 0.6604694
vn -0.6604706 0.3571537 0.6604694
vn -0.6604706 0.3571537 0.6604694
vn -0.79404175 -0.6078631 0
vn -0.79404175 -0.6078631 0
vn -0.79404175 -0.6078631 0
vn -0.79404175 -0.6078631 0
vn -0.66047114 0.35715383 -0.66046876
vn -0.66047114 0.35715383 -0.66046876
vn -0.66047114 0.35715383 -0.66046876
vn -0.66047114 0.35715383 -0.66046876
vn -0 -0.6078641 -0.7940411
vn -0 -0.6078641 -0.7940411
vn -0 -0.6078641 -0.7940411
vn -0 -0.6078641 -0.7940411
vn -1.0320589E-07 0.70710677 -0.70710677
vn -1.0320589E-07 0.70710677 -0.70710677
vn -1.0320589E-07 0.70710677 -0.70710677
vn 0.7071064 0 -0.70710707
vn 0.7071064 0 -0.70710707
vn 0.7071064 0 -0.70710707
vn 0.7071069 0 0.70710665
vn 0.7071069 0 0.70710665
vn 0.7071069 0 0.70710665
vn 0.7071069 0 0.70710665
vn -0.72806674 -0.6855062 0
vn -0.72806674 -0.6855062 0
vn -0.72806674 -0.6855062 0
vn -0.72806674 -0.6855062 0
vn -0.72806555 0.6855075 1.091559E-06
vn -0.72806555 0.6855075 1.091559E-06
vn -0.72806555 0.6855075 1.091559E-06
vn -0.72806555 0.6855075 1.091559E-06
vn -0.7287936 0 0.68473345
vn -0.7287936 0 0.68473345
vn -0.7287936 0 0.68473345
vn -0.7287936 0 0.68473345
vn -0.7287936 0 -0.68473345
vn -0.7287936 0 -0.68473345
vn -0.7287936 0 -0.68473345
vn -0.7287936 0 -0.68473345
vn -0.72806555 -0.6855075 -6.9182437E-07
vn -0.72806555 -0.6855075 -6.9182437E-07
vn -0.72806555 -0.6855075 -6.9182437E-07
vn -0.72806555 -0.6855075 -6.9182437E-07
vn -0.08641669 0.7045075 -0.70441544
vn -0.08641669 0.7045075 -0.70441544
vn -0.08641669 0.7045075 -0.70441544
vn -0.08641643 -0.7045075 0.7044156
vn -0.08641643 -0.7045075 0.7044156
vn -0.08641643 -0.7045075 0.7044156
vn -0.08641643 -0.7045075 0.7044156
vn -0.0864165 -0.704508 -0.7044151
vn -0.0864165 -0.704508 -0.7044151
vn -0.0864165 -0.704508 -0.7044151
vn -0.0864165 -0.704508 -0.7044151
vn 0.7071064 0 0.70710707
vn 0.7071064 0 0.70710707
vn 0.7071064 0 0.70710707
vn -0.7071064 0 0.70710707
vn -0.7071064 0 0.70710707
vn -0.7071064 0 0.70710707
vn -0.7071064 0 0.70710707
vn -0.7071064 0 0.70710707
vn -0.7071064 0 0.70710707
vn -0.7071064 0 -0.70710707
vn -0.7071064 0 -0.70710707
vn -0.7071064 0 -0.70710707
vn -0.7071064 0 -0.70710707
vn -0.7071064 0 -0.70710707
vn -0.7071064 0 -0.70710707
vn 0.66046953 0.35715327 -0.6604707
vn 0.66046953 0.35715327 -0.6604707
vn 0.66046953 0.35715327 -0.6604707
vn 0.66046953 0.35715327 -0.6604707
vn 0.9912964 0.1316487 0
vn 0.9912964 0.1316487 0
vn 0.9912964 0.1316487 0
vn 0.9912964 0.1316487 0
vn -0 0.13164876 0.9912964
vn -0 0.13164876 0.9912964
vn -0 0.13164876 0.9912964
vn -0 0.13164876 0.9912964
vn -0.9912964 0.13164881 0
vn -0.9912964 0.13164881 0
vn -0.9912964 0.13164881 0
vn -0.9912964 0.13164881 0
vn -0 0.13164924 -0.9912963
vn -0 0.13164924 -0.9912963
vn -0 0.13164924 -0.9912963
vn -0 0.13164924 -0.9912963
vn -0.79404175 -0.6078631 0
vn -0.79404175 -0.6078631 0
vn -0.79404175 -0.6078631 0
vn -0.79404175 -0.6078631 0
vn -0.7071069 0 0.70710665
vn -0.7071069 0 0.70710665
vn -0.7071069 0 0.70710665
vn -0.7071069 0 0.70710665
vn -0.70710677 0.70710677 0
vn -0.70710677 0.70710677 0
vn -0.70710677 0.70710677 0
vn -0.70710677 0.70710677 0
vn -0.66046953 0.35715312 -0.6604707
vn -0.66046953 0.35715312 -0.6604707
vn -0.66046953 0.35715312 -0.6604707
vn -0.66046953 0.35715312 -0.6604707
vn -0 -0.607864 -0.79404116
vn -0 -0.607864 -0.79404116
vn -0 -0.607864 -0.79404116
vn -0 -0.607864 -0.79404116
vn 0.66046953 0.35715327 -0.6604707
vn 0.66046953 0.35715327 -0.6604707
vn 0.66046953 0.35715327 -0.6604707
vn 0.66046953 0.35715327 -0.6604707
vn 0.7940418 -0.6078631 0
vn 0.7940418 -0.6078631 0
vn 0.7940418 -0.6078631 0
vn 0.7940418 -0.6078631 0
vn 0.6604697 0.3571533 0.66047037
vn 0.6604697 0.3571533 0.66047037
vn 0.6604697 0.3571533 0.66047037
vn 0.6604697 0.3571533 0.66047037
vn -0 -0.607864 0.79404116
vn -0 -0.607864 0.79404116
vn -0 -0.607864 0.79404116
vn -0 -0.607864 0.79404116
vn 1.8871258E-07 0.7071066 0.7071069
vn 1.8871258E-07 0.7071066 0.7071069
vn 1.8871258E-07 0.7071066 0.7071069
vn -0.7071064 0 0.70710707
vn -0.7071064 0 0.70710707
vn -0.7071064 0 0.70710707
vn -0.7071069 0 -0.70710665
vn -0.7071069 0 -0.70710665
vn -0.7071069 0 -0.70710665
vn -0.7071069 0 -0.70710665
vn 0.7255428 -0.68817717 3.000124E-07
vn 0.7255428 -0.68817717 3.000124E-07
vn 0.7255428 -0.68817717 3.000124E-07
vn 0.7255428 -0.68817717 3.000124E-07
vn 0.72554284 0.688177 0
vn 0.72554284 0.688177 0
vn 0.72554284 0.688177 0
vn 0.72554284 0.688177 0
vn 0.72618145 0 -0.68750304
vn 0.72618145 0 -0.68750304
vn 0.72618145 0 -0.68750304
vn 0.72618145 0 -0.68750304
vn 0.7261813 0 0.6875031
vn 0.7261813 0 0.6875031
vn 0.7261813 0 0.6875031
vn 0.7261813 0 0.6875031
vn 0.7255419 -0.68817794 0
vn 0.7255419 -0.68817794 0
vn 0.7255419 -0.68817794 0
vn 0.7255419 -0.68817794 0
vn 0.07591148 0.70510256 0.7050304
vn 0.07591148 0.70510256 0.7050304
vn 0.07591148 0.70510256 0.7050304
vn 0.07591113 -0.7051015 -0.7050315
vn 0.07591113 -0.7051015 -0.7050315
vn 0.07591113 -0.7051015 -0.7050315
vn 0.07591113 -0.7051015 -0.7050315
vn 0.07591141 -0.7051012 0.70503175
vn 0.07591141 -0.7051012 0.70503175
vn 0.07591141 -0.7051012 0.70503175
vn 0.07591141 -0.7051012 0.70503175
vn -0.7071064 0 -0.70710707
vn -0.7071064 0 -0.70710707
vn -0.7071064 0 -0.70710707
vn 0.7071064 0 -0.70710707
vn 0.7071064 0 -0.70710707
vn 0.7071064 0 -0.70710707
vn 0.7071064 0 -0.70710707
vn 0.7071064 0 -0.70710707
vn 0.7071064 0 -0.70710707
vn 0.7071064 0 0.70710707
vn 0.7071064 0 0.70710707
vn 0.7071064 0 0.70710707
vn 0.7071064 0 0.70710707
vn 0.7071064 0 0.70710707
vn 0.7071064 0 0.70710707
vn -0.66046953 0.35715342 0.6604707
vn -0.66046953 0.35715342 0.6604707
vn -0.66046953 0.35715342 0.6604707
vn -0.66046953 0.35715342 0.6604707
vn -0.9912964 0.13164881 0
vn -0.9912964 0.13164881 0
vn -0.9912964 0.13164881 0
vn -0.9912964 0.13164881 0
vn -1.7449223E-07 0.13164924 -0.9912963
vn -1.7449223E-07 0.13164924 -0.9912963
vn -1.7449223E-07 0.13164924 -0.9912963
vn -1.7449223E-07 0.13164924 -0.9912963
vn 0.9912964 0.1316487 0
vn 0.9912964 0.1316487 0
vn 0.9912964 0.1316487 0
vn 0.9912964 0.1316487 0
vn 1.4432582E-07 0.13164882 0.9912964
vn 1.4432582E-07 0.13164882 0.9912964
vn 1.4432582E-07 0.13164882 0.9912964
vn 1.4432582E-07 0.13164882 0.9912964
vn -0.94708943 0.32095775 0.0027871327
vn -0.94708943 0.32095775 0.0027871327
vn -0.94708943 0.32095775 0.0027871327
vn -0.94708943 0.32095775 0.0027871327
g BathroomSinkHandles_0
f 3/3/3 2/2/2 1/1/1
f 4/4/4 3/3/3 1/1/1
f 1/1/1 5/5/5 4/4/4
f 5/5/5 6/6/6 4/4/4
f 5/5/5 7/7/7 6/6/6
f 7/7/7 8/8/8 6/6/6
f 8/8/8 7/7/7 9/9/9
f 10/10/10 8/8/8 9/9/9
f 10/10/10 9/9/9 11/11/11
f 12/12/12 10/10/10 11/11/11
f 11/11/11 13/13/13 12/12/12
f 13/13/13 14/14/14 12/12/12
f 17/17/17 16/16/16 15/15/15
f 18/18/18 17/17/17 15/15/15
f 21/21/21 20/20/20 19/19/19
f 22/22/22 21/21/21 19/19/19
f 22/22/22 19/19/19 23/23/23
f 24/24/24 22/22/22 23/23/23
f 23/23/23 25/25/25 24/24/24
f 25/25/25 26/26/26 24/24/24
f 26/26/26 27/27/27 24/24/24
f 27/27/27 28/28/28 24/24/24
f 28/28/28 27/27/27 29/29/29
f 27/27/27 30/30/30 29/29/29
f 20/20/20 21/21/21 31/31/31
f 32/32/32 20/20/20 31/31/31
f 32/32/32 31/31/31 33/33/33
f 34/34/34 32/32/32 33/33/33
f 33/33/33 35/35/35 34/34/34
f 35/35/35 36/36/36 34/34/34
f 39/39/39 38/38/38 37/37/37
f 40/40/40 39/39/39 37/37/37
f 38/38/38 39/39/39 41/41/41
f 42/42/42 38/38/38 41/41/41
f 41/41/41 43/43/43 42/42/42
f 43/43/43 44/44/44 42/42/42
f 38/38/38 45/45/45 37/37/37
f 45/45/45 46/46/46 37/37/37
f 46/46/46 45/45/45 47/47/47
f 45/45/45 48/48/48 47/47/47
f 44/44/44 43/43/43 49/49/49
f 50/50/50 44/44/44 49/49/49
f 50/50/50 49/49/49 51/51/51
f 52/52/52 50/50/50 51/51/51
f 51/51/51 53/53/53 52/52/52
f 53/53/53 54/54/54 52/52/52
f 57/57/57 56/56/56 55/55/55
f 58/58/58 57/57/57 55/55/55
f 61/61/61 60/60/60 59/59/59
f 62/62/62 61/61/61 59/59/59
f 65/65/65 64/64/64 63/63/63
f 66/66/66 65/65/65 63/63/63
f 69/69/69 68/68/68 67/67/67
f 70/70/70 69/69/69 67/67/67
f 69/69/69 70/70/70 71/71/71
f 72/72/72 69/69/69 71/71/71
f 73/73/73 72/72/72 71/71/71
f 74/74/74 73/73/73 71/71/71
f 77/77/77 76/76/76 75/75/75
f 78/78/78 77/77/77 75/75/75
f 81/81/81 80/80/80 79/79/79
f 82/82/82 81/81/81 79/79/79
f 85/85/85 84/84/84 83/83/83
f 86/86/86 85/85/85 83/83/83
f 89/89/89 88/88/88 87/87/87
f 90/90/90 89/89/89 87/87/87
f 93/93/93 92/92/92 91/91/91
f 94/94/94 93/93/93 91/91/91
f 97/97/97 96/96/96 95/95/95
f 98/98/98 97/97/97 95/95/95
f 101/101/101 100/100/100 99/99/99
f 102/102/102 101/101/101 99/99/99
f 100/100/100 103/103/103 99/99/99
f 103/103/103 104/104/104 99/99/99
f 103/103/103 105/105/105 104/104/104
f 105/105/105 106/106/106 104/104/104
f 109/109/109 108/108/108 107/107/107
f 110/110/110 109/109/109 107/107/107
f 113/113/113 112/112/112 111/111/111
f 114/114/114 113/113/113 111/111/111
f 114/114/114 111/111/111 115/115/115
f 116/116/116 114/114/114 115/115/115
f 115/115/115 117/117/117 116/116/116
f 117/117/117 118/118/118 116/116/116
f 118/118/118 119/119/119 116/116/116
f 119/119/119 120/120/120 116/116/116
f 120/120/120 119/119/119 121/121/121
f 119/119/119 122/122/122 121/121/121
f 125/125/125 124/124/124 123/123/123
f 126/126/126 125/125/125 123/123/123
f 124/124/124 127/127/127 123/123/123
f 127/127/127 128/128/128 123/123/123
f 128/128/128 127/127/127 129/129/129
f 127/127/127 130/130/130 129/129/129
f 133/133/133 132/132/132 131/131/131
f 134/134/134 133/133/133 131/131/131
f 137/137/137 136/136/136 135/135/135
f 138/138/138 137/137/137 135/135/135
f 141/141/141 140/140/140 139/139/139
f 142/142/142 141/141/141 139/139/139
f 141/141/141 142/142/142 143/143/143
f 144/144/144 141/141/141 143/143/143
f 145/145/145 144/144/144 143/143/143
f 146/146/146 145/145/145 143/143/143
f 144/144/144 145/145/145 147/147/147
f 148/148/148 144/144/144 147/147/147
f 147/147/147 149/149/149 148/148/148
f 149/149/149 150/150/150 148/148/148
f 153/153/153 152/152/152 151/151/151
f 154/154/154 153/153/153 151/151/151
f 157/157/157 156/156/156 155/155/155
f 158/158/158 157/157/157 155/155/155
f 161/161/161 160/160/160 159/159/159
f 162/162/162 161/161/161 159/159/159
f 165/165/165 164/164/164 163/163/163
f 166/166/166 165/165/165 163/163/163
f 169/169/169 168/168/168 167/167/167
f 170/170/170 169/169/169 167/167/167
f 173/173/173 172/172/172 171/171/171
f 174/174/174 173/173/173 171/171/171
f 172/172/172 175/175/175 171/171/171
f 175/175/175 176/176/176 171/171/171
f 175/175/175 177/177/177 176/176/176
f 177/177/177 178/178/178 176/176/176
f 181/181/181 180/180/180 179/179/179
f 182/182/182 181/181/181 179/179/179
f 185/185/185 184/184/184 183/183/183
f 186/186/186 185/185/185 183/183/183
f 186/186/186 183/183/183 187/187/187
f 188/188/188 186/186/186 187/187/187
f 187/187/187 189/189/189 188/188/188
f 189/189/189 190/190/190 188/188/188
f 190/190/190 191/191/191 188/188/188
f 191/191/191 192/192/192 188/188/188
f 192/192/192 191/191/191 193/193/193
f 191/191/191 194/194/194 193/193/193
f 197/197/197 196/196/196 195/195/195
f 198/198/198 197/197/197 195/195/195
f 196/196/196 199/199/199 195/195/195
f 199/199/199 200/200/200 195/195/195
f 200/200/200 199/199/199 201/201/201
f 199/199/199 202/202/202 201/201/201
f 205/205/205 204/204/204 203/203/203
f 206/206/206 205/205/205 203/203/203
f 209/209/209 208/208/208 207/207/207
f 210/210/210 209/209/209 207/207/207
f 213/213/213 212/212/212 211/211/211
f 214/214/214 213/213/213 211/211/211
f 213/213/213 214/214/214 215/215/215
f 216/216/216 213/213/213 215/215/215
f 217/217/217 216/216/216 215/215/215
f 218/218/218 217/217/217 215/215/215
f 216/216/216 217/217/217 219/219/219
f 220/220/220 216/216/216 219/219/219
f 219/219/219 221/221/221 220/220/220
f 221/221/221 222/222/222 220/220/220
f 225/225/225 224/224/224 223/223/223
f 226/226/226 225/225/225 223/223/223
f 229/229/229 228/228/228 227/227/227
f 230/230/230 229/229/229 227/227/227
f 233/233/233 232/232/232 231/231/231
f 234/234/234 233/233/233 231/231/231
f 237/237/237 236/236/236 235/235/235
f 238/238/238 237/237/237 235/235/235
f 241/241/241 240/240/240 239/239/239
f 244/244/244 243/243/243 242/242/242
f 247/247/247 246/246/246 245/245/245
f 250/250/250 249/249/249 248/248/248
f 251/251/251 250/250/250 248/248/248
f 251/251/251 248/248/248 252/252/252
f 250/250/250 254/254/254 253/253/253
f 254/254/254 255/255/255 253/253/253
f 255/255/255 256/256/256 253/253/253
f 256/256/256 255/255/255 257/257/257
f 258/258/258 256/256/256 257/257/257
f 261/261/261 260/260/260 259/259/259
f 264/264/264 263/263/263 262/262/262
f 267/267/267 266/266/266 265/265/265
f 270/270/270 269/269/269 268/268/268
f 271/271/271 270/270/270 268/268/268
f 272/272/272 270/270/270 271/271/271
f 273/273/273 272/272/272 271/271/271
f 274/274/274 268/268/268 269/269/269
f 277/277/277 276/276/276 275/275/275
f 278/278/278 277/277/277 275/275/275
f 279/279/279 275/275/275 276/276/276
f 280/280/280 279/279/279 276/276/276
f 283/283/283 282/282/282 281/281/281
f 281/281/281 284/284/284 283/283/283
f 281/281/281 285/285/285 284/284/284
f 288/288/288 287/287/287 286/286/286
f 286/286/286 289/289/289 288/288/288
f 286/286/286 290/290/290 289/289/289
f 293/293/293 292/292/292 291/291/291
f 294/294/294 293/293/293 291/291/291
f 294/294/294 291/291/291 295/295/295
f 291/291/291 296/296/296 295/295/295
f 297/297/297 292/292/292 293/293/293
f 298/298/298 297/297/297 293/293/293
f 301/301/301 300/300/300 299/299/299
f 304/304/304 303/303/303 302/302/302
f 307/307/307 306/306/306 305/305/305
f 310/310/310 309/309/309 308/308/308
f 313/313/313 312/312/312 311/311/311
f 314/314/314 313/313/313 311/311/311
f 317/317/317 316/316/316 315/315/315
f 318/318/318 317/317/317 315/315/315
f 321/321/321 320/320/320 319/319/319
f 322/322/322 321/321/321 319/319/319
f 325/325/325 324/324/324 323/323/323
f 328/328/328 327/327/327 326/326/326
f 331/331/331 330/330/330 329/329/329
f 332/332/332 331/331/331 329/329/329
f 335/335/335 334/334/334 333/333/333
f 338/338/338 337/337/337 336/336/336
f 341/341/341 340/340/340 339/339/339
f 342/342/342 341/341/341 339/339/339
f 343/343/343 339/339/339 340/340/340
f 344/344/344 343/343/343 340/340/340
f 347/347/347 346/346/346 345/345/345
f 348/348/348 347/347/347 345/345/345
f 351/351/351 350/350/350 349/349/349
f 354/354/354 353/353/353 352/352/352
f 357/357/357 356/356/356 355/355/355
f 358/358/358 357/357/357 355/355/355
f 356/356/356 357/357/357 359/359/359
f 362/362/362 361/361/361 360/360/360
f 365/365/365 364/364/364 363/363/363
f 368/368/368 367/367/367 366/366/366
f 371/371/371 370/370/370 369/369/369
f 374/374/374 373/373/373 372/372/372
f 377/377/377 376/376/376 375/375/375
f 378/378/378 377/377/377 375/375/375
f 379/379/379 377/377/377 378/378/378
f 381/381/381 380/380/380 376/376/376
f 384/384/384 383/383/383 382/382/382
f 387/387/387 386/386/386 385/385/385
f 388/388/388 387/387/387 385/385/385
f 388/388/388 385/385/385 389/389/389
f 385/385/385 390/390/390 389/389/389
f 386/386/386 387/387/387 391/391/391
f 387/387/387 392/392/392 391/391/391
f 395/395/395 394/394/394 393/393/393
f 396/396/396 395/395/395 393/393/393
f 395/395/395 396/396/396 397/397/397
f 400/400/400 399/399/399 398/398/398
f 401/401/401 400/400/400 398/398/398
f 402/402/402 399/399/399 400/400/400
f 405/405/405 404/404/404 403/403/403
f 408/408/408 407/407/407 406/406/406
f 408/408/408 409/409/409 407/407/407
f 412/412/412 411/411/411 410/410/410
f 415/415/415 414/414/414 413/413/413
f 418/418/418 417/417/417 416/416/416
f 421/421/421 420/420/420 419/419/419
f 424/424/424 423/423/423 422/422/422
f 427/427/427 426/426/426 425/425/425
f 430/430/430 429/429/429 428/428/428
f 433/433/433 432/432/432 431/431/431
f 434/434/434 433/433/433 431/431/431
f 437/437/437 436/436/436 435/435/435
f 440/440/440 439/439/439 438/438/438
f 443/443/443 442/442/442 441/441/441
f 444/444/444 443/443/443 441/441/441
f 447/447/447 446/446/446 445/445/445
f 448/448/448 447/447/447 445/445/445
f 451/451/451 450/450/450 449/449/449
f 454/454/454 453/453/453 452/452/452
f 457/457/457 456/456/456 455/455/455
f 460/460/460 459/459/459 458/458/458
f 463/463/463 462/462/462 461/461/461
f 466/466/466 465/465/465 464/464/464
f 467/467/467 466/466/466 464/464/464
f 468/468/468 466/466/466 467/467/467
f 470/470/470 469/469/469 465/465/465
f 473/473/473 472/472/472 471/471/471
f 476/476/476 475/475/475 474/474/474
f 477/477/477 476/476/476 474/474/474
f 477/477/477 474/474/474 478/478/478
f 474/474/474 479/479/479 478/478/478
f 475/475/475 476/476/476 480/480/480
f 476/476/476 481/481/481 480/480/480
f 484/484/484 483/483/483 482/482/482
f 485/485/485 484/484/484 482/482/482
f 484/484/484 485/485/485 486/486/486
f 489/489/489 488/488/488 487/487/487
f 490/490/490 489/489/489 487/487/487
f 491/491/491 488/488/488 489/489/489
f 494/494/494 493/493/493 492/492/492
f 497/497/497 496/496/496 495/495/495
f 497/497/497 498/498/498 496/496/496
f 501/501/501 500/500/500 499/499/499
f 504/504/504 503/503/503 502/502/502
f 507/507/507 506/506/506 505/505/505
f 510/510/510 509/509/509 508/508/508
f 513/513/513 512/512/512 511/511/511
f 516/516/516 515/515/515 514/514/514
f 519/519/519 518/518/518 517/517/517
f 522/522/522 521/521/521 520/520/520
f 523/523/523 522/522/522 520/520/520
f 526/526/526 525/525/525 524/524/524
f 529/529/529 528/528/528 527/527/527
f 532/532/532 531/531/531 530/530/530
f 533/533/533 532/532/532 530/530/530
f 536/536/536 535/535/535 534/534/534
f 537/537/537 536/536/536 534/534/534
f 540/540/540 539/539/539 538/538/538
f 541/541/541 540/540/540 538/538/538
f 544/544/544 543/543/543 542/542/542
f 547/547/547 546/546/546 545/545/545
f 548/548/548 547/547/547 545/545/545
f 551/551/551 550/550/550 549/549/549
f 552/552/552 551/551/551 549/549/549
f 555/555/555 554/554/554 553/553/553
f 556/556/556 555/555/555 553/553/553
f 559/559/559 558/558/558 557/557/557
f 560/560/560 559/559/559 557/557/557
f 563/563/563 562/562/562 561/561/561
f 564/564/564 563/563/563 561/561/561
f 567/567/567 566/566/566 565/565/565
f 568/568/568 567/567/567 565/565/565
f 571/571/571 570/570/570 569/569/569
f 572/572/572 571/571/571 569/569/569
f 575/575/575 574/574/574 573/573/573
f 576/576/576 575/575/575 573/573/573
f 579/579/579 578/578/578 577/577/577
f 580/580/580 579/579/579 577/577/577
f 583/583/583 582/582/582 581/581/581
f 584/584/584 583/583/583 581/581/581
f 587/587/587 586/586/586 585/585/585
f 590/590/590 589/589/589 588/588/588
f 593/593/593 592/592/592 591/591/591
f 594/594/594 593/593/593 591/591/591
f 597/597/597 596/596/596 595/595/595
f 598/598/598 597/597/597 595/595/595
f 601/601/601 600/600/600 599/599/599
f 604/604/604 603/603/603 602/602/602
f 607/607/607 606/606/606 605/605/605
f 608/608/608 607/607/607 605/605/605
f 611/611/611 610/610/610 609/609/609
f 614/614/614 613/613/613 612/612/612
f 615/615/615 614/614/614 612/612/612
f 618/618/618 617/617/617 616/616/616
f 619/619/619 618/618/618 616/616/616
f 622/622/622 621/621/621 620/620/620
f 623/623/623 622/622/622 620/620/620
f 626/626/626 625/625/625 624/624/624
f 627/627/627 626/626/626 624/624/624
f 630/630/630 629/629/629 628/628/628
f 631/631/631 630/630/630 628/628/628
f 634/634/634 633/633/633 632/632/632
f 635/635/635 634/634/634 632/632/632
f 638/638/638 637/637/637 636/636/636
f 639/639/639 638/638/638 636/636/636
f 642/642/642 641/641/641 640/640/640
f 645/645/645 644/644/644 643/643/643
f 646/646/646 645/645/645 643/643/643
f 649/649/649 648/648/648 647/647/647
f 650/650/650 649/649/649 647/647/647
f 653/653/653 652/652/652 651/651/651
f 654/654/654 653/653/653 651/651/651
f 657/657/657 656/656/656 655/655/655
f 660/660/660 659/659/659 658/658/658
f 661/661/661 660/660/660 658/658/658
f 664/664/664 663/663/663 662/662/662
f 665/665/665 664/664/664 662/662/662
f 668/668/668 667/667/667 666/666/666
f 669/669/669 668/668/668 666/666/666
f 672/672/672 671/671/671 670/670/670
f 673/673/673 672/672/672 670/670/670
f 676/676/676 675/675/675 674/674/674
f 677/677/677 676/676/676 674/674/674
f 680/680/680 679/679/679 678/678/678
f 681/681/681 680/680/680 678/678/678
f 684/684/684 683/683/683 682/682/682
f 685/685/685 684/684/684 682/682/682
f 688/688/688 687/687/687 686/686/686
f 689/689/689 688/688/688 686/686/686
f 692/692/692 691/691/691 690/690/690
f 693/693/693 692/692/692 690/690/690
f 696/696/696 695/695/695 694/694/694
f 697/697/697 696/696/696 694/694/694
f 700/700/700 699/699/699 698/698/698
f 701/701/701 700/700/700 698/698/698
f 704/704/704 703/703/703 702/702/702
f 707/707/707 706/706/706 705/705/705
f 710/710/710 709/709/709 708/708/708
f 711/711/711 710/710/710 708/708/708
f 714/714/714 713/713/713 712/712/712
f 715/715/715 714/714/714 712/712/712
f 718/718/718 717/717/717 716/716/716
f 719/719/719 718/718/718 716/716/716
f 722/722/722 721/721/721 720/720/720
f 723/723/723 722/722/722 720/720/720
f 726/726/726 725/725/725 724/724/724
f 727/727/727 726/726/726 724/724/724
f 730/730/730 729/729/729 728/728/728
f 731/731/731 730/730/730 728/728/728
f 734/734/734 733/733/733 732/732/732
f 737/737/737 736/736/736 735/735/735
f 738/738/738 737/737/737 735/735/735
f 741/741/741 740/740/740 739/739/739
f 742/742/742 741/741/741 739/739/739
f 745/745/745 744/744/744 743/743/743
f 748/748/748 747/747/747 746/746/746
f 751/751/751 750/750/750 749/749/749
f 754/754/754 753/753/753 752/752/752
f 757/757/757 756/756/756 755/755/755
f 760/760/760 759/759/759 758/758/758
f 761/761/761 760/760/760 758/758/758
f 764/764/764 763/763/763 762/762/762
f 765/765/765 764/764/764 762/762/762
f 768/768/768 767/767/767 766/766/766
f 769/769/769 768/768/768 766/766/766
f 772/772/772 771/771/771 770/770/770
f 773/773/773 772/772/772 770/770/770
f 776/776/776 775/775/775 774/774/774
f 777/777/777 776/776/776 774/774/774
f 780/780/780 779/779/779 778/778/778
f 781/781/781 780/780/780 778/778/778
f 784/784/784 783/783/783 782/782/782
f 785/785/785 784/784/784 782/782/782
f 788/788/788 787/787/787 786/786/786
f 789/789/789 788/788/788 786/786/786
f 792/792/792 791/791/791 790/790/790
f 793/793/793 792/792/792 790/790/790
f 796/796/796 795/795/795 794/794/794
f 797/797/797 796/796/796 794/794/794
f 800/800/800 799/799/799 798/798/798
f 801/801/801 800/800/800 798/798/798
f 804/804/804 803/803/803 802/802/802
f 805/805/805 804/804/804 802/802/802
f 808/808/808 807/807/807 806/806/806
f 809/809/809 808/808/808 806/806/806
f 812/812/812 811/811/811 810/810/810
f 813/813/813 812/812/812 810/810/810
f 816/816/816 815/815/815 814/814/814
f 819/819/819 818/818/818 817/817/817
f 822/822/822 821/821/821 820/820/820
f 823/823/823 822/822/822 820/820/820
f 826/826/826 825/825/825 824/824/824
f 827/827/827 826/826/826 824/824/824
f 830/830/830 829/829/829 828/828/828
f 831/831/831 830/830/830 828/828/828
f 834/834/834 833/833/833 832/832/832
f 835/835/835 834/834/834 832/832/832
f 838/838/838 837/837/837 836/836/836
f 839/839/839 838/838/838 836/836/836
f 842/842/842 841/841/841 840/840/840
f 843/843/843 842/842/842 840/840/840
f 846/846/846 845/845/845 844/844/844
f 849/849/849 848/848/848 847/847/847
f 850/850/850 849/849/849 847/847/847
f 853/853/853 852/852/852 851/851/851
f 854/854/854 853/853/853 851/851/851
f 857/857/857 856/856/856 855/855/855
f 860/860/860 859/859/859 858/858/858
f 863/863/863 862/862/862 861/861/861
f 866/866/866 865/865/865 864/864/864
f 869/869/869 868/868/868 867/867/867
f 872/872/872 871/871/871 870/870/870
f 873/873/873 872/872/872 870/870/870
f 876/876/876 875/875/875 874/874/874
f 877/877/877 876/876/876 874/874/874
f 880/880/880 879/879/879 878/878/878
f 881/881/881 880/880/880 878/878/878
f 884/884/884 883/883/883 882/882/882
f 885/885/885 884/884/884 882/882/882
f 888/888/888 887/887/887 886/886/886
f 889/889/889 888/888/888 886/886/886
f 892/892/892 891/891/891 890/890/890
f 893/893/893 892/892/892 890/890/890
