g Pillow1.001
v -0.25280783 0.13219172 -0.12883472
v -0.22985448 0.14777857 -0.13709764
v -0.21143739 0.14707309 -0.1124524
v -0.22295833 0.13754657 -0.10075727
v 0.20897745 0.12956493 -0.16901651
v 0.22218306 0.08252073 -0.16816095
v 0.2575882 0.0995818 -0.12343933
v 0.24012192 0.14637657 -0.13942209
v -0.23366012 0.017306961 -0.15932646
v -0.26600477 0.035108067 -0.10386598
v -0.26454 -0.006911408 -0.100786485
v -0.23223299 -0.025767826 -0.16103448
v 0.057262477 0.1616032 -0.15693842
v 0.12084539 0.16548629 -0.15546142
v 0.120166644 0.16124693 -0.122602634
v 0.058298577 0.15750937 -0.12329536
v -0.010862453 0.15785703 -0.15645821
v -0.009829046 0.15383698 -0.12283676
v 0.17455015 0.16620964 -0.15206617
v 0.16872136 0.16168451 -0.121604286
v 0.120166644 0.16124693 -0.122602634
v 0.21532592 0.16082314 -0.14672795
v 0.24012192 0.14637657 -0.13942209
v 0.21025226 0.14958343 -0.10993603
v 0.19746149 0.15868899 -0.12119068
v 0.058012076 0.05908565 -0.19189033
v 0.12243407 0.06543076 -0.18905681
v 0.11978399 0.11871959 -0.18367632
v 0.05703601 0.11346751 -0.18582809
v -0.011088626 0.10971313 -0.18534547
v -0.010112566 0.05533127 -0.19140774
v 0.12376494 0.012727748 -0.193973
v 0.059341144 0.006333733 -0.19724998
v 0.059341144 0.006333733 -0.19724998
v -0.008783496 0.0025793558 -0.19676739
v 0.06075141 -0.03722737 -0.20113224
v 0.12517808 -0.030816756 -0.19762844
v 0.06075141 -0.03722737 -0.20113224
v -0.0073732333 -0.040981743 -0.20064963
v -0.074703746 -0.041302294 -0.19817097
v -0.076114014 0.002258812 -0.19428875
v -0.077443086 0.05501073 -0.18892908
v -0.07841915 0.10939259 -0.18286681
v -0.14001206 0.057583712 -0.18333347
v -0.1393689 0.11094663 -0.17801765
v -0.13868234 0.0049127797 -0.18825905
v -0.076114014 0.002258812 -0.19428875
v -0.13727039 -0.038599692 -0.19192389
v -0.074703746 -0.041302294 -0.19817097
v -0.077443086 0.05501073 -0.18892908
v -0.22420484 0.11675286 -0.15961084
v -0.25280783 0.13219172 -0.12883472
v -0.26735497 0.085283086 -0.11240108
v -0.2349956 0.06924903 -0.1583076
v 0.18054195 0.10607514 -0.071080394
v 0.22366983 0.10794733 -0.08129048
v 0.22509046 0.058011062 -0.06275408
v 0.18196708 0.05660698 -0.04993431
v 0.17098455 0.12353323 -0.17825188
v 0.11978399 0.11871959 -0.18367632
v 0.12243407 0.06543076 -0.18905681
v 0.17865667 0.073523484 -0.18158704
v 0.12376494 0.012727748 -0.193973
v 0.17865667 0.073523484 -0.18158704
v 0.17999297 0.020967197 -0.18517284
v 0.12517808 -0.030816756 -0.19762844
v 0.1814147 -0.02252751 -0.1881479
v 0.11978399 0.11871959 -0.18367632
v 0.11875821 0.14026462 -0.17783311
v 0.056846242 0.13584338 -0.17966641
v 0.05703601 0.11346751 -0.18582809
v -0.011278388 0.13208899 -0.1791838
v -0.011088626 0.10971313 -0.18534547
v -0.07841915 0.10939259 -0.18286681
v -0.07860891 0.13176845 -0.17670517
v -0.1393689 0.11094663 -0.17801765
v -0.13874835 0.13253672 -0.17220914
v 0.20897745 0.12956493 -0.16901651
v 0.17098455 0.12353323 -0.17825188
v 0.17865667 0.073523484 -0.18158704
v 0.22218306 0.08252073 -0.16816095
v 0.24012192 0.14637657 -0.13942209
v 0.21532592 0.16082314 -0.14672795
v 0.19637918 0.14214402 -0.16774929
v 0.20897745 0.12956493 -0.16901651
v 0.11978399 0.11871959 -0.18367632
v 0.17098455 0.12353323 -0.17825188
v 0.16745073 0.14258574 -0.17336409
v 0.11875821 0.14026462 -0.17783311
v 0.17098455 0.12353323 -0.17825188
v 0.20897745 0.12956493 -0.16901651
v 0.19637918 0.14214402 -0.16774929
v 0.16745073 0.14258574 -0.17336409
v 0.17999297 0.020967197 -0.18517284
v 0.22353029 0.030257884 -0.16908595
v 0.22218306 0.08252073 -0.16816095
v 0.17865667 0.073523484 -0.18158704
v 0.1814147 -0.02252751 -0.1881479
v 0.22496913 -0.013137223 -0.17070022
v 0.18621117 -0.16633348 0.030432645
v 0.13209783 -0.16562818 0.03072444
v 0.13112254 -0.1407214 0.08795947
v 0.18003303 -0.14257649 0.081020676
v 0.22509046 0.058011062 -0.06275408
v 0.25897467 0.04841238 -0.11461317
v 0.2604757 0.0053999154 -0.111243024
v 0.2266486 0.015520761 -0.054440353
v -0.26735497 0.085283086 -0.11240108
v -0.26600477 0.035108067 -0.10386598
v -0.23366012 0.017306961 -0.15932646
v -0.2349956 0.06924903 -0.1583076
v 0.06672592 -0.16220209 0.02819126
v 0.13209783 -0.16562818 0.03072444
v 0.1290409 -0.17187437 -0.050132964
v 0.06556696 -0.1706082 -0.0547097
v -0.0057304893 -0.16897035 -0.05689713
v -0.0050656837 -0.15910453 0.025414828
v -0.078438096 -0.1593848 0.024976877
v -0.078303225 -0.1698064 -0.056797594
v -0.14681649 -0.16052413 0.02487784
v -0.14401676 -0.1704114 -0.053889282
v -0.20362604 -0.16000366 0.023118159
v -0.14401676 -0.1704114 -0.053889282
v -0.19473663 -0.16808033 -0.047650393
v -0.07533997 0.09362406 -0.06304891
v -0.13798591 0.09529857 -0.06147726
v -0.13759634 0.13963564 -0.097985476
v -0.0765832 0.138814 -0.100622505
v -0.009246966 0.13897772 -0.10305525
v -0.007995714 0.093568236 -0.06541739
v -0.18675762 0.13900128 -0.09693798
v -0.13759634 0.13963564 -0.097985476
v -0.19202995 0.096793756 -0.063500315
v 0.21025226 0.14958343 -0.10993603
v 0.24012192 0.14637657 -0.13942209
v 0.2575882 0.0995818 -0.12343933
v 0.22366983 0.10794733 -0.08129048
v -0.13659863 0.047163654 -0.03934806
v -0.19065166 0.048608687 -0.042729788
v -0.19202995 0.096793756 -0.063500315
v -0.13798591 0.09529857 -0.06147726
v -0.13659863 0.047163654 -0.03934806
v -0.13798591 0.09529857 -0.06147726
v -0.07533997 0.09362406 -0.06304891
v -0.073943734 0.045342386 -0.040418975
v -0.007995714 0.093568236 -0.06541739
v -0.006590325 0.04503564 -0.04271402
v -0.13759634 0.13963564 -0.097985476
v -0.1373514 0.15383312 -0.117070585
v -0.07716243 0.15359485 -0.12038106
v -0.0765832 0.138814 -0.100622505
v -0.009829046 0.15383698 -0.12283676
v -0.009246966 0.13897772 -0.10305525
v -0.18404573 0.151602 -0.11404762
v -0.18675762 0.13900128 -0.09693798
v -0.23356855 0.096311584 -0.071915954
v -0.22295833 0.13754657 -0.10075727
v -0.18675762 0.13900128 -0.09693798
v -0.19202995 0.096793756 -0.063500315
v 0.18054195 0.10607514 -0.071080394
v 0.12451114 0.101750255 -0.06679216
v 0.12157835 0.14681159 -0.10346939
v 0.17260681 0.14893436 -0.10453686
v 0.058883652 0.14256814 -0.10348986
v 0.060143277 0.09692912 -0.06578482
v -0.009246966 0.13897772 -0.10305525
v -0.007995714 0.093568236 -0.06541739
v -0.18675762 0.13900128 -0.09693798
v -0.22295833 0.13754657 -0.10075727
v -0.21143739 0.14707309 -0.1124524
v -0.18404573 0.151602 -0.11404762
v -0.19065166 0.048608687 -0.042729788
v -0.23219943 0.047786728 -0.053792663
v -0.23356855 0.096311584 -0.071915954
v -0.19202995 0.096793756 -0.063500315
v 0.13209783 -0.16562818 0.03072444
v 0.18621117 -0.16633348 0.030432645
v 0.17814308 -0.16992337 -0.043064557
v 0.1290409 -0.17187437 -0.050132964
v 0.18621117 -0.16633348 0.030432645
v 0.22651872 -0.16163181 0.024996579
v 0.20688793 -0.16545026 -0.0357659
v 0.17814308 -0.16992337 -0.043064557
v -0.078193255 0.15754431 -0.15398186
v -0.13995501 0.15770122 -0.14977773
v -0.13874835 0.13253672 -0.17220914
v -0.07860891 0.13176845 -0.17670517
v -0.011278388 0.13208899 -0.1791838
v -0.010862453 0.15785703 -0.15645821
v 0.057262477 0.1616032 -0.15693842
v 0.056846242 0.13584338 -0.17966641
v 0.12084539 0.16548629 -0.15546142
v 0.11875821 0.14026462 -0.17783311
v 0.20849603 -0.14255457 0.069302216
v 0.22651872 -0.16163181 0.024996579
v 0.18621117 -0.16633348 0.030432645
v 0.18003303 -0.14257649 0.081020676
v 0.13209783 -0.16562818 0.03072444
v 0.06672592 -0.16220209 0.02819126
v 0.067678876 -0.1372645 0.08778192
v 0.13112254 -0.1407214 0.08795947
v -0.0036679474 -0.13427311 0.08519831
v -0.0050656837 -0.15910453 0.025414828
v -0.19137281 0.15536386 -0.14411412
v -0.13995501 0.15770122 -0.14977773
v -0.1373514 0.15383312 -0.117070585
v -0.18404573 0.151602 -0.11404762
v -0.078193255 0.15754431 -0.15398186
v -0.07716243 0.15359485 -0.12038106
v -0.1373514 0.15383312 -0.117070585
v -0.009829046 0.15383698 -0.12283676
v -0.010862453 0.15785703 -0.15645821
v -0.13995501 0.15770122 -0.14977773
v -0.19137281 0.15536386 -0.14411412
v -0.18529977 0.13204882 -0.1656744
v -0.13874835 0.13253672 -0.17220914
v -0.19137281 0.15536386 -0.14411412
v -0.22985448 0.14777857 -0.13709764
v -0.2125006 0.13000539 -0.158858
v -0.18529977 0.13204882 -0.1656744
v 0.2264797 -0.04969185 -0.16084102
v 0.22804789 -0.084245145 -0.13531359
v 0.26369542 -0.06593337 -0.06899427
v 0.26205584 -0.031009547 -0.09800118
v -0.21143739 0.14707309 -0.1124524
v -0.22985448 0.14777857 -0.13709764
v -0.19137281 0.15536386 -0.14411412
v -0.18404573 0.151602 -0.11404762
v 0.22829325 -0.02060461 -0.037856527
v 0.26205584 -0.031009547 -0.09800118
v 0.26369542 -0.06593337 -0.06899427
v 0.22999498 -0.054730505 -0.0056332233
v 0.2317458 -0.094506755 0.03847549
v 0.26539037 -0.108052306 -0.027763333
v -0.0033935588 -0.031533226 -0.01454213
v -0.0020904057 -0.062310535 0.018251333
v -0.06985858 -0.061316617 0.020157825
v -0.070765205 -0.030726438 -0.012393454
v -0.13344036 -0.028537635 -0.011817457
v -0.13300785 -0.059283823 0.020378852
v -0.18751854 -0.026967356 -0.01639787
v -0.13344036 -0.028537635 -0.011817457
v -0.13300785 -0.059283823 0.020378852
v -0.1875624 -0.05810798 0.015193353
v -0.13627225 -0.08974243 0.061421704
v -0.19269323 -0.09037928 0.05528047
v -0.1875624 -0.05810798 0.015193353
v -0.13300785 -0.059283823 0.020378852
v -0.13627225 -0.08974243 0.061421704
v -0.13300785 -0.059283823 0.020378852
v -0.06985858 -0.061316617 0.020157825
v -0.071257256 -0.0905871 0.06199015
v -0.0020904057 -0.062310535 0.018251333
v -0.0019301511 -0.091583945 0.060834143
v 0.066320844 -0.060369767 0.018380439
v 0.06742713 -0.091403596 0.061802004
v 0.13083337 -0.057273414 0.016883688
v 0.13242117 -0.09111681 0.060996402
v -0.13506438 0.0061819986 -0.02939102
v -0.13344036 -0.028537635 -0.011817457
v -0.18751854 -0.026967356 -0.01639787
v -0.18912949 0.007673677 -0.03348136
v -0.13506438 0.0061819986 -0.02939102
v -0.07239951 0.004181942 -0.03017795
v -0.070765205 -0.030726438 -0.012393454
v -0.13344036 -0.028537635 -0.011817457
v -0.22954643 -0.059684917 0.0008802591
v -0.22909923 -0.028016133 -0.029718418
v -0.18751854 -0.026967356 -0.01639787
v -0.1875624 -0.05810798 0.015193353
v -0.23073402 -0.062003493 -0.15126866
v -0.26299587 -0.04233211 -0.08783404
v -0.26380098 -0.0750547 -0.06051101
v -0.23127532 -0.095179506 -0.12704979
v -0.18912949 0.007673677 -0.03348136
v -0.18751854 -0.026967356 -0.01639787
v -0.22909923 -0.028016133 -0.029718418
v -0.18912949 0.007673677 -0.03348136
v -0.22909923 -0.028016133 -0.029718418
v -0.2306927 0.006705833 -0.04589147
v 0.22353029 0.030257884 -0.16908595
v 0.22496913 -0.013137223 -0.17070022
v 0.2604757 0.0053999154 -0.111243024
v 0.25897467 0.04841238 -0.11461317
v -0.19269323 -0.09037928 0.05528047
v -0.23623824 -0.09382701 0.039718118
v -0.22954643 -0.059684917 0.0008802591
v -0.1875624 -0.05810798 0.015193353
v -0.18978411 -0.10270023 -0.14779726
v -0.23127532 -0.095179506 -0.12704979
v -0.23806117 -0.13082665 -0.0945826
v -0.19503838 -0.13678202 -0.11584902
v -0.22954643 -0.059684917 0.0008802591
v -0.26380098 -0.0750547 -0.06051101
v -0.26299587 -0.04233211 -0.08783404
v -0.22909923 -0.028016133 -0.029718418
v 0.2317458 -0.094506755 0.03847549
v 0.26539037 -0.108052306 -0.027763333
v 0.25047323 -0.14883703 0.012096943
v 0.22072916 -0.1318716 0.06874418
v 0.2604757 0.0053999154 -0.111243024
v 0.22496913 -0.013137223 -0.17070022
v 0.2264797 -0.04969185 -0.16084102
v 0.26205584 -0.031009547 -0.09800118
v -0.26454 -0.006911408 -0.100786485
v -0.2306927 0.006705833 -0.04589147
v -0.22909923 -0.028016133 -0.029718418
v -0.26299587 -0.04233211 -0.08783404
v 0.06360334 -0.106441274 -0.16932613
v 0.12815526 -0.10065737 -0.16532227
v 0.12665993 -0.06742366 -0.18915513
v 0.06223007 -0.07384008 -0.19281292
v 0.06075141 -0.03722737 -0.20113224
v -0.0073732333 -0.040981743 -0.20064963
v -0.005894564 -0.07759446 -0.1923303
v 0.06223007 -0.07384008 -0.19281292
v -0.005894564 -0.07759446 -0.1923303
v -0.0047554406 -0.10982038 -0.16903423
v 0.06360334 -0.106441274 -0.16932613
v 0.06223007 -0.07384008 -0.19281292
v 0.1829061 -0.059116982 -0.17921263
v 0.12665993 -0.06742366 -0.18915513
v 0.12815526 -0.10065737 -0.16532227
v 0.18445267 -0.09306118 -0.15474425
v 0.129567 -0.13542587 -0.1305364
v 0.18604074 -0.13072363 -0.118796915
v 0.18445267 -0.09306118 -0.15474425
v 0.12815526 -0.10065737 -0.16532227
v 0.129567 -0.13542587 -0.1305364
v 0.12815526 -0.10065737 -0.16532227
v 0.06360334 -0.106441274 -0.16932613
v 0.06453636 -0.13866231 -0.13546428
v 0.12517808 -0.030816756 -0.19762844
v 0.12665993 -0.06742366 -0.18915513
v 0.1829061 -0.059116982 -0.17921263
v 0.1814147 -0.02252751 -0.1881479
v 0.12517808 -0.030816756 -0.19762844
v 0.06075141 -0.03722737 -0.20113224
v 0.06223007 -0.07384008 -0.19281292
v 0.12665993 -0.06742366 -0.18915513
v 0.2264797 -0.04969185 -0.16084102
v 0.1829061 -0.059116982 -0.17921263
v 0.18445267 -0.09306118 -0.15474425
v 0.22804789 -0.084245145 -0.13531359
v -0.2448335 -0.15554991 0.017828044
v -0.26640564 -0.14488938 0.0071377126
v -0.23282394 -0.12568098 0.06393586
v -0.2225055 -0.13554792 0.06317021
v 0.1814147 -0.02252751 -0.1881479
v 0.1829061 -0.059116982 -0.17921263
v 0.2264797 -0.04969185 -0.16084102
v 0.22496913 -0.013137223 -0.17070022
v -0.2306927 0.006705833 -0.04589147
v -0.26454 -0.006911408 -0.100786485
v -0.26600477 0.035108067 -0.10386598
v -0.23219943 0.047786728 -0.053792663
v 0.18604074 -0.13072363 -0.118796915
v 0.22966541 -0.12444821 -0.097891144
v 0.22804789 -0.084245145 -0.13531359
v 0.18445267 -0.09306118 -0.15474425
v -0.26380098 -0.0750547 -0.06051101
v -0.27177685 -0.11132378 -0.025150614
v -0.23806117 -0.13082665 -0.0945826
v -0.23127532 -0.095179506 -0.12704979
v -0.23806117 -0.13082665 -0.0945826
v -0.27177685 -0.11132378 -0.025150614
v -0.26640564 -0.14488938 0.0071377126
v -0.23806117 -0.13082665 -0.0945826
v -0.26640564 -0.14488938 0.0071377126
v -0.23447639 -0.15861112 -0.05696715
v 0.17455015 0.16620964 -0.15206617
v 0.12084539 0.16548629 -0.15546142
v 0.11875821 0.14026462 -0.17783311
v 0.16745073 0.14258574 -0.17336409
v -0.18978411 -0.10270023 -0.14779726
v -0.1354999 -0.10776831 -0.1603342
v -0.13578969 -0.075174704 -0.18345991
v -0.18961658 -0.06974654 -0.17123792
v 0.18519343 -0.021526175 -0.022853935
v 0.18353595 0.014390683 -0.04031086
v 0.2266486 0.015520761 -0.054440353
v 0.22829325 -0.02060461 -0.037856527
v 0.06453636 -0.13866231 -0.13546428
v 0.06360334 -0.106441274 -0.16932613
v -0.0047554406 -0.10982038 -0.16903423
v -0.00475898 -0.14054033 -0.13593525
v -0.27177685 -0.11132378 -0.025150614
v -0.26380098 -0.0750547 -0.06051101
v -0.22954643 -0.059684917 0.0008802591
v -0.23623824 -0.09382701 0.039718118
v -0.26640564 -0.14488938 0.0071377126
v -0.2448335 -0.15554991 0.017828044
v -0.22392838 -0.16352153 -0.040411614
v -0.23447639 -0.15861112 -0.05696715
v -0.27177685 -0.11132378 -0.025150614
v -0.23623824 -0.09382701 0.039718118
v -0.23282394 -0.12568098 0.06393586
v -0.26640564 -0.14488938 0.0071377126
v 0.0651699 -0.16468796 -0.087622985
v 0.12920853 -0.16466872 -0.082463555
v 0.129567 -0.13542587 -0.1305364
v 0.06453636 -0.13866231 -0.13546428
v 0.22651872 -0.16163181 0.024996579
v 0.25047323 -0.14883703 0.012096943
v 0.21884558 -0.15846607 -0.054013286
v 0.20688793 -0.16545026 -0.0357659
v -0.00475898 -0.14054033 -0.13593525
v -0.005535053 -0.16418394 -0.089276366
v 0.0651699 -0.16468796 -0.087622985
v 0.06453636 -0.13866231 -0.13546428
v -0.07713228 -0.1650539 -0.0886984
v -0.074026845 -0.14116733 -0.13430394
v 0.18604074 -0.13072363 -0.118796915
v 0.129567 -0.13542587 -0.1305364
v 0.12920853 -0.16466872 -0.082463555
v 0.18080685 -0.162229 -0.07252342
v 0.12920853 -0.16466872 -0.082463555
v 0.0651699 -0.16468796 -0.087622985
v 0.06556696 -0.1706082 -0.0547097
v 0.1290409 -0.17187437 -0.050132964
v -0.0057304893 -0.16897035 -0.05689713
v -0.005535053 -0.16418394 -0.089276366
v -0.07713228 -0.1650539 -0.0886984
v -0.078303225 -0.1698064 -0.056797594
v -0.14276336 -0.16531612 -0.08441256
v -0.14401676 -0.1704114 -0.053889282
v 0.22966541 -0.12444821 -0.097891144
v 0.18604074 -0.13072363 -0.118796915
v 0.18080685 -0.162229 -0.07252342
v 0.21884558 -0.15846607 -0.054013286
v 0.26539037 -0.108052306 -0.027763333
v 0.26369542 -0.06593337 -0.06899427
v 0.22804789 -0.084245145 -0.13531359
v 0.22966541 -0.12444821 -0.097891144
v 0.12920853 -0.16466872 -0.082463555
v 0.1290409 -0.17187437 -0.050132964
v 0.17814308 -0.16992337 -0.043064557
v 0.18080685 -0.162229 -0.07252342
v 0.18080685 -0.162229 -0.07252342
v 0.17814308 -0.16992337 -0.043064557
v 0.20688793 -0.16545026 -0.0357659
v 0.21884558 -0.15846607 -0.054013286
v 0.25047323 -0.14883703 0.012096943
v 0.22651872 -0.16163181 0.024996579
v 0.20849603 -0.14255457 0.069302216
v 0.22072916 -0.1318716 0.06874418
v 0.22966541 -0.12444821 -0.097891144
v 0.21884558 -0.15846607 -0.054013286
v 0.25047323 -0.14883703 0.012096943
v 0.22966541 -0.12444821 -0.097891144
v 0.25047323 -0.14883703 0.012096943
v 0.26539037 -0.108052306 -0.027763333
v -0.07460251 -0.11963114 0.08952912
v -0.14036137 -0.12008957 0.087698914
v -0.13627225 -0.08974243 0.061421704
v -0.071257256 -0.0905871 0.06199015
v -0.0019301511 -0.091583945 0.060834143
v -0.0029472203 -0.12035258 0.08941695
v 0.067818426 -0.12252039 0.09155732
v 0.06742713 -0.091403596 0.061802004
v 0.13182221 -0.12524524 0.09134648
v 0.13242117 -0.09111681 0.060996402
v 0.2575882 0.0995818 -0.12343933
v 0.25897467 0.04841238 -0.11461317
v 0.22509046 0.058011062 -0.06275408
v 0.22366983 0.10794733 -0.08129048
v -0.19269323 -0.09037928 0.05528047
v -0.13627225 -0.08974243 0.061421704
v -0.14036137 -0.12008957 0.087698914
v -0.19343774 -0.12146133 0.07973142
v -0.14036137 -0.12008957 0.087698914
v -0.07460251 -0.11963114 0.08952912
v -0.07628791 -0.1338145 0.08491889
v -0.14210492 -0.13460389 0.08284076
v -0.0036679474 -0.13427311 0.08519831
v -0.0029472203 -0.12035258 0.08941695
v -0.23282394 -0.12568098 0.06393586
v -0.23623824 -0.09382701 0.039718118
v -0.19269323 -0.09037928 0.05528047
v -0.19343774 -0.12146133 0.07973142
v 0.18319194 -0.12763785 0.084180675
v 0.13182221 -0.12524524 0.09134648
v 0.13242117 -0.09111681 0.060996402
v 0.18865852 -0.09179429 0.05452001
v -0.14036137 -0.12008957 0.087698914
v -0.14210492 -0.13460389 0.08284076
v -0.19304283 -0.13535649 0.074861005
v -0.19343774 -0.12146133 0.07973142
v -0.19343774 -0.12146133 0.07973142
v -0.19304283 -0.13535649 0.074861005
v -0.2225055 -0.13554792 0.06317021
v -0.23282394 -0.12568098 0.06393586
v -0.006590325 0.04503564 -0.04271402
v -0.005036963 0.003624645 -0.03239965
v -0.07239951 0.004181942 -0.03017795
v -0.073943734 0.045342386 -0.040418975
v -0.13659863 0.047163654 -0.03934806
v -0.13506438 0.0061819986 -0.02939102
v 0.063121155 0.0064612506 -0.032613624
v 0.061558235 0.048134208 -0.043004666
v 0.12750281 0.010710387 -0.034142986
v 0.12593353 0.052653007 -0.0443813
v -0.19065166 0.048608687 -0.042729788
v -0.13659863 0.047163654 -0.03934806
v -0.13506438 0.0061819986 -0.02939102
v -0.18912949 0.007673677 -0.03348136
v -0.2306927 0.006705833 -0.04589147
v -0.23219943 0.047786728 -0.053792663
v -0.19065166 0.048608687 -0.042729788
v -0.18912949 0.007673677 -0.03348136
v 0.25897467 0.04841238 -0.11461317
v 0.2575882 0.0995818 -0.12343933
v 0.22218306 0.08252073 -0.16816095
v 0.22353029 0.030257884 -0.16908595
v 0.2604757 0.0053999154 -0.111243024
v 0.26205584 -0.031009547 -0.09800118
v 0.22829325 -0.02060461 -0.037856527
v 0.2266486 0.015520761 -0.054440353
v -0.26600477 0.035108067 -0.10386598
v -0.26735497 0.085283086 -0.11240108
v -0.23356855 0.096311584 -0.071915954
v -0.23219943 0.047786728 -0.053792663
v -0.26454 -0.006911408 -0.100786485
v -0.26299587 -0.04233211 -0.08783404
v -0.23073402 -0.062003493 -0.15126866
v -0.23223299 -0.025767826 -0.16103448
v -0.19110338 -0.03328464 -0.18013583
v -0.13727039 -0.038599692 -0.19192389
v -0.13868234 0.0049127797 -0.18825905
v -0.19252041 0.010081936 -0.1771233
v -0.14001206 0.057583712 -0.18333347
v -0.19385204 0.06250991 -0.17349996
v -0.19385204 0.06250991 -0.17349996
v -0.1393689 0.11094663 -0.17801765
v -0.18835126 0.112816036 -0.17042345
v -0.23366012 0.017306961 -0.15932646
v -0.23223299 -0.025767826 -0.16103448
v -0.19110338 -0.03328464 -0.18013583
v -0.19252041 0.010081936 -0.1771233
v -0.19385204 0.06250991 -0.17349996
v -0.2349956 0.06924903 -0.1583076
v -0.13578969 -0.075174704 -0.18345991
v -0.07322507 -0.077915005 -0.18985166
v -0.074703746 -0.041302294 -0.19817097
v -0.13727039 -0.038599692 -0.19192389
v -0.13578969 -0.075174704 -0.18345991
v -0.13727039 -0.038599692 -0.19192389
v -0.19110338 -0.03328464 -0.18013583
v -0.18961658 -0.06974654 -0.17123792
v 0.18353595 0.014390683 -0.04031086
v 0.12750281 0.010710387 -0.034142986
v 0.12593353 0.052653007 -0.0443813
v 0.18196708 0.05660698 -0.04993431
v -0.07322507 -0.077915005 -0.18985166
v -0.005894564 -0.07759446 -0.1923303
v -0.0073732333 -0.040981743 -0.20064963
v -0.074703746 -0.041302294 -0.19817097
v 0.22509046 0.058011062 -0.06275408
v 0.2266486 0.015520761 -0.054440353
v 0.18353595 0.014390683 -0.04031086
v 0.18196708 0.05660698 -0.04993431
v 0.12916173 -0.024966115 -0.016289352
v 0.06477407 -0.02895746 -0.014679755
v 0.063121155 0.0064612506 -0.032613624
v 0.12750281 0.010710387 -0.034142986
v 0.12916173 -0.024966115 -0.016289352
v 0.12750281 0.010710387 -0.034142986
v 0.18353595 0.014390683 -0.04031086
v 0.18519343 -0.021526175 -0.022853935
v 0.12451114 0.101750255 -0.06679216
v 0.12593353 0.052653007 -0.0443813
v 0.061558235 0.048134208 -0.043004666
v 0.060143277 0.09692912 -0.06578482
v -0.006590325 0.04503564 -0.04271402
v -0.007995714 0.093568236 -0.06541739
v 0.12451114 0.101750255 -0.06679216
v 0.18054195 0.10607514 -0.071080394
v 0.18196708 0.05660698 -0.04993431
v 0.12593353 0.052653007 -0.0443813
v 0.06477407 -0.02895746 -0.014679755
v -0.0033935588 -0.031533226 -0.01454213
v -0.005036963 0.003624645 -0.03239965
v 0.063121155 0.0064612506 -0.032613624
v -0.18961658 -0.06974654 -0.17123792
v -0.19110338 -0.03328464 -0.18013583
v -0.23223299 -0.025767826 -0.16103448
v -0.23073402 -0.062003493 -0.15126866
v 0.2317458 -0.094506755 0.03847549
v 0.22072916 -0.1318716 0.06874418
v 0.18319194 -0.12763785 0.084180675
v 0.18865852 -0.09179429 0.05452001
v 0.13182221 -0.12524524 0.09134648
v 0.18319194 -0.12763785 0.084180675
v 0.18003303 -0.14257649 0.081020676
v 0.13112254 -0.1407214 0.08795947
v 0.18319194 -0.12763785 0.084180675
v 0.22072916 -0.1318716 0.06874418
v 0.20849603 -0.14255457 0.069302216
v 0.18003303 -0.14257649 0.081020676
v 0.13083337 -0.057273414 0.016883688
v 0.18690534 -0.05480062 0.01009962
v 0.18865852 -0.09179429 0.05452001
v 0.13242117 -0.09111681 0.060996402
v -0.19556983 -0.16298889 -0.074942395
v -0.14276336 -0.16531612 -0.08441256
v -0.13890679 -0.14007172 -0.12834899
v -0.19503838 -0.13678202 -0.11584902
v 0.13182221 -0.12524524 0.09134648
v 0.13112254 -0.1407214 0.08795947
v 0.067678876 -0.1372645 0.08778192
v 0.067818426 -0.12252039 0.09155732
v 0.067818426 -0.12252039 0.09155732
v 0.067678876 -0.1372645 0.08778192
v -0.0036679474 -0.13427311 0.08519831
v -0.0029472203 -0.12035258 0.08941695
v -0.23806117 -0.13082665 -0.0945826
v -0.23447639 -0.15861112 -0.05696715
v -0.19556983 -0.16298889 -0.074942395
v -0.19503838 -0.13678202 -0.11584902
v -0.074026845 -0.14116733 -0.13430394
v -0.13890679 -0.14007172 -0.12834899
v -0.14276336 -0.16531612 -0.08441256
v -0.07713228 -0.1650539 -0.0886984
v -0.14276336 -0.16531612 -0.08441256
v -0.19556983 -0.16298889 -0.074942395
v -0.19473663 -0.16808033 -0.047650393
v -0.14401676 -0.1704114 -0.053889282
v -0.19556983 -0.16298889 -0.074942395
v -0.23447639 -0.15861112 -0.05696715
v -0.22392838 -0.16352153 -0.040411614
v -0.19473663 -0.16808033 -0.047650393
v -0.1354999 -0.10776831 -0.1603342
v -0.13890679 -0.14007172 -0.12834899
v -0.074026845 -0.14116733 -0.13430394
v -0.07247343 -0.11020222 -0.16672505
v -0.1354999 -0.10776831 -0.1603342
v -0.18978411 -0.10270023 -0.14779726
v -0.19503838 -0.13678202 -0.11584902
v -0.13890679 -0.14007172 -0.12834899
v -0.07247343 -0.11020222 -0.16672505
v -0.074026845 -0.14116733 -0.13430394
v -0.00475898 -0.14054033 -0.13593525
v -0.0047554406 -0.10982038 -0.16903423
v 0.18690534 -0.05480062 0.01009962
v 0.22999498 -0.054730505 -0.0056332233
v 0.2317458 -0.094506755 0.03847549
v 0.18865852 -0.09179429 0.05452001
v -0.23073402 -0.062003493 -0.15126866
v -0.23127532 -0.095179506 -0.12704979
v -0.18978411 -0.10270023 -0.14779726
v -0.18961658 -0.06974654 -0.17123792
v -0.07322507 -0.077915005 -0.18985166
v -0.13578969 -0.075174704 -0.18345991
v -0.1354999 -0.10776831 -0.1603342
v -0.07247343 -0.11020222 -0.16672505
v -0.005894564 -0.07759446 -0.1923303
v -0.07322507 -0.077915005 -0.18985166
v -0.07247343 -0.11020222 -0.16672505
v -0.0047554406 -0.10982038 -0.16903423
v 0.18690534 -0.05480062 0.01009962
v 0.13083337 -0.057273414 0.016883688
v 0.12916173 -0.024966115 -0.016289352
v 0.18519343 -0.021526175 -0.022853935
v 0.22829325 -0.02060461 -0.037856527
v 0.22999498 -0.054730505 -0.0056332233
v 0.18690534 -0.05480062 0.01009962
v 0.18519343 -0.021526175 -0.022853935
v 0.06477407 -0.02895746 -0.014679755
v 0.12916173 -0.024966115 -0.016289352
v 0.13083337 -0.057273414 0.016883688
v 0.066320844 -0.060369767 0.018380439
v -0.0033935588 -0.031533226 -0.01454213
v -0.0020904057 -0.062310535 0.018251333
v 0.19637918 0.14214402 -0.16774929
v 0.21532592 0.16082314 -0.14672795
v 0.17455015 0.16620964 -0.15206617
v 0.16745073 0.14258574 -0.17336409
v 0.17455015 0.16620964 -0.15206617
v 0.21532592 0.16082314 -0.14672795
v 0.19746149 0.15868899 -0.12119068
v 0.16872136 0.16168451 -0.121604286
v -0.078438096 -0.1593848 0.024976877
v -0.14681649 -0.16052413 0.02487784
v -0.14210492 -0.13460389 0.08284076
v -0.07628791 -0.1338145 0.08491889
v -0.0050656837 -0.15910453 0.025414828
v -0.0036679474 -0.13427311 0.08519831
v -0.22392838 -0.16352153 -0.040411614
v -0.2448335 -0.15554991 0.017828044
v -0.20362604 -0.16000366 0.023118159
v -0.19473663 -0.16808033 -0.047650393
v -0.14681649 -0.16052413 0.02487784
v -0.20362604 -0.16000366 0.023118159
v -0.19304283 -0.13535649 0.074861005
v -0.14210492 -0.13460389 0.08284076
v -0.20362604 -0.16000366 0.023118159
v -0.2448335 -0.15554991 0.017828044
v -0.2225055 -0.13554792 0.06317021
v -0.19304283 -0.13535649 0.074861005
v 0.21025226 0.14958343 -0.10993603
v 0.22366983 0.10794733 -0.08129048
v 0.18054195 0.10607514 -0.071080394
v 0.17260681 0.14893436 -0.10453686
v 0.12157835 0.14681159 -0.10346939
v 0.120166644 0.16124693 -0.122602634
v 0.16872136 0.16168451 -0.121604286
v 0.17260681 0.14893436 -0.10453686
v 0.058298577 0.15750937 -0.12329536
v 0.058883652 0.14256814 -0.10348986
v -0.009829046 0.15383698 -0.12283676
v -0.009246966 0.13897772 -0.10305525
v 0.17260681 0.14893436 -0.10453686
v 0.16872136 0.16168451 -0.121604286
v 0.19746149 0.15868899 -0.12119068
v 0.21025226 0.14958343 -0.10993603
v -0.22420484 0.11675286 -0.15961084
v -0.2349956 0.06924903 -0.1583076
v -0.19385204 0.06250991 -0.17349996
v -0.18835126 0.112816036 -0.17042345
v -0.1393689 0.11094663 -0.17801765
v -0.13874835 0.13253672 -0.17220914
v -0.18529977 0.13204882 -0.1656744
v -0.18835126 0.112816036 -0.17042345
v -0.18835126 0.112816036 -0.17042345
v -0.18529977 0.13204882 -0.1656744
v -0.2125006 0.13000539 -0.158858
v -0.22420484 0.11675286 -0.15961084
v -0.07239951 0.004181942 -0.03017795
v -0.005036963 0.003624645 -0.03239965
v -0.0033935588 -0.031533226 -0.01454213
v -0.070765205 -0.030726438 -0.012393454
v -0.25280783 0.13219172 -0.12883472
v -0.22295833 0.13754657 -0.10075727
v -0.23356855 0.096311584 -0.071915954
v -0.26735497 0.085283086 -0.11240108
v -0.22985448 0.14777857 -0.13709764
v -0.25280783 0.13219172 -0.12883472
v -0.22420484 0.11675286 -0.15961084
v -0.2125006 0.13000539 -0.158858
vt 0.75006986 0.05870673
vt 0.73531044 0.02712622
vt 0.6878378 0.05425244
vt 0.68768644 0.098315805
vt 0.56225574 0.019508703
vt 0.5044953 0.055723563
vt 0.5935226 0.11818238
vt 0.62474406 0.058856715
vt 0.9248387 0.081556454
vt 0.8174611 0.15847087
vt 0.8523782 0.1887393
vt 0.96906006 0.10454247
vt 0.21586618 0.82774186
vt 0.22197546 0.8762491
vt 0.27496064 0.8768177
vt 0.26885134 0.8283105
vt 0.21342248 0.779681
vt 0.26640764 0.7802497
vt 0.23052844 0.92505383
vt 0.2835136 0.9256225
vt 0.27496064 0.8768177
vt 0.6394918 0.026549023
vt 0.62474406 0.058856715
vt 0.6872324 0.09820473
vt 0.68723243 0.053098045
vt 0.106915876 0.8268056
vt 0.11302516 0.8753128
vt 0.15176618 0.87555647
vt 0.1456569 0.8270493
vt 0.14321318 0.7789885
vt 0.104472175 0.77874476
vt 0.07623529 0.8753383
vt 0.070126005 0.8268311
vt 0.070126005 0.8268311
vt 0.06768229 0.77877027
vt 0.033168785 0.827089
vt 0.039278068 0.8755963
vt 0.033168785 0.827089
vt 0.03072507 0.77902824
vt 0.033168778 0.73156255
vt 0.070126005 0.73130465
vt 0.106915876 0.73127913
vt 0.14565691 0.7315228
vt 0.113025144 0.68425983
vt 0.15176618 0.68450344
vt 0.07623528 0.6842853
vt 0.070126005 0.73130465
vt 0.03927806 0.68454325
vt 0.033168778 0.73156255
vt 0.106915876 0.73127913
vt 0.81245327 0.019097654
vt 0.75006986 0.05870673
vt 0.78125936 0.11655617
vt 0.87053454 0.0545066
vt 0.5114317 0.6664469
vt 0.5198532 0.6174476
vt 0.4744294 0.6176537
vt 0.466281 0.66665363
vt 0.16031918 0.92436135
vt 0.15176618 0.87555647
vt 0.11302516 0.8753128
vt 0.12157815 0.9241176
vt 0.07623529 0.8753383
vt 0.12157815 0.9241176
vt 0.08478828 0.9241431
vt 0.039278068 0.8755963
vt 0.047831066 0.9244011
vt 0.15176618 0.87555647
vt 0.17322733 0.87575376
vt 0.16711803 0.82724655
vt 0.1456569 0.8270493
vt 0.16467433 0.77918565
vt 0.14321318 0.7789885
vt 0.14565691 0.7315228
vt 0.16711804 0.73172003
vt 0.15176618 0.68450344
vt 0.17322731 0.6847007
vt 0.17009401 0.9733149
vt 0.16031918 0.92436135
vt 0.12157815 0.9241176
vt 0.13135299 0.9730712
vt 0.62474406 0.058856715
vt 0.6394918 0.026549023
vt 0.5917512 0
vt 0.56225574 0.019508703
vt 0.15176618 0.87555647
vt 0.16031918 0.92436135
vt 0.18178031 0.9245586
vt 0.17322733 0.87575376
vt 0.16031918 0.92436135
vt 0.17009401 0.9733149
vt 0.19155514 0.9735122
vt 0.18178031 0.9245586
vt 0.08478828 0.9241431
vt 0.09456313 0.97309667
vt 0.13135299 0.9730712
vt 0.12157815 0.9241176
vt 0.047831066 0.9244011
vt 0.057605915 0.97335464
vt 0.046349835 0.19539788
vt 0.09184767 0.20319061
vt 0.091089785 0.016206827
vt 0.045452256 0.00839019
vt 0.66382027 0.23974702
vt 0.5571233 0.16163889
vt 0.5218888 0.19343266
vt 0.6373776 0.2797205
vt 0.78125936 0.11655617
vt 0.8174611 0.15847087
vt 0.9248387 0.081556454
vt 0.87053454 0.0545066
vt 0.13771048 0.20981586
vt 0.09184767 0.20319061
vt 0.09358089 0.35631254
vt 0.13905701 0.36284584
vt 0.1849761 0.36734328
vt 0.18412073 0.2146899
vt 0.23126091 0.21722904
vt 0.23148583 0.3691263
vt 0.27894855 0.21801692
vt 0.2784385 0.36887348
vt 0.3270011 0.21763736
vt 0.2784385 0.36887348
vt 0.32568654 0.3672635
vt 0.49973997 0.8593551
vt 0.50561476 0.9063467
vt 0.5495739 0.90579975
vt 0.54393595 0.8588089
vt 0.5416056 0.8113546
vt 0.4971643 0.81190026
vt 0.5574168 0.9524818
vt 0.5495739 0.90579975
vt 0.5136889 0.9530293
vt 0.6872324 0.09820473
vt 0.62474406 0.058856715
vt 0.5935226 0.11818238
vt 0.68254995 0.1806412
vt 0.46173757 0.90655637
vt 0.4700431 0.95323956
vt 0.5136889 0.9530293
vt 0.50561476 0.9063467
vt 0.46173757 0.90655637
vt 0.50561476 0.9063467
vt 0.49973997 0.8593551
vt 0.45562595 0.85956436
vt 0.4971643 0.81190026
vt 0.4528051 0.81210893
vt 0.5495739 0.90579975
vt 0.5715672 0.90547013
vt 0.56604767 0.8584795
vt 0.54393595 0.8588089
vt 0.56383985 0.8110255
vt 0.5416056 0.8113546
vt 0.57929444 0.9521519
vt 0.5574168 0.9524818
vt 0.52286285 0.99955744
vt 0.56636226 0.9990095
vt 0.5574168 0.9524818
vt 0.5136889 0.9530293
vt 0.5114317 0.6664469
vt 0.50410986 0.71529174
vt 0.54907227 0.7147472
vt 0.55666435 0.665903
vt 0.54368514 0.76328254
vt 0.4989875 0.7638277
vt 0.5416056 0.8113546
vt 0.4971643 0.81190026
vt 0.5574168 0.9524818
vt 0.56636226 0.9990095
vt 0.5881256 0.9986793
vt 0.57929444 0.9521519
vt 0.4700431 0.95323956
vt 0.4794455 0.99976826
vt 0.52286285 0.99955744
vt 0.5136889 0.9530293
vt 0.09184767 0.20319061
vt 0.046349835 0.19539788
vt 0.048400063 0.3484221
vt 0.09358089 0.35631254
vt 0.046349835 0.19539788
vt 0.0010344714 0.18702143
vt 0.0033669071 0.33985302
vt 0.048400063 0.3484221
vt 0.21586618 0.73221534
vt 0.22197546 0.68519604
vt 0.17322731 0.6847007
vt 0.16711804 0.73172003
vt 0.16467433 0.77918565
vt 0.21342248 0.779681
vt 0.21586618 0.82774186
vt 0.16711803 0.82724655
vt 0.22197546 0.8762491
vt 0.17322733 0.87575376
vt 0 0
vt 0.0010344714 0.18702143
vt 0.046349835 0.19539788
vt 0.045452256 0.00839019
vt 0.09184767 0.20319061
vt 0.13771048 0.20981586
vt 0.13709787 0.02287636
vt 0.091089785 0.016206827
vt 0.18366176 0.027825233
vt 0.18412073 0.2146899
vt 0.23052844 0.63847435
vt 0.22197546 0.68519604
vt 0.27496064 0.6857647
vt 0.2835136 0.639043
vt 0.21586618 0.73221534
vt 0.26885134 0.73278403
vt 0.27496064 0.6857647
vt 0.26640764 0.7802497
vt 0.21342248 0.779681
vt 0.22197546 0.68519604
vt 0.23052844 0.63847435
vt 0.1817803 0.63797903
vt 0.17322731 0.6847007
vt 0.23052844 0.63847435
vt 0.2403033 0.5919014
vt 0.19155514 0.5914061
vt 0.1817803 0.63797903
vt 0.3826568 0.14059974
vt 0.37825316 0.19174281
vt 0.5053384 0.28934294
vt 0.50395626 0.23255584
vt 0.29328847 0.59247005
vt 0.2403033 0.5919014
vt 0.23052844 0.63847435
vt 0.2835136 0.639043
vt 0.6252557 0.32451195
vt 0.50395626 0.23255584
vt 0.5053384 0.28934294
vt 0.6324235 0.3869431
vt 0.6467857 0.46870688
vt 0.51392305 0.36547077
vt 0.71791947 0.7645104
vt 0.7578179 0.7670255
vt 0.762746 0.71952516
vt 0.7231009 0.7172998
vt 0.73191243 0.67077905
vt 0.771152 0.6726169
vt 0.7431441 0.62471807
vt 0.73191243 0.67077905
vt 0.771152 0.6726169
vt 0.7818767 0.6261034
vt 0.8164469 0.67207026
vt 0.825071 0.6237438
vt 0.7818767 0.6261034
vt 0.771152 0.6726169
vt 0.8164469 0.67207026
vt 0.771152 0.6726169
vt 0.762746 0.71952516
vt 0.8097377 0.7205311
vt 0.7578179 0.7670255
vt 0.8059006 0.76919353
vt 0.7575272 0.81531525
vt 0.80589306 0.8181249
vt 0.7607145 0.86419713
vt 0.8087576 0.8672578
vt 0.41794246 0.9064291
vt 0.73191243 0.67077905
vt 0.7431441 0.62471807
vt 0.42647922 0.9531128
vt 0.41794246 0.9064291
vt 0.41159397 0.8594365
vt 0.7231009 0.7172998
vt 0.73191243 0.67077905
vt 0.7937607 0.5797873
vt 0.7555858 0.578887
vt 0.7431441 0.62471807
vt 0.7818767 0.6261034
vt 0.9931049 0.13762784
vt 0.87007564 0.2265616
vt 0.86917746 0.2797646
vt 0.9985268 0.18611413
vt 0.42647922 0.9531128
vt 0.7431441 0.62471807
vt 0.7555858 0.578887
vt 0.42647922 0.9531128
vt 0.7555858 0.578887
vt 0.43611014 0.999642
vt 0.4504264 0.08353078
vt 0.4063999 0.10714484
vt 0.5218888 0.19343266
vt 0.5571233 0.16163889
vt 0.825071 0.6237438
vt 0.8346523 0.5754845
vt 0.7937607 0.5797873
vt 0.7818767 0.6261034
vt 0.3203857 0.5140042
vt 0.3634836 0.50447434
vt 0.36541852 0.4700022
vt 0.32095528 0.47721812
vt 0.7398281 0.37341502
vt 0.86917746 0.2797646
vt 0.87007564 0.2265616
vt 0.74704653 0.31549537
vt 0.6467857 0.46870688
vt 0.51392305 0.36547077
vt 0.5233676 0.45673296
vt 0.6620077 0.56560504
vt 0.5218888 0.19343266
vt 0.4063999 0.10714484
vt 0.3826568 0.14059974
vt 0.50395626 0.23255584
vt 0.8523782 0.1887393
vt 0.7356964 0.27293614
vt 0.74704653 0.31549537
vt 0.87007564 0.2265616
vt 0.1469885 0.52798027
vt 0.10323701 0.5218171
vt 0.10711942 0.5548422
vt 0.15073583 0.56097674
vt 0.033168785 0.827089
vt 0.03072507 0.77902824
vt 0.19415379 0.56336296
vt 0.15073583 0.56097674
vt 0.19415379 0.56336296
vt 0.19058917 0.53052205
vt 0.1469885 0.52798027
vt 0.15073583 0.56097674
vt 0.06337073 0.5462087
vt 0.10711942 0.5548422
vt 0.10323701 0.5218171
vt 0.05938496 0.51323956
vt 0.09907399 0.47904447
vt 0.05480849 0.47069073
vt 0.05938496 0.51323956
vt 0.10323701 0.5218171
vt 0.09907399 0.47904447
vt 0.10323701 0.5218171
vt 0.1469885 0.52798027
vt 0.14336586 0.48532227
vt 0.039278068 0.8755963
vt 0.10711942 0.5548422
vt 0.06337073 0.5462087
vt 0.047831066 0.9244011
vt 0.039278068 0.8755963
vt 0.033168785 0.827089
vt 0.15073583 0.56097674
vt 0.10711942 0.5548422
vt 0.019555897 0.5363258
vt 0.06337073 0.5462087
vt 0.05938496 0.51323956
vt 0.015482641 0.50345486
vt 0.8548728 0.4549333
vt 0.85743904 0.41738433
vt 0.7154675 0.52045465
vt 0.70974565 0.5603585
vt 0.047831066 0.9244011
vt 0.06337073 0.5462087
vt 0.019555897 0.5363258
vt 0.057605915 0.97335464
vt 0.7356964 0.27293614
vt 0.8523782 0.1887393
vt 0.8174611 0.15847087
vt 0.7100835 0.23538527
vt 0.05480849 0.47069073
vt 0.010556173 0.461299
vt 0.015482641 0.50345486
vt 0.05938496 0.51323956
vt 0.86917746 0.2797646
vt 0.8628663 0.34480166
vt 0.9985268 0.24644129
vt 0.9985268 0.18611413
vt 0.9985268 0.24644129
vt 0.8628663 0.34480166
vt 0.85743904 0.41738433
vt 0.9985268 0.24644129
vt 0.85743904 0.41738433
vt 0.99941075 0.31431407
vt 0.23052844 0.92505383
vt 0.22197546 0.8762491
vt 0.17322733 0.87575376
vt 0.18178031 0.9245586
vt 0.3203857 0.5140042
vt 0.2772375 0.5223268
vt 0.28026223 0.55439144
vt 0.32308495 0.54553264
vt 0.726576 0.9107403
vt 0.42121235 0.66652334
vt 0.42908764 0.6175228
vt 0.7334949 0.96025
vt 0.14336586 0.48532227
vt 0.1469885 0.52798027
vt 0.19058917 0.53052205
vt 0.18769729 0.4884861
vt 0.8628663 0.34480166
vt 0.86917746 0.2797646
vt 0.7398281 0.37341502
vt 0.7272059 0.44316202
vt 0.85743904 0.41738433
vt 0.8548728 0.4549333
vt 1 0.34950805
vt 0.99941075 0.31431407
vt 0.8628663 0.34480166
vt 0.7272059 0.44316202
vt 0.7154675 0.52045465
vt 0.85743904 0.41738433
vt 0.14023481 0.416048
vt 0.095118 0.40959352
vt 0.09907399 0.47904447
vt 0.14336586 0.48532227
vt 0.5282332 0.50488645
vt 0.5233676 0.45673296
vt 0.38472748 0.34786093
vt 0.38670433 0.39319643
vt 0.18769729 0.4884861
vt 0.1856763 0.42014962
vt 0.14023481 0.416048
vt 0.14336586 0.48532227
vt 0.23155066 0.42111427
vt 0.23208144 0.48749807
vt 0.05480849 0.47069073
vt 0.09907399 0.47904447
vt 0.095118 0.40959352
vt 0.050217625 0.40157056
vt 0.095118 0.40959352
vt 0.14023481 0.416048
vt 0.13905701 0.36284584
vt 0.09358089 0.35631254
vt 0.1849761 0.36734328
vt 0.1856763 0.42014962
vt 0.23155066 0.42111427
vt 0.23148583 0.3691263
vt 0.27774972 0.41972607
vt 0.2784385 0.36887348
vt 0.010556173 0.461299
vt 0.05480849 0.47069073
vt 0.050217625 0.40157056
vt 0.0054254755 0.3927633
vt 0.51392305 0.36547077
vt 0.5053384 0.28934294
vt 0.37825316 0.19174281
vt 0.3810604 0.2622347
vt 0.095118 0.40959352
vt 0.09358089 0.35631254
vt 0.048400063 0.3484221
vt 0.050217625 0.40157056
vt 0.050217625 0.40157056
vt 0.048400063 0.3484221
vt 0.0033669071 0.33985302
vt 0.0054254755 0.3927633
vt 0.5233676 0.45673296
vt 0.5282332 0.50488645
vt 0.66976196 0.6165765
vt 0.6620077 0.56560504
vt 0.3810604 0.2622347
vt 0.38472748 0.34786093
vt 0.5233676 0.45673296
vt 0.3810604 0.2622347
vt 0.5233676 0.45673296
vt 0.51392305 0.36547077
vt 0.86407614 0.7203177
vt 0.86779726 0.66913897
vt 0.8164469 0.67207026
vt 0.8097377 0.7205311
vt 0.8059006 0.76919353
vt 0.86216754 0.77101475
vt 0.86267567 0.8210695
vt 0.80589306 0.8181249
vt 0.8649963 0.87064254
vt 0.8087576 0.8672578
vt 0.5935226 0.11818238
vt 0.5571233 0.16163889
vt 0.66382027 0.23974702
vt 0.68254995 0.1806412
vt 0.825071 0.6237438
vt 0.8164469 0.67207026
vt 0.86779726 0.66913897
vt 0.8727268 0.61763906
vt 0.86779726 0.66913897
vt 0.86407614 0.7203177
vt 0.8924697 0.72000784
vt 0.8944816 0.6672759
vt 0.891665 0.7718676
vt 0.86216754 0.77101475
vt 0.8782605 0.56597865
vt 0.8346523 0.5754845
vt 0.825071 0.6237438
vt 0.8727268 0.61763906
vt 0.8685254 0.91989446
vt 0.8649963 0.87064254
vt 0.8087576 0.8672578
vt 0.81353694 0.9165251
vt 0.86779726 0.66913897
vt 0.8944816 0.6672759
vt 0.8972983 0.6139626
vt 0.8727268 0.61763906
vt 0.8727268 0.61763906
vt 0.8972983 0.6139626
vt 0.90051734 0.5603585
vt 0.8782605 0.56597865
vt 0.4528051 0.81210893
vt 0.40852788 0.81198055
vt 0.41159397 0.8594365
vt 0.45562595 0.85956436
vt 0.46173757 0.90655637
vt 0.41794246 0.9064291
vt 0.40983832 0.7639067
vt 0.45437193 0.76403576
vt 0.41443118 0.7153695
vt 0.45922953 0.71549916
vt 0.4700431 0.95323956
vt 0.46173757 0.90655637
vt 0.41794246 0.9064291
vt 0.42647922 0.9531128
vt 0.43611014 0.999642
vt 0.4794455 0.99976826
vt 0.4700431 0.95323956
vt 0.42647922 0.9531128
vt 0.5571233 0.16163889
vt 0.5935226 0.11818238
vt 0.5044953 0.055723563
vt 0.4504264 0.08353078
vt 0.5218888 0.19343266
vt 0.50395626 0.23255584
vt 0.6252557 0.32451195
vt 0.6373776 0.2797205
vt 0.8174611 0.15847087
vt 0.78125936 0.11655617
vt 0.69198424 0.17860574
vt 0.7100835 0.23538527
vt 0.8523782 0.1887393
vt 0.87007564 0.2265616
vt 0.9931049 0.13762784
vt 0.96906006 0.10454247
vt 0.04783105 0.63782156
vt 0.03927806 0.68454325
vt 0.07623528 0.6842853
vt 0.08478827 0.6375636
vt 0.113025144 0.68425983
vt 0.121578135 0.6375381
vt 0.121578135 0.6375381
vt 0.15176618 0.68450344
vt 0.16031916 0.63778174
vt 0.09456311 0.59099066
vt 0.0576059 0.59124863
vt 0.04783105 0.63782156
vt 0.08478827 0.6375636
vt 0.121578135 0.6375381
vt 0.13135299 0.59096515
vt 0.28026223 0.55439144
vt 0.23730722 0.5607514
vt 0.033168778 0.73156255
vt 0.03927806 0.68454325
vt 0.28026223 0.55439144
vt 0.03927806 0.68454325
vt 0.04783105 0.63782156
vt 0.32308495 0.54553264
vt 0.42121235 0.66652334
vt 0.41443118 0.7153695
vt 0.45922953 0.71549916
vt 0.466281 0.66665363
vt 0.23730722 0.5607514
vt 0.19415379 0.56336296
vt 0.03072507 0.77902824
vt 0.033168778 0.73156255
vt 0.4744294 0.6176537
vt 0.42908764 0.6175228
vt 0.42121235 0.66652334
vt 0.466281 0.66665363
vt 0.72086704 0.86146057
vt 0.7175782 0.81264055
vt 0.40983832 0.7639067
vt 0.41443118 0.7153695
vt 0.72086704 0.86146057
vt 0.41443118 0.7153695
vt 0.42121235 0.66652334
vt 0.726576 0.9107403
vt 0.50410986 0.71529174
vt 0.45922953 0.71549916
vt 0.45437193 0.76403576
vt 0.4989875 0.7638277
vt 0.4528051 0.81210893
vt 0.4971643 0.81190026
vt 0.50410986 0.71529174
vt 0.5114317 0.6664469
vt 0.466281 0.66665363
vt 0.45922953 0.71549916
vt 0.7175782 0.81264055
vt 0.71791947 0.7645104
vt 0.40852788 0.81198055
vt 0.40983832 0.7639067
vt 0.32308495 0.54553264
vt 0.04783105 0.63782156
vt 0.0576059 0.59124863
vt 0.3658415 0.53542435
vt 0.8192736 0.96585965
vt 0.8726586 0.9689858
vt 0.8685254 0.91989446
vt 0.81353694 0.9165251
vt 0.8649963 0.87064254
vt 0.8685254 0.91989446
vt 0.8972983 0.9216322
vt 0.8944816 0.87238896
vt 0.8685254 0.91989446
vt 0.8726586 0.9689858
vt 0.90051734 0.9705846
vt 0.8972983 0.9216322
vt 0.7607145 0.86419713
vt 0.76622045 0.9134737
vt 0.81353694 0.9165251
vt 0.8087576 0.8672578
vt 0.3241652 0.41676936
vt 0.27774972 0.41972607
vt 0.27650517 0.48339608
vt 0.32095528 0.47721812
vt 0.8649963 0.87064254
vt 0.8944816 0.87238896
vt 0.8924697 0.82256436
vt 0.86267567 0.8210695
vt 0.86267567 0.8210695
vt 0.8924697 0.82256436
vt 0.891665 0.7718676
vt 0.86216754 0.77101475
vt 0.36541852 0.4700022
vt 0.3706889 0.41302836
vt 0.3241652 0.41676936
vt 0.32095528 0.47721812
vt 0.23208144 0.48749807
vt 0.27650517 0.48339608
vt 0.27774972 0.41972607
vt 0.23155066 0.42111427
vt 0.27774972 0.41972607
vt 0.3241652 0.41676936
vt 0.32568654 0.3672635
vt 0.2784385 0.36887348
vt 0.3241652 0.41676936
vt 0.3706889 0.41302836
vt 0.37308222 0.36497486
vt 0.32568654 0.3672635
vt 0.2772375 0.5223268
vt 0.27650517 0.48339608
vt 0.23208144 0.48749807
vt 0.23398875 0.52823514
vt 0.2772375 0.5223268
vt 0.3203857 0.5140042
vt 0.32095528 0.47721812
vt 0.27650517 0.48339608
vt 0.23398875 0.52823514
vt 0.23208144 0.48749807
vt 0.18769729 0.4884861
vt 0.19058917 0.53052205
vt 0.76622045 0.9134737
vt 0.7728857 0.9629477
vt 0.8192736 0.96585965
vt 0.81353694 0.9165251
vt 0.3658415 0.53542435
vt 0.3634836 0.50447434
vt 0.3203857 0.5140042
vt 0.32308495 0.54553264
vt 0.23730722 0.5607514
vt 0.28026223 0.55439144
vt 0.2772375 0.5223268
vt 0.23398875 0.52823514
vt 0.19415379 0.56336296
vt 0.23730722 0.5607514
vt 0.23398875 0.52823514
vt 0.19058917 0.53052205
vt 0.76622045 0.9134737
vt 0.7607145 0.86419713
vt 0.72086704 0.86146057
vt 0.726576 0.9107403
vt 0.7334949 0.96025
vt 0.7728857 0.9629477
vt 0.76622045 0.9134737
vt 0.726576 0.9107403
vt 0.7175782 0.81264055
vt 0.72086704 0.86146057
vt 0.7607145 0.86419713
vt 0.7575272 0.81531525
vt 0.71791947 0.7645104
vt 0.7578179 0.7670255
vt 0.19155514 0.9735122
vt 0.24030331 0.9740075
vt 0.23052844 0.92505383
vt 0.18178031 0.9245586
vt 0.23052844 0.92505383
vt 0.24030331 0.9740075
vt 0.29328847 0.9745761
vt 0.2835136 0.9256225
vt 0.23126091 0.21722904
vt 0.27894855 0.21801692
vt 0.27882755 0.031413898
vt 0.23096675 0.030479893
vt 0.18412073 0.2146899
vt 0.18366176 0.027825233
vt 0.37308222 0.36497486
vt 0.3752362 0.21667404
vt 0.3270011 0.21763736
vt 0.32568654 0.3672635
vt 0.27894855 0.21801692
vt 0.3270011 0.21763736
vt 0.3270589 0.031200795
vt 0.27882755 0.031413898
vt 0.3270011 0.21763736
vt 0.3752362 0.21667404
vt 0.37547553 0.030414138
vt 0.3270589 0.031200795
vt 0.565359 0.6169043
vt 0.5198532 0.6174476
vt 0.5114317 0.6664469
vt 0.55666435 0.665903
vt 0.54907227 0.7147472
vt 0.5715672 0.7144187
vt 0.57929444 0.6655748
vt 0.55666435 0.665903
vt 0.56604767 0.76295376
vt 0.54368514 0.76328254
vt 0.56383985 0.8110255
vt 0.5416056 0.8113546
vt 0.55666435 0.665903
vt 0.57929444 0.6655748
vt 0.5881256 0.6165765
vt 0.565359 0.6169043
vt 0.17009401 0.5912088
vt 0.13135299 0.59096515
vt 0.121578135 0.6375381
vt 0.16031916 0.63778174
vt 0.15176618 0.68450344
vt 0.17322731 0.6847007
vt 0.1817803 0.63797903
vt 0.16031916 0.63778174
vt 0.16031916 0.63778174
vt 0.1817803 0.63797903
vt 0.19155514 0.5914061
vt 0.17009401 0.5912088
vt 0.41159397 0.8594365
vt 0.40852788 0.81198055
vt 0.71791947 0.7645104
vt 0.7231009 0.7172998
vt 0.75006986 0.05870673
vt 0.68768644 0.098315805
vt 0.69198424 0.17860574
vt 0.78125936 0.11655617
vt 0.73531044 0.02712622
vt 0.75006986 0.05870673
vt 0.81245327 0.019097654
vt 0.7827831 0
vn -0.43019193 0.84435546 0.3193724
vn -0.43019193 0.84435546 0.3193724
vn -0.43019193 0.84435546 0.3193724
vn -0.43019193 0.84435546 0.3193724
vn 0.7150522 0.10983748 -0.69038844
vn 0.7150522 0.10983748 -0.69038844
vn 0.7150522 0.10983748 -0.69038844
vn 0.7150522 0.10983748 -0.69038844
vn -0.8773728 -0.037527 -0.47833952
vn -0.8773728 -0.037527 -0.47833952
vn -0.8773728 -0.037527 -0.47833952
vn -0.8773728 -0.037527 -0.47833952
vn -0.06230695 0.990271 0.12442364
vn -0.06230695 0.990271 0.12442364
vn -0.06230695 0.990271 0.12442364
vn -0.06230695 0.990271 0.12442364
vn -0.053133167 0.9912049 0.12120051
vn -0.053133167 0.9912049 0.12120051
vn -0.017062526 0.9906487 0.13536642
vn -0.017062526 0.9906487 0.13536642
vn -0.017062526 0.9906487 0.13536642
vn 0.38578996 0.86612433 0.31779674
vn 0.38578996 0.86612433 0.31779674
vn 0.38578996 0.86612433 0.31779674
vn 0.38578996 0.86612433 0.31779674
vn 0.029239489 0.10660911 -0.993871
vn 0.029239489 0.10660911 -0.993871
vn 0.029239489 0.10660911 -0.993871
vn 0.029239489 0.10660911 -0.993871
vn -0.013132498 0.11054737 -0.99378407
vn -0.013132498 0.11054737 -0.99378407
vn 0.037489124 0.0978515 -0.99449474
vn 0.037489124 0.0978515 -0.99449474
vn -0.012600231 0.100758046 -0.99483114
vn -0.012600231 0.100758046 -0.99483114
vn 0.04367379 0.0875356 -0.9952035
vn 0.04367379 0.0875356 -0.9952035
vn -0.011926391 0.088381276 -0.99601525
vn -0.011926391 0.088381276 -0.99601525
vn -0.037063215 0.08751861 -0.9954731
vn -0.037063215 0.08751861 -0.9954731
vn -0.037079394 0.10008648 -0.99428755
vn -0.08033382 0.10443313 -0.9912821
vn -0.088172965 0.09451974 -0.9916106
vn -0.08033382 0.10443313 -0.9912821
vn -0.0937855 0.08295294 -0.9921306
vn -0.0937855 0.08295294 -0.9921306
vn -0.0937855 0.08295294 -0.9921306
vn -0.0937855 0.08295294 -0.9921306
vn -0.088172965 0.09451974 -0.9916106
vn -0.76284856 0.08429603 -0.6410586
vn -0.76284856 0.08429603 -0.6410586
vn -0.76284856 0.08429603 -0.6410586
vn -0.76284856 0.08429603 -0.6410586
vn 0.2269772 0.3666731 0.9022373
vn 0.2269772 0.3666731 0.9022373
vn 0.2269772 0.3666731 0.9022373
vn 0.2269772 0.3666731 0.9022373
vn 0.10747606 0.094246514 -0.9897306
vn 0.10747606 0.094246514 -0.9897306
vn 0.10747606 0.094246514 -0.9897306
vn 0.10747606 0.094246514 -0.9897306
vn 0.13086498 0.08311171 -0.9879103
vn 0.13086498 0.08311171 -0.9879103
vn 0.13086498 0.08311171 -0.9879103
vn 0.14847259 0.07992305 -0.98568165
vn 0.14847259 0.07992305 -0.98568165
vn 0.010353503 0.26391038 -0.9644916
vn 0.010353503 0.26391038 -0.9644916
vn 0.010353503 0.26391038 -0.9644916
vn 0.010353503 0.26391038 -0.9644916
vn -0.021447342 0.2652591 -0.9639386
vn -0.021447342 0.2652591 -0.9639386
vn -0.0692355 0.2626986 -0.96239066
vn -0.0692355 0.2626986 -0.96239066
vn -0.0692355 0.2626986 -0.96239066
vn -0.0692355 0.2626986 -0.96239066
vn 0.2534211 0.07914643 -0.9641128
vn 0.2534211 0.07914643 -0.9641128
vn 0.2534211 0.07914643 -0.9641128
vn 0.2534211 0.07914643 -0.9641128
vn 0.45263022 0.45492333 -0.76692283
vn 0.45263022 0.45492333 -0.76692283
vn 0.45263022 0.45492333 -0.76692283
vn 0.45263022 0.45492333 -0.76692283
vn 0.07648635 0.26282167 -0.96180797
vn 0.07648635 0.26282167 -0.96180797
vn 0.07648635 0.26282167 -0.96180797
vn 0.07648635 0.26282167 -0.96180797
vn 0.18588172 0.27817133 -0.942374
vn 0.18588172 0.27817133 -0.942374
vn 0.18588172 0.27817133 -0.942374
vn 0.18588172 0.27817133 -0.942374
vn 0.31144315 0.04881301 -0.94901025
vn 0.31144315 0.04881301 -0.94901025
vn 0.31144315 0.04881301 -0.94901025
vn 0.31144315 0.04881301 -0.94901025
vn 0.34726992 0.060859103 -0.9357883
vn 0.34726992 0.060859103 -0.9357883
vn 0.00624736 -0.9112941 0.41170868
vn 0.00624736 -0.9112941 0.41170868
vn 0.00624736 -0.9112941 0.41170868
vn 0.00624736 -0.9112941 0.41170868
vn 0.8524943 0.10059725 0.51296556
vn 0.8524943 0.10059725 0.51296556
vn 0.8524943 0.10059725 0.51296556
vn 0.8524943 0.10059725 0.51296556
vn -0.8504396 -0.060827952 -0.5225442
vn -0.8504396 -0.060827952 -0.5225442
vn -0.8504396 -0.060827952 -0.5225442
vn -0.8504396 -0.060827952 -0.5225442
vn -0.04121015 -0.9950801 0.09009583
vn -0.04121015 -0.9950801 0.09009583
vn -0.04121015 -0.9950801 0.09009583
vn -0.04121015 -0.9950801 0.09009583
vn -0.03669483 -0.993226 0.11025219
vn -0.03669483 -0.993226 0.11025219
vn 0.015538427 -0.9919382 0.1257664
vn 0.015538427 -0.9919382 0.1257664
vn -0.021430004 -0.99283046 0.11759497
vn 0.015538427 -0.9919382 0.1257664
vn -0.021430004 -0.99283046 0.11759497
vn -0.021430004 -0.99283046 0.11759497
vn -0.021430004 -0.99283046 0.11759497
vn 0.039058633 0.63725376 0.7696636
vn 0.039058633 0.63725376 0.7696636
vn 0.039058633 0.63725376 0.7696636
vn 0.039058633 0.63725376 0.7696636
vn 0.02689435 0.6389469 0.7687806
vn 0.02689435 0.6389469 0.7687806
vn -0.0021074652 0.6286611 0.7776766
vn -0.0021074652 0.6286611 0.7776766
vn -0.0021074652 0.6286611 0.7776766
vn 0.68358946 0.50478166 0.52716315
vn 0.68358946 0.50478166 0.52716315
vn 0.68358946 0.50478166 0.52716315
vn 0.68358946 0.50478166 0.52716315
vn -0.034627818 0.40578395 0.9133128
vn -0.034627818 0.40578395 0.9133128
vn -0.034627818 0.40578395 0.9133128
vn -0.034627818 0.40578395 0.9133128
vn 0.030875023 0.4215994 0.9062564
vn 0.030875023 0.4215994 0.9062564
vn 0.030875023 0.4215994 0.9062564
vn 0.030875023 0.4215994 0.9062564
vn 0.032468803 0.4246095 0.90479416
vn 0.032468803 0.4246095 0.90479416
vn 0.036319286 0.8011475 0.59736395
vn 0.036319286 0.8011475 0.59736395
vn 0.036319286 0.8011475 0.59736395
vn 0.036319286 0.8011475 0.59736395
vn 0.019343732 0.8002679 0.5993306
vn 0.019343732 0.8002679 0.5993306
vn 0.0012471165 0.80364263 0.59511095
vn 0.0012471165 0.80364263 0.59511095
vn -0.13808446 0.6091525 0.7809391
vn -0.13808446 0.6091525 0.7809391
vn -0.13808446 0.6091525 0.7809391
vn -0.13808446 0.6091525 0.7809391
vn 0.0015398071 0.62371093 0.7816537
vn 0.0015398071 0.62371093 0.7816537
vn 0.0015398071 0.62371093 0.7816537
vn 0.0015398071 0.62371093 0.7816537
vn -0.039118186 0.6325532 0.77352834
vn -0.039118186 0.6325532 0.77352834
vn -0.02795036 0.636823 0.7705033
vn -0.02795036 0.636823 0.7705033
vn -0.09652588 0.8117946 0.57590985
vn -0.09652588 0.8117946 0.57590985
vn -0.09652588 0.8117946 0.57590985
vn -0.09652588 0.8117946 0.57590985
vn -0.21838713 0.35877234 0.90751827
vn -0.21838713 0.35877234 0.90751827
vn -0.21838713 0.35877234 0.90751827
vn -0.21838713 0.35877234 0.90751827
vn 0.00790662 -0.99798065 0.063025355
vn 0.00790662 -0.99798065 0.063025355
vn 0.00790662 -0.99798065 0.063025355
vn 0.00790662 -0.99798065 0.063025355
vn 0.13092528 -0.99100596 0.027671937
vn 0.13092528 -0.99100596 0.027671937
vn 0.13092528 -0.99100596 0.027671937
vn 0.13092528 -0.99100596 0.027671937
vn -0.04834728 0.66213626 -0.7478222
vn -0.04834728 0.66213626 -0.7478222
vn -0.04834728 0.66213626 -0.7478222
vn -0.04834728 0.66213626 -0.7478222
vn -0.03068715 0.66133505 -0.74946266
vn -0.03068715 0.66133505 -0.74946266
vn -0.024140058 0.6630515 -0.7481845
vn -0.024140058 0.6630515 -0.7481845
vn -0.024140058 0.6630515 -0.7481845
vn -0.024140058 0.6630515 -0.7481845
vn 0.17057078 -0.8810495 0.4412001
vn 0.17057078 -0.8810495 0.4412001
vn 0.17057078 -0.8810495 0.4412001
vn 0.17057078 -0.8810495 0.4412001
vn -0.057310104 -0.918274 0.39177603
vn -0.057310104 -0.918274 0.39177603
vn -0.057310104 -0.918274 0.39177603
vn -0.057310104 -0.918274 0.39177603
vn -0.053613823 -0.92129225 0.38515732
vn -0.053613823 -0.92129225 0.38515732
vn -0.035004478 0.99140733 0.12604007
vn -0.035004478 0.99140733 0.12604007
vn -0.035004478 0.99140733 0.12604007
vn -0.035004478 0.99140733 0.12604007
vn 0.010398132 0.993134 0.11651827
vn 0.010398132 0.993134 0.11651827
vn 0.010398132 0.993134 0.11651827
vn 0.00022002161 0.99304634 0.11772363
vn 0.00022002161 0.99304634 0.11772363
vn -0.11165425 0.6585493 -0.74420834
vn -0.11165425 0.6585493 -0.74420834
vn -0.11165425 0.6585493 -0.74420834
vn -0.11165425 0.6585493 -0.74420834
vn -0.2473007 0.6327093 -0.73384005
vn -0.2473007 0.6327093 -0.73384005
vn -0.2473007 0.6327093 -0.73384005
vn -0.2473007 0.6327093 -0.73384005
vn 0.87297076 -0.2755926 -0.40245596
vn 0.87297076 -0.2755926 -0.40245596
vn 0.87297076 -0.2755926 -0.40245596
vn 0.87297076 -0.2755926 -0.40245596
vn -0.15912473 0.9750955 0.15449312
vn -0.15912473 0.9750955 0.15449312
vn -0.15912473 0.9750955 0.15449312
vn -0.15912473 0.9750955 0.15449312
vn 0.8364038 0.38575986 0.38938174
vn 0.8364038 0.38575986 0.38938174
vn 0.8364038 0.38575986 0.38938174
vn 0.8364038 0.38575986 0.38938174
vn 0.83948857 0.40859267 0.35820508
vn 0.83948857 0.40859267 0.35820508
vn 0.030231798 0.7291193 0.6837186
vn 0.030231798 0.7291193 0.6837186
vn 0.030231798 0.7291193 0.6837186
vn 0.030231798 0.7291193 0.6837186
vn 0.028709877 0.72596914 0.68712777
vn 0.028709877 0.72596914 0.68712777
vn -0.044428013 0.7168751 0.6957847
vn -0.044428013 0.7168751 0.6957847
vn -0.044428013 0.7168751 0.6957847
vn -0.044428013 0.7168751 0.6957847
vn -0.05809158 0.79266703 0.6068809
vn -0.05809158 0.79266703 0.6068809
vn -0.05809158 0.79266703 0.6068809
vn -0.05809158 0.79266703 0.6068809
vn 0.016615098 0.8107049 0.58521926
vn 0.016615098 0.8107049 0.58521926
vn 0.016615098 0.8107049 0.58521926
vn 0.016615098 0.8107049 0.58521926
vn 0.02465813 0.821305 0.56995624
vn 0.02465813 0.821305 0.56995624
vn -0.01039319 0.80319834 0.59562117
vn -0.01039319 0.80319834 0.59562117
vn -0.01039319 0.80319834 0.59562117
vn -0.01039319 0.80319834 0.59562117
vn -0.059115123 0.44398394 0.89408255
vn -0.059115123 0.44398394 0.89408255
vn -0.059115123 0.44398394 0.89408255
vn -0.059115123 0.44398394 0.89408255
vn 0.024845323 0.45356286 0.8908779
vn 0.024845323 0.45356286 0.8908779
vn 0.024845323 0.45356286 0.8908779
vn 0.024845323 0.45356286 0.8908779
vn -0.24872355 0.68246394 0.6872987
vn -0.24872355 0.68246394 0.6872987
vn -0.24872355 0.68246394 0.6872987
vn -0.24872355 0.68246394 0.6872987
vn -0.8927663 -0.26609752 -0.36353868
vn -0.8927663 -0.26609752 -0.36353868
vn -0.8927663 -0.26609752 -0.36353868
vn -0.8927663 -0.26609752 -0.36353868
vn -0.2793 0.40460595 0.8707959
vn -0.2793 0.40460595 0.8707959
vn -0.2793 0.40460595 0.8707959
vn -0.2793 0.40460595 0.8707959
vn -0.2793 0.40460595 0.8707959
vn -0.2793 0.40460595 0.8707959
vn 0.8461093 0.017962474 -0.53270674
vn 0.8461093 0.017962474 -0.53270674
vn 0.8461093 0.017962474 -0.53270674
vn 0.8461093 0.017962474 -0.53270674
vn -0.25418407 0.75844014 0.6001326
vn -0.25418407 0.75844014 0.6001326
vn -0.25418407 0.75844014 0.6001326
vn -0.25418407 0.75844014 0.6001326
vn -0.43713427 -0.56841356 -0.6970076
vn -0.43713427 -0.56841356 -0.6970076
vn -0.43713427 -0.56841356 -0.6970076
vn -0.43713427 -0.56841356 -0.6970076
vn -0.84425515 0.3674043 0.39018875
vn -0.84425515 0.3674043 0.39018875
vn -0.84425515 0.3674043 0.39018875
vn -0.84425515 0.3674043 0.39018875
vn 0.8941319 0.09582127 0.43743142
vn 0.8941319 0.09582127 0.43743142
vn 0.8941319 0.09582127 0.43743142
vn 0.8941319 0.09582127 0.43743142
vn 0.8735848 -0.1128783 -0.47340044
vn 0.8735848 -0.1128783 -0.47340044
vn 0.8735848 -0.1128783 -0.47340044
vn 0.8735848 -0.1128783 -0.47340044
vn -0.86359537 0.15991466 0.47815308
vn -0.86359537 0.15991466 0.47815308
vn -0.86359537 0.15991466 0.47815308
vn -0.86359537 0.15991466 0.47815308
vn 0.10273944 -0.5775983 -0.80983007
vn 0.10273944 -0.5775983 -0.80983007
vn 0.10273944 -0.5775983 -0.80983007
vn 0.10273944 -0.5775983 -0.80983007
vn 0.005291566 -0.22137079 -0.9751754
vn 0.005291566 -0.22137079 -0.9751754
vn 0.005291566 -0.22137079 -0.9751754
vn 0.005291566 -0.22137079 -0.9751754
vn 0.02593801 -0.58433086 -0.8111009
vn 0.02593801 -0.58433086 -0.8111009
vn 0.02593801 -0.58433086 -0.8111009
vn 0.02593801 -0.58433086 -0.8111009
vn 0.2245651 -0.56213826 -0.7959717
vn 0.2245651 -0.56213826 -0.7959717
vn 0.2245651 -0.56213826 -0.7959717
vn 0.2245651 -0.56213826 -0.7959717
vn 0.21315242 -0.6780834 -0.70339805
vn 0.21315242 -0.6780834 -0.70339805
vn 0.21315242 -0.6780834 -0.70339805
vn 0.21315242 -0.6780834 -0.70339805
vn 0.0974943 -0.71062183 -0.69678646
vn 0.0974943 -0.71062183 -0.69678646
vn 0.0974943 -0.71062183 -0.69678646
vn 0.0974943 -0.71062183 -0.69678646
vn 0.19733924 -0.21923551 -0.9555067
vn 0.19733924 -0.21923551 -0.9555067
vn 0.19733924 -0.21923551 -0.9555067
vn 0.19733924 -0.21923551 -0.9555067
vn 0.07594976 -0.21997805 -0.9725437
vn 0.07594976 -0.21997805 -0.9725437
vn 0.07594976 -0.21997805 -0.9725437
vn 0.07594976 -0.21997805 -0.9725437
vn 0.42912826 -0.5196995 -0.73875654
vn 0.42912826 -0.5196995 -0.73875654
vn 0.42912826 -0.5196995 -0.73875654
vn 0.42912826 -0.5196995 -0.73875654
vn -0.56681657 -0.6162047 0.54681873
vn -0.56681657 -0.6162047 0.54681873
vn -0.56681657 -0.6162047 0.54681873
vn -0.56681657 -0.6162047 0.54681873
vn 0.4103161 -0.21111909 -0.8871693
vn 0.4103161 -0.21111909 -0.8871693
vn 0.4103161 -0.21111909 -0.8871693
vn 0.4103161 -0.21111909 -0.8871693
vn -0.8444385 0.04038312 0.534128
vn -0.8444385 0.04038312 0.534128
vn -0.8444385 0.04038312 0.534128
vn -0.8444385 0.04038312 0.534128
vn 0.41627416 -0.61440533 -0.67024016
vn 0.41627416 -0.61440533 -0.67024016
vn 0.41627416 -0.61440533 -0.67024016
vn 0.41627416 -0.61440533 -0.67024016
vn -0.9039312 -0.18024662 -0.38783976
vn -0.9039312 -0.18024662 -0.38783976
vn -0.9039312 -0.18024662 -0.38783976
vn -0.9039312 -0.18024662 -0.38783976
vn -0.8366877 -0.46029937 -0.2967797
vn -0.8366877 -0.46029937 -0.2967797
vn -0.8366877 -0.46029937 -0.2967797
vn -0.8366877 -0.46029937 -0.2967797
vn -0.8366877 -0.46029937 -0.2967797
vn -0.8366877 -0.46029937 -0.2967797
vn 0.037800618 0.66206706 -0.74849063
vn 0.037800618 0.66206706 -0.74849063
vn 0.037800618 0.66206706 -0.74849063
vn 0.037800618 0.66206706 -0.74849063
vn -0.23604147 -0.5630792 -0.7919762
vn -0.23604147 -0.5630792 -0.7919762
vn -0.23604147 -0.5630792 -0.7919762
vn -0.23604147 -0.5630792 -0.7919762
vn 0.2814583 0.420465 0.8625488
vn 0.2814583 0.420465 0.8625488
vn 0.2814583 0.420465 0.8625488
vn 0.2814583 0.420465 0.8625488
vn 0.028699331 -0.7281404 -0.6848269
vn 0.028699331 -0.7281404 -0.6848269
vn 0.028699331 -0.7281404 -0.6848269
vn 0.028699331 -0.7281404 -0.6848269
vn -0.8062974 0.5003775 0.3154471
vn -0.8062974 0.5003775 0.3154471
vn -0.8062974 0.5003775 0.3154471
vn -0.8062974 0.5003775 0.3154471
vn -0.42146277 -0.90659654 -0.021256072
vn -0.42146277 -0.90659654 -0.021256072
vn -0.42146277 -0.90659654 -0.021256072
vn -0.42146277 -0.90659654 -0.021256072
vn -0.8726893 0.2467396 0.42134666
vn -0.8726893 0.2467396 0.42134666
vn -0.8726893 0.2467396 0.42134666
vn -0.8726893 0.2467396 0.42134666
vn 0.06077135 -0.86476886 -0.4984793
vn 0.06077135 -0.86476886 -0.4984793
vn 0.06077135 -0.86476886 -0.4984793
vn 0.06077135 -0.86476886 -0.4984793
vn 0.42843774 -0.9002262 -0.077678286
vn 0.42843774 -0.9002262 -0.077678286
vn 0.42843774 -0.9002262 -0.077678286
vn 0.42843774 -0.9002262 -0.077678286
vn 0.015744815 -0.8850794 -0.4651737
vn 0.015744815 -0.8850794 -0.4651737
vn 0.015744815 -0.8850794 -0.4651737
vn 0.015744815 -0.8850794 -0.4651737
vn 0.0022663157 -0.8890109 -0.45788044
vn 0.0022663157 -0.8890109 -0.45788044
vn 0.16095246 -0.8341381 -0.52754897
vn 0.16095246 -0.8341381 -0.52754897
vn 0.16095246 -0.8341381 -0.52754897
vn 0.16095246 -0.8341381 -0.52754897
vn 0.00547378 -0.9803389 -0.19724536
vn 0.00547378 -0.9803389 -0.19724536
vn 0.00547378 -0.9803389 -0.19724536
vn 0.00547378 -0.9803389 -0.19724536
vn -0.010507705 -0.98677117 -0.16177802
vn -0.010507705 -0.98677117 -0.16177802
vn -0.002017827 -0.98776996 -0.155905
vn -0.002017827 -0.98776996 -0.155905
vn -0.002017827 -0.98776996 -0.155905
vn -0.002017827 -0.98776996 -0.155905
vn 0.34362286 -0.78770155 -0.5113214
vn 0.34362286 -0.78770155 -0.5113214
vn 0.34362286 -0.78770155 -0.5113214
vn 0.34362286 -0.78770155 -0.5113214
vn 0.87014323 -0.32167834 -0.37332812
vn 0.87014323 -0.32167834 -0.37332812
vn 0.87014323 -0.32167834 -0.37332812
vn 0.87014323 -0.32167834 -0.37332812
vn 0.08115383 -0.9697695 -0.23013297
vn 0.08115383 -0.9697695 -0.23013297
vn 0.08115383 -0.9697695 -0.23013297
vn 0.08115383 -0.9697695 -0.23013297
vn 0.206019 -0.95124465 -0.2295427
vn 0.206019 -0.95124465 -0.2295427
vn 0.206019 -0.95124465 -0.2295427
vn 0.206019 -0.95124465 -0.2295427
vn 0.5940725 -0.6263678 0.5047191
vn 0.5940725 -0.6263678 0.5047191
vn 0.5940725 -0.6263678 0.5047191
vn 0.5940725 -0.6263678 0.5047191
vn 0.7735014 -0.5719134 -0.2731493
vn 0.7735014 -0.5719134 -0.2731493
vn 0.7735014 -0.5719134 -0.2731493
vn 0.7735014 -0.5719134 -0.2731493
vn 0.7735014 -0.5719134 -0.2731493
vn 0.7735014 -0.5719134 -0.2731493
vn -0.011592388 0.6722223 0.7402586
vn -0.011592388 0.6722223 0.7402586
vn -0.011592388 0.6722223 0.7402586
vn -0.011592388 0.6722223 0.7402586
vn 0.01494002 0.6958776 0.71800506
vn 0.01494002 0.6958776 0.71800506
vn 0.018597234 0.6773944 0.73538494
vn 0.018597234 0.6773944 0.73538494
vn 0.018597234 0.6773944 0.73538494
vn 0.018597234 0.6773944 0.73538494
vn 0.8142366 0.17261219 0.5542777
vn 0.8142366 0.17261219 0.5542777
vn 0.8142366 0.17261219 0.5542777
vn 0.8142366 0.17261219 0.5542777
vn -0.109905005 0.6380195 0.7621365
vn -0.109905005 0.6380195 0.7621365
vn -0.109905005 0.6380195 0.7621365
vn -0.109905005 0.6380195 0.7621365
vn -0.025281234 -0.31049708 0.9502381
vn -0.025281234 -0.31049708 0.9502381
vn -0.025281234 -0.31049708 0.9502381
vn -0.025281234 -0.31049708 0.9502381
vn -0.0035550788 -0.2994311 0.95411134
vn -0.0035550788 -0.2994311 0.95411134
vn -0.33667368 0.56704223 0.7517405
vn -0.33667368 0.56704223 0.7517405
vn -0.33667368 0.56704223 0.7517405
vn -0.33667368 0.56704223 0.7517405
vn 0.11450717 0.64098877 0.7589607
vn 0.11450717 0.64098877 0.7589607
vn 0.11450717 0.64098877 0.7589607
vn 0.11450717 0.64098877 0.7589607
vn -0.13754031 -0.3150425 0.9390584
vn -0.13754031 -0.3150425 0.9390584
vn -0.13754031 -0.3150425 0.9390584
vn -0.13754031 -0.3150425 0.9390584
vn -0.32689387 -0.35511297 0.87580544
vn -0.32689387 -0.35511297 0.87580544
vn -0.32689387 -0.35511297 0.87580544
vn -0.32689387 -0.35511297 0.87580544
vn 0.03406215 0.24263106 0.96952045
vn 0.03406215 0.24263106 0.96952045
vn 0.03406215 0.24263106 0.96952045
vn 0.03406215 0.24263106 0.96952045
vn 0.021692483 0.2394895 0.97065663
vn 0.021692483 0.2394895 0.97065663
vn 0.005586455 0.2397279 0.97082406
vn 0.005586455 0.2397279 0.97082406
vn 0.005586455 0.2397279 0.97082406
vn 0.005586455 0.2397279 0.97082406
vn -0.061065108 0.22567551 0.9722868
vn -0.061065108 0.22567551 0.9722868
vn -0.061065108 0.22567551 0.9722868
vn -0.061065108 0.22567551 0.9722868
vn -0.27071595 0.18744269 0.94423413
vn -0.27071595 0.18744269 0.94423413
vn -0.27071595 0.18744269 0.94423413
vn -0.27071595 0.18744269 0.94423413
vn 0.81728536 -0.022384387 -0.5757983
vn 0.81728536 -0.022384387 -0.5757983
vn 0.81728536 -0.022384387 -0.5757983
vn 0.81728536 -0.022384387 -0.5757983
vn 0.860023 0.22628734 0.45733407
vn 0.860023 0.22628734 0.45733407
vn 0.860023 0.22628734 0.45733407
vn 0.860023 0.22628734 0.45733407
vn -0.81062573 0.13176803 0.5705463
vn -0.81062573 0.13176803 0.5705463
vn -0.81062573 0.13176803 0.5705463
vn -0.81062573 0.13176803 0.5705463
vn -0.89432687 -0.1692848 -0.41415218
vn -0.89432687 -0.1692848 -0.41415218
vn -0.89432687 -0.1692848 -0.41415218
vn -0.89432687 -0.1692848 -0.41415218
vn -0.20135954 0.068542816 -0.97711617
vn -0.20135954 0.068542816 -0.97711617
vn -0.20135954 0.068542816 -0.97711617
vn -0.20135954 0.068542816 -0.97711617
vn -0.18382499 0.07506712 -0.9800884
vn -0.18382499 0.07506712 -0.9800884
vn -0.16071834 0.0890996 -0.9829705
vn -0.16071834 0.0890996 -0.9829705
vn -0.16071834 0.0890996 -0.9829705
vn -0.40347958 0.036651988 -0.9142543
vn -0.40347958 0.036651988 -0.9142543
vn -0.40347958 0.036651988 -0.9142543
vn -0.40347958 0.036651988 -0.9142543
vn -0.36726055 0.031960405 -0.9295689
vn -0.36726055 0.031960405 -0.9295689
vn -0.107626654 -0.2263511 -0.9680815
vn -0.107626654 -0.2263511 -0.9680815
vn -0.107626654 -0.2263511 -0.9680815
vn -0.107626654 -0.2263511 -0.9680815
vn -0.23380587 -0.23384078 -0.9437443
vn -0.23380587 -0.23384078 -0.9437443
vn -0.23380587 -0.23384078 -0.9437443
vn -0.23380587 -0.23384078 -0.9437443
vn 0.08554817 0.23187174 0.9689773
vn 0.08554817 0.23187174 0.9689773
vn 0.08554817 0.23187174 0.9689773
vn 0.08554817 0.23187174 0.9689773
vn -0.034804475 -0.22277907 -0.9742475
vn -0.034804475 -0.22277907 -0.9742475
vn -0.034804475 -0.22277907 -0.9742475
vn -0.034804475 -0.22277907 -0.9742475
vn 0.2861284 0.20859936 0.9352096
vn 0.2861284 0.20859936 0.9352096
vn 0.2861284 0.20859936 0.9352096
vn 0.2861284 0.20859936 0.9352096
vn -0.006979653 0.4493527 0.8933271
vn -0.006979653 0.4493527 0.8933271
vn -0.006979653 0.4493527 0.8933271
vn -0.006979653 0.4493527 0.8933271
vn 0.07326762 0.4438742 0.8930888
vn 0.07326762 0.4438742 0.8930888
vn 0.07326762 0.4438742 0.8930888
vn 0.07326762 0.4438742 0.8930888
vn -0.013567072 0.41877195 0.9079901
vn -0.013567072 0.41877195 0.9079901
vn -0.013567072 0.41877195 0.9079901
vn -0.013567072 0.41877195 0.9079901
vn -0.015671283 0.42294994 0.90601754
vn -0.015671283 0.42294994 0.90601754
vn 0.05026285 0.40490437 0.9129765
vn 0.05026285 0.40490437 0.9129765
vn 0.05026285 0.40490437 0.9129765
vn 0.05026285 0.40490437 0.9129765
vn -0.01563087 0.45165643 0.89205503
vn -0.01563087 0.45165643 0.89205503
vn -0.01563087 0.45165643 0.89205503
vn -0.01563087 0.45165643 0.89205503
vn -0.45248142 -0.23914398 -0.85911036
vn -0.45248142 -0.23914398 -0.85911036
vn -0.45248142 -0.23914398 -0.85911036
vn -0.45248142 -0.23914398 -0.85911036
vn 0.34498566 0.54682106 0.76287067
vn 0.34498566 0.54682106 0.76287067
vn 0.34498566 0.54682106 0.76287067
vn 0.34498566 0.54682106 0.76287067
vn 0.12642749 -0.2240517 0.966342
vn 0.12642749 -0.2240517 0.966342
vn 0.12642749 -0.2240517 0.966342
vn 0.12642749 -0.2240517 0.966342
vn 0.34677044 -0.29861674 0.88914466
vn 0.34677044 -0.29861674 0.88914466
vn 0.34677044 -0.29861674 0.88914466
vn 0.34677044 -0.29861674 0.88914466
vn 0.06098538 0.78049135 0.6221848
vn 0.06098538 0.78049135 0.6221848
vn 0.06098538 0.78049135 0.6221848
vn 0.06098538 0.78049135 0.6221848
vn -0.14797625 -0.84223294 -0.5184078
vn -0.14797625 -0.84223294 -0.5184078
vn -0.14797625 -0.84223294 -0.5184078
vn -0.14797625 -0.84223294 -0.5184078
vn -0.010917288 -0.23031761 0.97305423
vn -0.010917288 -0.23031761 0.97305423
vn -0.010917288 -0.23031761 0.97305423
vn -0.010917288 -0.23031761 0.97305423
vn -0.041703757 -0.26723516 0.96272844
vn -0.041703757 -0.26723516 0.96272844
vn -0.041703757 -0.26723516 0.96272844
vn -0.041703757 -0.26723516 0.96272844
vn -0.34818625 -0.7787099 -0.52189773
vn -0.34818625 -0.7787099 -0.52189773
vn -0.34818625 -0.7787099 -0.52189773
vn -0.34818625 -0.7787099 -0.52189773
vn -0.043497402 -0.8744397 -0.48318022
vn -0.043497402 -0.8744397 -0.48318022
vn -0.043497402 -0.8744397 -0.48318022
vn -0.043497402 -0.8744397 -0.48318022
vn -0.07053911 -0.98228925 -0.17358613
vn -0.07053911 -0.98228925 -0.17358613
vn -0.07053911 -0.98228925 -0.17358613
vn -0.07053911 -0.98228925 -0.17358613
vn -0.19022632 -0.96670926 -0.1711352
vn -0.19022632 -0.96670926 -0.1711352
vn -0.19022632 -0.96670926 -0.1711352
vn -0.19022632 -0.96670926 -0.1711352
vn -0.08722913 -0.7072942 -0.70151687
vn -0.08722913 -0.7072942 -0.70151687
vn -0.08722913 -0.7072942 -0.70151687
vn -0.08722913 -0.7072942 -0.70151687
vn -0.21289638 -0.66322565 -0.7175004
vn -0.21289638 -0.66322565 -0.7175004
vn -0.21289638 -0.66322565 -0.7175004
vn -0.21289638 -0.66322565 -0.7175004
vn -0.014361254 -0.72784895 -0.6855871
vn -0.014361254 -0.72784895 -0.6855871
vn -0.014361254 -0.72784895 -0.6855871
vn -0.014361254 -0.72784895 -0.6855871
vn 0.25408772 0.73566085 0.6278874
vn 0.25408772 0.73566085 0.6278874
vn 0.25408772 0.73566085 0.6278874
vn 0.25408772 0.73566085 0.6278874
vn -0.45326513 -0.51796484 -0.7254399
vn -0.45326513 -0.51796484 -0.7254399
vn -0.45326513 -0.51796484 -0.7254399
vn -0.45326513 -0.51796484 -0.7254399
vn -0.10615283 -0.57833 -0.8088671
vn -0.10615283 -0.57833 -0.8088671
vn -0.10615283 -0.57833 -0.8088671
vn -0.10615283 -0.57833 -0.8088671
vn -0.025715051 -0.584386 -0.81106824
vn -0.025715051 -0.584386 -0.81106824
vn -0.025715051 -0.584386 -0.81106824
vn -0.025715051 -0.584386 -0.81106824
vn 0.04614632 0.71044886 0.70223427
vn 0.04614632 0.71044886 0.70223427
vn 0.04614632 0.71044886 0.70223427
vn 0.04614632 0.71044886 0.70223427
vn 0.23892081 0.68124384 0.69197077
vn 0.23892081 0.68124384 0.69197077
vn 0.23892081 0.68124384 0.69197077
vn 0.23892081 0.68124384 0.69197077
vn -0.02286735 0.71990544 0.6936953
vn -0.02286735 0.71990544 0.6936953
vn -0.02286735 0.71990544 0.6936953
vn -0.02286735 0.71990544 0.6936953
vn -0.023975782 0.7263163 0.68694234
vn -0.023975782 0.7263163 0.68694234
vn 0.1711099 0.64216155 -0.74722815
vn 0.1711099 0.64216155 -0.74722815
vn 0.1711099 0.64216155 -0.74722815
vn 0.1711099 0.64216155 -0.74722815
vn 0.10499504 0.9813339 0.16112065
vn 0.10499504 0.9813339 0.16112065
vn 0.10499504 0.9813339 0.16112065
vn 0.10499504 0.9813339 0.16112065
vn 0.006685424 -0.9165444 0.39987722
vn 0.006685424 -0.9165444 0.39987722
vn 0.006685424 -0.9165444 0.39987722
vn 0.006685424 -0.9165444 0.39987722
vn -0.0030326562 -0.9216238 0.38807267
vn -0.0030326562 -0.9216238 0.38807267
vn -0.12385021 -0.9878122 0.09427778
vn -0.12385021 -0.9878122 0.09427778
vn -0.12385021 -0.9878122 0.09427778
vn -0.12385021 -0.9878122 0.09427778
vn -0.03623895 -0.90564036 0.42249516
vn -0.03623895 -0.90564036 0.42249516
vn -0.03623895 -0.90564036 0.42249516
vn -0.03623895 -0.90564036 0.42249516
vn -0.16260144 -0.8743553 0.45723468
vn -0.16260144 -0.8743553 0.45723468
vn -0.16260144 -0.8743553 0.45723468
vn -0.16260144 -0.8743553 0.45723468
vn 0.13221493 0.6085018 0.7824608
vn 0.13221493 0.6085018 0.7824608
vn 0.13221493 0.6085018 0.7824608
vn 0.13221493 0.6085018 0.7824608
vn -0.020100573 0.79805285 0.6022522
vn -0.020100573 0.79805285 0.6022522
vn -0.020100573 0.79805285 0.6022522
vn -0.020100573 0.79805285 0.6022522
vn -0.054440238 0.7957711 0.60314554
vn -0.054440238 0.7957711 0.60314554
vn -0.038579192 0.79778934 0.6017007
vn -0.038579192 0.79778934 0.6017007
vn 0.072350755 0.809762 0.5822807
vn 0.072350755 0.809762 0.5822807
vn 0.072350755 0.809762 0.5822807
vn 0.072350755 0.809762 0.5822807
vn -0.31062973 0.06892703 -0.9480287
vn -0.31062973 0.06892703 -0.9480287
vn -0.31062973 0.06892703 -0.9480287
vn -0.31062973 0.06892703 -0.9480287
vn -0.13761371 0.259584 -0.9558653
vn -0.13761371 0.259584 -0.9558653
vn -0.13761371 0.259584 -0.9558653
vn -0.13761371 0.259584 -0.9558653
vn -0.25156412 0.27160037 -0.9289504
vn -0.25156412 0.27160037 -0.9289504
vn -0.25156412 0.27160037 -0.9289504
vn -0.25156412 0.27160037 -0.9289504
vn 0.03347495 0.45438877 0.89017427
vn 0.03347495 0.45438877 0.89017427
vn 0.03347495 0.45438877 0.89017427
vn 0.03347495 0.45438877 0.89017427
vn -0.69886166 0.47441137 0.53528136
vn -0.69886166 0.47441137 0.53528136
vn -0.69886166 0.47441137 0.53528136
vn -0.69886166 0.47441137 0.53528136
vn -0.52206886 0.43659323 -0.7326871
vn -0.52206886 0.43659323 -0.7326871
vn -0.52206886 0.43659323 -0.7326871
vn -0.52206886 0.43659323 -0.7326871
g Pillow1.001_0
f 3/3/3 2/2/2 1/1/1
f 4/4/4 3/3/3 1/1/1
f 7/7/7 6/6/6 5/5/5
f 8/8/8 7/7/7 5/5/5
f 11/11/11 10/10/10 9/9/9
f 12/12/12 11/11/11 9/9/9
f 15/15/15 14/14/14 13/13/13
f 16/16/16 15/15/15 13/13/13
f 16/16/16 13/13/13 17/17/17
f 18/18/18 16/16/16 17/17/17
f 20/20/20 19/19/19 14/14/14
f 21/21/21 20/20/20 14/14/14
f 24/24/24 23/23/23 22/22/22
f 25/25/25 24/24/24 22/22/22
f 28/28/28 27/27/27 26/26/26
f 29/29/29 28/28/28 26/26/26
f 29/29/29 26/26/26 30/30/30
f 26/26/26 31/31/31 30/30/30
f 26/26/26 27/27/27 32/32/32
f 33/33/33 26/26/26 32/32/32
f 31/31/31 26/26/26 34/34/34
f 35/35/35 31/31/31 34/34/34
f 33/33/33 32/32/32 36/36/36
f 32/32/32 37/37/37 36/36/36
f 34/34/34 38/38/38 35/35/35
f 38/38/38 39/39/39 35/35/35
f 39/39/39 40/40/40 35/35/35
f 40/40/40 41/41/41 35/35/35
f 35/35/35 41/41/41 42/42/42
f 31/31/31 35/35/35 42/42/42
f 31/31/31 42/42/42 30/30/30
f 42/42/42 43/43/43 30/30/30
f 42/42/42 44/44/44 43/43/43
f 44/44/44 45/45/45 43/43/43
f 47/47/47 46/46/46 44/44/44
f 48/48/48 46/46/46 47/47/47
f 49/49/49 48/48/48 47/47/47
f 50/50/50 47/47/47 44/44/44
f 53/53/53 52/52/52 51/51/51
f 54/54/54 53/53/53 51/51/51
f 57/57/57 56/56/56 55/55/55
f 58/58/58 57/57/57 55/55/55
f 61/61/61 60/60/60 59/59/59
f 62/62/62 61/61/61 59/59/59
f 61/61/61 64/64/64 63/63/63
f 64/64/64 65/65/65 63/63/63
f 66/66/66 63/63/63 65/65/65
f 67/67/67 66/66/66 65/65/65
f 70/70/70 69/69/69 68/68/68
f 71/71/71 70/70/70 68/68/68
f 72/72/72 70/70/70 71/71/71
f 73/73/73 72/72/72 71/71/71
f 72/72/72 73/73/73 74/74/74
f 75/75/75 72/72/72 74/74/74
f 75/75/75 74/74/74 76/76/76
f 77/77/77 75/75/75 76/76/76
f 80/80/80 79/79/79 78/78/78
f 81/81/81 80/80/80 78/78/78
f 84/84/84 83/83/83 82/82/82
f 85/85/85 84/84/84 82/82/82
f 88/88/88 87/87/87 86/86/86
f 89/89/89 88/88/88 86/86/86
f 92/92/92 91/91/91 90/90/90
f 93/93/93 92/92/92 90/90/90
f 96/96/96 95/95/95 94/94/94
f 97/97/97 96/96/96 94/94/94
f 98/98/98 94/94/94 95/95/95
f 99/99/99 98/98/98 95/95/95
f 102/102/102 101/101/101 100/100/100
f 103/103/103 102/102/102 100/100/100
f 106/106/106 105/105/105 104/104/104
f 107/107/107 106/106/106 104/104/104
f 110/110/110 109/109/109 108/108/108
f 111/111/111 110/110/110 108/108/108
f 114/114/114 113/113/113 112/112/112
f 115/115/115 114/114/114 112/112/112
f 115/115/115 112/112/112 116/116/116
f 112/112/112 117/117/117 116/116/116
f 116/116/116 117/117/117 118/118/118
f 119/119/119 116/116/116 118/118/118
f 119/119/119 118/118/118 120/120/120
f 121/121/121 119/119/119 120/120/120
f 123/123/123 120/120/120 122/122/122
f 124/124/124 123/123/123 122/122/122
f 127/127/127 126/126/126 125/125/125
f 128/128/128 127/127/127 125/125/125
f 128/128/128 125/125/125 129/129/129
f 125/125/125 130/130/130 129/129/129
f 126/126/126 132/132/132 131/131/131
f 133/133/133 126/126/126 131/131/131
f 136/136/136 135/135/135 134/134/134
f 137/137/137 136/136/136 134/134/134
f 140/140/140 139/139/139 138/138/138
f 141/141/141 140/140/140 138/138/138
f 144/144/144 143/143/143 142/142/142
f 145/145/145 144/144/144 142/142/142
f 146/146/146 144/144/144 145/145/145
f 147/147/147 146/146/146 145/145/145
f 150/150/150 149/149/149 148/148/148
f 151/151/151 150/150/150 148/148/148
f 152/152/152 150/150/150 151/151/151
f 153/153/153 152/152/152 151/151/151
f 149/149/149 154/154/154 148/148/148
f 154/154/154 155/155/155 148/148/148
f 158/158/158 157/157/157 156/156/156
f 159/159/159 158/158/158 156/156/156
f 162/162/162 161/161/161 160/160/160
f 163/163/163 162/162/162 160/160/160
f 161/161/161 162/162/162 164/164/164
f 165/165/165 161/161/161 164/164/164
f 165/165/165 164/164/164 166/166/166
f 167/167/167 165/165/165 166/166/166
f 170/170/170 169/169/169 168/168/168
f 171/171/171 170/170/170 168/168/168
f 174/174/174 173/173/173 172/172/172
f 175/175/175 174/174/174 172/172/172
f 178/178/178 177/177/177 176/176/176
f 179/179/179 178/178/178 176/176/176
f 182/182/182 181/181/181 180/180/180
f 183/183/183 182/182/182 180/180/180
f 186/186/186 185/185/185 184/184/184
f 187/187/187 186/186/186 184/184/184
f 187/187/187 184/184/184 188/188/188
f 184/184/184 189/189/189 188/188/188
f 188/188/188 189/189/189 190/190/190
f 191/191/191 188/188/188 190/190/190
f 191/191/191 190/190/190 192/192/192
f 193/193/193 191/191/191 192/192/192
f 196/196/196 195/195/195 194/194/194
f 197/197/197 196/196/196 194/194/194
f 200/200/200 199/199/199 198/198/198
f 201/201/201 200/200/200 198/198/198
f 200/200/200 202/202/202 199/199/199
f 202/202/202 203/203/203 199/199/199
f 206/206/206 205/205/205 204/204/204
f 207/207/207 206/206/206 204/204/204
f 209/209/209 208/208/208 205/205/205
f 210/210/210 209/209/209 205/205/205
f 209/209/209 211/211/211 208/208/208
f 211/211/211 212/212/212 208/208/208
f 215/215/215 214/214/214 213/213/213
f 216/216/216 215/215/215 213/213/213
f 219/219/219 218/218/218 217/217/217
f 220/220/220 219/219/219 217/217/217
f 223/223/223 222/222/222 221/221/221
f 224/224/224 223/223/223 221/221/221
f 227/227/227 226/226/226 225/225/225
f 228/228/228 227/227/227 225/225/225
f 231/231/231 230/230/230 229/229/229
f 232/232/232 231/231/231 229/229/229
f 232/232/232 233/233/233 231/231/231
f 233/233/233 234/234/234 231/231/231
f 237/237/237 236/236/236 235/235/235
f 238/238/238 237/237/237 235/235/235
f 238/238/238 239/239/239 237/237/237
f 239/239/239 240/240/240 237/237/237
f 243/243/243 242/242/242 241/241/241
f 244/244/244 243/243/243 241/241/241
f 247/247/247 246/246/246 245/245/245
f 248/248/248 247/247/247 245/245/245
f 251/251/251 250/250/250 249/249/249
f 252/252/252 251/251/251 249/249/249
f 253/253/253 251/251/251 252/252/252
f 254/254/254 253/253/253 252/252/252
f 253/253/253 254/254/254 255/255/255
f 254/254/254 256/256/256 255/255/255
f 255/255/255 256/256/256 257/257/257
f 256/256/256 258/258/258 257/257/257
f 261/261/261 260/260/260 259/259/259
f 262/262/262 261/261/261 259/259/259
f 265/265/265 264/264/264 263/263/263
f 266/266/266 265/265/265 263/263/263
f 269/269/269 268/268/268 267/267/267
f 270/270/270 269/269/269 267/267/267
f 273/273/273 272/272/272 271/271/271
f 274/274/274 273/273/273 271/271/271
f 277/277/277 276/276/276 275/275/275
f 280/280/280 279/279/279 278/278/278
f 283/283/283 282/282/282 281/281/281
f 284/284/284 283/283/283 281/281/281
f 287/287/287 286/286/286 285/285/285
f 288/288/288 287/287/287 285/285/285
f 291/291/291 290/290/290 289/289/289
f 292/292/292 291/291/291 289/289/289
f 295/295/295 294/294/294 293/293/293
f 296/296/296 295/295/295 293/293/293
f 299/299/299 298/298/298 297/297/297
f 300/300/300 299/299/299 297/297/297
f 303/303/303 302/302/302 301/301/301
f 304/304/304 303/303/303 301/301/301
f 307/307/307 306/306/306 305/305/305
f 308/308/308 307/307/307 305/305/305
f 311/311/311 310/310/310 309/309/309
f 312/312/312 311/311/311 309/309/309
f 315/315/315 314/314/314 313/313/313
f 316/316/316 315/315/315 313/313/313
f 319/319/319 318/318/318 317/317/317
f 320/320/320 319/319/319 317/317/317
f 323/323/323 322/322/322 321/321/321
f 324/324/324 323/323/323 321/321/321
f 327/327/327 326/326/326 325/325/325
f 328/328/328 327/327/327 325/325/325
f 331/331/331 330/330/330 329/329/329
f 332/332/332 331/331/331 329/329/329
f 335/335/335 334/334/334 333/333/333
f 336/336/336 335/335/335 333/333/333
f 339/339/339 338/338/338 337/337/337
f 340/340/340 339/339/339 337/337/337
f 343/343/343 342/342/342 341/341/341
f 344/344/344 343/343/343 341/341/341
f 347/347/347 346/346/346 345/345/345
f 348/348/348 347/347/347 345/345/345
f 351/351/351 350/350/350 349/349/349
f 352/352/352 351/351/351 349/349/349
f 355/355/355 354/354/354 353/353/353
f 356/356/356 355/355/355 353/353/353
f 359/359/359 358/358/358 357/357/357
f 360/360/360 359/359/359 357/357/357
f 363/363/363 362/362/362 361/361/361
f 364/364/364 363/363/363 361/361/361
f 367/367/367 366/366/366 365/365/365
f 370/370/370 369/369/369 368/368/368
f 373/373/373 372/372/372 371/371/371
f 374/374/374 373/373/373 371/371/371
f 377/377/377 376/376/376 375/375/375
f 378/378/378 377/377/377 375/375/375
f 381/381/381 380/380/380 379/379/379
f 382/382/382 381/381/381 379/379/379
f 385/385/385 384/384/384 383/383/383
f 386/386/386 385/385/385 383/383/383
f 389/389/389 388/388/388 387/387/387
f 390/390/390 389/389/389 387/387/387
f 393/393/393 392/392/392 391/391/391
f 394/394/394 393/393/393 391/391/391
f 397/397/397 396/396/396 395/395/395
f 398/398/398 397/397/397 395/395/395
f 401/401/401 400/400/400 399/399/399
f 402/402/402 401/401/401 399/399/399
f 405/405/405 404/404/404 403/403/403
f 406/406/406 405/405/405 403/403/403
f 409/409/409 408/408/408 407/407/407
f 410/410/410 409/409/409 407/407/407
f 408/408/408 411/411/411 407/407/407
f 411/411/411 412/412/412 407/407/407
f 415/415/415 414/414/414 413/413/413
f 416/416/416 415/415/415 413/413/413
f 419/419/419 418/418/418 417/417/417
f 420/420/420 419/419/419 417/417/417
f 419/419/419 421/421/421 418/418/418
f 421/421/421 422/422/422 418/418/418
f 422/422/422 421/421/421 423/423/423
f 421/421/421 424/424/424 423/423/423
f 423/423/423 424/424/424 425/425/425
f 424/424/424 426/426/426 425/425/425
f 429/429/429 428/428/428 427/427/427
f 430/430/430 429/429/429 427/427/427
f 433/433/433 432/432/432 431/431/431
f 434/434/434 433/433/433 431/431/431
f 437/437/437 436/436/436 435/435/435
f 438/438/438 437/437/437 435/435/435
f 441/441/441 440/440/440 439/439/439
f 442/442/442 441/441/441 439/439/439
f 445/445/445 444/444/444 443/443/443
f 446/446/446 445/445/445 443/443/443
f 449/449/449 448/448/448 447/447/447
f 452/452/452 451/451/451 450/450/450
f 455/455/455 454/454/454 453/453/453
f 456/456/456 455/455/455 453/453/453
f 456/456/456 453/453/453 457/457/457
f 453/453/453 458/458/458 457/457/457
f 458/458/458 459/459/459 457/457/457
f 459/459/459 460/460/460 457/457/457
f 459/459/459 461/461/461 460/460/460
f 461/461/461 462/462/462 460/460/460
f 465/465/465 464/464/464 463/463/463
f 466/466/466 465/465/465 463/463/463
f 469/469/469 468/468/468 467/467/467
f 470/470/470 469/469/469 467/467/467
f 473/473/473 472/472/472 471/471/471
f 474/474/474 473/473/473 471/471/471
f 473/473/473 475/475/475 472/472/472
f 475/475/475 476/476/476 472/472/472
f 479/479/479 478/478/478 477/477/477
f 480/480/480 479/479/479 477/477/477
f 483/483/483 482/482/482 481/481/481
f 484/484/484 483/483/483 481/481/481
f 487/487/487 486/486/486 485/485/485
f 488/488/488 487/487/487 485/485/485
f 491/491/491 490/490/490 489/489/489
f 492/492/492 491/491/491 489/489/489
f 495/495/495 494/494/494 493/493/493
f 496/496/496 495/495/495 493/493/493
f 496/496/496 497/497/497 495/495/495
f 497/497/497 498/498/498 495/495/495
f 494/494/494 499/499/499 493/493/493
f 499/499/499 500/500/500 493/493/493
f 499/499/499 501/501/501 500/500/500
f 501/501/501 502/502/502 500/500/500
f 505/505/505 504/504/504 503/503/503
f 506/506/506 505/505/505 503/503/503
f 509/509/509 508/508/508 507/507/507
f 510/510/510 509/509/509 507/507/507
f 513/513/513 512/512/512 511/511/511
f 514/514/514 513/513/513 511/511/511
f 517/517/517 516/516/516 515/515/515
f 518/518/518 517/517/517 515/515/515
f 521/521/521 520/520/520 519/519/519
f 522/522/522 521/521/521 519/519/519
f 525/525/525 524/524/524 523/523/523
f 526/526/526 525/525/525 523/523/523
f 529/529/529 528/528/528 527/527/527
f 530/530/530 529/529/529 527/527/527
f 529/529/529 530/530/530 531/531/531
f 530/530/530 532/532/532 531/531/531
f 534/534/534 531/531/531 533/533/533
f 535/535/535 534/534/534 533/533/533
f 538/538/538 537/537/537 536/536/536
f 539/539/539 538/538/538 536/536/536
f 539/539/539 536/536/536 540/540/540
f 536/536/536 541/541/541 540/540/540
f 544/544/544 543/543/543 542/542/542
f 545/545/545 544/544/544 542/542/542
f 548/548/548 547/547/547 546/546/546
f 549/549/549 548/548/548 546/546/546
f 552/552/552 551/551/551 550/550/550
f 553/553/553 552/552/552 550/550/550
f 556/556/556 555/555/555 554/554/554
f 557/557/557 556/556/556 554/554/554
f 560/560/560 559/559/559 558/558/558
f 561/561/561 560/560/560 558/558/558
f 564/564/564 563/563/563 562/562/562
f 565/565/565 564/564/564 562/562/562
f 568/568/568 567/567/567 566/566/566
f 569/569/569 568/568/568 566/566/566
f 572/572/572 571/571/571 570/570/570
f 573/573/573 572/572/572 570/570/570
f 574/574/574 572/572/572 573/573/573
f 575/575/575 574/574/574 573/573/573
f 578/578/578 577/577/577 576/576/576
f 579/579/579 578/578/578 576/576/576
f 582/582/582 581/581/581 580/580/580
f 583/583/583 582/582/582 580/580/580
f 586/586/586 585/585/585 584/584/584
f 587/587/587 586/586/586 584/584/584
f 590/590/590 589/589/589 588/588/588
f 591/591/591 590/590/590 588/588/588
f 594/594/594 593/593/593 592/592/592
f 595/595/595 594/594/594 592/592/592
f 598/598/598 597/597/597 596/596/596
f 599/599/599 598/598/598 596/596/596
f 602/602/602 601/601/601 600/600/600
f 603/603/603 602/602/602 600/600/600
f 606/606/606 605/605/605 604/604/604
f 607/607/607 606/606/606 604/604/604
f 610/610/610 609/609/609 608/608/608
f 611/611/611 610/610/610 608/608/608
f 614/614/614 613/613/613 612/612/612
f 615/615/615 614/614/614 612/612/612
f 618/618/618 617/617/617 616/616/616
f 619/619/619 618/618/618 616/616/616
f 622/622/622 621/621/621 620/620/620
f 623/623/623 622/622/622 620/620/620
f 626/626/626 625/625/625 624/624/624
f 627/627/627 626/626/626 624/624/624
f 630/630/630 629/629/629 628/628/628
f 631/631/631 630/630/630 628/628/628
f 634/634/634 633/633/633 632/632/632
f 635/635/635 634/634/634 632/632/632
f 638/638/638 637/637/637 636/636/636
f 639/639/639 638/638/638 636/636/636
f 642/642/642 641/641/641 640/640/640
f 643/643/643 642/642/642 640/640/640
f 646/646/646 645/645/645 644/644/644
f 647/647/647 646/646/646 644/644/644
f 650/650/650 649/649/649 648/648/648
f 651/651/651 650/650/650 648/648/648
f 654/654/654 653/653/653 652/652/652
f 655/655/655 654/654/654 652/652/652
f 658/658/658 657/657/657 656/656/656
f 659/659/659 658/658/658 656/656/656
f 662/662/662 661/661/661 660/660/660
f 663/663/663 662/662/662 660/660/660
f 666/666/666 665/665/665 664/664/664
f 667/667/667 666/666/666 664/664/664
f 670/670/670 669/669/669 668/668/668
f 671/671/671 670/670/670 668/668/668
f 671/671/671 668/668/668 672/672/672
f 673/673/673 671/671/671 672/672/672
f 676/676/676 675/675/675 674/674/674
f 677/677/677 676/676/676 674/674/674
f 680/680/680 679/679/679 678/678/678
f 681/681/681 680/680/680 678/678/678
f 684/684/684 683/683/683 682/682/682
f 685/685/685 684/684/684 682/682/682
f 685/685/685 682/682/682 686/686/686
f 687/687/687 685/685/685 686/686/686
f 690/690/690 689/689/689 688/688/688
f 691/691/691 690/690/690 688/688/688
f 694/694/694 693/693/693 692/692/692
f 695/695/695 694/694/694 692/692/692
f 698/698/698 697/697/697 696/696/696
f 699/699/699 698/698/698 696/696/696
f 702/702/702 701/701/701 700/700/700
f 703/703/703 702/702/702 700/700/700
f 706/706/706 705/705/705 704/704/704
f 707/707/707 706/706/706 704/704/704
f 705/705/705 708/708/708 704/704/704
f 708/708/708 709/709/709 704/704/704
f 708/708/708 710/710/710 709/709/709
f 710/710/710 711/711/711 709/709/709
f 714/714/714 713/713/713 712/712/712
f 715/715/715 714/714/714 712/712/712
f 718/718/718 717/717/717 716/716/716
f 719/719/719 718/718/718 716/716/716
f 722/722/722 721/721/721 720/720/720
f 723/723/723 722/722/722 720/720/720
f 726/726/726 725/725/725 724/724/724
f 727/727/727 726/726/726 724/724/724
f 730/730/730 729/729/729 728/728/728
f 731/731/731 730/730/730 728/728/728
f 734/734/734 733/733/733 732/732/732
f 735/735/735 734/734/734 732/732/732
f 738/738/738 737/737/737 736/736/736
f 739/739/739 738/738/738 736/736/736
