# Blender 4.0.2
# www.blender.org
mtllib TV.TUBO(1).mtl
o Cube
v 0.394895 3.876311 -1.184639
v 0.394895 2.346851 -1.184639
v 0.394895 3.876311 1.446825
v 0.394895 2.346851 1.446825
v -0.380341 4.359596 -1.622374
v -0.392576 2.346851 -1.624535
v -0.380341 4.359596 1.446825
v -0.392576 2.346851 1.446825
v -0.228872 2.346851 -1.184639
v -0.228872 4.214065 1.446825
v -0.228872 2.346851 1.446825
v -0.228872 4.214065 -1.184639
v -0.126352 2.346851 1.446825
v -0.126352 4.193250 -1.184639
v -0.126352 2.346851 -1.184639
v -0.126352 4.193250 1.446825
v 0.134272 2.346851 1.446825
v 0.134272 4.087264 -1.184639
v 0.134272 2.346851 -1.184639
v 0.134272 4.087264 1.446825
v 0.003960 2.346851 -1.184639
v 0.003960 4.147455 1.446825
v 0.003960 2.346851 1.446825
v 0.003960 4.147455 -1.184639
v 0.264584 2.346851 1.446825
v 0.264583 4.007386 -1.184639
v 0.264583 2.346851 -1.184639
v 0.264584 4.007386 1.446825
v -0.277310 4.128922 -1.291839
v -0.277310 4.128922 1.140359
v -0.277310 2.565448 -1.291839
v -0.277310 2.565448 1.140359
v -0.382828 2.339849 1.453064
v -0.382828 4.354521 1.453064
v -0.382828 2.339849 -1.622826
v -0.382828 4.354521 -1.615844
v -0.922308 2.339849 1.453064
v -0.932843 2.936364 1.140359
v -0.922308 4.354521 1.453064
v -0.924696 4.202739 1.140359
v -0.932843 2.936364 -1.291839
v -0.922309 2.339849 -1.607302
v -0.922307 4.354521 -1.606249
v -0.924696 4.202739 -1.291839
v -0.453661 2.941159 -1.251297
v -0.904671 2.941159 -1.251297
v -0.453661 4.171597 -1.251297
v -0.904671 4.171597 -1.251297
v -0.453661 2.941159 1.471637
v -0.904671 2.941159 1.107827
v -0.453661 4.171597 1.107827
v -0.904671 4.171597 1.107827
v -0.930336 2.520232 0.057069
v -0.931378 2.737970 0.058666
v -0.936885 2.518569 0.167663
v -0.937927 2.736308 0.169259
v -0.835890 2.495142 0.089054
v -0.847695 2.713556 0.089054
v -0.854900 2.495255 0.227308
v -0.866705 2.713669 0.227308
v -0.967704 2.520232 0.315471
v -0.969002 2.737970 0.316710
v -0.972659 2.518569 0.421092
v -0.973957 2.736308 0.422331
v -0.979318 2.527782 0.561586
v -0.980615 2.745521 0.562826
v -0.984272 2.526120 0.667207
v -0.985570 2.743859 0.668447
v -0.965248 2.747353 0.749855
v -0.966546 2.832028 0.751570
v -0.970203 2.746706 0.895931
v -0.971501 2.831381 0.897645
v -0.986126 2.523853 0.938401
v -0.987423 2.721426 0.941448
v -0.991080 2.522345 1.198027
v -0.992378 2.719918 1.201075
v -0.993687 2.588452 0.997139
v -0.994985 2.673127 0.998853
v -0.998642 2.587805 1.143215
v -0.999940 2.672481 1.144929
v -0.453661 4.061106 -1.251297
v -0.921336 4.061106 -1.251297
v -0.453661 4.061106 1.140496
v -0.921336 4.061106 1.107827
v -0.453661 3.939240 -1.251297
v -0.943962 3.939240 1.107827
v -0.943962 3.939240 -1.251297
v -0.453661 3.939240 1.176529
v -0.453661 3.813193 -1.251297
v -0.946998 3.813193 1.107827
v -0.946998 3.813193 -1.251297
v -0.453661 3.813193 1.213798
v -0.453661 3.683567 -1.251297
v -0.949644 3.683567 1.107827
v -0.949644 3.683567 -1.251297
v -0.453661 3.683567 1.252126
v -0.453661 3.531403 -1.251297
v -0.949306 3.531403 1.107827
v -0.949306 3.531403 -1.251297
v -0.453661 3.531403 1.297116
v -0.453661 3.236281 -1.251297
v -0.948557 3.236281 1.107827
v -0.948557 3.236281 -1.251297
v -0.453661 3.236281 1.384377
v -0.947780 3.380956 -1.251297
v -0.453661 3.380956 1.341600
v -0.453661 3.380956 -1.251297
v -0.947780 3.380956 1.107827
v -0.453661 3.088720 -1.251297
v -0.948540 3.088720 1.107827
v -0.948540 3.088720 -1.251297
v -0.453661 3.088720 1.428007
v -0.855990 0.599524 -1.470962
v -0.771774 2.249655 -1.207081
v -0.857833 0.622813 -1.551199
v -0.775263 2.272943 -1.321158
v -0.920377 0.603227 -1.468445
v -0.893629 2.253358 -1.203502
v -0.922221 0.626516 -1.548682
v -0.897118 2.276646 -1.317578
v -0.949493 2.276431 1.478358
v -0.949493 4.393516 1.478358
v -0.898628 2.276431 -1.641384
v -0.898628 4.393516 -1.641384
v 0.463567 2.276431 1.509974
v 0.463567 4.393516 1.509974
v 0.514433 2.276431 -1.609768
v 0.514433 4.393516 -1.609768
v 0.447049 2.276431 -1.611276
v 0.396184 2.276431 1.508467
v 0.396184 4.393516 1.508467
v 0.447049 4.393516 -1.611276
v -0.844032 0.732725 -1.438653
v -0.846296 0.756014 -1.544352
v -0.925354 0.759717 -1.541035
v -0.923091 0.736428 -1.435336
v -0.814808 0.950479 -1.401936
v -0.818297 0.973768 -1.516013
v -0.940152 0.977471 -1.512433
v -0.936664 0.954182 -1.398356
v -0.809326 1.115990 -1.377112
v -0.812815 1.139279 -1.491189
v -0.934670 1.142982 -1.487609
v -0.931181 1.119693 -1.373532
v -0.865886 0.613779 1.487040
v -0.790128 2.263882 1.223221
v -0.867544 0.610921 1.403610
v -0.793266 2.250486 1.107665
v -0.923808 0.618081 1.488276
v -0.899746 2.268515 1.225465
v -0.925466 0.615223 1.404846
v -0.902884 2.255119 1.109909
v -0.855129 0.750406 1.476195
v -0.857166 0.739618 1.368593
v -0.928285 0.744170 1.370588
v -0.926248 0.754957 1.478189
v -0.828840 0.968746 1.443180
v -0.831979 0.955350 1.327624
v -0.941597 0.959983 1.329868
v -0.938458 0.973379 1.445424
v -0.823908 1.133743 1.415158
v -0.827047 1.120347 1.299602
v -0.936665 1.124980 1.301846
v -0.933526 1.138376 1.417402
v 0.117774 0.610448 1.493747
v 0.193532 2.260551 1.229927
v 0.116115 0.607590 1.410316
v 0.190394 2.247155 1.114372
v 0.059852 0.614751 1.494983
v 0.083914 2.265184 1.232172
v 0.058194 0.611892 1.411552
v 0.080776 2.251788 1.116616
v 0.128530 0.747075 1.482901
v 0.126494 0.736288 1.375300
v 0.055375 0.740839 1.377294
v 0.057411 0.751626 1.484896
v 0.154820 0.965415 1.449887
v 0.151681 0.952019 1.334331
v 0.042063 0.956652 1.336575
v 0.045202 0.970048 1.452130
v 0.159752 1.130412 1.421864
v 0.156613 1.117016 1.306309
v 0.046995 1.121649 1.308552
v 0.050134 1.135045 1.424108
v 0.262475 0.589131 -1.474993
v 0.346690 2.239262 -1.211111
v 0.260631 0.612420 -1.555229
v 0.343201 2.262551 -1.325188
v 0.198087 0.592834 -1.472475
v 0.224835 2.242965 -1.207532
v 0.196243 0.616123 -1.552712
v 0.221346 2.266254 -1.321609
v 0.274432 0.722332 -1.442683
v 0.272169 0.745621 -1.548382
v 0.193110 0.749324 -1.545065
v 0.195374 0.726035 -1.439367
v 0.303656 0.940086 -1.405966
v 0.300167 0.963375 -1.520043
v 0.178312 0.967078 -1.516463
v 0.181801 0.943789 -1.402387
v 0.309139 1.105598 -1.381142
v 0.305650 1.128886 -1.495219
v 0.183795 1.132590 -1.491639
v 0.187283 1.109301 -1.377563
v -0.922307 4.354521 1.451783
v -0.898628 4.393516 1.416647
vn 0.6928 0.7211 -0.0000
vn -0.0000 -0.0000 1.0000
vn -1.0000 0.0061 -0.0000
vn -0.0000 -1.0000 -0.0000
vn 1.0000 -0.0000 -0.0000
vn -0.0000 -0.0000 -1.0000
vn 0.9410 -0.0028 -0.3384
vn 0.1990 0.9800 -0.0000
vn 0.3315 0.9434 -0.0000
vn 0.5226 0.8526 -0.0000
vn 0.4193 0.9078 -0.0000
vn 0.7092 0.7050 -0.0000
vn -1.0000 -0.0000 -0.0000
vn -0.0000 1.0000 -0.0000
vn -0.0233 0.0020 -0.9997
vn -0.9998 -0.0177 -0.0000
vn -0.9997 0.0025 0.0224
vn -0.9999 0.0157 -0.0000
vn -0.9997 0.0025 -0.0223
vn -0.1133 -0.9936 -0.0000
vn 0.4925 0.8703 -0.0000
vn -0.5857 0.0327 0.8099
vn -0.9585 -0.2850 -0.0000
vn -0.9982 -0.0043 -0.0592
vn -0.6130 -0.0209 0.7898
vn -0.9893 -0.0535 -0.1360
vn -0.3337 -0.0133 0.9426
vn 0.2491 0.9680 0.0316
vn -0.2727 -0.9615 -0.0340
vn -0.9989 -0.0057 -0.0469
vn -0.9993 -0.0146 -0.0340
vn -0.9998 -0.0063 -0.0191
vn -0.9888 0.1491 -0.0000
vn -0.0351 0.1488 0.9882
vn -0.9832 0.1825 -0.0000
vn -0.1040 0.1549 0.9824
vn -0.9997 0.0241 -0.0000
vn -0.1730 0.1461 0.9740
vn -0.9998 0.0204 -0.0000
vn -0.2427 0.1443 0.9593
vn -1.0000 -0.0022 -0.0000
vn -0.3158 0.1384 0.9387
vn -1.0000 0.0054 -0.0000
vn -0.4546 0.1315 0.8810
vn -0.3896 0.1328 0.9114
vn -0.9999 -0.0101 -0.0000
vn -1.0000 -0.0001 -0.0000
vn -0.5122 0.1256 0.8496
vn 0.9990 -0.0277 -0.0362
vn -0.0245 0.1491 -0.9885
vn -0.9990 0.0277 0.0362
vn 0.0245 -0.1491 0.9885
vn -0.0660 -0.9587 -0.2767
vn -0.0356 -0.9794 -0.1989
vn 0.0224 -0.0000 -0.9997
vn 0.9999 -0.0000 0.0163
vn -0.0224 -0.0000 0.9997
vn -0.9999 -0.0000 -0.0163
vn 0.0271 -0.2393 0.9706
vn -0.9996 -0.0244 0.0160
vn -0.0377 0.0555 -0.9977
vn 0.9958 -0.0816 -0.0424
vn 0.0276 -0.1678 0.9854
vn -0.9977 -0.0668 0.0120
vn -0.0292 0.1305 -0.9910
vn 0.9911 -0.1225 -0.0519
vn 0.9992 -0.0338 -0.0232
vn -0.0272 -0.1666 -0.9857
vn -0.9992 0.0338 0.0232
vn 0.0272 0.1666 0.9857
vn 0.0301 0.0754 0.9967
vn -0.9997 -0.0164 0.0205
vn -0.0419 -0.2583 -0.9652
vn 0.9966 -0.0817 -0.0134
vn 0.0307 0.1479 0.9885
vn -0.9981 -0.0538 0.0290
vn -0.0324 -0.1850 -0.9822
vn 0.9928 -0.1195 -0.0101
vn 0.0275 -0.1898 0.9814
vn -0.9996 0.0282 -0.0082
vn -0.6812 -0.0000 -0.7321
vn -0.8253 0.0001 -0.5647
vn -0.8548 0.5190 -0.0000
vn -0.7730 -0.1135 -0.6242
vt 0.823028 0.500000
vt 0.875000 0.500000
vt 0.875000 0.750000
vt 0.823028 0.750000
vt 0.375000 0.948028
vt 0.625000 0.948028
vt 0.625000 1.000000
vt 0.375000 1.000000
vt 0.375000 0.000000
vt 0.625000 0.000000
vt 0.625000 0.250000
vt 0.375000 0.250000
vt 0.333630 0.500000
vt 0.375000 0.500000
vt 0.375000 0.750000
vt 0.333630 0.750000
vt 0.625000 0.500000
vt 0.625000 0.750000
vt 0.375000 0.458630
vt 0.625000 0.458630
vt 0.625000 0.301972
vt 0.375000 0.301972
vt 0.125000 0.500000
vt 0.176972 0.500000
vt 0.176972 0.750000
vt 0.125000 0.750000
vt 0.375000 0.915481
vt 0.625000 0.915481
vt 0.790481 0.500000
vt 0.790481 0.750000
vt 0.749111 0.500000
vt 0.749111 0.750000
vt 0.375000 0.874111
vt 0.625000 0.874111
vt 0.625000 0.334519
vt 0.375000 0.334519
vt 0.209519 0.500000
vt 0.209519 0.750000
vt 0.375000 0.791370
vt 0.625000 0.791370
vt 0.625000 0.832741
vt 0.375000 0.832741
vt 0.666370 0.500000
vt 0.707741 0.500000
vt 0.707741 0.750000
vt 0.666370 0.750000
vt 0.375000 0.375889
vt 0.625000 0.375889
vt 0.625000 0.417259
vt 0.375000 0.417259
vt 0.250889 0.500000
vt 0.292259 0.500000
vt 0.292259 0.750000
vt 0.250889 0.750000
vt 0.625000 0.962296
vt 0.375000 0.962296
vt 0.402995 0.025568
vt 0.597005 0.025568
vt 0.597005 0.224432
vt 0.402995 0.224432
vt 0.837296 0.500000
vt 0.837296 0.750000
vt 0.375000 0.287703
vt 0.625000 0.287704
vt 0.162703 0.500000
vt 0.162704 0.750000
vt 0.375000 0.227550
vt 0.625000 0.227550
vt 0.375000 0.720019
vt 0.625000 0.720019
vt 0.125000 0.720019
vt 0.875000 0.720019
vt 0.875000 0.522450
vt 0.625000 0.522450
vt 0.375000 0.522450
vt 0.125000 0.522450
vt 0.375000 0.202790
vt 0.625000 0.202790
vt 0.375000 0.177180
vt 0.625000 0.177180
vt 0.875000 0.547210
vt 0.625000 0.547210
vt 0.375000 0.547210
vt 0.125000 0.547210
vt 0.375000 0.150842
vt 0.625000 0.150842
vt 0.875000 0.572820
vt 0.625000 0.572820
vt 0.375000 0.572820
vt 0.125000 0.572820
vt 0.375000 0.119926
vt 0.625000 0.119926
vt 0.875000 0.599158
vt 0.625000 0.599158
vt 0.375000 0.599158
vt 0.125000 0.599158
vt 0.375000 0.089358
vt 0.625000 0.089358
vt 0.875000 0.630074
vt 0.625000 0.630074
vt 0.375000 0.630074
vt 0.125000 0.630074
vt 0.375000 0.029981
vt 0.625000 0.029981
vt 0.625000 0.059963
vt 0.375000 0.059963
vt 0.625000 0.660642
vt 0.875000 0.660642
vt 0.875000 0.690037
vt 0.625000 0.690037
vt 0.125000 0.660642
vt 0.375000 0.660642
vt 0.375000 0.690037
vt 0.125000 0.690037
vt 0.453246 0.000000
vt 0.453246 0.250000
vt 0.453246 0.500000
vt 0.453246 0.750000
vt 0.453246 1.000000
vt 0.395180 1.000000
vt 0.395180 0.750000
vt 0.395180 0.500000
vt 0.395180 0.250000
vt 0.395180 0.000000
vt 0.428171 1.000000
vt 0.428171 0.750000
vt 0.428171 0.500000
vt 0.428171 0.250000
vt 0.428171 0.000000
s 0
usemtl fora
f 12/1/1 5/2/1 7/3/1 10/4/1
f 11/5/2 10/6/2 7/7/2 8/8/2
f 27/13/4 2/14/4 4/15/4 25/16/4
f 2/14/5 1/17/5 3/18/5 4/15/5
f 27/19/6 26/20/6 1/17/6 2/14/6
f 6/12/7 5/11/7 12/21/7 9/22/7
f 6/23/4 9/24/4 11/25/4 8/26/4
f 13/27/2 16/28/2 10/6/2 11/5/2
f 14/29/8 12/1/8 10/4/8 16/30/8
f 24/31/9 14/29/9 16/30/9 22/32/9
f 23/33/2 22/34/2 16/28/2 13/27/2
f 9/22/6 12/21/6 14/35/6 15/36/6
f 9/24/4 15/37/4 13/38/4 11/25/4
f 25/39/2 28/40/2 20/41/2 17/42/2
f 26/43/10 18/44/10 20/45/10 28/46/10
f 21/47/6 24/48/6 18/49/6 19/50/6
f 21/51/4 19/52/4 17/53/4 23/54/4
f 15/37/4 21/51/4 23/54/4 13/38/4
f 15/36/6 14/35/6 24/48/6 21/47/6
f 17/42/2 20/41/2 22/34/2 23/33/2
f 18/44/11 24/31/11 22/32/11 20/45/11
f 1/17/12 26/43/12 28/46/12 3/18/12
f 4/15/2 3/18/2 28/40/2 25/39/2
f 19/50/6 18/49/6 26/20/6 27/19/6
f 19/52/4 27/13/4 25/16/4 17/53/4
f 33/15/2 34/18/2 39/55/2 37/56/2
f 32/57/13 30/58/13 29/59/13 31/60/13
f 35/14/5 36/17/5 34/18/5 33/15/5
f 36/17/14 43/61/14 39/62/14 34/18/14
f 38/57/6 40/58/6 30/58/6 32/57/6
f 42/63/15 43/64/15 36/17/15 35/14/15
f 42/65/4 35/14/4 33/15/4 37/66/4
f 44/59/2 41/60/2 31/60/2 29/59/2
f 40/58/20 44/59/20 29/59/20 30/58/20
f 41/60/21 38/57/21 32/57/21 31/60/21
f 47/12/14 48/11/14 52/17/14 51/14/14
f 112/69/22 110/70/22 50/18/22 49/15/22
f 49/15/4 50/18/4 46/7/4 45/8/4
f 109/71/5 112/69/5 49/15/5 45/26/5
f 55/12/25 59/14/25 60/17/25 56/11/25
f 59/14/26 60/17/26 58/18/26 57/15/26
f 57/15/27 58/18/27 54/7/27 53/8/27
f 55/23/28 59/14/28 57/15/28 53/26/28
f 60/17/29 56/2/29 54/3/29 58/18/29
f 47/23/5 51/14/5 83/75/5 81/76/5
f 51/14/34 52/17/34 84/74/34 83/75/34
f 81/76/5 83/75/5 88/83/5 85/84/5
f 83/75/36 84/74/36 86/82/36 88/83/36
f 85/84/5 88/83/5 92/89/5 89/90/5
f 88/83/38 86/82/38 90/88/38 92/89/38
f 89/90/5 92/89/5 96/95/5 93/96/5
f 92/89/40 90/88/40 94/94/40 96/95/40
f 93/96/5 96/95/5 100/101/5 97/102/5
f 96/95/42 94/94/42 98/100/42 100/101/42
f 107/111/5 106/112/5 104/113/5 101/114/5
f 106/112/44 108/107/44 102/110/44 104/113/44
f 100/101/45 98/100/45 108/107/45 106/112/45
f 97/102/5 100/101/5 106/112/5 107/111/5
f 45/9/6 46/10/6 111/104/6 109/103/6
f 101/114/5 104/113/5 112/69/5 109/71/5
f 104/113/48 102/110/48 110/70/48 112/69/48
f 141/115/49 142/116/49 116/11/49 114/10/49
f 142/116/50 143/117/50 120/17/50 116/11/50
f 143/117/51 144/118/51 118/18/51 120/17/51
f 144/118/52 141/119/52 114/7/52 118/18/52
f 115/23/53 113/26/53 117/15/53 119/14/53
f 120/17/54 116/2/54 114/3/54 118/18/54
f 122/3/4 124/2/4 132/2/4 131/3/4
f 123/12/55 124/11/55 128/17/55 127/14/55
f 127/14/56 128/17/56 126/18/56 125/15/56
f 125/15/57 126/18/57 122/7/57 121/8/57
f 123/23/4 127/14/4 125/15/4 121/26/4
f 128/17/14 124/2/14 122/3/14 126/18/14
f 130/9/58 131/10/58 132/11/58 129/12/58
f 123/23/4 129/23/4 130/26/4 121/26/4
f 124/11/55 132/11/55 129/12/55 123/12/55
f 121/8/57 130/8/57 131/7/57 122/7/57
f 117/15/59 113/8/59 133/120/59 136/121/59
f 119/14/60 117/15/60 136/121/60 135/122/60
f 115/12/61 119/14/61 135/122/61 134/123/61
f 113/9/62 115/12/62 134/123/62 133/124/62
f 136/121/63 133/120/63 137/125/63 140/126/63
f 135/122/64 136/121/64 140/126/64 139/127/64
f 134/123/65 135/122/65 139/127/65 138/128/65
f 133/124/66 134/123/66 138/128/66 137/129/66
f 140/126/52 137/125/52 141/119/52 144/118/52
f 139/127/51 140/126/51 144/118/51 143/117/51
f 138/128/50 139/127/50 143/117/50 142/116/50
f 137/129/49 138/128/49 142/116/49 141/115/49
f 161/115/67 162/116/67 148/11/67 146/10/67
f 162/116/68 163/117/68 152/17/68 148/11/68
f 163/117/69 164/118/69 150/18/69 152/17/69
f 164/118/70 161/119/70 146/7/70 150/18/70
f 149/15/71 145/8/71 153/120/71 156/121/71
f 151/14/72 149/15/72 156/121/72 155/122/72
f 147/12/73 151/14/73 155/122/73 154/123/73
f 145/9/74 147/12/74 154/123/74 153/124/74
f 156/121/75 153/120/75 157/125/75 160/126/75
f 155/122/76 156/121/76 160/126/76 159/127/76
f 154/123/77 155/122/77 159/127/77 158/128/77
f 153/124/78 154/123/78 158/128/78 157/129/78
f 160/126/70 157/125/70 161/119/70 164/118/70
f 159/127/69 160/126/69 164/118/69 163/117/69
f 158/128/68 159/127/68 163/117/68 162/116/68
f 157/129/67 158/128/67 162/116/67 161/115/67
f 181/115/67 182/116/67 168/11/67 166/10/67
f 182/116/68 183/117/68 172/17/68 168/11/68
f 183/117/69 184/118/69 170/18/69 172/17/69
f 184/118/70 181/119/70 166/7/70 170/18/70
f 169/15/71 165/8/71 173/120/71 176/121/71
f 171/14/72 169/15/72 176/121/72 175/122/72
f 167/12/73 171/14/73 175/122/73 174/123/73
f 165/9/74 167/12/74 174/123/74 173/124/74
f 176/121/75 173/120/75 177/125/75 180/126/75
f 175/122/76 176/121/76 180/126/76 179/127/76
f 174/123/77 175/122/77 179/127/77 178/128/77
f 173/124/78 174/123/78 178/128/78 177/129/78
f 180/126/70 177/125/70 181/119/70 184/118/70
f 179/127/69 180/126/69 184/118/69 183/117/69
f 178/128/68 179/127/68 183/117/68 182/116/68
f 177/129/67 178/128/67 182/116/67 181/115/67
f 201/115/49 202/116/49 188/11/49 186/10/49
f 202/116/50 203/117/50 192/17/50 188/11/50
f 203/117/51 204/118/51 190/18/51 192/17/51
f 204/118/52 201/119/52 186/7/52 190/18/52
f 191/14/60 189/15/60 196/121/60 195/122/60
f 187/12/61 191/14/61 195/122/61 194/123/61
f 185/9/62 187/12/62 194/123/62 193/124/62
f 195/122/64 196/121/64 200/126/64 199/127/64
f 194/123/65 195/122/65 199/127/65 198/128/65
f 193/124/66 194/123/66 198/128/66 197/129/66
f 199/127/51 200/126/51 204/118/51 203/117/51
f 198/128/50 199/127/50 203/117/50 202/116/50
f 197/129/49 198/128/49 202/116/49 201/115/49
f 204/118/52 200/126/52 197/129/52 201/119/52
f 200/126/63 196/121/63 193/124/63 197/129/63
f 200/126/79 196/121/79 189/15/79 185/9/79 193/124/79 197/129/79
f 42/12/80 123/23/80 121/26/80 37/9/80
f 121/8/81 122/7/81 39/55/81 37/56/81
f 124/11/82 123/12/82 42/12/82 43/64/82
f 124/11/83 43/64/83 205/64/83 206/11/83
f 122/7/84 206/11/84 205/64/84 39/55/84
usemtl fora.fora
f 42/12/16 37/9/16 38/57/16 41/60/16
f 37/9/17 39/10/17 40/58/17 38/57/17
f 39/10/18 43/11/18 44/59/18 40/58/18
f 43/64/19 42/63/19 41/60/19 44/59/19
usemtl DENTRO
f 8/9/3 7/10/3 5/11/3 6/12/3
f 81/67/6 82/68/6 48/11/6 47/12/6
f 110/70/23 111/72/23 46/3/23 50/18/23
f 52/17/33 48/2/33 82/73/33 84/74/33
f 85/77/6 87/78/6 82/68/6 81/67/6
f 89/79/6 91/80/6 87/78/6 85/77/6
f 84/74/35 82/73/35 87/81/35 86/82/35
f 93/85/6 95/86/6 91/80/6 89/79/6
f 86/82/37 87/81/37 91/87/37 90/88/37
f 97/91/6 99/92/6 95/86/6 93/85/6
f 90/88/39 91/87/39 95/93/39 94/94/39
f 107/97/6 105/98/6 99/92/6 97/91/6
f 94/94/41 95/93/41 99/99/41 98/100/41
f 109/103/6 111/104/6 103/105/6 101/106/6
f 108/107/43 105/108/43 103/109/43 102/110/43
f 98/100/46 99/99/46 105/108/46 108/107/46
f 101/106/6 103/105/6 105/98/6 107/97/6
f 102/110/47 103/109/47 111/72/47 110/70/47
usemtl BOTAO
f 53/9/24 55/12/24 56/11/24 54/10/24
f 61/9/30 63/12/30 64/11/30 62/10/30
f 65/9/30 67/12/30 68/11/30 66/10/30
f 69/9/31 71/12/31 72/11/31 70/10/31
f 73/9/32 75/12/32 76/11/32 74/10/32
f 77/9/31 79/12/31 80/11/31 78/10/31
