g Cube
v -0.9364316 1.3284923 0.40058973
v -0.9364316 1.3284923 -0.40058973
v -0.9653489 1.4 -0.41297844
v -0.9653489 1.4 0.41297844
v 0.6805628 1.3355633 -0.40441704
v 0.9364572 1.3284805 -0.40059054
v 0.9654591 1.4 -0.41297844
v 0.7143795 1.3999999 -0.41297835
v 0.5475462 1.3355632 -0.40441695
v 0.58682024 1.3999996 -0.41297835
v 0.21320747 1.3355632 -0.40441695
v 0.235887 1.3999996 -0.41297835
v 0.07344823 1.3355633 -0.40441695
v 0.07713141 1.3999999 -0.41297835
v -0.07341488 1.3355633 -0.40441695
v -0.07702111 1.3999999 -0.41297835
v -0.22741258 1.3355632 -0.40441695
v -0.24822177 1.3999996 -0.41297835
v -0.5365294 1.3355633 -0.40441695
v -0.57268125 1.3999999 -0.41297835
v -0.6851827 1.3355633 -0.40441704
v -0.7191534 1.3999999 -0.41297835
v -0.9364316 1.3284923 -0.40058973
v -0.9653489 1.4 -0.41297844
v 0.9364572 1.3284805 -0.40059054
v 0.9364572 1.3284805 0.40059054
v 0.9654591 1.4 0.41297844
v 0.9654591 1.4 -0.41297844
v -0.68518287 1.3355633 0.40441704
v -0.9364316 1.3284923 0.40058973
v -0.9653489 1.4 0.41297844
v -0.7191536 1.3999999 0.41297835
v -0.5365295 1.3355632 0.40441695
v -0.57268137 1.3999996 0.41297835
v -0.22741264 1.3355632 0.40441695
v -0.24822184 1.3999996 0.41297835
v -0.07341488 1.3355633 0.40441695
v -0.07702111 1.3999999 0.41297835
v 0.07344823 1.3355633 0.40441695
v 0.07713141 1.3999999 0.41297835
v 0.21320747 1.3355632 0.40441695
v 0.23588698 1.3999996 0.41297835
v 0.54754615 1.3355633 0.40441695
v 0.5868202 1.3999999 0.41297835
v 0.68056273 1.3355633 0.40441704
v 0.71437943 1.3999999 0.41297835
v 0.9364572 1.3284805 0.40059054
v 0.9654591 1.4 0.41297844
v 0.66593033 -1.4450222 -0.38499996
v 0.6659304 -1.4450222 0.38499996
v 0.9 -1.4450222 0.385
v 0.9 -1.4450222 -0.385
v -0.7191534 1.3999999 -0.41297835
v -0.7191536 1.3999999 0.41297835
v -0.9653489 1.4 0.41297844
v -0.9653489 1.4 -0.41297844
v -0.57268125 1.3999999 -0.41297835
v -0.57268137 1.3999996 0.41297835
v -0.24822177 1.3999996 -0.41297835
v -0.24822184 1.3999996 0.41297835
v -0.07702111 1.3999999 -0.41297835
v -0.07702111 1.3999999 0.41297835
v 0.07713141 1.3999999 -0.41297835
v 0.07713141 1.3999999 0.41297835
v 0.235887 1.3999996 -0.41297835
v 0.23588698 1.3999996 0.41297835
v 0.58682024 1.3999996 -0.41297835
v 0.5868202 1.3999999 0.41297835
v 0.7143795 1.3999999 -0.41297835
v 0.71437943 1.3999999 0.41297835
v 0.9654591 1.4 -0.41297844
v 0.9654591 1.4 0.41297844
v -0.6704838 1.2619168 0.38499996
v -0.9 1.2619168 0.385
v -0.9364316 1.3284923 0.40058973
v -0.68518287 1.3355633 0.40441704
v -0.5208867 1.2619166 0.38499987
v -0.5365295 1.3355632 0.40441695
v -0.21840864 1.2619166 0.38499987
v -0.22741264 1.3355632 0.40441695
v -0.07185451 1.2619168 0.3849999
v -0.07341488 1.3355633 0.40441695
v 0.07185451 1.2619168 0.3849999
v 0.07344823 1.3355633 0.40441695
v 0.20339397 1.2619166 0.38499987
v 0.21320747 1.3355632 0.40441695
v 0.5305522 1.2619166 0.3849999
v 0.54754615 1.3355633 0.40441695
v 0.66593033 1.2619168 0.38499996
v 0.68056273 1.3355633 0.40441704
v 0.9 1.2619168 0.385
v 0.9364572 1.3284805 0.40059054
v 0.9 1.2619168 -0.385
v 0.9 1.2619168 0.385
v 0.9364572 1.3284805 0.40059054
v 0.9364572 1.3284805 -0.40059054
v 0.6659304 1.2619168 -0.38499996
v 0.9 1.2619168 -0.385
v 0.9364572 1.3284805 -0.40059054
v 0.6805628 1.3355633 -0.40441704
v 0.5305523 1.2619166 -0.3849999
v 0.5475462 1.3355632 -0.40441695
v 0.20339403 1.2619166 -0.3849999
v 0.21320747 1.3355632 -0.40441695
v 0.07185451 1.2619168 -0.3849999
v 0.07344823 1.3355633 -0.40441695
v -0.07185451 1.2619168 -0.3849999
v -0.07341488 1.3355633 -0.40441695
v -0.21840854 1.2619166 -0.3849999
v -0.22741258 1.3355632 -0.40441695
v -0.5208866 1.2619166 -0.3849999
v -0.5365294 1.3355633 -0.40441695
v -0.67048377 1.2619168 -0.38499996
v -0.6851827 1.3355633 -0.40441704
v -0.9 1.2619168 -0.385
v -0.9364316 1.3284923 -0.40058973
v -0.9 1.2619168 0.385
v -0.9 1.2619168 -0.385
v -0.9364316 1.3284923 -0.40058973
v -0.9364316 1.3284923 0.40058973
v -0.9 1.1328874 0.385
v -0.9 1.1328874 -0.385
v -0.9 1.2619168 -0.385
v -0.9 1.2619168 0.385
v 0.6659304 1.1328872 -0.38499996
v 0.9 1.1328874 -0.385
v 0.9 1.2619168 -0.385
v 0.6659304 1.2619168 -0.38499996
v 0.5305523 1.1328871 -0.3849999
v 0.5305523 1.2619166 -0.3849999
v 0.20339403 1.1328871 -0.3849999
v 0.20339403 1.2619166 -0.3849999
v 0.07185451 1.1328872 -0.3849999
v 0.07185451 1.2619168 -0.3849999
v -0.07185451 1.1328872 -0.3849999
v -0.07185451 1.2619168 -0.3849999
v -0.21840854 1.1328871 -0.3849999
v -0.21840854 1.2619166 -0.3849999
v -0.5208866 1.1328871 -0.3849999
v -0.5208866 1.2619166 -0.3849999
v -0.67048377 1.1328872 -0.38499996
v -0.67048377 1.2619168 -0.38499996
v -0.9 1.1328874 -0.385
v -0.9 1.2619168 -0.385
v 0.9 1.1328874 -0.385
v 0.9 1.1328874 0.385
v 0.9 1.2619168 0.385
v 0.9 1.2619168 -0.385
v -0.6704838 1.1328872 0.38499996
v -0.9 1.1328874 0.385
v -0.9 1.2619168 0.385
v -0.6704838 1.2619168 0.38499996
v -0.5208867 1.1328871 0.38499987
v -0.5208867 1.2619166 0.38499987
v -0.21840864 1.1328871 0.38499987
v -0.21840864 1.2619166 0.38499987
v -0.07185451 1.1328872 0.3849999
v -0.07185451 1.2619168 0.3849999
v 0.07185451 1.1328872 0.3849999
v 0.07185451 1.2619168 0.3849999
v 0.20339397 1.1328871 0.38499987
v 0.20339397 1.2619166 0.38499987
v 0.5305522 1.1328871 0.3849999
v 0.5305522 1.2619166 0.3849999
v 0.66593033 1.1328872 0.38499996
v 0.66593033 1.2619168 0.38499996
v 0.9 1.1328874 0.385
v 0.9 1.2619168 0.385
v -0.6704838 1.0671011 0.38499996
v -0.9 1.0671011 0.385
v -0.9187383 1.0993048 0.3930226
v -0.68443954 1.0993047 0.3930226
v -0.5208867 1.067101 0.38499987
v -0.5357384 1.0993046 0.39302254
v -0.21840864 1.067101 0.38499987
v -0.22695734 1.0993046 0.39302254
v -0.07185451 1.0671011 0.3849999
v -0.07333599 1.0993047 0.3930226
v 0.07185451 1.0671011 0.3849999
v 0.07336762 1.0993047 0.3930226
v 0.20339397 1.067101 0.38499987
v 0.21271108 1.0993046 0.39302254
v 0.5305522 1.067101 0.3849999
v 0.5466866 1.0993046 0.39302254
v 0.66593033 1.0671011 0.38499996
v 0.6798227 1.0993047 0.3930226
v 0.9 1.0671011 0.385
v 0.91876984 1.0993048 0.3930226
v 0.9 1.0671011 -0.385
v 0.9 1.0671011 0.385
v 0.91876984 1.0993048 0.3930226
v 0.91876984 1.0993048 -0.3930226
v 0.6659304 1.0671011 -0.38499996
v 0.9 1.0671011 -0.385
v 0.91876984 1.0993048 -0.3930226
v 0.67982274 1.0993047 -0.3930226
v 0.5305523 1.067101 -0.3849999
v 0.5466867 1.0993046 -0.3930226
v 0.20339403 1.067101 -0.3849999
v 0.21271113 1.0993046 -0.3930226
v 0.07185451 1.0671011 -0.3849999
v 0.07336762 1.0993047 -0.3930226
v -0.07185451 1.0671011 -0.3849999
v -0.07333599 1.0993047 -0.3930226
v -0.21840854 1.067101 -0.3849999
v -0.22695726 1.0993046 -0.3930226
v -0.5208866 1.067101 -0.3849999
v -0.5357383 1.0993046 -0.3930226
v -0.67048377 1.0671011 -0.38499996
v -0.68443936 1.0993047 -0.3930226
v -0.9 1.0671011 -0.385
v -0.9187383 1.0993048 -0.3930226
v -0.9 1.0671011 0.385
v -0.9 1.0671011 -0.385
v -0.9187383 1.0993048 -0.3930226
v -0.9187383 1.0993048 0.3930226
v -0.8999999 0.8440653 0.3849999
v -0.8999999 0.8440653 -0.3849999
v -0.9 0.98199314 -0.385
v -0.9 0.98199314 0.385
v -0.9 1.0671011 -0.385
v -0.9 1.0671011 0.385
v -0.8999999 -0.42021227 0.3849999
v -0.8999999 -0.42021227 -0.3849999
v -0.9 -0.5581401 0.385
v -0.9 -0.55814004 -0.385
v -0.9 -0.6456481 0.385
v -0.9 -0.645648 -0.385
v -0.9 -0.894884 0.385
v -0.9 -0.894884 -0.385
v -0.9 -0.93798184 0.385
v -0.9 -0.93798184 -0.385
v -0.9 -1.1913935 0.385
v -0.9 -1.1913935 -0.385
v 0.66593033 0.84406507 -0.38499987
v 0.89999986 0.8440653 -0.3849999
v 0.9 0.98199314 -0.385
v 0.6659304 0.9819931 -0.38499996
v 0.5305522 0.8440651 -0.38499987
v 0.5305523 0.9819931 -0.3849999
v 0.6659304 1.0671011 -0.38499996
v 0.5305523 1.067101 -0.3849999
v 0.9 1.0671011 -0.385
v 0.5305522 -0.42021206 -0.38499987
v 0.66593033 -0.4202122 -0.38499987
v 0.5305523 -0.55813974 -0.3849999
v 0.6659304 -0.5581399 -0.38499996
v 0.5305523 -0.6456477 -0.3849999
v 0.6659304 -0.64564794 -0.38499996
v 0.9 -0.55814004 -0.385
v 0.9 -0.645648 -0.385
v 0.5305523 -0.8948839 -0.3849999
v 0.6659304 -0.89488393 -0.38499996
v 0.5305523 -0.9379816 -0.3849999
v 0.6659304 -0.93798184 -0.38499996
v 0.5305523 -1.1913934 -0.3849999
v 0.6659304 -1.1913935 -0.38499996
v 0.53662086 -1.2790215 -0.38829714
v 0.6735447 -1.2790217 -0.38829714
v 0.9 -1.1913935 -0.385
v 0.9102871 -1.2790217 -0.38829714
v 0.9 -0.93798184 -0.385
v 0.9 -0.894884 -0.385
v 0.20339403 -0.8948838 -0.3849999
v 0.20339403 -0.6456477 -0.3849999
v 0.07185451 -0.8948838 -0.3849999
v 0.07185451 -0.6456477 -0.3849999
v -0.07185451 -0.8948838 -0.3849999
v -0.07185451 -0.9379816 -0.3849999
v 0.07185451 -0.9379816 -0.3849999
v -0.07185451 -1.1913934 -0.3849999
v 0.07185451 -1.1913934 -0.3849999
v -0.07266468 -1.2790216 -0.38829714
v 0.07268531 -1.2790216 -0.38829714
v -0.07185451 -0.6456477 -0.3849999
v 0.07185451 -0.5581398 -0.3849999
v -0.07185451 -0.5581398 -0.3849999
v -0.21840854 -0.6456477 -0.3849999
v -0.21840854 -0.55813974 -0.3849999
v -0.22089222 -1.2790215 -0.38829714
v -0.2184086 -1.1913934 -0.3849999
v -0.2184086 -0.9379816 -0.3849999
v -0.21840854 -0.8948837 -0.3849999
v 0.0718545 -0.42021206 -0.38499987
v -0.0718545 -0.42021206 -0.38499987
v 0.0718545 0.8440653 -0.38499987
v -0.0718545 0.8440653 -0.38499987
v 0.07185451 0.9819931 -0.3849999
v -0.07185451 0.9819931 -0.3849999
v -0.21840852 0.8440651 -0.38499987
v -0.21840854 0.9819931 -0.3849999
v 0.07185451 1.0671011 -0.3849999
v -0.07185451 1.0671011 -0.3849999
v -0.21840854 1.067101 -0.3849999
v -0.21840852 -0.42021206 -0.38499987
v -0.52088654 -0.42021206 -0.38499987
v -0.52088654 0.8440651 -0.38499987
v -0.6704837 -0.4202122 -0.38499987
v -0.6704837 0.84406507 -0.38499987
v -0.8999999 -0.42021227 -0.3849999
v -0.9 -0.55814004 -0.385
v -0.67048377 -0.5581399 -0.38499996
v -0.9 -0.645648 -0.385
v -0.67048377 -0.64564794 -0.38499996
v -0.9 -0.894884 -0.385
v -0.67048377 -0.89488393 -0.38499996
v -0.9 -0.93798184 -0.385
v -0.6704838 -0.93798184 -0.38499996
v -0.9 -1.1913935 -0.385
v -0.6704838 -1.1913935 -0.38499996
v -0.91026646 -1.2790217 -0.38829714
v -0.67812955 -1.2790217 -0.38829714
v -0.8999999 0.8440653 -0.3849999
v -0.67048377 0.9819931 -0.38499996
v -0.9 0.98199314 -0.385
v -0.67048377 1.0671011 -0.38499996
v -0.9 1.0671011 -0.385
v -0.5208866 1.067101 -0.3849999
v -0.5208866 0.9819931 -0.3849999
v -0.5208866 -0.8948838 -0.3849999
v -0.5208866 -0.6456477 -0.3849999
v -0.5208867 -0.9379816 -0.3849999
v -0.5208867 -1.1913934 -0.3849999
v -0.52682424 -1.2790215 -0.38829714
v -0.5208866 -0.55813974 -0.3849999
v 0.89999986 0.8440653 -0.3849999
v 0.89999986 0.8440653 0.3849999
v 0.9 0.98199314 0.385
v 0.9 0.98199314 -0.385
v 0.9 1.0671011 0.385
v 0.9 1.0671011 -0.385
v 0.89999986 -0.42021227 -0.3849999
v 0.89999986 -0.42021227 0.3849999
v 0.9 -0.55814004 -0.385
v 0.9 -0.55814004 0.385
v 0.9 -0.645648 -0.385
v 0.9 -0.645648 0.385
v 0.9 -0.894884 -0.385
v 0.9 -0.894884 0.385
v 0.9 -0.93798184 -0.385
v 0.9 -0.93798184 0.385
v 0.9 -1.1913935 -0.385
v 0.9 -1.1913935 0.385
v -0.6704838 0.84406507 0.3849999
v -0.8999999 0.8440653 0.3849999
v -0.9 0.98199314 0.385
v -0.6704838 0.9819931 0.38499996
v -0.9 1.0671011 0.385
v -0.6704838 1.0671011 0.38499996
v -0.5208867 0.9819931 0.38499987
v -0.5208867 1.067101 0.38499987
v -0.6704838 -0.4202122 0.3849999
v -0.8999999 -0.42021227 0.3849999
v -0.6704838 -0.5581399 0.38499996
v -0.9 -0.5581401 0.385
v -0.6704838 -0.64564794 0.38499996
v -0.9 -0.6456481 0.385
v -0.5208867 -0.6456479 0.38499987
v -0.5208867 -0.55813986 0.38499987
v -0.6704838 -0.89488393 0.38499996
v -0.9 -0.894884 0.385
v -0.6704838 -0.93798184 0.38499996
v -0.07185451 -0.9379817 0.3849999
v -0.07185451 -0.89488393 0.3849999
v 0.07185451 -0.9379816 0.3849999
v 0.07185451 -0.8948838 0.3849999
v 0.66593033 -0.93798184 0.38499996
v 0.66593033 -0.89488393 0.38499996
v 0.9 -0.93798184 0.385
v 0.9 -1.1913935 0.385
v 0.6659304 -1.1913935 0.38499996
v 0.9 -0.894884 0.385
v 0.66593033 -0.64564794 0.38499996
v 0.9 -0.645648 0.385
v 0.66593033 -0.5581399 0.38499996
v 0.9 -0.55814004 0.385
v -0.9 -0.93798184 0.385
v 0.6659302 -0.4202122 0.3849999
v 0.89999986 -0.42021227 0.3849999
v 0.6659302 0.84406507 0.3849999
v 0.89999986 0.8440653 0.3849999
v 0.66593033 0.9819931 0.38499996
v 0.9 0.98199314 0.385
v 0.66593033 1.0671011 0.38499996
v 0.9 1.0671011 0.385
v 0.5305522 1.067101 0.3849999
v 0.5305522 0.9819931 0.3849999
v 0.20339397 1.067101 0.38499987
v 0.20339397 0.9819931 0.38499987
v 0.07185451 1.0671011 0.3849999
v 0.07185451 0.9819931 0.3849999
v -0.07185451 1.0671011 0.3849999
v -0.07185451 0.9819931 0.3849999
v 0.0718545 0.8440653 0.38499987
v -0.0718545 0.84406507 0.38499987
v 0.0718545 -0.42021206 0.38499987
v -0.0718545 -0.42021227 0.38499987
v 0.07185451 -0.5581398 0.3849999
v -0.07185451 -0.55814 0.3849999
v 0.07185451 -0.6456477 0.3849999
v 0.20339397 -0.6456477 0.38499987
v 0.20339397 -0.55813974 0.38499987
v -0.07185451 -0.64564794 0.3849999
v -0.21840864 1.067101 0.38499987
v -0.21840864 0.9819931 0.38499987
v -0.21840864 -0.5581399 0.38499987
v -0.21840864 -0.6456479 0.38499987
v 0.5305522 -0.6456477 0.3849999
v 0.5305522 -0.55813974 0.3849999
v -0.9 -1.4450222 -0.385
v -0.9 -1.4450222 0.385
v -0.67048377 -1.4450222 0.38499996
v -0.6704838 -1.4450222 -0.38499996
v -0.07266468 -1.2790216 0.3904952
v -0.67812955 -1.2790217 0.3904952
v -0.67048377 -1.1913935 0.38499996
v -0.07185451 -1.1913934 0.3849999
v 0.07268531 -1.2790216 0.3904952
v 0.07185451 -1.1913934 0.3849999
v 0.6735447 -1.2790217 0.3904952
v 0.6659304 -1.1913935 0.38499996
v 0.9102871 -1.2790217 0.3904953
v 0.9 -1.1913935 0.385
v -0.9 -1.1913935 0.385
v -0.91026646 -1.2790217 0.3904953
v -0.91026646 -1.2790217 0.3904953
v -0.91026646 -1.2790217 -0.38829714
v -0.9 -1.1913935 -0.385
v -0.9 -1.1913935 0.385
v 0.9102871 -1.2790217 -0.38829714
v 0.9102871 -1.2790217 0.3904953
v 0.9 -1.1913935 0.385
v 0.9 -1.1913935 -0.385
v -0.67048377 -1.1913935 0.38499996
v -0.9 -1.1913935 0.385
v -0.67048377 -1.3112904 0.38499996
v -0.9 -1.3112905 0.385
v -0.91026646 -1.2790217 0.3904953
v -0.67812955 -1.2790217 0.3904952
v 0.9 -1.3148761 -0.385
v 0.9 -1.3148761 0.385
v 0.9102871 -1.2790217 0.3904953
v 0.9102871 -1.2790217 -0.38829714
v 0.6659304 -1.314876 -0.38499996
v 0.9 -1.3148761 -0.385
v 0.9102871 -1.2790217 -0.38829714
v 0.6735447 -1.2790217 -0.38829714
v -0.9 -1.3112905 0.385
v -0.9 -1.3112905 -0.385
v -0.91026646 -1.2790217 -0.38829714
v -0.91026646 -1.2790217 0.3904953
v 0.9 -1.3148761 0.385
v 0.6659304 -1.314876 0.38499996
v 0.6735447 -1.2790217 0.3904952
v 0.9102871 -1.2790217 0.3904953
v -0.9 -1.3112905 -0.385
v -0.6704838 -1.3112904 -0.38499996
v -0.67812955 -1.2790217 -0.38829714
v -0.91026646 -1.2790217 -0.38829714
v 0.6659304 -1.314876 0.38499996
v 0.6659304 -1.314876 -0.38499996
v 0.6735447 -1.2790217 -0.38829714
v 0.6735447 -1.2790217 0.3904952
v -0.67048377 -1.3112904 0.38499996
v -0.6704838 -1.3112904 -0.38499996
v -0.6704838 -1.4450222 -0.38499996
v -0.67048377 -1.4450222 0.38499996
v 0.6735447 -1.2790217 0.3904952
v 0.6735447 -1.2790217 -0.38829714
v 0.53662086 -1.2790215 -0.38829714
v 0.20572685 -1.2790215 -0.38829714
v 0.07268531 -1.2790216 -0.38829714
v -0.07266468 -1.2790216 -0.38829714
v -0.22089222 -1.2790215 -0.38829714
v -0.52682424 -1.2790215 -0.38829714
v -0.67812955 -1.2790217 -0.38829714
v -0.67812955 -1.2790217 0.3904952
v -0.67812955 -1.2790217 0.3904952
v 0.07268531 -1.2790216 0.3904952
v 0.6735447 -1.2790217 0.3904952
v -0.67812955 -1.2790217 0.3904952
v -0.07266468 -1.2790216 0.3904952
v 0.07268531 -1.2790216 0.3904952
v -0.5357384 1.0993046 0.39302254
v -0.68443954 1.0993047 0.3930226
v -0.6704838 1.1328872 0.38499996
v -0.5208867 1.1328871 0.38499987
v -0.9 1.1328874 0.385
v -0.9187383 1.0993048 0.3930226
v -0.22695734 1.0993046 0.39302254
v -0.21840864 1.1328871 0.38499987
v -0.07333599 1.0993047 0.3930226
v -0.07185451 1.1328872 0.3849999
v 0.07336762 1.0993047 0.3930226
v 0.07185451 1.1328872 0.3849999
v 0.21271108 1.0993046 0.39302254
v 0.20339397 1.1328871 0.38499987
v 0.5466866 1.0993046 0.39302254
v 0.5305522 1.1328871 0.3849999
v 0.6798227 1.0993047 0.3930226
v 0.66593033 1.1328872 0.38499996
v 0.91876984 1.0993048 0.3930226
v 0.9 1.1328874 0.385
v -0.9187383 1.0993048 -0.3930226
v -0.68443936 1.0993047 -0.3930226
v -0.67048377 1.1328872 -0.38499996
v -0.9 1.1328874 -0.385
v -0.5208866 1.1328871 -0.3849999
v -0.5357383 1.0993046 -0.3930226
v -0.21840854 1.1328871 -0.3849999
v -0.22695726 1.0993046 -0.3930226
v -0.07185451 1.1328872 -0.3849999
v -0.07333599 1.0993047 -0.3930226
v 0.07185451 1.1328872 -0.3849999
v 0.07336762 1.0993047 -0.3930226
v 0.20339403 1.1328871 -0.3849999
v 0.21271113 1.0993046 -0.3930226
v 0.5305523 1.1328871 -0.3849999
v 0.5466867 1.0993046 -0.3930226
v 0.6659304 1.1328872 -0.38499996
v 0.67982274 1.0993047 -0.3930226
v 0.9 1.1328874 -0.385
v 0.91876984 1.0993048 -0.3930226
v 0.91876984 1.0993048 -0.3930226
v 0.91876984 1.0993048 0.3930226
v 0.9 1.1328874 0.385
v 0.9 1.1328874 -0.385
v -0.9187383 1.0993048 0.3930226
v -0.9187383 1.0993048 -0.3930226
v -0.9 1.1328874 -0.385
v -0.9 1.1328874 0.385
v -0.6704838 0.9819931 0.38499996
v -0.6704838 0.9819931 0.41508242
v -0.6704838 0.84406507 0.4150824
v -0.6704838 0.84406507 0.3849999
v 0.89999986 -0.42021227 -0.3849999
v 0.20339403 -0.42021206 -0.38499987
v 0.20339403 0.8440651 -0.38499987
v 0.20339403 -0.55813974 -0.3849999
v 0.20339403 0.9819931 -0.3849999
v 0.20339403 1.067101 -0.3849999
v 0.20339403 -0.9379816 -0.3849999
v 0.20339403 -1.1913934 -0.3849999
v 0.20572685 -1.2790215 -0.38829714
v -0.67812955 -1.2790217 0.3904952
v -0.67812955 -1.2790217 -0.38829714
v -0.6704838 -1.3112904 -0.38499996
v -0.67048377 -1.3112904 0.38499996
v -0.9 -1.4450222 -0.385
v -0.6704838 -1.4450222 -0.38499996
v -0.6704838 -1.3112904 -0.38499996
v -0.9 -1.3112905 -0.385
v -0.9 -1.4450222 0.385
v -0.9 -1.4450222 -0.385
v -0.9 -1.3112905 -0.385
v -0.9 -1.3112905 0.385
v -0.67048377 -1.4450222 0.38499996
v -0.9 -1.4450222 0.385
v -0.9 -1.3112905 0.385
v -0.67048377 -1.3112904 0.38499996
v 0.6659304 -1.4450222 0.38499996
v 0.66593033 -1.4450222 -0.38499996
v 0.6659304 -1.314876 -0.38499996
v 0.6659304 -1.314876 0.38499996
v 0.9 -1.4450222 0.385
v 0.6659304 -1.4450222 0.38499996
v 0.6659304 -1.314876 0.38499996
v 0.9 -1.3148761 0.385
v 0.66593033 -1.4450222 -0.38499996
v 0.9 -1.4450222 -0.385
v 0.9 -1.3148761 -0.385
v 0.6659304 -1.314876 -0.38499996
v 0.9 -1.4450222 -0.385
v 0.9 -1.4450222 0.385
v 0.9 -1.3148761 0.385
v 0.9 -1.3148761 -0.385
v 0.0718545 -0.42021206 0.38499987
v 0.0718545 -0.42021206 0.4150824
v 0.07185451 -0.5581398 0.41508242
v 0.07185451 -0.5581398 0.3849999
v 0.0718545 0.8440653 0.38499987
v 0.0718545 0.8440653 0.4150824
v 0.07185451 0.9819931 0.3849999
v 0.07185451 0.9819931 0.41508242
v -0.6704838 -0.4202122 0.3849999
v -0.6704838 -0.4202122 0.4150824
v -0.6704838 -0.5581399 0.41508242
v -0.6704838 -0.5581399 0.38499996
v -0.5208867 -0.6456479 0.38499987
v -0.5208867 -0.6456479 0.41670966
v -0.6704838 -0.64564794 0.4167097
v -0.6704838 -0.64564794 0.38499996
v -0.21840864 -0.6456479 0.38499987
v -0.21840864 -0.6456479 0.41670957
v -0.07185451 -0.64564794 0.3849999
v -0.07185451 -0.64564794 0.41670966
v 0.07185451 -0.6456477 0.3849999
v 0.07185451 -0.6456477 0.41670966
v 0.20339397 -0.6456477 0.38499987
v 0.20339397 -0.6456477 0.41670966
v 0.5305522 -0.6456477 0.3849999
v 0.5305522 -0.6456477 0.41670966
v 0.66593033 -0.64564794 0.38499996
v 0.66593033 -0.64564794 0.4167097
v 0.07185451 -0.9379816 0.3849999
v 0.07185451 -0.9379816 0.41670966
v -0.07185451 -0.9379817 0.41670966
v -0.07185451 -0.9379817 0.3849999
v 0.66593033 -0.93798184 0.38499996
v 0.66593033 -0.93798184 0.4167097
v -0.6704838 -0.93798184 0.4167097
v -0.6704838 -0.93798184 0.38499996
v 0.20339397 0.8440651 0.4150823
v 0.0718545 0.8440653 0.4150824
v 0.07185451 0.9819931 0.41508242
v 0.20339397 0.9819931 0.4150824
v 0.20339397 -0.42021206 0.4150823
v 0.0718545 -0.42021206 0.4150824
v 0.20339397 -0.55813974 0.4150824
v 0.07185451 -0.5581398 0.41508242
v 0.5305522 -0.55813974 0.4150824
v 0.5305522 -0.42021206 0.4150823
v 0.66593033 -0.5581399 0.41508242
v 0.6659302 -0.4202122 0.4150824
v 0.5305522 0.8440651 0.4150823
v 0.6659302 0.84406507 0.4150824
v 0.5305522 0.9819931 0.4150824
v 0.66593033 0.9819931 0.41508242
v -0.5208867 0.844065 0.4150823
v -0.6704838 0.84406507 0.4150824
v -0.6704838 0.9819931 0.41508242
v -0.5208867 0.9819931 0.4150824
v -0.5208867 -0.42021212 0.4150823
v -0.6704838 -0.4202122 0.4150824
v -0.5208867 -0.55813986 0.4150824
v -0.6704838 -0.5581399 0.41508242
v -0.21840864 -0.5581399 0.4150824
v -0.2184086 -0.4202122 0.4150823
v -0.07185451 -0.55814 0.41508242
v -0.0718545 -0.42021227 0.4150824
v -0.2184086 0.844065 0.4150823
v -0.0718545 0.84406507 0.4150824
v -0.21840864 0.9819931 0.4150824
v -0.07185451 0.9819931 0.41508242
v -0.5208867 0.9819931 0.38499987
v -0.5208867 0.9819931 0.4150824
v -0.6704838 0.9819931 0.41508242
v -0.6704838 0.9819931 0.38499996
v -0.21840864 0.9819931 0.38499987
v -0.21840864 0.9819931 0.4150824
v -0.07185451 0.9819931 0.3849999
v -0.07185451 0.9819931 0.41508242
v 0.6659302 0.84406507 0.3849999
v 0.6659302 0.84406507 0.4150824
v 0.66593033 0.9819931 0.41508242
v 0.66593033 0.9819931 0.38499996
v 0.6659302 -0.4202122 0.3849999
v 0.6659302 -0.4202122 0.4150824
v 0.66593033 -0.5581399 0.38499996
v 0.66593033 -0.5581399 0.41508242
v 0.5305522 -0.55813974 0.3849999
v 0.5305522 -0.55813974 0.4150824
v 0.66593033 -0.5581399 0.41508242
v 0.66593033 -0.5581399 0.38499996
v 0.20339397 -0.55813974 0.38499987
v 0.20339397 -0.55813974 0.4150824
v 0.07185451 -0.5581398 0.3849999
v 0.07185451 -0.5581398 0.41508242
v 0.20339397 0.9819931 0.38499987
v 0.20339397 0.9819931 0.4150824
v 0.07185451 0.9819931 0.41508242
v 0.07185451 0.9819931 0.3849999
v 0.5305522 0.9819931 0.3849999
v 0.5305522 0.9819931 0.4150824
v 0.66593033 0.9819931 0.38499996
v 0.66593033 0.9819931 0.41508242
v -0.0718545 0.84406507 0.38499987
v -0.0718545 0.84406507 0.4150824
v -0.07185451 0.9819931 0.41508242
v -0.07185451 0.9819931 0.3849999
v -0.0718545 -0.42021227 0.38499987
v -0.0718545 -0.42021227 0.4150824
v -0.07185451 -0.55814 0.3849999
v -0.07185451 -0.55814 0.41508242
v -0.21840864 -0.5581399 0.38499987
v -0.21840864 -0.5581399 0.4150824
v -0.07185451 -0.55814 0.41508242
v -0.07185451 -0.55814 0.3849999
v -0.5208867 -0.55813986 0.38499987
v -0.5208867 -0.55813986 0.4150824
v -0.6704838 -0.5581399 0.38499996
v -0.6704838 -0.5581399 0.41508242
v 0.07185451 -0.9379816 0.41670966
v 0.061358288 -0.96333 0.41670966
v -0.061685655 -0.9633302 0.41670966
v -0.07185451 -0.9379817 0.41670966
v -0.5742334 -0.9633302 0.4167097
v -0.6704838 -0.93798184 0.4167097
v -0.5742333 -1.1660451 0.4167097
v -0.67048377 -1.1913935 0.4167097
v -0.061685655 -1.166045 0.41670966
v -0.07185451 -1.1913934 0.41670966
v 0.061358288 -1.166045 0.41670966
v 0.07185451 -1.1913934 0.41670966
v 0.5700072 -1.1660451 0.4167097
v 0.6659304 -1.1913935 0.4167097
v 0.5700072 -0.9633302 0.4167097
v 0.66593033 -0.93798184 0.4167097
v -0.07185451 -0.64564794 0.41670966
v -0.061464857 -0.6698135 0.41670966
v -0.18646698 -0.6698135 0.41670957
v -0.21840864 -0.6456479 0.41670957
v 0.07185451 -0.6456477 0.41670966
v 0.06111053 -0.66981345 0.41670966
v -0.44446307 -0.6698135 0.41670966
v -0.5208867 -0.6456479 0.41670966
v 0.20339397 -0.6456477 0.41670966
v 0.17330602 -0.66981345 0.41670966
v 0.5305522 -0.6456477 0.41670966
v 0.45235282 -0.66981345 0.41670966
v 0.66593033 -0.64564794 0.4167097
v 0.56782246 -0.6698135 0.4167097
v 0.66593033 -0.89488393 0.4167097
v 0.56782246 -0.8666804 0.4167097
v 0.07185451 -0.8948838 0.41670966
v 0.06111053 -0.8666802 0.41670966
v -0.07185451 -0.89488393 0.41670966
v -0.061464857 -0.8666804 0.41670966
v -0.6704838 -0.89488393 0.4167097
v -0.5720607 -0.8666804 0.4167097
v -0.6704838 -0.64564794 0.4167097
v -0.5720607 -0.6698135 0.4167097
v -0.07185451 -0.89488393 0.3849999
v -0.07185451 -0.89488393 0.41670966
v 0.07185451 -0.8948838 0.41670966
v 0.07185451 -0.8948838 0.3849999
v 0.66593033 -0.89488393 0.4167097
v 0.66593033 -0.89488393 0.38499996
v -0.6704838 -0.89488393 0.38499996
v -0.6704838 -0.89488393 0.4167097
v -0.6704838 -0.64564794 0.38499996
v -0.6704838 -0.64564794 0.4167097
v -0.6704838 -0.89488393 0.4167097
v -0.6704838 -0.89488393 0.38499996
v 0.07185451 -1.1913934 0.3849999
v 0.07185451 -1.1913934 0.41670966
v 0.6659304 -1.1913935 0.4167097
v 0.6659304 -1.1913935 0.38499996
v -0.07185451 -1.1913934 0.3849999
v -0.07185451 -1.1913934 0.41670966
v -0.67048377 -1.1913935 0.38499996
v -0.67048377 -1.1913935 0.4167097
v -0.6704838 -0.93798184 0.38499996
v -0.6704838 -0.93798184 0.4167097
v -0.67048377 -1.1913935 0.4167097
v -0.67048377 -1.1913935 0.38499996
v 0.66593033 -0.89488393 0.38499996
v 0.66593033 -0.89488393 0.4167097
v 0.66593033 -0.64564794 0.4167097
v 0.66593033 -0.64564794 0.38499996
v 0.6659304 -1.1913935 0.38499996
v 0.6659304 -1.1913935 0.4167097
v 0.66593033 -0.93798184 0.4167097
v 0.66593033 -0.93798184 0.38499996
v 0.5305522 0.8440651 0.4150823
v 0.5305522 0.8440651 0.39108595
v 0.20339397 0.8440651 0.39108595
v 0.20339397 0.8440651 0.4150823
v -0.5208867 0.844065 0.4150823
v -0.5208867 0.844065 0.39108595
v -0.5208867 -0.42021212 0.39108595
v -0.5208867 -0.42021212 0.4150823
v -0.2184086 -0.4202122 0.39108595
v -0.5208867 -0.42021212 0.39108595
v -0.5208867 0.844065 0.39108595
v -0.2184086 0.844065 0.39108595
v 0.5305522 -0.42021206 0.39108595
v 0.20339397 -0.42021206 0.39108595
v 0.20339397 0.8440651 0.39108595
v 0.5305522 0.8440651 0.39108595
v 0.5305522 -0.42021206 0.4150823
v 0.5305522 -0.42021206 0.39108595
v 0.5305522 0.8440651 0.39108595
v 0.5305522 0.8440651 0.4150823
v 0.20339397 -0.42021206 0.4150823
v 0.20339397 -0.42021206 0.39108595
v 0.5305522 -0.42021206 0.39108595
v 0.5305522 -0.42021206 0.4150823
v -0.2184086 0.844065 0.4150823
v -0.2184086 0.844065 0.39108595
v -0.5208867 0.844065 0.39108595
v -0.5208867 0.844065 0.4150823
v -0.5208867 -0.42021212 0.4150823
v -0.5208867 -0.42021212 0.39108595
v -0.2184086 -0.4202122 0.39108595
v -0.2184086 -0.4202122 0.4150823
v -0.2184086 -0.4202122 0.4150823
v -0.2184086 -0.4202122 0.39108595
v -0.2184086 0.844065 0.39108595
v -0.2184086 0.844065 0.4150823
v 0.20339397 0.8440651 0.4150823
v 0.20339397 0.8440651 0.39108595
v 0.20339397 -0.42021206 0.39108595
v 0.20339397 -0.42021206 0.4150823
v 0.56782246 -0.8666804 0.4167097
v 0.56782246 -0.8666804 0.39888087
v 0.56782246 -0.6698135 0.39888087
v 0.56782246 -0.6698135 0.4167097
v 0.45235282 -0.66981345 0.39888084
v 0.56782246 -0.6698135 0.39888087
v 0.56782246 -0.8666804 0.39888087
v 0.06111053 -0.8666802 0.39888084
v 0.17330602 -0.66981345 0.39888084
v 0.06111053 -0.66981345 0.39888084
v -0.061464857 -0.6698135 0.39888084
v -0.061464857 -0.8666804 0.39888084
v -0.18646698 -0.6698135 0.39888075
v -0.5720607 -0.8666804 0.39888087
v -0.44446307 -0.6698135 0.39888084
v -0.5720607 -0.6698135 0.39888087
v 0.17330602 -0.66981345 0.41670966
v 0.17330602 -0.66981345 0.39888084
v 0.06111053 -0.66981345 0.39888084
v 0.06111053 -0.66981345 0.41670966
v 0.45235282 -0.66981345 0.41670966
v 0.45235282 -0.66981345 0.39888084
v -0.061464857 -0.6698135 0.39888084
v -0.061464857 -0.6698135 0.41670966
v -0.18646698 -0.6698135 0.39888075
v -0.18646698 -0.6698135 0.41670957
v -0.44446307 -0.6698135 0.39888084
v -0.44446307 -0.6698135 0.41670966
v -0.5720607 -0.6698135 0.39888087
v -0.5720607 -0.6698135 0.4167097
v 0.56782246 -0.6698135 0.4167097
v 0.56782246 -0.6698135 0.39888087
v -0.061464857 -0.8666804 0.41670966
v -0.061464857 -0.8666804 0.39888084
v 0.06111053 -0.8666802 0.39888084
v 0.06111053 -0.8666802 0.41670966
v -0.5720607 -0.8666804 0.4167097
v -0.5720607 -0.8666804 0.39888087
v 0.56782246 -0.8666804 0.39888087
v 0.56782246 -0.8666804 0.4167097
v -0.5720607 -0.6698135 0.4167097
v -0.5720607 -0.6698135 0.39888087
v -0.5720607 -0.8666804 0.39888087
v -0.5720607 -0.8666804 0.4167097
v -0.061685655 -1.166045 0.41670966
v -0.06168567 -1.1731733 0.40008262
v 0.061358307 -1.1731733 0.40008262
v 0.061358288 -1.166045 0.41670966
v -0.5742333 -1.1660451 0.4167097
v -0.5742334 -1.1731735 0.40008265
v 0.5700074 -1.1731735 0.40008265
v 0.5700072 -1.1660451 0.4167097
v 0.5700073 -0.95620173 0.40008265
v 0.5700074 -1.1731735 0.40008265
v 0.061358307 -1.1731733 0.40008262
v 0.061358307 -0.9562016 0.40008262
v -0.06168567 -0.95620173 0.40008262
v -0.06168567 -1.1731733 0.40008262
v -0.5742335 -0.95620173 0.40008265
v -0.5742334 -1.1731735 0.40008265
v 0.5700072 -1.1660451 0.4167097
v 0.5700074 -1.1731735 0.40008265
v 0.5700073 -0.95620173 0.40008265
v 0.5700072 -0.9633302 0.4167097
v 0.5700072 -0.9633302 0.4167097
v 0.5700073 -0.95620173 0.40008265
v 0.061358307 -0.9562016 0.40008262
v 0.061358288 -0.96333 0.41670966
v -0.06168567 -0.95620173 0.40008262
v -0.061685655 -0.9633302 0.41670966
v -0.5742335 -0.95620173 0.40008265
v -0.5742334 -0.9633302 0.4167097
v -0.5742334 -0.9633302 0.4167097
v -0.5742335 -0.95620173 0.40008265
v -0.5742334 -1.1731735 0.40008265
v -0.5742333 -1.1660451 0.4167097
vn -0.92706513 -0.3749003 0
vn -0.92706513 -0.3749003 0
vn -0.92706513 -0.3749003 0
vn -0.92706513 -0.3749003 0
vn 0.0052956254 -0.154679 -0.98795056
vn 0.0052956254 -0.154679 -0.98795056
vn 0.0052956254 -0.154679 -0.98795056
vn 0.0052956254 -0.154679 -0.98795056
vn -2.1993496E-07 -0.13170694 -0.99128866
vn -2.1993496E-07 -0.13170694 -0.99128866
vn -0 -0.13170747 -0.99128854
vn -0 -0.13170747 -0.99128854
vn -0 -0.1317083 -0.9912884
vn -0 -0.1317083 -0.9912884
vn -0 -0.13170731 -0.99128866
vn -0 -0.13170731 -0.99128866
vn -0 -0.13170731 -0.99128866
vn -0 -0.13170731 -0.99128866
vn 3.8837496E-07 -0.13170755 -0.99128854
vn 3.8837496E-07 -0.13170755 -0.99128854
vn -0.0054012653 -0.15474764 -0.98793924
vn -0.0054012653 -0.15474764 -0.98793924
vn -0.0054012653 -0.15474764 -0.98793924
vn -0.0054012653 -0.15474764 -0.98793924
vn 0.9267051 -0.37578925 0
vn 0.9267051 -0.37578925 0
vn 0.9267051 -0.37578925 0
vn 0.9267051 -0.37578925 0
vn -0.0054012686 -0.15474732 0.98793936
vn -0.0054012686 -0.15474732 0.98793936
vn -0.0054012686 -0.15474732 0.98793936
vn -0.0054012686 -0.15474732 0.98793936
vn 1.941875E-07 -0.13170698 0.99128866
vn 1.941875E-07 -0.13170698 0.99128866
vn -0 -0.13170804 0.99128854
vn -0 -0.13170804 0.99128854
vn -0 -0.13170846 0.9912884
vn -0 -0.13170846 0.9912884
vn -0 -0.13170813 0.99128854
vn -0 -0.13170813 0.99128854
vn -0 -0.13170813 0.99128854
vn -0 -0.13170813 0.99128854
vn -4.3986932E-07 -0.13170655 0.99128866
vn -4.3986932E-07 -0.13170655 0.99128866
vn 0.0052956245 -0.15467885 0.98795056
vn 0.0052956245 -0.15467885 0.98795056
vn 0.0052956245 -0.15467885 0.98795056
vn 0.0052956245 -0.15467885 0.98795056
vn -1.0838909E-06 -1 0
vn -1.0838909E-06 -1 0
vn -1.0838909E-06 -1 0
vn -1.0838909E-06 -1 0
vn 1.7587098E-07 1 0
vn 1.7587098E-07 1 0
vn 1.7587098E-07 1 0
vn 1.7587098E-07 1 0
vn 6.4048794E-07 1 0
vn 6.4048794E-07 1 0
vn -1.3910133E-06 1 0
vn -1.3910133E-06 1 0
vn -0 1 0
vn -0 1 0
vn 1.500057E-06 1 0
vn 1.500057E-06 1 0
vn 1.500057E-06 1 0
vn 1.500057E-06 1 0
vn -7.354519E-07 1 0
vn -7.354519E-07 1 0
vn -1.724497E-07 1 0
vn -1.724497E-07 1 0
vn -1.724497E-07 1 0
vn -1.724497E-07 1 0
vn -0.004137377 -0.24363641 0.9698579
vn -0.004137377 -0.24363641 0.9698579
vn -0.004137377 -0.24363641 0.9698579
vn -0.004137377 -0.24363641 0.9698579
vn 1.6399616E-07 -0.25494042 0.96695673
vn 1.6399616E-07 -0.25494042 0.96695673
vn -0 -0.25493965 0.966957
vn -0 -0.25493965 0.966957
vn -0 -0.25493985 0.96695685
vn -0 -0.25493985 0.96695685
vn -1.802881E-07 -0.25494027 0.96695673
vn -1.802881E-07 -0.25494027 0.96695673
vn -1.802881E-07 -0.25494027 0.96695673
vn -1.802881E-07 -0.25494027 0.96695673
vn -1.8223864E-07 -0.25494036 0.96695673
vn -1.8223864E-07 -0.25494036 0.96695673
vn 0.004052477 -0.24362998 0.9698598
vn 0.004052477 -0.24362998 0.9698598
vn 0.004052477 -0.24362998 0.9698598
vn 0.004052477 -0.24362998 0.9698598
vn 0.87706494 -0.48037186 0
vn 0.87706494 -0.48037186 0
vn 0.87706494 -0.48037186 0
vn 0.87706494 -0.48037186 0
vn 0.004052478 -0.24363004 -0.9698598
vn 0.004052478 -0.24363004 -0.9698598
vn 0.004052478 -0.24363004 -0.9698598
vn 0.004052478 -0.24363004 -0.9698598
vn -1.8223884E-07 -0.2549404 -0.96695673
vn -1.8223884E-07 -0.2549404 -0.96695673
vn -1.8028808E-07 -0.25493997 -0.96695685
vn -1.8028808E-07 -0.25493997 -0.96695685
vn -0 -0.25493985 -0.96695685
vn -0 -0.25493985 -0.96695685
vn 1.6274046E-07 -0.25494003 -0.96695685
vn 1.6274046E-07 -0.25494003 -0.96695685
vn 1.6274046E-07 -0.25494003 -0.96695685
vn 1.6274046E-07 -0.25494003 -0.96695685
vn 1.6399602E-07 -0.25493985 -0.96695685
vn 1.6399602E-07 -0.25493985 -0.96695685
vn -0.004137376 -0.24363633 -0.9698579
vn -0.004137376 -0.24363633 -0.9698579
vn -0.004137376 -0.24363633 -0.9698579
vn -0.004137376 -0.24363633 -0.9698579
vn -0.8772429 -0.4800467 0
vn -0.8772429 -0.4800467 0
vn -0.8772429 -0.4800467 0
vn -0.8772429 -0.4800467 0
vn -1 0 0
vn -1 0 0
vn -1 0 0
vn -1 0 0
vn -1.2732241E-07 0 -1
vn -1.2732241E-07 0 -1
vn -1.2732241E-07 0 -1
vn -1.2732241E-07 0 -1
vn -2.2014152E-07 0 -1
vn -2.2014152E-07 0 -1
vn -0 0 -1
vn -0 0 -1
vn -0 0 -1
vn -0 0 -1
vn -0 0 -1
vn -0 0 -1
vn -0 0 -1
vn -0 0 -1
vn 1.9921715E-07 0 -1
vn 1.9921715E-07 0 -1
vn 1.2984839E-07 0 -1
vn 1.2984839E-07 0 -1
vn 1.2984839E-07 0 -1
vn 1.2984839E-07 0 -1
vn 1 0 0
vn 1 0 0
vn 1 0 0
vn 1 0 0
vn 1.2984844E-07 0 1
vn 1.2984844E-07 0 1
vn 1.2984844E-07 0 1
vn 1.2984844E-07 0 1
vn 3.984343E-07 0 1
vn 3.984343E-07 0 1
vn -2.0335368E-07 0 1
vn -2.0335368E-07 0 1
vn -0 0 1
vn -0 0 1
vn 2.265656E-07 0 1
vn 2.265656E-07 0 1
vn 2.265656E-07 0 1
vn 2.265656E-07 0 1
vn -2.2014143E-07 0 1
vn -2.2014143E-07 0 1
vn -1.2732238E-07 0 1
vn -1.2732238E-07 0 1
vn -1.2732238E-07 0 1
vn -1.2732238E-07 0 1
vn -0 -0.24173218 0.97034293
vn -0 -0.24173218 0.97034293
vn -0 -0.24173218 0.97034293
vn -0 -0.24173218 0.97034293
vn 3.7629692E-07 -0.24173401 0.97034264
vn 3.7629692E-07 -0.24173401 0.97034264
vn -1.8697183E-07 -0.24173366 0.97034264
vn -1.8697183E-07 -0.24173366 0.97034264
vn -0 -0.24173486 0.9703424
vn -0 -0.24173486 0.9703424
vn 2.0719037E-07 -0.24173522 0.9703423
vn 2.0719037E-07 -0.24173522 0.9703423
vn 2.0719037E-07 -0.24173522 0.9703423
vn 2.0719037E-07 -0.24173522 0.9703423
vn -4.1803668E-07 -0.2417343 0.9703425
vn -4.1803668E-07 -0.2417343 0.9703425
vn -0 -0.24173288 0.9703428
vn -0 -0.24173288 0.9703428
vn -0 -0.24173288 0.9703428
vn -0 -0.24173288 0.9703428
vn 0.8639614 -0.50355816 0
vn 0.8639614 -0.50355816 0
vn 0.8639614 -0.50355816 0
vn 0.8639614 -0.50355816 0
vn -0 -0.2417327 -0.97034293
vn -0 -0.2417327 -0.97034293
vn -0 -0.2417327 -0.97034293
vn -0 -0.2417327 -0.97034293
vn -2.0901832E-07 -0.2417349 -0.9703424
vn -2.0901832E-07 -0.2417349 -0.9703424
vn -0 -0.24173339 -0.9703427
vn -0 -0.24173339 -0.9703427
vn -0 -0.24173434 -0.9703425
vn -0 -0.24173434 -0.9703425
vn -0 -0.24173433 -0.9703425
vn -0 -0.24173433 -0.9703425
vn -0 -0.24173433 -0.9703425
vn -0 -0.24173433 -0.9703425
vn 1.881484E-07 -0.24173532 -0.9703423
vn 1.881484E-07 -0.24173532 -0.9703423
vn -0 -0.24173309 -0.9703428
vn -0 -0.24173309 -0.9703428
vn -0 -0.24173309 -0.9703428
vn -0 -0.24173309 -0.9703428
vn -0.8643293 -0.5029263 0
vn -0.8643293 -0.5029263 0
vn -0.8643293 -0.5029263 0
vn -0.8643293 -0.5029263 0
vn -1 -4.3214357E-07 0
vn -1 -4.3214357E-07 0
vn -1 -4.3214357E-07 0
vn -1 -4.3214357E-07 0
vn -1 0 0
vn -1 0 0
vn -1 4.3214408E-07 0
vn -1 4.3214408E-07 0
vn -1 0 0
vn -1 0 0
vn -1 0 0
vn -1 0 0
vn -1 0 1.1225723E-07
vn -1 0 1.1225723E-07
vn -1 0 0
vn -1 0 0
vn -1 0 0
vn -1 0 0
vn -1.2732228E-07 -4.2463034E-07 -1
vn -1.2732228E-07 -4.2463034E-07 -1
vn -1.2732228E-07 -4.2463034E-07 -1
vn -1.2732228E-07 -4.2463034E-07 -1
vn -2.201415E-07 -3.6709423E-07 -1
vn -2.201415E-07 -3.6709423E-07 -1
vn -2.2014132E-07 0 -1
vn -2.2014132E-07 0 -1
vn -1.2732247E-07 0 -1
vn -2.2014083E-07 3.6709483E-07 -1
vn -2.2014083E-07 3.6709483E-07 -1
vn -2.2014163E-07 0 -1
vn -1.2732252E-07 0 -1
vn -2.2014163E-07 0 -1
vn -1.2732252E-07 0 -1
vn -1.2732252E-07 0 -1
vn -1.2732252E-07 0 -1
vn -2.2014142E-07 0 -1
vn -2.2014142E-07 0 -1
vn -2.2014146E-07 0 -1
vn -2.2014146E-07 0 -1
vn -1.950152E-07 0.037600763 -0.99929285
vn -1.950152E-07 0.037600763 -0.99929285
vn -1.950152E-07 0.037600763 -0.99929285
vn -1.950152E-07 0.037600763 -0.99929285
vn -0 0.037600327 -0.99929285
vn -0 0.037600327 -0.99929285
vn -1.2732251E-07 0 -1
vn -1.2732238E-07 0 -1
vn -0 0 -1
vn -0 0 -1
vn -0 0 -1
vn -0 0 -1
vn -0 0 -1
vn -0 0 -1
vn -0 0 -1
vn -0 0.03760031 -0.99929285
vn -0 0.03760031 -0.99929285
vn -0 0.03760031 -0.99929285
vn -0 0.03760031 -0.99929285
vn -0 0 -1
vn -0 0 -1
vn -0 0 -1
vn -0 0 -1
vn -0 0 -1
vn -0 0.037601154 -0.99929285
vn -0 0.037601154 -0.99929285
vn -0 0 -1
vn -0 -1.1796034E-06 -1
vn -0 2.3116907E-07 -1
vn -0 2.3116907E-07 -1
vn -0 -2.31169E-07 -1
vn -1.01676775E-07 -5.104935E-07 -1
vn -0 -2.31169E-07 -1
vn -1.01676775E-07 -5.104935E-07 -1
vn -1.01676775E-07 -5.104935E-07 -1
vn -1.01676775E-07 -5.104935E-07 -1
vn -0 0 -1
vn -0 0 -1
vn -0 0 -1
vn -1.0167695E-07 5.1049386E-07 -1
vn 1.9921707E-07 0 -1
vn 1.9921707E-07 0 -1
vn 1.2984825E-07 4.895402E-07 -1
vn 1.2984829E-07 -4.895395E-07 -1
vn 1.2984825E-07 4.895402E-07 -1
vn 1.2984843E-07 0 -1
vn 1.2984843E-07 0 -1
vn 1.2984843E-07 0 -1
vn 1.2984843E-07 0 -1
vn 1.298484E-07 0 -1
vn 1.298484E-07 0 -1
vn 1.2984852E-07 0 -1
vn 1.2984852E-07 0 -1
vn -0 0.03760019 -0.99929285
vn -0 0.03760019 -0.99929285
vn -0 0.03760019 -0.99929285
vn -0 0.03760019 -0.99929285
vn 1.2984829E-07 -4.895395E-07 -1
vn 1.2984829E-07 -4.895395E-07 -1
vn 1.2984829E-07 -4.895395E-07 -1
vn 1.298484E-07 0 -1
vn 1.298484E-07 0 -1
vn 1.9921703E-07 0 -1
vn 1.9921703E-07 0 -1
vn 1.9921714E-07 0 -1
vn 1.9921714E-07 0 -1
vn 1.9921698E-07 1.8489608E-07 -1
vn 1.9921721E-07 0 -1
vn 1.7647913E-07 0.037600745 -0.99929285
vn 1.9921667E-07 3.899767E-07 -1
vn 1 -8.6428713E-07 0
vn 1 -8.6428713E-07 0
vn 1 -8.6428713E-07 0
vn 1 -8.6428713E-07 0
vn 1 0 0
vn 1 0 0
vn 1 8.6428815E-07 0
vn 1 8.6428815E-07 0
vn 1 0 0
vn 1 0 0
vn 1 0 0
vn 1 0 0
vn 1 0 0
vn 1 0 0
vn 1 0 0
vn 1 0 0
vn 1 0 0
vn 1 0 0
vn -0 -4.51883E-07 1
vn -0 -4.51883E-07 1
vn -0 -4.51883E-07 1
vn -0 -4.51883E-07 1
vn 1.298485E-07 0 1
vn 3.9843405E-07 0 1
vn 3.9843405E-07 0 1
vn 3.9843405E-07 0 1
vn -0 4.5188352E-07 1
vn -0 4.5188352E-07 1
vn 1.2984842E-07 0 1
vn 1.2984842E-07 0 1
vn 1.2984842E-07 0 1
vn 1.2984842E-07 0 1
vn 3.9843403E-07 0 1
vn 3.9843403E-07 0 1
vn -0 -2.656834E-07 1
vn 1.298485E-07 0 1
vn -0 -2.656834E-07 1
vn -0 -2.656834E-07 1
vn -0 -2.656834E-07 1
vn -0 0 1
vn -0 0 1
vn -1.2732251E-07 0 1
vn -1.2732238E-07 0 1
vn -1.2732251E-07 0 1
vn -1.2732251E-07 0 1
vn -1.2732251E-07 0 1
vn -1.2732238E-07 0 1
vn -1.2732247E-07 0 1
vn -1.2732247E-07 0 1
vn -1.2732247E-07 0 1
vn -1.2732247E-07 0 1
vn 1.2984849E-07 0 1
vn -0 4.800171E-07 1
vn -0 4.800171E-07 1
vn -0 -4.800164E-07 1
vn -0 -4.800164E-07 1
vn -0 -4.800164E-07 1
vn -0 -4.800164E-07 1
vn -1.2732241E-07 0 1
vn -1.2732241E-07 0 1
vn -2.2014117E-07 0 1
vn -2.2014117E-07 0 1
vn 2.2656546E-07 0 1
vn 2.2656546E-07 0 1
vn -0 0 1
vn -0 -2.3116883E-07 1
vn -0 0 1
vn -0 -2.3116883E-07 1
vn -0 -2.3116883E-07 1
vn -0 -2.3116883E-07 1
vn -0 2.3116908E-07 1
vn -0 2.3116908E-07 1
vn 2.2656553E-07 0 1
vn -0 0 1
vn 2.2656553E-07 0 1
vn 2.2656553E-07 0 1
vn 2.2656553E-07 0 1
vn -0 0 1
vn -2.0335352E-07 0 1
vn -2.0335352E-07 0 1
vn -2.0335366E-07 0 1
vn -2.0335366E-07 0 1
vn -2.2014149E-07 0 1
vn -2.2014149E-07 0 1
vn 1.1053946E-06 -1 0
vn 1.1053946E-06 -1 0
vn 1.1053946E-06 -1 0
vn 1.1053946E-06 -1 0
vn -0 0.06258879 0.9980394
vn -0 0.06258879 0.9980394
vn -0 0.06258879 0.9980394
vn -0 0.06258879 0.9980394
vn -0 0.06258832 0.9980394
vn -0 0.06258832 0.9980394
vn -2.0276771E-07 0.06258825 0.9980394
vn -2.0276771E-07 0.06258825 0.9980394
vn -2.0276771E-07 0.06258825 0.9980394
vn -2.0276771E-07 0.06258825 0.9980394
vn 2.067904E-07 0.06258871 0.9980394
vn 2.067904E-07 0.06258871 0.9980394
vn -0.9932066 0.116364114 0
vn -0.9932066 0.116364114 0
vn -0.9932066 0.116364114 0
vn -0.9932066 0.116364114 0
vn 0.9931797 0.116594106 0
vn 0.9931797 0.116594106 0
vn 0.9931797 0.116594106 0
vn 0.9931797 0.116594106 0
vn 1.2984849E-07 0 1
vn 1.2984849E-07 0 1
vn 3.0815067E-07 -0.16788085 0.9858073
vn 3.0815067E-07 -0.16788085 0.9858073
vn 3.0815067E-07 -0.16788085 0.9858073
vn 3.0815067E-07 -0.16788085 0.9858073
vn 0.96121854 -0.27578792 0
vn 0.96121854 -0.27578792 0
vn 0.96121854 -0.27578792 0
vn 0.96121854 -0.27578792 0
vn -0 -0.09157427 -0.9957983
vn -0 -0.09157427 -0.9957983
vn -0 -0.09157427 -0.9957983
vn -0 -0.09157427 -0.9957983
vn -0.95293254 -0.3031823 0
vn -0.95293254 -0.3031823 0
vn -0.95293254 -0.3031823 0
vn -0.95293254 -0.3031823 0
vn -1.6360293E-07 -0.15149781 0.9884575
vn -1.6360293E-07 -0.15149781 0.9884575
vn -1.6360293E-07 -0.15149781 0.9884575
vn -1.6360293E-07 -0.15149781 0.9884575
vn 1.2438728E-07 -0.101648934 -0.99482036
vn 1.2438728E-07 -0.101648934 -0.99482036
vn 1.2438728E-07 -0.101648934 -0.99482036
vn 1.2438728E-07 -0.101648934 -0.99482036
vn -0.97818494 0.20773588 0
vn -0.97818494 0.20773588 0
vn -0.97818494 0.20773588 0
vn -0.97818494 0.20773588 0
vn 1 0 -1.4470892E-07
vn 1 0 -1.4470892E-07
vn 1 0 -1.4470892E-07
vn 1 0 -1.4470892E-07
vn -0 -1 -1.5634767E-07
vn -0 -1 -1.5634767E-07
vn -0 -1 -1.5634767E-07
vn -0 -1 -1.5634767E-07
vn -0 -1 -1.5634767E-07
vn -0 -1 -1.5634767E-07
vn -0 -1 -1.5634767E-07
vn -0 -1 -1.5634767E-07
vn -0 -1 -1.5634767E-07
vn -0 -1 -1.5634767E-07
vn -0 -1 -1.5634767E-07
vn -0 -1 -1.5634767E-07
vn -0 -1 -1.5634767E-07
vn -0 -1 -1.5634767E-07
vn -0 -1 -1.5634767E-07
vn -0 -1 -1.5634767E-07
vn 9.0423947E-07 0.23235345 0.97263134
vn 9.0423947E-07 0.23235345 0.97263134
vn 9.0423947E-07 0.23235345 0.97263134
vn 9.0423947E-07 0.23235345 0.97263134
vn 1.16310744E-07 0.2323529 0.97263145
vn 1.16310744E-07 0.2323529 0.97263145
vn -7.1886825E-07 0.23235403 0.9726313
vn -7.1886825E-07 0.23235403 0.9726313
vn -0 0.23235513 0.97263104
vn -0 0.23235513 0.97263104
vn -0 0.23235513 0.97263104
vn -0 0.23235513 0.97263104
vn 7.9660447E-07 0.23235558 0.9726309
vn 7.9660447E-07 0.23235558 0.9726309
vn -8.036319E-07 0.23235449 0.9726313
vn -8.036319E-07 0.23235449 0.9726313
vn -1.14048014E-07 0.23235355 0.97263134
vn -1.14048014E-07 0.23235355 0.97263134
vn -1.14048014E-07 0.23235355 0.97263134
vn -1.14048014E-07 0.23235355 0.97263134
vn 1.1631068E-07 0.23235379 -0.97263134
vn 1.1631068E-07 0.23235379 -0.97263134
vn 1.1631068E-07 0.23235379 -0.97263134
vn 1.1631068E-07 0.23235379 -0.97263134
vn 3.6169556E-07 0.2323554 -0.9726309
vn 3.6169556E-07 0.2323554 -0.9726309
vn -3.5943418E-07 0.23235466 -0.97263116
vn -3.5943418E-07 0.23235466 -0.97263116
vn -0 0.23235464 -0.97263116
vn -0 0.23235464 -0.97263116
vn -0 0.23235464 -0.97263116
vn -0 0.23235464 -0.97263116
vn 3.9830223E-07 0.23235379 -0.97263134
vn 3.9830223E-07 0.23235379 -0.97263134
vn -4.0181587E-07 0.23235504 -0.97263104
vn -4.0181587E-07 0.23235504 -0.97263104
vn -4.0181587E-07 0.23235504 -0.97263104
vn -4.0181587E-07 0.23235504 -0.97263104
vn -1.1404806E-07 0.23235331 -0.97263134
vn -1.1404806E-07 0.23235331 -0.97263134
vn 0.8729091 0.4878828 0
vn 0.8729091 0.4878828 0
vn 0.8729091 0.4878828 0
vn 0.8729091 0.4878828 0
vn -0.8732581 0.4872579 0
vn -0.8732581 0.4872579 0
vn -0.8732581 0.4872579 0
vn -0.8732581 0.4872579 0
vn -1 -4.3214314E-07 0
vn -1 -4.3214314E-07 0
vn -1 -4.3214314E-07 0
vn -1 -4.3214314E-07 0
vn -1.2732235E-07 4.2463097E-07 -1
vn 2.2656552E-07 0 -1
vn 2.2656552E-07 0 -1
vn 1.13282816E-07 6.1598985E-07 -1
vn -0 0 -1
vn -0 0 -1
vn -0 0 -1
vn -0 0 -1
vn -0 0.037600435 -0.99929285
vn 0.9730592 0.2305555 -1.4506143E-07
vn 0.9730592 0.2305555 -1.4506143E-07
vn 0.9730592 0.2305555 -1.4506143E-07
vn 0.9730592 0.2305555 -1.4506143E-07
vn 1.2984863E-07 0 -1
vn 1.2984863E-07 0 -1
vn 1.2984863E-07 0 -1
vn 1.2984863E-07 0 -1
vn -1 0 0
vn -1 0 0
vn -1 0 0
vn -1 0 0
vn 1.2984857E-07 0 1
vn 1.2984857E-07 0 1
vn 1.2984857E-07 0 1
vn 1.2984857E-07 0 1
vn -1 2.2899108E-07 0
vn -1 2.2899108E-07 0
vn -1 2.2899108E-07 0
vn -1 2.2899108E-07 0
vn -1.2732248E-07 0 1
vn -1.2732248E-07 0 1
vn -1.2732248E-07 0 1
vn -1.2732248E-07 0 1
vn -1.2732248E-07 0 -1
vn -1.2732248E-07 0 -1
vn -1.2732248E-07 0 -1
vn -1.2732248E-07 0 -1
vn 1 0 0
vn 1 0 0
vn 1 0 0
vn 1 0 0
vn -1 0 0
vn -1 0 0
vn -1 0 0
vn -1 0 0
vn -1 0 0
vn -1 0 0
vn -1 0 0
vn -1 0 0
vn -1 4.3214408E-07 0
vn -1 4.3214408E-07 0
vn -1 4.3214408E-07 0
vn -1 4.3214408E-07 0
vn -2.6293685E-07 1 0
vn -2.6293685E-07 1 0
vn -2.6293685E-07 1 0
vn -2.6293685E-07 1 0
vn 1.3598232E-07 1 0
vn 1.3598232E-07 1 0
vn -1.2262385E-06 1 0
vn -1.2262385E-06 1 0
vn -1.2262385E-06 1 0
vn -1.2262385E-06 1 0
vn 4.4656176E-07 1 0
vn 4.4656176E-07 1 0
vn 1.1583523E-06 1 0
vn 1.1583523E-06 1 0
vn 1.1583523E-06 1 0
vn 1.1583523E-06 1 0
vn -4.087462E-07 1 0
vn -4.087462E-07 1 0
vn -4.087462E-07 1 0
vn -4.087462E-07 1 0
vn 2.9586934E-07 1 0
vn 2.9586934E-07 1 0
vn -1.954935E-07 1 0
vn -1.954935E-07 1 0
vn 3.398483E-07 -1.7045762E-07 1
vn 3.398483E-07 -1.7045762E-07 1
vn 3.398483E-07 -1.7045762E-07 1
vn 3.398483E-07 -1.7045762E-07 1
vn 3.398485E-07 1.7045777E-07 1
vn 3.398485E-07 1.7045777E-07 1
vn 3.398485E-07 1.7045777E-07 1
vn 3.398485E-07 1.7045777E-07 1
vn -3.3021178E-07 1.9950801E-07 1
vn -4.4028266E-07 0 1
vn -3.3021178E-07 1.9950801E-07 1
vn -4.4028266E-07 0 1
vn -4.4028266E-07 0 1
vn -4.4028266E-07 0 1
vn -3.3021198E-07 -1.9950771E-07 1
vn -3.3021198E-07 -1.9950771E-07 1
vn 2.9882574E-07 -2.4530252E-07 1
vn 2.9882574E-07 -2.4530252E-07 1
vn 2.9882574E-07 -2.4530252E-07 1
vn 2.9882574E-07 -2.4530252E-07 1
vn 2.988258E-07 2.4530317E-07 1
vn 2.988258E-07 2.4530317E-07 1
vn 2.988258E-07 2.4530317E-07 1
vn 2.988258E-07 2.4530317E-07 1
vn -3.0503028E-07 5.56385E-07 1
vn -4.067075E-07 0 1
vn -3.0503028E-07 5.56385E-07 1
vn -4.067075E-07 0 1
vn -4.067075E-07 0 1
vn -4.067075E-07 0 1
vn -3.0503074E-07 -5.563837E-07 1
vn -3.0503074E-07 -5.563837E-07 1
vn -2.9464957E-07 1 0
vn -2.9464957E-07 1 0
vn -2.9464957E-07 1 0
vn -2.9464957E-07 1 0
vn -1.2172451E-07 1 0
vn -1.2172451E-07 1 0
vn -1.2172451E-07 1 0
vn -1.2172451E-07 1 0
vn 1 -4.3214314E-07 0
vn 1 -4.3214314E-07 0
vn 1 -4.3214314E-07 0
vn 1 -4.3214314E-07 0
vn 1 4.3214408E-07 0
vn 1 4.3214408E-07 0
vn 1 4.3214408E-07 0
vn 1 4.3214408E-07 0
vn -1.4040186E-06 -1 0
vn -1.4040186E-06 -1 0
vn -1.4040186E-06 -1 0
vn -1.4040186E-06 -1 0
vn 5.0355635E-07 -1 0
vn 5.0355635E-07 -1 0
vn 5.0355635E-07 -1 0
vn 5.0355635E-07 -1 0
vn 1.3561879E-07 1 0
vn 1.3561879E-07 1 0
vn 1.3561879E-07 1 0
vn 1.3561879E-07 1 0
vn -1.317733E-07 1 0
vn -1.317733E-07 1 0
vn -1.317733E-07 1 0
vn -1.317733E-07 1 0
vn 1 0 0
vn 1 0 0
vn 1 0 0
vn 1 0 0
vn 1 0 0
vn 1 0 0
vn 1 0 0
vn 1 0 0
vn -4.5196572E-07 -1 0
vn -4.5196572E-07 -1 0
vn -4.5196572E-07 -1 0
vn -4.5196572E-07 -1 0
vn 4.4277206E-07 -1 0
vn 4.4277206E-07 -1 0
vn 4.4277206E-07 -1 0
vn 4.4277206E-07 -1 0
vn -0 1.1018687E-06 1
vn -0 1.1018687E-06 1
vn -0 1.1018687E-06 1
vn -0 1.1018687E-06 1
vn -0 -2.1161466E-06 1
vn -0 -2.1161466E-06 1
vn -0 1.129049E-07 1
vn -0 1.129049E-07 1
vn -0 0 1
vn -0 0 1
vn -0 -3.198552E-06 1
vn -0 -3.198552E-06 1
vn -0 -3.198552E-06 1
vn -0 -3.198552E-06 1
vn -0 0 1
vn -0 0 1
vn -4.3898578E-07 -1.1353567E-06 1
vn -4.3898578E-07 -1.1353567E-06 1
vn -4.3898578E-07 -1.1353567E-06 1
vn -4.3898578E-07 -1.1353567E-06 1
vn -0 1.1578325E-06 1
vn -0 1.1578325E-06 1
vn 2.1269365E-07 -1.1001868E-06 1
vn 2.1269365E-07 -1.1001868E-06 1
vn -0 1.2649493E-06 1
vn -0 1.2649493E-06 1
vn -2.3761149E-07 1.2290777E-06 1
vn -2.3761149E-07 1.2290777E-06 1
vn -2.3761149E-07 1.2290777E-06 1
vn -2.3761149E-07 1.2290777E-06 1
vn -0 0 1
vn -0 0 1
vn -0 0 1
vn -0 0 1
vn -0 -9.526352E-07 1
vn -0 -9.526352E-07 1
vn -0 0 1
vn -0 0 1
vn -0 0 1
vn -0 0 1
vn 8.174924E-07 -1 0
vn 8.174924E-07 -1 0
vn 8.174924E-07 -1 0
vn 8.174924E-07 -1 0
vn -1.6629734E-07 -1 0
vn -1.6629734E-07 -1 0
vn -0 -1 0
vn -0 -1 0
vn -1 0 0
vn -1 0 0
vn -1 0 0
vn -1 0 0
vn -2.9047177E-07 -1 0
vn -2.9047177E-07 -1 0
vn -2.9047177E-07 -1 0
vn -2.9047177E-07 -1 0
vn 2.8826247E-07 -1 0
vn 2.8826247E-07 -1 0
vn 2.8826247E-07 -1 0
vn 2.8826247E-07 -1 0
vn -1 -2.3520883E-07 0
vn -1 -2.3520883E-07 0
vn -1 -2.3520883E-07 0
vn -1 -2.3520883E-07 0
vn 1 0 0
vn 1 0 0
vn 1 0 0
vn 1 0 0
vn 1 2.3520883E-07 0
vn 1 2.3520883E-07 0
vn 1 2.3520883E-07 0
vn 1 2.3520883E-07 0
vn -0 -1 0
vn -0 -1 0
vn -0 -1 0
vn -0 -1 0
vn 1 0 0
vn 1 0 0
vn 1 0 0
vn 1 0 0
vn -0 0 1
vn -0 0 1
vn -0 0 1
vn -0 0 1
vn -0 0 1
vn -0 0 1
vn -0 0 1
vn -0 0 1
vn -1 0 0
vn -1 0 0
vn -1 0 0
vn -1 0 0
vn -0 1 0
vn -0 1 0
vn -0 1 0
vn -0 1 0
vn -0 -1 0
vn -0 -1 0
vn -0 -1 0
vn -0 -1 0
vn 3.8493081E-07 1 0
vn 3.8493081E-07 1 0
vn 3.8493081E-07 1 0
vn 3.8493081E-07 1 0
vn -1 0 0
vn -1 0 0
vn -1 0 0
vn -1 0 0
vn 1 0 0
vn 1 0 0
vn 1 0 0
vn 1 0 0
vn -1 0 0
vn -1 0 0
vn -1 0 0
vn -1 0 0
vn -0 0 1
vn -0 0 1
vn -0 0 1
vn -0 0 1
vn -0 0 1
vn -0 0 1
vn -0 0 1
vn -0 0 1
vn -0 0 1
vn -0 0 1
vn -0 0 1
vn -0 0 1
vn -0 -1 0
vn -0 -1 0
vn -0 -1 0
vn -0 -1 0
vn -0 -1 0
vn -0 -1 0
vn -3.6275415E-07 -1 0
vn -3.6275415E-07 -1 0
vn -3.6275415E-07 -1 0
vn -3.6275415E-07 -1 0
vn -0 -1 0
vn -0 -1 0
vn 5.870753E-07 -1 0
vn 5.870753E-07 -1 0
vn -1.101123E-06 -1 0
vn -1.101123E-06 -1 0
vn -1.2784847E-06 1 0
vn -1.2784847E-06 1 0
vn -1.2784847E-06 1 0
vn -1.2784847E-06 1 0
vn -0 1 0
vn -0 1 0
vn 2.818239E-07 1 0
vn 2.818239E-07 1 0
vn 1 0 0
vn 1 0 0
vn 1 0 0
vn 1 0 0
vn -0 0.91909564 -0.39403436
vn -0 0.91909564 -0.39403436
vn -0 0.91909564 -0.39403436
vn -0 0.91909564 -0.39403436
vn -3.557171E-07 0.9190939 -0.39403853
vn -3.557171E-07 0.9190939 -0.39403853
vn 3.5844243E-07 0.91909444 -0.39403728
vn 3.5844243E-07 0.91909444 -0.39403728
vn -0 0 1
vn -0 0 1
vn -0 0 1
vn -0 0 1
vn -0 0 1
vn -0 0 1
vn -0 0 1
vn -0 0 1
vn -1 -1.4202105E-07 -6.4062124E-06
vn -1 -1.4202105E-07 -6.4062124E-06
vn -1 -1.4202105E-07 -6.4062124E-06
vn -1 -1.4202105E-07 -6.4062124E-06
vn -4.65413E-07 -0.9190942 -0.3940378
vn -4.65413E-07 -0.9190942 -0.3940378
vn -4.65413E-07 -0.9190942 -0.3940378
vn -4.65413E-07 -0.9190942 -0.3940378
vn 1.6735701E-06 -0.91909456 -0.39403722
vn 1.6735701E-06 -0.91909456 -0.39403722
vn -0 -0.91909385 -0.3940386
vn -0 -0.91909385 -0.3940386
vn 1 4.2606518E-07 -2.135404E-06
vn 1 4.2606518E-07 -2.135404E-06
vn 1 4.2606518E-07 -2.135404E-06
vn 1 4.2606518E-07 -2.135404E-06
g Cube_0
f 3/3/3 2/2/2 1/1/1
f 4/4/4 3/3/3 1/1/1
f 7/7/7 6/6/6 5/5/5
f 8/8/8 7/7/7 5/5/5
f 8/8/8 5/5/5 9/9/9
f 10/10/10 8/8/8 9/9/9
f 10/10/10 9/9/9 11/11/11
f 12/12/12 10/10/10 11/11/11
f 12/12/12 11/11/11 13/13/13
f 14/14/14 12/12/12 13/13/13
f 14/14/14 13/13/13 15/15/15
f 16/16/16 14/14/14 15/15/15
f 16/16/16 15/15/15 17/17/17
f 18/18/18 16/16/16 17/17/17
f 18/18/18 17/17/17 19/19/19
f 20/20/20 18/18/18 19/19/19
f 20/20/20 19/19/19 21/21/21
f 22/22/22 20/20/20 21/21/21
f 22/22/22 21/21/21 23/23/23
f 24/24/24 22/22/22 23/23/23
f 27/27/27 26/26/26 25/25/25
f 28/28/28 27/27/27 25/25/25
f 31/31/31 30/30/30 29/29/29
f 32/32/32 31/31/31 29/29/29
f 32/32/32 29/29/29 33/33/33
f 34/34/34 32/32/32 33/33/33
f 34/34/34 33/33/33 35/35/35
f 36/36/36 34/34/34 35/35/35
f 36/36/36 35/35/35 37/37/37
f 38/38/38 36/36/36 37/37/37
f 38/38/38 37/37/37 39/39/39
f 40/40/40 38/38/38 39/39/39
f 40/40/40 39/39/39 41/41/41
f 42/42/42 40/40/40 41/41/41
f 42/42/42 41/41/41 43/43/43
f 44/44/44 42/42/42 43/43/43
f 44/44/44 43/43/43 45/45/45
f 46/46/46 44/44/44 45/45/45
f 46/46/46 45/45/45 47/47/47
f 48/48/48 46/46/46 47/47/47
f 51/51/51 50/50/50 49/49/49
f 52/52/52 51/51/51 49/49/49
f 55/55/55 54/54/54 53/53/53
f 56/56/56 55/55/55 53/53/53
f 53/53/53 54/54/54 57/57/57
f 54/54/54 58/58/58 57/57/57
f 57/57/57 58/58/58 59/59/59
f 58/58/58 60/60/60 59/59/59
f 59/59/59 60/60/60 61/61/61
f 60/60/60 62/62/62 61/61/61
f 61/61/61 62/62/62 63/63/63
f 62/62/62 64/64/64 63/63/63
f 63/63/63 64/64/64 65/65/65
f 64/64/64 66/66/66 65/65/65
f 65/65/65 66/66/66 67/67/67
f 66/66/66 68/68/68 67/67/67
f 67/67/67 68/68/68 69/69/69
f 68/68/68 70/70/70 69/69/69
f 69/69/69 70/70/70 71/71/71
f 70/70/70 72/72/72 71/71/71
f 75/75/75 74/74/74 73/73/73
f 76/76/76 75/75/75 73/73/73
f 76/76/76 73/73/73 77/77/77
f 78/78/78 76/76/76 77/77/77
f 78/78/78 77/77/77 79/79/79
f 80/80/80 78/78/78 79/79/79
f 80/80/80 79/79/79 81/81/81
f 82/82/82 80/80/80 81/81/81
f 82/82/82 81/81/81 83/83/83
f 84/84/84 82/82/82 83/83/83
f 84/84/84 83/83/83 85/85/85
f 86/86/86 84/84/84 85/85/85
f 86/86/86 85/85/85 87/87/87
f 88/88/88 86/86/86 87/87/87
f 88/88/88 87/87/87 89/89/89
f 90/90/90 88/88/88 89/89/89
f 90/90/90 89/89/89 91/91/91
f 92/92/92 90/90/90 91/91/91
f 95/95/95 94/94/94 93/93/93
f 96/96/96 95/95/95 93/93/93
f 99/99/99 98/98/98 97/97/97
f 100/100/100 99/99/99 97/97/97
f 100/100/100 97/97/97 101/101/101
f 102/102/102 100/100/100 101/101/101
f 102/102/102 101/101/101 103/103/103
f 104/104/104 102/102/102 103/103/103
f 104/104/104 103/103/103 105/105/105
f 106/106/106 104/104/104 105/105/105
f 106/106/106 105/105/105 107/107/107
f 108/108/108 106/106/106 107/107/107
f 108/108/108 107/107/107 109/109/109
f 110/110/110 108/108/108 109/109/109
f 110/110/110 109/109/109 111/111/111
f 112/112/112 110/110/110 111/111/111
f 112/112/112 111/111/111 113/113/113
f 114/114/114 112/112/112 113/113/113
f 114/114/114 113/113/113 115/115/115
f 116/116/116 114/114/114 115/115/115
f 119/119/119 118/118/118 117/117/117
f 120/120/120 119/119/119 117/117/117
f 123/123/123 122/122/122 121/121/121
f 124/124/124 123/123/123 121/121/121
f 127/127/127 126/126/126 125/125/125
f 128/128/128 127/127/127 125/125/125
f 128/128/128 125/125/125 129/129/129
f 130/130/130 128/128/128 129/129/129
f 130/130/130 129/129/129 131/131/131
f 132/132/132 130/130/130 131/131/131
f 132/132/132 131/131/131 133/133/133
f 134/134/134 132/132/132 133/133/133
f 134/134/134 133/133/133 135/135/135
f 136/136/136 134/134/134 135/135/135
f 136/136/136 135/135/135 137/137/137
f 138/138/138 136/136/136 137/137/137
f 138/138/138 137/137/137 139/139/139
f 140/140/140 138/138/138 139/139/139
f 140/140/140 139/139/139 141/141/141
f 142/142/142 140/140/140 141/141/141
f 142/142/142 141/141/141 143/143/143
f 144/144/144 142/142/142 143/143/143
f 147/147/147 146/146/146 145/145/145
f 148/148/148 147/147/147 145/145/145
f 151/151/151 150/150/150 149/149/149
f 152/152/152 151/151/151 149/149/149
f 152/152/152 149/149/149 153/153/153
f 154/154/154 152/152/152 153/153/153
f 154/154/154 153/153/153 155/155/155
f 156/156/156 154/154/154 155/155/155
f 156/156/156 155/155/155 157/157/157
f 158/158/158 156/156/156 157/157/157
f 158/158/158 157/157/157 159/159/159
f 160/160/160 158/158/158 159/159/159
f 160/160/160 159/159/159 161/161/161
f 162/162/162 160/160/160 161/161/161
f 162/162/162 161/161/161 163/163/163
f 164/164/164 162/162/162 163/163/163
f 164/164/164 163/163/163 165/165/165
f 166/166/166 164/164/164 165/165/165
f 166/166/166 165/165/165 167/167/167
f 168/168/168 166/166/166 167/167/167
f 171/171/171 170/170/170 169/169/169
f 172/172/172 171/171/171 169/169/169
f 172/172/172 169/169/169 173/173/173
f 174/174/174 172/172/172 173/173/173
f 174/174/174 173/173/173 175/175/175
f 176/176/176 174/174/174 175/175/175
f 176/176/176 175/175/175 177/177/177
f 178/178/178 176/176/176 177/177/177
f 178/178/178 177/177/177 179/179/179
f 180/180/180 178/178/178 179/179/179
f 180/180/180 179/179/179 181/181/181
f 182/182/182 180/180/180 181/181/181
f 182/182/182 181/181/181 183/183/183
f 184/184/184 182/182/182 183/183/183
f 184/184/184 183/183/183 185/185/185
f 186/186/186 184/184/184 185/185/185
f 186/186/186 185/185/185 187/187/187
f 188/188/188 186/186/186 187/187/187
f 191/191/191 190/190/190 189/189/189
f 192/192/192 191/191/191 189/189/189
f 195/195/195 194/194/194 193/193/193
f 196/196/196 195/195/195 193/193/193
f 196/196/196 193/193/193 197/197/197
f 198/198/198 196/196/196 197/197/197
f 198/198/198 197/197/197 199/199/199
f 200/200/200 198/198/198 199/199/199
f 200/200/200 199/199/199 201/201/201
f 202/202/202 200/200/200 201/201/201
f 202/202/202 201/201/201 203/203/203
f 204/204/204 202/202/202 203/203/203
f 204/204/204 203/203/203 205/205/205
f 206/206/206 204/204/204 205/205/205
f 206/206/206 205/205/205 207/207/207
f 208/208/208 206/206/206 207/207/207
f 208/208/208 207/207/207 209/209/209
f 210/210/210 208/208/208 209/209/209
f 210/210/210 209/209/209 211/211/211
f 212/212/212 210/210/210 211/211/211
f 215/215/215 214/214/214 213/213/213
f 216/216/216 215/215/215 213/213/213
f 219/219/219 218/218/218 217/217/217
f 220/220/220 219/219/219 217/217/217
f 221/221/221 219/219/219 220/220/220
f 222/222/222 221/221/221 220/220/220
f 217/217/217 218/218/218 223/223/223
f 218/218/218 224/224/224 223/223/223
f 223/223/223 224/224/224 225/225/225
f 224/224/224 226/226/226 225/225/225
f 225/225/225 226/226/226 227/227/227
f 226/226/226 228/228/228 227/227/227
f 227/227/227 228/228/228 229/229/229
f 228/228/228 230/230/230 229/229/229
f 229/229/229 230/230/230 231/231/231
f 230/230/230 232/232/232 231/231/231
f 231/231/231 232/232/232 233/233/233
f 232/232/232 234/234/234 233/233/233
f 237/237/237 236/236/236 235/235/235
f 238/238/238 237/237/237 235/235/235
f 238/238/238 235/235/235 239/239/239
f 240/240/240 238/238/238 239/239/239
f 241/241/241 238/238/238 240/240/240
f 242/242/242 241/241/241 240/240/240
f 243/243/243 237/237/237 238/238/238
f 241/241/241 243/243/243 238/238/238
f 239/239/239 235/235/235 244/244/244
f 235/235/235 245/245/245 244/244/244
f 235/235/235 236/236/236 245/245/245
f 244/244/244 245/245/245 246/246/246
f 245/245/245 247/247/247 246/246/246
f 246/246/246 247/247/247 248/248/248
f 247/247/247 249/249/249 248/248/248
f 247/247/247 250/250/250 249/249/249
f 250/250/250 251/251/251 249/249/249
f 248/248/248 249/249/249 252/252/252
f 249/249/249 253/253/253 252/252/252
f 249/249/249 251/251/251 253/253/253
f 252/252/252 253/253/253 254/254/254
f 253/253/253 255/255/255 254/254/254
f 254/254/254 255/255/255 256/256/256
f 255/255/255 257/257/257 256/256/256
f 256/256/256 257/257/257 258/258/258
f 257/257/257 259/259/259 258/258/258
f 257/257/257 260/260/260 259/259/259
f 260/260/260 261/261/261 259/259/259
f 262/262/262 260/260/260 257/257/257
f 255/255/255 262/262/262 257/257/257
f 263/263/263 262/262/262 255/255/255
f 253/253/253 263/263/263 255/255/255
f 251/251/251 263/263/263 253/253/253
f 248/248/248 252/252/252 264/264/264
f 265/265/265 248/248/248 264/264/264
f 265/265/265 264/264/264 266/266/266
f 267/267/267 265/265/265 266/266/266
f 267/267/267 266/266/266 268/268/268
f 268/268/268 266/266/266 269/269/269
f 266/266/266 270/270/270 269/269/269
f 266/266/266 264/264/264 270/270/270
f 269/269/269 270/270/270 271/271/271
f 270/270/270 272/272/272 271/271/271
f 271/271/271 272/272/272 273/273/273
f 272/272/272 274/274/274 273/273/273
f 275/275/275 267/267/267 268/268/268
f 276/276/276 267/267/267 275/275/275
f 277/277/277 276/276/276 275/275/275
f 277/277/277 275/275/275 278/278/278
f 279/279/279 277/277/277 278/278/278
f 271/271/271 273/273/273 280/280/280
f 281/281/281 271/271/271 280/280/280
f 269/269/269 271/271/271 281/281/281
f 282/282/282 269/269/269 281/281/281
f 268/268/268 269/269/269 282/282/282
f 283/283/283 268/268/268 282/282/282
f 275/275/275 268/268/268 283/283/283
f 278/278/278 275/275/275 283/283/283
f 284/284/284 276/276/276 277/277/277
f 285/285/285 284/284/284 277/277/277
f 285/285/285 277/277/277 279/279/279
f 286/286/286 284/284/284 285/285/285
f 287/287/287 286/286/286 285/285/285
f 288/288/288 286/286/286 287/287/287
f 289/289/289 288/288/288 287/287/287
f 289/289/289 287/287/287 290/290/290
f 291/291/291 289/289/289 290/290/290
f 292/292/292 288/288/288 289/289/289
f 293/293/293 292/292/292 289/289/289
f 293/293/293 289/289/289 291/291/291
f 294/294/294 293/293/293 291/291/291
f 295/295/295 285/285/285 279/279/279
f 287/287/287 285/285/285 295/295/295
f 290/290/290 287/287/287 295/295/295
f 290/290/290 295/295/295 296/296/296
f 297/297/297 290/290/290 296/296/296
f 291/291/291 290/290/290 297/297/297
f 297/297/297 296/296/296 298/298/298
f 299/299/299 297/297/297 298/298/298
f 299/299/299 298/298/298 300/300/300
f 300/300/300 298/298/298 301/301/301
f 298/298/298 302/302/302 301/301/301
f 298/298/298 296/296/296 302/302/302
f 301/301/301 302/302/302 303/303/303
f 302/302/302 304/304/304 303/303/303
f 303/303/303 304/304/304 305/305/305
f 304/304/304 306/306/306 305/305/305
f 305/305/305 306/306/306 307/307/307
f 306/306/306 308/308/308 307/307/307
f 307/307/307 308/308/308 309/309/309
f 308/308/308 310/310/310 309/309/309
f 309/309/309 310/310/310 311/311/311
f 310/310/310 312/312/312 311/311/311
f 313/313/313 299/299/299 300/300/300
f 314/314/314 299/299/299 313/313/313
f 315/315/315 314/314/314 313/313/313
f 316/316/316 314/314/314 315/315/315
f 317/317/317 316/316/316 315/315/315
f 316/316/316 318/318/318 314/314/314
f 318/318/318 319/319/319 314/314/314
f 318/318/318 294/294/294 319/319/319
f 294/294/294 291/291/291 319/319/319
f 306/306/306 320/320/320 308/308/308
f 321/321/321 320/320/320 306/306/306
f 304/304/304 321/321/321 306/306/306
f 321/321/321 278/278/278 320/320/320
f 278/278/278 283/283/283 320/320/320
f 320/320/320 283/283/283 322/322/322
f 320/320/320 322/322/322 308/308/308
f 283/283/283 282/282/282 322/322/322
f 308/308/308 322/322/322 310/310/310
f 322/322/322 323/323/323 310/310/310
f 322/322/322 282/282/282 323/323/323
f 282/282/282 281/281/281 323/323/323
f 310/310/310 323/323/323 312/312/312
f 323/323/323 324/324/324 312/312/312
f 323/323/323 281/281/281 324/324/324
f 281/281/281 280/280/280 324/324/324
f 325/325/325 321/321/321 304/304/304
f 302/302/302 325/325/325 304/304/304
f 296/296/296 325/325/325 302/302/302
f 296/296/296 295/295/295 325/325/325
f 295/295/295 279/279/279 325/325/325
f 279/279/279 278/278/278 321/321/321
f 325/325/325 279/279/279 321/321/321
f 328/328/328 327/327/327 326/326/326
f 329/329/329 328/328/328 326/326/326
f 330/330/330 328/328/328 329/329/329
f 331/331/331 330/330/330 329/329/329
f 326/326/326 327/327/327 332/332/332
f 327/327/327 333/333/333 332/332/332
f 332/332/332 333/333/333 334/334/334
f 333/333/333 335/335/335 334/334/334
f 334/334/334 335/335/335 336/336/336
f 335/335/335 337/337/337 336/336/336
f 336/336/336 337/337/337 338/338/338
f 337/337/337 339/339/339 338/338/338
f 338/338/338 339/339/339 340/340/340
f 339/339/339 341/341/341 340/340/340
f 340/340/340 341/341/341 342/342/342
f 341/341/341 343/343/343 342/342/342
f 346/346/346 345/345/345 344/344/344
f 347/347/347 346/346/346 344/344/344
f 348/348/348 346/346/346 347/347/347
f 349/349/349 348/348/348 347/347/347
f 349/349/349 347/347/347 350/350/350
f 351/351/351 349/349/349 350/350/350
f 344/344/344 345/345/345 352/352/352
f 345/345/345 353/353/353 352/352/352
f 352/352/352 353/353/353 354/354/354
f 353/353/353 355/355/355 354/354/354
f 354/354/354 355/355/355 356/356/356
f 355/355/355 357/357/357 356/356/356
f 354/354/354 356/356/356 358/358/358
f 359/359/359 354/354/354 358/358/358
f 356/356/356 357/357/357 360/360/360
f 357/357/357 361/361/361 360/360/360
f 360/360/360 361/361/361 362/362/362
f 360/360/360 362/362/362 363/363/363
f 364/364/364 360/360/360 363/363/363
f 364/364/364 363/363/363 365/365/365
f 366/366/366 364/364/364 365/365/365
f 366/366/366 365/365/365 367/367/367
f 368/368/368 366/366/366 367/367/367
f 368/368/368 367/367/367 369/369/369
f 369/369/369 367/367/367 370/370/370
f 367/367/367 371/371/371 370/370/370
f 372/372/372 368/368/368 369/369/369
f 373/373/373 368/368/368 372/372/372
f 374/374/374 373/373/373 372/372/372
f 375/375/375 373/373/373 374/374/374
f 376/376/376 375/375/375 374/374/374
f 361/361/361 377/377/377 362/362/362
f 378/378/378 375/375/375 376/376/376
f 379/379/379 378/378/378 376/376/376
f 380/380/380 378/378/378 379/379/379
f 381/381/381 380/380/380 379/379/379
f 382/382/382 380/380/380 381/381/381
f 383/383/383 382/382/382 381/381/381
f 384/384/384 382/382/382 383/383/383
f 385/385/385 384/384/384 383/383/383
f 384/384/384 386/386/386 382/382/382
f 386/386/386 387/387/387 382/382/382
f 386/386/386 388/388/388 387/387/387
f 388/388/388 389/389/389 387/387/387
f 388/388/388 390/390/390 389/389/389
f 390/390/390 391/391/391 389/389/389
f 390/390/390 392/392/392 391/391/391
f 392/392/392 393/393/393 391/391/391
f 391/391/391 393/393/393 394/394/394
f 393/393/393 395/395/395 394/394/394
f 394/394/394 395/395/395 396/396/396
f 395/395/395 397/397/397 396/396/396
f 396/396/396 397/397/397 398/398/398
f 397/397/397 399/399/399 398/398/398
f 398/398/398 399/399/399 400/400/400
f 398/398/398 400/400/400 401/401/401
f 402/402/402 398/398/398 401/401/401
f 399/399/399 403/403/403 400/400/400
f 392/392/392 404/404/404 393/393/393
f 404/404/404 405/405/405 393/393/393
f 404/404/404 351/351/351 405/405/405
f 351/351/351 350/350/350 405/405/405
f 399/399/399 406/406/406 403/403/403
f 406/406/406 407/407/407 403/403/403
f 406/406/406 359/359/359 407/407/407
f 359/359/359 358/358/358 407/407/407
f 402/402/402 401/401/401 408/408/408
f 409/409/409 402/402/402 408/408/408
f 409/409/409 408/408/408 373/373/373
f 375/375/375 409/409/409 373/373/373
f 412/412/412 411/411/411 410/410/410
f 413/413/413 412/412/412 410/410/410
f 416/416/416 415/415/415 414/414/414
f 417/417/417 416/416/416 414/414/414
f 417/417/417 414/414/414 418/418/418
f 419/419/419 417/417/417 418/418/418
f 419/419/419 418/418/418 420/420/420
f 421/421/421 419/419/419 420/420/420
f 421/421/421 420/420/420 422/422/422
f 423/423/423 421/421/421 422/422/422
f 416/416/416 424/424/424 415/415/415
f 424/424/424 425/425/425 415/415/415
f 428/428/428 427/427/427 426/426/426
f 429/429/429 428/428/428 426/426/426
f 432/432/432 431/431/431 430/430/430
f 433/433/433 432/432/432 430/430/430
f 377/377/377 435/435/435 434/434/434
f 362/362/362 377/377/377 434/434/434
f 438/438/438 437/437/437 436/436/436
f 439/439/439 438/438/438 436/436/436
f 442/442/442 441/441/441 440/440/440
f 443/443/443 442/442/442 440/440/440
f 446/446/446 445/445/445 444/444/444
f 447/447/447 446/446/446 444/444/444
f 450/450/450 449/449/449 448/448/448
f 451/451/451 450/450/450 448/448/448
f 454/454/454 453/453/453 452/452/452
f 455/455/455 454/454/454 452/452/452
f 458/458/458 457/457/457 456/456/456
f 459/459/459 458/458/458 456/456/456
f 462/462/462 461/461/461 460/460/460
f 463/463/463 462/462/462 460/460/460
f 466/466/466 465/465/465 464/464/464
f 467/467/467 466/466/466 464/464/464
f 470/470/470 469/469/469 468/468/468
f 468/468/468 471/471/471 470/470/470
f 468/468/468 472/472/472 471/471/471
f 468/468/468 473/473/473 472/472/472
f 468/468/468 474/474/474 473/473/473
f 468/468/468 475/475/475 474/474/474
f 468/468/468 476/476/476 475/475/475
f 468/468/468 477/477/477 476/476/476
f 480/480/480 479/479/479 478/478/478
f 483/483/483 482/482/482 481/481/481
f 486/486/486 485/485/485 484/484/484
f 487/487/487 486/486/486 484/484/484
f 486/486/486 488/488/488 485/485/485
f 488/488/488 489/489/489 485/485/485
f 487/487/487 484/484/484 490/490/490
f 491/491/491 487/487/487 490/490/490
f 491/491/491 490/490/490 492/492/492
f 493/493/493 491/491/491 492/492/492
f 493/493/493 492/492/492 494/494/494
f 495/495/495 493/493/493 494/494/494
f 495/495/495 494/494/494 496/496/496
f 497/497/497 495/495/495 496/496/496
f 497/497/497 496/496/496 498/498/498
f 499/499/499 497/497/497 498/498/498
f 499/499/499 498/498/498 500/500/500
f 501/501/501 499/499/499 500/500/500
f 501/501/501 500/500/500 502/502/502
f 503/503/503 501/501/501 502/502/502
f 506/506/506 505/505/505 504/504/504
f 507/507/507 506/506/506 504/504/504
f 506/506/506 508/508/508 505/505/505
f 508/508/508 509/509/509 505/505/505
f 508/508/508 510/510/510 509/509/509
f 510/510/510 511/511/511 509/509/509
f 510/510/510 512/512/512 511/511/511
f 512/512/512 513/513/513 511/511/511
f 512/512/512 514/514/514 513/513/513
f 514/514/514 515/515/515 513/513/513
f 514/514/514 516/516/516 515/515/515
f 516/516/516 517/517/517 515/515/515
f 516/516/516 518/518/518 517/517/517
f 518/518/518 519/519/519 517/517/517
f 518/518/518 520/520/520 519/519/519
f 520/520/520 521/521/521 519/519/519
f 520/520/520 522/522/522 521/521/521
f 522/522/522 523/523/523 521/521/521
f 526/526/526 525/525/525 524/524/524
f 527/527/527 526/526/526 524/524/524
f 530/530/530 529/529/529 528/528/528
f 531/531/531 530/530/530 528/528/528
f 534/534/534 533/533/533 532/532/532
f 535/535/535 534/534/534 532/532/532
f 536/536/536 250/250/250 247/247/247
f 245/245/245 536/536/536 247/247/247
f 236/236/236 536/536/536 245/245/245
f 319/319/319 297/297/297 299/299/299
f 314/314/314 319/319/319 299/299/299
f 319/319/319 291/291/291 297/297/297
f 538/538/538 537/537/537 284/284/284
f 286/286/286 538/538/538 284/284/284
f 538/538/538 239/239/239 537/537/537
f 239/239/239 244/244/244 537/537/537
f 284/284/284 537/537/537 276/276/276
f 537/537/537 539/539/539 276/276/276
f 537/537/537 244/244/244 539/539/539
f 244/244/244 246/246/246 539/539/539
f 540/540/540 538/538/538 286/286/286
f 288/288/288 540/540/540 286/286/286
f 541/541/541 540/540/540 288/288/288
f 292/292/292 541/541/541 288/288/288
f 541/541/541 242/242/242 540/540/540
f 242/242/242 240/240/240 540/540/540
f 240/240/240 239/239/239 538/538/538
f 540/540/540 240/240/240 538/538/538
f 276/276/276 539/539/539 267/267/267
f 539/539/539 265/265/265 267/267/267
f 539/539/539 246/246/246 265/265/265
f 246/246/246 248/248/248 265/265/265
f 264/264/264 542/542/542 270/270/270
f 264/264/264 252/252/252 542/542/542
f 252/252/252 254/254/254 542/542/542
f 270/270/270 542/542/542 272/272/272
f 542/542/542 543/543/543 272/272/272
f 542/542/542 254/254/254 543/543/543
f 254/254/254 256/256/256 543/543/543
f 272/272/272 543/543/543 274/274/274
f 543/543/543 544/544/544 274/274/274
f 543/543/543 256/256/256 544/544/544
f 256/256/256 258/258/258 544/544/544
f 547/547/547 546/546/546 545/545/545
f 548/548/548 547/547/547 545/545/545
f 551/551/551 550/550/550 549/549/549
f 552/552/552 551/551/551 549/549/549
f 555/555/555 554/554/554 553/553/553
f 556/556/556 555/555/555 553/553/553
f 559/559/559 558/558/558 557/557/557
f 560/560/560 559/559/559 557/557/557
f 563/563/563 562/562/562 561/561/561
f 564/564/564 563/563/563 561/561/561
f 567/567/567 566/566/566 565/565/565
f 568/568/568 567/567/567 565/565/565
f 571/571/571 570/570/570 569/569/569
f 572/572/572 571/571/571 569/569/569
f 575/575/575 574/574/574 573/573/573
f 576/576/576 575/575/575 573/573/573
g Cube_1
f 579/579/579 578/578/578 577/577/577
f 580/580/580 579/579/579 577/577/577
f 577/577/577 578/578/578 581/581/581
f 578/578/578 582/582/582 581/581/581
f 581/581/581 582/582/582 583/583/583
f 582/582/582 584/584/584 583/583/583
f 587/587/587 586/586/586 585/585/585
f 588/588/588 587/587/587 585/585/585
f 585/585/585 586/586/586 535/535/535
f 586/586/586 534/534/534 535/535/535
f 591/591/591 590/590/590 589/589/589
f 592/592/592 591/591/591 589/589/589
f 589/589/589 590/590/590 593/593/593
f 590/590/590 594/594/594 593/593/593
f 593/593/593 594/594/594 595/595/595
f 594/594/594 596/596/596 595/595/595
f 595/595/595 596/596/596 597/597/597
f 596/596/596 598/598/598 597/597/597
f 597/597/597 598/598/598 599/599/599
f 598/598/598 600/600/600 599/599/599
f 599/599/599 600/600/600 601/601/601
f 600/600/600 602/602/602 601/601/601
f 601/601/601 602/602/602 603/603/603
f 602/602/602 604/604/604 603/603/603
f 607/607/607 606/606/606 605/605/605
f 608/608/608 607/607/607 605/605/605
f 605/605/605 606/606/606 609/609/609
f 606/606/606 610/610/610 609/609/609
f 611/611/611 607/607/607 608/608/608
f 612/612/612 611/611/611 608/608/608
f 615/615/615 614/614/614 613/613/613
f 616/616/616 615/615/615 613/613/613
f 613/613/613 614/614/614 617/617/617
f 614/614/614 618/618/618 617/617/617
f 617/617/617 618/618/618 619/619/619
f 618/618/618 620/620/620 619/619/619
f 617/617/617 619/619/619 621/621/621
f 622/622/622 617/617/617 621/621/621
f 622/622/622 621/621/621 623/623/623
f 624/624/624 622/622/622 623/623/623
f 625/625/625 622/622/622 624/624/624
f 616/616/616 613/613/613 625/625/625
f 626/626/626 625/625/625 624/624/624
f 627/627/627 625/625/625 626/626/626
f 627/627/627 616/616/616 625/625/625
f 628/628/628 627/627/627 626/626/626
f 631/631/631 630/630/630 629/629/629
f 632/632/632 631/631/631 629/629/629
f 629/629/629 630/630/630 633/633/633
f 630/630/630 634/634/634 633/633/633
f 633/633/633 634/634/634 635/635/635
f 634/634/634 636/636/636 635/635/635
f 633/633/633 635/635/635 637/637/637
f 638/638/638 633/633/633 637/637/637
f 638/638/638 637/637/637 639/639/639
f 640/640/640 638/638/638 639/639/639
f 641/641/641 638/638/638 640/640/640
f 632/632/632 629/629/629 641/641/641
f 642/642/642 641/641/641 640/640/640
f 643/643/643 641/641/641 642/642/642
f 643/643/643 632/632/632 641/641/641
f 644/644/644 643/643/643 642/642/642
f 647/647/647 646/646/646 645/645/645
f 648/648/648 647/647/647 645/645/645
f 645/645/645 646/646/646 649/649/649
f 646/646/646 650/650/650 649/649/649
f 649/649/649 650/650/650 651/651/651
f 650/650/650 652/652/652 651/651/651
f 655/655/655 654/654/654 653/653/653
f 656/656/656 655/655/655 653/653/653
f 653/653/653 654/654/654 657/657/657
f 654/654/654 658/658/658 657/657/657
f 657/657/657 658/658/658 659/659/659
f 658/658/658 660/660/660 659/659/659
f 663/663/663 662/662/662 661/661/661
f 664/664/664 663/663/663 661/661/661
f 661/661/661 662/662/662 665/665/665
f 662/662/662 666/666/666 665/665/665
f 665/665/665 666/666/666 667/667/667
f 666/666/666 668/668/668 667/667/667
f 671/671/671 670/670/670 669/669/669
f 672/672/672 671/671/671 669/669/669
f 669/669/669 670/670/670 673/673/673
f 670/670/670 674/674/674 673/673/673
f 673/673/673 674/674/674 675/675/675
f 674/674/674 676/676/676 675/675/675
f 679/679/679 678/678/678 677/677/677
f 680/680/680 679/679/679 677/677/677
f 677/677/677 678/678/678 681/681/681
f 678/678/678 682/682/682 681/681/681
f 681/681/681 682/682/682 683/683/683
f 682/682/682 684/684/684 683/683/683
f 687/687/687 686/686/686 685/685/685
f 688/688/688 687/687/687 685/685/685
f 685/685/685 686/686/686 689/689/689
f 686/686/686 690/690/690 689/689/689
f 689/689/689 690/690/690 691/691/691
f 690/690/690 692/692/692 691/691/691
f 695/695/695 694/694/694 693/693/693
f 696/696/696 695/695/695 693/693/693
f 697/697/697 695/695/695 696/696/696
f 698/698/698 697/697/697 696/696/696
f 699/699/699 697/697/697 698/698/698
f 700/700/700 699/699/699 698/698/698
f 701/701/701 699/699/699 700/700/700
f 702/702/702 701/701/701 700/700/700
f 703/703/703 701/701/701 702/702/702
f 704/704/704 703/703/703 702/702/702
f 705/705/705 703/703/703 704/704/704
f 706/706/706 705/705/705 704/704/704
f 707/707/707 705/705/705 706/706/706
f 708/708/708 707/707/707 706/706/706
f 694/694/694 707/707/707 708/708/708
f 693/693/693 694/694/694 708/708/708
f 711/711/711 710/710/710 709/709/709
f 712/712/712 711/711/711 709/709/709
f 709/709/709 710/710/710 713/713/713
f 710/710/710 714/714/714 713/713/713
f 715/715/715 711/711/711 712/712/712
f 716/716/716 715/715/715 712/712/712
f 713/713/713 714/714/714 717/717/717
f 714/714/714 718/718/718 717/717/717
f 717/717/717 718/718/718 719/719/719
f 718/718/718 720/720/720 719/719/719
f 719/719/719 720/720/720 721/721/721
f 720/720/720 722/722/722 721/721/721
f 721/721/721 722/722/722 723/723/723
f 722/722/722 724/724/724 723/723/723
f 723/723/723 724/724/724 725/725/725
f 724/724/724 726/726/726 725/725/725
f 725/725/725 726/726/726 727/727/727
f 726/726/726 728/728/728 727/727/727
f 727/727/727 728/728/728 729/729/729
f 728/728/728 730/730/730 729/729/729
f 729/729/729 730/730/730 731/731/731
f 730/730/730 732/732/732 731/731/731
f 731/731/731 732/732/732 716/716/716
f 732/732/732 715/715/715 716/716/716
f 735/735/735 734/734/734 733/733/733
f 736/736/736 735/735/735 733/733/733
f 737/737/737 735/735/735 736/736/736
f 738/738/738 737/737/737 736/736/736
f 733/733/733 734/734/734 739/739/739
f 734/734/734 740/740/740 739/739/739
f 743/743/743 742/742/742 741/741/741
f 744/744/744 743/743/743 741/741/741
f 747/747/747 746/746/746 745/745/745
f 748/748/748 747/747/747 745/745/745
f 745/745/745 746/746/746 749/749/749
f 746/746/746 750/750/750 749/749/749
f 749/749/749 750/750/750 751/751/751
f 750/750/750 752/752/752 751/751/751
f 755/755/755 754/754/754 753/753/753
f 756/756/756 755/755/755 753/753/753
f 759/759/759 758/758/758 757/757/757
f 760/760/760 759/759/759 757/757/757
f 763/763/763 762/762/762 761/761/761
f 764/764/764 763/763/763 761/761/761
f 767/767/767 766/766/766 765/765/765
f 768/768/768 767/767/767 765/765/765
f 771/771/771 770/770/770 769/769/769
f 772/772/772 771/771/771 769/769/769
f 775/775/775 774/774/774 773/773/773
f 776/776/776 775/775/775 773/773/773
f 779/779/779 778/778/778 777/777/777
f 780/780/780 779/779/779 777/777/777
f 783/783/783 782/782/782 781/781/781
f 784/784/784 783/783/783 781/781/781
f 787/787/787 786/786/786 785/785/785
f 788/788/788 787/787/787 785/785/785
f 791/791/791 790/790/790 789/789/789
f 792/792/792 791/791/791 789/789/789
f 795/795/795 794/794/794 793/793/793
f 796/796/796 795/795/795 793/793/793
f 799/799/799 798/798/798 797/797/797
f 800/800/800 799/799/799 797/797/797
f 803/803/803 802/802/802 801/801/801
f 804/804/804 803/803/803 801/801/801
f 807/807/807 806/806/806 805/805/805
f 808/808/808 807/807/807 805/805/805
f 811/811/811 810/810/810 809/809/809
f 809/809/809 812/812/812 811/811/811
f 809/809/809 813/813/813 812/812/812
f 813/813/813 814/814/814 812/812/812
f 814/814/814 815/815/815 812/812/812
f 815/815/815 816/816/816 812/812/812
f 815/815/815 817/817/817 816/816/816
f 817/817/817 818/818/818 816/816/816
f 817/817/817 819/819/819 818/818/818
f 819/819/819 820/820/820 818/818/818
f 823/823/823 822/822/822 821/821/821
f 824/824/824 823/823/823 821/821/821
f 821/821/821 822/822/822 825/825/825
f 822/822/822 826/826/826 825/825/825
f 827/827/827 823/823/823 824/824/824
f 828/828/828 827/827/827 824/824/824
f 829/829/829 827/827/827 828/828/828
f 830/830/830 829/829/829 828/828/828
f 831/831/831 829/829/829 830/830/830
f 832/832/832 831/831/831 830/830/830
f 833/833/833 831/831/831 832/832/832
f 834/834/834 833/833/833 832/832/832
f 825/825/825 826/826/826 835/835/835
f 826/826/826 836/836/836 835/835/835
f 839/839/839 838/838/838 837/837/837
f 840/840/840 839/839/839 837/837/837
f 837/837/837 838/838/838 841/841/841
f 838/838/838 842/842/842 841/841/841
f 843/843/843 839/839/839 840/840/840
f 844/844/844 843/843/843 840/840/840
f 847/847/847 846/846/846 845/845/845
f 848/848/848 847/847/847 845/845/845
f 851/851/851 850/850/850 849/849/849
f 852/852/852 851/851/851 849/849/849
f 849/849/849 850/850/850 853/853/853
f 850/850/850 854/854/854 853/853/853
f 855/855/855 851/851/851 852/852/852
f 856/856/856 855/855/855 852/852/852
f 859/859/859 858/858/858 857/857/857
f 857/857/857 860/860/860 859/859/859
f 860/860/860 861/861/861 859/859/859
f 861/861/861 862/862/862 859/859/859
f 861/861/861 863/863/863 862/862/862
f 863/863/863 864/864/864 862/862/862
f 867/867/867 866/866/866 865/865/865
f 868/868/868 867/867/867 865/865/865
f 871/871/871 870/870/870 869/869/869
f 872/872/872 871/871/871 869/869/869
f 873/873/873 871/871/871 872/872/872
f 874/874/874 873/873/873 872/872/872
f 875/875/875 873/873/873 874/874/874
f 876/876/876 875/875/875 874/874/874
f 879/879/879 878/878/878 877/877/877
f 880/880/880 879/879/879 877/877/877
