g Cylinder.007
v -0 0.041094717 1.7963071E-09
v 0.022129267 0.03558907 1.5556476E-09
v 0.022129267 0.03558905 0.40898982
v -0 0.041094698 0.40898982
v 0.022129267 0.035589088 -0.40898982
v -0 0.041094735 -0.40898982
v 0.022129267 0.03558907 1.5556476E-09
v 0.03832902 0.020547356 8.981535E-10
v 0.03832902 0.020547338 0.40898982
v 0.022129267 0.03558905 0.40898982
v 0.03832902 0.020547375 -0.40898982
v 0.022129267 0.035589088 -0.40898982
v 0.03832902 0.020547356 8.981535E-10
v 0.044258535 -1.7963071E-09 -7.8519074E-17
v 0.044258535 -1.967382E-08 0.40898982
v 0.03832902 0.020547338 0.40898982
v 0.044258535 1.6081207E-08 -0.40898982
v 0.03832902 0.020547375 -0.40898982
v 0.044258535 -1.7963071E-09 -7.8519074E-17
v 0.038329016 -0.02054736 -8.9815366E-10
v 0.038329016 -0.020547377 0.40898982
v 0.044258535 -1.967382E-08 0.40898982
v 0.038329016 -0.020547342 -0.40898982
v 0.044258535 1.6081207E-08 -0.40898982
v 0.038329016 -0.02054736 -8.9815366E-10
v 0.022129271 -0.03558907 -1.5556476E-09
v 0.022129271 -0.035589088 0.40898982
v 0.038329016 -0.020547377 0.40898982
v 0.022129271 -0.03558905 -0.40898982
v 0.038329016 -0.020547342 -0.40898982
v 0.022129271 -0.03558907 -1.5556476E-09
v 6.6828534E-09 -0.041094717 -1.7963071E-09
v 6.6828534E-09 -0.041094735 0.40898982
v 6.6828534E-09 -0.041094698 -0.40898982
v 0.022129271 -0.03558905 -0.40898982
v 0.022129271 -0.03558907 -1.5556476E-09
v 6.6828534E-09 -0.041094735 0.40898982
v 0.022129271 -0.035589088 0.40898982
v 6.6828534E-09 -0.041094717 -1.7963071E-09
v -0.022129258 -0.035589073 -1.5556477E-09
v -0.022129258 -0.03558909 0.40898982
v 6.6828534E-09 -0.041094735 0.40898982
v -0.022129258 -0.035589054 -0.40898982
v 6.6828534E-09 -0.041094698 -0.40898982
v -0.022129258 -0.035589073 -1.5556477E-09
v -0.03832901 -0.020547371 -8.9815405E-10
v -0.03832901 -0.02054739 0.40898982
v -0.022129258 -0.03558909 0.40898982
v -0.03832901 -0.02054735 -0.40898982
v -0.022129258 -0.035589054 -0.40898982
v -0.03832901 -0.020547371 -8.9815405E-10
v -0.044258535 -1.9105439E-08 -8.351252E-16
v -0.044258535 -3.6982954E-08 0.40898982
v -0.03832901 -0.02054739 0.40898982
v -0.044258535 -1.2279244E-09 -0.40898982
v -0.03832901 -0.02054735 -0.40898982
v -0.044258535 -1.9105439E-08 -8.351252E-16
v -0.03832903 0.020547338 8.9815266E-10
v -0.03832903 0.020547317 0.40898982
v -0.044258535 -3.6982954E-08 0.40898982
v -0.03832903 0.020547356 -0.40898982
v -0.044258535 -1.2279244E-09 -0.40898982
v 0.044258535 -1.967382E-08 0.40898982
v 0.06458842 -1.9572298E-08 0.47296804
v 0.059614647 0.02054734 0.47586045
v 0.03832902 0.020547338 0.40898982
v -0.03832903 0.020547338 8.9815266E-10
v -0.022129294 0.035589054 1.5556471E-09
v -0.022129294 0.035589036 0.40898982
v -0.03832903 0.020547317 0.40898982
v -0.022129294 0.035589073 -0.40898982
v -0.03832903 0.020547356 -0.40898982
v -0.022129294 0.035589054 1.5556471E-09
v -0 0.041094717 1.7963071E-09
v -0 0.041094698 0.40898982
v -0.022129294 0.035589036 0.40898982
v -0 0.041094735 -0.40898982
v -0.022129294 0.035589073 -0.40898982
v 0.027463682 0.041094698 0.49455696
v 0.08405292 0.041094694 0.5729612
v 0.07498164 0.035589036 0.5910464
v 0.008901298 0.03558904 0.5053515
v -0.03832903 0.020547317 0.40898982
v -0.004687286 0.020547321 0.5132535
v -0.009661049 -3.6812914E-08 0.5161458
v -0.044258535 -3.6982954E-08 0.40898982
v 0.022129267 0.03558905 0.40898982
v 0.04602605 0.03558905 0.48376253
v 0.027463682 0.041094698 0.49455696
v -0 0.041094698 0.40898982
v -0.022129258 -0.03558909 0.40898982
v 0.008901326 -0.03558909 0.5053514
v 0.027463686 -0.041094735 0.49455696
v 6.6828534E-09 -0.041094735 0.40898982
v 0.038329016 -0.020547377 0.40898982
v 0.059614647 -0.020547377 0.47586045
v 0.06458842 -1.9572298E-08 0.47296804
v 0.044258535 -1.967382E-08 0.40898982
v -0.022129294 0.035589036 0.40898982
v 0.008901298 0.03558904 0.5053515
v -0.004687286 0.020547321 0.5132535
v -0.03832903 0.020547317 0.40898982
v -0.03832901 -0.02054739 0.40898982
v -0.00468727 -0.020547386 0.5132535
v 0.008901326 -0.03558909 0.5053514
v -0.022129258 -0.03558909 0.40898982
v 0.022129271 -0.035589088 0.40898982
v 0.04602605 -0.035589084 0.48376253
v 0.059614647 -0.020547377 0.47586045
v 0.038329016 -0.020547377 0.40898982
v -0 0.041094698 0.40898982
v 0.027463682 0.041094698 0.49455696
v 0.008901298 0.03558904 0.5053515
v -0.022129294 0.035589036 0.40898982
v 0.03832902 0.020547338 0.40898982
v 0.059614647 0.02054734 0.47586045
v 0.04602605 0.03558905 0.48376253
v 0.022129267 0.03558905 0.40898982
v -0.044258535 -3.6982954E-08 0.40898982
v -0.009661049 -3.6812914E-08 0.5161458
v -0.00468727 -0.020547386 0.5132535
v -0.03832901 -0.02054739 0.40898982
v 6.6828534E-09 -0.041094735 0.40898982
v 0.027463686 -0.041094735 0.49455696
v 0.04602605 -0.035589084 0.48376253
v 6.6828534E-09 -0.041094735 0.40898982
v 0.04602605 -0.035589084 0.48376253
v 0.022129271 -0.035589088 0.40898982
v 0.09312422 -0.035589088 0.55487615
v 0.19728532 -0.035589084 0.5836639
v 0.19723833 -0.020547377 0.56914914
v 0.09976487 -0.02054738 0.54163694
v 0.059614647 0.02054734 0.47586045
v 0.09976487 0.02054734 0.54163694
v 0.09312422 0.03558905 0.55487615
v 0.04602605 0.03558905 0.48376253
v -0.009661049 -3.6812914E-08 0.5161458
v 0.065910324 -3.7551786E-08 0.6091315
v 0.06834098 -0.02054739 0.6042856
v -0.00468727 -0.020547386 0.5132535
v 0.027463686 -0.041094735 0.49455696
v 0.08405292 -0.041094735 0.5729612
v 0.09312422 -0.035589088 0.55487615
v 0.04602605 -0.035589084 0.48376253
v 0.06458842 -1.9572298E-08 0.47296804
v 0.102195516 -2.0357442E-08 0.536791
v 0.09976487 0.02054734 0.54163694
v 0.059614647 0.02054734 0.47586045
v -0.004687286 0.020547321 0.5132535
v 0.06834099 0.020547321 0.60428566
v 0.065910324 -3.7551786E-08 0.6091315
v -0.009661049 -3.6812914E-08 0.5161458
v 0.008901326 -0.03558909 0.5053514
v 0.07498162 -0.03558909 0.5910464
v 0.08405292 -0.041094735 0.5729612
v 0.027463686 -0.041094735 0.49455696
v 0.059614647 -0.020547377 0.47586045
v 0.09976487 -0.02054738 0.54163694
v 0.102195516 -2.0357442E-08 0.536791
v 0.06458842 -1.9572298E-08 0.47296804
v 0.008901298 0.03558904 0.5053515
v 0.07498164 0.035589036 0.5910464
v 0.06834099 0.020547321 0.60428566
v -0.004687286 0.020547321 0.5132535
v 0.04602605 0.03558905 0.48376253
v 0.09312422 0.03558905 0.55487615
v 0.08405292 0.041094694 0.5729612
v 0.027463682 0.041094698 0.49455696
v -0.00468727 -0.020547386 0.5132535
v 0.06834098 -0.02054739 0.6042856
v 0.07498162 -0.03558909 0.5910464
v 0.008901326 -0.03558909 0.5053514
v 0.04602605 -0.035589084 0.48376253
v 0.09312422 -0.035589088 0.55487615
v 0.09976487 -0.02054738 0.54163694
v 0.059614647 -0.020547377 0.47586045
v 0.19728532 -0.035589084 0.5836639
v 0.20561294 -0.10700115 0.54387856
v 0.20547162 -0.061777156 0.50023896
v 0.19723833 -0.020547377 0.56914914
v 0.08405292 0.041094694 0.5729612
v 0.19734956 0.041094687 0.60349137
v 0.19741382 0.03558904 0.62331885
v 0.07498164 0.035589036 0.5910464
v 0.09976487 0.02054734 0.54163694
v 0.19723833 0.020547342 0.56914914
v 0.19728532 0.03558905 0.5836639
v 0.09312422 0.03558905 0.55487615
v 0.065910324 -3.7551786E-08 0.6091315
v 0.19747809 -3.7603822E-08 0.64314634
v 0.19746087 -0.020547386 0.6378336
v 0.06834098 -0.02054739 0.6042856
v 0.08405292 -0.041094735 0.5729612
v 0.19734958 -0.04109473 0.60349137
v 0.19728532 -0.035589084 0.5836639
v 0.09312422 -0.035589088 0.55487615
v 0.102195516 -2.0357442E-08 0.536791
v 0.19722109 -2.0420538E-08 0.56383646
v 0.19723833 0.020547342 0.56914914
v 0.09976487 0.02054734 0.54163694
v 0.06834099 0.020547321 0.60428566
v 0.19746089 0.020547321 0.6378336
v 0.19747809 -3.7603822E-08 0.64314634
v 0.065910324 -3.7551786E-08 0.6091315
v 0.07498162 -0.03558909 0.5910464
v 0.19741382 -0.035589088 0.62331885
v 0.19734958 -0.04109473 0.60349137
v 0.08405292 -0.041094735 0.5729612
v 0.09976487 -0.02054738 0.54163694
v 0.19723833 -0.020547377 0.56914914
v 0.19722109 -2.0420538E-08 0.56383646
v 0.102195516 -2.0357442E-08 0.536791
v 0.07498164 0.035589036 0.5910464
v 0.19741382 0.03558904 0.62331885
v 0.19746089 0.020547321 0.6378336
v 0.07498164 0.035589036 0.5910464
v 0.19746089 0.020547321 0.6378336
v 0.06834099 0.020547321 0.60428566
v 0.09312422 0.03558905 0.55487615
v 0.19728532 0.03558905 0.5836639
v 0.19734956 0.041094687 0.60349137
v 0.08405292 0.041094694 0.5729612
v 0.06834098 -0.02054739 0.6042856
v 0.19746087 -0.020547386 0.6378336
v 0.19741382 -0.035589088 0.62331885
v 0.07498162 -0.03558909 0.5910464
v 0.20614074 -0.061777186 0.7067438
v 0.24930887 -0.061777186 0.70657134
v 0.24916741 -0.10700117 0.66293156
v 0.2059993 -0.10700117 0.66310406
v 0.19734956 0.041094687 0.60349137
v 0.20580608 0.123554245 0.60349137
v 0.2059993 0.1070011 0.66310406
v 0.19741382 0.03558904 0.62331885
v 0.19723833 0.020547342 0.56914914
v 0.20547162 0.061777133 0.50023896
v 0.20561294 0.10700115 0.54387856
v 0.19728532 0.03558905 0.5836639
v 0.19747809 -3.7603822E-08 0.64314634
v 0.20619251 -6.504133E-08 0.72271687
v 0.20614074 -0.061777186 0.7067438
v 0.19746087 -0.020547386 0.6378336
v 0.19734958 -0.04109473 0.60349137
v 0.20580615 -0.1235543 0.60349137
v 0.20561294 -0.10700115 0.54387856
v 0.19728532 -0.035589084 0.5836639
v 0.19722109 -2.0420538E-08 0.56383646
v 0.20541981 -1.337853E-08 0.48426586
v 0.20547162 0.061777133 0.50023896
v 0.19723833 0.020547342 0.56914914
v 0.19746089 0.020547321 0.6378336
v 0.2061408 0.061777074 0.7067438
v 0.20619251 -6.504133E-08 0.72271687
v 0.19747809 -3.7603822E-08 0.64314634
v 0.19741382 -0.035589088 0.62331885
v 0.2059993 -0.10700117 0.66310406
v 0.20580615 -0.1235543 0.60349137
v 0.19734958 -0.04109473 0.60349137
v 0.19723833 -0.020547377 0.56914914
v 0.20547162 -0.061777156 0.50023896
v 0.20541981 -1.337853E-08 0.48426586
v 0.19722109 -2.0420538E-08 0.56383646
v 0.19741382 0.03558904 0.62331885
v 0.2059993 0.1070011 0.66310406
v 0.2061408 0.061777074 0.7067438
v 0.19746089 0.020547321 0.6378336
v 0.19728532 0.03558905 0.5836639
v 0.20561294 0.10700115 0.54387856
v 0.20580608 0.123554245 0.60349137
v 0.19734956 0.041094687 0.60349137
v 0.19746087 -0.020547386 0.6378336
v 0.20614074 -0.061777186 0.7067438
v 0.2059993 -0.10700117 0.66310406
v 0.19741382 -0.035589088 0.62331885
v 0.24878109 -0.10700115 0.5437061
v 0.24897428 -0.1235543 0.6033189
v 0.24916741 -0.10700117 0.66293156
v 0.24930887 -0.061777186 0.70657134
v 0.24863975 -0.061777156 0.5000665
v 0.24936064 -6.504003E-08 0.7225444
v 0.24858792 -1.337723E-08 0.48409343
v 0.24930893 0.061777074 0.70657134
v 0.24863975 0.061777133 0.5000665
v 0.24916741 0.1070011 0.66293156
v 0.24878109 0.10700115 0.5437061
v 0.24897422 0.123554245 0.6033189
v 0.20561294 -0.10700115 0.54387856
v 0.24878109 -0.10700115 0.5437061
v 0.24863975 -0.061777156 0.5000665
v 0.20547162 -0.061777156 0.50023896
v 0.20580608 0.123554245 0.60349137
v 0.24897422 0.123554245 0.6033189
v 0.24916741 0.1070011 0.66293156
v 0.2059993 0.1070011 0.66310406
v 0.20547162 0.061777133 0.50023896
v 0.24863975 0.061777133 0.5000665
v 0.24878109 0.10700115 0.5437061
v 0.20561294 0.10700115 0.54387856
v 0.20619251 -6.504133E-08 0.72271687
v 0.24936064 -6.504003E-08 0.7225444
v 0.24930887 -0.061777186 0.70657134
v 0.20614074 -0.061777186 0.7067438
v 0.20580615 -0.1235543 0.60349137
v 0.24897428 -0.1235543 0.6033189
v 0.24878109 -0.10700115 0.5437061
v 0.20561294 -0.10700115 0.54387856
v 0.20541981 -1.337853E-08 0.48426586
v 0.24858792 -1.337723E-08 0.48409343
v 0.24863975 0.061777133 0.5000665
v 0.20547162 0.061777133 0.50023896
v 0.2061408 0.061777074 0.7067438
v 0.24930893 0.061777074 0.70657134
v 0.24936064 -6.504003E-08 0.7225444
v 0.20619251 -6.504133E-08 0.72271687
v 0.2059993 -0.10700117 0.66310406
v 0.24916741 -0.10700117 0.66293156
v 0.24897428 -0.1235543 0.6033189
v 0.20580615 -0.1235543 0.60349137
v 0.20547162 -0.061777156 0.50023896
v 0.24863975 -0.061777156 0.5000665
v 0.24858792 -1.337723E-08 0.48409343
v 0.20541981 -1.337853E-08 0.48426586
v 0.2059993 0.1070011 0.66310406
v 0.24916741 0.1070011 0.66293156
v 0.24930893 0.061777074 0.70657134
v 0.2061408 0.061777074 0.7067438
v 0.20561294 0.10700115 0.54387856
v 0.24878109 0.10700115 0.5437061
v 0.24897422 0.123554245 0.6033189
v 0.20580608 0.123554245 0.60349137
v 0.044258535 1.6081207E-08 -0.40898982
v 0.03832902 0.020547375 -0.40898982
v 0.059614647 0.02054738 -0.47586045
v 0.06458842 2.1775886E-08 -0.47296804
v 0.027463682 0.041094743 -0.49455696
v 0.008901298 0.035589084 -0.5053515
v 0.07498164 0.035589088 -0.5910464
v 0.08405292 0.041094746 -0.5729612
v -0.03832903 0.020547356 -0.40898982
v -0.044258535 -1.2279244E-09 -0.40898982
v -0.009661049 8.309993E-09 -0.5161458
v -0.004687286 0.020547366 -0.5132535
v 0.022129267 0.035589088 -0.40898982
v -0 0.041094735 -0.40898982
v 0.027463682 0.041094743 -0.49455696
v 0.04602605 0.035589095 -0.48376253
v -0.022129258 -0.035589054 -0.40898982
v 6.6828534E-09 -0.041094698 -0.40898982
v 0.027463686 -0.041094687 -0.49455696
v 0.008901326 -0.035589047 -0.5053514
v 0.038329016 -0.020547342 -0.40898982
v 0.044258535 1.6081207E-08 -0.40898982
v 0.06458842 2.1775886E-08 -0.47296804
v 0.059614647 -0.020547334 -0.47586045
v -0.022129294 0.035589073 -0.40898982
v -0.03832903 0.020547356 -0.40898982
v -0.004687286 0.020547366 -0.5132535
v -0.022129294 0.035589073 -0.40898982
v -0.004687286 0.020547366 -0.5132535
v 0.008901298 0.035589084 -0.5053515
v -0.03832901 -0.02054735 -0.40898982
v -0.022129258 -0.035589054 -0.40898982
v 0.008901326 -0.035589047 -0.5053514
v -0.00468727 -0.020547342 -0.5132535
v 0.022129271 -0.03558905 -0.40898982
v 0.038329016 -0.020547342 -0.40898982
v 0.059614647 -0.020547334 -0.47586045
v 0.04602605 -0.03558904 -0.48376253
v -0 0.041094735 -0.40898982
v -0.022129294 0.035589073 -0.40898982
v 0.008901298 0.035589084 -0.5053515
v 0.027463682 0.041094743 -0.49455696
v 0.03832902 0.020547375 -0.40898982
v 0.022129267 0.035589088 -0.40898982
v 0.04602605 0.035589095 -0.48376253
v 0.059614647 0.02054738 -0.47586045
v -0.044258535 -1.2279244E-09 -0.40898982
v -0.03832901 -0.02054735 -0.40898982
v -0.00468727 -0.020547342 -0.5132535
v -0.009661049 8.309993E-09 -0.5161458
v 6.6828534E-09 -0.041094698 -0.40898982
v 0.022129271 -0.03558905 -0.40898982
v 0.04602605 -0.03558904 -0.48376253
v 0.027463686 -0.041094687 -0.49455696
v 0.09312422 -0.035589036 -0.55487615
v 0.09976487 -0.020547332 -0.54163694
v 0.19723833 -0.02054733 -0.56914914
v 0.19728532 -0.035589032 -0.5836639
v 0.059614647 0.02054738 -0.47586045
v 0.04602605 0.035589095 -0.48376253
v 0.09312422 0.035589103 -0.55487615
v 0.09976487 0.020547386 -0.54163694
v -0.009661049 8.309993E-09 -0.5161458
v -0.00468727 -0.020547342 -0.5132535
v 0.06834098 -0.020547338 -0.6042856
v 0.065910324 1.5700186E-08 -0.6091315
v 0.027463686 -0.041094687 -0.49455696
v 0.04602605 -0.03558904 -0.48376253
v 0.09312422 -0.035589036 -0.55487615
v 0.08405292 -0.041094683 -0.5729612
v 0.06458842 2.1775886E-08 -0.47296804
v 0.059614647 0.02054738 -0.47586045
v 0.09976487 0.020547386 -0.54163694
v 0.102195516 2.6570321E-08 -0.536791
v -0.004687286 0.020547366 -0.5132535
v -0.009661049 8.309993E-09 -0.5161458
v 0.065910324 1.5700186E-08 -0.6091315
v 0.06834099 0.020547373 -0.60428566
v 0.008901326 -0.035589047 -0.5053514
v 0.027463686 -0.041094687 -0.49455696
v 0.08405292 -0.041094683 -0.5729612
v 0.07498162 -0.03558904 -0.5910464
v 0.059614647 -0.020547334 -0.47586045
v 0.06458842 2.1775886E-08 -0.47296804
v 0.102195516 2.6570321E-08 -0.536791
v 0.09976487 -0.020547332 -0.54163694
v 0.008901298 0.035589084 -0.5053515
v -0.004687286 0.020547366 -0.5132535
v 0.06834099 0.020547373 -0.60428566
v 0.008901298 0.035589084 -0.5053515
v 0.06834099 0.020547373 -0.60428566
v 0.07498164 0.035589088 -0.5910464
v 0.04602605 0.035589095 -0.48376253
v 0.027463682 0.041094743 -0.49455696
v 0.08405292 0.041094746 -0.5729612
v 0.09312422 0.035589103 -0.55487615
v -0.00468727 -0.020547342 -0.5132535
v 0.008901326 -0.035589047 -0.5053514
v 0.07498162 -0.03558904 -0.5910464
v 0.06834098 -0.020547338 -0.6042856
v 0.04602605 -0.03558904 -0.48376253
v 0.059614647 -0.020547334 -0.47586045
v 0.09976487 -0.020547332 -0.54163694
v 0.09312422 -0.035589036 -0.55487615
v 0.19728532 -0.035589032 -0.5836639
v 0.19723833 -0.02054733 -0.56914914
v 0.20547162 -0.061777115 -0.50023896
v 0.20561294 -0.1070011 -0.54387856
v 0.08405292 0.041094746 -0.5729612
v 0.07498164 0.035589088 -0.5910464
v 0.19741382 0.03558909 -0.62331885
v 0.19734956 0.041094743 -0.60349137
v 0.09976487 0.020547386 -0.54163694
v 0.09312422 0.035589103 -0.55487615
v 0.19728532 0.035589103 -0.5836639
v 0.19723833 0.02054739 -0.56914914
v 0.065910324 1.5700186E-08 -0.6091315
v 0.06834098 -0.020547338 -0.6042856
v 0.19746087 -0.020547332 -0.6378336
v 0.19747809 1.8621819E-08 -0.64314634
v 0.08405292 -0.041094683 -0.5729612
v 0.09312422 -0.035589036 -0.55487615
v 0.19728532 -0.035589032 -0.5836639
v 0.19734958 -0.04109468 -0.60349137
v 0.102195516 2.6570321E-08 -0.536791
v 0.09976487 0.020547386 -0.54163694
v 0.19723833 0.02054739 -0.56914914
v 0.19722109 2.8871606E-08 -0.56383646
v 0.06834099 0.020547373 -0.60428566
v 0.065910324 1.5700186E-08 -0.6091315
v 0.19747809 1.8621819E-08 -0.64314634
v 0.19746089 0.020547377 -0.6378336
v 0.07498162 -0.03558904 -0.5910464
v 0.08405292 -0.041094683 -0.5729612
v 0.19734958 -0.04109468 -0.60349137
v 0.19741382 -0.035589036 -0.62331885
v 0.09976487 -0.020547332 -0.54163694
v 0.102195516 2.6570321E-08 -0.536791
v 0.19722109 2.8871606E-08 -0.56383646
v 0.19723833 -0.02054733 -0.56914914
v 0.07498164 0.035589088 -0.5910464
v 0.06834099 0.020547373 -0.60428566
v 0.19746089 0.020547377 -0.6378336
v 0.07498164 0.035589088 -0.5910464
v 0.19746089 0.020547377 -0.6378336
v 0.19741382 0.03558909 -0.62331885
v 0.09312422 0.035589103 -0.55487615
v 0.08405292 0.041094746 -0.5729612
v 0.19734956 0.041094743 -0.60349137
v 0.19728532 0.035589103 -0.5836639
v 0.06834098 -0.020547338 -0.6042856
v 0.07498162 -0.03558904 -0.5910464
v 0.19741382 -0.035589036 -0.62331885
v 0.19746087 -0.020547332 -0.6378336
v 0.20614074 -0.061777122 -0.7067438
v 0.2059993 -0.10700111 -0.66310406
v 0.24916741 -0.10700111 -0.66293156
v 0.24930887 -0.061777122 -0.70657134
v 0.19734956 0.041094743 -0.60349137
v 0.19741382 0.03558909 -0.62331885
v 0.2059993 0.107001156 -0.66310406
v 0.20580608 0.123554304 -0.60349137
v 0.19723833 0.02054739 -0.56914914
v 0.19728532 0.035589103 -0.5836639
v 0.20561294 0.107001185 -0.54387856
v 0.20547162 0.061777174 -0.50023896
v 0.19747809 1.8621819E-08 -0.64314634
v 0.19746087 -0.020547332 -0.6378336
v 0.20614074 -0.061777122 -0.7067438
v 0.20619251 -1.8594051E-09 -0.72271687
v 0.19734958 -0.04109468 -0.60349137
v 0.19728532 -0.035589032 -0.5836639
v 0.20561294 -0.1070011 -0.54387856
v 0.20580615 -0.12355424 -0.60349137
v 0.19722109 2.8871606E-08 -0.56383646
v 0.19723833 0.02054739 -0.56914914
v 0.20547162 0.061777174 -0.50023896
v 0.20541981 2.8957338E-08 -0.48426586
v 0.19746089 0.020547377 -0.6378336
v 0.19747809 1.8621819E-08 -0.64314634
v 0.20619251 -1.8594051E-09 -0.72271687
v 0.2061408 0.061777137 -0.7067438
v 0.19741382 -0.035589036 -0.62331885
v 0.19734958 -0.04109468 -0.60349137
v 0.20580615 -0.12355424 -0.60349137
v 0.2059993 -0.10700111 -0.66310406
v 0.19723833 -0.02054733 -0.56914914
v 0.19722109 2.8871606E-08 -0.56383646
v 0.20541981 2.8957338E-08 -0.48426586
v 0.20547162 -0.061777115 -0.50023896
v 0.19741382 0.03558909 -0.62331885
v 0.19746089 0.020547377 -0.6378336
v 0.2061408 0.061777137 -0.7067438
v 0.2059993 0.107001156 -0.66310406
v 0.19728532 0.035589103 -0.5836639
v 0.19734956 0.041094743 -0.60349137
v 0.20580608 0.123554304 -0.60349137
v 0.20561294 0.107001185 -0.54387856
v 0.19746087 -0.020547332 -0.6378336
v 0.19741382 -0.035589036 -0.62331885
v 0.2059993 -0.10700111 -0.66310406
v 0.20614074 -0.061777122 -0.7067438
v 0.24916741 -0.10700111 -0.66293156
v 0.24897428 -0.12355424 -0.6033189
v 0.24878109 -0.1070011 -0.5437061
v 0.24930887 -0.061777122 -0.70657134
v 0.24863975 -0.061777115 -0.5000665
v 0.24936064 -1.8731825E-09 -0.7225444
v 0.24858792 2.894356E-08 -0.48409343
v 0.24930893 0.061777137 -0.70657134
v 0.24863975 0.061777174 -0.5000665
v 0.24916741 0.107001156 -0.66293156
v 0.24878109 0.107001185 -0.5437061
v 0.24897422 0.123554304 -0.6033189
v 0.20561294 -0.1070011 -0.54387856
v 0.20547162 -0.061777115 -0.50023896
v 0.24863975 -0.061777115 -0.5000665
v 0.24878109 -0.1070011 -0.5437061
v 0.20580608 0.123554304 -0.60349137
v 0.2059993 0.107001156 -0.66310406
v 0.24916741 0.107001156 -0.66293156
v 0.24897422 0.123554304 -0.6033189
v 0.20547162 0.061777174 -0.50023896
v 0.20561294 0.107001185 -0.54387856
v 0.24878109 0.107001185 -0.5437061
v 0.24863975 0.061777174 -0.5000665
v 0.20619251 -1.8594051E-09 -0.72271687
v 0.20614074 -0.061777122 -0.7067438
v 0.24930887 -0.061777122 -0.70657134
v 0.24936064 -1.8731825E-09 -0.7225444
v 0.20580615 -0.12355424 -0.60349137
v 0.20561294 -0.1070011 -0.54387856
v 0.24878109 -0.1070011 -0.5437061
v 0.24897428 -0.12355424 -0.6033189
v 0.20541981 2.8957338E-08 -0.48426586
v 0.20547162 0.061777174 -0.50023896
v 0.24863975 0.061777174 -0.5000665
v 0.24858792 2.894356E-08 -0.48409343
v 0.2061408 0.061777137 -0.7067438
v 0.20619251 -1.8594051E-09 -0.72271687
v 0.24936064 -1.8731825E-09 -0.7225444
v 0.24930893 0.061777137 -0.70657134
v 0.2059993 -0.10700111 -0.66310406
v 0.20580615 -0.12355424 -0.60349137
v 0.24897428 -0.12355424 -0.6033189
v 0.24916741 -0.10700111 -0.66293156
v 0.20547162 -0.061777115 -0.50023896
v 0.20541981 2.8957338E-08 -0.48426586
v 0.24858792 2.894356E-08 -0.48409343
v 0.24863975 -0.061777115 -0.5000665
v 0.2059993 0.107001156 -0.66310406
v 0.2061408 0.061777137 -0.7067438
v 0.24930893 0.061777137 -0.70657134
v 0.24916741 0.107001156 -0.66293156
v 0.20561294 0.107001185 -0.54387856
v 0.20580608 0.123554304 -0.60349137
v 0.24897422 0.123554304 -0.6033189
v 0.24878109 0.107001185 -0.5437061
vn 0.24143457 0.970417 0
vn 0.24143457 0.970417 0
vn 0.24143457 0.970417 0
vn 0.24143457 0.970417 0
vn 0.24143498 0.970417 0
vn 0.24143498 0.970417 0
vn 0.6804289 0.73281395 0
vn 0.6804289 0.73281395 0
vn 0.6804289 0.73281395 0
vn 0.6804289 0.73281395 0
vn 0.6804289 0.7328141 0
vn 0.6804289 0.7328141 0
vn 0.9607938 0.27726406 0
vn 0.9607938 0.27726406 0
vn 0.9607938 0.27726406 0
vn 0.9607938 0.27726406 0
vn 0.9607938 0.27726406 0
vn 0.9607938 0.27726406 0
vn 0.9607937 -0.27726424 0
vn 0.9607937 -0.27726424 0
vn 0.9607937 -0.27726424 0
vn 0.9607937 -0.27726424 0
vn 0.9607937 -0.27726424 0
vn 0.9607937 -0.27726424 0
vn 0.6804289 -0.7328142 0
vn 0.6804289 -0.7328142 0
vn 0.6804289 -0.7328142 0
vn 0.6804289 -0.7328142 0
vn 0.68042904 -0.73281395 0
vn 0.68042904 -0.73281395 0
vn 0.24143502 -0.9704169 0
vn 0.24143502 -0.9704169 0
vn 0.24143502 -0.9704169 0
vn 0.24143465 -0.970417 0
vn 0.24143465 -0.970417 0
vn 0.24143502 -0.9704169 0
vn 0.24143502 -0.9704169 0
vn 0.24143502 -0.9704169 0
vn -0.24143462 -0.970417 0
vn -0.24143462 -0.970417 0
vn -0.24143462 -0.970417 0
vn -0.24143462 -0.970417 0
vn -0.24143462 -0.970417 0
vn -0.24143462 -0.970417 0
vn -0.6804288 -0.73281425 0
vn -0.6804288 -0.73281425 0
vn -0.6804288 -0.73281425 0
vn -0.6804288 -0.73281425 0
vn -0.6804287 -0.7328144 0
vn -0.6804287 -0.7328144 0
vn -0.96079355 -0.2772646 0
vn -0.96079355 -0.2772646 0
vn -0.96079355 -0.2772646 0
vn -0.96079355 -0.2772646 0
vn -0.96079355 -0.2772646 0
vn -0.96079355 -0.2772646 0
vn -0.9607939 0.27726364 0
vn -0.9607939 0.27726364 0
vn -0.9607939 0.27726364 0
vn -0.9607939 0.27726364 0
vn -0.9607939 0.27726364 0
vn -0.9607939 0.27726364 0
vn 0.9190471 0.2644151 -0.29229623
vn 0.9190471 0.2644151 -0.29229623
vn 0.9190471 0.2644151 -0.29229623
vn 0.9190471 0.2644151 -0.29229623
vn -0.6804294 0.73281366 0
vn -0.6804294 0.73281366 0
vn -0.6804294 0.73281366 0
vn -0.6804294 0.73281366 0
vn -0.68042934 0.7328137 0
vn -0.68042934 0.7328137 0
vn -0.241435 0.970417 0
vn -0.241435 0.970417 0
vn -0.241435 0.970417 0
vn -0.241435 0.970417 0
vn -0.24143526 0.9704169 0
vn -0.24143526 0.9704169 0
vn -0.21546017 0.9631383 0.16106367
vn -0.21546017 0.9631383 0.16106367
vn -0.21546017 0.9631383 0.16106367
vn -0.21546017 0.9631383 0.16106367
vn -0.91780037 0.2643615 0.2962355
vn -0.91780037 0.2643615 0.2962355
vn -0.91780037 0.2643615 0.2962355
vn -0.91780037 0.2643615 0.2962355
vn 0.24127322 0.9673749 -0.07728529
vn 0.24127322 0.9673749 -0.07728529
vn 0.24127322 0.9673749 -0.07728529
vn 0.24127322 0.9673749 -0.07728529
vn -0.24120149 -0.96737146 0.07755182
vn -0.24120149 -0.96737146 0.07755182
vn -0.24120149 -0.96737146 0.07755182
vn -0.24120149 -0.96737146 0.07755182
vn 0.9190471 -0.26441506 -0.29229623
vn 0.9190471 -0.26441506 -0.29229623
vn 0.9190471 -0.26441506 -0.29229623
vn 0.9190471 -0.26441506 -0.29229623
vn -0.66530156 0.71510816 0.21446244
vn -0.66530156 0.71510816 0.21446244
vn -0.66530156 0.71510816 0.21446244
vn -0.66530156 0.71510816 0.21446244
vn -0.6653005 -0.7151092 0.21446224
vn -0.6653005 -0.7151092 0.21446224
vn -0.6653005 -0.7151092 0.21446224
vn -0.6653005 -0.7151092 0.21446224
vn 0.66589946 -0.7151632 -0.21241349
vn 0.66589946 -0.7151632 -0.21241349
vn 0.66589946 -0.7151632 -0.21241349
vn 0.66589946 -0.7151632 -0.21241349
vn -0.24120158 0.96737146 0.07755188
vn -0.24120158 0.96737146 0.07755188
vn -0.24120158 0.96737146 0.07755188
vn -0.24120158 0.96737146 0.07755188
vn 0.6658997 0.71516305 -0.21241355
vn 0.6658997 0.71516305 -0.21241355
vn 0.6658997 0.71516305 -0.21241355
vn 0.6658997 0.71516305 -0.21241355
vn -0.91780037 -0.26436177 0.2962354
vn -0.91780037 -0.26436177 0.2962354
vn -0.91780037 -0.26436177 0.2962354
vn -0.91780037 -0.26436177 0.2962354
vn 0.24127328 -0.9673749 -0.07728524
vn 0.24127328 -0.9673749 -0.07728524
vn 0.24127328 -0.9673749 -0.07728524
vn 0.24127328 -0.9673749 -0.07728524
vn 0.24127328 -0.9673749 -0.07728524
vn 0.24127328 -0.9673749 -0.07728524
vn 0.19521616 -0.68780375 -0.69915414
vn 0.19521616 -0.68780375 -0.69915414
vn 0.19521616 -0.68780375 -0.69915414
vn 0.19521616 -0.68780375 -0.69915414
vn 0.6129773 0.68674743 -0.3906878
vn 0.6129773 0.68674743 -0.3906878
vn 0.6129773 0.68674743 -0.3906878
vn 0.6129773 0.68674743 -0.3906878
vn -0.75324696 -0.250257 0.60826844
vn -0.75324696 -0.250257 0.60826844
vn -0.75324696 -0.250257 0.60826844
vn -0.75324696 -0.250257 0.60826844
vn 0.22241059 -0.96267575 -0.15423691
vn 0.22241059 -0.96267575 -0.15423691
vn 0.22241059 -0.96267575 -0.15423691
vn 0.22241059 -0.96267575 -0.15423691
vn 0.8316255 0.24379854 -0.49896026
vn 0.8316255 0.24379854 -0.49896026
vn 0.8316255 0.24379854 -0.49896026
vn 0.8316255 0.24379854 -0.49896026
vn -0.7532469 0.25025722 0.6082684
vn -0.7532469 0.25025722 0.6082684
vn -0.7532469 0.25025722 0.6082684
vn -0.7532469 0.25025722 0.6082684
vn -0.21545997 -0.9631384 0.16106336
vn -0.21545997 -0.9631384 0.16106336
vn -0.21545997 -0.9631384 0.16106336
vn -0.21545997 -0.9631384 0.16106336
vn 0.8316254 -0.24379851 -0.4989603
vn 0.8316254 -0.24379851 -0.4989603
vn 0.8316254 -0.24379851 -0.4989603
vn 0.8316254 -0.24379851 -0.4989603
vn -0.5659856 0.69367296 0.4455088
vn -0.5659856 0.69367296 0.4455088
vn -0.5659856 0.69367296 0.4455088
vn -0.5659856 0.69367296 0.4455088
vn 0.22241025 0.9626758 -0.15423661
vn 0.22241025 0.9626758 -0.15423661
vn 0.22241025 0.9626758 -0.15423661
vn 0.22241025 0.9626758 -0.15423661
vn -0.56598485 -0.693674 0.44550812
vn -0.56598485 -0.693674 0.44550812
vn -0.56598485 -0.693674 0.44550812
vn -0.56598485 -0.693674 0.44550812
vn 0.61297715 -0.68674755 -0.39068776
vn 0.61297715 -0.68674755 -0.39068776
vn 0.61297715 -0.68674755 -0.39068776
vn 0.61297715 -0.68674755 -0.39068776
vn -0.9944488 -0.074657075 -0.0741475
vn -0.9944488 -0.074657075 -0.0741475
vn -0.9944488 -0.074657075 -0.0741475
vn -0.9944488 -0.074657075 -0.0741475
vn -0.07002805 0.9622921 0.26284966
vn -0.07002805 0.9622921 0.26284966
vn -0.07002805 0.9622921 0.26284966
vn -0.07002805 0.9622921 0.26284966
vn 0.1952162 0.6878037 -0.69915426
vn 0.1952162 0.6878037 -0.69915426
vn 0.1952162 0.6878037 -0.69915426
vn 0.1952162 0.6878037 -0.69915426
vn -0.24315977 -0.24620691 0.93821937
vn -0.24315977 -0.24620691 0.93821937
vn -0.24315977 -0.24620691 0.93821937
vn -0.24315977 -0.24620691 0.93821937
vn 0.07159729 -0.96227926 -0.2624736
vn 0.07159729 -0.96227926 -0.2624736
vn 0.07159729 -0.96227926 -0.2624736
vn 0.07159729 -0.96227926 -0.2624736
vn 0.26429525 0.24604294 -0.9325294
vn 0.26429525 0.24604294 -0.9325294
vn 0.26429525 0.24604294 -0.9325294
vn 0.26429525 0.24604294 -0.9325294
vn -0.24315949 0.24620746 0.93821925
vn -0.24315949 0.24620746 0.93821925
vn -0.24315949 0.24620746 0.93821925
vn -0.24315949 0.24620746 0.93821925
vn -0.07002828 -0.96229184 0.26285034
vn -0.07002828 -0.96229184 0.26285034
vn -0.07002828 -0.96229184 0.26285034
vn -0.07002828 -0.96229184 0.26285034
vn 0.26429525 -0.24604297 -0.9325293
vn 0.26429525 -0.24604297 -0.9325293
vn 0.26429525 -0.24604297 -0.9325293
vn 0.26429525 -0.24604297 -0.9325293
vn -0.18370605 0.68798685 0.70208704
vn -0.18370605 0.68798685 0.70208704
vn -0.18370605 0.68798685 0.70208704
vn -0.18370605 0.68798685 0.70208704
vn -0.18370605 0.68798685 0.70208704
vn -0.18370605 0.68798685 0.70208704
vn 0.0715972 0.96227926 -0.26247352
vn 0.0715972 0.96227926 -0.26247352
vn 0.0715972 0.96227926 -0.26247352
vn 0.0715972 0.96227926 -0.26247352
vn -0.18370605 -0.6879877 0.7020862
vn -0.18370605 -0.6879877 0.7020862
vn -0.18370605 -0.6879877 0.7020862
vn -0.18370605 -0.6879877 0.7020862
vn 0.0028744084 -0.69439125 0.719592
vn 0.0028744084 -0.69439125 0.719592
vn 0.0028744084 -0.69439125 0.719592
vn 0.0028744084 -0.69439125 0.719592
vn -0.99428767 0.10196785 0.031536393
vn -0.99428767 0.10196785 0.031536393
vn -0.99428767 0.10196785 0.031536393
vn -0.99428767 0.10196785 0.031536393
vn -0.9944488 0.07465704 -0.074147746
vn -0.9944488 0.07465704 -0.074147746
vn -0.9944488 0.07465704 -0.074147746
vn -0.9944488 0.07465704 -0.074147746
vn -0.99368566 -0.027305914 0.10882675
vn -0.99368566 -0.027305914 0.10882675
vn -0.99368566 -0.027305914 0.10882675
vn -0.99368566 -0.027305914 0.10882675
vn -0.99446917 -0.10198675 -0.025096199
vn -0.99446917 -0.10198675 -0.025096199
vn -0.99446917 -0.10198675 -0.025096199
vn -0.99446917 -0.10198675 -0.025096199
vn -0.9943621 0.02732525 -0.1024559
vn -0.9943621 0.02732525 -0.1024559
vn -0.9943621 0.02732525 -0.1024559
vn -0.9943621 0.02732525 -0.1024559
vn -0.99368554 0.027306674 0.1088267
vn -0.99368554 0.027306674 0.1088267
vn -0.99368554 0.027306674 0.1088267
vn -0.99368554 0.027306674 0.1088267
vn -0.99428767 -0.101968296 0.0315359
vn -0.99428767 -0.101968296 0.0315359
vn -0.99428767 -0.101968296 0.0315359
vn -0.99428767 -0.101968296 0.0315359
vn -0.9943621 -0.027325254 -0.102455914
vn -0.9943621 -0.027325254 -0.102455914
vn -0.9943621 -0.027325254 -0.102455914
vn -0.9943621 -0.027325254 -0.102455914
vn -0.9939533 0.07462006 0.080551855
vn -0.9939533 0.07462006 0.080551855
vn -0.9939533 0.07462006 0.080551855
vn -0.9939533 0.07462006 0.080551855
vn -0.99446917 0.1019864 -0.025097053
vn -0.99446917 0.1019864 -0.025097053
vn -0.99446917 0.1019864 -0.025097053
vn -0.99446917 0.1019864 -0.025097053
vn -0.9939534 -0.074620314 0.080551036
vn -0.9939534 -0.074620314 0.080551036
vn -0.9939534 -0.074620314 0.080551036
vn -0.9939534 -0.074620314 0.080551036
vn 0.99999475 0 -0.0032404203
vn 0.99999475 0 -0.0032404203
vn 0.99999475 0 -0.0032404203
vn 0.99999475 0 -0.0032404203
vn 0.99999475 0 -0.0032404203
vn 0.99999475 0 -0.0032404203
vn 0.99999475 0 -0.0032404203
vn 0.99999475 0 -0.0032404203
vn 0.99999475 0 -0.0032404203
vn 0.99999475 0 -0.0032404203
vn 0.99999475 0 -0.0032404203
vn 0.99999475 0 -0.0032404203
vn -0.0028744068 -0.69439137 -0.71959186
vn -0.0028744068 -0.69439137 -0.71959186
vn -0.0028744068 -0.69439137 -0.71959186
vn -0.0028744068 -0.69439137 -0.71959186
vn 0.0010687931 0.96354306 0.26755106
vn 0.0010687931 0.96354306 0.26755106
vn 0.0010687931 0.96354306 0.26755106
vn 0.0010687931 0.96354306 0.26755106
vn -0.0028744058 0.69439113 -0.7195921
vn -0.0028744058 0.69439113 -0.7195921
vn -0.0028744058 0.69439113 -0.7195921
vn -0.0028744058 0.69439113 -0.7195921
vn 0.003867324 -0.25032923 0.968153
vn 0.003867324 -0.25032923 0.968153
vn 0.003867324 -0.25032923 0.968153
vn 0.003867324 -0.25032923 0.968153
vn -0.0010687935 -0.96354306 -0.2675514
vn -0.0010687935 -0.96354306 -0.2675514
vn -0.0010687935 -0.96354306 -0.2675514
vn -0.0010687935 -0.96354306 -0.2675514
vn -0.0038673116 0.250328 -0.9681533
vn -0.0038673116 0.250328 -0.9681533
vn -0.0038673116 0.250328 -0.9681533
vn -0.0038673116 0.250328 -0.9681533
vn 0.0038673019 0.25032908 0.9681531
vn 0.0038673019 0.25032908 0.9681531
vn 0.0038673019 0.25032908 0.9681531
vn 0.0038673019 0.25032908 0.9681531
vn 0.0010687937 -0.96354306 0.26755098
vn 0.0010687937 -0.96354306 0.26755098
vn 0.0010687937 -0.96354306 0.26755098
vn 0.0010687937 -0.96354306 0.26755098
vn -0.0038673116 -0.250328 -0.9681533
vn -0.0038673116 -0.250328 -0.9681533
vn -0.0038673116 -0.250328 -0.9681533
vn -0.0038673116 -0.250328 -0.9681533
vn 0.0028744068 0.6943909 0.7195923
vn 0.0028744068 0.6943909 0.7195923
vn 0.0028744068 0.6943909 0.7195923
vn 0.0028744068 0.6943909 0.7195923
vn -0.0010687936 0.9635432 -0.2675504
vn -0.0010687936 0.9635432 -0.2675504
vn -0.0010687936 0.9635432 -0.2675504
vn -0.0010687936 0.9635432 -0.2675504
vn 0.9190471 0.26441506 0.29229626
vn 0.9190471 0.26441506 0.29229626
vn 0.9190471 0.26441506 0.29229626
vn 0.9190471 0.26441506 0.29229626
vn -0.21546014 0.9631383 -0.16106354
vn -0.21546014 0.9631383 -0.16106354
vn -0.21546014 0.9631383 -0.16106354
vn -0.21546014 0.9631383 -0.16106354
vn -0.91780037 0.2643616 -0.29623547
vn -0.91780037 0.2643616 -0.29623547
vn -0.91780037 0.2643616 -0.29623547
vn -0.91780037 0.2643616 -0.29623547
vn 0.2412733 0.9673749 0.07728537
vn 0.2412733 0.9673749 0.07728537
vn 0.2412733 0.9673749 0.07728537
vn 0.2412733 0.9673749 0.07728537
vn -0.24120145 -0.96737146 -0.0775519
vn -0.24120145 -0.96737146 -0.0775519
vn -0.24120145 -0.96737146 -0.0775519
vn -0.24120145 -0.96737146 -0.0775519
vn 0.9190471 -0.26441512 0.29229626
vn 0.9190471 -0.26441512 0.29229626
vn 0.9190471 -0.26441512 0.29229626
vn 0.9190471 -0.26441512 0.29229626
vn -0.6653015 0.71510816 -0.21446243
vn -0.6653015 0.71510816 -0.21446243
vn -0.6653015 0.71510816 -0.21446243
vn -0.6653015 0.71510816 -0.21446243
vn -0.6653015 0.71510816 -0.21446243
vn -0.6653015 0.71510816 -0.21446243
vn -0.66530037 -0.7151093 -0.21446224
vn -0.66530037 -0.7151093 -0.21446224
vn -0.66530037 -0.7151093 -0.21446224
vn -0.66530037 -0.7151093 -0.21446224
vn 0.66589975 -0.715163 0.21241345
vn 0.66589975 -0.715163 0.21241345
vn 0.66589975 -0.715163 0.21241345
vn 0.66589975 -0.715163 0.21241345
vn -0.2412018 0.96737146 -0.077551804
vn -0.2412018 0.96737146 -0.077551804
vn -0.2412018 0.96737146 -0.077551804
vn -0.2412018 0.96737146 -0.077551804
vn 0.6658997 0.7151629 0.21241367
vn 0.6658997 0.7151629 0.21241367
vn 0.6658997 0.7151629 0.21241367
vn 0.6658997 0.7151629 0.21241367
vn -0.91780025 -0.264362 -0.29623544
vn -0.91780025 -0.264362 -0.29623544
vn -0.91780025 -0.264362 -0.29623544
vn -0.91780025 -0.264362 -0.29623544
vn 0.24127313 -0.9673749 0.07728515
vn 0.24127313 -0.9673749 0.07728515
vn 0.24127313 -0.9673749 0.07728515
vn 0.24127313 -0.9673749 0.07728515
vn 0.19521622 -0.6878038 0.69915414
vn 0.19521622 -0.6878038 0.69915414
vn 0.19521622 -0.6878038 0.69915414
vn 0.19521622 -0.6878038 0.69915414
vn 0.6129773 0.68674725 0.39068776
vn 0.6129773 0.68674725 0.39068776
vn 0.6129773 0.68674725 0.39068776
vn 0.6129773 0.68674725 0.39068776
vn -0.75324684 -0.25025764 -0.6082683
vn -0.75324684 -0.25025764 -0.6082683
vn -0.75324684 -0.25025764 -0.6082683
vn -0.75324684 -0.25025764 -0.6082683
vn 0.22241041 -0.96267575 0.1542368
vn 0.22241041 -0.96267575 0.1542368
vn 0.22241041 -0.96267575 0.1542368
vn 0.22241041 -0.96267575 0.1542368
vn 0.8316255 0.24379843 0.49896038
vn 0.8316255 0.24379843 0.49896038
vn 0.8316255 0.24379843 0.49896038
vn 0.8316255 0.24379843 0.49896038
vn -0.75324684 0.25025752 -0.6082683
vn -0.75324684 0.25025752 -0.6082683
vn -0.75324684 0.25025752 -0.6082683
vn -0.75324684 0.25025752 -0.6082683
vn -0.21545987 -0.9631384 -0.16106343
vn -0.21545987 -0.9631384 -0.16106343
vn -0.21545987 -0.9631384 -0.16106343
vn -0.21545987 -0.9631384 -0.16106343
vn 0.8316256 -0.24379845 0.49896026
vn 0.8316256 -0.24379845 0.49896026
vn 0.8316256 -0.24379845 0.49896026
vn 0.8316256 -0.24379845 0.49896026
vn -0.56598574 0.69367284 -0.44550887
vn -0.56598574 0.69367284 -0.44550887
vn -0.56598574 0.69367284 -0.44550887
vn -0.56598574 0.69367284 -0.44550887
vn -0.56598574 0.69367284 -0.44550887
vn -0.56598574 0.69367284 -0.44550887
vn 0.22240995 0.9626758 0.15423661
vn 0.22240995 0.9626758 0.15423661
vn 0.22240995 0.9626758 0.15423661
vn 0.22240995 0.9626758 0.15423661
vn -0.5659847 -0.6936741 -0.44550806
vn -0.5659847 -0.6936741 -0.44550806
vn -0.5659847 -0.6936741 -0.44550806
vn -0.5659847 -0.6936741 -0.44550806
vn 0.6129772 -0.68674755 0.3906876
vn 0.6129772 -0.68674755 0.3906876
vn 0.6129772 -0.68674755 0.3906876
vn 0.6129772 -0.68674755 0.3906876
vn -0.9944488 -0.07465707 0.07414779
vn -0.9944488 -0.07465707 0.07414779
vn -0.9944488 -0.07465707 0.07414779
vn -0.9944488 -0.07465707 0.07414779
vn -0.07002803 0.9622922 -0.2628495
vn -0.07002803 0.9622922 -0.2628495
vn -0.07002803 0.9622922 -0.2628495
vn -0.07002803 0.9622922 -0.2628495
vn 0.19521622 0.68780357 0.69915444
vn 0.19521622 0.68780357 0.69915444
vn 0.19521622 0.68780357 0.69915444
vn 0.19521622 0.68780357 0.69915444
vn -0.24315982 -0.24620573 -0.93821967
vn -0.24315982 -0.24620573 -0.93821967
vn -0.24315982 -0.24620573 -0.93821967
vn -0.24315982 -0.24620573 -0.93821967
vn 0.07159728 -0.96227926 0.26247346
vn 0.07159728 -0.96227926 0.26247346
vn 0.07159728 -0.96227926 0.26247346
vn 0.07159728 -0.96227926 0.26247346
vn 0.26429537 0.24604249 0.9325294
vn 0.26429537 0.24604249 0.9325294
vn 0.26429537 0.24604249 0.9325294
vn 0.26429537 0.24604249 0.9325294
vn -0.24315943 0.24620806 -0.9382191
vn -0.24315943 0.24620806 -0.9382191
vn -0.24315943 0.24620806 -0.9382191
vn -0.24315943 0.24620806 -0.9382191
vn -0.07002825 -0.96229184 -0.26285058
vn -0.07002825 -0.96229184 -0.26285058
vn -0.07002825 -0.96229184 -0.26285058
vn -0.07002825 -0.96229184 -0.26285058
vn 0.26429525 -0.24604245 0.93252945
vn 0.26429525 -0.24604245 0.93252945
vn 0.26429525 -0.24604245 0.93252945
vn 0.26429525 -0.24604245 0.93252945
vn -0.18370616 0.6879865 -0.7020872
vn -0.18370616 0.6879865 -0.7020872
vn -0.18370616 0.6879865 -0.7020872
vn -0.18370616 0.6879865 -0.7020872
vn -0.18370616 0.6879865 -0.7020872
vn -0.18370616 0.6879865 -0.7020872
vn 0.07159724 0.96227926 0.26247364
vn 0.07159724 0.96227926 0.26247364
vn 0.07159724 0.96227926 0.26247364
vn 0.07159724 0.96227926 0.26247364
vn -0.18370588 -0.6879883 -0.7020856
vn -0.18370588 -0.6879883 -0.7020856
vn -0.18370588 -0.6879883 -0.7020856
vn -0.18370588 -0.6879883 -0.7020856
vn 0.0028743972 -0.69439137 -0.71959186
vn 0.0028743972 -0.69439137 -0.71959186
vn 0.0028743972 -0.69439137 -0.71959186
vn 0.0028743972 -0.69439137 -0.71959186
vn -0.99428767 0.101967834 -0.031536043
vn -0.99428767 0.101967834 -0.031536043
vn -0.99428767 0.101967834 -0.031536043
vn -0.99428767 0.101967834 -0.031536043
vn -0.9944488 0.07465701 0.07414802
vn -0.9944488 0.07465701 0.07414802
vn -0.9944488 0.07465701 0.07414802
vn -0.9944488 0.07465701 0.07414802
vn -0.99368554 -0.027305927 -0.108827
vn -0.99368554 -0.027305927 -0.108827
vn -0.99368554 -0.027305927 -0.108827
vn -0.99368554 -0.027305927 -0.108827
vn -0.99446917 -0.101986736 0.025096485
vn -0.99446917 -0.101986736 0.025096485
vn -0.99446917 -0.101986736 0.025096485
vn -0.99446917 -0.101986736 0.025096485
vn -0.9943621 0.027325211 0.10245591
vn -0.9943621 0.027325211 0.10245591
vn -0.9943621 0.027325211 0.10245591
vn -0.9943621 0.027325211 0.10245591
vn -0.99368566 0.027306635 -0.108826324
vn -0.99368566 0.027306635 -0.108826324
vn -0.99368566 0.027306635 -0.108826324
vn -0.99368566 0.027306635 -0.108826324
vn -0.99428767 -0.10196826 -0.03153548
vn -0.99428767 -0.10196826 -0.03153548
vn -0.99428767 -0.10196826 -0.03153548
vn -0.99428767 -0.10196826 -0.03153548
vn -0.9943621 -0.027325211 0.102456175
vn -0.9943621 -0.027325211 0.102456175
vn -0.9943621 -0.027325211 0.102456175
vn -0.9943621 -0.027325211 0.102456175
vn -0.9939533 0.07462007 -0.080552414
vn -0.9939533 0.07462007 -0.080552414
vn -0.9939533 0.07462007 -0.080552414
vn -0.9939533 0.07462007 -0.080552414
vn -0.99446917 0.10198642 0.025096763
vn -0.99446917 0.10198642 0.025096763
vn -0.99446917 0.10198642 0.025096763
vn -0.99446917 0.10198642 0.025096763
vn -0.9939534 -0.07462025 -0.08055133
vn -0.9939534 -0.07462025 -0.08055133
vn -0.9939534 -0.07462025 -0.08055133
vn -0.9939534 -0.07462025 -0.08055133
vn 0.99999475 0 0.0032404624
vn 0.99999475 0 0.0032404624
vn 0.99999475 0 0.0032404624
vn 0.99999475 0 0.0032404624
vn 0.99999475 0 0.0032404624
vn 0.99999475 0 0.0032404624
vn 0.99999475 0 0.0032404624
vn 0.99999475 0 0.0032404624
vn 0.99999475 0 0.0032404624
vn 0.99999475 0 0.0032404624
vn 0.99999475 0 0.0032404624
vn 0.99999475 0 0.0032404624
vn -0.0028744393 -0.69439113 0.71959203
vn -0.0028744393 -0.69439113 0.71959203
vn -0.0028744393 -0.69439113 0.71959203
vn -0.0028744393 -0.69439113 0.71959203
vn 0.0010688006 0.96354306 -0.2675511
vn 0.0010688006 0.96354306 -0.2675511
vn 0.0010688006 0.96354306 -0.2675511
vn 0.0010688006 0.96354306 -0.2675511
vn -0.002874401 0.69439095 0.71959215
vn -0.002874401 0.69439095 0.71959215
vn -0.002874401 0.69439095 0.71959215
vn -0.002874401 0.69439095 0.71959215
vn 0.0038672942 -0.2503293 -0.968153
vn 0.0038672942 -0.2503293 -0.968153
vn 0.0038672942 -0.2503293 -0.968153
vn 0.0038672942 -0.2503293 -0.968153
vn -0.0010688042 -0.96354306 0.2675511
vn -0.0010688042 -0.96354306 0.2675511
vn -0.0010688042 -0.96354306 0.2675511
vn -0.0010688042 -0.96354306 0.2675511
vn -0.003867316 0.25032777 0.9681534
vn -0.003867316 0.25032777 0.9681534
vn -0.003867316 0.25032777 0.9681534
vn -0.003867316 0.25032777 0.9681534
vn 0.0038673424 0.25032908 -0.9681531
vn 0.0038673424 0.25032908 -0.9681531
vn 0.0038673424 0.25032908 -0.9681531
vn 0.0038673424 0.25032908 -0.9681531
vn 0.0010687285 -0.96354306 -0.26755086
vn 0.0010687285 -0.96354306 -0.26755086
vn 0.0010687285 -0.96354306 -0.26755086
vn 0.0010687285 -0.96354306 -0.26755086
vn -0.003867314 -0.25032777 0.9681534
vn -0.003867314 -0.25032777 0.9681534
vn -0.003867314 -0.25032777 0.9681534
vn -0.003867314 -0.25032777 0.9681534
vn 0.0028744373 0.69439095 -0.71959215
vn 0.0028744373 0.69439095 -0.71959215
vn 0.0028744373 0.69439095 -0.71959215
vn 0.0028744373 0.69439095 -0.71959215
vn -0.0010687328 0.9635432 0.26755062
vn -0.0010687328 0.9635432 0.26755062
vn -0.0010687328 0.9635432 0.26755062
vn -0.0010687328 0.9635432 0.26755062
g Cylinder.007_0
f 3/3/3 2/2/2 1/1/1
f 4/4/4 3/3/3 1/1/1
f 2/2/2 5/5/5 1/1/1
f 5/5/5 6/6/6 1/1/1
f 9/9/9 8/8/8 7/7/7
f 10/10/10 9/9/9 7/7/7
f 8/8/8 11/11/11 7/7/7
f 11/11/11 12/12/12 7/7/7
f 15/15/15 14/14/14 13/13/13
f 16/16/16 15/15/15 13/13/13
f 14/14/14 17/17/17 13/13/13
f 17/17/17 18/18/18 13/13/13
f 21/21/21 20/20/20 19/19/19
f 22/22/22 21/21/21 19/19/19
f 20/20/20 23/23/23 19/19/19
f 23/23/23 24/24/24 19/19/19
f 27/27/27 26/26/26 25/25/25
f 28/28/28 27/27/27 25/25/25
f 26/26/26 29/29/29 25/25/25
f 29/29/29 30/30/30 25/25/25
f 33/33/33 32/32/32 31/31/31
f 32/32/32 34/34/34 31/31/31
f 34/34/34 35/35/35 31/31/31
f 38/38/38 37/37/37 36/36/36
f 41/41/41 40/40/40 39/39/39
f 42/42/42 41/41/41 39/39/39
f 40/40/40 43/43/43 39/39/39
f 43/43/43 44/44/44 39/39/39
f 47/47/47 46/46/46 45/45/45
f 48/48/48 47/47/47 45/45/45
f 46/46/46 49/49/49 45/45/45
f 49/49/49 50/50/50 45/45/45
f 53/53/53 52/52/52 51/51/51
f 54/54/54 53/53/53 51/51/51
f 52/52/52 55/55/55 51/51/51
f 55/55/55 56/56/56 51/51/51
f 59/59/59 58/58/58 57/57/57
f 60/60/60 59/59/59 57/57/57
f 58/58/58 61/61/61 57/57/57
f 61/61/61 62/62/62 57/57/57
f 65/65/65 64/64/64 63/63/63
f 66/66/66 65/65/65 63/63/63
f 69/69/69 68/68/68 67/67/67
f 70/70/70 69/69/69 67/67/67
f 68/68/68 71/71/71 67/67/67
f 71/71/71 72/72/72 67/67/67
f 75/75/75 74/74/74 73/73/73
f 76/76/76 75/75/75 73/73/73
f 74/74/74 77/77/77 73/73/73
f 77/77/77 78/78/78 73/73/73
f 81/81/81 80/80/80 79/79/79
f 82/82/82 81/81/81 79/79/79
f 85/85/85 84/84/84 83/83/83
f 86/86/86 85/85/85 83/83/83
f 89/89/89 88/88/88 87/87/87
f 90/90/90 89/89/89 87/87/87
f 93/93/93 92/92/92 91/91/91
f 94/94/94 93/93/93 91/91/91
f 97/97/97 96/96/96 95/95/95
f 98/98/98 97/97/97 95/95/95
f 101/101/101 100/100/100 99/99/99
f 102/102/102 101/101/101 99/99/99
f 105/105/105 104/104/104 103/103/103
f 106/106/106 105/105/105 103/103/103
f 109/109/109 108/108/108 107/107/107
f 110/110/110 109/109/109 107/107/107
f 113/113/113 112/112/112 111/111/111
f 114/114/114 113/113/113 111/111/111
f 117/117/117 116/116/116 115/115/115
f 118/118/118 117/117/117 115/115/115
f 121/121/121 120/120/120 119/119/119
f 122/122/122 121/121/121 119/119/119
f 125/125/125 124/124/124 123/123/123
f 128/128/128 127/127/127 126/126/126
f 131/131/131 130/130/130 129/129/129
f 132/132/132 131/131/131 129/129/129
f 135/135/135 134/134/134 133/133/133
f 136/136/136 135/135/135 133/133/133
f 139/139/139 138/138/138 137/137/137
f 140/140/140 139/139/139 137/137/137
f 143/143/143 142/142/142 141/141/141
f 144/144/144 143/143/143 141/141/141
f 147/147/147 146/146/146 145/145/145
f 148/148/148 147/147/147 145/145/145
f 151/151/151 150/150/150 149/149/149
f 152/152/152 151/151/151 149/149/149
f 155/155/155 154/154/154 153/153/153
f 156/156/156 155/155/155 153/153/153
f 159/159/159 158/158/158 157/157/157
f 160/160/160 159/159/159 157/157/157
f 163/163/163 162/162/162 161/161/161
f 164/164/164 163/163/163 161/161/161
f 167/167/167 166/166/166 165/165/165
f 168/168/168 167/167/167 165/165/165
f 171/171/171 170/170/170 169/169/169
f 172/172/172 171/171/171 169/169/169
f 175/175/175 174/174/174 173/173/173
f 176/176/176 175/175/175 173/173/173
f 179/179/179 178/178/178 177/177/177
f 180/180/180 179/179/179 177/177/177
f 183/183/183 182/182/182 181/181/181
f 184/184/184 183/183/183 181/181/181
f 187/187/187 186/186/186 185/185/185
f 188/188/188 187/187/187 185/185/185
f 191/191/191 190/190/190 189/189/189
f 192/192/192 191/191/191 189/189/189
f 195/195/195 194/194/194 193/193/193
f 196/196/196 195/195/195 193/193/193
f 199/199/199 198/198/198 197/197/197
f 200/200/200 199/199/199 197/197/197
f 203/203/203 202/202/202 201/201/201
f 204/204/204 203/203/203 201/201/201
f 207/207/207 206/206/206 205/205/205
f 208/208/208 207/207/207 205/205/205
f 211/211/211 210/210/210 209/209/209
f 212/212/212 211/211/211 209/209/209
f 215/215/215 214/214/214 213/213/213
f 218/218/218 217/217/217 216/216/216
f 221/221/221 220/220/220 219/219/219
f 222/222/222 221/221/221 219/219/219
f 225/225/225 224/224/224 223/223/223
f 226/226/226 225/225/225 223/223/223
f 229/229/229 228/228/228 227/227/227
f 230/230/230 229/229/229 227/227/227
f 233/233/233 232/232/232 231/231/231
f 234/234/234 233/233/233 231/231/231
f 237/237/237 236/236/236 235/235/235
f 238/238/238 237/237/237 235/235/235
f 241/241/241 240/240/240 239/239/239
f 242/242/242 241/241/241 239/239/239
f 245/245/245 244/244/244 243/243/243
f 246/246/246 245/245/245 243/243/243
f 249/249/249 248/248/248 247/247/247
f 250/250/250 249/249/249 247/247/247
f 253/253/253 252/252/252 251/251/251
f 254/254/254 253/253/253 251/251/251
f 257/257/257 256/256/256 255/255/255
f 258/258/258 257/257/257 255/255/255
f 261/261/261 260/260/260 259/259/259
f 262/262/262 261/261/261 259/259/259
f 265/265/265 264/264/264 263/263/263
f 266/266/266 265/265/265 263/263/263
f 269/269/269 268/268/268 267/267/267
f 270/270/270 269/269/269 267/267/267
f 273/273/273 272/272/272 271/271/271
f 274/274/274 273/273/273 271/271/271
f 277/277/277 276/276/276 275/275/275
f 275/275/275 278/278/278 277/277/277
f 275/275/275 279/279/279 278/278/278
f 279/279/279 280/280/280 278/278/278
f 279/279/279 281/281/281 280/280/280
f 281/281/281 282/282/282 280/280/280
f 281/281/281 283/283/283 282/282/282
f 283/283/283 284/284/284 282/282/282
f 283/283/283 285/285/285 284/284/284
f 285/285/285 286/286/286 284/284/284
f 289/289/289 288/288/288 287/287/287
f 290/290/290 289/289/289 287/287/287
f 293/293/293 292/292/292 291/291/291
f 294/294/294 293/293/293 291/291/291
f 297/297/297 296/296/296 295/295/295
f 298/298/298 297/297/297 295/295/295
f 301/301/301 300/300/300 299/299/299
f 302/302/302 301/301/301 299/299/299
f 305/305/305 304/304/304 303/303/303
f 306/306/306 305/305/305 303/303/303
f 309/309/309 308/308/308 307/307/307
f 310/310/310 309/309/309 307/307/307
f 313/313/313 312/312/312 311/311/311
f 314/314/314 313/313/313 311/311/311
f 317/317/317 316/316/316 315/315/315
f 318/318/318 317/317/317 315/315/315
f 321/321/321 320/320/320 319/319/319
f 322/322/322 321/321/321 319/319/319
f 325/325/325 324/324/324 323/323/323
f 326/326/326 325/325/325 323/323/323
f 329/329/329 328/328/328 327/327/327
f 330/330/330 329/329/329 327/327/327
f 333/333/333 332/332/332 331/331/331
f 334/334/334 333/333/333 331/331/331
f 337/337/337 336/336/336 335/335/335
f 338/338/338 337/337/337 335/335/335
f 341/341/341 340/340/340 339/339/339
f 342/342/342 341/341/341 339/339/339
f 345/345/345 344/344/344 343/343/343
f 346/346/346 345/345/345 343/343/343
f 349/349/349 348/348/348 347/347/347
f 350/350/350 349/349/349 347/347/347
f 353/353/353 352/352/352 351/351/351
f 354/354/354 353/353/353 351/351/351
f 357/357/357 356/356/356 355/355/355
f 360/360/360 359/359/359 358/358/358
f 363/363/363 362/362/362 361/361/361
f 364/364/364 363/363/363 361/361/361
f 367/367/367 366/366/366 365/365/365
f 368/368/368 367/367/367 365/365/365
f 371/371/371 370/370/370 369/369/369
f 372/372/372 371/371/371 369/369/369
f 375/375/375 374/374/374 373/373/373
f 376/376/376 375/375/375 373/373/373
f 379/379/379 378/378/378 377/377/377
f 380/380/380 379/379/379 377/377/377
f 383/383/383 382/382/382 381/381/381
f 384/384/384 383/383/383 381/381/381
f 387/387/387 386/386/386 385/385/385
f 388/388/388 387/387/387 385/385/385
f 391/391/391 390/390/390 389/389/389
f 392/392/392 391/391/391 389/389/389
f 395/395/395 394/394/394 393/393/393
f 396/396/396 395/395/395 393/393/393
f 399/399/399 398/398/398 397/397/397
f 400/400/400 399/399/399 397/397/397
f 403/403/403 402/402/402 401/401/401
f 404/404/404 403/403/403 401/401/401
f 407/407/407 406/406/406 405/405/405
f 408/408/408 407/407/407 405/405/405
f 411/411/411 410/410/410 409/409/409
f 412/412/412 411/411/411 409/409/409
f 415/415/415 414/414/414 413/413/413
f 416/416/416 415/415/415 413/413/413
f 419/419/419 418/418/418 417/417/417
f 422/422/422 421/421/421 420/420/420
f 425/425/425 424/424/424 423/423/423
f 426/426/426 425/425/425 423/423/423
f 429/429/429 428/428/428 427/427/427
f 430/430/430 429/429/429 427/427/427
f 433/433/433 432/432/432 431/431/431
f 434/434/434 433/433/433 431/431/431
f 437/437/437 436/436/436 435/435/435
f 438/438/438 437/437/437 435/435/435
f 441/441/441 440/440/440 439/439/439
f 442/442/442 441/441/441 439/439/439
f 445/445/445 444/444/444 443/443/443
f 446/446/446 445/445/445 443/443/443
f 449/449/449 448/448/448 447/447/447
f 450/450/450 449/449/449 447/447/447
f 453/453/453 452/452/452 451/451/451
f 454/454/454 453/453/453 451/451/451
f 457/457/457 456/456/456 455/455/455
f 458/458/458 457/457/457 455/455/455
f 461/461/461 460/460/460 459/459/459
f 462/462/462 461/461/461 459/459/459
f 465/465/465 464/464/464 463/463/463
f 466/466/466 465/465/465 463/463/463
f 469/469/469 468/468/468 467/467/467
f 470/470/470 469/469/469 467/467/467
f 473/473/473 472/472/472 471/471/471
f 476/476/476 475/475/475 474/474/474
f 479/479/479 478/478/478 477/477/477
f 480/480/480 479/479/479 477/477/477
f 483/483/483 482/482/482 481/481/481
f 484/484/484 483/483/483 481/481/481
f 487/487/487 486/486/486 485/485/485
f 488/488/488 487/487/487 485/485/485
f 491/491/491 490/490/490 489/489/489
f 492/492/492 491/491/491 489/489/489
f 495/495/495 494/494/494 493/493/493
f 496/496/496 495/495/495 493/493/493
f 499/499/499 498/498/498 497/497/497
f 500/500/500 499/499/499 497/497/497
f 503/503/503 502/502/502 501/501/501
f 504/504/504 503/503/503 501/501/501
f 507/507/507 506/506/506 505/505/505
f 508/508/508 507/507/507 505/505/505
f 511/511/511 510/510/510 509/509/509
f 512/512/512 511/511/511 509/509/509
f 515/515/515 514/514/514 513/513/513
f 516/516/516 515/515/515 513/513/513
f 519/519/519 518/518/518 517/517/517
f 520/520/520 519/519/519 517/517/517
f 523/523/523 522/522/522 521/521/521
f 524/524/524 523/523/523 521/521/521
f 527/527/527 526/526/526 525/525/525
f 528/528/528 527/527/527 525/525/525
f 531/531/531 530/530/530 529/529/529
f 532/532/532 531/531/531 529/529/529
f 535/535/535 534/534/534 533/533/533
f 533/533/533 536/536/536 535/535/535
f 536/536/536 537/537/537 535/535/535
f 536/536/536 538/538/538 537/537/537
f 538/538/538 539/539/539 537/537/537
f 538/538/538 540/540/540 539/539/539
f 540/540/540 541/541/541 539/539/539
f 540/540/540 542/542/542 541/541/541
f 542/542/542 543/543/543 541/541/541
f 542/542/542 544/544/544 543/543/543
f 547/547/547 546/546/546 545/545/545
f 548/548/548 547/547/547 545/545/545
f 551/551/551 550/550/550 549/549/549
f 552/552/552 551/551/551 549/549/549
f 555/555/555 554/554/554 553/553/553
f 556/556/556 555/555/555 553/553/553
f 559/559/559 558/558/558 557/557/557
f 560/560/560 559/559/559 557/557/557
f 563/563/563 562/562/562 561/561/561
f 564/564/564 563/563/563 561/561/561
f 567/567/567 566/566/566 565/565/565
f 568/568/568 567/567/567 565/565/565
f 571/571/571 570/570/570 569/569/569
f 572/572/572 571/571/571 569/569/569
f 575/575/575 574/574/574 573/573/573
f 576/576/576 575/575/575 573/573/573
f 579/579/579 578/578/578 577/577/577
f 580/580/580 579/579/579 577/577/577
f 583/583/583 582/582/582 581/581/581
f 584/584/584 583/583/583 581/581/581
f 587/587/587 586/586/586 585/585/585
f 588/588/588 587/587/587 585/585/585
