g TelephoneHolder
v -0.14999999 -0.0801216 0.016825097
v -0.14999999 -0.0803128 -0.0753822
v -0.14999999 0.094554946 0.027059006
v -0.14999999 0.09525951 0.068045974
v -0.14999999 -0.14544512 -0.0022529364
v -0.14999999 -0.14544514 0.109032206
v -0.14999999 -0.07993041 0.10903241
v -0.14999999 -0.14544511 -0.11353808
v -0.14999999 0.095964074 0.10903292
v -0.14999999 0.094554946 0.008259226
v -0.14999999 -0.0803128 -0.094181985
v -0.14999999 -0.14544512 -0.13233787
v 0.14999999 -0.080121614 0.016825104
v 0.14999999 -0.07993041 0.10903241
v 0.14999999 0.095964074 0.10903292
v 0.14999999 0.09525951 0.06804597
v 0.14999999 -0.14544512 -0.0022529364
v 0.14999999 -0.14544514 0.109032206
v 0.14999999 -0.14544511 -0.11353808
v 0.14999999 -0.0803128 -0.0753822
v 0.14999999 0.094554946 0.027059006
v 0.14999999 -0.0803128 -0.094181985
v 0.14999999 0.094554946 0.008259226
v 0.14999999 -0.14544512 -0.13233787
v -0.08287986 -0.07993041 0.1090324
v -0.14999999 -0.07993041 0.10903241
v -0.14999999 0.095964074 0.10903292
v -0.08287986 0.0959641 0.10903292
v 0.08287986 -0.07993041 0.1090324
v 0.08287986 0.0959641 0.10903292
v 0.14999999 -0.07993041 0.10903241
v 0.14999999 0.095964074 0.10903292
v 0.08287986 -0.14544514 0.1090322
v -0.08287986 -0.14544514 0.1090322
v 0.14999999 -0.14544514 0.109032206
v -0.14999999 -0.14544514 0.109032206
v 0.08287986 -0.14544512 -0.0022529364
v 0.08287986 -0.14544514 0.1090322
v 0.14999999 -0.14544514 0.109032206
v 0.14999999 -0.14544512 -0.0022529364
v -0.08287986 -0.14544512 -0.0022529364
v -0.08287986 -0.14544514 0.1090322
v -0.14999999 -0.14544512 -0.0022529364
v -0.14999999 -0.14544514 0.109032206
v -0.14999999 -0.14544511 -0.11353808
v -0.08287986 -0.14544511 -0.11353807
v 0.08287986 -0.14544511 -0.11353807
v 0.14999999 -0.14544511 -0.11353808
v -0.14999999 -0.14544512 -0.13233787
v -0.08287986 -0.14544512 -0.13233785
v 0.08287986 -0.14544512 -0.13233785
v 0.14999999 -0.14544512 -0.13233787
v -0.08287986 0.09525951 0.06804597
v -0.08287986 0.0959641 0.10903292
v -0.14999999 0.095964074 0.10903292
v -0.14999999 0.09525951 0.068045974
v 0.08287986 0.09525951 0.06804597
v 0.08287986 0.0959641 0.10903292
v 0.14999999 0.09525951 0.06804597
v 0.14999999 0.095964074 0.10903292
v 0.14999999 0.094554946 0.027059006
v 0.08287986 0.094554946 0.027059004
v -0.08287986 0.094554946 0.027059004
v -0.14999999 0.094554946 0.027059006
v -0.08287986 0.094554946 0.008259226
v -0.14999999 0.094554946 0.008259226
v 0.14999999 0.094554946 0.008259226
v 0.08287986 0.094554946 0.008259226
v -0.08287986 -0.14544511 -0.11353807
v -0.08287986 -0.14544512 -0.0022529364
v 0.08287986 -0.14544512 -0.0022529364
v 0.08287986 -0.14544511 -0.11353807
v -0.08287986 -0.12649368 -0.10243593
v -0.08287986 -0.12643805 0.003298165
v -0.08287986 0.09525951 0.06804597
v -0.08287986 0.094554946 0.027059004
v 0.08287986 -0.12643805 0.003298165
v 0.08287986 0.09525951 0.06804597
v -0.08287986 0.09525951 0.06804597
v -0.08287986 -0.12643805 0.003298165
v 0.08287986 -0.12643805 0.003298165
v 0.08287986 -0.12649368 -0.10243593
v 0.08287986 0.094554946 0.027059004
v 0.08287986 0.09525951 0.06804597
v 0.08287986 -0.14544512 -0.13233785
v 0.14999999 -0.14544512 -0.13233787
v 0.14999999 -0.0803128 -0.094181985
v 0.08287986 -0.08031281 -0.094181985
v -0.14999999 -0.14544512 -0.13233787
v -0.08287986 -0.14544512 -0.13233785
v -0.08287986 -0.08031281 -0.094181985
v -0.14999999 -0.0803128 -0.094181985
v -0.08287986 -0.14544512 -0.13233785
v 0.08287986 -0.14544512 -0.13233785
v 0.08287986 -0.08031281 -0.094181985
v -0.08287986 -0.08031281 -0.094181985
v -0.14999999 -0.0803128 -0.094181985
v -0.08287986 -0.08031281 -0.094181985
v -0.08287986 0.094554946 0.008259226
v -0.14999999 0.094554946 0.008259226
v 0.08287986 -0.08031281 -0.094181985
v 0.14999999 -0.0803128 -0.094181985
v 0.14999999 0.094554946 0.008259226
v 0.08287986 0.094554946 0.008259226
v -0.08287986 -0.14544511 -0.11353807
v -0.08287986 -0.14544512 -0.13233785
v -0.08287986 -0.08031281 -0.094181985
v -0.08287986 -0.08031281 -0.0753822
v 0.08287986 -0.08031281 -0.0753822
v 0.08287986 -0.08031281 -0.094181985
v 0.08287986 0.094554946 0.008259226
v 0.08287986 0.094554946 0.027059004
v -0.08287986 -0.08031281 -0.0753822
v -0.08287986 -0.08031281 -0.094181985
v 0.08287986 -0.08031281 -0.094181985
v 0.08287986 -0.08031281 -0.0753822
v 0.08287986 -0.14544511 -0.11353807
v 0.08287986 -0.14544512 -0.13233785
v 0.08287986 -0.08031281 -0.094181985
v 0.08287986 -0.08031281 -0.0753822
v -0.08287986 0.094554946 0.027059004
v -0.08287986 0.094554946 0.008259226
v -0.08287986 -0.08031281 -0.094181985
v -0.08287986 -0.08031281 -0.0753822
v -0.14999999 -0.0803128 -0.0753822
v -0.14999999 -0.0803128 -0.094181985
v -0.08287986 -0.08031281 -0.094181985
v -0.08287986 -0.08031281 -0.0753822
v 0.14999999 -0.0803128 -0.0753822
v 0.14999999 -0.0803128 -0.094181985
v 0.08287986 -0.08031281 -0.094181985
v 0.08287986 -0.08031281 -0.0753822
v 0.08287986 -0.08031281 -0.0753822
v 0.08287986 -0.08031281 -0.094181985
v 0.08287986 -0.14544512 -0.13233785
v 0.08287986 -0.14544511 -0.11353807
v 0.08287986 -0.08031281 -0.0753822
v 0.08287986 -0.08031281 -0.094181985
v 0.14999999 -0.0803128 -0.094181985
v 0.14999999 -0.0803128 -0.0753822
v -0.08287986 -0.08031281 -0.0753822
v -0.08287986 -0.08031281 -0.094181985
v -0.14999999 -0.0803128 -0.094181985
v -0.14999999 -0.0803128 -0.0753822
v -0.08287986 -0.08031281 -0.0753822
v -0.08287986 -0.08031281 -0.094181985
v -0.08287986 -0.14544512 -0.13233785
v -0.08287986 -0.14544511 -0.11353807
v 0.08287986 -0.14544511 -0.11353807
v 0.08287986 -0.14544512 -0.13233785
v -0.08287986 -0.14544512 -0.13233785
v -0.08287986 -0.14544511 -0.11353807
v 0.08287986 -0.08031281 -0.0753822
v 0.08287986 -0.14544511 -0.11353807
v -0.08287986 -0.14544511 -0.11353807
v -0.08287986 -0.08031281 -0.0753822
v -0.021157404 -0.1204769 0.2086205
v -0.019675111 -0.12154631 0.2089626
v -0.0047096726 -0.11404451 0.09639408
v -0.006130242 -0.11293681 0.09556356
v -0.029837962 -0.13705401 0.31594005
v -0.031361315 -0.13606277 0.3160803
v -0.021157404 -0.1204769 0.2086205
v -0.021937247 -0.118198715 0.20870405
v -0.032187365 -0.13387164 0.316704
v -0.031361315 -0.13606277 0.3160803
v -0.0068408484 -0.110615574 0.09509837
v -0.006130242 -0.11293681 0.09556356
v -0.03191864 -0.16774017 0.41234592
v -0.03274512 -0.16572417 0.41349253
v -0.024329778 -0.21195322 0.4994615
v -0.023541782 -0.2137352 0.49784946
v -0.006943559 -0.27227393 0.57302326
v -0.0076607456 -0.27075568 0.57500273
v 0.016535854 -0.34032717 0.6405434
v 0.017164564 -0.34158024 0.6382885
v 0.04807112 -0.4198779 0.694066
v 0.047533534 -0.41886336 0.6965107
v 0.08461317 -0.5045795 0.7433454
v 0.085062 -0.505385 0.7407751
v 0.12742338 -0.59631956 0.7788351
v 0.12705551 -0.5956911 0.78148776
v 0.17414652 -0.6904204 0.8113721
v 0.17444034 -0.6908987 0.80866784
v 0.22539802 -0.78733945 0.83069515
v 0.22517194 -0.78699017 0.8334323
v 0.27941906 -0.8836229 0.8480962
v 0.27958208 -0.88386 0.84534055
v 0.3362781 -0.97867787 0.8530269
v 0.33617526 -0.9785414 0.8557919
v 0.39472955 -1.069968 0.8569443
v 0.3947728 -1.070012 0.85417783
v 0.45435283 -1.1560816 0.84921604
v 0.45437083 -1.1561246 0.85197747
v 0.5143915 -1.2352326 0.8413122
v 0.5143076 -1.2351055 0.83856344
v -0.0182446 -0.12029108 0.20964411
v -0.017567968 -0.11792 0.21023944
v -0.0025797128 -0.11040402 0.09749007
v -0.0032894607 -0.11279576 0.09715802
v -0.0182446 -0.12029108 0.20964411
v -0.028400514 -0.13578463 0.3165378
v -0.02774634 -0.13345441 0.31739023
v -0.017567968 -0.11792 0.21023944
v -0.0182446 -0.12029108 0.20964411
v -0.019675111 -0.12154631 0.2089626
v -0.029837962 -0.13705401 0.31594005
v -0.028400514 -0.13578463 0.3165378
v -0.0182446 -0.12029108 0.20964411
v -0.0032894607 -0.11279576 0.09715802
v -0.0047096726 -0.11404451 0.09639408
v -0.019675111 -0.12154631 0.2089626
v -0.018347882 -0.11564181 0.21032299
v -0.019830104 -0.1145724 0.2099809
v -0.004711031 -0.106975086 0.09619437
v -0.0032903908 -0.1080828 0.09702488
v -0.03009567 -0.13027202 0.3181542
v -0.028572317 -0.13126327 0.3180139
v -0.018347882 -0.11564181 0.21032299
v -0.017567968 -0.11792 0.21023944
v -0.02774634 -0.13345441 0.31739023
v -0.028572317 -0.13126327 0.3180139
v -0.0025797128 -0.11040402 0.09749007
v -0.0032903908 -0.1080828 0.09702488
v -0.029130718 -0.1630096 0.4144905
v -0.028304096 -0.1650256 0.41334385
v -0.01995263 -0.21087267 0.4985577
v -0.020740485 -0.20909066 0.5001697
v -0.0041196584 -0.26771635 0.57546866
v -0.0034026145 -0.26923457 0.57348925
v 0.020641994 -0.33835173 0.6385607
v 0.020013284 -0.33709872 0.64081556
v 0.050939653 -0.41544998 0.6966389
v 0.051477235 -0.41646445 0.6941941
v 0.08839215 -0.5017933 0.7407981
v 0.08794326 -0.50098795 0.74336827
v 0.13030772 -0.5919306 0.7814343
v 0.13067564 -0.5925591 0.7787815
v 0.17761157 -0.68697506 0.80855966
v 0.17731775 -0.6864968 0.81126404
v 0.2282579 -0.7829054 0.8332848
v 0.22848412 -0.78325486 0.83054787
v 0.28257558 -0.8796115 0.8451673
v 0.2824124 -0.8793744 0.847923
v 0.33906546 -0.9741219 0.8556045
v 0.33916825 -0.9742584 0.8528396
v 0.39754313 -1.0654094 0.853989
v 0.39750004 -1.065365 0.85675544
v 0.45699903 -1.1513209 0.851802
v 0.45698103 -1.151278 0.84904057
v 0.51675934 -1.2300789 0.838423
v 0.51684314 -1.2302061 0.8411719
v -0.021260615 -0.11582764 0.20929939
v -0.021937247 -0.118198715 0.20870405
v -0.0068408484 -0.110615574 0.09509837
v -0.0061311712 -0.108223855 0.09543042
v -0.021260615 -0.11582764 0.20929939
v -0.03153312 -0.13154145 0.31755638
v -0.032187365 -0.13387164 0.316704
v -0.021260615 -0.11582764 0.20929939
v -0.032187365 -0.13387164 0.316704
v -0.021937247 -0.118198715 0.20870405
v -0.021260615 -0.11582764 0.20929939
v -0.019830104 -0.1145724 0.2099809
v -0.03009567 -0.13027202 0.3181542
v -0.03153312 -0.13154145 0.31755638
v -0.021260615 -0.11582764 0.20929939
v -0.0061311712 -0.108223855 0.09543042
v -0.004711031 -0.106975086 0.09619437
v -0.019830104 -0.1145724 0.2099809
v -0.03191864 -0.16774017 0.41234592
v -0.030395146 -0.16857348 0.41173533
v -0.029837962 -0.13705401 0.31594005
v -0.031361315 -0.13606277 0.3160803
v -0.03191864 -0.16774017 0.41234592
v -0.023541782 -0.2137352 0.49784946
v -0.02205362 -0.21435598 0.49681744
v -0.030395146 -0.16857348 0.41173533
v -0.028957983 -0.16727448 0.41224676
v -0.028304096 -0.1650256 0.41334385
v -0.02774634 -0.13345441 0.31739023
v -0.028400514 -0.13578463 0.3165378
v -0.028957983 -0.16727448 0.41224676
v -0.02062368 -0.21301483 0.49724692
v -0.01995263 -0.21087267 0.4985577
v -0.028304096 -0.1650256 0.41334385
v -0.028957983 -0.16727448 0.41224676
v -0.030395146 -0.16857348 0.41173533
v -0.02205362 -0.21435598 0.49681744
v -0.02062368 -0.21301483 0.49724692
v -0.028957983 -0.16727448 0.41224676
v -0.028400514 -0.13578463 0.3165378
v -0.029837962 -0.13705401 0.31594005
v -0.030395146 -0.16857348 0.41173533
v -0.029130718 -0.1630096 0.4144905
v -0.030654212 -0.1621763 0.41510096
v -0.03009567 -0.13027202 0.3181542
v -0.028572317 -0.13126327 0.3180139
v -0.029130718 -0.1630096 0.4144905
v -0.020740485 -0.20909066 0.5001697
v -0.022228858 -0.20846982 0.5012017
v -0.030654212 -0.1621763 0.41510096
v -0.032091375 -0.16347533 0.41458955
v -0.03274512 -0.16572417 0.41349253
v -0.032187365 -0.13387164 0.316704
v -0.03153312 -0.13154145 0.31755638
v -0.032091375 -0.16347533 0.41458955
v -0.023658654 -0.20981105 0.50077224
v -0.024329778 -0.21195322 0.4994615
v -0.03274512 -0.16572417 0.41349253
v -0.032091375 -0.16347533 0.41458955
v -0.030654212 -0.1621763 0.41510096
v -0.022228858 -0.20846982 0.5012017
v -0.023658654 -0.20981105 0.50077224
v -0.032091375 -0.16347533 0.41458955
v -0.03153312 -0.13154145 0.31755638
v -0.03009567 -0.13027202 0.3181542
v -0.030654212 -0.1621763 0.41510096
v -0.006943559 -0.27227393 0.57302326
v -0.0055205575 -0.2726528 0.5716552
v -0.02205362 -0.21435598 0.49681744
v -0.023541782 -0.2137352 0.49784946
v -0.006943559 -0.27227393 0.57302326
v 0.017164564 -0.34158024 0.6382885
v 0.018505381 -0.34171286 0.6366652
v -0.0055205575 -0.2726528 0.5716552
v -0.004104924 -0.27125987 0.5720143
v -0.0034026145 -0.26923457 0.57348925
v -0.01995263 -0.21087267 0.4985577
v -0.02062368 -0.21301483 0.49724692
v -0.004104924 -0.27125987 0.5720143
v 0.019901987 -0.34026325 0.6369666
v 0.020641994 -0.33835173 0.6385607
v -0.0034026145 -0.26923457 0.57348925
v -0.004104924 -0.27125987 0.5720143
v -0.0055205575 -0.2726528 0.5716552
v 0.018505381 -0.34171286 0.6366652
v 0.019901987 -0.34026325 0.6369666
v -0.004104924 -0.27125987 0.5720143
v -0.02062368 -0.21301483 0.49724692
v -0.02205362 -0.21435598 0.49681744
v -0.0055205575 -0.2726528 0.5716552
v -0.0041196584 -0.26771635 0.57546866
v -0.0055427304 -0.26733747 0.5768367
v -0.022228858 -0.20846982 0.5012017
v -0.020740485 -0.20909066 0.5001697
v -0.0041196584 -0.26771635 0.57546866
v 0.020013284 -0.33709872 0.64081556
v 0.018672394 -0.33696604 0.64243877
v -0.0055427304 -0.26733747 0.5768367
v -0.0069583645 -0.26873037 0.5764777
v -0.0076607456 -0.27075568 0.57500273
v -0.024329778 -0.21195322 0.4994615
v -0.023658654 -0.20981105 0.50077224
v -0.0069583645 -0.26873037 0.5764777
v 0.017275928 -0.33841568 0.6421374
v 0.016535854 -0.34032717 0.6405434
v -0.0076607456 -0.27075568 0.57500273
v -0.0069583645 -0.26873037 0.5764777
v -0.0055427304 -0.26733747 0.5768367
v 0.018672394 -0.33696604 0.64243877
v 0.017275928 -0.33841568 0.6421374
v -0.0069583645 -0.26873037 0.5764777
v -0.023658654 -0.20981105 0.50077224
v -0.022228858 -0.20846982 0.5012017
v -0.0055427304 -0.26733747 0.5768367
v 0.04807112 -0.4198779 0.694066
v 0.049325816 -0.4197853 0.6922644
v 0.018505381 -0.34171286 0.6366652
v 0.017164564 -0.34158024 0.6382885
v 0.08623122 -0.50509113 0.7388532
v 0.085062 -0.505385 0.7407751
v 0.12742338 -0.59631956 0.7788351
v 0.12851235 -0.59585077 0.7768321
v 0.1754535 -0.69027656 0.80661243
v 0.17444034 -0.6908987 0.80866784
v 0.22539802 -0.78733945 0.83069515
v 0.22633924 -0.7865803 0.8286055
v 0.28045282 -0.8829757 0.8432305
v 0.27958208 -0.88386 0.84534055
v 0.3362781 -0.97867787 0.8530269
v 0.33707774 -0.9776754 0.8509065
v 0.39549765 -1.0688946 0.85205585
v 0.3947728 -1.070012 0.85417783
v 0.45435283 -1.1560816 0.84921604
v 0.45499632 -1.1548486 0.8471012
v 0.51485765 -1.2337537 0.8364668
v 0.5143076 -1.2351055 0.83856344
v 0.57392645 -1.3053033 0.8226412
v 0.5743656 -1.3038266 0.82057583
v 0.63280445 -1.3632847 0.7998536
v 0.6325034 -1.3648902 0.8018658
v 0.68933296 -1.4120818 0.7766537
v 0.68945855 -1.4103464 0.7747243
v 0.05070018 -0.41827857 0.6925215
v 0.051477235 -0.41646445 0.6941941
v 0.020641994 -0.33835173 0.6385607
v 0.019901987 -0.34026325 0.6369666
v 0.05070018 -0.41827857 0.6925215
v 0.087581344 -0.50352746 0.739077
v 0.08839215 -0.5017933 0.7407981
v 0.051477235 -0.41646445 0.6941941
v 0.05070018 -0.41827857 0.6925215
v 0.049325816 -0.4197853 0.6922644
v 0.08623122 -0.50509113 0.7388532
v 0.087581344 -0.50352746 0.739077
v 0.05070018 -0.41827857 0.6925215
v 0.019901987 -0.34026325 0.6369666
v 0.018505381 -0.34171286 0.6366652
v 0.049325816 -0.4197853 0.6922644
v 0.050939653 -0.41544998 0.6966389
v 0.049685024 -0.41554248 0.6984404
v 0.018672394 -0.33696604 0.64243877
v 0.020013284 -0.33709872 0.64081556
v 0.08677403 -0.5012818 0.74529034
v 0.08794326 -0.50098795 0.74336827
v 0.13030772 -0.5919306 0.7814343
v 0.1292188 -0.59239936 0.7834373
v 0.17630458 -0.6871189 0.81331944
v 0.17731775 -0.6864968 0.81126404
v 0.2282579 -0.7829054 0.8332848
v 0.22731668 -0.78366446 0.8353746
v 0.28154173 -0.8802586 0.8500329
v 0.2824124 -0.8793744 0.847923
v 0.33906546 -0.9741219 0.8556045
v 0.3382658 -0.9751245 0.857725
v 0.396775 -1.0664825 0.8588775
v 0.39750004 -1.065365 0.85675544
v 0.45699903 -1.1513209 0.851802
v 0.45635554 -1.152554 0.8539168
v 0.5162931 -1.2315581 0.84326863
v 0.51684314 -1.2302061 0.8411719
v 0.5763128 -1.3002374 0.825293
v 0.5758736 -1.3017142 0.82735837
v 0.6343824 -1.3612406 0.80661064
v 0.63468343 -1.3596351 0.8045982
v 0.6912308 -1.40662 0.77952063
v 0.6911052 -1.4083554 0.78145015
v 0.04831051 -0.4170493 0.69818336
v 0.047533534 -0.41886336 0.6965107
v 0.016535854 -0.34032717 0.6405434
v 0.017275928 -0.33841568 0.6421374
v 0.04831051 -0.4170493 0.69818336
v 0.08542392 -0.50284547 0.7450665
v 0.08461317 -0.5045795 0.7433454
v 0.047533534 -0.41886336 0.6965107
v 0.04831051 -0.4170493 0.69818336
v 0.049685024 -0.41554248 0.6984404
v 0.08677403 -0.5012818 0.74529034
v 0.08542392 -0.50284547 0.7450665
v 0.04831051 -0.4170493 0.69818336
v 0.017275928 -0.33841568 0.6421374
v 0.018672394 -0.33696604 0.64243877
v 0.049685024 -0.41554248 0.6984404
v 0.12983672 -0.5942315 0.77703077
v 0.13067564 -0.5925591 0.7787815
v 0.08839215 -0.5017933 0.7407981
v 0.087581344 -0.50352746 0.739077
v 0.12983672 -0.5942315 0.77703077
v 0.17675033 -0.68860185 0.80679274
v 0.17761157 -0.68697506 0.80855966
v 0.13067564 -0.5925591 0.7787815
v 0.12983672 -0.5942315 0.77703077
v 0.12851235 -0.59585077 0.7768321
v 0.1754535 -0.69027656 0.80661243
v 0.17675033 -0.68860185 0.80679274
v 0.12983672 -0.5942315 0.77703077
v 0.087581344 -0.50352746 0.739077
v 0.08623122 -0.50509113 0.7388532
v 0.12851235 -0.59585077 0.7768321
v 0.12789437 -0.59401864 0.7832386
v 0.12705551 -0.5956911 0.78148776
v 0.08461317 -0.5045795 0.7433454
v 0.08542392 -0.50284547 0.7450665
v 0.12789437 -0.59401864 0.7832386
v 0.17500769 -0.68879354 0.8131391
v 0.17414652 -0.6904204 0.8113721
v 0.12705551 -0.5956911 0.78148776
v 0.12789437 -0.59401864 0.7832386
v 0.1292188 -0.59239936 0.7834373
v 0.17630458 -0.6871189 0.81331944
v 0.17500769 -0.68879354 0.8131391
v 0.12789437 -0.59401864 0.7832386
v 0.08542392 -0.50284547 0.7450665
v 0.08677403 -0.5012818 0.74529034
v 0.1292188 -0.59239936 0.7834373
v 0.22760616 -0.7848493 0.82877225
v 0.22848412 -0.78325486 0.83054787
v 0.17761157 -0.68697506 0.80855966
v 0.17675033 -0.68860185 0.80679274
v 0.22760616 -0.7848493 0.82877225
v 0.2816865 -0.88118565 0.8433879
v 0.28257558 -0.8796115 0.8451673
v 0.22848412 -0.78325486 0.83054787
v 0.22760616 -0.7848493 0.82877225
v 0.22633924 -0.7865803 0.8286055
v 0.28045282 -0.8829757 0.8432305
v 0.2816865 -0.88118565 0.8433879
v 0.22760616 -0.7848493 0.82877225
v 0.17675033 -0.68860185 0.80679274
v 0.1754535 -0.69027656 0.80661243
v 0.22633924 -0.7865803 0.8286055
v 0.22604977 -0.7853955 0.8352079
v 0.22517194 -0.78699017 0.8334323
v 0.17414652 -0.6904204 0.8113721
v 0.17500769 -0.68879354 0.8131391
v 0.22604977 -0.7853955 0.8352079
v 0.28030807 -0.8820486 0.84987557
v 0.27941906 -0.8836229 0.8480962
v 0.22517194 -0.78699017 0.8334323
v 0.22604977 -0.7853955 0.8352079
v 0.22731668 -0.78366446 0.8353746
v 0.28154173 -0.8802586 0.8500329
v 0.28030807 -0.8820486 0.84987557
v 0.22604977 -0.7853955 0.8352079
v 0.17500769 -0.68879354 0.8131391
v 0.17630458 -0.6871189 0.81331944
v 0.22731668 -0.78366446 0.8353746
v 0.33827338 -0.97582257 0.85105866
v 0.33916825 -0.9742584 0.8528396
v 0.28257558 -0.8796115 0.8451673
v 0.2816865 -0.88118565 0.8433879
v 0.33827338 -0.97582257 0.85105866
v 0.39664847 -1.0669732 0.85220784
v 0.39754313 -1.0654094 0.853989
v 0.33916825 -0.9742584 0.8528396
v 0.33827338 -0.97582257 0.85105866
v 0.33707774 -0.9776754 0.8509065
v 0.39549765 -1.0688946 0.85205585
v 0.39664847 -1.0669732 0.85220784
v 0.33827338 -0.97582257 0.85105866
v 0.2816865 -0.88118565 0.8433879
v 0.28045282 -0.8829757 0.8432305
v 0.33707774 -0.9776754 0.8509065
v 0.3370701 -0.9769772 0.8575728
v 0.33617526 -0.9785414 0.8557919
v 0.27941906 -0.8836229 0.8480962
v 0.28030807 -0.8820486 0.84987557
v 0.3370701 -0.9769772 0.8575728
v 0.39562428 -1.0684041 0.85872555
v 0.39472955 -1.069968 0.8569443
v 0.33617526 -0.9785414 0.8557919
v 0.3370701 -0.9769772 0.8575728
v 0.3382658 -0.9751245 0.857725
v 0.396775 -1.0664825 0.8588775
v 0.39562428 -1.0684041 0.85872555
v 0.3370701 -0.9769772 0.8575728
v 0.28030807 -0.8820486 0.84987557
v 0.28154173 -0.8802586 0.8500329
v 0.3382658 -0.9751245 0.857725
v 0.45609292 -1.1528506 0.8472582
v 0.45698103 -1.151278 0.84904057
v 0.39754313 -1.0654094 0.853989
v 0.39664847 -1.0669732 0.85220784
v 0.45609292 -1.1528506 0.8472582
v 0.5158862 -1.2316699 0.83663726
v 0.51675934 -1.2300789 0.838423
v 0.45698103 -1.151278 0.84904057
v 0.45609292 -1.1528506 0.8472582
v 0.45499632 -1.1548486 0.8471012
v 0.51485765 -1.2337537 0.8364668
v 0.5158862 -1.2316699 0.83663726
v 0.45609292 -1.1528506 0.8472582
v 0.39664847 -1.0669732 0.85220784
v 0.39549765 -1.0688946 0.85205585
v 0.45499632 -1.1548486 0.8471012
v 0.45525897 -1.1545519 0.8537598
v 0.45437083 -1.1561246 0.85197747
v 0.39472955 -1.069968 0.8569443
v 0.45525897 -1.1545519 0.8537598
v 0.39472955 -1.069968 0.8569443
v 0.39562428 -1.0684041 0.85872555
v 0.45525897 -1.1545519 0.8537598
v 0.51526463 -1.2336419 0.84309804
v 0.5143915 -1.2352326 0.8413122
v 0.45437083 -1.1561246 0.85197747
v 0.45525897 -1.1545519 0.8537598
v 0.45635554 -1.152554 0.8539168
v 0.5162931 -1.2315581 0.84326863
v 0.51526463 -1.2336419 0.84309804
v 0.45525897 -1.1545519 0.8537598
v 0.39562428 -1.0684041 0.85872555
v 0.396775 -1.0664825 0.8588775
v 0.45635554 -1.152554 0.8539168
v 0.57392645 -1.3053033 0.8226412
v 0.5740839 -1.3055136 0.8253693
v 0.63274753 -1.365182 0.8045612
v 0.6325034 -1.3648902 0.8018658
v 0.57392645 -1.3053033 0.8226412
v 0.5143076 -1.2351055 0.83856344
v 0.5143915 -1.2352326 0.8413122
v 0.5740839 -1.3055136 0.8253693
v 0.5753074 -1.3016456 0.82077146
v 0.5761553 -1.3000271 0.8225649
v 0.51675934 -1.2300789 0.838423
v 0.5158862 -1.2316699 0.83663726
v 0.5753074 -1.3016456 0.82077146
v 0.6336314 -1.3609979 0.80009365
v 0.63443935 -1.3593434 0.80190307
v 0.5761553 -1.3000271 0.8225649
v 0.5753074 -1.3016456 0.82077146
v 0.5743656 -1.3038266 0.82057583
v 0.63280445 -1.3632847 0.7998536
v 0.6336314 -1.3609979 0.80009365
v 0.5753074 -1.3016456 0.82077146
v 0.5158862 -1.2316699 0.83663726
v 0.51485765 -1.2337537 0.8364668
v 0.5743656 -1.3038266 0.82057583
v 0.5763128 -1.3002374 0.825293
v 0.5761553 -1.3000271 0.8225649
v 0.63443935 -1.3593434 0.80190307
v 0.63468343 -1.3596351 0.8045982
v 0.5763128 -1.3002374 0.825293
v 0.51684314 -1.2302061 0.8411719
v 0.51675934 -1.2300789 0.838423
v 0.5761553 -1.3000271 0.8225649
v 0.5749318 -1.3038951 0.82716274
v 0.5740839 -1.3055136 0.8253693
v 0.5143915 -1.2352326 0.8413122
v 0.51526463 -1.2336419 0.84309804
v 0.5749318 -1.3038951 0.82716274
v 0.63355553 -1.3635275 0.80637044
v 0.63274753 -1.365182 0.8045612
v 0.5740839 -1.3055136 0.8253693
v 0.5749318 -1.3038951 0.82716274
v 0.5758736 -1.3017142 0.82735837
v 0.6343824 -1.3612406 0.80661064
v 0.63355553 -1.3635275 0.80637044
v 0.5749318 -1.3038951 0.82716274
v 0.51526463 -1.2336419 0.84309804
v 0.5162931 -1.2315581 0.84326863
v 0.5758736 -1.3017142 0.82735837
v 0.68933296 -1.4120818 0.7766537
v 0.7437088 -1.4450722 0.7474147
v 0.7436135 -1.4432304 0.74561244
v 0.68945855 -1.4103464 0.7747243
v 0.68933296 -1.4120818 0.7766537
v 0.6896817 -1.4124519 0.7793
v 0.7441845 -1.4455041 0.74998826
v 0.7437088 -1.4450722 0.7474147
v 0.68933296 -1.4120818 0.7766537
v 0.6325034 -1.3648902 0.8018658
v 0.63274753 -1.365182 0.8045612
v 0.6896817 -1.4124519 0.7793
v 0.69013304 -1.4079472 0.77503693
v 0.69088185 -1.40625 0.77687454
v 0.63443935 -1.3593434 0.80190307
v 0.6336314 -1.3609979 0.80009365
v 0.69013304 -1.4079472 0.77503693
v 0.744089 -1.4407372 0.7460399
v 0.74475485 -1.4390017 0.74792606
v 0.69088185 -1.40625 0.77687454
v 0.69013304 -1.4079472 0.77503693
v 0.68945855 -1.4103464 0.7747243
v 0.7436135 -1.4432304 0.74561244
v 0.744089 -1.4407372 0.7460399
v 0.69013304 -1.4079472 0.77503693
v 0.6336314 -1.3609979 0.80009365
v 0.63280445 -1.3632847 0.7998536
v 0.68945855 -1.4103464 0.7747243
v 0.6912308 -1.40662 0.77952063
v 0.7452305 -1.4394338 0.7504998
v 0.74532574 -1.4412756 0.752302
v 0.6911052 -1.4083554 0.78145015
v 0.6912308 -1.40662 0.77952063
v 0.69088185 -1.40625 0.77687454
v 0.74475485 -1.4390017 0.74792606
v 0.7452305 -1.4394338 0.7504998
v 0.6912308 -1.40662 0.77952063
v 0.63468343 -1.3596351 0.8045982
v 0.63443935 -1.3593434 0.80190307
v 0.69088185 -1.40625 0.77687454
v 0.69043064 -1.4107547 0.7811376
v 0.6896817 -1.4124519 0.7793
v 0.63274753 -1.365182 0.8045612
v 0.63355553 -1.3635275 0.80637044
v 0.69043064 -1.4107547 0.7811376
v 0.7448503 -1.4437689 0.7518745
v 0.7441845 -1.4455041 0.74998826
v 0.6896817 -1.4124519 0.7793
v 0.69043064 -1.4107547 0.7811376
v 0.6911052 -1.4083554 0.78145015
v 0.74532574 -1.4412756 0.752302
v 0.7448503 -1.4437689 0.7518745
v 0.69043064 -1.4107547 0.7811376
v 0.63355553 -1.3635275 0.80637044
v 0.6343824 -1.3612406 0.80661064
v 0.6911052 -1.4083554 0.78145015
v 0.79492503 -1.462055 0.71455824
v 0.79455495 -1.4601562 0.71294194
v 0.7436135 -1.4432304 0.74561244
v 0.7437088 -1.4450722 0.7474147
v 0.79492503 -1.462055 0.71455824
v 0.84224486 -1.4612036 0.67851216
v 0.8415697 -1.459341 0.6771357
v 0.79455495 -1.4601562 0.71294194
v 0.79492503 -1.462055 0.71455824
v 0.7955535 -1.4625198 0.71702886
v 0.8430389 -1.4616495 0.6808529
v 0.84224486 -1.4612036 0.67851216
v 0.79492503 -1.462055 0.71455824
v 0.7437088 -1.4450722 0.7474147
v 0.7441845 -1.4455041 0.74998826
v 0.7955535 -1.4625198 0.71702886
v 0.7947761 -1.4576113 0.7135421
v 0.7953299 -1.4558542 0.7155046
v 0.74475485 -1.4390017 0.74792606
v 0.744089 -1.4407372 0.7460399
v 0.7947761 -1.4576113 0.7135421
v 0.8415035 -1.4568316 0.677962
v 0.841927 -1.4550917 0.6800276
v 0.7953299 -1.4558542 0.7155046
v 0.7947761 -1.4576113 0.7135421
v 0.79455495 -1.4601562 0.71294194
v 0.8415697 -1.459341 0.6771357
v 0.8415035 -1.4568316 0.677962
v 0.7947761 -1.4576113 0.7135421
v 0.744089 -1.4407372 0.7460399
v 0.7436135 -1.4432304 0.74561244
v 0.79455495 -1.4601562 0.71294194
v 0.7959584 -1.4563186 0.7179751
v 0.7963285 -1.4582176 0.71959144
v 0.74532574 -1.4412756 0.752302
v 0.7452305 -1.4394338 0.7504998
v 0.7959584 -1.4563186 0.7179751
v 0.8427212 -1.4555377 0.68236816
v 0.8433963 -1.4574003 0.6837448
v 0.7963285 -1.4582176 0.71959144
v 0.7959584 -1.4563186 0.7179751
v 0.7953299 -1.4558542 0.7155046
v 0.841927 -1.4550917 0.6800276
v 0.8427212 -1.4555377 0.68236816
v 0.7959584 -1.4563186 0.7179751
v 0.7452305 -1.4394338 0.7504998
v 0.74475485 -1.4390017 0.74792606
v 0.7953299 -1.4558542 0.7155046
v 0.7961074 -1.4607626 0.7189913
v 0.7955535 -1.4625198 0.71702886
v 0.7441845 -1.4455041 0.74998826
v 0.7448503 -1.4437689 0.7518745
v 0.7961074 -1.4607626 0.7189913
v 0.8434626 -1.4599098 0.68291837
v 0.8430389 -1.4616495 0.6808529
v 0.7955535 -1.4625198 0.71702886
v 0.7961074 -1.4607626 0.7189913
v 0.7963285 -1.4582176 0.71959144
v 0.8433963 -1.4574003 0.6837448
v 0.8434626 -1.4599098 0.68291837
v 0.7961074 -1.4607626 0.7189913
v 0.7448503 -1.4437689 0.7518745
v 0.74532574 -1.4412756 0.752302
v 0.7963285 -1.4582176 0.71959144
v 0.8849309 -1.4406906 0.63970435
v 0.8839445 -1.439002 0.6386162
v 0.8415697 -1.459341 0.6771357
v 0.84224486 -1.4612036 0.67851216
v 0.8849309 -1.4406906 0.63970435
v 0.9253002 -1.4103471 0.59951556
v 0.92399937 -1.4089012 0.59874016
v 0.8839445 -1.439002 0.6386162
v 0.8849309 -1.4406906 0.63970435
v 0.8858911 -1.441045 0.6418916
v 0.9264263 -1.4105732 0.60153747
v 0.9253002 -1.4103471 0.59951556
v 0.8849309 -1.4406906 0.63970435
v 0.84224486 -1.4612036 0.67851216
v 0.8430389 -1.4616495 0.6808529
v 0.8858911 -1.441045 0.6418916
v 0.88358074 -1.4366603 0.6397189
v 0.8838657 -1.4349993 0.64191324
v 0.841927 -1.4550917 0.6800276
v 0.8415035 -1.4568316 0.677962
v 0.88358074 -1.4366603 0.6397189
v 0.9233328 -1.406793 0.600144
v 0.92347527 -1.4052424 0.6024803
v 0.8838657 -1.4349993 0.64191324
v 0.88358074 -1.4366603 0.6397189
v 0.8839445 -1.439002 0.6386162
v 0.92399937 -1.4089012 0.59874016
v 0.9233328 -1.406793 0.600144
v 0.88358074 -1.4366603 0.6397189
v 0.8415035 -1.4568316 0.677962
v 0.8415697 -1.459341 0.6771357
v 0.8839445 -1.439002 0.6386162
v 0.8848259 -1.4353536 0.6441003
v 0.8858123 -1.4370425 0.64518845
v 0.8433963 -1.4574003 0.6837448
v 0.8427212 -1.4555377 0.68236816
v 0.8848259 -1.4353536 0.6441003
v 0.92460144 -1.4054687 0.60450226
v 0.9259023 -1.4069145 0.6052776
v 0.8858123 -1.4370425 0.64518845
v 0.8848259 -1.4353536 0.6441003
v 0.8838657 -1.4349993 0.64191324
v 0.92347527 -1.4052424 0.6024803
v 0.92460144 -1.4054687 0.60450226
v 0.8848259 -1.4353536 0.6441003
v 0.8427212 -1.4555377 0.68236816
v 0.841927 -1.4550917 0.6800276
v 0.8838657 -1.4349993 0.64191324
v 0.8861761 -1.4393845 0.6440859
v 0.8858911 -1.441045 0.6418916
v 0.8430389 -1.4616495 0.6808529
v 0.8434626 -1.4599098 0.68291837
v 0.8861761 -1.4393845 0.6440859
v 0.9265688 -1.4090225 0.6038737
v 0.9264263 -1.4105732 0.60153747
v 0.8858911 -1.441045 0.6418916
v 0.8861761 -1.4393845 0.6440859
v 0.8858123 -1.4370425 0.64518845
v 0.9259023 -1.4069145 0.6052776
v 0.9265688 -1.4090225 0.6038737
v 0.8861761 -1.4393845 0.6440859
v 0.8434626 -1.4599098 0.68291837
v 0.8433963 -1.4574003 0.6837448
v 0.8858123 -1.4370425 0.64518845
v 0.08287986 -0.14544512 -0.0022529364
v 0.08287986 -0.14544511 -0.11353807
v 0.08287986 -0.12649368 -0.10243593
v 0.08287986 -0.12643805 0.003298165
v 0.08287986 -0.14544512 -0.0022529364
v 0.08287986 -0.12643805 0.003298165
v -0.08287986 -0.12643805 0.003298165
v -0.08287986 -0.14544512 -0.0022529364
v -0.08287986 -0.14544511 -0.11353807
v -0.08287986 -0.14544512 -0.0022529364
v -0.08287986 -0.12643805 0.003298165
v -0.08287986 -0.12649368 -0.10243593
v 0.08287986 -0.12649368 -0.10243593
v -0.08287986 -0.12649368 -0.10243593
v -0.08287986 -0.12643805 0.003298165
v 0.08287986 -0.12643805 0.003298165
vn -1 0 -1.6018105E-07
vn -1 0 -1.6018105E-07
vn -1 0 -1.6018105E-07
vn -1 0 -1.6018105E-07
vn -1 0 -1.3993831E-07
vn -1 0 -1.3993831E-07
vn -1 0 -1.3993831E-07
vn -1 0 -1.4038717E-07
vn -1 0 1.5939793E-07
vn -1 0 0
vn -1 0 0
vn -1 0 7.6059075E-07
vn 1 0 1.5939791E-07
vn 1 0 1.5939791E-07
vn 1 0 1.5939791E-07
vn 1 0 1.5939791E-07
vn 1 0 -1.3993832E-07
vn 1 0 -1.3993832E-07
vn 1 0 -1.4038716E-07
vn 1 0 -1.4038716E-07
vn 1 0 -1.6018103E-07
vn 1 0 0
vn 1 0 0
vn 1 0 7.6059075E-07
vn -0 -2.958192E-06 1
vn -0 -2.958192E-06 1
vn -0 -2.958192E-06 1
vn -0 -2.958192E-06 1
vn -0 -2.958192E-06 1
vn -0 -2.958192E-06 1
vn -0 -2.958192E-06 1
vn -0 -2.958192E-06 1
vn -0 -3.0873414E-06 1
vn -0 -3.0873414E-06 1
vn -1.6650591E-07 -3.070976E-06 1
vn 1.6650591E-07 -3.070976E-06 1
vn -0 -1 -1.3390074E-07
vn -0 -1 -1.3390074E-07
vn -0 -1 -1.3390074E-07
vn -0 -1 -1.3390074E-07
vn -0 -1 -1.3390074E-07
vn -0 -1 -1.3390074E-07
vn -0 -1 -1.3390074E-07
vn -0 -1 -1.3390074E-07
vn -0 -1 -1.3390073E-07
vn -0 -1 -1.3390073E-07
vn -0 -1 -1.3390073E-07
vn -0 -1 -1.3390073E-07
vn 1.275952E-07 -1 7.926241E-07
vn 1.275952E-07 -1 7.926241E-07
vn -1.275952E-07 -1 7.926241E-07
vn -1.275952E-07 -1 7.926241E-07
vn -0 0.9998523 -0.017187787
vn -0 0.9998523 -0.017187787
vn -0 0.9998523 -0.017187787
vn -0 0.9998523 -0.017187787
vn -0 0.9998523 -0.017187785
vn -0 0.9998523 -0.017187785
vn -0 0.9998523 -0.017187785
vn -0 0.9998523 -0.017187785
vn -0 0.9998523 -0.01718742
vn -0 0.9998523 -0.01718742
vn -0 0.9998523 -0.017187417
vn -0 0.9998523 -0.017187417
vn -0 1 0
vn -0 1 0
vn -0 1 0
vn -0 1 0
vn -0 -1 -1.3390071E-07
vn -0 -1 -1.3390071E-07
vn -0 -1 -1.3390071E-07
vn -0 -1 -1.3390071E-07
vn 1 0 0
vn 1 0 0
vn 1 0 0
vn 1 0 0
vn -0 0.28034317 -0.95989984
vn -0 0.28034317 -0.95989984
vn -0 0.28034317 -0.95989984
vn -0 0.28034317 -0.95989984
vn -1 0 0
vn -1 0 0
vn -1 0 0
vn -1 0 0
vn -0 0.50547177 -0.86284316
vn -0 0.50547177 -0.86284316
vn -0 0.50547177 -0.86284316
vn -0 0.50547177 -0.86284316
vn -0 0.50547177 -0.86284316
vn -0 0.50547177 -0.86284316
vn -0 0.50547177 -0.86284316
vn -0 0.50547177 -0.86284316
vn -0 0.5054716 -0.8628433
vn -0 0.5054716 -0.8628433
vn -0 0.5054716 -0.8628433
vn -0 0.5054716 -0.8628433
vn -0 0.5054717 -0.86284316
vn -0 0.5054717 -0.86284316
vn -0 0.5054717 -0.86284316
vn -0 0.5054717 -0.86284316
vn -0 0.5054717 -0.86284316
vn -0 0.5054717 -0.86284316
vn -0 0.5054717 -0.86284316
vn -0 0.5054717 -0.86284316
vn -1 0 -3.8029538E-07
vn -1 0 -3.8029538E-07
vn -1 0 -3.8029538E-07
vn -1 0 -3.8029538E-07
vn -1 0 0
vn -1 0 0
vn -1 0 0
vn -1 0 0
vn -0 1 0
vn -0 1 0
vn -0 1 0
vn -0 1 0
vn -1 0 3.8029538E-07
vn -1 0 3.8029538E-07
vn -1 0 3.8029538E-07
vn -1 0 3.8029538E-07
vn 1 0 0
vn 1 0 0
vn 1 0 0
vn 1 0 0
vn -0 1 0
vn -0 1 0
vn -0 1 0
vn -0 1 0
vn -0 -1 0
vn -0 -1 0
vn -0 -1 0
vn -0 -1 0
vn 1 0 -3.8029538E-07
vn 1 0 -3.8029538E-07
vn 1 0 -3.8029538E-07
vn 1 0 -3.8029538E-07
vn -0 1 0
vn -0 1 0
vn -0 1 0
vn -0 1 0
vn -0 -1 0
vn -0 -1 0
vn -0 -1 0
vn -0 -1 0
vn 1 0 3.8029538E-07
vn 1 0 3.8029538E-07
vn 1 0 3.8029538E-07
vn 1 0 3.8029538E-07
vn -0 -1 7.926247E-07
vn -0 -1 7.926247E-07
vn -0 -1 7.926247E-07
vn -0 -1 7.926247E-07
vn -0 -0.50547177 0.8628431
vn -0 -0.50547177 0.8628431
vn -0 -0.50547177 0.8628431
vn -0 -0.50547177 0.8628431
vn -0.5610718 -0.81763875 -0.12909399
vn -0.5610718 -0.81763875 -0.12909399
vn -0.5610718 -0.81763875 -0.12909399
vn -0.5610718 -0.81763875 -0.12909399
vn -0.5493272 -0.81796926 -0.1707799
vn -0.5493272 -0.81796926 -0.1707799
vn -0.9390825 -0.3160666 -0.13500336
vn -0.9390825 -0.3160666 -0.13500336
vn -0.9390825 -0.3160666 -0.13500336
vn -0.9390825 -0.3160666 -0.13500336
vn -0.93754166 -0.3159014 -0.14567737
vn -0.93754166 -0.3159014 -0.14567737
vn -0.9381674 -0.33476457 -0.08817292
vn -0.9381674 -0.33476457 -0.08817292
vn -0.9381674 -0.33476457 -0.08817292
vn -0.9381674 -0.33476457 -0.08817292
vn -0.9271129 -0.37119395 -0.05173783
vn -0.9271129 -0.37119395 -0.05173783
vn -0.9271129 -0.37119395 -0.05173783
vn -0.9271129 -0.37119395 -0.05173783
vn -0.9112709 -0.41069943 -0.030186646
vn -0.9112709 -0.41069943 -0.030186646
vn -0.9112709 -0.41069943 -0.030186646
vn -0.9112709 -0.41069943 -0.030186646
vn -0.89311135 -0.4494971 -0.017451353
vn -0.89311135 -0.4494971 -0.017451353
vn -0.89311135 -0.4494971 -0.017451353
vn -0.89311135 -0.4494971 -0.017451353
vn -0.87134916 -0.49057436 -0.009351443
vn -0.87134916 -0.49057436 -0.009351443
vn -0.87134916 -0.49057436 -0.009351443
vn -0.87134916 -0.49057436 -0.009351443
vn -0.84206504 -0.5393563 -0.0046153977
vn -0.84206504 -0.5393563 -0.0046153977
vn -0.84206504 -0.5393563 -0.0046153977
vn -0.84206504 -0.5393563 -0.0046153977
vn -0.7969053 -0.6040916 -0.0039086603
vn -0.7969053 -0.6040916 -0.0039086603
vn -0.7969053 -0.6040916 -0.0039086603
vn -0.7969053 -0.6040916 -0.0039086603
vn 0.9489544 -0.29693723 0.10636646
vn 0.9489544 -0.29693723 0.10636646
vn 0.9489544 -0.29693723 0.10636646
vn 0.9489544 -0.29693723 0.10636646
vn 0.9569234 -0.28610095 0.049434796
vn 0.9569234 -0.28610095 0.049434796
vn 0.9569234 -0.28610095 0.049434796
vn 0.9569234 -0.28610095 0.049434796
vn 0.67099303 -0.740184 -0.043544352
vn 0.67099303 -0.740184 -0.043544352
vn 0.67099303 -0.740184 -0.043544352
vn 0.67099303 -0.740184 -0.043544352
vn 0.649242 -0.75974417 0.035687894
vn 0.649242 -0.75974417 0.035687894
vn 0.649242 -0.75974417 0.035687894
vn 0.649242 -0.75974417 0.035687894
vn 0.56106675 0.81763667 0.12912957
vn 0.56106675 0.81763667 0.12912957
vn 0.56106675 0.81763667 0.12912957
vn 0.56106675 0.81763667 0.12912957
vn 0.5493351 0.8179546 0.17082496
vn 0.5493351 0.8179546 0.17082496
vn 0.93908304 0.31605983 0.13501583
vn 0.93908304 0.31605983 0.13501583
vn 0.93908304 0.31605983 0.13501583
vn 0.93908304 0.31605983 0.13501583
vn 0.9375317 0.31592822 0.14568356
vn 0.9375317 0.31592822 0.14568356
vn 0.9381682 0.3347632 0.08816986
vn 0.9381682 0.3347632 0.08816986
vn 0.9381682 0.3347632 0.08816986
vn 0.9381682 0.3347632 0.08816986
vn 0.92710865 0.3712071 0.05171803
vn 0.92710865 0.3712071 0.05171803
vn 0.92710865 0.3712071 0.05171803
vn 0.92710865 0.3712071 0.05171803
vn 0.9112629 0.410716 0.030205928
vn 0.9112629 0.410716 0.030205928
vn 0.9112629 0.410716 0.030205928
vn 0.9112629 0.410716 0.030205928
vn 0.89312285 0.44947392 0.017456435
vn 0.89312285 0.44947392 0.017456435
vn 0.89312285 0.44947392 0.017456435
vn 0.89312285 0.44947392 0.017456435
vn 0.87135273 0.49056724 0.009385729
vn 0.87135273 0.49056724 0.009385729
vn 0.87135273 0.49056724 0.009385729
vn 0.87135273 0.49056724 0.009385729
vn 0.84207577 0.53934 0.004562671
vn 0.84207577 0.53934 0.004562671
vn 0.84207577 0.53934 0.004562671
vn 0.84207577 0.53934 0.004562671
vn 0.7969466 0.6040371 0.003906234
vn 0.7969466 0.6040371 0.003906234
vn 0.7969466 0.6040371 0.003906234
vn 0.7969466 0.6040371 0.003906234
vn -0.9489734 0.29691014 -0.106272906
vn -0.9489734 0.29691014 -0.106272906
vn -0.9489734 0.29691014 -0.106272906
vn -0.9489734 0.29691014 -0.106272906
vn -0.95693773 0.2860778 -0.049292233
vn -0.95693773 0.2860778 -0.049292233
vn -0.95693773 0.2860778 -0.049292233
vn -0.95693773 0.2860778 -0.049292233
vn -0.95693773 0.2860778 -0.049292233
vn -0.95693773 0.2860778 -0.049292233
vn -0.67104673 0.74012345 0.043745324
vn -0.67104673 0.74012345 0.043745324
vn -0.67104673 0.74012345 0.043745324
vn -0.67104673 0.74012345 0.043745324
vn -0.6493011 0.75970036 -0.035544995
vn -0.6493011 0.75970036 -0.035544995
vn -0.6493011 0.75970036 -0.035544995
vn -0.6493011 0.75970036 -0.035544995
vn -0.5426422 -0.79693985 -0.2653796
vn -0.5426422 -0.79693985 -0.2653796
vn -0.5426422 -0.79693985 -0.2653796
vn -0.5426422 -0.79693985 -0.2653796
vn -0.5554539 -0.75378585 -0.35110953
vn -0.5554539 -0.75378585 -0.35110953
vn -0.5554539 -0.75378585 -0.35110953
vn -0.5554539 -0.75378585 -0.35110953
vn 0.9668014 -0.24434514 -0.0747691
vn 0.9668014 -0.24434514 -0.0747691
vn 0.9668014 -0.24434514 -0.0747691
vn 0.9668014 -0.24434514 -0.0747691
vn 0.96354896 -0.18450385 -0.19373101
vn 0.96354896 -0.18450385 -0.19373101
vn 0.96354896 -0.18450385 -0.19373101
vn 0.96354896 -0.18450385 -0.19373101
vn 0.6891467 -0.6077525 -0.3946057
vn 0.6891467 -0.6077525 -0.3946057
vn 0.6891467 -0.6077525 -0.3946057
vn 0.6891467 -0.6077525 -0.3946057
vn 0.6958285 -0.6834215 -0.22081128
vn 0.6958285 -0.6834215 -0.22081128
vn 0.6958285 -0.6834215 -0.22081128
vn 0.6958285 -0.6834215 -0.22081128
vn 0.5426361 0.79694176 0.26538628
vn 0.5426361 0.79694176 0.26538628
vn 0.5426361 0.79694176 0.26538628
vn 0.5426361 0.79694176 0.26538628
vn 0.5554016 0.75386494 0.35102236
vn 0.5554016 0.75386494 0.35102236
vn 0.5554016 0.75386494 0.35102236
vn 0.5554016 0.75386494 0.35102236
vn -0.9668062 0.24430673 0.07483386
vn -0.9668062 0.24430673 0.07483386
vn -0.9668062 0.24430673 0.07483386
vn -0.9668062 0.24430673 0.07483386
vn -0.9635668 0.1845937 0.19355668
vn -0.9635668 0.1845937 0.19355668
vn -0.9635668 0.1845937 0.19355668
vn -0.9635668 0.1845937 0.19355668
vn -0.6892136 0.60788995 0.39427707
vn -0.6892136 0.60788995 0.39427707
vn -0.6892136 0.60788995 0.39427707
vn -0.6892136 0.60788995 0.39427707
vn -0.69584095 0.68338245 0.22089286
vn -0.69584095 0.68338245 0.22089286
vn -0.69584095 0.68338245 0.22089286
vn -0.69584095 0.68338245 0.22089286
vn -0.58246154 -0.6986463 -0.41548973
vn -0.58246154 -0.6986463 -0.41548973
vn -0.58246154 -0.6986463 -0.41548973
vn -0.58246154 -0.6986463 -0.41548973
vn -0.61375135 -0.64378726 -0.45699796
vn -0.61375135 -0.64378726 -0.45699796
vn -0.61375135 -0.64378726 -0.45699796
vn -0.61375135 -0.64378726 -0.45699796
vn 0.9479012 -0.11337712 -0.29770613
vn 0.9479012 -0.11337712 -0.29770613
vn 0.9479012 -0.11337712 -0.29770613
vn 0.9479012 -0.11337712 -0.29770613
vn 0.92288697 -0.039515782 -0.38303792
vn 0.92288697 -0.039515782 -0.38303792
vn 0.92288697 -0.039515782 -0.38303792
vn 0.92288697 -0.039515782 -0.38303792
vn 0.59515834 -0.43124747 -0.67809457
vn 0.59515834 -0.43124747 -0.67809457
vn 0.59515834 -0.43124747 -0.67809457
vn 0.59515834 -0.43124747 -0.67809457
vn 0.65287393 -0.52084446 -0.54997885
vn 0.65287393 -0.52084446 -0.54997885
vn 0.65287393 -0.52084446 -0.54997885
vn 0.65287393 -0.52084446 -0.54997885
vn 0.58238006 0.6987558 0.41542003
vn 0.58238006 0.6987558 0.41542003
vn 0.58238006 0.6987558 0.41542003
vn 0.58238006 0.6987558 0.41542003
vn 0.61370206 0.6438754 0.45694003
vn 0.61370206 0.6438754 0.45694003
vn 0.61370206 0.6438754 0.45694003
vn 0.61370206 0.6438754 0.45694003
vn -0.9479404 0.113540575 0.29751915
vn -0.9479404 0.113540575 0.29751915
vn -0.9479404 0.113540575 0.29751915
vn -0.9479404 0.113540575 0.29751915
vn -0.92295647 0.039712124 0.38285047
vn -0.92295647 0.039712124 0.38285047
vn -0.92295647 0.039712124 0.38285047
vn -0.92295647 0.039712124 0.38285047
vn -0.59534174 0.43153575 0.67775
vn -0.59534174 0.43153575 0.67775
vn -0.59534174 0.43153575 0.67775
vn -0.59534174 0.43153575 0.67775
vn -0.6529929 0.52108496 0.5496096
vn -0.6529929 0.52108496 0.5496096
vn -0.6529929 0.52108496 0.5496096
vn -0.6529929 0.52108496 0.5496096
vn -0.64321053 -0.5961563 -0.4804976
vn -0.64321053 -0.5961563 -0.4804976
vn -0.64321053 -0.5961563 -0.4804976
vn -0.64321053 -0.5961563 -0.4804976
vn -0.66780066 -0.55798817 -0.49263725
vn -0.66780066 -0.55798817 -0.49263725
vn -0.6872902 -0.5286439 -0.49816445
vn -0.6872902 -0.5286439 -0.49816445
vn -0.7022557 -0.50680137 -0.49998933
vn -0.7022557 -0.50680137 -0.49998933
vn -0.7133192 -0.491113 -0.49998367
vn -0.7133192 -0.491113 -0.49998367
vn -0.72107524 -0.48053366 -0.4991372
vn -0.72107524 -0.48053366 -0.4991372
vn -0.7258158 -0.47438008 -0.49815154
vn -0.7258158 -0.47438008 -0.49815154
vn -0.7276413 -0.47227177 -0.4974913
vn -0.7276413 -0.47227177 -0.4974913
vn -0.72636425 -0.47410247 -0.4976162
vn -0.72636425 -0.47410247 -0.4976162
vn -0.72142965 -0.48005134 -0.49908897
vn -0.72142965 -0.48005134 -0.49908897
vn -0.7118584 -0.49056715 -0.50259477
vn -0.7118584 -0.49056715 -0.50259477
vn -0.69584334 -0.50649846 -0.5091771
vn -0.69584334 -0.50649846 -0.5091771
vn -0.67020655 -0.52879685 -0.52076596
vn -0.67020655 -0.52879685 -0.52076596
vn 0.89229786 0.03152663 -0.45034507
vn 0.89229786 0.03152663 -0.45034507
vn 0.89229786 0.03152663 -0.45034507
vn 0.89229786 0.03152663 -0.45034507
vn 0.85881627 0.09682214 -0.5030508
vn 0.85881627 0.09682214 -0.5030508
vn 0.85881627 0.09682214 -0.5030508
vn 0.85881627 0.09682214 -0.5030508
vn 0.45268407 -0.2685237 -0.85027766
vn 0.45268407 -0.2685237 -0.85027766
vn 0.45268407 -0.2685237 -0.85027766
vn 0.45268407 -0.2685237 -0.85027766
vn 0.52568823 -0.34591284 -0.7771719
vn 0.52568823 -0.34591284 -0.7771719
vn 0.52568823 -0.34591284 -0.7771719
vn 0.52568823 -0.34591284 -0.7771719
vn 0.64317966 0.59622586 0.48045266
vn 0.64317966 0.59622586 0.48045266
vn 0.64317966 0.59622586 0.48045266
vn 0.64317966 0.59622586 0.48045266
vn 0.6677928 0.55802274 0.49260882
vn 0.6677928 0.55802274 0.49260882
vn 0.6872934 0.528674 0.49812803
vn 0.6872934 0.528674 0.49812803
vn 0.7022523 0.50681704 0.49997804
vn 0.7022523 0.50681704 0.49997804
vn 0.71332645 0.49111998 0.49996653
vn 0.71332645 0.49111998 0.49996653
vn 0.7210824 0.4805466 0.49911436
vn 0.7210824 0.4805466 0.49911436
vn 0.72582096 0.4743858 0.49813867
vn 0.72582096 0.4743858 0.49813867
vn 0.7276275 0.47228935 0.49749473
vn 0.7276275 0.47228935 0.49749473
vn 0.72633934 0.4740997 0.49765506
vn 0.72633934 0.4740997 0.49765506
vn 0.72142684 0.48004127 0.49910286
vn 0.72142684 0.48004127 0.49910286
vn 0.71185243 0.49056768 0.5026027
vn 0.71185243 0.49056768 0.5026027
vn 0.6958816 0.50647765 0.5091455
vn 0.6958816 0.50647765 0.5091455
vn 0.6702448 0.528807 0.5207063
vn 0.6702448 0.528807 0.5207063
vn -0.8923799 -0.031360455 0.45019397
vn -0.8923799 -0.031360455 0.45019397
vn -0.8923799 -0.031360455 0.45019397
vn -0.8923799 -0.031360455 0.45019397
vn -0.8588912 -0.09673064 0.5029405
vn -0.8588912 -0.09673064 0.5029405
vn -0.8588912 -0.09673064 0.5029405
vn -0.8588912 -0.09673064 0.5029405
vn -0.4528185 0.26868075 0.8501565
vn -0.4528185 0.26868075 0.8501565
vn -0.4528185 0.26868075 0.8501565
vn -0.4528185 0.26868075 0.8501565
vn -0.52589643 0.34617388 0.77691483
vn -0.52589643 0.34617388 0.77691483
vn -0.52589643 0.34617388 0.77691483
vn -0.52589643 0.34617388 0.77691483
vn 0.82404983 0.15597825 -0.5446216
vn 0.82404983 0.15597825 -0.5446216
vn 0.82404983 0.15597825 -0.5446216
vn 0.82404983 0.15597825 -0.5446216
vn 0.78865594 0.20978284 -0.57793856
vn 0.78865594 0.20978284 -0.57793856
vn 0.78865594 0.20978284 -0.57793856
vn 0.78865594 0.20978284 -0.57793856
vn 0.31273198 -0.14078902 -0.9393493
vn 0.31273198 -0.14078902 -0.9393493
vn 0.31273198 -0.14078902 -0.9393493
vn 0.31273198 -0.14078902 -0.9393493
vn 0.38092744 -0.20026027 -0.9026573
vn 0.38092744 -0.20026027 -0.9026573
vn 0.38092744 -0.20026027 -0.9026573
vn 0.38092744 -0.20026027 -0.9026573
vn -0.8241159 -0.15590487 0.5445427
vn -0.8241159 -0.15590487 0.5445427
vn -0.8241159 -0.15590487 0.5445427
vn -0.8241159 -0.15590487 0.5445427
vn -0.7886984 -0.20974906 0.5778929
vn -0.7886984 -0.20974906 0.5778929
vn -0.7886984 -0.20974906 0.5778929
vn -0.7886984 -0.20974906 0.5778929
vn -0.31281716 0.14083362 0.93931425
vn -0.31281716 0.14083362 0.93931425
vn -0.31281716 0.14083362 0.93931425
vn -0.31281716 0.14083362 0.93931425
vn -0.38106325 0.20035797 0.90257823
vn -0.38106325 0.20035797 0.90257823
vn -0.38106325 0.20035797 0.90257823
vn -0.38106325 0.20035797 0.90257823
vn 0.75253385 0.25938082 -0.60532176
vn 0.75253385 0.25938082 -0.60532176
vn 0.75253385 0.25938082 -0.60532176
vn 0.75253385 0.25938082 -0.60532176
vn 0.7151707 0.3061384 -0.62833923
vn 0.7151707 0.3061384 -0.62833923
vn 0.7151707 0.3061384 -0.62833923
vn 0.7151707 0.3061384 -0.62833923
vn 0.18811926 -0.04324074 -0.98119384
vn 0.18811926 -0.04324074 -0.98119384
vn 0.18811926 -0.04324074 -0.98119384
vn 0.18811926 -0.04324074 -0.98119384
vn 0.24863224 -0.0888716 -0.9645122
vn 0.24863224 -0.0888716 -0.9645122
vn 0.24863224 -0.0888716 -0.9645122
vn 0.24863224 -0.0888716 -0.9645122
vn -0.75256115 -0.25935227 0.6053
vn -0.75256115 -0.25935227 0.6053
vn -0.75256115 -0.25935227 0.6053
vn -0.75256115 -0.25935227 0.6053
vn -0.7151748 -0.30611795 0.6283445
vn -0.7151748 -0.30611795 0.6283445
vn -0.7151748 -0.30611795 0.6283445
vn -0.7151748 -0.30611795 0.6283445
vn -0.18813749 0.043260682 0.9811895
vn -0.18813749 0.043260682 0.9811895
vn -0.18813749 0.043260682 0.9811895
vn -0.18813749 0.043260682 0.9811895
vn -0.24869809 0.088927574 0.96449006
vn -0.24869809 0.088927574 0.96449006
vn -0.24869809 0.088927574 0.96449006
vn -0.24869809 0.088927574 0.96449006
vn 0.6755422 0.35138273 -0.64820737
vn 0.6755422 0.35138273 -0.64820737
vn 0.6755422 0.35138273 -0.64820737
vn 0.6755422 0.35138273 -0.64820737
vn 0.63216287 0.39644355 -0.66573477
vn 0.63216287 0.39644355 -0.66573477
vn 0.63216287 0.39644355 -0.66573477
vn 0.63216287 0.39644355 -0.66573477
vn 0.07359522 0.03456843 -0.9966889
vn 0.07359522 0.03456843 -0.9966889
vn 0.07359522 0.03456843 -0.9966889
vn 0.07359522 0.03456843 -0.9966889
vn 0.13015851 -0.002540364 -0.9914898
vn 0.13015851 -0.002540364 -0.9914898
vn 0.13015851 -0.002540364 -0.9914898
vn 0.13015851 -0.002540364 -0.9914898
vn -0.6755296 -0.3513709 0.64822704
vn -0.6755296 -0.3513709 0.64822704
vn -0.6755296 -0.3513709 0.64822704
vn -0.6755296 -0.3513709 0.64822704
vn -0.63214463 -0.39646158 0.6657412
vn -0.63214463 -0.39646158 0.6657412
vn -0.63214463 -0.39646158 0.6657412
vn -0.63214463 -0.39646158 0.6657412
vn -0.07361126 -0.03459143 0.9966869
vn -0.07361126 -0.03459143 0.9966869
vn -0.07361126 -0.03459143 0.9966869
vn -0.07361126 -0.03459143 0.9966869
vn -0.13020472 0.0025537775 0.99148375
vn -0.13020472 0.0025537775 0.99148375
vn -0.13020472 0.0025537775 0.99148375
vn -0.13020472 0.0025537775 0.99148375
vn 0.5829256 0.44275546 -0.6812968
vn 0.5829256 0.44275546 -0.6812968
vn 0.5829256 0.44275546 -0.6812968
vn 0.5829256 0.44275546 -0.6812968
vn 0.52471054 0.4916876 -0.69492596
vn 0.52471054 0.4916876 -0.69492596
vn 0.52471054 0.4916876 -0.69492596
vn 0.52471054 0.4916876 -0.69492596
vn -0.04236793 0.10180172 -0.9939021
vn -0.04236793 0.10180172 -0.9939021
vn -0.04236793 0.10180172 -0.9939021
vn -0.04236793 0.10180172 -0.9939021
vn 0.016706454 0.0690508 -0.9974732
vn 0.016706454 0.0690508 -0.9974732
vn 0.016706454 0.0690508 -0.9974732
vn 0.016706454 0.0690508 -0.9974732
vn -0.5828743 -0.4427642 0.68133503
vn -0.5828743 -0.4427642 0.68133503
vn -0.5828743 -0.4427642 0.68133503
vn -0.5828743 -0.4427642 0.68133503
vn -0.5828743 -0.4427642 0.68133503
vn -0.5828743 -0.4427642 0.68133503
vn -0.52463967 -0.49174088 0.6949417
vn -0.52463967 -0.49174088 0.6949417
vn -0.52463967 -0.49174088 0.6949417
vn -0.52463967 -0.49174088 0.6949417
vn 0.042340193 -0.10183176 0.9939002
vn 0.042340193 -0.10183176 0.9939002
vn 0.042340193 -0.10183176 0.9939002
vn 0.042340193 -0.10183176 0.9939002
vn -0.01670556 -0.06906291 0.99747235
vn -0.01670556 -0.06906291 0.99747235
vn -0.01670556 -0.06906291 0.99747235
vn -0.01670556 -0.06906291 0.99747235
vn -0.71511513 -0.69890773 -0.011762576
vn -0.71511513 -0.69890773 -0.011762576
vn -0.71511513 -0.69890773 -0.011762576
vn -0.71511513 -0.69890773 -0.011762576
vn -0.7628739 -0.6465177 -0.0061855707
vn -0.7628739 -0.6465177 -0.0061855707
vn -0.7628739 -0.6465177 -0.0061855707
vn -0.7628739 -0.6465177 -0.0061855707
vn 0.45278248 0.54455316 -0.7060099
vn 0.45278248 0.54455316 -0.7060099
vn 0.45278248 0.54455316 -0.7060099
vn 0.45278248 0.54455316 -0.7060099
vn 0.36017045 0.60214865 -0.7125266
vn 0.36017045 0.60214865 -0.7125266
vn 0.36017045 0.60214865 -0.7125266
vn 0.36017045 0.60214865 -0.7125266
vn -0.17666428 0.16455208 -0.97041863
vn -0.17666428 0.16455208 -0.97041863
vn -0.17666428 0.16455208 -0.97041863
vn -0.17666428 0.16455208 -0.97041863
vn -0.10589142 0.13350436 -0.9853748
vn -0.10589142 0.13350436 -0.9853748
vn -0.10589142 0.13350436 -0.9853748
vn -0.10589142 0.13350436 -0.9853748
vn 0.7152532 0.6987671 0.0117230965
vn 0.7152532 0.6987671 0.0117230965
vn 0.7152532 0.6987671 0.0117230965
vn 0.7152532 0.6987671 0.0117230965
vn 0.76293087 0.6464501 0.006220092
vn 0.76293087 0.6464501 0.006220092
vn 0.76293087 0.6464501 0.006220092
vn 0.76293087 0.6464501 0.006220092
vn -0.4527008 -0.544645 0.7059914
vn -0.4527008 -0.544645 0.7059914
vn -0.4527008 -0.544645 0.7059914
vn -0.4527008 -0.544645 0.7059914
vn -0.35988176 -0.60228163 0.7125602
vn -0.35988176 -0.60228163 0.7125602
vn -0.35988176 -0.60228163 0.7125602
vn -0.35988176 -0.60228163 0.7125602
vn 0.17671643 -0.16461228 0.97039896
vn 0.17671643 -0.16461228 0.97039896
vn 0.17671643 -0.16461228 0.97039896
vn 0.17671643 -0.16461228 0.97039896
vn 0.10591482 -0.13353702 0.98536783
vn 0.10591482 -0.13353702 0.98536783
vn 0.10591482 -0.13353702 0.98536783
vn 0.10591482 -0.13353702 0.98536783
vn -0.62944704 -0.5583696 -0.5403885
vn -0.62944704 -0.5583696 -0.5403885
vn -0.62944704 -0.5583696 -0.5403885
vn -0.62944704 -0.5583696 -0.5403885
vn -0.5356495 -0.84324294 -0.044955023
vn -0.5356495 -0.84324294 -0.044955023
vn -0.5356495 -0.84324294 -0.044955023
vn -0.5356495 -0.84324294 -0.044955023
vn -0.64469266 -0.764092 -0.023122903
vn -0.64469266 -0.764092 -0.023122903
vn -0.64469266 -0.764092 -0.023122903
vn -0.64469266 -0.764092 -0.023122903
vn 0.23613045 0.66314614 -0.7102673
vn 0.23613045 0.66314614 -0.7102673
vn 0.23613045 0.66314614 -0.7102673
vn 0.23613045 0.66314614 -0.7102673
vn 0.06729474 0.7207097 -0.689963
vn 0.06729474 0.7207097 -0.689963
vn 0.06729474 0.7207097 -0.689963
vn 0.06729474 0.7207097 -0.689963
vn -0.35430863 0.22074844 -0.9086999
vn -0.35430863 0.22074844 -0.9086999
vn -0.35430863 0.22074844 -0.9086999
vn -0.35430863 0.22074844 -0.9086999
vn -0.258255 0.1943337 -0.9463292
vn -0.258255 0.1943337 -0.9463292
vn -0.258255 0.1943337 -0.9463292
vn -0.258255 0.1943337 -0.9463292
vn 0.62956333 0.5583235 0.54030067
vn 0.62956333 0.5583235 0.54030067
vn 0.62956333 0.5583235 0.54030067
vn 0.62956333 0.5583235 0.54030067
vn 0.53634024 0.8428116 0.044808097
vn 0.53634024 0.8428116 0.044808097
vn 0.53634024 0.8428116 0.044808097
vn 0.53634024 0.8428116 0.044808097
vn 0.64496684 0.7638629 0.023050286
vn 0.64496684 0.7638629 0.023050286
vn 0.64496684 0.7638629 0.023050286
vn 0.64496684 0.7638629 0.023050286
vn -0.2356386 -0.6633079 0.71027946
vn -0.2356386 -0.6633079 0.71027946
vn -0.2356386 -0.6633079 0.71027946
vn -0.2356386 -0.6633079 0.71027946
vn -0.066363744 -0.7209631 0.6897884
vn -0.066363744 -0.7209631 0.6897884
vn -0.066363744 -0.7209631 0.6897884
vn -0.066363744 -0.7209631 0.6897884
vn 0.35454264 -0.22076434 0.90860474
vn 0.35454264 -0.22076434 0.90860474
vn 0.35454264 -0.22076434 0.90860474
vn 0.35454264 -0.22076434 0.90860474
vn 0.25833967 -0.19438864 0.9462948
vn 0.25833967 -0.19438864 0.9462948
vn 0.25833967 -0.19438864 0.9462948
vn 0.25833967 -0.19438864 0.9462948
vn -0.56469274 -0.5939448 -0.5730197
vn -0.56469274 -0.5939448 -0.5730197
vn -0.56469274 -0.5939448 -0.5730197
vn -0.56469274 -0.5939448 -0.5730197
vn -0.46514466 -0.62672555 -0.6251844
vn -0.46514466 -0.62672555 -0.6251844
vn -0.46514466 -0.62672555 -0.6251844
vn -0.46514466 -0.62672555 -0.6251844
vn -0.1010977 -0.9825523 -0.15610963
vn -0.1010977 -0.9825523 -0.15610963
vn -0.1010977 -0.9825523 -0.15610963
vn -0.1010977 -0.9825523 -0.15610963
vn -0.36248767 -0.92804676 -0.08562634
vn -0.36248767 -0.92804676 -0.08562634
vn -0.36248767 -0.92804676 -0.08562634
vn -0.36248767 -0.92804676 -0.08562634
vn -0.15621775 0.75556475 -0.6361744
vn -0.15621775 0.75556475 -0.6361744
vn -0.15621775 0.75556475 -0.6361744
vn -0.15621775 0.75556475 -0.6361744
vn -0.4194503 0.73340064 -0.5349626
vn -0.4194503 0.73340064 -0.5349626
vn -0.4194503 0.73340064 -0.5349626
vn -0.4194503 0.73340064 -0.5349626
vn -0.59130514 0.23577467 -0.77121234
vn -0.59130514 0.23577467 -0.77121234
vn -0.59130514 0.23577467 -0.77121234
vn -0.59130514 0.23577467 -0.77121234
vn -0.46685097 0.23823299 -0.85164267
vn -0.46685097 0.23823299 -0.85164267
vn -0.46685097 0.23823299 -0.85164267
vn -0.46685097 0.23823299 -0.85164267
vn 0.56485397 0.59389704 0.5729104
vn 0.56485397 0.59389704 0.5729104
vn 0.56485397 0.59389704 0.5729104
vn 0.56485397 0.59389704 0.5729104
vn 0.46531144 0.6267061 0.6250798
vn 0.46531144 0.6267061 0.6250798
vn 0.46531144 0.6267061 0.6250798
vn 0.46531144 0.6267061 0.6250798
vn 0.10234838 0.982486 0.15571122
vn 0.10234838 0.982486 0.15571122
vn 0.10234838 0.982486 0.15571122
vn 0.10234838 0.982486 0.15571122
vn 0.36363617 0.9276263 0.08531164
vn 0.36363617 0.9276263 0.08531164
vn 0.36363617 0.9276263 0.08531164
vn 0.36363617 0.9276263 0.08531164
vn 0.15749702 -0.75562084 0.6357923
vn 0.15749702 -0.75562084 0.6357923
vn 0.15749702 -0.75562084 0.6357923
vn 0.15749702 -0.75562084 0.6357923
vn 0.42050052 -0.73316 0.53446764
vn 0.42050052 -0.73316 0.53446764
vn 0.42050052 -0.73316 0.53446764
vn 0.42050052 -0.73316 0.53446764
vn 0.5914836 -0.23575035 0.771083
vn 0.5914836 -0.23575035 0.771083
vn 0.5914836 -0.23575035 0.771083
vn 0.5914836 -0.23575035 0.771083
vn 0.4671097 -0.23826037 0.85149306
vn 0.4671097 -0.23826037 0.85149306
vn 0.4671097 -0.23826037 0.85149306
vn 0.4671097 -0.23826037 0.85149306
vn -0.32779783 -0.637394 -0.69733584
vn -0.32779783 -0.637394 -0.69733584
vn -0.32779783 -0.637394 -0.69733584
vn -0.32779783 -0.637394 -0.69733584
vn -0.26029617 -0.62663996 -0.7345531
vn -0.26029617 -0.62663996 -0.7345531
vn -0.26029617 -0.62663996 -0.7345531
vn -0.26029617 -0.62663996 -0.7345531
vn 0.36274832 -0.88179624 -0.30141184
vn 0.36274832 -0.88179624 -0.30141184
vn 0.36274832 -0.88179624 -0.30141184
vn 0.36274832 -0.88179624 -0.30141184
vn 0.22275785 -0.9415358 -0.25276363
vn 0.22275785 -0.9415358 -0.25276363
vn 0.22275785 -0.9415358 -0.25276363
vn 0.22275785 -0.9415358 -0.25276363
vn -0.6639114 0.6343604 -0.39599052
vn -0.6639114 0.6343604 -0.39599052
vn -0.6639114 0.6343604 -0.39599052
vn -0.6639114 0.6343604 -0.39599052
vn -0.75475967 0.56667846 -0.33047453
vn -0.75475967 0.56667846 -0.33047453
vn -0.75475967 0.56667846 -0.33047453
vn -0.75475967 0.56667846 -0.33047453
vn -0.75817174 0.17783278 -0.6273365
vn -0.75817174 0.17783278 -0.6273365
vn -0.75817174 0.17783278 -0.6273365
vn -0.75817174 0.17783278 -0.6273365
vn -0.710327 0.20482503 -0.67341083
vn -0.710327 0.20482503 -0.67341083
vn -0.710327 0.20482503 -0.67341083
vn -0.710327 0.20482503 -0.67341083
vn 0.32799453 0.63738704 0.6972498
vn 0.32799453 0.63738704 0.6972498
vn 0.32799453 0.63738704 0.6972498
vn 0.32799453 0.63738704 0.6972498
vn 0.2603222 0.6266571 0.7345292
vn 0.2603222 0.6266571 0.7345292
vn 0.2603222 0.6266571 0.7345292
vn 0.2603222 0.6266571 0.7345292
vn -0.36254805 0.8819054 0.30133337
vn -0.36254805 0.8819054 0.30133337
vn -0.36254805 0.8819054 0.30133337
vn -0.36254805 0.8819054 0.30133337
vn -0.22189075 0.9418202 0.25246602
vn -0.22189075 0.9418202 0.25246602
vn -0.22189075 0.9418202 0.25246602
vn -0.22189075 0.9418202 0.25246602
vn 0.6644502 -0.6340433 0.39559457
vn 0.6644502 -0.6340433 0.39559457
vn 0.6644502 -0.6340433 0.39559457
vn 0.6644502 -0.6340433 0.39559457
vn 0.7548435 -0.56661755 0.33038744
vn 0.7548435 -0.56661755 0.33038744
vn 0.7548435 -0.56661755 0.33038744
vn 0.7548435 -0.56661755 0.33038744
vn 0.7581849 -0.17781317 0.62732613
vn 0.7581849 -0.17781317 0.62732613
vn 0.7581849 -0.17781317 0.62732613
vn 0.7581849 -0.17781317 0.62732613
vn 0.710439 -0.20472093 0.67332447
vn 0.710439 -0.20472093 0.67332447
vn 0.710439 -0.20472093 0.67332447
vn 0.710439 -0.20472093 0.67332447
vn -1 0 0
vn -1 0 0
vn -1 0 0
vn -1 0 0
vn -0 0.28034312 -0.95989984
vn -0 0.28034312 -0.95989984
vn -0 0.28034312 -0.95989984
vn -0 0.28034312 -0.95989984
vn 1 0 0
vn 1 0 0
vn 1 0 0
vn 1 0 0
vn -0 -0.9999999 0.0005260936
vn -0 -0.9999999 0.0005260936
vn -0 -0.9999999 0.0005260936
vn -0 -0.9999999 0.0005260936
g TelephoneHolder_0
f 3/3/3 2/2/2 1/1/1
f 4/4/4 3/3/3 1/1/1
f 1/1/1 2/2/2 5/5/5
f 1/1/1 5/5/5 6/6/6
f 7/7/7 1/1/1 6/6/6
f 4/4/4 1/1/1 7/7/7
f 2/2/2 8/8/8 5/5/5
f 9/9/9 4/4/4 7/7/7
f 3/3/3 10/10/10 2/2/2
f 10/10/10 11/11/11 2/2/2
f 2/2/2 11/11/11 8/8/8
f 11/11/11 12/12/12 8/8/8
f 15/15/15 14/14/14 13/13/13
f 16/16/16 15/15/15 13/13/13
f 13/13/13 14/14/14 17/17/17
f 14/14/14 18/18/18 17/17/17
f 13/13/13 17/17/17 19/19/19
f 20/20/20 13/13/13 19/19/19
f 16/16/16 13/13/13 20/20/20
f 21/21/21 16/16/16 20/20/20
f 20/20/20 22/22/22 21/21/21
f 22/22/22 23/23/23 21/21/21
f 24/24/24 22/22/22 20/20/20
f 19/19/19 24/24/24 20/20/20
f 27/27/27 26/26/26 25/25/25
f 28/28/28 27/27/27 25/25/25
f 28/28/28 25/25/25 29/29/29
f 30/30/30 28/28/28 29/29/29
f 30/30/30 29/29/29 31/31/31
f 32/32/32 30/30/30 31/31/31
f 29/29/29 25/25/25 33/33/33
f 25/25/25 34/34/34 33/33/33
f 25/25/25 26/26/26 34/34/34
f 29/29/29 33/33/33 35/35/35
f 31/31/31 29/29/29 35/35/35
f 26/26/26 36/36/36 34/34/34
f 39/39/39 38/38/38 37/37/37
f 40/40/40 39/39/39 37/37/37
f 37/37/37 38/38/38 41/41/41
f 38/38/38 42/42/42 41/41/41
f 41/41/41 42/42/42 43/43/43
f 42/42/42 44/44/44 43/43/43
f 41/41/41 43/43/43 45/45/45
f 46/46/46 41/41/41 45/45/45
f 40/40/40 37/37/37 47/47/47
f 48/48/48 40/40/40 47/47/47
f 45/45/45 49/49/49 46/46/46
f 49/49/49 50/50/50 46/46/46
f 47/47/47 51/51/51 48/48/48
f 51/51/51 52/52/52 48/48/48
f 55/55/55 54/54/54 53/53/53
f 56/56/56 55/55/55 53/53/53
f 53/53/53 54/54/54 57/57/57
f 54/54/54 58/58/58 57/57/57
f 57/57/57 58/58/58 59/59/59
f 58/58/58 60/60/60 59/59/59
f 57/57/57 59/59/59 61/61/61
f 62/62/62 57/57/57 61/61/61
f 56/56/56 53/53/53 63/63/63
f 64/64/64 56/56/56 63/63/63
f 63/63/63 65/65/65 64/64/64
f 65/65/65 66/66/66 64/64/64
f 61/61/61 67/67/67 62/62/62
f 67/67/67 68/68/68 62/62/62
f 71/71/71 70/70/70 69/69/69
f 72/72/72 71/71/71 69/69/69
f 75/75/75 74/74/74 73/73/73
f 76/76/76 75/75/75 73/73/73
f 79/79/79 78/78/78 77/77/77
f 80/80/80 79/79/79 77/77/77
f 83/83/83 82/82/82 81/81/81
f 84/84/84 83/83/83 81/81/81
f 87/87/87 86/86/86 85/85/85
f 88/88/88 87/87/87 85/85/85
f 91/91/91 90/90/90 89/89/89
f 92/92/92 91/91/91 89/89/89
f 95/95/95 94/94/94 93/93/93
f 96/96/96 95/95/95 93/93/93
f 99/99/99 98/98/98 97/97/97
f 100/100/100 99/99/99 97/97/97
f 103/103/103 102/102/102 101/101/101
f 104/104/104 103/103/103 101/101/101
f 107/107/107 106/106/106 105/105/105
f 108/108/108 107/107/107 105/105/105
f 111/111/111 110/110/110 109/109/109
f 112/112/112 111/111/111 109/109/109
f 115/115/115 114/114/114 113/113/113
f 116/116/116 115/115/115 113/113/113
f 119/119/119 118/118/118 117/117/117
f 120/120/120 119/119/119 117/117/117
f 123/123/123 122/122/122 121/121/121
f 124/124/124 123/123/123 121/121/121
f 127/127/127 126/126/126 125/125/125
f 128/128/128 127/127/127 125/125/125
f 131/131/131 130/130/130 129/129/129
f 132/132/132 131/131/131 129/129/129
f 135/135/135 134/134/134 133/133/133
f 136/136/136 135/135/135 133/133/133
f 139/139/139 138/138/138 137/137/137
f 140/140/140 139/139/139 137/137/137
f 143/143/143 142/142/142 141/141/141
f 144/144/144 143/143/143 141/141/141
f 147/147/147 146/146/146 145/145/145
f 148/148/148 147/147/147 145/145/145
f 151/151/151 150/150/150 149/149/149
f 152/152/152 151/151/151 149/149/149
f 155/155/155 154/154/154 153/153/153
f 156/156/156 155/155/155 153/153/153
f 159/159/159 158/158/158 157/157/157
f 160/160/160 159/159/159 157/157/157
f 158/158/158 161/161/161 157/157/157
f 161/161/161 162/162/162 157/157/157
f 165/165/165 164/164/164 163/163/163
f 166/166/166 165/165/165 163/163/163
f 164/164/164 167/167/167 163/163/163
f 167/167/167 168/168/168 163/163/163
f 165/165/165 166/166/166 169/169/169
f 170/170/170 165/165/165 169/169/169
f 171/171/171 170/170/170 169/169/169
f 172/172/172 171/171/171 169/169/169
f 171/171/171 172/172/172 173/173/173
f 174/174/174 171/171/171 173/173/173
f 175/175/175 174/174/174 173/173/173
f 176/176/176 175/175/175 173/173/173
f 175/175/175 176/176/176 177/177/177
f 178/178/178 175/175/175 177/177/177
f 179/179/179 178/178/178 177/177/177
f 180/180/180 179/179/179 177/177/177
f 179/179/179 180/180/180 181/181/181
f 182/182/182 179/179/179 181/181/181
f 183/183/183 182/182/182 181/181/181
f 184/184/184 183/183/183 181/181/181
f 183/183/183 184/184/184 185/185/185
f 186/186/186 183/183/183 185/185/185
f 187/187/187 186/186/186 185/185/185
f 188/188/188 187/187/187 185/185/185
f 187/187/187 188/188/188 189/189/189
f 190/190/190 187/187/187 189/189/189
f 191/191/191 190/190/190 189/189/189
f 192/192/192 191/191/191 189/189/189
f 191/191/191 192/192/192 193/193/193
f 194/194/194 191/191/191 193/193/193
f 195/195/195 194/194/194 193/193/193
f 196/196/196 195/195/195 193/193/193
f 199/199/199 198/198/198 197/197/197
f 200/200/200 199/199/199 197/197/197
f 203/203/203 202/202/202 201/201/201
f 204/204/204 203/203/203 201/201/201
f 207/207/207 206/206/206 205/205/205
f 208/208/208 207/207/207 205/205/205
f 211/211/211 210/210/210 209/209/209
f 212/212/212 211/211/211 209/209/209
f 215/215/215 214/214/214 213/213/213
f 216/216/216 215/215/215 213/213/213
f 214/214/214 217/217/217 213/213/213
f 217/217/217 218/218/218 213/213/213
f 221/221/221 220/220/220 219/219/219
f 222/222/222 221/221/221 219/219/219
f 220/220/220 223/223/223 219/219/219
f 223/223/223 224/224/224 219/219/219
f 221/221/221 222/222/222 225/225/225
f 226/226/226 221/221/221 225/225/225
f 227/227/227 226/226/226 225/225/225
f 228/228/228 227/227/227 225/225/225
f 227/227/227 228/228/228 229/229/229
f 230/230/230 227/227/227 229/229/229
f 231/231/231 230/230/230 229/229/229
f 232/232/232 231/231/231 229/229/229
f 231/231/231 232/232/232 233/233/233
f 234/234/234 231/231/231 233/233/233
f 235/235/235 234/234/234 233/233/233
f 236/236/236 235/235/235 233/233/233
f 235/235/235 236/236/236 237/237/237
f 238/238/238 235/235/235 237/237/237
f 239/239/239 238/238/238 237/237/237
f 240/240/240 239/239/239 237/237/237
f 239/239/239 240/240/240 241/241/241
f 242/242/242 239/239/239 241/241/241
f 243/243/243 242/242/242 241/241/241
f 244/244/244 243/243/243 241/241/241
f 243/243/243 244/244/244 245/245/245
f 246/246/246 243/243/243 245/245/245
f 247/247/247 246/246/246 245/245/245
f 248/248/248 247/247/247 245/245/245
f 247/247/247 248/248/248 249/249/249
f 250/250/250 247/247/247 249/249/249
f 251/251/251 250/250/250 249/249/249
f 252/252/252 251/251/251 249/249/249
f 255/255/255 254/254/254 253/253/253
f 256/256/256 255/255/255 253/253/253
f 259/259/259 258/258/258 257/257/257
f 262/262/262 261/261/261 260/260/260
f 265/265/265 264/264/264 263/263/263
f 266/266/266 265/265/265 263/263/263
f 269/269/269 268/268/268 267/267/267
f 270/270/270 269/269/269 267/267/267
f 273/273/273 272/272/272 271/271/271
f 274/274/274 273/273/273 271/271/271
f 277/277/277 276/276/276 275/275/275
f 278/278/278 277/277/277 275/275/275
f 281/281/281 280/280/280 279/279/279
f 282/282/282 281/281/281 279/279/279
f 285/285/285 284/284/284 283/283/283
f 286/286/286 285/285/285 283/283/283
f 289/289/289 288/288/288 287/287/287
f 290/290/290 289/289/289 287/287/287
f 293/293/293 292/292/292 291/291/291
f 294/294/294 293/293/293 291/291/291
f 297/297/297 296/296/296 295/295/295
f 298/298/298 297/297/297 295/295/295
f 301/301/301 300/300/300 299/299/299
f 302/302/302 301/301/301 299/299/299
f 305/305/305 304/304/304 303/303/303
f 306/306/306 305/305/305 303/303/303
f 309/309/309 308/308/308 307/307/307
f 310/310/310 309/309/309 307/307/307
f 313/313/313 312/312/312 311/311/311
f 314/314/314 313/313/313 311/311/311
f 317/317/317 316/316/316 315/315/315
f 318/318/318 317/317/317 315/315/315
f 321/321/321 320/320/320 319/319/319
f 322/322/322 321/321/321 319/319/319
f 325/325/325 324/324/324 323/323/323
f 326/326/326 325/325/325 323/323/323
f 329/329/329 328/328/328 327/327/327
f 330/330/330 329/329/329 327/327/327
f 333/333/333 332/332/332 331/331/331
f 334/334/334 333/333/333 331/331/331
f 337/337/337 336/336/336 335/335/335
f 338/338/338 337/337/337 335/335/335
f 341/341/341 340/340/340 339/339/339
f 342/342/342 341/341/341 339/339/339
f 345/345/345 344/344/344 343/343/343
f 346/346/346 345/345/345 343/343/343
f 349/349/349 348/348/348 347/347/347
f 350/350/350 349/349/349 347/347/347
f 353/353/353 352/352/352 351/351/351
f 354/354/354 353/353/353 351/351/351
f 357/357/357 356/356/356 355/355/355
f 358/358/358 357/357/357 355/355/355
f 361/361/361 360/360/360 359/359/359
f 362/362/362 361/361/361 359/359/359
f 365/365/365 364/364/364 363/363/363
f 366/366/366 365/365/365 363/363/363
f 369/369/369 368/368/368 367/367/367
f 370/370/370 369/369/369 367/367/367
f 368/368/368 371/371/371 367/367/367
f 371/371/371 372/372/372 367/367/367
f 372/372/372 371/371/371 373/373/373
f 371/371/371 374/374/374 373/373/373
f 374/374/374 375/375/375 373/373/373
f 375/375/375 376/376/376 373/373/373
f 376/376/376 375/375/375 377/377/377
f 375/375/375 378/378/378 377/377/377
f 378/378/378 379/379/379 377/377/377
f 379/379/379 380/380/380 377/377/377
f 380/380/380 379/379/379 381/381/381
f 379/379/379 382/382/382 381/381/381
f 382/382/382 383/383/383 381/381/381
f 383/383/383 384/384/384 381/381/381
f 384/384/384 383/383/383 385/385/385
f 383/383/383 386/386/386 385/385/385
f 386/386/386 387/387/387 385/385/385
f 387/387/387 388/388/388 385/385/385
f 388/388/388 387/387/387 389/389/389
f 387/387/387 390/390/390 389/389/389
f 390/390/390 391/391/391 389/389/389
f 391/391/391 392/392/392 389/389/389
f 392/392/392 391/391/391 393/393/393
f 391/391/391 394/394/394 393/393/393
f 397/397/397 396/396/396 395/395/395
f 398/398/398 397/397/397 395/395/395
f 401/401/401 400/400/400 399/399/399
f 402/402/402 401/401/401 399/399/399
f 405/405/405 404/404/404 403/403/403
f 406/406/406 405/405/405 403/403/403
f 409/409/409 408/408/408 407/407/407
f 410/410/410 409/409/409 407/407/407
f 413/413/413 412/412/412 411/411/411
f 414/414/414 413/413/413 411/411/411
f 412/412/412 415/415/415 411/411/411
f 415/415/415 416/416/416 411/411/411
f 416/416/416 415/415/415 417/417/417
f 415/415/415 418/418/418 417/417/417
f 418/418/418 419/419/419 417/417/417
f 419/419/419 420/420/420 417/417/417
f 420/420/420 419/419/419 421/421/421
f 419/419/419 422/422/422 421/421/421
f 422/422/422 423/423/423 421/421/421
f 423/423/423 424/424/424 421/421/421
f 424/424/424 423/423/423 425/425/425
f 423/423/423 426/426/426 425/425/425
f 426/426/426 427/427/427 425/425/425
f 427/427/427 428/428/428 425/425/425
f 428/428/428 427/427/427 429/429/429
f 427/427/427 430/430/430 429/429/429
f 430/430/430 431/431/431 429/429/429
f 431/431/431 432/432/432 429/429/429
f 432/432/432 431/431/431 433/433/433
f 431/431/431 434/434/434 433/433/433
f 434/434/434 435/435/435 433/433/433
f 435/435/435 436/436/436 433/433/433
f 436/436/436 435/435/435 437/437/437
f 435/435/435 438/438/438 437/437/437
f 441/441/441 440/440/440 439/439/439
f 442/442/442 441/441/441 439/439/439
f 445/445/445 444/444/444 443/443/443
f 446/446/446 445/445/445 443/443/443
f 449/449/449 448/448/448 447/447/447
f 450/450/450 449/449/449 447/447/447
f 453/453/453 452/452/452 451/451/451
f 454/454/454 453/453/453 451/451/451
f 457/457/457 456/456/456 455/455/455
f 458/458/458 457/457/457 455/455/455
f 461/461/461 460/460/460 459/459/459
f 462/462/462 461/461/461 459/459/459
f 465/465/465 464/464/464 463/463/463
f 466/466/466 465/465/465 463/463/463
f 469/469/469 468/468/468 467/467/467
f 470/470/470 469/469/469 467/467/467
f 473/473/473 472/472/472 471/471/471
f 474/474/474 473/473/473 471/471/471
f 477/477/477 476/476/476 475/475/475
f 478/478/478 477/477/477 475/475/475
f 481/481/481 480/480/480 479/479/479
f 482/482/482 481/481/481 479/479/479
f 485/485/485 484/484/484 483/483/483
f 486/486/486 485/485/485 483/483/483
f 489/489/489 488/488/488 487/487/487
f 490/490/490 489/489/489 487/487/487
f 493/493/493 492/492/492 491/491/491
f 494/494/494 493/493/493 491/491/491
f 497/497/497 496/496/496 495/495/495
f 498/498/498 497/497/497 495/495/495
f 501/501/501 500/500/500 499/499/499
f 502/502/502 501/501/501 499/499/499
f 505/505/505 504/504/504 503/503/503
f 506/506/506 505/505/505 503/503/503
f 509/509/509 508/508/508 507/507/507
f 510/510/510 509/509/509 507/507/507
f 513/513/513 512/512/512 511/511/511
f 514/514/514 513/513/513 511/511/511
f 517/517/517 516/516/516 515/515/515
f 518/518/518 517/517/517 515/515/515
f 521/521/521 520/520/520 519/519/519
f 522/522/522 521/521/521 519/519/519
f 525/525/525 524/524/524 523/523/523
f 526/526/526 525/525/525 523/523/523
f 529/529/529 528/528/528 527/527/527
f 530/530/530 529/529/529 527/527/527
f 533/533/533 532/532/532 531/531/531
f 534/534/534 533/533/533 531/531/531
f 537/537/537 536/536/536 535/535/535
f 538/538/538 537/537/537 535/535/535
f 541/541/541 540/540/540 539/539/539
f 542/542/542 541/541/541 539/539/539
f 545/545/545 544/544/544 543/543/543
f 546/546/546 545/545/545 543/543/543
f 549/549/549 548/548/548 547/547/547
f 550/550/550 549/549/549 547/547/547
f 553/553/553 552/552/552 551/551/551
f 554/554/554 553/553/553 551/551/551
f 557/557/557 556/556/556 555/555/555
f 558/558/558 557/557/557 555/555/555
f 561/561/561 560/560/560 559/559/559
f 562/562/562 561/561/561 559/559/559
f 565/565/565 564/564/564 563/563/563
f 566/566/566 565/565/565 563/563/563
f 569/569/569 568/568/568 567/567/567
f 572/572/572 571/571/571 570/570/570
f 575/575/575 574/574/574 573/573/573
f 576/576/576 575/575/575 573/573/573
f 579/579/579 578/578/578 577/577/577
f 580/580/580 579/579/579 577/577/577
f 583/583/583 582/582/582 581/581/581
f 584/584/584 583/583/583 581/581/581
f 587/587/587 586/586/586 585/585/585
f 588/588/588 587/587/587 585/585/585
f 591/591/591 590/590/590 589/589/589
f 592/592/592 591/591/591 589/589/589
f 595/595/595 594/594/594 593/593/593
f 596/596/596 595/595/595 593/593/593
f 599/599/599 598/598/598 597/597/597
f 600/600/600 599/599/599 597/597/597
f 603/603/603 602/602/602 601/601/601
f 604/604/604 603/603/603 601/601/601
f 607/607/607 606/606/606 605/605/605
f 608/608/608 607/607/607 605/605/605
f 611/611/611 610/610/610 609/609/609
f 612/612/612 611/611/611 609/609/609
f 615/615/615 614/614/614 613/613/613
f 616/616/616 615/615/615 613/613/613
f 619/619/619 618/618/618 617/617/617
f 620/620/620 619/619/619 617/617/617
f 623/623/623 622/622/622 621/621/621
f 624/624/624 623/623/623 621/621/621
f 627/627/627 626/626/626 625/625/625
f 628/628/628 627/627/627 625/625/625
f 631/631/631 630/630/630 629/629/629
f 632/632/632 631/631/631 629/629/629
f 635/635/635 634/634/634 633/633/633
f 636/636/636 635/635/635 633/633/633
f 639/639/639 638/638/638 637/637/637
f 640/640/640 639/639/639 637/637/637
f 643/643/643 642/642/642 641/641/641
f 644/644/644 643/643/643 641/641/641
f 647/647/647 646/646/646 645/645/645
f 648/648/648 647/647/647 645/645/645
f 651/651/651 650/650/650 649/649/649
f 652/652/652 651/651/651 649/649/649
f 655/655/655 654/654/654 653/653/653
f 656/656/656 655/655/655 653/653/653
f 659/659/659 658/658/658 657/657/657
f 660/660/660 659/659/659 657/657/657
f 663/663/663 662/662/662 661/661/661
f 664/664/664 663/663/663 661/661/661
f 667/667/667 666/666/666 665/665/665
f 668/668/668 667/667/667 665/665/665
f 671/671/671 670/670/670 669/669/669
f 672/672/672 671/671/671 669/669/669
f 675/675/675 674/674/674 673/673/673
f 676/676/676 675/675/675 673/673/673
f 679/679/679 678/678/678 677/677/677
f 680/680/680 679/679/679 677/677/677
f 683/683/683 682/682/682 681/681/681
f 684/684/684 683/683/683 681/681/681
f 687/687/687 686/686/686 685/685/685
f 688/688/688 687/687/687 685/685/685
f 691/691/691 690/690/690 689/689/689
f 692/692/692 691/691/691 689/689/689
f 695/695/695 694/694/694 693/693/693
f 696/696/696 695/695/695 693/693/693
f 699/699/699 698/698/698 697/697/697
f 700/700/700 699/699/699 697/697/697
f 703/703/703 702/702/702 701/701/701
f 704/704/704 703/703/703 701/701/701
f 707/707/707 706/706/706 705/705/705
f 708/708/708 707/707/707 705/705/705
f 711/711/711 710/710/710 709/709/709
f 712/712/712 711/711/711 709/709/709
f 715/715/715 714/714/714 713/713/713
f 716/716/716 715/715/715 713/713/713
f 719/719/719 718/718/718 717/717/717
f 720/720/720 719/719/719 717/717/717
f 723/723/723 722/722/722 721/721/721
f 724/724/724 723/723/723 721/721/721
f 727/727/727 726/726/726 725/725/725
f 728/728/728 727/727/727 725/725/725
f 731/731/731 730/730/730 729/729/729
f 732/732/732 731/731/731 729/729/729
f 735/735/735 734/734/734 733/733/733
f 736/736/736 735/735/735 733/733/733
f 739/739/739 738/738/738 737/737/737
f 740/740/740 739/739/739 737/737/737
f 743/743/743 742/742/742 741/741/741
f 744/744/744 743/743/743 741/741/741
f 747/747/747 746/746/746 745/745/745
f 748/748/748 747/747/747 745/745/745
f 751/751/751 750/750/750 749/749/749
f 752/752/752 751/751/751 749/749/749
f 755/755/755 754/754/754 753/753/753
f 756/756/756 755/755/755 753/753/753
f 759/759/759 758/758/758 757/757/757
f 760/760/760 759/759/759 757/757/757
f 763/763/763 762/762/762 761/761/761
f 764/764/764 763/763/763 761/761/761
f 767/767/767 766/766/766 765/765/765
f 768/768/768 767/767/767 765/765/765
f 771/771/771 770/770/770 769/769/769
f 772/772/772 771/771/771 769/769/769
f 775/775/775 774/774/774 773/773/773
f 776/776/776 775/775/775 773/773/773
f 779/779/779 778/778/778 777/777/777
f 780/780/780 779/779/779 777/777/777
f 783/783/783 782/782/782 781/781/781
f 784/784/784 783/783/783 781/781/781
f 787/787/787 786/786/786 785/785/785
f 788/788/788 787/787/787 785/785/785
f 791/791/791 790/790/790 789/789/789
f 792/792/792 791/791/791 789/789/789
f 795/795/795 794/794/794 793/793/793
f 796/796/796 795/795/795 793/793/793
f 799/799/799 798/798/798 797/797/797
f 800/800/800 799/799/799 797/797/797
f 803/803/803 802/802/802 801/801/801
f 804/804/804 803/803/803 801/801/801
f 807/807/807 806/806/806 805/805/805
f 808/808/808 807/807/807 805/805/805
f 811/811/811 810/810/810 809/809/809
f 812/812/812 811/811/811 809/809/809
f 815/815/815 814/814/814 813/813/813
f 816/816/816 815/815/815 813/813/813
f 819/819/819 818/818/818 817/817/817
f 820/820/820 819/819/819 817/817/817
f 823/823/823 822/822/822 821/821/821
f 824/824/824 823/823/823 821/821/821
f 827/827/827 826/826/826 825/825/825
f 828/828/828 827/827/827 825/825/825
f 831/831/831 830/830/830 829/829/829
f 832/832/832 831/831/831 829/829/829
