g Cube.011
v 0.026653172 -0.044684198 -0.013616508
v 0.034286406 -0.03451981 -0.022919506
v -0.08465113 0.09384017 0.019735856
v -0.09228436 0.08367577 0.02903885
v 0.038595904 -0.03245236 -0.017124623
v 0.042905398 -0.03038491 -0.011329742
v -0.07603215 0.09797506 0.03132562
v -0.08034163 0.095907606 0.025530735
v 0.034286406 -0.03451981 -0.022919506
v -0.08465113 0.09384017 0.019735856
v 0.042905398 -0.03038491 -0.011329742
v 0.03527216 -0.0405493 -0.002026747
v -0.083665386 0.087810665 0.040628612
v -0.07603215 0.09797506 0.03132562
v 0.030962665 -0.04261675 -0.007821629
v 0.026653172 -0.044684198 -0.013616508
v -0.09228436 0.08367577 0.02903885
v -0.08797487 0.08574322 0.034833733
v 0.03527216 -0.0405493 -0.002026747
v -0.083665386 0.087810665 0.040628612
v 0.14226988 -0.14641096 -0.05516719
v 0.13276397 -0.15906897 -0.043581903
v 0.1456614 -0.14467432 -0.017271884
v 0.1551673 -0.13201629 -0.028857175
v -0.08034163 0.095907606 0.025530735
v -0.08797487 0.08574322 0.034833733
v -0.09228436 0.08367577 0.02903885
v -0.08465113 0.09384017 0.019735856
v -0.07603215 0.09797506 0.03132562
v -0.083665386 0.087810665 0.040628612
v 0.06022693 -0.08516167 -0.016006125
v 0.03690348 -0.09635094 -0.04736866
v 0.0160035 -0.06350359 -0.033186045
v 0.029663863 -0.049032908 -0.0061669443
v 0.083550386 -0.07397242 0.015356408
v 0.053481247 -0.045523904 0.017209476
v 0.09636138 -0.05691335 -0.00025696494
v 0.083550386 -0.07397242 0.015356408
v 0.053481247 -0.045523904 0.017209476
v 0.064009055 -0.03150512 0.004378736
v 0.13457374 -0.09904635 -0.014189035
v 0.12094717 -0.10197906 -0.014980245
v 0.13735674 -0.12665792 -0.026943345
v 0.1551673 -0.13201629 -0.028857175
v 0.03690348 -0.09635094 -0.04736866
v 0.049714472 -0.07929187 -0.062982045
v 0.026531301 -0.049484804 -0.046016783
v 0.0160035 -0.06350359 -0.033186045
v 0.029663863 -0.049032908 -0.0061669443
v 0.0160035 -0.06350359 -0.033186045
v 0.026653172 -0.044684198 -0.013616508
v 0.030962665 -0.04261675 -0.007821629
v 0.064009055 -0.03150512 0.004378736
v 0.053481247 -0.045523904 0.017209476
v 0.03527216 -0.0405493 -0.002026747
v 0.042905398 -0.03038491 -0.011329742
v 0.03994613 -0.034696475 -0.018928409
v 0.064009055 -0.03150512 0.004378736
v 0.042905398 -0.03038491 -0.011329742
v 0.038595904 -0.03245236 -0.017124623
v 0.026531301 -0.049484804 -0.046016783
v 0.034286406 -0.03451981 -0.022919506
v 0.0160035 -0.06350359 -0.033186045
v 0.026531301 -0.049484804 -0.046016783
v 0.034286406 -0.03451981 -0.022919506
v 0.026653172 -0.044684198 -0.013616508
v 0.07353629 -0.07813815 -0.028409723
v 0.09150607 -0.06951728 -0.0042461473
v 0.06712299 -0.04921808 -0.0013364106
v 0.04736139 -0.050345905 -0.01885966
v 0.103163704 -0.11051055 -0.038893268
v 0.12094717 -0.10197906 -0.014980245
v 0.12862824 -0.13905257 -0.047647536
v 0.13735674 -0.12665792 -0.026943345
v 0.08538026 -0.11904203 -0.062806286
v 0.055566505 -0.08675903 -0.052573297
v 0.10937066 -0.14008404 -0.06457563
v 0.03824789 -0.063070714 -0.040164135
v 0.14226988 -0.14641096 -0.05516719
v 0.12862824 -0.13905257 -0.047647536
v 0.10937066 -0.14008404 -0.06457563
v 0.11884342 -0.14944243 -0.07770111
v 0.03994613 -0.034696475 -0.018928409
v 0.04736139 -0.050345905 -0.01885966
v 0.06712299 -0.04921808 -0.0013364106
v 0.064009055 -0.03150512 0.004378736
v 0.049714472 -0.07929187 -0.062982045
v 0.055566505 -0.08675903 -0.052573297
v 0.03824789 -0.063070714 -0.040164135
v 0.026531301 -0.049484804 -0.046016783
v 0.11884342 -0.14944243 -0.07770111
v 0.10937066 -0.14008404 -0.06457563
v 0.08538026 -0.11904203 -0.062806286
v 0.088410534 -0.121192835 -0.0762637
v 0.088410534 -0.121192835 -0.0762637
v 0.08538026 -0.11904203 -0.062806286
v 0.055566505 -0.08675903 -0.052573297
v 0.049714472 -0.07929187 -0.062982045
v 0.109337516 -0.16210045 -0.06611581
v 0.11884342 -0.14944243 -0.07770111
v 0.088410534 -0.121192835 -0.0762637
v 0.076027915 -0.13768148 -0.061172403
v 0.076027915 -0.13768148 -0.061172403
v 0.088410534 -0.121192835 -0.0762637
v 0.049714472 -0.07929187 -0.062982045
v 0.03690348 -0.09635094 -0.04736866
v 0.064009055 -0.03150512 0.004378736
v 0.06712299 -0.04921808 -0.0013364106
v 0.09150607 -0.06951728 -0.0042461473
v 0.09636138 -0.05691335 -0.00025696494
v 0.09636138 -0.05691335 -0.00025696494
v 0.09150607 -0.06951728 -0.0042461473
v 0.12094717 -0.10197906 -0.014980245
v 0.13457374 -0.09904635 -0.014189035
v 0.1551673 -0.13201629 -0.028857175
v 0.1456614 -0.14467432 -0.017271884
v 0.12219112 -0.115535006 0.0009022653
v 0.13457374 -0.09904635 -0.014189035
v 0.13457374 -0.09904635 -0.014189035
v 0.12219112 -0.115535006 0.0009022653
v 0.083550386 -0.07397242 0.015356408
v 0.09636138 -0.05691335 -0.00025696494
v 0.13276397 -0.15906897 -0.043581903
v 0.109337516 -0.16210045 -0.06611581
v 0.076027915 -0.13768148 -0.061172403
v 0.09910952 -0.12660825 -0.030135069
v 0.1456614 -0.14467432 -0.017271884
v 0.12219112 -0.115535006 0.0009022653
v 0.09910952 -0.12660825 -0.030135069
v 0.076027915 -0.13768148 -0.061172403
v 0.03690348 -0.09635094 -0.04736866
v 0.06022693 -0.08516167 -0.016006125
v 0.12219112 -0.115535006 0.0009022653
v 0.083550386 -0.07397242 0.015356408
v 0.026531301 -0.049484804 -0.046016783
v 0.03824789 -0.063070714 -0.040164135
v 0.04736139 -0.050345905 -0.01885966
v 0.03994613 -0.034696475 -0.018928409
v 0.1551673 -0.13201629 -0.028857175
v 0.13735674 -0.12665792 -0.026943345
v 0.12862824 -0.13905257 -0.047647536
v 0.14226988 -0.14641096 -0.05516719
v 0.053481247 -0.045523904 0.017209476
v 0.029663863 -0.049032908 -0.0061669443
v 0.030962665 -0.04261675 -0.007821629
v 0.053481247 -0.045523904 0.017209476
v 0.030962665 -0.04261675 -0.007821629
v 0.03527216 -0.0405493 -0.002026747
v 0.11884342 -0.14944243 -0.07770111
v 0.109337516 -0.16210045 -0.06611581
v 0.13276397 -0.15906897 -0.043581903
v 0.14226988 -0.14641096 -0.05516719
vn -0.5736985 -0.27522787 -0.77144
vn -0.5736985 -0.27522787 -0.77144
vn -0.5736985 -0.27522787 -0.77144
vn -0.5736985 -0.27522787 -0.77144
vn 0.48458728 0.6452746 -0.59058946
vn 0.48458728 0.6452746 -0.59058946
vn 0.48458728 0.6452746 -0.59058946
vn 0.48458728 0.6452746 -0.59058946
vn 0.48458725 0.64527464 -0.5905895
vn 0.48458725 0.64527464 -0.5905895
vn 0.57369846 0.27522776 0.77144
vn 0.57369846 0.27522776 0.77144
vn 0.57369846 0.27522776 0.77144
vn 0.57369846 0.27522776 0.77144
vn -0.4845873 -0.6452745 0.5905895
vn -0.4845873 -0.6452745 0.5905895
vn -0.4845873 -0.6452745 0.5905895
vn -0.4845873 -0.6452745 0.5905895
vn -0.48458722 -0.6452744 0.5905896
vn -0.48458722 -0.6452744 0.5905896
vn 0.78044665 -0.62385964 -0.041257884
vn 0.78044665 -0.62385964 -0.041257884
vn 0.78044665 -0.62385964 -0.041257884
vn 0.78044665 -0.62385964 -0.041257884
vn -0.6603374 0.71265024 0.23682123
vn -0.6603374 0.71265024 0.23682123
vn -0.6603374 0.71265024 0.23682123
vn -0.6603374 0.71265024 0.23682123
vn -0.6603375 0.7126502 0.23682098
vn -0.6603375 0.7126502 0.23682098
vn -0.5276707 -0.6023025 0.59899515
vn -0.5276707 -0.6023025 0.59899515
vn -0.5276707 -0.6023025 0.59899515
vn -0.5276707 -0.6023025 0.59899515
vn -0.52032095 -0.5987766 0.6088782
vn -0.52032095 -0.5987766 0.6088782
vn 0.43525994 0.4077715 0.8026651
vn 0.43525994 0.4077715 0.8026651
vn 0.43525994 0.4077715 0.8026651
vn 0.43525994 0.4077715 0.8026651
vn -6.282629E-05 0.4193378 -0.9078302
vn -6.282629E-05 0.4193378 -0.9078302
vn -6.282629E-05 0.4193378 -0.9078302
vn -6.282629E-05 0.4193378 -0.9078302
vn -0.69050425 -0.13230607 -0.7111251
vn -0.69050425 -0.13230607 -0.7111251
vn -0.69050425 -0.13230607 -0.7111251
vn -0.69050425 -0.13230607 -0.7111251
vn -0.89482045 0.118035525 0.4305392
vn -0.89482045 0.118035525 0.4305392
vn -0.89482045 0.118035525 0.4305392
vn -0.89482045 0.118035525 0.4305392
vn -0.35982993 0.7624355 0.53778666
vn -0.35982993 0.7624355 0.53778666
vn -0.35982993 0.7624355 0.53778666
vn -0.35982993 0.7624355 0.53778666
vn 0.45402768 0.6874066 -0.56686056
vn 0.45402768 0.6874066 -0.56686056
vn 0.45402768 0.6874066 -0.56686056
vn 0.45402768 0.6874066 -0.56686056
vn 0.43397266 0.6850854 -0.5850861
vn 0.43397266 0.6850854 -0.5850861
vn -0.8303693 0.55164045 -0.07861079
vn -0.8303693 0.55164045 -0.07861079
vn -0.8303693 0.55164045 -0.07861079
vn -0.8303693 0.55164045 -0.07861079
vn 0.4781186 0.6544103 -0.58578986
vn 0.4781186 0.6544103 -0.58578986
vn 0.4781186 0.6544103 -0.58578986
vn 0.4781186 0.6544103 -0.58578986
vn 0.5038033 0.627489 -0.5936664
vn 0.5038033 0.627489 -0.5936664
vn 0.5038033 0.627489 -0.5936664
vn 0.5038033 0.627489 -0.5936664
vn 0.48955756 0.6398773 -0.5923601
vn 0.48955756 0.6398773 -0.5923601
vn 0.49949387 0.625422 -0.59946084
vn 0.47524294 0.6530309 -0.58965653
vn 0.28097162 0.8751052 -0.3940124
vn 0.28097162 0.8751052 -0.3940124
vn 0.28097162 0.8751052 -0.3940124
vn 0.28097162 0.8751052 -0.3940124
vn 0.6291615 0.31855768 -0.708997
vn 0.6291615 0.31855768 -0.708997
vn 0.6291615 0.31855768 -0.708997
vn 0.6291615 0.31855768 -0.708997
vn 0.7841355 0.6188887 -0.045917127
vn 0.7841355 0.6188887 -0.045917127
vn 0.7841355 0.6188887 -0.045917127
vn 0.7841355 0.6188887 -0.045917127
vn 0.67111737 0.74133205 -0.005309314
vn 0.67111737 0.74133205 -0.005309314
vn 0.67111737 0.74133205 -0.005309314
vn 0.67111737 0.74133205 -0.005309314
vn 0.74280566 0.6667499 0.06069888
vn 0.74280566 0.6667499 0.06069888
vn 0.74280566 0.6667499 0.06069888
vn 0.74280566 0.6667499 0.06069888
vn -0.42473146 -0.41666096 -0.80373925
vn -0.42473146 -0.41666096 -0.80373925
vn -0.42473146 -0.41666096 -0.80373925
vn -0.42473146 -0.41666096 -0.80373925
vn -0.5689302 -0.280351 -0.7731247
vn -0.5689302 -0.280351 -0.7731247
vn -0.5689302 -0.280351 -0.7731247
vn -0.5689302 -0.280351 -0.7731247
vn 0.1131716 0.29699826 -0.94814783
vn 0.1131716 0.29699826 -0.94814783
vn 0.1131716 0.29699826 -0.94814783
vn 0.1131716 0.29699826 -0.94814783
vn -0.01043838 0.30538616 -0.9521714
vn -0.01043838 0.30538616 -0.9521714
vn -0.01043838 0.30538616 -0.9521714
vn -0.01043838 0.30538616 -0.9521714
vn 0.69786006 0.12189462 0.70578545
vn 0.69786006 0.12189462 0.70578545
vn 0.69786006 0.12189462 0.70578545
vn 0.69786006 0.12189462 0.70578545
vn 0.5784371 0.2700906 0.76971525
vn 0.5784371 0.2700906 0.76971525
vn 0.5784371 0.2700906 0.76971525
vn 0.5784371 0.2700906 0.76971525
vn -0.43861413 -0.69899476 0.5648221
vn -0.43861413 -0.69899476 0.5648221
vn -0.43861413 -0.69899476 0.5648221
vn -0.43861413 -0.69899476 0.5648221
vn -0.4291033 -0.6944322 0.57761085
vn -0.4291033 -0.6944322 0.57761085
vn -0.4795893 -0.650635 0.5887853
vn -0.4795893 -0.650635 0.5887853
vn -0.4795893 -0.650635 0.5887853
vn -0.4795893 -0.650635 0.5887853
vn -0.47958958 -0.65063494 0.5887853
vn -0.47958958 -0.65063494 0.5887853
vn 0.7419778 0.3726803 -0.55729556
vn 0.7419778 0.3726803 -0.55729556
vn 0.7419778 0.3726803 -0.55729556
vn 0.7419778 0.3726803 -0.55729556
vn 0.16842468 0.821111 -0.5453529
vn 0.16842468 0.821111 -0.5453529
vn 0.16842468 0.821111 -0.5453529
vn 0.16842468 0.821111 -0.5453529
vn -0.7258616 0.15252328 0.6707171
vn -0.7258616 0.15252328 0.6707171
vn -0.7258616 0.15252328 0.6707171
vn -0.7258616 0.15252328 0.6707171
vn -0.7258616 0.15252328 0.6707171
vn -0.7258616 0.15252328 0.6707171
vn 0.50024164 -0.7582861 -0.41804352
vn 0.50024164 -0.7582861 -0.41804352
vn 0.50024164 -0.7582861 -0.41804352
vn 0.50024164 -0.7582861 -0.41804352
g Cube.011_0
f 3/3/3 2/2/2 1/1/1
f 4/4/4 3/3/3 1/1/1
f 7/7/7 6/6/6 5/5/5
f 8/8/8 7/7/7 5/5/5
f 8/8/8 5/5/5 9/9/9
f 10/10/10 8/8/8 9/9/9
f 13/13/13 12/12/12 11/11/11
f 14/14/14 13/13/13 11/11/11
f 17/17/17 16/16/16 15/15/15
f 18/18/18 17/17/17 15/15/15
f 18/18/18 15/15/15 19/19/19
f 20/20/20 18/18/18 19/19/19
f 23/23/23 22/22/22 21/21/21
f 24/24/24 23/23/23 21/21/21
f 27/27/27 26/26/26 25/25/25
f 28/28/28 27/27/27 25/25/25
f 25/25/25 26/26/26 29/29/29
f 26/26/26 30/30/30 29/29/29
f 33/33/33 32/32/32 31/31/31
f 34/34/34 33/33/33 31/31/31
f 34/34/34 31/31/31 35/35/35
f 36/36/36 34/34/34 35/35/35
f 39/39/39 38/38/38 37/37/37
f 40/40/40 39/39/39 37/37/37
f 43/43/43 42/42/42 41/41/41
f 44/44/44 43/43/43 41/41/41
f 47/47/47 46/46/46 45/45/45
f 48/48/48 47/47/47 45/45/45
f 51/51/51 50/50/50 49/49/49
f 52/52/52 51/51/51 49/49/49
f 55/55/55 54/54/54 53/53/53
f 56/56/56 55/55/55 53/53/53
f 59/59/59 58/58/58 57/57/57
f 60/60/60 59/59/59 57/57/57
f 60/60/60 57/57/57 61/61/61
f 62/62/62 60/60/60 61/61/61
f 65/65/65 64/64/64 63/63/63
f 66/66/66 65/65/65 63/63/63
f 69/69/69 68/68/68 67/67/67
f 70/70/70 69/69/69 67/67/67
f 67/67/67 68/68/68 71/71/71
f 68/68/68 72/72/72 71/71/71
f 71/71/71 72/72/72 73/73/73
f 72/72/72 74/74/74 73/73/73
f 67/67/67 71/71/71 75/75/75
f 76/76/76 67/67/67 75/75/75
f 70/70/70 67/67/67 76/76/76
f 71/71/71 73/73/73 77/77/77
f 75/75/75 71/71/71 77/77/77
f 78/78/78 70/70/70 76/76/76
f 81/81/81 80/80/80 79/79/79
f 82/82/82 81/81/81 79/79/79
f 85/85/85 84/84/84 83/83/83
f 86/86/86 85/85/85 83/83/83
f 89/89/89 88/88/88 87/87/87
f 90/90/90 89/89/89 87/87/87
f 93/93/93 92/92/92 91/91/91
f 94/94/94 93/93/93 91/91/91
f 97/97/97 96/96/96 95/95/95
f 98/98/98 97/97/97 95/95/95
f 101/101/101 100/100/100 99/99/99
f 102/102/102 101/101/101 99/99/99
f 105/105/105 104/104/104 103/103/103
f 106/106/106 105/105/105 103/103/103
f 109/109/109 108/108/108 107/107/107
f 110/110/110 109/109/109 107/107/107
f 113/113/113 112/112/112 111/111/111
f 114/114/114 113/113/113 111/111/111
f 117/117/117 116/116/116 115/115/115
f 118/118/118 117/117/117 115/115/115
f 121/121/121 120/120/120 119/119/119
f 122/122/122 121/121/121 119/119/119
f 125/125/125 124/124/124 123/123/123
f 126/126/126 125/125/125 123/123/123
f 126/126/126 123/123/123 127/127/127
f 128/128/128 126/126/126 127/127/127
f 131/131/131 130/130/130 129/129/129
f 132/132/132 131/131/131 129/129/129
f 132/132/132 129/129/129 133/133/133
f 134/134/134 132/132/132 133/133/133
f 137/137/137 136/136/136 135/135/135
f 138/138/138 137/137/137 135/135/135
f 141/141/141 140/140/140 139/139/139
f 142/142/142 141/141/141 139/139/139
f 145/145/145 144/144/144 143/143/143
f 148/148/148 147/147/147 146/146/146
f 151/151/151 150/150/150 149/149/149
f 152/152/152 151/151/151 149/149/149
