g Cube.014
v 0.02947765 0.01927193 -0.01957462
v 0.022080211 0.020715367 0.013228191
v 0.025415054 0.015134954 0.012447493
v 0.032488752 0.014233248 -0.020279529
v -0.008935764 -0.0013819196 0.03650758
v -0.01566253 -0.0047962605 0.04121425
v -0.011495484 -0.0117692575 0.040238738
v -0.0049074194 -0.008122821 0.03556453
v -0.003081614 0.003707618 0.031885564
v 0.0008080286 -0.0028011866 0.030974988
v 0.0036451507 0.007121957 0.027178895
v 0.0073960926 0.00084524904 0.026300784
v 0.0094993 0.012211494 0.022556879
v 0.013111541 0.0061668823 0.021711241
v 0.016226066 0.01562583 0.017850205
v 0.0192633 0.010650918 0.017079366
v 0.022080211 0.020715367 0.013228191
v 0.025415054 0.015134954 0.012447493
v -0.028538017 -0.020844277 0.019354649
v -0.0388526 -0.014875154 -0.00796392
v -0.034685552 -0.021848151 -0.0089394385
v -0.025526911 -0.025882961 0.01864974
v -0.0075326315 0.004491094 -0.026209762
v -0.0017922082 0.009369465 -0.029808138
v 0.001542634 0.0037890496 -0.030588834
v -0.0044953967 -0.00048381762 -0.026980601
v -0.014145672 0.0012879239 -0.022526728
v -0.010533428 -0.0047566844 -0.023372373
v -0.019886097 -0.0035904446 -0.018928356
v -0.016135152 -0.00986715 -0.019806467
v -0.026499137 -0.006793616 -0.015245324
v -0.022609493 -0.0133024175 -0.016155904
v -0.032239564 -0.011671984 -0.01164695
v -0.028211214 -0.018412884 -0.012589998
v -0.0388526 -0.014875154 -0.00796392
v -0.034685552 -0.021848151 -0.0089394385
v -0.01843243 -0.014995841 0.012824111
v -0.032239564 -0.011671984 -0.01164695
v -0.0388526 -0.014875154 -0.00796392
v -0.028538017 -0.020844277 0.019354649
v 0.022819472 0.007547213 -0.013791316
v -0.0044953967 -0.00048381762 -0.026980601
v 0.001542634 0.0037890496 -0.030588834
v 0.032488752 0.014233248 -0.020279529
v 0.013150196 0.00086117815 -0.0073031047
v -0.010533428 -0.0047566844 -0.023372373
v 0.0192633 0.010650918 0.017079366
v 0.022819472 0.007547213 -0.013791316
v 0.032488752 0.014233248 -0.020279529
v 0.025415054 0.015134954 0.012447493
v 0.013111541 0.0061668823 0.021711241
v 0.013150196 0.00086117815 -0.0073031047
v -0.008935764 -0.0013819196 0.03650758
v -0.01843243 -0.014995841 0.012824111
v -0.028538017 -0.020844277 0.019354649
v -0.01566253 -0.0047962605 0.04121425
v -0.01566253 -0.0047962605 0.04121425
v -0.028538017 -0.020844277 0.019354649
v -0.025526911 -0.025882961 0.01864974
v -0.011495484 -0.0117692575 0.040238738
v -0.0017922082 0.009369465 -0.029808138
v 0.02947765 0.01927193 -0.01957462
v 0.032488752 0.014233248 -0.020279529
v 0.001542634 0.0037890496 -0.030588834
v 0.022080211 0.020715367 0.013228191
v 0.02947765 0.01927193 -0.01957462
v 0.020244678 0.011748297 -0.013128734
v 0.016226066 0.01562583 0.017850205
v 0.016226066 0.01562583 0.017850205
v 0.020244678 0.011748297 -0.013128734
v 0.010139095 0.00589986 -0.006598198
v 0.0094993 0.012211494 0.022556879
v 0.0094993 0.012211494 0.022556879
v 0.010139095 0.00589986 -0.006598198
v 0.0009061253 -0.0016237732 -0.0001523133
v 0.0036451507 0.007121957 0.027178895
v 0.0036451507 0.007121957 0.027178895
v 0.0009061253 -0.0016237732 -0.0001523133
v -0.00919946 -0.007472209 0.006378225
v -0.003081614 0.003707618 0.031885564
v -0.003081614 0.003707618 0.031885564
v -0.00919946 -0.007472209 0.006378225
v -0.01843243 -0.014995841 0.012824111
v -0.008935764 -0.0013819196 0.03650758
v -0.011495484 -0.0117692575 0.040238738
v -0.025526911 -0.025882961 0.01864974
v -0.015421328 -0.020034526 0.012119202
v -0.0049074194 -0.008122821 0.03556453
v -0.0049074194 -0.008122821 0.03556453
v -0.015421328 -0.020034526 0.012119202
v -0.0061883586 -0.012510892 0.0056733177
v 0.0008080286 -0.0028011866 0.030974988
v 0.0008080286 -0.0028011866 0.030974988
v -0.0061883586 -0.012510892 0.0056733177
v 0.003917227 -0.006662456 -0.000857221
v 0.0073960926 0.00084524904 0.026300784
v 0.0073960926 0.00084524904 0.026300784
v 0.003917227 -0.006662456 -0.000857221
v 0.013150196 0.00086117815 -0.0073031047
v 0.013111541 0.0061668823 0.021711241
v -0.025526911 -0.025882961 0.01864974
v -0.034685552 -0.021848151 -0.0089394385
v -0.028211214 -0.018412884 -0.012589998
v -0.015421328 -0.020034526 0.012119202
v -0.015421328 -0.020034526 0.012119202
v -0.028211214 -0.018412884 -0.012589998
v -0.022609493 -0.0133024175 -0.016155904
v -0.0061883586 -0.012510892 0.0056733177
v -0.0061883586 -0.012510892 0.0056733177
v -0.022609493 -0.0133024175 -0.016155904
v -0.016135152 -0.00986715 -0.019806467
v 0.003917227 -0.006662456 -0.000857221
v 0.003917227 -0.006662456 -0.000857221
v -0.016135152 -0.00986715 -0.019806467
v -0.010533428 -0.0047566844 -0.023372373
v 0.013150196 0.00086117815 -0.0073031047
v 0.02947765 0.01927193 -0.01957462
v -0.0017922082 0.009369465 -0.029808138
v -0.0075326315 0.004491094 -0.026209762
v 0.020244678 0.011748297 -0.013128734
v 0.020244678 0.011748297 -0.013128734
v -0.0075326315 0.004491094 -0.026209762
v -0.014145672 0.0012879239 -0.022526728
v 0.010139095 0.00589986 -0.006598198
v 0.010139095 0.00589986 -0.006598198
v -0.014145672 0.0012879239 -0.022526728
v -0.019886097 -0.0035904446 -0.018928356
v 0.0009061253 -0.0016237732 -0.0001523133
v 0.0009061253 -0.0016237732 -0.0001523133
v -0.019886097 -0.0035904446 -0.018928356
v -0.026499137 -0.006793616 -0.015245324
v -0.00919946 -0.007472209 0.006378225
v -0.00919946 -0.007472209 0.006378225
v -0.026499137 -0.006793616 -0.015245324
v -0.032239564 -0.011671984 -0.01164695
v -0.01843243 -0.014995841 0.012824111
v 0.09960702 0.006189458 0.107889324
v 0.07813025 0.0176219 0.13114609
v 0.07944594 0.011448708 0.13288745
v 0.100795 0.0006155446 0.10946163
v 0.03453799 0.009485751 0.13621844
v 0.025688907 0.008930634 0.1368858
v 0.027332937 0.0012169278 0.13906173
v 0.036127288 0.0020287996 0.1383219
v 0.04316935 0.011827721 0.13497257
v 0.044703934 0.004627523 0.13700363
v 0.05201843 0.012382839 0.1343052
v 0.053498294 0.005439393 0.13626385
v 0.060649794 0.01472481 0.13305932
v 0.062074937 0.008038115 0.13494554
v 0.06949888 0.015279928 0.13239197
v 0.07076044 0.009743413 0.13391648
v 0.07813025 0.0176219 0.13114609
v 0.07944594 0.011448708 0.13288745
v 0.02069401 -0.009077013 0.1133925
v 0.027449965 -0.008309692 0.08437366
v 0.029093994 -0.016023394 0.086549565
v 0.021881983 -0.014650924 0.11496481
v 0.06797748 -0.0015087686 0.083960935
v 0.07595234 0.00092353113 0.08353129
v 0.07726804 -0.0052496623 0.08527265
v 0.069239035 -0.007045286 0.08548547
v 0.059784878 -0.0021542103 0.08381208
v 0.061210025 -0.008840908 0.08569829
v 0.051810015 -0.0045865113 0.084241726
v 0.05328988 -0.011529958 0.08620035
v 0.04361742 -0.005231953 0.08409286
v 0.045152005 -0.012432151 0.08612393
v 0.03564255 -0.0076642497 0.084522516
v 0.037231855 -0.015121202 0.086626
v 0.027449965 -0.008309692 0.08437366
v 0.029093994 -0.016023394 0.086549565
v 0.033955038 -0.007426028 0.11276456
v 0.03564255 -0.0076642497 0.084522516
v 0.027449965 -0.008309692 0.08437366
v 0.02069401 -0.009077013 0.1133925
v 0.08764282 -0.0019288659 0.11037883
v 0.069239035 -0.007045286 0.08548547
v 0.07726804 -0.0052496623 0.08527265
v 0.100795 0.0006155446 0.10946163
v 0.07449065 -0.0044732783 0.11129604
v 0.061210025 -0.008840908 0.08569829
v 0.07076044 0.009743413 0.13391648
v 0.08764282 -0.0019288659 0.11037883
v 0.100795 0.0006155446 0.10946163
v 0.07944594 0.011448708 0.13288745
v 0.062074937 0.008038115 0.13494554
v 0.07449065 -0.0044732783 0.11129604
v 0.03453799 0.009485751 0.13621844
v 0.033955038 -0.007426028 0.11276456
v 0.02069401 -0.009077013 0.1133925
v 0.025688907 0.008930634 0.1368858
v 0.025688907 0.008930634 0.1368858
v 0.02069401 -0.009077013 0.1133925
v 0.021881983 -0.014650924 0.11496481
v 0.027332937 0.0012169278 0.13906173
v 0.07595234 0.00092353113 0.08353129
v 0.09960702 0.006189458 0.107889324
v 0.100795 0.0006155446 0.10946163
v 0.07726804 -0.0052496623 0.08527265
v 0.07813025 0.0176219 0.13114609
v 0.09960702 0.006189458 0.107889324
v 0.08656371 0.0027516203 0.10909578
v 0.06949888 0.015279928 0.13239197
v 0.06949888 0.015279928 0.13239197
v 0.08656371 0.0027516203 0.10909578
v 0.073302686 0.0011006333 0.10972372
v 0.060649794 0.01472481 0.13305932
v 0.060649794 0.01472481 0.13305932
v 0.073302686 0.0011006333 0.10972372
v 0.060259376 -0.002337204 0.11093017
v 0.05201843 0.012382839 0.1343052
v 0.05201843 0.012382839 0.1343052
v 0.060259376 -0.002337204 0.11093017
v 0.04699834 -0.0039881887 0.11155811
v 0.04316935 0.011827721 0.13497257
v 0.04316935 0.011827721 0.13497257
v 0.04699834 -0.0039881887 0.11155811
v 0.033955038 -0.007426028 0.11276456
v 0.03453799 0.009485751 0.13621844
v 0.027332937 0.0012169278 0.13906173
v 0.021881983 -0.014650924 0.11496481
v 0.03514301 -0.012999941 0.11433688
v 0.036127288 0.0020287996 0.1383219
v 0.036127288 0.0020287996 0.1383219
v 0.03514301 -0.012999941 0.11433688
v 0.048186317 -0.009562103 0.11313041
v 0.044703934 0.004627523 0.13700363
v 0.044703934 0.004627523 0.13700363
v 0.048186317 -0.009562103 0.11313041
v 0.061447352 -0.007911119 0.11250248
v 0.053498294 0.005439393 0.13626385
v 0.053498294 0.005439393 0.13626385
v 0.061447352 -0.007911119 0.11250248
v 0.07449065 -0.0044732783 0.11129604
v 0.062074937 0.008038115 0.13494554
v 0.021881983 -0.014650924 0.11496481
v 0.029093994 -0.016023394 0.086549565
v 0.037231855 -0.015121202 0.086626
v 0.03514301 -0.012999941 0.11433688
v 0.03514301 -0.012999941 0.11433688
v 0.037231855 -0.015121202 0.086626
v 0.045152005 -0.012432151 0.08612393
v 0.048186317 -0.009562103 0.11313041
v 0.048186317 -0.009562103 0.11313041
v 0.045152005 -0.012432151 0.08612393
v 0.05328988 -0.011529958 0.08620035
v 0.061447352 -0.007911119 0.11250248
v 0.061447352 -0.007911119 0.11250248
v 0.05328988 -0.011529958 0.08620035
v 0.061210025 -0.008840908 0.08569829
v 0.07449065 -0.0044732783 0.11129604
v 0.09960702 0.006189458 0.107889324
v 0.07595234 0.00092353113 0.08353129
v 0.06797748 -0.0015087686 0.083960935
v 0.08656371 0.0027516203 0.10909578
v 0.08656371 0.0027516203 0.10909578
v 0.06797748 -0.0015087686 0.083960935
v 0.059784878 -0.0021542103 0.08381208
v 0.073302686 0.0011006333 0.10972372
v 0.073302686 0.0011006333 0.10972372
v 0.059784878 -0.0021542103 0.08381208
v 0.051810015 -0.0045865113 0.084241726
v 0.060259376 -0.002337204 0.11093017
v 0.060259376 -0.002337204 0.11093017
v 0.051810015 -0.0045865113 0.084241726
v 0.04361742 -0.005231953 0.08409286
v 0.04699834 -0.0039881887 0.11155811
v 0.04699834 -0.0039881887 0.11155811
v 0.04361742 -0.005231953 0.08409286
v 0.03564255 -0.0076642497 0.084522516
v 0.033955038 -0.007426028 0.11276456
v 0.04778435 -0.0105226785 0.10792977
v 0.053493194 0.0028032686 0.13830507
v 0.055327408 -0.003463542 0.13878922
v 0.04944051 -0.016181124 0.10836694
v 0.030203054 -0.0013614043 0.17615259
v 0.025251571 -0.0011148088 0.18353376
v 0.027543506 -0.008945492 0.18413873
v 0.032418706 -0.008931442 0.17673744
v 0.034665436 0.00019121543 0.16845754
v 0.036804803 -0.007118178 0.16902225
v 0.039616928 -5.537545E-05 0.16107637
v 0.04168 -0.007104127 0.16162091
v 0.044079322 0.001497247 0.1533813
v 0.046066113 -0.0052908594 0.15390575
v 0.049030803 0.0012506461 0.14600012
v 0.050696753 -0.004377202 0.14634748
v 0.053493194 0.0028032686 0.13830507
v 0.055327408 -0.003463542 0.13878922
v 0.0027005177 -0.018597566 0.1742084
v -0.015916334 -0.018443733 0.15093364
v -0.013624393 -0.026274418 0.15153861
v 0.0043566627 -0.024256011 0.17464556
v 0.00907717 -0.015331955 0.11845989
v 0.013782414 -0.013630069 0.111776814
v 0.015616634 -0.019896878 0.112260975
v 0.010743128 -0.020959804 0.118807256
v 0.0038828342 -0.015234622 0.124829076
v 0.0058696233 -0.022022724 0.12535353
v -0.0008224173 -0.016936513 0.13151217
v 0.0012406658 -0.023985257 0.13205674
v -0.006016746 -0.016839178 0.13788137
v -0.0038773871 -0.024148574 0.13844606
v -0.010721995 -0.018541068 0.14456442
v -0.008506345 -0.026111104 0.14514929
v -0.015916334 -0.018443733 0.15093364
v -0.013624393 -0.026274418 0.15153861
v 0.010459033 -0.018151363 0.1633189
v -0.010721995 -0.018541068 0.14456442
v -0.015916334 -0.018443733 0.15093364
v 0.0027005177 -0.018597566 0.1742084
v 0.04192653 -0.017526938 0.11941336
v 0.010743128 -0.020959804 0.118807256
v 0.015616634 -0.019896878 0.112260975
v 0.04944051 -0.016181124 0.10836694
v 0.034412563 -0.01887275 0.13045982
v 0.0058696233 -0.022022724 0.12535353
v 0.050696753 -0.004377202 0.14634748
v 0.04192653 -0.017526938 0.11941336
v 0.04944051 -0.016181124 0.10836694
v 0.055327408 -0.003463542 0.13878922
v 0.046066113 -0.0052908594 0.15390575
v 0.034412563 -0.01887275 0.13045982
v 0.030203054 -0.0013614043 0.17615259
v 0.010459033 -0.018151363 0.1633189
v 0.0027005177 -0.018597566 0.1742084
v 0.025251571 -0.0011148088 0.18353376
v 0.025251571 -0.0011148088 0.18353376
v 0.0027005177 -0.018597566 0.1742084
v 0.0043566627 -0.024256011 0.17464556
v 0.027543506 -0.008945492 0.18413873
v 0.013782414 -0.013630069 0.111776814
v 0.04778435 -0.0105226785 0.10792977
v 0.04944051 -0.016181124 0.10836694
v 0.015616634 -0.019896878 0.112260975
v 0.053493194 0.0028032686 0.13830507
v 0.04778435 -0.0105226785 0.10792977
v 0.04051492 -0.012768104 0.119133145
v 0.049030803 0.0012506461 0.14600012
v 0.049030803 0.0012506461 0.14600012
v 0.04051492 -0.012768104 0.119133145
v 0.032756407 -0.013214309 0.13002263
v 0.044079322 0.001497247 0.1533813
v 0.044079322 0.001497247 0.1533813
v 0.032756407 -0.013214309 0.13002263
v 0.025486981 -0.01545973 0.14122602
v 0.039616928 -5.537545E-05 0.16107637
v 0.039616928 -5.537545E-05 0.16107637
v 0.025486981 -0.01545973 0.14122602
v 0.017728461 -0.015905937 0.15211552
v 0.034665436 0.00019121543 0.16845754
v 0.034665436 0.00019121543 0.16845754
v 0.017728461 -0.015905937 0.15211552
v 0.010459033 -0.018151363 0.1633189
v 0.030203054 -0.0013614043 0.17615259
v 0.027543506 -0.008945492 0.18413873
v 0.0043566627 -0.024256011 0.17464556
v 0.012115186 -0.02380981 0.16375606
v 0.032418706 -0.008931442 0.17673744
v 0.032418706 -0.008931442 0.17673744
v 0.012115186 -0.02380981 0.16375606
v 0.019384619 -0.021564381 0.1525527
v 0.036804803 -0.007118178 0.16902225
v 0.036804803 -0.007118178 0.16902225
v 0.019384619 -0.021564381 0.1525527
v 0.027143132 -0.021118175 0.14166318
v 0.04168 -0.007104127 0.16162091
v 0.04168 -0.007104127 0.16162091
v 0.027143132 -0.021118175 0.14166318
v 0.034412563 -0.01887275 0.13045982
v 0.046066113 -0.0052908594 0.15390575
v 0.0043566627 -0.024256011 0.17464556
v -0.013624393 -0.026274418 0.15153861
v -0.008506345 -0.026111104 0.14514929
v 0.012115186 -0.02380981 0.16375606
v 0.012115186 -0.02380981 0.16375606
v -0.008506345 -0.026111104 0.14514929
v -0.0038773871 -0.024148574 0.13844606
v 0.019384619 -0.021564381 0.1525527
v 0.019384619 -0.021564381 0.1525527
v -0.0038773871 -0.024148574 0.13844606
v 0.0012406658 -0.023985257 0.13205674
v 0.027143132 -0.021118175 0.14166318
v 0.027143132 -0.021118175 0.14166318
v 0.0012406658 -0.023985257 0.13205674
v 0.0058696233 -0.022022724 0.12535353
v 0.034412563 -0.01887275 0.13045982
v 0.04778435 -0.0105226785 0.10792977
v 0.013782414 -0.013630069 0.111776814
v 0.00907717 -0.015331955 0.11845989
v 0.04051492 -0.012768104 0.119133145
v 0.04051492 -0.012768104 0.119133145
v 0.00907717 -0.015331955 0.11845989
v 0.0038828342 -0.015234622 0.124829076
v 0.032756407 -0.013214309 0.13002263
v 0.032756407 -0.013214309 0.13002263
v 0.0038828342 -0.015234622 0.124829076
v -0.0008224173 -0.016936513 0.13151217
v 0.025486981 -0.01545973 0.14122602
v 0.025486981 -0.01545973 0.14122602
v -0.0008224173 -0.016936513 0.13151217
v -0.006016746 -0.016839178 0.13788137
v 0.017728461 -0.015905937 0.15211552
v 0.017728461 -0.015905937 0.15211552
v -0.006016746 -0.016839178 0.13788137
v -0.010721995 -0.018541068 0.14456442
v 0.010459033 -0.018151363 0.1633189
v 0.060031705 0.008554787 0.0476241
v 0.033650618 0.005384122 0.0682836
v 0.036017492 -0.0006767921 0.06755224
v 0.062168803 0.0030822512 0.046963733
v -0.0074401214 -0.009942265 0.059985187
v -0.01596864 -0.011921805 0.058434162
v -0.013011113 -0.01949521 0.05752028
v -0.0045810393 -0.017263591 0.059101723
v 0.00057111593 -0.0061531602 0.061717313
v 0.003331755 -0.013222403 0.060864262
v 0.00909963 -0.004173625 0.06326834
v 0.011761827 -0.010990785 0.06244571
v 0.017110867 -0.000384519 0.06500046
v 0.019674622 -0.006949598 0.06420825
v 0.025639385 0.0015950178 0.06655149
v 0.027846059 -0.0038131955 0.06588024
v 0.033650618 0.005384122 0.0682836
v 0.036017492 -0.0006767921 0.06755224
v -0.013739046 -0.018021576 0.029125785
v -0.0034430842 -0.0034663884 0.005241376
v -0.00048556036 -0.0110397935 0.0043274965
v -0.01160194 -0.023494111 0.028465418
v 0.034340814 0.008184565 0.016445583
v 0.041587226 0.011600499 0.018795084
v 0.043954104 0.005539582 0.018063717
v 0.036547493 0.0027763536 0.015774343
v 0.026577124 0.006578203 0.014277179
v 0.029140882 1.312606E-05 0.013484972
v 0.01933071 0.003162269 0.011927683
v 0.021992909 -0.0036548905 0.011105058
v 0.011567018 0.0015559064 0.009759275
v 0.014327659 -0.0055133346 0.008906232
v 0.0043206057 -0.001860025 0.00740978
v 0.007179687 -0.009181349 0.006526316
v -0.0034430842 -0.0034663884 0.005241376
v -0.00048556036 -0.0110397935 0.0043274965
v -0.0011852812 -0.014496967 0.032118294
v 0.0043206057 -0.001860025 0.00740978
v -0.0034430842 -0.0034663884 0.005241376
v -0.013739046 -0.018021576 0.029125785
v 0.04987368 -0.0013471412 0.043880686
v 0.036547493 0.0027763536 0.015774343
v 0.043954104 0.005539582 0.018063717
v 0.062168803 0.0030822512 0.046963733
v 0.037578553 -0.0057765357 0.04079763
v 0.029140882 1.312606E-05 0.013484972
v 0.027846059 -0.0038131955 0.06588024
v 0.04987368 -0.0013471412 0.043880686
v 0.062168803 0.0030822512 0.046963733
v 0.036017492 -0.0006767921 0.06755224
v 0.019674622 -0.006949598 0.06420825
v 0.037578553 -0.0057765357 0.04079763
v -0.0074401214 -0.009942265 0.059985187
v -0.0011852812 -0.014496967 0.032118294
v -0.013739046 -0.018021576 0.029125785
v -0.01596864 -0.011921805 0.058434162
v -0.01596864 -0.011921805 0.058434162
v -0.013739046 -0.018021576 0.029125785
v -0.01160194 -0.023494111 0.028465418
v -0.013011113 -0.01949521 0.05752028
v 0.041587226 0.011600499 0.018795084
v 0.060031705 0.008554787 0.0476241
v 0.062168803 0.0030822512 0.046963733
v 0.043954104 0.005539582 0.018063717
v 0.033650618 0.005384122 0.0682836
v 0.060031705 0.008554787 0.0476241
v 0.047995217 0.0032206103 0.044450507
v 0.025639385 0.0015950178 0.06655149
v 0.025639385 0.0015950178 0.06655149
v 0.047995217 0.0032206103 0.044450507
v 0.035441454 -0.0003039986 0.041457996
v 0.017110867 -0.000384519 0.06500046
v 0.017110867 -0.000384519 0.06500046
v 0.035441454 -0.0003039986 0.041457996
v 0.023404967 -0.005638179 0.0382844
v 0.00909963 -0.004173625 0.06326834
v 0.00909963 -0.004173625 0.06326834
v 0.023404967 -0.005638179 0.0382844
v 0.010851206 -0.009162787 0.03529189
v 0.00057111593 -0.0061531602 0.061717313
v 0.00057111593 -0.0061531602 0.061717313
v 0.010851206 -0.009162787 0.03529189
v -0.0011852812 -0.014496967 0.032118294
v -0.0074401214 -0.009942265 0.059985187
v -0.013011113 -0.01949521 0.05752028
v -0.01160194 -0.023494111 0.028465418
v 0.0009518219 -0.019969502 0.031457923
v -0.0045810393 -0.017263591 0.059101723
v -0.0045810393 -0.017263591 0.059101723
v 0.0009518219 -0.019969502 0.031457923
v 0.012988306 -0.0146353245 0.034631517
v 0.003331755 -0.013222403 0.060864262
v 0.003331755 -0.013222403 0.060864262
v 0.012988306 -0.0146353245 0.034631517
v 0.025542067 -0.011110715 0.037624028
v 0.011761827 -0.010990785 0.06244571
v 0.011761827 -0.010990785 0.06244571
v 0.025542067 -0.011110715 0.037624028
v 0.037578553 -0.0057765357 0.04079763
v 0.019674622 -0.006949598 0.06420825
v -0.01160194 -0.023494111 0.028465418
v -0.00048556036 -0.0110397935 0.0043274965
v 0.007179687 -0.009181349 0.006526316
v 0.0009518219 -0.019969502 0.031457923
v 0.0009518219 -0.019969502 0.031457923
v 0.007179687 -0.009181349 0.006526316
v 0.014327659 -0.0055133346 0.008906232
v 0.012988306 -0.0146353245 0.034631517
v 0.012988306 -0.0146353245 0.034631517
v 0.014327659 -0.0055133346 0.008906232
v 0.021992909 -0.0036548905 0.011105058
v 0.025542067 -0.011110715 0.037624028
v 0.025542067 -0.011110715 0.037624028
v 0.021992909 -0.0036548905 0.011105058
v 0.029140882 1.312606E-05 0.013484972
v 0.037578553 -0.0057765357 0.04079763
v 0.060031705 0.008554787 0.0476241
v 0.041587226 0.011600499 0.018795084
v 0.034340814 0.008184565 0.016445583
v 0.047995217 0.0032206103 0.044450507
v 0.047995217 0.0032206103 0.044450507
v 0.034340814 0.008184565 0.016445583
v 0.026577124 0.006578203 0.014277179
v 0.035441454 -0.0003039986 0.041457996
v 0.035441454 -0.0003039986 0.041457996
v 0.026577124 0.006578203 0.014277179
v 0.01933071 0.003162269 0.011927683
v 0.023404967 -0.005638179 0.0382844
v 0.023404967 -0.005638179 0.0382844
v 0.01933071 0.003162269 0.011927683
v 0.011567018 0.0015559064 0.009759275
v 0.010851206 -0.009162787 0.03529189
v 0.010851206 -0.009162787 0.03529189
v 0.011567018 0.0015559064 0.009759275
v 0.0043206057 -0.001860025 0.00740978
v -0.0011852812 -0.014496967 0.032118294
v 0.06227513 -0.013725585 0.10461212
v 0.029218828 -0.0075639556 0.1060766
v 0.02978009 -0.014082249 0.10633835
v 0.06278191 -0.019611103 0.10484846
v -0.0020437462 -0.011785352 0.074500635
v -0.008296262 -0.011495185 0.06818544
v -0.007594931 -0.01964011 0.06851252
v -0.0013657624 -0.01965917 0.07481682
v 0.0042087673 -0.010184778 0.08081583
v 0.004863409 -0.01778749 0.08112113
v 0.010461281 -0.010474941 0.08713101
v 0.011092575 -0.017806552 0.08742544
v 0.016713796 -0.008874369 0.09344622
v 0.01732175 -0.01593487 0.09372975
v 0.022966318 -0.009164533 0.09976142
v 0.02355092 -0.0150085585 0.10003404
v 0.029218828 -0.0075639556 0.1060766
v 0.02978009 -0.014082249 0.10633835
v 0.008465757 -0.020750148 0.045065325
v 0.03410278 -0.011924255 0.032689054
v 0.034804106 -0.020069178 0.033016134
v 0.008972539 -0.02663566 0.045301676
v 0.060130127 -0.010037488 0.06443679
v 0.065335594 -0.008525686 0.07078635
v 0.06589686 -0.01504398 0.07104811
v 0.060714733 -0.015881516 0.064709455
v 0.05492466 -0.009658543 0.058087252
v 0.055532612 -0.016719045 0.058370784
v 0.04971919 -0.011170344 0.051737703
v 0.050350484 -0.01850195 0.05203212
v 0.044513717 -0.0107914 0.045388155
v 0.04516836 -0.018394113 0.045693457
v 0.03930825 -0.012303199 0.039038602
v 0.03998623 -0.020177018 0.039354794
v 0.03410278 -0.011924255 0.032689054
v 0.034804106 -0.020069178 0.033016134
v 0.017433988 -0.020524759 0.05498979
v 0.03930825 -0.012303199 0.039038602
v 0.03410278 -0.011924255 0.032689054
v 0.008465757 -0.020750148 0.045065325
v 0.053813677 -0.02078186 0.09492399
v 0.060714733 -0.015881516 0.064709455
v 0.06589686 -0.01504398 0.07104811
v 0.06278191 -0.019611103 0.10484846
v 0.044845447 -0.021952622 0.08499953
v 0.055532612 -0.016719045 0.058370784
v 0.02355092 -0.0150085585 0.10003404
v 0.053813677 -0.02078186 0.09492399
v 0.06278191 -0.019611103 0.10484846
v 0.02978009 -0.014082249 0.10633835
v 0.01732175 -0.01593487 0.09372975
v 0.044845447 -0.021952622 0.08499953
v -0.0020437462 -0.011785352 0.074500635
v 0.017433988 -0.020524759 0.05498979
v 0.008465757 -0.020750148 0.045065325
v -0.008296262 -0.011495185 0.06818544
v -0.008296262 -0.011495185 0.06818544
v 0.008465757 -0.020750148 0.045065325
v 0.008972539 -0.02663566 0.045301676
v -0.007594931 -0.01964011 0.06851252
v 0.065335594 -0.008525686 0.07078635
v 0.06227513 -0.013725585 0.10461212
v 0.06278191 -0.019611103 0.10484846
v 0.06589686 -0.01504398 0.07104811
v 0.029218828 -0.0075639556 0.1060766
v 0.06227513 -0.013725585 0.10461212
v 0.053306904 -0.01584172 0.09468765
v 0.022966318 -0.009164533 0.09976142
v 0.022966318 -0.009164533 0.09976142
v 0.053306904 -0.01584172 0.09468765
v 0.044338673 -0.016067108 0.08476319
v 0.016713796 -0.008874369 0.09344622
v 0.016713796 -0.008874369 0.09344622
v 0.044338673 -0.016067108 0.08476319
v 0.035370447 -0.018183239 0.07483873
v 0.010461281 -0.010474941 0.08713101
v 0.010461281 -0.010474941 0.08713101
v 0.035370447 -0.018183239 0.07483873
v 0.026402218 -0.018408628 0.064914264
v 0.0042087673 -0.010184778 0.08081583
v 0.0042087673 -0.010184778 0.08081583
v 0.026402218 -0.018408628 0.064914264
v 0.017433988 -0.020524759 0.05498979
v -0.0020437462 -0.011785352 0.074500635
v -0.007594931 -0.01964011 0.06851252
v 0.008972539 -0.02663566 0.045301676
v 0.017940763 -0.026410274 0.05522613
v -0.0013657624 -0.01965917 0.07481682
v -0.0013657624 -0.01965917 0.07481682
v 0.017940763 -0.026410274 0.05522613
v 0.026908994 -0.024294142 0.065150596
v 0.004863409 -0.01778749 0.08112113
v 0.004863409 -0.01778749 0.08112113
v 0.026908994 -0.024294142 0.065150596
v 0.03587722 -0.024068752 0.07507507
v 0.011092575 -0.017806552 0.08742544
v 0.011092575 -0.017806552 0.08742544
v 0.03587722 -0.024068752 0.07507507
v 0.044845447 -0.021952622 0.08499953
v 0.01732175 -0.01593487 0.09372975
v 0.008972539 -0.02663566 0.045301676
v 0.034804106 -0.020069178 0.033016134
v 0.03998623 -0.020177018 0.039354794
v 0.017940763 -0.026410274 0.05522613
v 0.017940763 -0.026410274 0.05522613
v 0.03998623 -0.020177018 0.039354794
v 0.04516836 -0.018394113 0.045693457
v 0.026908994 -0.024294142 0.065150596
v 0.026908994 -0.024294142 0.065150596
v 0.04516836 -0.018394113 0.045693457
v 0.050350484 -0.01850195 0.05203212
v 0.03587722 -0.024068752 0.07507507
v 0.03587722 -0.024068752 0.07507507
v 0.050350484 -0.01850195 0.05203212
v 0.055532612 -0.016719045 0.058370784
v 0.044845447 -0.021952622 0.08499953
v 0.06227513 -0.013725585 0.10461212
v 0.065335594 -0.008525686 0.07078635
v 0.060130127 -0.010037488 0.06443679
v 0.053306904 -0.01584172 0.09468765
v 0.053306904 -0.01584172 0.09468765
v 0.060130127 -0.010037488 0.06443679
v 0.05492466 -0.009658543 0.058087252
v 0.044338673 -0.016067108 0.08476319
v 0.044338673 -0.016067108 0.08476319
v 0.05492466 -0.009658543 0.058087252
v 0.04971919 -0.011170344 0.051737703
v 0.035370447 -0.018183239 0.07483873
v 0.035370447 -0.018183239 0.07483873
v 0.04971919 -0.011170344 0.051737703
v 0.044513717 -0.0107914 0.045388155
v 0.026402218 -0.018408628 0.064914264
v 0.026402218 -0.018408628 0.064914264
v 0.044513717 -0.0107914 0.045388155
v 0.03930825 -0.012303199 0.039038602
v 0.017433988 -0.020524759 0.05498979
vn -0.8560551 -0.48757 -0.17159618
vn -0.8560551 -0.48757 -0.17159618
vn -0.8560551 -0.48757 -0.17159618
vn -0.8560551 -0.48757 -0.17159618
vn -0.50061953 -0.18073146 -0.84659094
vn -0.50061953 -0.18073146 -0.84659094
vn -0.50061953 -0.18073146 -0.84659094
vn -0.50061953 -0.18073146 -0.84659094
vn -0.50061935 -0.18073052 -0.8465913
vn -0.50061935 -0.18073052 -0.8465913
vn -0.50546557 -0.18413356 -0.8429706
vn -0.50546557 -0.18413356 -0.8429706
vn -0.50298005 -0.17949025 -0.8454551
vn -0.50298005 -0.17949025 -0.8454551
vn -0.5056229 -0.18124926 -0.84350115
vn -0.5056229 -0.18124926 -0.84350115
vn -0.5056229 -0.18124926 -0.84350115
vn -0.5056229 -0.18124926 -0.84350115
vn 0.8288102 0.523084 -0.19863696
vn 0.8288102 0.523084 -0.19863696
vn 0.8288102 0.523084 -0.19863696
vn 0.8288102 0.523084 -0.19863696
vn 0.43905225 0.13447046 0.8883416
vn 0.43905225 0.13447046 0.8883416
vn 0.43905225 0.13447046 0.8883416
vn 0.43905225 0.13447046 0.8883416
vn 0.43906245 0.13818386 0.88776654
vn 0.43906245 0.13818386 0.88776654
vn 0.4320949 0.1334422 0.8919009
vn 0.4320949 0.1334422 0.8919009
vn 0.4390622 0.1381843 0.8877666
vn 0.4390622 0.1381843 0.8877666
vn 0.4320947 0.13344239 0.891901
vn 0.4320947 0.13344239 0.891901
vn 0.4320947 0.13344239 0.891901
vn 0.4320947 0.13344239 0.891901
vn 0.30359775 -0.90318054 -0.30346873
vn 0.30359775 -0.90318054 -0.30346873
vn 0.30359775 -0.90318054 -0.30346873
vn 0.30359775 -0.90318054 -0.30346873
vn -0.3995842 0.86145884 0.31340256
vn -0.3995842 0.86145884 0.31340256
vn -0.3995842 0.86145884 0.31340256
vn -0.3995842 0.86145884 0.31340256
vn -0.40545785 0.8618429 0.3046815
vn -0.40545785 0.8618429 0.3046815
vn -0.6399595 0.7527423 -0.15437244
vn -0.6399595 0.7527423 -0.15437244
vn -0.6399595 0.7527423 -0.15437244
vn -0.6399595 0.7527423 -0.15437244
vn -0.63651097 0.7575924 -0.14459462
vn -0.63651097 0.7575924 -0.14459462
vn 0.58057594 -0.7826354 0.22452918
vn 0.58057594 -0.7826354 0.22452918
vn 0.58057594 -0.7826354 0.22452918
vn 0.58057594 -0.7826354 0.22452918
vn 0.58862543 0.44608 -0.67419046
vn 0.58862543 0.44608 -0.67419046
vn 0.58862543 0.44608 -0.67419046
vn 0.58862543 0.44608 -0.67419046
vn -0.22321902 -0.26464245 0.9381565
vn -0.22321902 -0.26464245 0.9381565
vn -0.22321902 -0.26464245 0.9381565
vn -0.22321902 -0.26464245 0.9381565
vn 0.70624286 -0.6837881 0.18345241
vn 0.70624286 -0.6837881 0.18345241
vn 0.70624286 -0.6837881 0.18345241
vn 0.70624286 -0.6837881 0.18345241
vn 0.5638508 -0.805968 0.18024394
vn 0.5638508 -0.805968 0.18024394
vn 0.5638508 -0.805968 0.18024394
vn 0.5638508 -0.805968 0.18024394
vn 0.6994937 -0.69656926 0.15968654
vn 0.6994937 -0.69656926 0.15968654
vn 0.6994937 -0.69656926 0.15968654
vn 0.6994937 -0.69656926 0.15968654
vn 0.572781 -0.79406357 0.20343308
vn 0.572781 -0.79406357 0.20343308
vn 0.572781 -0.79406357 0.20343308
vn 0.572781 -0.79406357 0.20343308
vn 0.69260913 -0.7081667 0.13708565
vn 0.69260913 -0.7081667 0.13708565
vn 0.69260913 -0.7081667 0.13708565
vn 0.69260913 -0.7081667 0.13708565
vn -0.566432 0.80869883 -0.15862241
vn -0.566432 0.80869883 -0.15862241
vn -0.566432 0.80869883 -0.15862241
vn -0.566432 0.80869883 -0.15862241
vn -0.68207854 0.7271586 -0.07751853
vn -0.68207854 0.7271586 -0.07751853
vn -0.68207854 0.7271586 -0.07751853
vn -0.68207854 0.7271586 -0.07751853
vn -0.5643786 0.8111166 -0.15351446
vn -0.5643786 0.8111166 -0.15351446
vn -0.5643786 0.8111166 -0.15351446
vn -0.5643786 0.8111166 -0.15351446
vn -0.6961386 0.7079984 -0.11886647
vn -0.6961386 0.7079984 -0.11886647
vn -0.6961386 0.7079984 -0.11886647
vn -0.6961386 0.7079984 -0.11886647
vn -0.35404062 0.90225077 0.24616832
vn -0.35404062 0.90225077 0.24616832
vn -0.35404062 0.90225077 0.24616832
vn -0.35404062 0.90225077 0.24616832
vn -0.48181066 0.8169298 0.31699234
vn -0.48181066 0.8169298 0.31699234
vn -0.48181066 0.8169298 0.31699234
vn -0.48181066 0.8169298 0.31699234
vn -0.36123136 0.902468 0.23465604
vn -0.36123136 0.902468 0.23465604
vn -0.36123136 0.902468 0.23465604
vn -0.36123136 0.902468 0.23465604
vn -0.4524553 0.81612635 0.3594746
vn -0.4524553 0.81612635 0.3594746
vn -0.4524553 0.81612635 0.3594746
vn -0.4524553 0.81612635 0.3594746
vn 0.40067667 -0.81800234 -0.4127111
vn 0.40067667 -0.81800234 -0.4127111
vn 0.40067667 -0.81800234 -0.4127111
vn 0.40067667 -0.81800234 -0.4127111
vn 0.34253755 -0.9074075 -0.24347399
vn 0.34253755 -0.9074075 -0.24347399
vn 0.34253755 -0.9074075 -0.24347399
vn 0.34253755 -0.9074075 -0.24347399
vn 0.41898087 -0.8206138 -0.3886489
vn 0.41898087 -0.8206138 -0.3886489
vn 0.41898087 -0.8206138 -0.3886489
vn 0.41898087 -0.8206138 -0.3886489
vn 0.32235548 -0.90577453 -0.27506286
vn 0.32235548 -0.90577453 -0.27506286
vn 0.32235548 -0.90577453 -0.27506286
vn 0.32235548 -0.90577453 -0.27506286
vn 0.43591902 -0.8223871 -0.3655876
vn 0.43591902 -0.8223871 -0.3655876
vn 0.43591902 -0.8223871 -0.3655876
vn 0.43591902 -0.8223871 -0.3655876
vn -0.7692387 -0.3199627 -0.5530783
vn -0.7692387 -0.3199627 -0.5530783
vn -0.7692387 -0.3199627 -0.5530783
vn -0.7692387 -0.3199627 -0.5530783
vn -0.05456364 -0.28183848 -0.95790905
vn -0.05456364 -0.28183848 -0.95790905
vn -0.05456364 -0.28183848 -0.95790905
vn -0.05456364 -0.28183848 -0.95790905
vn -0.054561805 -0.281843 -0.95790786
vn -0.054561805 -0.281843 -0.95790786
vn -0.061349563 -0.28306946 -0.95713526
vn -0.061349563 -0.28306946 -0.95713526
vn -0.056640025 -0.27986586 -0.9583669
vn -0.056640025 -0.27986586 -0.9583669
vn -0.06030158 -0.28045043 -0.9579725
vn -0.06030158 -0.28045043 -0.9579725
vn -0.06030158 -0.28045043 -0.9579725
vn -0.06030158 -0.28045043 -0.9579725
vn 0.93797755 0.26347676 0.22533998
vn 0.93797755 0.26347676 0.22533998
vn 0.93797755 0.26347676 0.22533998
vn 0.93797755 0.26347676 0.22533998
vn -0.030569252 0.26227736 0.96450824
vn -0.030569252 0.26227736 0.96450824
vn -0.030569252 0.26227736 0.96450824
vn -0.030569252 0.26227736 0.96450824
vn -0.029098798 0.26562437 0.9636374
vn -0.029098798 0.26562437 0.9636374
vn -0.038289394 0.26372316 0.9638382
vn -0.038289394 0.26372316 0.9638382
vn -0.029098572 0.26562637 0.9636368
vn -0.029098572 0.26562637 0.9636368
vn -0.03828893 0.2637222 0.96383846
vn -0.03828893 0.2637222 0.96383846
vn -0.03828893 0.2637222 0.96383846
vn -0.03828893 0.2637222 0.96383846
vn 0.10657529 -0.99428314 0.006527872
vn 0.10657529 -0.99428314 0.006527872
vn 0.10657529 -0.99428314 0.006527872
vn 0.10657529 -0.99428314 0.006527872
vn -0.20285349 0.97814894 -0.04555331
vn -0.20285349 0.97814894 -0.04555331
vn -0.20285349 0.97814894 -0.04555331
vn -0.20285349 0.97814894 -0.04555331
vn -0.20328338 0.9775145 -0.056047022
vn -0.20328338 0.9775145 -0.056047022
vn -0.20631582 0.80630815 -0.5543473
vn -0.20631582 0.80630815 -0.5543473
vn -0.20631582 0.80630815 -0.5543473
vn -0.20631582 0.80630815 -0.5543473
vn -0.20670666 0.8126648 -0.54483783
vn -0.20670666 0.8126648 -0.54483783
vn 0.114398755 -0.8035737 0.5841081
vn 0.114398755 -0.8035737 0.5841081
vn 0.114398755 -0.8035737 0.5841081
vn 0.114398755 -0.8035737 0.5841081
vn 0.94855064 0.11945 -0.2932293
vn 0.94855064 0.11945 -0.2932293
vn 0.94855064 0.11945 -0.2932293
vn 0.94855064 0.11945 -0.2932293
vn -0.7212267 0.0413348 0.6914647
vn -0.7212267 0.0413348 0.6914647
vn -0.7212267 0.0413348 0.6914647
vn -0.7212267 0.0413348 0.6914647
vn 0.2681612 -0.74806 0.6070386
vn 0.2681612 -0.74806 0.6070386
vn 0.2681612 -0.74806 0.6070386
vn 0.2681612 -0.74806 0.6070386
vn 0.11482593 -0.8334183 0.540582
vn 0.11482593 -0.8334183 0.540582
vn 0.11482593 -0.8334183 0.540582
vn 0.11482593 -0.8334183 0.540582
vn 0.27012047 -0.7647982 0.58490914
vn 0.27012047 -0.7647982 0.58490914
vn 0.27012047 -0.7647982 0.58490914
vn 0.27012047 -0.7647982 0.58490914
vn 0.114643484 -0.8181221 0.5635009
vn 0.114643484 -0.8181221 0.5635009
vn 0.114643484 -0.8181221 0.5635009
vn 0.114643484 -0.8181221 0.5635009
vn 0.27178225 -0.78009117 0.5635533
vn 0.27178225 -0.78009117 0.5635533
vn 0.27178225 -0.78009117 0.5635533
vn 0.27178225 -0.78009117 0.5635533
vn -0.1265475 0.842137 -0.52420515
vn -0.1265475 0.842137 -0.52420515
vn -0.1265475 0.842137 -0.52420515
vn -0.1265475 0.842137 -0.52420515
vn -0.28605068 0.8111294 -0.5101412
vn -0.28605068 0.8111294 -0.5101412
vn -0.28605068 0.8111294 -0.5101412
vn -0.28605068 0.8111294 -0.5101412
vn -0.12658177 0.8452952 -0.5190887
vn -0.12658177 0.8452952 -0.5190887
vn -0.12658177 0.8452952 -0.5190887
vn -0.12658177 0.8452952 -0.5190887
vn -0.28354824 0.7854032 -0.5502202
vn -0.28354824 0.7854032 -0.5502202
vn -0.28354824 0.7854032 -0.5502202
vn -0.28354824 0.7854032 -0.5502202
vn -0.12014964 0.9894049 -0.08149876
vn -0.12014964 0.9894049 -0.08149876
vn -0.12014964 0.9894049 -0.08149876
vn -0.12014964 0.9894049 -0.08149876
vn -0.2857442 0.95477766 -0.082157314
vn -0.2857442 0.95477766 -0.082157314
vn -0.2857442 0.95477766 -0.082157314
vn -0.2857442 0.95477766 -0.082157314
vn -0.12035136 0.9881738 -0.09501654
vn -0.12035136 0.9881738 -0.09501654
vn -0.12035136 0.9881738 -0.09501654
vn -0.12035136 0.9881738 -0.09501654
vn -0.2827051 0.9587137 -0.030752951
vn -0.2827051 0.9587137 -0.030752951
vn -0.2827051 0.9587137 -0.030752951
vn -0.2827051 0.9587137 -0.030752951
vn 0.26576954 -0.9631454 -0.041442662
vn 0.26576954 -0.9631454 -0.041442662
vn 0.26576954 -0.9631454 -0.041442662
vn 0.26576954 -0.9631454 -0.041442662
vn 0.107832484 -0.991097 0.078094855
vn 0.107832484 -0.991097 0.078094855
vn 0.107832484 -0.991097 0.078094855
vn 0.107832484 -0.991097 0.078094855
vn 0.26816934 -0.9633067 -0.011192573
vn 0.26816934 -0.9633067 -0.011192573
vn 0.26816934 -0.9633067 -0.011192573
vn 0.26816934 -0.9633067 -0.011192573
vn 0.10724285 -0.9934016 0.04064929
vn 0.10724285 -0.9934016 0.04064929
vn 0.10724285 -0.9934016 0.04064929
vn 0.10724285 -0.9934016 0.04064929
vn 0.27020964 -0.96264434 0.017395364
vn 0.27020964 -0.96264434 0.017395364
vn 0.27020964 -0.96264434 0.017395364
vn 0.27020964 -0.96264434 0.017395364
vn -0.92608106 -0.24916068 0.28335994
vn -0.92608106 -0.24916068 0.28335994
vn -0.92608106 -0.24916068 0.28335994
vn -0.92608106 -0.24916068 0.28335994
vn -0.8024909 -0.2757566 -0.5291188
vn -0.8024909 -0.2757566 -0.5291188
vn -0.8024909 -0.2757566 -0.5291188
vn -0.8024909 -0.2757566 -0.5291188
vn -0.8024901 -0.2757572 -0.5291197
vn -0.8024901 -0.2757572 -0.5291197
vn -0.8061276 -0.27636728 -0.5232394
vn -0.8061276 -0.27636728 -0.5232394
vn -0.80401963 -0.2736068 -0.52791256
vn -0.80401963 -0.2736068 -0.52791256
vn -0.80599344 -0.2738597 -0.5247623
vn -0.80599344 -0.2738597 -0.5247623
vn -0.80599344 -0.2738597 -0.5247623
vn -0.80599344 -0.2738597 -0.5247623
vn 0.76906675 0.17766161 -0.613981
vn 0.76906675 0.17766161 -0.613981
vn 0.76906675 0.17766161 -0.613981
vn 0.76906675 0.17766161 -0.613981
vn 0.754202 0.26396692 0.60124934
vn 0.754202 0.26396692 0.60124934
vn 0.754202 0.26396692 0.60124934
vn 0.754202 0.26396692 0.60124934
vn 0.7546089 0.26716834 0.5993216
vn 0.7546089 0.26716834 0.5993216
vn 0.74900585 0.26610264 0.606778
vn 0.74900585 0.26610264 0.606778
vn 0.75460947 0.26716638 0.59932184
vn 0.75460947 0.26716638 0.59932184
vn 0.74900615 0.26610202 0.60677797
vn 0.74900615 0.26610202 0.60677797
vn 0.74900615 0.26610202 0.60677797
vn 0.74900615 0.26610202 0.60677797
vn 0.015212554 -0.9998456 -0.008793699
vn 0.015212554 -0.9998456 -0.008793699
vn 0.015212554 -0.9998456 -0.008793699
vn 0.015212554 -0.9998456 -0.008793699
vn -0.10604251 0.99247533 0.061219137
vn -0.10604251 0.99247533 0.061219137
vn -0.10604251 0.99247533 0.061219137
vn -0.10604251 0.99247533 0.061219137
vn -0.11459349 0.99188226 0.055116963
vn -0.11459349 0.99188226 0.055116963
vn -0.5178195 0.82164985 -0.23823182
vn -0.5178195 0.82164985 -0.23823182
vn -0.5178195 0.82164985 -0.23823182
vn -0.5178195 0.82164985 -0.23823182
vn -0.51022714 0.82801634 -0.23250209
vn -0.51022714 0.82801634 -0.23250209
vn 0.4848113 -0.81062293 0.32840285
vn 0.4848113 -0.81062293 0.32840285
vn 0.4848113 -0.81062293 0.32840285
vn 0.4848113 -0.81062293 0.32840285
vn 0.35979262 0.03326783 -0.9324391
vn 0.35979262 0.03326783 -0.9324391
vn 0.35979262 0.03326783 -0.9324391
vn 0.35979262 0.03326783 -0.9324391
vn 0.102188274 0.106324576 0.9890666
vn 0.102188274 0.106324576 0.9890666
vn 0.102188274 0.106324576 0.9890666
vn 0.102188274 0.106324576 0.9890666
vn 0.6005565 -0.7692274 0.21822242
vn 0.6005565 -0.7692274 0.21822242
vn 0.6005565 -0.7692274 0.21822242
vn 0.6005565 -0.7692274 0.21822242
vn 0.44918567 -0.8403836 0.30329478
vn 0.44918567 -0.8403836 0.30329478
vn 0.44918567 -0.8403836 0.30329478
vn 0.44918567 -0.8403836 0.30329478
vn 0.58342785 -0.78607434 0.20420346
vn 0.58342785 -0.78607434 0.20420346
vn 0.58342785 -0.78607434 0.20420346
vn 0.58342785 -0.78607434 0.20420346
vn 0.46794623 -0.8251341 0.31651235
vn 0.46794623 -0.8251341 0.31651235
vn 0.46794623 -0.8251341 0.31651235
vn 0.46794623 -0.8251341 0.31651235
vn 0.56680536 -0.80145466 0.19079332
vn 0.56680536 -0.80145466 0.19079332
vn 0.56680536 -0.80145466 0.19079332
vn 0.56680536 -0.80145466 0.19079332
vn -0.4430328 0.85012645 -0.2846175
vn -0.4430328 0.85012645 -0.2846175
vn -0.4430328 0.85012645 -0.2846175
vn -0.4430328 0.85012645 -0.2846175
vn -0.53185624 0.83365506 -0.14882308
vn -0.53185624 0.83365506 -0.14882308
vn -0.53185624 0.83365506 -0.14882308
vn -0.53185624 0.83365506 -0.14882308
vn -0.43885642 0.8532741 -0.28165263
vn -0.43885642 0.8532741 -0.28165263
vn -0.43885642 0.8532741 -0.28165263
vn -0.43885642 0.8532741 -0.28165263
vn -0.56326544 0.8078079 -0.1737194
vn -0.56326544 0.8078079 -0.1737194
vn -0.56326544 0.8078079 -0.1737194
vn -0.56326544 0.8078079 -0.1737194
vn -0.08278638 0.9962135 -0.026552176
vn -0.08278638 0.9962135 -0.026552176
vn -0.08278638 0.9962135 -0.026552176
vn -0.08278638 0.9962135 -0.026552176
vn -0.18713434 0.9766881 0.105171554
vn -0.18713434 0.9766881 0.105171554
vn -0.18713434 0.9766881 0.105171554
vn -0.18713434 0.9766881 0.105171554
vn -0.09360765 0.9950058 -0.034659088
vn -0.09360765 0.9950058 -0.034659088
vn -0.09360765 0.9950058 -0.034659088
vn -0.09360765 0.9950058 -0.034659088
vn -0.14462653 0.9803335 0.13427365
vn -0.14462653 0.9803335 0.13427365
vn -0.14462653 0.9803335 0.13427365
vn -0.14462653 0.9803335 0.13427365
vn 0.07719186 -0.9832171 -0.16530459
vn 0.07719186 -0.9832171 -0.16530459
vn 0.07719186 -0.9832171 -0.16530459
vn 0.07719186 -0.9832171 -0.16530459
vn 0.07243582 -0.9967861 0.034214556
vn 0.07243582 -0.9967861 0.034214556
vn 0.07243582 -0.9967861 0.034214556
vn 0.07243582 -0.9967861 0.034214556
vn 0.10244469 -0.9835946 -0.1484817
vn 0.10244469 -0.9835946 -0.1484817
vn 0.10244469 -0.9835946 -0.1484817
vn 0.10244469 -0.9835946 -0.1484817
vn 0.042501695 -0.99902785 0.011703415
vn 0.042501695 -0.99902785 0.011703415
vn 0.042501695 -0.99902785 0.011703415
vn 0.042501695 -0.99902785 0.011703415
vn 0.12621537 -0.9831192 -0.13246295
vn 0.12621537 -0.9831192 -0.13246295
vn 0.12621537 -0.9831192 -0.13246295
vn 0.12621537 -0.9831192 -0.13246295
vn -0.60011333 -0.13930295 -0.78769195
vn -0.60011333 -0.13930295 -0.78769195
vn -0.60011333 -0.13930295 -0.78769195
vn -0.60011333 -0.13930295 -0.78769195
vn 0.13761689 0.1714577 -0.97553265
vn 0.13761689 0.1714577 -0.97553265
vn 0.13761689 0.1714577 -0.97553265
vn 0.13761689 0.1714577 -0.97553265
vn 0.13761704 0.17145962 -0.9755323
vn 0.13761704 0.17145962 -0.9755323
vn 0.13121319 0.16911454 -0.9768231
vn 0.13121319 0.16911454 -0.9768231
vn 0.1352448 0.17312655 -0.9755696
vn 0.1352448 0.17312655 -0.9755696
vn 0.13177714 0.17194076 -0.9762537
vn 0.13177714 0.17194076 -0.9762537
vn 0.13177714 0.17194076 -0.9762537
vn 0.13177714 0.17194076 -0.9762537
vn 0.8198292 0.25850043 0.51093805
vn 0.8198292 0.25850043 0.51093805
vn 0.8198292 0.25850043 0.51093805
vn 0.8198292 0.25850043 0.51093805
vn -0.21662538 -0.20316046 0.9548818
vn -0.21662538 -0.20316046 0.9548818
vn -0.21662538 -0.20316046 0.9548818
vn -0.21662538 -0.20316046 0.9548818
vn -0.21580563 -0.19961335 0.9558151
vn -0.21580563 -0.19961335 0.9558151
vn -0.22431152 -0.20262186 0.9532201
vn -0.22431152 -0.20262186 0.9532201
vn -0.21580583 -0.1996133 0.955815
vn -0.21580583 -0.1996133 0.955815
vn -0.22431111 -0.20262167 0.95322037
vn -0.22431111 -0.20262167 0.95322037
vn -0.22431111 -0.20262167 0.95322037
vn -0.22431111 -0.20262167 0.95322037
vn 0.3164284 -0.86795086 -0.38279814
vn 0.3164284 -0.86795086 -0.38279814
vn 0.3164284 -0.86795086 -0.38279814
vn 0.3164284 -0.86795086 -0.38279814
vn -0.40077874 0.85816985 0.32081297
vn -0.40077874 0.85816985 0.32081297
vn -0.40077874 0.85816985 0.32081297
vn -0.40077874 0.85816985 0.32081297
vn -0.39963734 0.8622402 0.31117806
vn -0.39963734 0.8622402 0.31117806
vn -0.29823396 0.9330901 -0.20099576
vn -0.29823396 0.9330901 -0.20099576
vn -0.29823396 0.9330901 -0.20099576
vn -0.29823396 0.9330901 -0.20099576
vn -0.30126795 0.9344105 -0.19003817
vn -0.30126795 0.9344105 -0.19003817
vn 0.20472516 -0.95633554 0.2085907
vn 0.20472516 -0.95633554 0.2085907
vn 0.20472516 -0.95633554 0.2085907
vn 0.20472516 -0.95633554 0.2085907
vn 0.93127733 0.3642771 -0.0049691643
vn 0.93127733 0.3642771 -0.0049691643
vn 0.93127733 0.3642771 -0.0049691643
vn 0.93127733 0.3642771 -0.0049691643
vn -0.7999837 -0.36945564 0.47278818
vn -0.7999837 -0.36945564 0.47278818
vn -0.7999837 -0.36945564 0.47278818
vn -0.7999837 -0.36945564 0.47278818
vn 0.33835986 -0.89680153 0.2850606
vn 0.33835986 -0.89680153 0.2850606
vn 0.33835986 -0.89680153 0.2850606
vn 0.33835986 -0.89680153 0.2850606
vn 0.21746068 -0.96322256 0.15783931
vn 0.21746068 -0.96322256 0.15783931
vn 0.21746068 -0.96322256 0.15783931
vn 0.21746068 -0.96322256 0.15783931
vn 0.34685725 -0.9014524 0.2589857
vn 0.34685725 -0.9014524 0.2589857
vn 0.34685725 -0.9014524 0.2589857
vn 0.34685725 -0.9014524 0.2589857
vn 0.21088551 -0.95996094 0.18439732
vn 0.21088551 -0.95996094 0.18439732
vn 0.21088551 -0.95996094 0.18439732
vn 0.21088551 -0.95996094 0.18439732
vn 0.35464996 -0.905211 0.23412934
vn 0.35464996 -0.905211 0.23412934
vn 0.35464996 -0.905211 0.23412934
vn 0.35464996 -0.905211 0.23412934
vn -0.23289052 0.9620388 -0.14227894
vn -0.23289052 0.9620388 -0.14227894
vn -0.23289052 0.9620388 -0.14227894
vn -0.23289052 0.9620388 -0.14227894
vn -0.38236648 0.90687406 -0.1771306
vn -0.38236648 0.90687406 -0.1771306
vn -0.38236648 0.90687406 -0.1771306
vn -0.38236648 0.90687406 -0.1771306
vn -0.23429781 0.96254075 -0.13645475
vn -0.23429781 0.96254075 -0.13645475
vn -0.23429781 0.96254075 -0.13645475
vn -0.23429781 0.96254075 -0.13645475
vn -0.36897796 0.902368 -0.22268169
vn -0.36897796 0.902368 -0.22268169
vn -0.36897796 0.902368 -0.22268169
vn -0.36897796 0.902368 -0.22268169
vn -0.31835753 0.8953128 0.31155
vn -0.31835753 0.8953128 0.31155
vn -0.31835753 0.8953128 0.31155
vn -0.31835753 0.8953128 0.31155
vn -0.47095048 0.8427069 0.2608654
vn -0.47095048 0.8427069 0.2608654
vn -0.47095048 0.8427069 0.2608654
vn -0.47095048 0.8427069 0.2608654
vn -0.31645763 0.9002377 0.29904306
vn -0.31645763 0.9002377 0.29904306
vn -0.31645763 0.9002377 0.29904306
vn -0.31645763 0.9002377 0.29904306
vn -0.47581723 0.8236256 0.3086078
vn -0.47581723 0.8236256 0.3086078
vn -0.47581723 0.8236256 0.3086078
vn -0.47581723 0.8236256 0.3086078
vn 0.47016576 -0.7975608 -0.37794292
vn 0.47016576 -0.7975608 -0.37794292
vn 0.47016576 -0.7975608 -0.37794292
vn 0.47016576 -0.7975608 -0.37794292
vn 0.307271 -0.8969453 -0.317921
vn 0.307271 -0.8969453 -0.317921
vn 0.307271 -0.8969453 -0.317921
vn 0.307271 -0.8969453 -0.317921
vn 0.46842706 -0.81089866 -0.35074127
vn 0.46842706 -0.81089866 -0.35074127
vn 0.46842706 -0.81089866 -0.35074127
vn 0.46842706 -0.81089866 -0.35074127
vn 0.31226566 -0.88232917 -0.35211554
vn 0.31226566 -0.88232917 -0.35211554
vn 0.31226566 -0.88232917 -0.35211554
vn 0.31226566 -0.88232917 -0.35211554
vn 0.46638802 -0.82281363 -0.3247461
vn 0.46638802 -0.82281363 -0.3247461
vn 0.46638802 -0.82281363 -0.3247461
vn 0.46638802 -0.82281363 -0.3247461
vn -0.052507643 -0.044584855 -0.9976247
vn -0.052507643 -0.044584855 -0.9976247
vn -0.052507643 -0.044584855 -0.9976247
vn -0.052507643 -0.044584855 -0.9976247
vn 0.710995 0.033012453 -0.70242167
vn 0.710995 0.033012453 -0.70242167
vn 0.710995 0.033012453 -0.70242167
vn 0.710995 0.033012453 -0.70242167
vn 0.71099514 0.033013053 -0.70242155
vn 0.71099514 0.033013053 -0.70242155
vn 0.70613426 0.032396816 -0.7073365
vn 0.70613426 0.032396816 -0.7073365
vn 0.7096472 0.035254344 -0.7036747
vn 0.7096472 0.035254344 -0.7036747
vn 0.7070296 0.035002913 -0.7063173
vn 0.7070296 0.035002913 -0.7063173
vn 0.7070296 0.035002913 -0.7063173
vn 0.7070296 0.035002913 -0.7063173
vn 0.4133891 0.07204661 0.90769964
vn 0.4133891 0.07204661 0.90769964
vn 0.4133891 0.07204661 0.90769964
vn 0.4133891 0.07204661 0.90769964
vn -0.7690456 -0.043716576 0.6376971
vn -0.7690456 -0.043716576 0.6376971
vn -0.7690456 -0.043716576 0.6376971
vn -0.7690456 -0.043716576 0.6376971
vn -0.7679596 -0.04045666 0.6392193
vn -0.7679596 -0.04045666 0.6392193
vn -0.77388436 -0.041257974 0.6319816
vn -0.77388436 -0.041257974 0.6319816
vn -0.7679598 -0.040456653 0.63921905
vn -0.7679598 -0.040456653 0.63921905
vn -0.77388483 -0.04125704 0.6319812
vn -0.77388483 -0.04125704 0.6319812
vn -0.77388483 -0.04125704 0.6319812
vn -0.77388483 -0.04125704 0.6319812
vn 0.22175553 -0.9539209 -0.20213674
vn 0.22175553 -0.9539209 -0.20213674
vn 0.22175553 -0.9539209 -0.20213674
vn 0.22175553 -0.9539209 -0.20213674
vn -0.25423768 0.96169996 0.1024514
vn -0.25423768 0.96169996 0.1024514
vn -0.25423768 0.96169996 0.1024514
vn -0.25423768 0.96169996 0.1024514
vn -0.24672301 0.96436065 0.09558445
vn -0.24672301 0.96436065 0.09558445
vn 0.14375345 0.9553716 -0.25806984
vn 0.14375345 0.9553716 -0.25806984
vn 0.14375345 0.9553716 -0.25806984
vn 0.14375345 0.9553716 -0.25806984
vn 0.1355201 0.9585148 -0.25076637
vn 0.1355201 0.9585148 -0.25076637
vn -0.22678332 -0.95130897 0.20875975
vn -0.22678332 -0.95130897 0.20875975
vn -0.22678332 -0.95130897 0.20875975
vn -0.22678332 -0.95130897 0.20875975
vn 0.8234649 0.09337929 0.55963016
vn 0.8234649 0.09337929 0.55963016
vn 0.8234649 0.09337929 0.55963016
vn 0.8234649 0.09337929 0.55963016
vn -0.99061185 -0.08944885 -0.10337848
vn -0.99061185 -0.08944885 -0.10337848
vn -0.99061185 -0.08944885 -0.10337848
vn -0.99061185 -0.08944885 -0.10337848
vn -0.15067275 -0.92356706 0.35259295
vn -0.15067275 -0.92356706 0.35259295
vn -0.15067275 -0.92356706 0.35259295
vn -0.15067275 -0.92356706 0.35259295
vn -0.18988068 -0.96624535 0.17411299
vn -0.18988068 -0.96624535 0.17411299
vn -0.18988068 -0.96624535 0.17411299
vn -0.18988068 -0.96624535 0.17411299
vn -0.13051306 -0.9328406 0.3358196
vn -0.13051306 -0.9328406 0.3358196
vn -0.13051306 -0.9328406 0.3358196
vn -0.13051306 -0.9328406 0.3358196
vn -0.2092176 -0.95878124 0.19226667
vn -0.2092176 -0.95878124 0.19226667
vn -0.2092176 -0.95878124 0.19226667
vn -0.2092176 -0.95878124 0.19226667
vn -0.11134495 -0.94095033 0.3197104
vn -0.11134495 -0.94095033 0.3197104
vn -0.11134495 -0.94095033 0.3197104
vn -0.11134495 -0.94095033 0.3197104
vn 0.16874756 0.97082424 -0.17036617
vn 0.16874756 0.97082424 -0.17036617
vn 0.16874756 0.97082424 -0.17036617
vn 0.16874756 0.97082424 -0.17036617
vn 0.05785059 0.95558417 -0.28898463
vn 0.05785059 0.95558417 -0.28898463
vn 0.05785059 0.95558417 -0.28898463
vn 0.05785059 0.95558417 -0.28898463
vn 0.16447479 0.9722473 -0.16638263
vn 0.16447479 0.9722473 -0.16638263
vn 0.16447479 0.9722473 -0.16638263
vn 0.16447479 0.9722473 -0.16638263
vn 0.09294992 0.94324607 -0.31882173
vn 0.09294992 0.94324607 -0.31882173
vn 0.09294992 0.94324607 -0.31882173
vn 0.09294992 0.94324607 -0.31882173
vn -0.17495748 0.9738119 0.14518976
vn -0.17495748 0.9738119 0.14518976
vn -0.17495748 0.9738119 0.14518976
vn -0.17495748 0.9738119 0.14518976
vn -0.27851042 0.9603571 0.012085852
vn -0.27851042 0.9603571 0.012085852
vn -0.27851042 0.9603571 0.012085852
vn -0.27851042 0.9603571 0.012085852
vn -0.1649795 0.9768076 0.13648628
vn -0.1649795 0.9768076 0.13648628
vn -0.1649795 0.9768076 0.13648628
vn -0.1649795 0.9768076 0.13648628
vn -0.31483477 0.9479992 0.046653815
vn -0.31483477 0.9479992 0.046653815
vn -0.31483477 0.9479992 0.046653815
vn -0.31483477 0.9479992 0.046653815
vn 0.35730514 -0.9281479 -0.10428098
vn 0.35730514 -0.9281479 -0.10428098
vn 0.35730514 -0.9281479 -0.10428098
vn 0.35730514 -0.9281479 -0.10428098
vn 0.16957732 -0.97295153 -0.15687238
vn 0.16957732 -0.97295153 -0.15687238
vn 0.16957732 -0.97295153 -0.15687238
vn 0.16957732 -0.97295153 -0.15687238
vn 0.3367218 -0.9378323 -0.08419576
vn 0.3367218 -0.9378323 -0.08419576
vn 0.3367218 -0.9378323 -0.08419576
vn 0.3367218 -0.9378323 -0.08419576
vn 0.19702376 -0.9636044 -0.1806881
vn 0.19702376 -0.9636044 -0.1806881
vn 0.19702376 -0.9636044 -0.1806881
vn 0.19702376 -0.9636044 -0.1806881
vn 0.31699184 -0.9461879 -0.06514943
vn 0.31699184 -0.9461879 -0.06514943
vn 0.31699184 -0.9461879 -0.06514943
vn 0.31699184 -0.9461879 -0.06514943
g Cube.014_0
f 3/3/3 2/2/2 1/1/1
f 4/4/4 3/3/3 1/1/1
f 7/7/7 6/6/6 5/5/5
f 8/8/8 7/7/7 5/5/5
f 8/8/8 5/5/5 9/9/9
f 10/10/10 8/8/8 9/9/9
f 10/10/10 9/9/9 11/11/11
f 12/12/12 10/10/10 11/11/11
f 12/12/12 11/11/11 13/13/13
f 14/14/14 12/12/12 13/13/13
f 14/14/14 13/13/13 15/15/15
f 16/16/16 14/14/14 15/15/15
f 16/16/16 15/15/15 17/17/17
f 18/18/18 16/16/16 17/17/17
f 21/21/21 20/20/20 19/19/19
f 22/22/22 21/21/21 19/19/19
f 25/25/25 24/24/24 23/23/23
f 26/26/26 25/25/25 23/23/23
f 26/26/26 23/23/23 27/27/27
f 28/28/28 26/26/26 27/27/27
f 28/28/28 27/27/27 29/29/29
f 30/30/30 28/28/28 29/29/29
f 30/30/30 29/29/29 31/31/31
f 32/32/32 30/30/30 31/31/31
f 32/32/32 31/31/31 33/33/33
f 34/34/34 32/32/32 33/33/33
f 34/34/34 33/33/33 35/35/35
f 36/36/36 34/34/34 35/35/35
f 39/39/39 38/38/38 37/37/37
f 40/40/40 39/39/39 37/37/37
f 43/43/43 42/42/42 41/41/41
f 44/44/44 43/43/43 41/41/41
f 41/41/41 42/42/42 45/45/45
f 42/42/42 46/46/46 45/45/45
f 49/49/49 48/48/48 47/47/47
f 50/50/50 49/49/49 47/47/47
f 47/47/47 48/48/48 51/51/51
f 48/48/48 52/52/52 51/51/51
f 55/55/55 54/54/54 53/53/53
f 56/56/56 55/55/55 53/53/53
f 59/59/59 58/58/58 57/57/57
f 60/60/60 59/59/59 57/57/57
f 63/63/63 62/62/62 61/61/61
f 64/64/64 63/63/63 61/61/61
f 67/67/67 66/66/66 65/65/65
f 68/68/68 67/67/67 65/65/65
f 71/71/71 70/70/70 69/69/69
f 72/72/72 71/71/71 69/69/69
f 75/75/75 74/74/74 73/73/73
f 76/76/76 75/75/75 73/73/73
f 79/79/79 78/78/78 77/77/77
f 80/80/80 79/79/79 77/77/77
f 83/83/83 82/82/82 81/81/81
f 84/84/84 83/83/83 81/81/81
f 87/87/87 86/86/86 85/85/85
f 88/88/88 87/87/87 85/85/85
f 91/91/91 90/90/90 89/89/89
f 92/92/92 91/91/91 89/89/89
f 95/95/95 94/94/94 93/93/93
f 96/96/96 95/95/95 93/93/93
f 99/99/99 98/98/98 97/97/97
f 100/100/100 99/99/99 97/97/97
f 103/103/103 102/102/102 101/101/101
f 104/104/104 103/103/103 101/101/101
f 107/107/107 106/106/106 105/105/105
f 108/108/108 107/107/107 105/105/105
f 111/111/111 110/110/110 109/109/109
f 112/112/112 111/111/111 109/109/109
f 115/115/115 114/114/114 113/113/113
f 116/116/116 115/115/115 113/113/113
f 119/119/119 118/118/118 117/117/117
f 120/120/120 119/119/119 117/117/117
f 123/123/123 122/122/122 121/121/121
f 124/124/124 123/123/123 121/121/121
f 127/127/127 126/126/126 125/125/125
f 128/128/128 127/127/127 125/125/125
f 131/131/131 130/130/130 129/129/129
f 132/132/132 131/131/131 129/129/129
f 135/135/135 134/134/134 133/133/133
f 136/136/136 135/135/135 133/133/133
f 139/139/139 138/138/138 137/137/137
f 140/140/140 139/139/139 137/137/137
f 143/143/143 142/142/142 141/141/141
f 144/144/144 143/143/143 141/141/141
f 144/144/144 141/141/141 145/145/145
f 146/146/146 144/144/144 145/145/145
f 146/146/146 145/145/145 147/147/147
f 148/148/148 146/146/146 147/147/147
f 148/148/148 147/147/147 149/149/149
f 150/150/150 148/148/148 149/149/149
f 150/150/150 149/149/149 151/151/151
f 152/152/152 150/150/150 151/151/151
f 152/152/152 151/151/151 153/153/153
f 154/154/154 152/152/152 153/153/153
f 157/157/157 156/156/156 155/155/155
f 158/158/158 157/157/157 155/155/155
f 161/161/161 160/160/160 159/159/159
f 162/162/162 161/161/161 159/159/159
f 162/162/162 159/159/159 163/163/163
f 164/164/164 162/162/162 163/163/163
f 164/164/164 163/163/163 165/165/165
f 166/166/166 164/164/164 165/165/165
f 166/166/166 165/165/165 167/167/167
f 168/168/168 166/166/166 167/167/167
f 168/168/168 167/167/167 169/169/169
f 170/170/170 168/168/168 169/169/169
f 170/170/170 169/169/169 171/171/171
f 172/172/172 170/170/170 171/171/171
f 175/175/175 174/174/174 173/173/173
f 176/176/176 175/175/175 173/173/173
f 179/179/179 178/178/178 177/177/177
f 180/180/180 179/179/179 177/177/177
f 177/177/177 178/178/178 181/181/181
f 178/178/178 182/182/182 181/181/181
f 185/185/185 184/184/184 183/183/183
f 186/186/186 185/185/185 183/183/183
f 183/183/183 184/184/184 187/187/187
f 184/184/184 188/188/188 187/187/187
f 191/191/191 190/190/190 189/189/189
f 192/192/192 191/191/191 189/189/189
f 195/195/195 194/194/194 193/193/193
f 196/196/196 195/195/195 193/193/193
f 199/199/199 198/198/198 197/197/197
f 200/200/200 199/199/199 197/197/197
f 203/203/203 202/202/202 201/201/201
f 204/204/204 203/203/203 201/201/201
f 207/207/207 206/206/206 205/205/205
f 208/208/208 207/207/207 205/205/205
f 211/211/211 210/210/210 209/209/209
f 212/212/212 211/211/211 209/209/209
f 215/215/215 214/214/214 213/213/213
f 216/216/216 215/215/215 213/213/213
f 219/219/219 218/218/218 217/217/217
f 220/220/220 219/219/219 217/217/217
f 223/223/223 222/222/222 221/221/221
f 224/224/224 223/223/223 221/221/221
f 227/227/227 226/226/226 225/225/225
f 228/228/228 227/227/227 225/225/225
f 231/231/231 230/230/230 229/229/229
f 232/232/232 231/231/231 229/229/229
f 235/235/235 234/234/234 233/233/233
f 236/236/236 235/235/235 233/233/233
f 239/239/239 238/238/238 237/237/237
f 240/240/240 239/239/239 237/237/237
f 243/243/243 242/242/242 241/241/241
f 244/244/244 243/243/243 241/241/241
f 247/247/247 246/246/246 245/245/245
f 248/248/248 247/247/247 245/245/245
f 251/251/251 250/250/250 249/249/249
f 252/252/252 251/251/251 249/249/249
f 255/255/255 254/254/254 253/253/253
f 256/256/256 255/255/255 253/253/253
f 259/259/259 258/258/258 257/257/257
f 260/260/260 259/259/259 257/257/257
f 263/263/263 262/262/262 261/261/261
f 264/264/264 263/263/263 261/261/261
f 267/267/267 266/266/266 265/265/265
f 268/268/268 267/267/267 265/265/265
f 271/271/271 270/270/270 269/269/269
f 272/272/272 271/271/271 269/269/269
f 275/275/275 274/274/274 273/273/273
f 276/276/276 275/275/275 273/273/273
f 279/279/279 278/278/278 277/277/277
f 280/280/280 279/279/279 277/277/277
f 280/280/280 277/277/277 281/281/281
f 282/282/282 280/280/280 281/281/281
f 282/282/282 281/281/281 283/283/283
f 284/284/284 282/282/282 283/283/283
f 284/284/284 283/283/283 285/285/285
f 286/286/286 284/284/284 285/285/285
f 286/286/286 285/285/285 287/287/287
f 288/288/288 286/286/286 287/287/287
f 288/288/288 287/287/287 289/289/289
f 290/290/290 288/288/288 289/289/289
f 293/293/293 292/292/292 291/291/291
f 294/294/294 293/293/293 291/291/291
f 297/297/297 296/296/296 295/295/295
f 298/298/298 297/297/297 295/295/295
f 298/298/298 295/295/295 299/299/299
f 300/300/300 298/298/298 299/299/299
f 300/300/300 299/299/299 301/301/301
f 302/302/302 300/300/300 301/301/301
f 302/302/302 301/301/301 303/303/303
f 304/304/304 302/302/302 303/303/303
f 304/304/304 303/303/303 305/305/305
f 306/306/306 304/304/304 305/305/305
f 306/306/306 305/305/305 307/307/307
f 308/308/308 306/306/306 307/307/307
f 311/311/311 310/310/310 309/309/309
f 312/312/312 311/311/311 309/309/309
f 315/315/315 314/314/314 313/313/313
f 316/316/316 315/315/315 313/313/313
f 313/313/313 314/314/314 317/317/317
f 314/314/314 318/318/318 317/317/317
f 321/321/321 320/320/320 319/319/319
f 322/322/322 321/321/321 319/319/319
f 319/319/319 320/320/320 323/323/323
f 320/320/320 324/324/324 323/323/323
f 327/327/327 326/326/326 325/325/325
f 328/328/328 327/327/327 325/325/325
f 331/331/331 330/330/330 329/329/329
f 332/332/332 331/331/331 329/329/329
f 335/335/335 334/334/334 333/333/333
f 336/336/336 335/335/335 333/333/333
f 339/339/339 338/338/338 337/337/337
f 340/340/340 339/339/339 337/337/337
f 343/343/343 342/342/342 341/341/341
f 344/344/344 343/343/343 341/341/341
f 347/347/347 346/346/346 345/345/345
f 348/348/348 347/347/347 345/345/345
f 351/351/351 350/350/350 349/349/349
f 352/352/352 351/351/351 349/349/349
f 355/355/355 354/354/354 353/353/353
f 356/356/356 355/355/355 353/353/353
f 359/359/359 358/358/358 357/357/357
f 360/360/360 359/359/359 357/357/357
f 363/363/363 362/362/362 361/361/361
f 364/364/364 363/363/363 361/361/361
f 367/367/367 366/366/366 365/365/365
f 368/368/368 367/367/367 365/365/365
f 371/371/371 370/370/370 369/369/369
f 372/372/372 371/371/371 369/369/369
f 375/375/375 374/374/374 373/373/373
f 376/376/376 375/375/375 373/373/373
f 379/379/379 378/378/378 377/377/377
f 380/380/380 379/379/379 377/377/377
f 383/383/383 382/382/382 381/381/381
f 384/384/384 383/383/383 381/381/381
f 387/387/387 386/386/386 385/385/385
f 388/388/388 387/387/387 385/385/385
f 391/391/391 390/390/390 389/389/389
f 392/392/392 391/391/391 389/389/389
f 395/395/395 394/394/394 393/393/393
f 396/396/396 395/395/395 393/393/393
f 399/399/399 398/398/398 397/397/397
f 400/400/400 399/399/399 397/397/397
f 403/403/403 402/402/402 401/401/401
f 404/404/404 403/403/403 401/401/401
f 407/407/407 406/406/406 405/405/405
f 408/408/408 407/407/407 405/405/405
f 411/411/411 410/410/410 409/409/409
f 412/412/412 411/411/411 409/409/409
f 415/415/415 414/414/414 413/413/413
f 416/416/416 415/415/415 413/413/413
f 416/416/416 413/413/413 417/417/417
f 418/418/418 416/416/416 417/417/417
f 418/418/418 417/417/417 419/419/419
f 420/420/420 418/418/418 419/419/419
f 420/420/420 419/419/419 421/421/421
f 422/422/422 420/420/420 421/421/421
f 422/422/422 421/421/421 423/423/423
f 424/424/424 422/422/422 423/423/423
f 424/424/424 423/423/423 425/425/425
f 426/426/426 424/424/424 425/425/425
f 429/429/429 428/428/428 427/427/427
f 430/430/430 429/429/429 427/427/427
f 433/433/433 432/432/432 431/431/431
f 434/434/434 433/433/433 431/431/431
f 434/434/434 431/431/431 435/435/435
f 436/436/436 434/434/434 435/435/435
f 436/436/436 435/435/435 437/437/437
f 438/438/438 436/436/436 437/437/437
f 438/438/438 437/437/437 439/439/439
f 440/440/440 438/438/438 439/439/439
f 440/440/440 439/439/439 441/441/441
f 442/442/442 440/440/440 441/441/441
f 442/442/442 441/441/441 443/443/443
f 444/444/444 442/442/442 443/443/443
f 447/447/447 446/446/446 445/445/445
f 448/448/448 447/447/447 445/445/445
f 451/451/451 450/450/450 449/449/449
f 452/452/452 451/451/451 449/449/449
f 449/449/449 450/450/450 453/453/453
f 450/450/450 454/454/454 453/453/453
f 457/457/457 456/456/456 455/455/455
f 458/458/458 457/457/457 455/455/455
f 455/455/455 456/456/456 459/459/459
f 456/456/456 460/460/460 459/459/459
f 463/463/463 462/462/462 461/461/461
f 464/464/464 463/463/463 461/461/461
f 467/467/467 466/466/466 465/465/465
f 468/468/468 467/467/467 465/465/465
f 471/471/471 470/470/470 469/469/469
f 472/472/472 471/471/471 469/469/469
f 475/475/475 474/474/474 473/473/473
f 476/476/476 475/475/475 473/473/473
f 479/479/479 478/478/478 477/477/477
f 480/480/480 479/479/479 477/477/477
f 483/483/483 482/482/482 481/481/481
f 484/484/484 483/483/483 481/481/481
f 487/487/487 486/486/486 485/485/485
f 488/488/488 487/487/487 485/485/485
f 491/491/491 490/490/490 489/489/489
f 492/492/492 491/491/491 489/489/489
f 495/495/495 494/494/494 493/493/493
f 496/496/496 495/495/495 493/493/493
f 499/499/499 498/498/498 497/497/497
f 500/500/500 499/499/499 497/497/497
f 503/503/503 502/502/502 501/501/501
f 504/504/504 503/503/503 501/501/501
f 507/507/507 506/506/506 505/505/505
f 508/508/508 507/507/507 505/505/505
f 511/511/511 510/510/510 509/509/509
f 512/512/512 511/511/511 509/509/509
f 515/515/515 514/514/514 513/513/513
f 516/516/516 515/515/515 513/513/513
f 519/519/519 518/518/518 517/517/517
f 520/520/520 519/519/519 517/517/517
f 523/523/523 522/522/522 521/521/521
f 524/524/524 523/523/523 521/521/521
f 527/527/527 526/526/526 525/525/525
f 528/528/528 527/527/527 525/525/525
f 531/531/531 530/530/530 529/529/529
f 532/532/532 531/531/531 529/529/529
f 535/535/535 534/534/534 533/533/533
f 536/536/536 535/535/535 533/533/533
f 539/539/539 538/538/538 537/537/537
f 540/540/540 539/539/539 537/537/537
f 543/543/543 542/542/542 541/541/541
f 544/544/544 543/543/543 541/541/541
f 547/547/547 546/546/546 545/545/545
f 548/548/548 547/547/547 545/545/545
f 551/551/551 550/550/550 549/549/549
f 552/552/552 551/551/551 549/549/549
f 552/552/552 549/549/549 553/553/553
f 554/554/554 552/552/552 553/553/553
f 554/554/554 553/553/553 555/555/555
f 556/556/556 554/554/554 555/555/555
f 556/556/556 555/555/555 557/557/557
f 558/558/558 556/556/556 557/557/557
f 558/558/558 557/557/557 559/559/559
f 560/560/560 558/558/558 559/559/559
f 560/560/560 559/559/559 561/561/561
f 562/562/562 560/560/560 561/561/561
f 565/565/565 564/564/564 563/563/563
f 566/566/566 565/565/565 563/563/563
f 569/569/569 568/568/568 567/567/567
f 570/570/570 569/569/569 567/567/567
f 570/570/570 567/567/567 571/571/571
f 572/572/572 570/570/570 571/571/571
f 572/572/572 571/571/571 573/573/573
f 574/574/574 572/572/572 573/573/573
f 574/574/574 573/573/573 575/575/575
f 576/576/576 574/574/574 575/575/575
f 576/576/576 575/575/575 577/577/577
f 578/578/578 576/576/576 577/577/577
f 578/578/578 577/577/577 579/579/579
f 580/580/580 578/578/578 579/579/579
f 583/583/583 582/582/582 581/581/581
f 584/584/584 583/583/583 581/581/581
f 587/587/587 586/586/586 585/585/585
f 588/588/588 587/587/587 585/585/585
f 585/585/585 586/586/586 589/589/589
f 586/586/586 590/590/590 589/589/589
f 593/593/593 592/592/592 591/591/591
f 594/594/594 593/593/593 591/591/591
f 591/591/591 592/592/592 595/595/595
f 592/592/592 596/596/596 595/595/595
f 599/599/599 598/598/598 597/597/597
f 600/600/600 599/599/599 597/597/597
f 603/603/603 602/602/602 601/601/601
f 604/604/604 603/603/603 601/601/601
f 607/607/607 606/606/606 605/605/605
f 608/608/608 607/607/607 605/605/605
f 611/611/611 610/610/610 609/609/609
f 612/612/612 611/611/611 609/609/609
f 615/615/615 614/614/614 613/613/613
f 616/616/616 615/615/615 613/613/613
f 619/619/619 618/618/618 617/617/617
f 620/620/620 619/619/619 617/617/617
f 623/623/623 622/622/622 621/621/621
f 624/624/624 623/623/623 621/621/621
f 627/627/627 626/626/626 625/625/625
f 628/628/628 627/627/627 625/625/625
f 631/631/631 630/630/630 629/629/629
f 632/632/632 631/631/631 629/629/629
f 635/635/635 634/634/634 633/633/633
f 636/636/636 635/635/635 633/633/633
f 639/639/639 638/638/638 637/637/637
f 640/640/640 639/639/639 637/637/637
f 643/643/643 642/642/642 641/641/641
f 644/644/644 643/643/643 641/641/641
f 647/647/647 646/646/646 645/645/645
f 648/648/648 647/647/647 645/645/645
f 651/651/651 650/650/650 649/649/649
f 652/652/652 651/651/651 649/649/649
f 655/655/655 654/654/654 653/653/653
f 656/656/656 655/655/655 653/653/653
f 659/659/659 658/658/658 657/657/657
f 660/660/660 659/659/659 657/657/657
f 663/663/663 662/662/662 661/661/661
f 664/664/664 663/663/663 661/661/661
f 667/667/667 666/666/666 665/665/665
f 668/668/668 667/667/667 665/665/665
f 671/671/671 670/670/670 669/669/669
f 672/672/672 671/671/671 669/669/669
f 675/675/675 674/674/674 673/673/673
f 676/676/676 675/675/675 673/673/673
f 679/679/679 678/678/678 677/677/677
f 680/680/680 679/679/679 677/677/677
