g Desk
v -1 0.35399395 0.22131342
v -1 0.3550538 -0.21313508
v -1 0.4961074 -0.21313508
v -1 0.4948716 0.22131342
v 0.9380001 0.35410404 -0.21313508
v 1 0.35410404 -0.21313508
v 1 0.49499997 -0.21313508
v 0.9380001 0.49499997 -0.21313508
v 1 0.35410404 0.22131342
v 1 0.35410404 0.35
v 1 0.49499997 0.35
v 1 0.49499997 0.22131342
v -0.9380001 0.35410404 0.35
v -1 0.3551816 0.35
v -1 0.49625632 0.35
v -0.9380001 0.49499997 0.35
v 0.9380001 -0.49499997 0.22131342
v 0.9380001 -0.49499997 0.35
v 1 -0.49499997 0.35
v 1 -0.49499997 0.22131342
v 1 0.49499997 0.35
v 1 0.87141544 0.35
v 1 0.87141544 0.22131342
v 1 0.49499997 0.22131342
v 1 0.49499997 0.22131342
v 1 0.49499997 -0.21313508
v -0.9380001 0.49499997 -0.21313508
v -0.9380001 0.87141544 0.22131342
v -1 0.87141544 0.22131342
v -1 0.4961074 -0.21313508
v 0.9380001 -0.49499997 -0.21313508
v 0.9380001 -0.49499997 0.22131342
v 1 -0.49499997 0.22131342
v 1 -0.49499997 -0.21313508
v 1 0.35410404 -0.21313508
v 1 0.35410404 0.22131342
v 1 0.49499997 0.22131342
v 1 0.49499997 -0.21313508
v -1 0.3551816 0.35
v -1 0.35399395 0.22131342
v -1 0.4948716 0.22131342
v -1 0.49625632 0.35
v -1 -0.49499997 -0.21313508
v -1 -0.49499997 0.22131342
v -0.9380001 -0.49499997 0.22131342
v -0.9380001 -0.49499997 -0.21313508
v -0.9380001 -0.49499997 -0.21313508
v -0.9380001 -0.49499997 0.22131342
v 0.9380001 -0.49499997 0.22131342
v 0.9380001 -0.49499997 -0.21313508
v -1 0.49625632 0.35
v -1 0.87141544 0.35
v -0.9380001 0.87141544 0.35
v -0.9380001 0.49499997 0.35
v 0.9380001 0.49499997 -0.21313508
v 0.9380001 0.49499997 0.22131342
v -0.9380001 0.49781936 0.22131342
v -0.9380001 0.49499997 -0.21313508
v -0.9380001 0.49499997 0.35
v -0.9380001 0.87141544 0.35
v 0.9380001 0.87141544 0.35
v 0.9380001 0.49499997 0.35
v -1 -0.49499997 0.22131342
v -1 -0.49499997 0.35
v -0.9380001 -0.49499997 0.35
v -0.9380001 -0.49499997 0.22131342
v -0.9380001 -0.49499997 0.22131342
v -0.9380001 -0.49499997 0.35
v 0.9380001 -0.49499997 0.35
v 0.9380001 -0.49499997 0.22131342
v 1 0.35410404 0.35
v 0.9380001 0.35410404 0.35
v 0.9380001 0.49499997 0.35
v 1 0.49499997 0.35
v 0.9380001 0.35410404 0.35
v -0.9380001 0.35410404 0.35
v -0.9380001 0.49499997 0.35
v 0.9380001 0.49499997 0.35
v -1 0.3550538 -0.21313508
v -0.9380001 0.35410404 -0.21313508
v -0.9380001 0.49499997 -0.21313508
v -1 0.4961074 -0.21313508
v -0.9380001 0.35410404 -0.21313508
v 0.9380001 0.35410404 -0.21313508
v 0.9380001 0.49499997 -0.21313508
v -0.9380001 0.49499997 -0.21313508
v -0.9380001 0.87141544 0.22131342
v -0.9380001 0.87141544 0.35
v -1 0.87141544 0.35
v -1 0.87141544 0.22131342
v -1 0.4961074 -0.21313508
v -1 0.87141544 0.22131342
v -1 0.4948716 0.22131342
v 0.9380001 0.49499997 0.22131342
v 0.9380001 0.49499997 -0.21313508
v 0.9380001 0.87141544 0.22131342
v 1 0.87141544 0.22131342
v 1 0.87141544 0.35
v 0.9380001 0.87141544 0.35
v 0.9380001 0.87141544 0.22131342
v 0.9380001 0.87141544 0.22131342
v 0.9380001 0.87141544 0.35
v -0.9380001 0.87141544 0.35
v -0.9380001 0.87141544 0.22131342
v 1 0.49499997 -0.21313508
v 1 0.87141544 0.22131342
v 0.9380001 0.87141544 0.22131342
v 0.9380001 0.49499997 -0.21313508
v -0.9380001 0.49781936 0.22131342
v -0.9380001 0.87141544 0.22131342
v -0.9380001 0.49499997 -0.21313508
v 0.9380001 0.49499997 0.22131342
v 0.9380001 0.87141544 0.22131342
v -0.9380001 0.87141544 0.22131342
v -0.9380001 0.49781936 0.22131342
v 0.9380001 0.49499997 0.35
v 0.9380001 0.87141544 0.35
v 1 0.87141544 0.35
v 1 0.49499997 0.35
v -1 0.4948716 0.22131342
v -1 0.87141544 0.22131342
v -1 0.87141544 0.35
v -1 0.49625632 0.35
v -0.9380001 -0.49499997 -0.21313508
v 0.9380001 -0.49499997 -0.21313508
v 0.9380001 -0.3530388 -0.21313508
v -0.9380001 -0.3530388 -0.21313508
v 0.9380001 -0.10365987 -0.21313508
v 0.9380001 -0.10365987 -0.2346755
v -0.9380001 -0.10365987 -0.2346755
v -0.9380001 -0.10365987 -0.21313508
v -0.9380001 -0.14879476 -0.21313508
v 0.9380001 -0.14879476 -0.21313508
v 0.9380001 -0.10365987 -0.21313508
v -0.9380001 -0.10365987 -0.21313508
v 0.9380001 0.35410404 -0.21313508
v 0.9380001 0.35410404 -0.2346755
v 0.9380001 0.14332815 -0.2346755
v 0.9380001 0.14332815 -0.21313508
v -0.9380001 0.09986511 -0.21313508
v 0.9380001 0.09986511 -0.21313508
v 0.9380001 0.14332815 -0.21313508
v -0.9380001 0.14332815 -0.21313508
v -0.9380001 0.35410404 -0.21313508
v -0.9380001 0.35410404 -0.2346755
v 0.9380001 0.35410404 -0.2346755
v 0.9380001 0.35410404 -0.21313508
v -1 -0.49499997 -0.21313508
v -0.9380001 -0.49499997 -0.21313508
v -0.9380001 -0.3530388 -0.21313508
v -1 -0.35288 -0.21313508
v -1 -0.35288 -0.21313508
v -0.9380001 -0.3530388 -0.21313508
v -0.9380001 -0.14879476 -0.21313508
v -1 -0.14847776 -0.21313508
v -1 -0.14847776 -0.21313508
v -0.9380001 -0.14879476 -0.21313508
v -0.9380001 -0.10365987 -0.21313508
v -1 -0.10318467 -0.21313508
v -1 -0.10318467 -0.21313508
v -0.9380001 -0.10365987 -0.21313508
v -0.9380001 0.09986511 -0.21313508
v -1 0.10049851 -0.21313508
v -1 0.10049851 -0.21313508
v -0.9380001 0.09986511 -0.21313508
v -0.9380001 0.14332815 -0.21313508
v -1 0.14411974 -0.21313508
v -1 0.14411974 -0.21313508
v -0.9380001 0.14332815 -0.21313508
v -0.9380001 0.35410404 -0.21313508
v -1 0.3550538 -0.21313508
v 0.9380001 -0.49499997 0.35
v -0.9380001 -0.49499997 0.35
v -0.9380001 -0.3530388 0.35
v 0.9380001 -0.3530388 0.35
v 0.9380001 -0.3530388 0.35
v -0.9380001 -0.3530388 0.35
v -0.9380001 -0.14879476 0.35
v 0.9380001 -0.14879476 0.35
v 0.9380001 -0.14879476 0.35
v -0.9380001 -0.14879476 0.35
v -0.9380001 -0.10365987 0.35
v 0.9380001 -0.10365987 0.35
v 0.9380001 -0.10365987 0.35
v -0.9380001 -0.10365987 0.35
v -0.9380001 0.09986511 0.35
v 0.9380001 0.09986511 0.35
v 0.9380001 0.09986511 0.35
v -0.9380001 0.09986511 0.35
v -0.9380001 0.14332815 0.35
v 0.9380001 0.14332815 0.35
v 0.9380001 0.14332815 0.35
v -0.9380001 0.14332815 0.35
v -0.9380001 0.35410404 0.35
v 0.9380001 0.35410404 0.35
v 1 -0.49499997 0.35
v 0.9380001 -0.49499997 0.35
v 0.9380001 -0.3530388 0.35
v 1 -0.3530388 0.35
v 1 -0.3530388 0.35
v 0.9380001 -0.3530388 0.35
v 0.9380001 -0.14879476 0.35
v 1 -0.14879476 0.35
v 1 -0.14879476 0.35
v 0.9380001 -0.14879476 0.35
v 0.9380001 -0.10365987 0.35
v 1 -0.10365987 0.35
v 1 -0.10365987 0.35
v 0.9380001 -0.10365987 0.35
v 0.9380001 0.09986511 0.35
v 1 0.09986511 0.35
v 1 0.09986511 0.35
v 0.9380001 0.09986511 0.35
v 0.9380001 0.14332815 0.35
v 1 0.14332815 0.35
v 1 0.14332815 0.35
v 0.9380001 0.14332815 0.35
v 0.9380001 0.35410404 0.35
v 1 0.35410404 0.35
v -1 -0.49499997 0.35
v -1 -0.49499997 0.22131342
v -1 -0.3530572 0.22131342
v -1 -0.3528586 0.35
v -1 -0.3528586 0.35
v -1 -0.3530572 0.22131342
v -1 -0.1488315 0.22131342
v -1 -0.14843509 0.35
v -1 -0.14843509 0.35
v -1 -0.1488315 0.22131342
v -1 -0.10371495 0.22131342
v -1 -0.10312074 0.35
v -1 -0.10312074 0.35
v -1 -0.10371495 0.22131342
v -1 0.0997917 0.22131342
v -1 0.100583725 0.35
v -1 0.100583725 0.35
v -1 0.0997917 0.22131342
v -1 0.14323638 0.22131342
v -1 0.14422624 0.35
v -1 0.14422624 0.35
v -1 0.14323638 0.22131342
v -1 0.35399395 0.22131342
v -1 0.3551816 0.35
v 1 -0.49499997 -0.21313508
v 1 -0.49499997 0.22131342
v 1 -0.3530388 0.22131342
v 1 -0.3530388 -0.21313508
v 1 -0.3530388 -0.21313508
v 1 -0.3530388 0.22131342
v 1 -0.14879476 0.22131342
v 1 -0.14879476 -0.21313508
v 1 -0.14879476 -0.21313508
v 1 -0.14879476 0.22131342
v 1 -0.10365987 0.22131342
v 1 -0.10365987 -0.21313508
v 1 -0.10365987 -0.21313508
v 1 -0.10365987 0.22131342
v 1 0.09986511 0.22131342
v 1 0.09986511 -0.21313508
v 1 0.09986511 -0.21313508
v 1 0.09986511 0.22131342
v 1 0.14332815 0.22131342
v 1 0.14332815 -0.21313508
v 1 0.14332815 -0.21313508
v 1 0.14332815 0.22131342
v 1 0.35410404 0.22131342
v 1 0.35410404 -0.21313508
v -0.9380001 -0.49499997 0.35
v -1 -0.49499997 0.35
v -1 -0.3528586 0.35
v -0.9380001 -0.3530388 0.35
v -0.9380001 -0.3530388 0.35
v -1 -0.3528586 0.35
v -1 -0.14843509 0.35
v -0.9380001 -0.14879476 0.35
v -0.9380001 -0.14879476 0.35
v -1 -0.14843509 0.35
v -1 -0.10312074 0.35
v -0.9380001 -0.10365987 0.35
v -0.9380001 -0.10365987 0.35
v -1 -0.10312074 0.35
v -1 0.100583725 0.35
v -0.9380001 0.09986511 0.35
v -0.9380001 0.09986511 0.35
v -1 0.100583725 0.35
v -1 0.14422624 0.35
v -0.9380001 0.14332815 0.35
v -0.9380001 0.14332815 0.35
v -1 0.14422624 0.35
v -1 0.3551816 0.35
v -0.9380001 0.35410404 0.35
v 1 -0.49499997 0.22131342
v 1 -0.49499997 0.35
v 1 -0.3530388 0.35
v 1 -0.3530388 0.22131342
v 1 -0.3530388 0.22131342
v 1 -0.3530388 0.35
v 1 -0.14879476 0.35
v 1 -0.14879476 0.22131342
v 1 -0.14879476 0.22131342
v 1 -0.14879476 0.35
v 1 -0.10365987 0.35
v 1 -0.10365987 0.22131342
v 1 -0.10365987 0.22131342
v 1 -0.10365987 0.35
v 1 0.09986511 0.35
v 1 0.09986511 0.22131342
v 1 0.09986511 0.22131342
v 1 0.09986511 0.35
v 1 0.14332815 0.35
v 1 0.14332815 0.22131342
v 1 0.14332815 0.22131342
v 1 0.14332815 0.35
v 1 0.35410404 0.35
v 1 0.35410404 0.22131342
v 0.9380001 -0.49499997 -0.21313508
v 1 -0.49499997 -0.21313508
v 1 -0.3530388 -0.21313508
v 0.9380001 -0.3530388 -0.21313508
v 0.9380001 -0.3530388 -0.21313508
v 1 -0.3530388 -0.21313508
v 1 -0.14879476 -0.21313508
v 0.9380001 -0.14879476 -0.21313508
v 0.9380001 -0.14879476 -0.21313508
v 1 -0.14879476 -0.21313508
v 1 -0.10365987 -0.21313508
v 0.9380001 -0.10365987 -0.21313508
v 0.9380001 -0.10365987 -0.21313508
v 1 -0.10365987 -0.21313508
v 1 0.09986511 -0.21313508
v 0.9380001 0.09986511 -0.21313508
v 0.9380001 0.09986511 -0.21313508
v 1 0.09986511 -0.21313508
v 1 0.14332815 -0.21313508
v 0.9380001 0.14332815 -0.21313508
v 0.9380001 0.14332815 -0.21313508
v 1 0.14332815 -0.21313508
v 1 0.35410404 -0.21313508
v 0.9380001 0.35410404 -0.21313508
v -1 -0.49499997 0.22131342
v -1 -0.49499997 -0.21313508
v -1 -0.35288 -0.21313508
v -1 -0.3530572 0.22131342
v -1 -0.3530572 0.22131342
v -1 -0.35288 -0.21313508
v -1 -0.14847776 -0.21313508
v -1 -0.1488315 0.22131342
v -1 -0.1488315 0.22131342
v -1 -0.14847776 -0.21313508
v -1 -0.10318467 -0.21313508
v -1 -0.10371495 0.22131342
v -1 -0.10371495 0.22131342
v -1 -0.10318467 -0.21313508
v -1 0.10049851 -0.21313508
v -1 0.0997917 0.22131342
v -1 0.0997917 0.22131342
v -1 0.10049851 -0.21313508
v -1 0.14411974 -0.21313508
v -1 0.14323638 0.22131342
v -1 0.14323638 0.22131342
v -1 0.14411974 -0.21313508
v -1 0.3550538 -0.21313508
v -1 0.35399395 0.22131342
v -0.9380001 -0.3530388 -0.2346755
v 0.9380001 -0.3530388 -0.2346755
v 0.9380001 -0.14879476 -0.2346755
v -0.9380001 -0.14879476 -0.2346755
v -0.9380001 -0.10365987 -0.2346755
v 0.9380001 -0.10365987 -0.2346755
v 0.9380001 0.09986511 -0.2346755
v -0.9380001 0.09986511 -0.2346755
v -0.9380001 0.14332815 -0.2346755
v 0.9380001 0.14332815 -0.2346755
v 0.9380001 0.35410404 -0.2346755
v -0.9380001 0.35410404 -0.2346755
v 0.9380001 -0.14879476 -0.21313508
v 0.9380001 -0.14879476 -0.2346755
v 0.9380001 -0.3530388 -0.2346755
v 0.9380001 -0.3530388 -0.21313508
v -0.9380001 0.14332815 -0.21313508
v -0.9380001 0.14332815 -0.2346755
v -0.9380001 0.35410404 -0.2346755
v -0.9380001 0.35410404 -0.21313508
v -0.9380001 0.09986511 -0.21313508
v -0.9380001 0.09986511 -0.2346755
v 0.9380001 0.09986511 -0.2346755
v 0.9380001 0.09986511 -0.21313508
v -0.9380001 -0.3530388 -0.21313508
v -0.9380001 -0.3530388 -0.2346755
v -0.9380001 -0.14879476 -0.2346755
v -0.9380001 -0.14879476 -0.21313508
v 0.9380001 -0.3530388 -0.21313508
v 0.9380001 -0.3530388 -0.2346755
v -0.9380001 -0.3530388 -0.2346755
v -0.9380001 -0.3530388 -0.21313508
v 0.9380001 0.09986511 -0.21313508
v 0.9380001 0.09986511 -0.2346755
v 0.9380001 -0.10365987 -0.2346755
v 0.9380001 -0.10365987 -0.21313508
v 0.9380001 0.14332815 -0.21313508
v 0.9380001 0.14332815 -0.2346755
v -0.9380001 0.14332815 -0.2346755
v -0.9380001 0.14332815 -0.21313508
v -0.9380001 -0.14879476 -0.21313508
v -0.9380001 -0.14879476 -0.2346755
v 0.9380001 -0.14879476 -0.2346755
v 0.9380001 -0.14879476 -0.21313508
v -0.9380001 -0.10365987 -0.21313508
v -0.9380001 -0.10365987 -0.2346755
v -0.9380001 0.09986511 -0.2346755
v -0.9380001 0.09986511 -0.21313508
vt 0.04675179 0.7623767
vt 0.04675179 0.8001233
vt 0.08449834 0.8001233
vt 0.08449834 0.7623767
vt 0.04675179 0.7623767
vt 0.04675179 0.8001233
vt 0.08449834 0.8001233
vt 0.08449834 0.7623767
vt 0.04675179 0.7623767
vt 0.04675179 0.8001233
vt 0.08449834 0.8001233
vt 0.08449834 0.7623767
vt 0.04675179 0.7623767
vt 0.04675179 0.8001233
vt 0.08449834 0.8001233
vt 0.08449834 0.7623767
vt 0.04675179 0.7623767
vt 0.04675179 0.8001233
vt 0.08449834 0.8001233
vt 0.08449834 0.7623767
vt 0.04675179 0.7623767
vt 0.04675179 0.8001233
vt 0.08449834 0.8001233
vt 0.08449834 0.7623767
vt 0.04675179 0.7623767
vt 0.08449834 0.7623767
vt 0.04675179 0.7623767
vt 0.04675179 0.8001233
vt 0.08449834 0.8001233
vt 0.08449834 0.7623767
vt 0.04675179 0.7623767
vt 0.04675179 0.8001233
vt 0.08449834 0.8001233
vt 0.08449834 0.7623767
vt 0.04675179 0.7623767
vt 0.04675179 0.8001233
vt 0.08449834 0.8001233
vt 0.08449834 0.7623767
vt 0.04675179 0.7623767
vt 0.04675179 0.8001233
vt 0.08449834 0.8001233
vt 0.08449834 0.7623767
vt 0.04675179 0.7623767
vt 0.04675179 0.8001233
vt 0.08449834 0.8001233
vt 0.08449834 0.7623767
vt 0.04675179 0.7623767
vt 0.04675179 0.8001233
vt 0.08449834 0.8001233
vt 0.08449834 0.7623767
vt 0.04675179 0.7623767
vt 0.04675179 0.8001233
vt 0.08449834 0.8001233
vt 0.08449834 0.7623767
vt 0.04675179 0.7623767
vt 0.04675179 0.8001233
vt 0.08449834 0.8001233
vt 0.08449834 0.7623767
vt 0.04675179 0.7623767
vt 0.04675179 0.8001233
vt 0.08449834 0.8001233
vt 0.08449834 0.7623767
vt 0.04675179 0.7623767
vt 0.04675179 0.8001233
vt 0.08449834 0.8001233
vt 0.08449834 0.7623767
vt 0.04675179 0.7623767
vt 0.04675179 0.8001233
vt 0.08449834 0.8001233
vt 0.08449834 0.7623767
vt 0.04675179 0.7623767
vt 0.04675179 0.8001233
vt 0.08449834 0.8001233
vt 0.08449834 0.7623767
vt 0.04675179 0.7623767
vt 0.04675179 0.8001233
vt 0.08449834 0.8001233
vt 0.08449834 0.7623767
vt 0.04675179 0.7623767
vt 0.04675179 0.8001233
vt 0.08449834 0.8001233
vt 0.08449834 0.7623767
vt 0.04675179 0.7623767
vt 0.04675179 0.8001233
vt 0.08449834 0.8001233
vt 0.08449834 0.7623767
vt 0.04675179 0.7623767
vt 0.04675179 0.8001233
vt 0.08449834 0.8001233
vt 0.08449834 0.7623767
vt 0.04675179 0.7623767
vt 0.08449834 0.8001233
vt 0.08449834 0.7623767
vt 0.04675179 0.7623767
vt 0.08449834 0.8001233
vt 0.08449834 0.7623767
vt 0.04675179 0.7623767
vt 0.04675179 0.8001233
vt 0.08449834 0.8001233
vt 0.08449834 0.7623767
vt 0.04675179 0.7623767
vt 0.04675179 0.8001233
vt 0.08449834 0.8001233
vt 0.08449834 0.7623767
vt 0.04675179 0.7623767
vt 0.04675179 0.8001233
vt 0.08449834 0.8001233
vt 0.08449834 0.7623767
vt 0.04675179 0.7623767
vt 0.08449834 0.8001233
vt 0.08449834 0.7623767
vt 0.04675179 0.7623767
vt 0.04675179 0.8001233
vt 0.08449834 0.8001233
vt 0.08449834 0.7623767
vt 0.04675179 0.7623767
vt 0.04675179 0.8001233
vt 0.08449834 0.8001233
vt 0.08449834 0.7623767
vt 0.04675179 0.7623767
vt 0.04675179 0.8001233
vt 0.08449834 0.8001233
vt 0.08449834 0.7623767
vt 0.04675179 0.7623767
vt 0.04675179 0.8001233
vt 0.08449834 0.8001233
vt 0.08449834 0.7623767
vt 0.04675179 0.7623767
vt 0.04675179 0.8001233
vt 0.08449834 0.8001233
vt 0.08449834 0.7623767
vt 0.04675179 0.7623767
vt 0.04675179 0.8001233
vt 0.08449834 0.8001233
vt 0.08449834 0.7623767
vt 0.04675179 0.7623767
vt 0.04675179 0.8001233
vt 0.08449834 0.8001233
vt 0.08449834 0.7623767
vt 0.04675179 0.7623767
vt 0.04675179 0.8001233
vt 0.08449834 0.8001233
vt 0.08449834 0.7623767
vt 0.04675179 0.7623767
vt 0.04675179 0.8001233
vt 0.08449834 0.8001233
vt 0.08449834 0.7623767
vt 0.04675179 0.7623767
vt 0.04675179 0.8001233
vt 0.08449834 0.8001233
vt 0.08449834 0.7623767
vt 0.04675179 0.7623767
vt 0.04675179 0.8001233
vt 0.08449834 0.8001233
vt 0.08449834 0.7623767
vt 0.04675179 0.7623767
vt 0.04675179 0.8001233
vt 0.08449834 0.8001233
vt 0.08449834 0.7623767
vt 0.04675179 0.7623767
vt 0.04675179 0.8001233
vt 0.08449834 0.8001233
vt 0.08449834 0.7623767
vt 0.04675179 0.7623767
vt 0.04675179 0.8001233
vt 0.08449834 0.8001233
vt 0.08449834 0.7623767
vt 0.04675179 0.7623767
vt 0.04675179 0.8001233
vt 0.08449834 0.8001233
vt 0.08449834 0.7623767
vt 0.04675179 0.7623767
vt 0.04675179 0.8001233
vt 0.08449834 0.8001233
vt 0.08449834 0.7623767
vt 0.04675179 0.7623767
vt 0.04675179 0.8001233
vt 0.08449834 0.8001233
vt 0.08449834 0.7623767
vt 0.04675179 0.7623767
vt 0.04675179 0.8001233
vt 0.08449834 0.8001233
vt 0.08449834 0.7623767
vt 0.04675179 0.7623767
vt 0.04675179 0.8001233
vt 0.08449834 0.8001233
vt 0.08449834 0.7623767
vt 0.04675179 0.7623767
vt 0.04675179 0.8001233
vt 0.08449834 0.8001233
vt 0.08449834 0.7623767
vt 0.04675179 0.7623767
vt 0.04675179 0.8001233
vt 0.08449834 0.8001233
vt 0.08449834 0.7623767
vt 0.04675179 0.7623767
vt 0.04675179 0.8001233
vt 0.08449834 0.8001233
vt 0.08449834 0.7623767
vt 0.04675179 0.7623767
vt 0.04675179 0.8001233
vt 0.08449834 0.8001233
vt 0.08449834 0.7623767
vt 0.04675179 0.7623767
vt 0.04675179 0.8001233
vt 0.08449834 0.8001233
vt 0.08449834 0.7623767
vt 0.04675179 0.7623767
vt 0.04675179 0.8001233
vt 0.08449834 0.8001233
vt 0.08449834 0.7623767
vt 0.04675179 0.7623767
vt 0.04675179 0.8001233
vt 0.08449834 0.8001233
vt 0.08449834 0.7623767
vt 0.04675179 0.7623767
vt 0.04675179 0.8001233
vt 0.08449834 0.8001233
vt 0.08449834 0.7623767
vt 0.04675179 0.7623767
vt 0.04675179 0.8001233
vt 0.08449834 0.8001233
vt 0.08449834 0.7623767
vt 0.04675179 0.7623767
vt 0.04675179 0.8001233
vt 0.08449834 0.8001233
vt 0.08449834 0.7623767
vt 0.04675179 0.7623767
vt 0.04675179 0.8001233
vt 0.08449834 0.8001233
vt 0.08449834 0.7623767
vt 0.04675179 0.7623767
vt 0.04675179 0.8001233
vt 0.08449834 0.8001233
vt 0.08449834 0.7623767
vt 0.04675179 0.7623767
vt 0.04675179 0.8001233
vt 0.08449834 0.8001233
vt 0.08449834 0.7623767
vt 0.04675179 0.7623767
vt 0.04675179 0.8001233
vt 0.08449834 0.8001233
vt 0.08449834 0.7623767
vt 0.04675179 0.7623767
vt 0.04675179 0.8001233
vt 0.08449834 0.8001233
vt 0.08449834 0.7623767
vt 0.04675179 0.7623767
vt 0.04675179 0.8001233
vt 0.08449834 0.8001233
vt 0.08449834 0.7623767
vt 0.04675179 0.7623767
vt 0.04675179 0.8001233
vt 0.08449834 0.8001233
vt 0.08449834 0.7623767
vt 0.04675179 0.7623767
vt 0.04675179 0.8001233
vt 0.08449834 0.8001233
vt 0.08449834 0.7623767
vt 0.04675179 0.7623767
vt 0.04675179 0.8001233
vt 0.08449834 0.8001233
vt 0.08449834 0.7623767
vt 0.04675179 0.7623767
vt 0.04675179 0.8001233
vt 0.08449834 0.8001233
vt 0.08449834 0.7623767
vt 0.04675179 0.7623767
vt 0.04675179 0.8001233
vt 0.08449834 0.8001233
vt 0.08449834 0.7623767
vt 0.04675179 0.7623767
vt 0.04675179 0.8001233
vt 0.08449834 0.8001233
vt 0.08449834 0.7623767
vt 0.04675179 0.7623767
vt 0.04675179 0.8001233
vt 0.08449834 0.8001233
vt 0.08449834 0.7623767
vt 0.04675179 0.7623767
vt 0.04675179 0.8001233
vt 0.08449834 0.8001233
vt 0.08449834 0.7623767
vt 0.04675179 0.7623767
vt 0.04675179 0.8001233
vt 0.08449834 0.8001233
vt 0.08449834 0.7623767
vt 0.04675179 0.7623767
vt 0.04675179 0.8001233
vt 0.08449834 0.8001233
vt 0.08449834 0.7623767
vt 0.04675179 0.7623767
vt 0.04675179 0.8001233
vt 0.08449834 0.8001233
vt 0.08449834 0.7623767
vt 0.04675179 0.7623767
vt 0.04675179 0.8001233
vt 0.08449834 0.8001233
vt 0.08449834 0.7623767
vt 0.04675179 0.7623767
vt 0.04675179 0.8001233
vt 0.08449834 0.8001233
vt 0.08449834 0.7623767
vt 0.04675179 0.7623767
vt 0.04675179 0.8001233
vt 0.08449834 0.8001233
vt 0.08449834 0.7623767
vt 0.04675179 0.7623767
vt 0.04675179 0.8001233
vt 0.08449834 0.8001233
vt 0.08449834 0.7623767
vt 0.04675179 0.7623767
vt 0.04675179 0.8001233
vt 0.08449834 0.8001233
vt 0.08449834 0.7623767
vt 0.04675179 0.7623767
vt 0.04675179 0.8001233
vt 0.08449834 0.8001233
vt 0.08449834 0.7623767
vt 0.04675179 0.7623767
vt 0.04675179 0.8001233
vt 0.08449834 0.8001233
vt 0.08449834 0.7623767
vt 0.04675179 0.7623767
vt 0.04675179 0.8001233
vt 0.08449834 0.8001233
vt 0.08449834 0.7623767
vt 0.04675179 0.7623767
vt 0.04675179 0.8001233
vt 0.08449834 0.8001233
vt 0.08449834 0.7623767
vt 0.04675179 0.7623767
vt 0.04675179 0.8001233
vt 0.08449834 0.8001233
vt 0.08449834 0.7623767
vt 0.04675179 0.7623767
vt 0.04675179 0.8001233
vt 0.08449834 0.8001233
vt 0.08449834 0.7623767
vt 0.04675179 0.7623767
vt 0.04675179 0.8001233
vt 0.08449834 0.8001233
vt 0.08449834 0.7623767
vt 0.04675179 0.7623767
vt 0.04675179 0.8001233
vt 0.08449834 0.8001233
vt 0.08449834 0.7623767
vt 0.04675179 0.7623767
vt 0.04675179 0.8001233
vt 0.08449834 0.8001233
vt 0.08449834 0.7623767
vt 0.04675179 0.7623767
vt 0.04675179 0.8001233
vt 0.08449834 0.8001233
vt 0.08449834 0.7623767
vt 0.04675179 0.7623767
vt 0.04675179 0.8001233
vt 0.08449834 0.8001233
vt 0.08449834 0.7623767
vt 0.04675179 0.7623767
vt 0.04675179 0.8001233
vt 0.08449834 0.8001233
vt 0.08449834 0.7623767
vt 0.04675179 0.7623767
vt 0.04675179 0.8001233
vt 0.08449834 0.8001233
vt 0.08449834 0.7623767
vt 0.04675179 0.7623767
vt 0.04675179 0.8001233
vt 0.08449834 0.8001233
vt 0.08449834 0.7623767
vt 0.04675179 0.7623767
vt 0.04675179 0.8001233
vt 0.08449834 0.8001233
vt 0.08449834 0.7623767
vt 0.04675179 0.7623767
vt 0.04675179 0.8001233
vt 0.08449834 0.8001233
vt 0.08449834 0.7623767
vt 0.04675179 0.7623767
vt 0.04675179 0.8001233
vt 0.08449834 0.8001233
vt 0.08449834 0.7623767
vt 0.04675179 0.7623767
vt 0.04675179 0.8001233
vt 0.08449834 0.8001233
vt 0.08449834 0.7623767
vt 0.04675179 0.7623767
vt 0.04675179 0.8001233
vt 0.08449834 0.8001233
vt 0.08449834 0.7623767
vt 0.04675179 0.7623767
vt 0.04675179 0.8001233
vt 0.08449834 0.8001233
vt 0.08449834 0.7623767
vt 0.04675179 0.7623767
vt 0.04675179 0.8001233
vt 0.08449834 0.8001233
vt 0.08449834 0.7623767
vt 0.04675179 0.7623767
vt 0.04675179 0.8001233
vt 0.08449834 0.8001233
vt 0.08449834 0.7623767
vt 0.04675179 0.7623767
vt 0.04675179 0.8001233
vt 0.08449834 0.8001233
vt 0.08449834 0.7623767
vt 0.04675179 0.7623767
vt 0.04675179 0.8001233
vt 0.08449834 0.8001233
vt 0.08449834 0.7623767
vn -1 0 0
vn -1 0 0
vn -1 0 0
vn -1 0 0
vn -0 0 -1
vn -0 0 -1
vn -0 0 -1
vn -0 0 -1
vn 1 0 0
vn 1 0 0
vn 1 0 0
vn 1 0 0
vn -0 0 1
vn -0 0 1
vn -0 0 1
vn -0 0 1
vn -0 -1 0
vn -0 -1 0
vn -0 -1 0
vn -0 -1 0
vn 1 0 0
vn 1 0 0
vn 1 0 0
vn 1 0 0
vn 1 0 0
vn 1 0 0
vn 0.006754012 0.7562405 -0.6542589
vn 0.006754012 0.7562405 -0.6542589
vn 0.006754012 0.7562405 -0.6542589
vn 0.006754012 0.7562405 -0.6542589
vn -0 -1 0
vn -0 -1 0
vn -0 -1 0
vn -0 -1 0
vn 1 0 0
vn 1 0 0
vn 1 0 0
vn 1 0 0
vn -1 0 0
vn -1 0 0
vn -1 0 0
vn -1 0 0
vn -0 -1 0
vn -0 -1 0
vn -0 -1 0
vn -0 -1 0
vn -0 -1 0
vn -0 -1 0
vn -0 -1 0
vn -0 -1 0
vn -0 0 1
vn -0 0 1
vn -0 0 1
vn -0 0 1
vn 0.00075142976 0.9999945 -0.0032447393
vn 0.00075142976 0.9999945 -0.0032447393
vn 0.00075142976 0.9999945 -0.0032447393
vn 0.00075142976 0.9999945 -0.0032447393
vn -0 0 1
vn -0 0 1
vn -0 0 1
vn -0 0 1
vn -0 -1 0
vn -0 -1 0
vn -0 -1 0
vn -0 -1 0
vn -0 -1 0
vn -0 -1 0
vn -0 -1 0
vn -0 -1 0
vn -0 0 1
vn -0 0 1
vn -0 0 1
vn -0 0 1
vn -0 0 1
vn -0 0 1
vn -0 0 1
vn -0 0 1
vn -0 0 -1
vn -0 0 -1
vn -0 0 -1
vn -0 0 -1
vn -0 0 -1
vn -0 0 -1
vn -0 0 -1
vn -0 0 -1
vn -0 1 0
vn -0 1 0
vn -0 1 0
vn -0 1 0
vn -1 0 0
vn -1 0 0
vn -1 0 0
vn -1 0 0
vn -1 0 0
vn -1 0 0
vn -0 1 0
vn -0 1 0
vn -0 1 0
vn -0 1 0
vn -0 1 0
vn -0 1 0
vn -0 1 0
vn -0 1 0
vn -0 0.7557809 -0.65482455
vn -0 0.7557809 -0.65482455
vn -0 0.7557809 -0.65482455
vn -0 0.7557809 -0.65482455
vn 1 0 0
vn 1 0 0
vn 1 0 0
vn -0 0 -1
vn -0 0 -1
vn -0 0 -1
vn -0 0 -1
vn -0 0 1
vn -0 0 1
vn -0 0 1
vn -0 0 1
vn -1 0 0
vn -1 0 0
vn -1 0 0
vn -1 0 0
vn -0 0 -1
vn -0 0 -1
vn -0 0 -1
vn -0 0 -1
vn -0 -1 0
vn -0 -1 0
vn -0 -1 0
vn -0 -1 0
vn -0 0 -1
vn -0 0 -1
vn -0 0 -1
vn -0 0 -1
vn 1 0 0
vn 1 0 0
vn 1 0 0
vn 1 0 0
vn -0 0 -1
vn -0 0 -1
vn -0 0 -1
vn -0 0 -1
vn -0 1 0
vn -0 1 0
vn -0 1 0
vn -0 1 0
vn -0 0 -1
vn -0 0 -1
vn -0 0 -1
vn -0 0 -1
vn -0 0 -1
vn -0 0 -1
vn -0 0 -1
vn -0 0 -1
vn -0 0 -1
vn -0 0 -1
vn -0 0 -1
vn -0 0 -1
vn -0 0 -1
vn -0 0 -1
vn -0 0 -1
vn -0 0 -1
vn -0 0 -1
vn -0 0 -1
vn -0 0 -1
vn -0 0 -1
vn -0 0 -1
vn -0 0 -1
vn -0 0 -1
vn -0 0 -1
vn -0 0 1
vn -0 0 1
vn -0 0 1
vn -0 0 1
vn -0 0 1
vn -0 0 1
vn -0 0 1
vn -0 0 1
vn -0 0 1
vn -0 0 1
vn -0 0 1
vn -0 0 1
vn -0 0 1
vn -0 0 1
vn -0 0 1
vn -0 0 1
vn -0 0 1
vn -0 0 1
vn -0 0 1
vn -0 0 1
vn -0 0 1
vn -0 0 1
vn -0 0 1
vn -0 0 1
vn -0 0 1
vn -0 0 1
vn -0 0 1
vn -0 0 1
vn -0 0 1
vn -0 0 1
vn -0 0 1
vn -0 0 1
vn -0 0 1
vn -0 0 1
vn -0 0 1
vn -0 0 1
vn -0 0 1
vn -0 0 1
vn -0 0 1
vn -0 0 1
vn -0 0 1
vn -0 0 1
vn -0 0 1
vn -0 0 1
vn -0 0 1
vn -0 0 1
vn -0 0 1
vn -0 0 1
vn -1 0 0
vn -1 0 0
vn -1 0 0
vn -1 0 0
vn -1 0 0
vn -1 0 0
vn -1 0 0
vn -1 0 0
vn -1 0 0
vn -1 0 0
vn -1 0 0
vn -1 0 0
vn -1 0 0
vn -1 0 0
vn -1 0 0
vn -1 0 0
vn -1 0 0
vn -1 0 0
vn -1 0 0
vn -1 0 0
vn -1 0 0
vn -1 0 0
vn -1 0 0
vn -1 0 0
vn 1 0 0
vn 1 0 0
vn 1 0 0
vn 1 0 0
vn 1 0 0
vn 1 0 0
vn 1 0 0
vn 1 0 0
vn 1 0 0
vn 1 0 0
vn 1 0 0
vn 1 0 0
vn 1 0 0
vn 1 0 0
vn 1 0 0
vn 1 0 0
vn 1 0 0
vn 1 0 0
vn 1 0 0
vn 1 0 0
vn 1 0 0
vn 1 0 0
vn 1 0 0
vn 1 0 0
vn -0 0 1
vn -0 0 1
vn -0 0 1
vn -0 0 1
vn -0 0 1
vn -0 0 1
vn -0 0 1
vn -0 0 1
vn -0 0 1
vn -0 0 1
vn -0 0 1
vn -0 0 1
vn -0 0 1
vn -0 0 1
vn -0 0 1
vn -0 0 1
vn -0 0 1
vn -0 0 1
vn -0 0 1
vn -0 0 1
vn -0 0 1
vn -0 0 1
vn -0 0 1
vn -0 0 1
vn 1 0 0
vn 1 0 0
vn 1 0 0
vn 1 0 0
vn 1 0 0
vn 1 0 0
vn 1 0 0
vn 1 0 0
vn 1 0 0
vn 1 0 0
vn 1 0 0
vn 1 0 0
vn 1 0 0
vn 1 0 0
vn 1 0 0
vn 1 0 0
vn 1 0 0
vn 1 0 0
vn 1 0 0
vn 1 0 0
vn 1 0 0
vn 1 0 0
vn 1 0 0
vn 1 0 0
vn -0 0 -1
vn -0 0 -1
vn -0 0 -1
vn -0 0 -1
vn -0 0 -1
vn -0 0 -1
vn -0 0 -1
vn -0 0 -1
vn -0 0 -1
vn -0 0 -1
vn -0 0 -1
vn -0 0 -1
vn -0 0 -1
vn -0 0 -1
vn -0 0 -1
vn -0 0 -1
vn -0 0 -1
vn -0 0 -1
vn -0 0 -1
vn -0 0 -1
vn -0 0 -1
vn -0 0 -1
vn -0 0 -1
vn -0 0 -1
vn -1 0 0
vn -1 0 0
vn -1 0 0
vn -1 0 0
vn -1 0 0
vn -1 0 0
vn -1 0 0
vn -1 0 0
vn -1 0 0
vn -1 0 0
vn -1 0 0
vn -1 0 0
vn -1 0 -1.6846703E-07
vn -1 0 -1.6846703E-07
vn -1 0 -1.6846703E-07
vn -1 0 -1.6846703E-07
vn -1 0 0
vn -1 0 0
vn -1 0 0
vn -1 0 0
vn -1 0 0
vn -1 0 0
vn -1 0 0
vn -1 0 0
vn -0 0 -1
vn -0 0 -1
vn -0 0 -1
vn -0 0 -1
vn -0 0 -1
vn -0 0 -1
vn -0 0 -1
vn -0 0 -1
vn -0 0 -1
vn -0 0 -1
vn -0 0 -1
vn -0 0 -1
vn 1 0 0
vn 1 0 0
vn 1 0 0
vn 1 0 0
vn -1 0 0
vn -1 0 0
vn -1 0 0
vn -1 0 0
vn -0 1 0
vn -0 1 0
vn -0 1 0
vn -0 1 0
vn -1 0 0
vn -1 0 0
vn -1 0 0
vn -1 0 0
vn -0 -1 0
vn -0 -1 0
vn -0 -1 0
vn -0 -1 0
vn 1 0 0
vn 1 0 0
vn 1 0 0
vn 1 0 0
vn -0 -1 0
vn -0 -1 0
vn -0 -1 0
vn -0 -1 0
vn -0 1 0
vn -0 1 0
vn -0 1 0
vn -0 1 0
vn -1 0 0
vn -1 0 0
vn -1 0 0
vn -1 0 0
g Desk_0
f 3/3/3 2/2/2 1/1/1
f 4/4/4 3/3/3 1/1/1
f 7/7/7 6/6/6 5/5/5
f 8/8/8 7/7/7 5/5/5
f 11/11/11 10/10/10 9/9/9
f 12/12/12 11/11/11 9/9/9
f 15/15/15 14/14/14 13/13/13
f 16/16/16 15/15/15 13/13/13
f 19/19/19 18/18/18 17/17/17
f 20/20/20 19/19/19 17/17/17
f 23/23/23 22/22/22 21/21/21
f 24/24/24 23/23/23 21/21/21
f 26/26/26 23/23/23 25/25/25
f 29/29/29 28/28/28 27/27/27
f 30/30/30 29/29/29 27/27/27
f 33/33/33 32/32/32 31/31/31
f 34/34/34 33/33/33 31/31/31
f 37/37/37 36/36/36 35/35/35
f 38/38/38 37/37/37 35/35/35
f 41/41/41 40/40/40 39/39/39
f 42/42/42 41/41/41 39/39/39
f 45/45/45 44/44/44 43/43/43
f 46/46/46 45/45/45 43/43/43
f 49/49/49 48/48/48 47/47/47
f 50/50/50 49/49/49 47/47/47
f 53/53/53 52/52/52 51/51/51
f 54/54/54 53/53/53 51/51/51
f 57/57/57 56/56/56 55/55/55
f 58/58/58 57/57/57 55/55/55
f 61/61/61 60/60/60 59/59/59
f 62/62/62 61/61/61 59/59/59
f 65/65/65 64/64/64 63/63/63
f 66/66/66 65/65/65 63/63/63
f 69/69/69 68/68/68 67/67/67
f 70/70/70 69/69/69 67/67/67
f 73/73/73 72/72/72 71/71/71
f 74/74/74 73/73/73 71/71/71
f 77/77/77 76/76/76 75/75/75
f 78/78/78 77/77/77 75/75/75
f 81/81/81 80/80/80 79/79/79
f 82/82/82 81/81/81 79/79/79
f 85/85/85 84/84/84 83/83/83
f 86/86/86 85/85/85 83/83/83
f 89/89/89 88/88/88 87/87/87
f 90/90/90 89/89/89 87/87/87
f 93/93/93 92/92/92 91/91/91
f 96/96/96 95/95/95 94/94/94
f 99/99/99 98/98/98 97/97/97
f 100/100/100 99/99/99 97/97/97
f 103/103/103 102/102/102 101/101/101
f 104/104/104 103/103/103 101/101/101
f 107/107/107 106/106/106 105/105/105
f 108/108/108 107/107/107 105/105/105
f 111/111/111 110/110/110 109/109/109
f 114/114/114 113/113/113 112/112/112
f 115/115/115 114/114/114 112/112/112
f 118/118/118 117/117/117 116/116/116
f 119/119/119 118/118/118 116/116/116
f 122/122/122 121/121/121 120/120/120
f 123/123/123 122/122/122 120/120/120
f 126/126/126 125/125/125 124/124/124
f 127/127/127 126/126/126 124/124/124
f 130/130/130 129/129/129 128/128/128
f 131/131/131 130/130/130 128/128/128
f 134/134/134 133/133/133 132/132/132
f 135/135/135 134/134/134 132/132/132
f 138/138/138 137/137/137 136/136/136
f 139/139/139 138/138/138 136/136/136
f 142/142/142 141/141/141 140/140/140
f 143/143/143 142/142/142 140/140/140
f 146/146/146 145/145/145 144/144/144
f 147/147/147 146/146/146 144/144/144
f 150/150/150 149/149/149 148/148/148
f 151/151/151 150/150/150 148/148/148
f 154/154/154 153/153/153 152/152/152
f 155/155/155 154/154/154 152/152/152
f 158/158/158 157/157/157 156/156/156
f 159/159/159 158/158/158 156/156/156
f 162/162/162 161/161/161 160/160/160
f 163/163/163 162/162/162 160/160/160
f 166/166/166 165/165/165 164/164/164
f 167/167/167 166/166/166 164/164/164
f 170/170/170 169/169/169 168/168/168
f 171/171/171 170/170/170 168/168/168
f 174/174/174 173/173/173 172/172/172
f 175/175/175 174/174/174 172/172/172
f 178/178/178 177/177/177 176/176/176
f 179/179/179 178/178/178 176/176/176
f 182/182/182 181/181/181 180/180/180
f 183/183/183 182/182/182 180/180/180
f 186/186/186 185/185/185 184/184/184
f 187/187/187 186/186/186 184/184/184
f 190/190/190 189/189/189 188/188/188
f 191/191/191 190/190/190 188/188/188
f 194/194/194 193/193/193 192/192/192
f 195/195/195 194/194/194 192/192/192
f 198/198/198 197/197/197 196/196/196
f 199/199/199 198/198/198 196/196/196
f 202/202/202 201/201/201 200/200/200
f 203/203/203 202/202/202 200/200/200
f 206/206/206 205/205/205 204/204/204
f 207/207/207 206/206/206 204/204/204
f 210/210/210 209/209/209 208/208/208
f 211/211/211 210/210/210 208/208/208
f 214/214/214 213/213/213 212/212/212
f 215/215/215 214/214/214 212/212/212
f 218/218/218 217/217/217 216/216/216
f 219/219/219 218/218/218 216/216/216
f 222/222/222 221/221/221 220/220/220
f 223/223/223 222/222/222 220/220/220
f 226/226/226 225/225/225 224/224/224
f 227/227/227 226/226/226 224/224/224
f 230/230/230 229/229/229 228/228/228
f 231/231/231 230/230/230 228/228/228
f 234/234/234 233/233/233 232/232/232
f 235/235/235 234/234/234 232/232/232
f 238/238/238 237/237/237 236/236/236
f 239/239/239 238/238/238 236/236/236
f 242/242/242 241/241/241 240/240/240
f 243/243/243 242/242/242 240/240/240
f 246/246/246 245/245/245 244/244/244
f 247/247/247 246/246/246 244/244/244
f 250/250/250 249/249/249 248/248/248
f 251/251/251 250/250/250 248/248/248
f 254/254/254 253/253/253 252/252/252
f 255/255/255 254/254/254 252/252/252
f 258/258/258 257/257/257 256/256/256
f 259/259/259 258/258/258 256/256/256
f 262/262/262 261/261/261 260/260/260
f 263/263/263 262/262/262 260/260/260
f 266/266/266 265/265/265 264/264/264
f 267/267/267 266/266/266 264/264/264
f 270/270/270 269/269/269 268/268/268
f 271/271/271 270/270/270 268/268/268
f 274/274/274 273/273/273 272/272/272
f 275/275/275 274/274/274 272/272/272
f 278/278/278 277/277/277 276/276/276
f 279/279/279 278/278/278 276/276/276
f 282/282/282 281/281/281 280/280/280
f 283/283/283 282/282/282 280/280/280
f 286/286/286 285/285/285 284/284/284
f 287/287/287 286/286/286 284/284/284
f 290/290/290 289/289/289 288/288/288
f 291/291/291 290/290/290 288/288/288
f 294/294/294 293/293/293 292/292/292
f 295/295/295 294/294/294 292/292/292
f 298/298/298 297/297/297 296/296/296
f 299/299/299 298/298/298 296/296/296
f 302/302/302 301/301/301 300/300/300
f 303/303/303 302/302/302 300/300/300
f 306/306/306 305/305/305 304/304/304
f 307/307/307 306/306/306 304/304/304
f 310/310/310 309/309/309 308/308/308
f 311/311/311 310/310/310 308/308/308
f 314/314/314 313/313/313 312/312/312
f 315/315/315 314/314/314 312/312/312
f 318/318/318 317/317/317 316/316/316
f 319/319/319 318/318/318 316/316/316
f 322/322/322 321/321/321 320/320/320
f 323/323/323 322/322/322 320/320/320
f 326/326/326 325/325/325 324/324/324
f 327/327/327 326/326/326 324/324/324
f 330/330/330 329/329/329 328/328/328
f 331/331/331 330/330/330 328/328/328
f 334/334/334 333/333/333 332/332/332
f 335/335/335 334/334/334 332/332/332
f 338/338/338 337/337/337 336/336/336
f 339/339/339 338/338/338 336/336/336
f 342/342/342 341/341/341 340/340/340
f 343/343/343 342/342/342 340/340/340
f 346/346/346 345/345/345 344/344/344
f 347/347/347 346/346/346 344/344/344
f 350/350/350 349/349/349 348/348/348
f 351/351/351 350/350/350 348/348/348
f 354/354/354 353/353/353 352/352/352
f 355/355/355 354/354/354 352/352/352
f 358/358/358 357/357/357 356/356/356
f 359/359/359 358/358/358 356/356/356
f 362/362/362 361/361/361 360/360/360
f 363/363/363 362/362/362 360/360/360
f 366/366/366 365/365/365 364/364/364
f 367/367/367 366/366/366 364/364/364
f 370/370/370 369/369/369 368/368/368
f 371/371/371 370/370/370 368/368/368
f 374/374/374 373/373/373 372/372/372
f 375/375/375 374/374/374 372/372/372
f 378/378/378 377/377/377 376/376/376
f 379/379/379 378/378/378 376/376/376
f 382/382/382 381/381/381 380/380/380
f 383/383/383 382/382/382 380/380/380
f 386/386/386 385/385/385 384/384/384
f 387/387/387 386/386/386 384/384/384
f 390/390/390 389/389/389 388/388/388
f 391/391/391 390/390/390 388/388/388
f 394/394/394 393/393/393 392/392/392
f 395/395/395 394/394/394 392/392/392
f 398/398/398 397/397/397 396/396/396
f 399/399/399 398/398/398 396/396/396
f 402/402/402 401/401/401 400/400/400
f 403/403/403 402/402/402 400/400/400
f 406/406/406 405/405/405 404/404/404
f 407/407/407 406/406/406 404/404/404
f 410/410/410 409/409/409 408/408/408
f 411/411/411 410/410/410 408/408/408
