g Knife
v -0.0106026335 -0.011044809 -0.09991031
v -0.0073844437 -0.007692406 -0.104492545
v -0.0073844437 0.007692406 -0.104492545
v -0.0106026335 0.011044809 -0.09991031
v -0.0073844437 -0.007692406 -0.104492545
v 0.0073844437 -0.007692406 -0.104492545
v 0.0073844437 0.007692406 -0.104492545
v -0.0073844437 0.007692406 -0.104492545
v 0.0106026335 -0.011044809 -0.10005571
v 0.0106026335 -0.011044809 0.041606307
v 0.0106026335 0.011044809 0.041606307
v 0.0106026335 0.011044809 -0.10005571
v -0.0106026335 -0.011044809 0.044035316
v -0.0106026335 -0.005124593 0.24118488
v 0.0106026335 -0.003683644 0.2193955
v 0.0106026335 -0.011044809 0.041606307
v -0.0106026335 -0.011044809 -0.09991031
v -0.0106026335 -0.011044809 0.044035316
v 0.0106026335 -0.011044809 0.041606307
v 0.0106026335 -0.011044809 -0.10005571
v 0.0106026335 0.011044809 -0.10005571
v 0.0106026335 0.011044809 0.041606307
v -0.0106026335 0.011044809 0.044035316
v -0.0106026335 0.011044809 -0.09991031
v 0.0106026335 -0.003683644 0.2193955
v -0.0106026335 -0.005124593 0.24118488
v -0.0106026335 0.0051245927 0.24118488
v 0.0106026335 0.003683644 0.2193955
v 0.0106026335 0.011044809 0.041606307
v 0.0106026335 0.003683644 0.2193955
v -0.0106026335 0.0051245927 0.24118488
v -0.0106026335 0.011044809 0.044035316
v 0.023518557 0.003599741 0.07884666
v 0.035576504 0.0030429068 0.11509892
v 0.035665672 0.0030429068 0.16515468
v 0.023407768 0.0036507475 0.19905053
v -0.0106026335 0.011044809 0.044035316
v -0.0106026335 0.0051245927 0.24118488
v -0.0106026335 -0.005124593 0.24118488
v -0.0106026335 -0.011044809 0.044035316
v -0.0106026335 0.011044809 -0.09991031
v -0.0106026335 -0.011044809 -0.09991031
v 0.035576504 -0.0030429068 0.11509892
v 0.035665672 -0.0030429068 0.16515468
v 0.035665672 0.0030429068 0.16515468
v 0.035576504 0.0030429068 0.11509892
v 0.023407768 0.0036507475 0.19905053
v 0.035665672 0.0030429068 0.16515468
v 0.035665672 -0.0030429068 0.16515468
v 0.023407768 -0.0036507475 0.19905053
v 0.023518557 -0.003599741 0.07884666
v 0.035576504 -0.0030429068 0.11509892
v 0.035576504 0.0030429068 0.11509892
v 0.023518557 0.003599741 0.07884666
v 0.0106026335 -0.011044809 0.041606307
v 0.0106026335 0.011044809 0.041606307
v 0.023407768 -0.0036507475 0.19905053
v 0.035665672 -0.0030429068 0.16515468
v 0.035576504 -0.0030429068 0.11509892
v 0.023518557 -0.003599741 0.07884666
v 0.0106026335 -0.003683644 0.2193955
v 0.023407768 -0.0036507475 0.19905053
v 0.023518557 -0.003599741 0.07884666
v 0.0106026335 -0.011044809 0.041606307
v 0.0106026335 0.003683644 0.2193955
v 0.023407768 0.0036507475 0.19905053
v 0.023407768 -0.0036507475 0.19905053
v 0.0106026335 -0.003683644 0.2193955
v 0.0106026335 0.011044809 0.041606307
v 0.023518557 0.003599741 0.07884666
v 0.023407768 0.0036507475 0.19905053
v 0.0106026335 0.003683644 0.2193955
v 0.0073844437 0.007692406 -0.104492545
v 0.0106026335 0.011044809 -0.10005571
v -0.0106026335 0.011044809 -0.09991031
v -0.0073844437 0.007692406 -0.104492545
v -0.0073844437 -0.007692406 -0.104492545
v -0.0106026335 -0.011044809 -0.09991031
v 0.0106026335 -0.011044809 -0.10005571
v 0.0073844437 -0.007692406 -0.104492545
v 0.0073844437 -0.007692406 -0.104492545
v 0.0106026335 -0.011044809 -0.10005571
v 0.0106026335 0.011044809 -0.10005571
v 0.0073844437 0.007692406 -0.104492545
vn -0.81833893 0 -0.574736
vn -0.81833893 0 -0.574736
vn -0.81833893 0 -0.574736
vn -0.81833893 0 -0.574736
vn -0 0 -1
vn -0 0 -1
vn -0 0 -1
vn -0 0 -1
vn 1 0 0
vn 1 0 0
vn 1 0 0
vn 1 0 0
vn 0.054091 -0.9979101 0.03534877
vn 0.054091 -0.9979101 0.03534877
vn 0.054091 -0.9979101 0.03534877
vn 0.054091 -0.9979101 0.03534877
vn -0 -1 0
vn -0 -1 0
vn -0 -1 0
vn -0 -1 0
vn -0 1 0
vn -0 1 0
vn -0 1 0
vn -0 1 0
vn 0.7166471 0 0.697436
vn 0.7166471 0 0.697436
vn 0.7166471 0 0.697436
vn 0.7166471 0 0.697436
vn 0.054090947 0.9979101 0.03534877
vn 0.054090947 0.9979101 0.03534877
vn 0.054090947 0.9979101 0.03534877
vn 0.054090947 0.9979101 0.03534877
vn 0.047871254 0.99885345 -0.0002931563
vn 0.047871254 0.99885345 -0.0002931563
vn 0.047871254 0.99885345 -0.0002931563
vn 0.047871254 0.99885345 -0.0002931563
vn -1 0 0
vn -1 0 0
vn -1 0 0
vn -1 0 0
vn -1 0 0
vn -1 0 0
vn 0.99999845 0 -0.0017814037
vn 0.99999845 0 -0.0017814037
vn 0.99999845 0 -0.0017814037
vn 0.99999845 0 -0.0017814037
vn 0.94039655 0 0.34007975
vn 0.94039655 0 0.34007975
vn 0.94039655 0 0.34007975
vn 0.94039655 0 0.34007975
vn 0.9488884 0 -0.3156118
vn 0.9488884 0 -0.3156118
vn 0.9488884 0 -0.3156118
vn 0.9488884 0 -0.3156118
vn 0.9447896 0 -0.32767764
vn 0.9447896 0 -0.32767764
vn 0.04787127 -0.99885345 -0.0002931563
vn 0.04787127 -0.99885345 -0.0002931563
vn 0.04787127 -0.99885345 -0.0002931563
vn 0.04787127 -0.99885345 -0.0002931563
vn 0.26468033 -0.9640438 0.023747645
vn 0.26468033 -0.9640438 0.023747645
vn 0.26468033 -0.9640438 0.023747645
vn 0.26468033 -0.9640438 0.023747645
vn 0.84632003 0 0.53267473
vn 0.84632003 0 0.53267473
vn 0.84632003 0 0.53267473
vn 0.84632003 0 0.53267473
vn 0.26468033 0.9640438 0.023747645
vn 0.26468033 0.9640438 0.023747645
vn 0.26468033 0.9640438 0.023747645
vn 0.26468033 0.9640438 0.023747645
vn -0.0024113026 0.80253154 -0.59660476
vn -0.0024113026 0.80253154 -0.59660476
vn -0.0024113026 0.80253154 -0.59660476
vn -0.0024113026 0.80253154 -0.59660476
vn -0.0024113026 -0.80253154 -0.59660476
vn -0.0024113026 -0.80253154 -0.59660476
vn -0.0024113026 -0.80253154 -0.59660476
vn -0.0024113026 -0.80253154 -0.59660476
vn 0.8094813 0 -0.5871457
vn 0.8094813 0 -0.5871457
vn 0.8094813 0 -0.5871457
vn 0.8094813 0 -0.5871457
g Knife_0
f 3/3/3 2/2/2 1/1/1
f 4/4/4 3/3/3 1/1/1
f 7/7/7 6/6/6 5/5/5
f 8/8/8 7/7/7 5/5/5
f 11/11/11 10/10/10 9/9/9
f 12/12/12 11/11/11 9/9/9
f 15/15/15 14/14/14 13/13/13
f 16/16/16 15/15/15 13/13/13
f 19/19/19 18/18/18 17/17/17
f 20/20/20 19/19/19 17/17/17
f 23/23/23 22/22/22 21/21/21
f 24/24/24 23/23/23 21/21/21
f 27/27/27 26/26/26 25/25/25
f 28/28/28 27/27/27 25/25/25
f 31/31/31 30/30/30 29/29/29
f 32/32/32 31/31/31 29/29/29
f 35/35/35 34/34/34 33/33/33
f 36/36/36 35/35/35 33/33/33
f 39/39/39 38/38/38 37/37/37
f 40/40/40 39/39/39 37/37/37
f 37/37/37 41/41/41 40/40/40
f 41/41/41 42/42/42 40/40/40
f 45/45/45 44/44/44 43/43/43
f 46/46/46 45/45/45 43/43/43
f 49/49/49 48/48/48 47/47/47
f 50/50/50 49/49/49 47/47/47
f 53/53/53 52/52/52 51/51/51
f 54/54/54 53/53/53 51/51/51
f 54/54/54 51/51/51 55/55/55
f 56/56/56 54/54/54 55/55/55
f 59/59/59 58/58/58 57/57/57
f 60/60/60 59/59/59 57/57/57
f 63/63/63 62/62/62 61/61/61
f 64/64/64 63/63/63 61/61/61
f 67/67/67 66/66/66 65/65/65
f 68/68/68 67/67/67 65/65/65
f 71/71/71 70/70/70 69/69/69
f 72/72/72 71/71/71 69/69/69
f 75/75/75 74/74/74 73/73/73
f 76/76/76 75/75/75 73/73/73
f 79/79/79 78/78/78 77/77/77
f 80/80/80 79/79/79 77/77/77
f 83/83/83 82/82/82 81/81/81
f 84/84/84 83/83/83 81/81/81
