g Fork
v -0.011948778 -0.0106989965 -0.12468827
v -0.008597518 -0.0076982616 -0.1307211
v -0.008597518 0.0076982616 -0.1307211
v -0.011948778 0.0106989965 -0.12468827
v -0.008597518 -0.0076982616 -0.1307211
v 0.008597518 -0.0076982616 -0.1307211
v 0.008597518 0.0076982616 -0.1307211
v -0.008597518 0.0076982616 -0.1307211
v 0.0067681023 -0.0060601924 0.08218569
v 0.003845351 -0.0034431466 0.10082436
v 0.003845351 0.0034431466 0.10082436
v 0.0067681023 0.0060601924 0.08218569
v 0.011948778 -0.0106989965 0.054266013
v 0.011948778 0.0106989965 0.054266013
v 0.003845351 -0.0034431466 0.10082436
v -0.003845351 -0.0034431466 0.10082436
v -0.003845351 0.0034431466 0.10082436
v 0.003845351 0.0034431466 0.10082436
v -0.0067681023 -0.0060601924 0.08218569
v -0.003845351 -0.0034431466 0.10082436
v 0.003845351 -0.0034431466 0.10082436
v 0.0067681023 -0.0060601924 0.08218569
v -0.011948778 -0.0106989965 0.054266013
v 0.011948778 -0.0106989965 0.054266013
v 0.0067681023 0.0060601924 0.08218569
v 0.003845351 0.0034431466 0.10082436
v -0.003845351 0.0034431466 0.10082436
v -0.0067681023 0.0060601924 0.08218569
v 0.011948778 0.0106989965 0.054266013
v -0.011948778 0.0106989965 0.054266013
v -0.003845351 -0.0034431466 0.10082436
v -0.0067681023 -0.0060601924 0.08218569
v -0.0067681023 0.0060601924 0.08218569
v -0.003845351 0.0034431466 0.10082436
v -0.011948778 0.0106989965 0.054266013
v -0.011948778 -0.0106989965 0.054266013
v 0.011948778 -0.0106989965 0.017404914
v 0.011948778 -0.0106989965 0.054266013
v 0.011948778 0.0106989965 0.054266013
v 0.011948778 0.0106989965 0.017404914
v 0.011948778 -0.0106989965 -0.12468827
v 0.011948778 0.0106989965 -0.12468827
v -0.011948778 -0.0106989965 0.017404914
v -0.011948778 -0.0106989965 0.054266013
v 0.011948778 -0.0106989965 0.054266013
v 0.011948778 -0.0106989965 0.017404914
v -0.011948778 -0.0106989965 -0.12468827
v 0.011948778 -0.0106989965 -0.12468827
v 0.011948778 0.0106989965 0.017404914
v 0.011948778 0.0106989965 0.054266013
v -0.011948778 0.0106989965 0.054266013
v -0.011948778 0.0106989965 0.017404914
v 0.011948778 0.0106989965 -0.12468827
v -0.011948778 0.0106989965 -0.12468827
v -0.011948778 -0.0106989965 0.054266013
v -0.011948778 -0.0106989965 0.017404914
v -0.011948778 0.0106989965 0.017404914
v -0.011948778 0.0106989965 0.054266013
v -0.011948778 0.0106989965 -0.12468827
v -0.011948778 -0.0106989965 -0.12468827
v 0.008597518 -0.0076982616 -0.1307211
v 0.011948778 -0.0106989965 -0.12468827
v 0.011948778 0.0106989965 -0.12468827
v 0.008597518 0.0076982616 -0.1307211
v -0.008597518 -0.0076982616 -0.1307211
v -0.011948778 -0.0106989965 -0.12468827
v 0.011948778 -0.0106989965 -0.12468827
v 0.008597518 -0.0076982616 -0.1307211
v 0.008597518 0.0076982616 -0.1307211
v 0.011948778 0.0106989965 -0.12468827
v -0.011948778 0.0106989965 -0.12468827
v -0.008597518 0.0076982616 -0.1307211
v -0.02100812 -0.0046595624 0.102089174
v -0.016914513 -0.003751622 0.10007175
v -0.016914513 0.003751623 0.10007175
v -0.02100812 0.0046595633 0.102089174
v 0.012082419 -0.003751623 0.10007175
v 0.016915243 -0.003751623 0.10007175
v 0.016915243 0.003751622 0.10007175
v 0.012082419 0.003751622 0.10007175
v 0.007249598 -0.0037516227 0.10007175
v 0.007249598 0.0037516227 0.10007175
v 0.0024167758 -0.0037516227 0.10007175
v 0.0024167758 0.0037516227 0.10007175
v -0.002416046 -0.0037516227 0.10007175
v -0.002416046 0.0037516227 0.10007175
v -0.0072488687 -0.0037516227 0.10007175
v -0.0072488687 0.0037516227 0.10007175
v -0.012081689 -0.003751622 0.10007175
v -0.012081689 0.003751623 0.10007175
v -0.016914513 -0.003751622 0.10007175
v -0.016914513 0.003751623 0.10007175
v 0.022825304 -0.0050624413 0.104597464
v 0.022825304 -0.0050624413 0.107296266
v 0.022825304 0.0050624404 0.107296266
v 0.022825304 0.0050624404 0.104597464
v 0.022825304 0.0050624404 0.14708261
v 0.022825304 -0.0050624413 0.14708261
v -0.009781753 0.0050624413 0.14708261
v -0.0075468644 0.012544701 0.18686897
v -0.0075468644 0.011708015 0.18686897
v -0.009781753 -0.0050624404 0.14708261
v 0.016303895 -0.0050624413 0.104597464
v 0.016303895 -0.0050624413 0.107296266
v 0.022825304 -0.0050624413 0.107296266
v 0.022825304 -0.0050624413 0.104597464
v 0.009782482 -0.0050624413 0.104597464
v 0.009782482 -0.0050624413 0.107296266
v 0.0032610702 -0.0050624413 0.104597464
v 0.0032610702 -0.0050624413 0.107296266
v -0.003260341 -0.0050624413 0.104597464
v -0.003260341 -0.0050624413 0.107296266
v -0.009781753 -0.0050624404 0.104597464
v -0.009781753 -0.0050624404 0.107296266
v -0.016303165 -0.0050624404 0.104597464
v -0.016303165 -0.0050624404 0.107296266
v -0.022824576 -0.0050624404 0.104597464
v -0.022824576 -0.0050624404 0.107296266
v 0.022825304 -0.0050624413 0.14708261
v 0.016303895 -0.0050624413 0.14708261
v 0.009782482 -0.0050624413 0.14708261
v 0.0032610702 -0.0050624413 0.14708261
v -0.003260341 -0.0050624413 0.14708261
v -0.009781753 -0.0050624404 0.14708261
v -0.016303165 -0.0050624404 0.14708261
v -0.022824576 -0.0050624404 0.14708261
v -0.016303165 0.0050624413 0.104597464
v -0.016303165 0.0050624413 0.107296266
v -0.022824576 0.0050624413 0.107296266
v -0.022824576 0.0050624413 0.104597464
v -0.009781753 0.0050624413 0.104597464
v -0.009781753 0.0050624413 0.107296266
v -0.003260341 0.0050624413 0.104597464
v -0.003260341 0.0050624413 0.107296266
v 0.0032610702 0.0050624413 0.104597464
v 0.0032610702 0.0050624413 0.107296266
v 0.009782482 0.0050624404 0.104597464
v 0.009782482 0.0050624404 0.107296266
v 0.016303895 0.0050624404 0.104597464
v 0.016303895 0.0050624404 0.107296266
v 0.022825304 0.0050624404 0.104597464
v 0.022825304 0.0050624404 0.107296266
v 0.016303895 0.0050624404 0.14708261
v 0.022825304 0.0050624404 0.14708261
v 0.0032610702 0.0050624413 0.14708261
v 0.009782482 0.0050624404 0.14708261
v -0.009781753 0.0050624413 0.14708261
v -0.003260341 0.0050624413 0.14708261
v -0.003260341 -0.0050624413 0.14708261
v -0.005495228 0.011708015 0.18686897
v -0.005495228 0.012544701 0.18686897
v -0.003260341 0.0050624413 0.14708261
v 0.016303895 -0.0050624413 0.107296266
v 0.009782482 -0.0050624413 0.107296266
v 0.009782482 0.0050624404 0.107296266
v 0.016303895 0.0050624404 0.107296266
v 0.0032610702 -0.0050624413 0.14708261
v 0.0055876174 0.011850321 0.18686897
v 0.0074559343 0.011850321 0.18686897
v 0.009782482 -0.0050624413 0.14708261
v 0.0032610702 -0.0050624413 0.107296266
v -0.003260341 -0.0050624413 0.107296266
v -0.003260341 0.0050624413 0.107296266
v 0.0032610702 0.0050624413 0.107296266
v 0.0032610702 0.0050624413 0.14708261
v 0.0055876174 0.012402394 0.18686897
v 0.0055876174 0.011850321 0.18686897
v 0.0032610702 -0.0050624413 0.14708261
v -0.009781753 -0.0050624404 0.107296266
v -0.016303165 -0.0050624404 0.107296266
v -0.016303165 0.0050624413 0.107296266
v -0.009781753 0.0050624413 0.107296266
v -0.018462379 0.0115905255 0.18686897
v -0.020665364 0.0115905255 0.18686897
v -0.020665364 0.01266219 0.18686897
v -0.018462379 0.01266219 0.18686897
v 0.02064918 0.011616785 0.18686897
v 0.018480023 0.011616785 0.18686897
v 0.018480023 0.01263593 0.18686897
v 0.02064918 0.01263593 0.18686897
v 0.0074559343 0.011850321 0.18686897
v 0.0055876174 0.011850321 0.18686897
v 0.0055876174 0.012402394 0.18686897
v 0.0074559343 0.012402394 0.18686897
v -0.005495228 0.011708015 0.18686897
v -0.0075468644 0.011708015 0.18686897
v -0.0075468644 0.012544701 0.18686897
v -0.005495228 0.012544701 0.18686897
v 0.022825304 0.0050624404 0.14708261
v 0.02064918 0.01263593 0.18686897
v 0.018480023 0.01263593 0.18686897
v 0.016303895 0.0050624404 0.14708261
v -0.022824576 0.0050624413 0.14708261
v -0.020665364 0.01266219 0.18686897
v -0.020665364 0.0115905255 0.18686897
v -0.022824576 -0.0050624404 0.14708261
v -0.016303165 -0.0050624404 0.14708261
v -0.018462379 0.0115905255 0.18686897
v -0.018462379 0.01266219 0.18686897
v -0.016303165 0.0050624413 0.14708261
v 0.022825304 -0.0050624413 0.14708261
v 0.02064918 0.011616785 0.18686897
v 0.02064918 0.01263593 0.18686897
v 0.022825304 0.0050624404 0.14708261
v -0.022824576 -0.0050624404 0.14708261
v -0.020665364 0.0115905255 0.18686897
v -0.018462379 0.0115905255 0.18686897
v -0.016303165 -0.0050624404 0.14708261
v 0.009782482 0.0050624404 0.14708261
v 0.0074559343 0.012402394 0.18686897
v 0.0055876174 0.012402394 0.18686897
v 0.0032610702 0.0050624413 0.14708261
v 0.016303895 -0.0050624413 0.14708261
v 0.018480023 0.011616785 0.18686897
v 0.02064918 0.011616785 0.18686897
v 0.022825304 -0.0050624413 0.14708261
v -0.016303165 0.0050624413 0.14708261
v -0.018462379 0.01266219 0.18686897
v -0.020665364 0.01266219 0.18686897
v -0.022824576 0.0050624413 0.14708261
v 0.016303895 0.0050624404 0.14708261
v 0.018480023 0.01263593 0.18686897
v 0.018480023 0.011616785 0.18686897
v 0.016303895 -0.0050624413 0.14708261
v -0.009781753 -0.0050624404 0.14708261
v -0.0075468644 0.011708015 0.18686897
v -0.005495228 0.011708015 0.18686897
v -0.003260341 -0.0050624413 0.14708261
v -0.003260341 0.0050624413 0.14708261
v -0.005495228 0.012544701 0.18686897
v -0.0075468644 0.012544701 0.18686897
v -0.009781753 0.0050624413 0.14708261
v 0.009782482 -0.0050624413 0.14708261
v 0.0074559343 0.011850321 0.18686897
v 0.0074559343 0.012402394 0.18686897
v 0.009782482 0.0050624404 0.14708261
v 0.016303895 0.0050624404 0.107296266
v 0.016303895 0.0050624404 0.14708261
v 0.016303895 -0.0050624413 0.14708261
v 0.016303895 -0.0050624413 0.107296266
v 0.009782482 -0.0050624413 0.107296266
v 0.009782482 -0.0050624413 0.14708261
v 0.009782482 0.0050624404 0.14708261
v 0.009782482 0.0050624404 0.107296266
v 0.0032610702 0.0050624413 0.107296266
v 0.0032610702 0.0050624413 0.14708261
v 0.0032610702 -0.0050624413 0.14708261
v 0.0032610702 -0.0050624413 0.107296266
v -0.003260341 -0.0050624413 0.107296266
v -0.003260341 -0.0050624413 0.14708261
v -0.003260341 0.0050624413 0.14708261
v -0.003260341 0.0050624413 0.107296266
v -0.009781753 0.0050624413 0.107296266
v -0.009781753 0.0050624413 0.14708261
v -0.009781753 -0.0050624404 0.14708261
v -0.009781753 -0.0050624404 0.107296266
v -0.016303165 0.0050624413 0.14708261
v -0.022824576 0.0050624413 0.14708261
v -0.016303165 -0.0050624404 0.107296266
v -0.016303165 -0.0050624404 0.14708261
v -0.016303165 0.0050624413 0.14708261
v -0.016303165 0.0050624413 0.107296266
v -0.022824576 0.0050624413 0.107296266
v -0.022824576 0.0050624413 0.14708261
v -0.022824576 -0.0050624404 0.14708261
v -0.022824576 -0.0050624404 0.107296266
v -0.022824576 0.0050624413 0.104597464
v -0.022824576 -0.0050624404 0.104597464
v 0.007249598 -0.0037516227 0.10007175
v 0.009004003 -0.0046595633 0.102089174
v 0.015006428 -0.0046595633 0.102089174
v 0.012082419 -0.003751623 0.10007175
v 0.0024167758 -0.0037516227 0.10007175
v 0.0030015775 -0.0046595624 0.102089174
v -0.002416046 -0.0037516227 0.10007175
v -0.003000848 -0.0046595624 0.102089174
v -0.0072488687 -0.0037516227 0.10007175
v -0.009003274 -0.0046595624 0.102089174
v -0.012081689 -0.003751622 0.10007175
v -0.0150056975 -0.0046595624 0.102089174
v -0.016914513 -0.003751622 0.10007175
v -0.02100812 -0.0046595624 0.102089174
v 0.021008853 -0.0046595633 0.102089174
v 0.016915243 -0.003751623 0.10007175
v -0.0072488687 0.0037516227 0.10007175
v -0.009003274 0.0046595633 0.102089174
v -0.0150056975 0.0046595633 0.102089174
v -0.012081689 0.003751623 0.10007175
v -0.002416046 0.0037516227 0.10007175
v -0.003000848 0.0046595624 0.102089174
v 0.0024167758 0.0037516227 0.10007175
v 0.0030015775 0.0046595624 0.102089174
v 0.007249598 0.0037516227 0.10007175
v 0.009004003 0.0046595624 0.102089174
v 0.012082419 0.003751622 0.10007175
v 0.015006428 0.0046595624 0.102089174
v 0.016915243 0.003751622 0.10007175
v 0.021008853 0.0046595624 0.102089174
v -0.02100812 0.0046595633 0.102089174
v -0.016914513 0.003751623 0.10007175
v 0.016915243 -0.003751623 0.10007175
v 0.021008853 -0.0046595633 0.102089174
v 0.021008853 0.0046595624 0.102089174
v 0.016915243 0.003751622 0.10007175
v -0.022824576 -0.0050624404 0.104597464
v -0.02100812 -0.0046595624 0.102089174
v -0.02100812 0.0046595633 0.102089174
v -0.022824576 0.0050624413 0.104597464
v 0.009004003 -0.0046595633 0.102089174
v 0.009782482 -0.0050624413 0.104597464
v 0.016303895 -0.0050624413 0.104597464
v 0.015006428 -0.0046595633 0.102089174
v 0.0030015775 -0.0046595624 0.102089174
v 0.0032610702 -0.0050624413 0.104597464
v -0.003000848 -0.0046595624 0.102089174
v -0.003260341 -0.0050624413 0.104597464
v -0.009003274 -0.0046595624 0.102089174
v -0.009781753 -0.0050624404 0.104597464
v -0.0150056975 -0.0046595624 0.102089174
v -0.016303165 -0.0050624404 0.104597464
v -0.02100812 -0.0046595624 0.102089174
v -0.022824576 -0.0050624404 0.104597464
v 0.022825304 -0.0050624413 0.104597464
v 0.021008853 -0.0046595633 0.102089174
v -0.009003274 0.0046595633 0.102089174
v -0.009781753 0.0050624413 0.104597464
v -0.016303165 0.0050624413 0.104597464
v -0.0150056975 0.0046595633 0.102089174
v -0.003000848 0.0046595624 0.102089174
v -0.003260341 0.0050624413 0.104597464
v 0.0030015775 0.0046595624 0.102089174
v 0.0032610702 0.0050624413 0.104597464
v 0.009004003 0.0046595624 0.102089174
v 0.009782482 0.0050624404 0.104597464
v 0.015006428 0.0046595624 0.102089174
v 0.016303895 0.0050624404 0.104597464
v 0.021008853 0.0046595624 0.102089174
v 0.022825304 0.0050624404 0.104597464
v -0.022824576 0.0050624413 0.104597464
v -0.02100812 0.0046595633 0.102089174
v 0.021008853 -0.0046595633 0.102089174
v 0.022825304 -0.0050624413 0.104597464
v 0.022825304 0.0050624404 0.104597464
v 0.021008853 0.0046595624 0.102089174
vn -0.87417656 0 -0.48560828
vn -0.87417656 0 -0.48560828
vn -0.87417656 0 -0.48560828
vn -0.87417656 0 -0.48560828
vn -0 0 -1
vn -0 0 -1
vn -0 0 -1
vn -0 0 -1
vn 0.98792726 0 0.15491803
vn 0.98792726 0 0.15491803
vn 0.98792726 0 0.15491803
vn 0.98792726 0 0.15491803
vn 0.9832166 0 0.18244216
vn 0.9832166 0 0.18244216
vn -0 0 1
vn -0 0 1
vn -0 0 1
vn -0 0 1
vn -0 -0.99028605 0.13904549
vn -0 -0.99028605 0.13904549
vn -0 -0.99028605 0.13904549
vn -0 -0.99028605 0.13904549
vn -0 -0.9864768 0.16390134
vn -0 -0.9864768 0.16390134
vn -0 0.99028605 0.13904549
vn -0 0.99028605 0.13904549
vn -0 0.99028605 0.13904549
vn -0 0.99028605 0.13904549
vn -0 0.9864768 0.16390134
vn -0 0.9864768 0.16390134
vn -0.98792726 0 0.15491803
vn -0.98792726 0 0.15491803
vn -0.98792726 0 0.15491803
vn -0.98792726 0 0.15491803
vn -0.9832166 0 0.18244216
vn -0.9832166 0 0.18244216
vn 1 0 0
vn 1 0 0
vn 1 0 0
vn 1 0 0
vn 1 0 0
vn 1 0 0
vn -0 -1 0
vn -0 -1 0
vn -0 -1 0
vn -0 -1 0
vn -0 -1 0
vn -0 -1 0
vn -0 1 0
vn -0 1 0
vn -0 1 0
vn -0 1 0
vn -0 1 0
vn -0 1 0
vn -1 0 0
vn -1 0 0
vn -1 0 0
vn -1 0 0
vn -1 0 0
vn -1 0 0
vn 0.87417656 0 -0.48560828
vn 0.87417656 0 -0.48560828
vn 0.87417656 0 -0.48560828
vn 0.87417656 0 -0.48560828
vn -0 -0.89535636 -0.4453503
vn -0 -0.89535636 -0.4453503
vn -0 -0.89535636 -0.4453503
vn -0 -0.89535636 -0.4453503
vn -0 0.89535636 -0.4453503
vn -0 0.89535636 -0.4453503
vn -0 0.89535636 -0.4453503
vn -0 0.89535636 -0.4453503
vn -0.4420544 0 -0.8969882
vn -0.4420544 0 -0.8969882
vn -0.4420544 0 -0.8969882
vn -0.4420544 0 -0.8969882
vn -0 0 -1
vn -0 0 -1
vn -0 0 -1
vn -0 0 -1
vn -0 0 -1
vn -0 0 -1
vn -0 0 -1
vn -0 0 -1
vn -0 0 -1
vn -0 0 -1
vn -0 0 -1
vn -0 0 -1
vn -0 0 -1
vn -0 0 -1
vn -0 0 -1
vn -0 0 -1
vn 1 0 0
vn 1 0 0
vn 1 0 0
vn 1 0 0
vn 1 0 0
vn 1 0 0
vn -0.9984261 0 0.056083813
vn -0.9984261 0 0.056083813
vn -0.9984261 0 0.056083813
vn -0.9984261 0 0.056083813
vn -0 -1 0
vn -0 -1 0
vn -0 -1 0
vn -0 -1 0
vn -0 -1 0
vn -0 -1 0
vn -0 -1 0
vn -0 -1 0
vn -0 -1 0
vn -0 -1 0
vn -0 -1 0
vn -0 -1 0
vn -0 -1 0
vn -0 -1 0
vn -0 -1 0
vn -0 -1 0
vn -0 -1 0
vn -0 -1 0
vn -0 -1 0
vn -0 -1 0
vn -0 -1 0
vn -0 -1 0
vn -0 -1 0
vn -0 -1 0
vn -0 1 0
vn -0 1 0
vn -0 1 0
vn -0 1 0
vn -0 1 0
vn -0 1 0
vn -0 1 0
vn -0 1 0
vn -0 1 0
vn -0 1 0
vn -0 1 0
vn -0 1 0
vn -0 1 0
vn -0 1 0
vn -0 1 0
vn -0 1 0
vn -0 1 0
vn -0 1 0
vn -0 1 0
vn -0 1 0
vn -0 1 0
vn -0 1 0
vn 0.9984261 0 0.056083806
vn 0.9984261 0 0.056083806
vn 0.9984261 0 0.056083806
vn 0.9984261 0 0.056083806
vn -0 0 1
vn -0 0 1
vn -0 0 1
vn -0 0 1
vn -0 -0.9203013 0.39121035
vn -0 -0.9203013 0.39121035
vn -0 -0.9203013 0.39121035
vn -0 -0.9203013 0.39121035
vn -0 0 1
vn -0 0 1
vn -0 0 1
vn -0 0 1
vn -0.99829465 0 0.0583763
vn -0.99829465 0 0.0583763
vn -0.99829465 0 0.0583763
vn -0.99829465 0 0.0583763
vn -0 0 1
vn -0 0 1
vn -0 0 1
vn -0 0 1
vn -0 0 1
vn -0 0 1
vn -0 0 1
vn -0 0 1
vn -0 0 1
vn -0 0 1
vn -0 0 1
vn -0 0 1
vn -0 0 1
vn -0 0 1
vn -0 0 1
vn -0 0 1
vn -0 0 1
vn -0 0 1
vn -0 0 1
vn -0 0 1
vn -0 0.9823606 -0.18699618
vn -0 0.9823606 -0.18699618
vn -0 0.9823606 -0.18699618
vn -0 0.9823606 -0.18699618
vn -0.9985306 0 0.054190546
vn -0.9985306 0 0.054190546
vn -0.9985306 0 0.054190546
vn -0.9985306 0 0.054190546
vn 0.9985306 0 0.054190435
vn 0.9985306 0 0.054190435
vn 0.9985306 0 0.054190435
vn 0.9985306 0 0.054190435
vn 0.99850756 0 0.054613646
vn 0.99850756 0 0.054613646
vn 0.99850756 0 0.054613646
vn 0.99850756 0 0.054613646
vn -0 -0.9224558 0.38610277
vn -0 -0.9224558 0.38610277
vn -0 -0.9224558 0.38610277
vn -0 -0.9224558 0.38610277
vn -0 0.98340523 -0.1814227
vn -0 0.98340523 -0.1814227
vn -0 0.98340523 -0.1814227
vn -0 0.98340523 -0.1814227
vn -0 -0.9222388 0.3866206
vn -0 -0.9222388 0.3866206
vn -0 -0.9222388 0.3866206
vn -0 -0.9222388 0.3866206
vn -0 0.98224145 -0.18762179
vn -0 0.98224145 -0.18762179
vn -0 0.98224145 -0.18762179
vn -0 0.98224145 -0.18762179
vn -0.99850756 0 0.054613806
vn -0.99850756 0 0.054613806
vn -0.99850756 0 0.054613806
vn -0.99850756 0 0.054613806
vn -0 -0.9214837 0.38841715
vn -0 -0.9214837 0.38841715
vn -0 -0.9214837 0.38841715
vn -0 -0.9214837 0.38841715
vn -0 0.9827722 -0.18482111
vn -0 0.9827722 -0.18482111
vn -0 0.9827722 -0.18482111
vn -0 0.9827722 -0.18482111
vn 0.99829465 0 0.058376387
vn 0.99829465 0 0.058376387
vn 0.99829465 0 0.058376387
vn 0.99829465 0 0.058376387
vn -1 0 0
vn -1 0 0
vn -1 0 0
vn -1 0 0
vn 1 0 0
vn 1 0 0
vn 1 0 0
vn 1 0 0
vn -1 0 0
vn -1 0 0
vn -1 0 0
vn -1 0 0
vn 1 0 0
vn 1 0 0
vn 1 0 0
vn 1 0 0
vn -1 0 0
vn -1 0 0
vn -1 0 0
vn -1 0 0
vn -0 1 0
vn -0 1 0
vn 1 0 0
vn 1 0 0
vn 1 0 0
vn 1 0 0
vn -1 0 0
vn -1 0 0
vn -1 0 0
vn -1 0 0
vn -1 0 0
vn -1 0 0
vn -0 -0.91190404 -0.41040358
vn -0 -0.91190404 -0.41040358
vn -0 -0.91190404 -0.41040358
vn -0 -0.91190404 -0.41040358
vn -0 -0.9119048 -0.41040182
vn -0 -0.9119048 -0.41040182
vn -0 -0.91190326 -0.41040537
vn -0 -0.91190326 -0.41040537
vn -0 -0.91190326 -0.41040537
vn -0 -0.91190326 -0.41040537
vn -0 -0.91190404 -0.41040343
vn -0 -0.91190404 -0.41040343
vn -0 -0.91190404 -0.41040358
vn -0 -0.91190404 -0.41040358
vn -0 -0.9119039 -0.41040364
vn -0 -0.9119039 -0.41040364
vn -0 0.91190404 -0.41040358
vn -0 0.91190404 -0.41040358
vn -0 0.91190404 -0.41040358
vn -0 0.91190404 -0.41040358
vn -0 0.91190314 -0.41040555
vn -0 0.91190314 -0.41040555
vn -0 0.91190404 -0.41040355
vn -0 0.91190404 -0.41040355
vn -0 0.9119048 -0.41040167
vn -0 0.9119048 -0.41040167
vn -0 0.91190404 -0.41040343
vn -0 0.91190404 -0.41040343
vn -0 0.91190404 -0.41040358
vn -0 0.91190404 -0.41040358
vn -0 0.9119039 -0.41040364
vn -0 0.9119039 -0.41040364
vn 0.44205427 0 -0.89698833
vn 0.44205427 0 -0.89698833
vn 0.44205427 0 -0.89698833
vn 0.44205427 0 -0.89698833
vn -0.8099258 0 -0.5865324
vn -0.8099258 0 -0.5865324
vn -0.8099258 0 -0.5865324
vn -0.8099258 0 -0.5865324
vn -0 -0.98734516 -0.15858613
vn -0 -0.98734516 -0.15858613
vn -0 -0.98734516 -0.15858613
vn -0 -0.98734516 -0.15858613
vn -0 -0.98734516 -0.1585862
vn -0 -0.98734516 -0.1585862
vn -0 -0.9873453 -0.15858573
vn -0 -0.9873453 -0.15858573
vn -0 -0.98734516 -0.15858631
vn -0 -0.98734516 -0.15858631
vn -0 -0.98734516 -0.15858631
vn -0 -0.98734516 -0.15858631
vn -0 -0.98734516 -0.15858623
vn -0 -0.98734516 -0.15858623
vn -0 -0.98734516 -0.15858604
vn -0 -0.98734516 -0.15858604
vn -0 0.98734516 -0.15858611
vn -0 0.98734516 -0.15858611
vn -0 0.98734516 -0.15858611
vn -0 0.98734516 -0.15858611
vn -0 0.98734516 -0.1585862
vn -0 0.98734516 -0.1585862
vn -0 0.9873453 -0.15858573
vn -0 0.9873453 -0.15858573
vn -0 0.98734516 -0.15858634
vn -0 0.98734516 -0.15858634
vn -0 0.98734516 -0.15858631
vn -0 0.98734516 -0.15858631
vn -0 0.98734516 -0.15858626
vn -0 0.98734516 -0.15858626
vn -0 0.98734516 -0.15858607
vn -0 0.98734516 -0.15858607
vn 0.8099258 0 -0.5865324
vn 0.8099258 0 -0.5865324
vn 0.8099258 0 -0.5865324
vn 0.8099258 0 -0.5865324
g Fork_0
f 3/3/3 2/2/2 1/1/1
f 4/4/4 3/3/3 1/1/1
f 7/7/7 6/6/6 5/5/5
f 8/8/8 7/7/7 5/5/5
f 11/11/11 10/10/10 9/9/9
f 12/12/12 11/11/11 9/9/9
f 12/12/12 9/9/9 13/13/13
f 14/14/14 12/12/12 13/13/13
f 17/17/17 16/16/16 15/15/15
f 18/18/18 17/17/17 15/15/15
f 21/21/21 20/20/20 19/19/19
f 22/22/22 21/21/21 19/19/19
f 22/22/22 19/19/19 23/23/23
f 24/24/24 22/22/22 23/23/23
f 27/27/27 26/26/26 25/25/25
f 28/28/28 27/27/27 25/25/25
f 28/28/28 25/25/25 29/29/29
f 30/30/30 28/28/28 29/29/29
f 33/33/33 32/32/32 31/31/31
f 34/34/34 33/33/33 31/31/31
f 33/33/33 35/35/35 32/32/32
f 35/35/35 36/36/36 32/32/32
f 39/39/39 38/38/38 37/37/37
f 40/40/40 39/39/39 37/37/37
f 40/40/40 37/37/37 41/41/41
f 42/42/42 40/40/40 41/41/41
f 45/45/45 44/44/44 43/43/43
f 46/46/46 45/45/45 43/43/43
f 46/46/46 43/43/43 47/47/47
f 48/48/48 46/46/46 47/47/47
f 51/51/51 50/50/50 49/49/49
f 52/52/52 51/51/51 49/49/49
f 52/52/52 49/49/49 53/53/53
f 54/54/54 52/52/52 53/53/53
f 57/57/57 56/56/56 55/55/55
f 58/58/58 57/57/57 55/55/55
f 57/57/57 59/59/59 56/56/56
f 59/59/59 60/60/60 56/56/56
f 63/63/63 62/62/62 61/61/61
f 64/64/64 63/63/63 61/61/61
f 67/67/67 66/66/66 65/65/65
f 68/68/68 67/67/67 65/65/65
f 71/71/71 70/70/70 69/69/69
f 72/72/72 71/71/71 69/69/69
f 75/75/75 74/74/74 73/73/73
f 76/76/76 75/75/75 73/73/73
f 79/79/79 78/78/78 77/77/77
f 80/80/80 79/79/79 77/77/77
f 80/80/80 77/77/77 81/81/81
f 82/82/82 80/80/80 81/81/81
f 82/82/82 81/81/81 83/83/83
f 84/84/84 82/82/82 83/83/83
f 84/84/84 83/83/83 85/85/85
f 86/86/86 84/84/84 85/85/85
f 86/86/86 85/85/85 87/87/87
f 88/88/88 86/86/86 87/87/87
f 88/88/88 87/87/87 89/89/89
f 90/90/90 88/88/88 89/89/89
f 90/90/90 89/89/89 91/91/91
f 92/92/92 90/90/90 91/91/91
f 95/95/95 94/94/94 93/93/93
f 96/96/96 95/95/95 93/93/93
f 95/95/95 97/97/97 94/94/94
f 97/97/97 98/98/98 94/94/94
f 101/101/101 100/100/100 99/99/99
f 102/102/102 101/101/101 99/99/99
f 105/105/105 104/104/104 103/103/103
f 106/106/106 105/105/105 103/103/103
f 103/103/103 104/104/104 107/107/107
f 104/104/104 108/108/108 107/107/107
f 107/107/107 108/108/108 109/109/109
f 108/108/108 110/110/110 109/109/109
f 109/109/109 110/110/110 111/111/111
f 110/110/110 112/112/112 111/111/111
f 111/111/111 112/112/112 113/113/113
f 112/112/112 114/114/114 113/113/113
f 113/113/113 114/114/114 115/115/115
f 114/114/114 116/116/116 115/115/115
f 115/115/115 116/116/116 117/117/117
f 116/116/116 118/118/118 117/117/117
f 105/105/105 119/119/119 104/104/104
f 119/119/119 120/120/120 104/104/104
f 108/108/108 121/121/121 110/110/110
f 121/121/121 122/122/122 110/110/110
f 112/112/112 123/123/123 114/114/114
f 123/123/123 124/124/124 114/114/114
f 116/116/116 125/125/125 118/118/118
f 125/125/125 126/126/126 118/118/118
f 129/129/129 128/128/128 127/127/127
f 130/130/130 129/129/129 127/127/127
f 127/127/127 128/128/128 131/131/131
f 128/128/128 132/132/132 131/131/131
f 131/131/131 132/132/132 133/133/133
f 132/132/132 134/134/134 133/133/133
f 133/133/133 134/134/134 135/135/135
f 134/134/134 136/136/136 135/135/135
f 135/135/135 136/136/136 137/137/137
f 136/136/136 138/138/138 137/137/137
f 137/137/137 138/138/138 139/139/139
f 138/138/138 140/140/140 139/139/139
f 139/139/139 140/140/140 141/141/141
f 140/140/140 142/142/142 141/141/141
f 140/140/140 143/143/143 142/142/142
f 143/143/143 144/144/144 142/142/142
f 136/136/136 145/145/145 138/138/138
f 145/145/145 146/146/146 138/138/138
f 132/132/132 147/147/147 134/134/134
f 147/147/147 148/148/148 134/134/134
f 151/151/151 150/150/150 149/149/149
f 152/152/152 151/151/151 149/149/149
f 155/155/155 154/154/154 153/153/153
f 156/156/156 155/155/155 153/153/153
f 159/159/159 158/158/158 157/157/157
f 160/160/160 159/159/159 157/157/157
f 163/163/163 162/162/162 161/161/161
f 164/164/164 163/163/163 161/161/161
f 167/167/167 166/166/166 165/165/165
f 168/168/168 167/167/167 165/165/165
f 171/171/171 170/170/170 169/169/169
f 172/172/172 171/171/171 169/169/169
f 175/175/175 174/174/174 173/173/173
f 176/176/176 175/175/175 173/173/173
f 179/179/179 178/178/178 177/177/177
f 180/180/180 179/179/179 177/177/177
f 183/183/183 182/182/182 181/181/181
f 184/184/184 183/183/183 181/181/181
f 187/187/187 186/186/186 185/185/185
f 188/188/188 187/187/187 185/185/185
f 191/191/191 190/190/190 189/189/189
f 192/192/192 191/191/191 189/189/189
f 195/195/195 194/194/194 193/193/193
f 196/196/196 195/195/195 193/193/193
f 199/199/199 198/198/198 197/197/197
f 200/200/200 199/199/199 197/197/197
f 203/203/203 202/202/202 201/201/201
f 204/204/204 203/203/203 201/201/201
f 207/207/207 206/206/206 205/205/205
f 208/208/208 207/207/207 205/205/205
f 211/211/211 210/210/210 209/209/209
f 212/212/212 211/211/211 209/209/209
f 215/215/215 214/214/214 213/213/213
f 216/216/216 215/215/215 213/213/213
f 219/219/219 218/218/218 217/217/217
f 220/220/220 219/219/219 217/217/217
f 223/223/223 222/222/222 221/221/221
f 224/224/224 223/223/223 221/221/221
f 227/227/227 226/226/226 225/225/225
f 228/228/228 227/227/227 225/225/225
f 231/231/231 230/230/230 229/229/229
f 232/232/232 231/231/231 229/229/229
f 235/235/235 234/234/234 233/233/233
f 236/236/236 235/235/235 233/233/233
f 239/239/239 238/238/238 237/237/237
f 240/240/240 239/239/239 237/237/237
f 243/243/243 242/242/242 241/241/241
f 244/244/244 243/243/243 241/241/241
f 247/247/247 246/246/246 245/245/245
f 248/248/248 247/247/247 245/245/245
f 251/251/251 250/250/250 249/249/249
f 252/252/252 251/251/251 249/249/249
f 255/255/255 254/254/254 253/253/253
f 256/256/256 255/255/255 253/253/253
f 258/258/258 257/257/257 128/128/128
f 129/129/129 258/258/258 128/128/128
f 261/261/261 260/260/260 259/259/259
f 262/262/262 261/261/261 259/259/259
f 265/265/265 264/264/264 263/263/263
f 266/266/266 265/265/265 263/263/263
f 263/263/263 267/267/267 266/266/266
f 267/267/267 268/268/268 266/266/266
f 271/271/271 270/270/270 269/269/269
f 272/272/272 271/271/271 269/269/269
f 269/269/269 270/270/270 273/273/273
f 270/270/270 274/274/274 273/273/273
f 273/273/273 274/274/274 275/275/275
f 274/274/274 276/276/276 275/275/275
f 275/275/275 276/276/276 277/277/277
f 276/276/276 278/278/278 277/277/277
f 277/277/277 278/278/278 279/279/279
f 278/278/278 280/280/280 279/279/279
f 279/279/279 280/280/280 281/281/281
f 280/280/280 282/282/282 281/281/281
f 283/283/283 271/271/271 272/272/272
f 284/284/284 283/283/283 272/272/272
f 287/287/287 286/286/286 285/285/285
f 288/288/288 287/287/287 285/285/285
f 285/285/285 286/286/286 289/289/289
f 286/286/286 290/290/290 289/289/289
f 289/289/289 290/290/290 291/291/291
f 290/290/290 292/292/292 291/291/291
f 291/291/291 292/292/292 293/293/293
f 292/292/292 294/294/294 293/293/293
f 293/293/293 294/294/294 295/295/295
f 294/294/294 296/296/296 295/295/295
f 295/295/295 296/296/296 297/297/297
f 296/296/296 298/298/298 297/297/297
f 299/299/299 287/287/287 288/288/288
f 300/300/300 299/299/299 288/288/288
f 303/303/303 302/302/302 301/301/301
f 304/304/304 303/303/303 301/301/301
f 307/307/307 306/306/306 305/305/305
f 308/308/308 307/307/307 305/305/305
f 311/311/311 310/310/310 309/309/309
f 312/312/312 311/311/311 309/309/309
f 309/309/309 310/310/310 313/313/313
f 310/310/310 314/314/314 313/313/313
f 313/313/313 314/314/314 315/315/315
f 314/314/314 316/316/316 315/315/315
f 315/315/315 316/316/316 317/317/317
f 316/316/316 318/318/318 317/317/317
f 317/317/317 318/318/318 319/319/319
f 318/318/318 320/320/320 319/319/319
f 319/319/319 320/320/320 321/321/321
f 320/320/320 322/322/322 321/321/321
f 323/323/323 311/311/311 312/312/312
f 324/324/324 323/323/323 312/312/312
f 327/327/327 326/326/326 325/325/325
f 328/328/328 327/327/327 325/325/325
f 325/325/325 326/326/326 329/329/329
f 326/326/326 330/330/330 329/329/329
f 329/329/329 330/330/330 331/331/331
f 330/330/330 332/332/332 331/331/331
f 331/331/331 332/332/332 333/333/333
f 332/332/332 334/334/334 333/333/333
f 333/333/333 334/334/334 335/335/335
f 334/334/334 336/336/336 335/335/335
f 335/335/335 336/336/336 337/337/337
f 336/336/336 338/338/338 337/337/337
f 339/339/339 327/327/327 328/328/328
f 340/340/340 339/339/339 328/328/328
f 343/343/343 342/342/342 341/341/341
f 344/344/344 343/343/343 341/341/341
