g Bed
v -1.25 -0.25 -1.4733522
v -1.25 -0.25 -1.5
v -1.25 0.25 -1.5
v -1.25 0.25 -1.4733522
v -1.25 -0.25 -1.3085983
v -1.25 0.25 -1.3085983
v -1.25 -0.25 1.4359912
v -1.25 0.25 1.4359912
v -1.25 -0.25 1.5
v -1.25 0.25 1.5
v -1.25 0.7412551 -1.4733522
v -1.25 0.7412551 -1.5
v -1.25 0.7412551 -1.3085983
v 1.2107882 -0.25 -1.5
v 1.25 -0.25 -1.5
v 1.25 0.25 -1.5
v 1.2107882 0.25 -1.5
v 1.1947105 -0.25 -1.5
v 1.1947105 0.25 -1.5
v -1.1619275 -0.25 -1.5
v -1.1619275 0.25 -1.5
v -1.25 -0.25 -1.5
v -1.25 0.25 -1.5
v -1.25 0.7412551 -1.5
v -1.1619275 0.7412551 -1.5
v 1.1947105 0.7412551 -1.5
v 1.2107882 0.7412551 -1.5
v 1.25 0.7412551 -1.5
v 1.25 -0.25 1.4359912
v 1.25 -0.25 1.5
v 1.25 0.25 1.5
v 1.25 0.25 1.4359912
v 1.25 -0.25 -1.3085983
v 1.25 0.25 -1.3085983
v 1.25 -0.25 -1.4733522
v 1.25 0.25 -1.4733522
v 1.25 -0.25 -1.5
v 1.25 0.25 -1.5
v 1.25 0.7412551 -1.5
v 1.25 0.7412551 -1.4733522
v 1.25 0.7412551 -1.3085983
v -1.1619275 -0.25 1.5
v -1.25 -0.25 1.5
v -1.25 0.25 1.5
v -1.1619275 0.25 1.5
v 1.1947105 -0.25 1.5
v 1.1947105 0.25 1.5
v 1.2107882 -0.25 1.5
v 1.2107882 0.25 1.5
v 1.25 -0.25 1.5
v 1.25 0.25 1.5
v 1.2107882 -0.25 1.4359912
v 1.2107882 -0.25 1.5
v 1.25 -0.25 1.5
v 1.25 -0.25 1.4359912
v 1.1947105 -0.25 1.4359912
v 1.1947105 -0.25 1.5
v 1.1947105 -0.25 -1.3085983
v 1.2107882 -0.25 -1.3085983
v 1.25 -0.25 -1.3085983
v -1.1619275 -0.25 -1.3085983
v -1.1619275 -0.25 1.4359912
v -1.1619275 -0.25 1.5
v -1.25 -0.25 1.4359912
v -1.25 -0.25 1.5
v -1.25 -0.25 -1.3085983
v -1.25 -0.25 -1.4733522
v -1.1619275 -0.25 -1.4733522
v -1.25 -0.25 -1.5
v -1.1619275 -0.25 -1.5
v 1.1947105 -0.25 -1.4733522
v 1.1947105 -0.25 -1.5
v 1.2107882 -0.25 -1.4733522
v 1.2107882 -0.25 -1.5
v 1.25 -0.25 -1.4733522
v 1.25 -0.25 -1.5
v -1.1619275 0.25 1.4359912
v -1.1619275 0.25 1.5
v -1.25 0.25 1.5
v -1.25 0.25 1.4359912
v -1.1619275 0.25 -1.3085983
v -1.25 0.25 -1.3085983
v 1.1947105 0.25 -1.3085983
v 1.1947105 0.25 1.4359912
v 1.2107882 0.25 -1.3085983
v 1.2107882 0.25 1.4359912
v 1.25 0.25 -1.3085983
v 1.25 0.25 1.4359912
v 1.2107882 0.25 1.5
v 1.25 0.25 1.5
v 1.1947105 0.25 1.5
v 1.1947105 0.25 -1.3085983
v 1.1947105 0.7412551 -1.3085983
v 1.2107882 0.7412551 -1.3085983
v 1.2107882 0.25 -1.3085983
v 1.25 0.7412551 -1.3085983
v 1.25 0.25 -1.3085983
v -1.1619275 0.25 -1.3085983
v -1.1619275 0.7412551 -1.3085983
v -1.25 0.25 -1.3085983
v -1.25 0.7412551 -1.3085983
v -1.1619275 0.7412551 -1.5
v -1.1619275 0.7412551 -1.4733522
v -1.25 0.7412551 -1.4733522
v -1.25 0.7412551 -1.5
v 1.1947105 0.7412551 -1.5
v 1.1947105 0.7412551 -1.4733522
v 1.2107882 0.7412551 -1.5
v 1.2107882 0.7412551 -1.4733522
v 1.25 0.7412551 -1.5
v 1.25 0.7412551 -1.4733522
v -1.1619275 0.7412551 -1.3085983
v 1.1947105 0.7412551 -1.3085983
v 1.2107882 0.7412551 -1.3085983
v -1.25 0.7412551 -1.3085983
v 1.25 0.7412551 -1.3085983
vn -1 0 0
vn -1 0 0
vn -1 0 0
vn -1 0 0
vn -1 0 0
vn -1 0 0
vn -1 0 0
vn -1 0 0
vn -1 0 0
vn -1 0 0
vn -1 0 0
vn -1 0 0
vn -1 0 0
vn -0 0 -1
vn -0 0 -1
vn -0 0 -1
vn -0 0 -1
vn -0 0 -1
vn -0 0 -1
vn -0 0 -1
vn -0 0 -1
vn -0 0 -1
vn -0 0 -1
vn -0 0 -1
vn -0 0 -1
vn -0 0 -1
vn -0 0 -1
vn -0 0 -1
vn 1 0 0
vn 1 0 0
vn 1 0 0
vn 1 0 0
vn 1 0 0
vn 1 0 0
vn 1 0 0
vn 1 0 0
vn 1 0 0
vn 1 0 0
vn 1 0 0
vn 1 0 0
vn 1 0 0
vn -0 0 1
vn -0 0 1
vn -0 0 1
vn -0 0 1
vn -0 0 1
vn -0 0 1
vn -0 0 1
vn -0 0 1
vn -0 0 1
vn -0 0 1
vn -0 -1 0
vn -0 -1 0
vn -0 -1 0
vn -0 -1 0
vn -0 -1 0
vn -0 -1 0
vn -0 -1 0
vn -0 -1 0
vn -0 -1 0
vn -0 -1 0
vn -0 -1 0
vn -0 -1 0
vn -0 -1 0
vn -0 -1 0
vn -0 -1 0
vn -0 -1 0
vn -0 -1 0
vn -0 -1 0
vn -0 -1 0
vn -0 -1 0
vn -0 -1 0
vn -0 -1 0
vn -0 -1 0
vn -0 -1 0
vn -0 -1 0
vn -0 1 0
vn -0 1 0
vn -0 1 0
vn -0 1 0
vn -0 1 0
vn -0 1 0
vn -0 1 0
vn -0 1 0
vn -0 1 0
vn -0 1 0
vn -0 1 0
vn -0 1 0
vn -0 1 0
vn -0 1 0
vn -0 1 0
vn -0 0 1
vn -0 0 1
vn -0 0 1
vn -0 0 1
vn -0 0 1
vn -0 0 1
vn -0 0 1
vn -0 0 1
vn -0 0 1
vn -0 0 1
vn -0 1 0
vn -0 1 0
vn -0 1 0
vn -0 1 0
vn -0 1 0
vn -0 1 0
vn -0 1 0
vn -0 1 0
vn -0 1 0
vn -0 1 0
vn -0 1 0
vn -0 1 0
vn -0 1 0
vn -0 1 0
vn -0 1 0
g Bed_0
f 3/3/3 2/2/2 1/1/1
f 4/4/4 3/3/3 1/1/1
f 4/4/4 1/1/1 5/5/5
f 6/6/6 4/4/4 5/5/5
f 6/6/6 5/5/5 7/7/7
f 8/8/8 6/6/6 7/7/7
f 8/8/8 7/7/7 9/9/9
f 10/10/10 8/8/8 9/9/9
f 4/4/4 11/11/11 3/3/3
f 11/11/11 12/12/12 3/3/3
f 13/13/13 11/11/11 4/4/4
f 6/6/6 13/13/13 4/4/4
f 16/16/16 15/15/15 14/14/14
f 17/17/17 16/16/16 14/14/14
f 17/17/17 14/14/14 18/18/18
f 19/19/19 17/17/17 18/18/18
f 19/19/19 18/18/18 20/20/20
f 21/21/21 19/19/19 20/20/20
f 21/21/21 20/20/20 22/22/22
f 23/23/23 21/21/21 22/22/22
f 23/23/23 24/24/24 21/21/21
f 24/24/24 25/25/25 21/21/21
f 21/21/21 25/25/25 19/19/19
f 19/19/19 26/26/26 17/17/17
f 25/25/25 26/26/26 19/19/19
f 26/26/26 27/27/27 17/17/17
f 17/17/17 27/27/27 16/16/16
f 27/27/27 28/28/28 16/16/16
f 31/31/31 30/30/30 29/29/29
f 32/32/32 31/31/31 29/29/29
f 32/32/32 29/29/29 33/33/33
f 34/34/34 32/32/32 33/33/33
f 34/34/34 33/33/33 35/35/35
f 36/36/36 34/34/34 35/35/35
f 36/36/36 35/35/35 37/37/37
f 38/38/38 36/36/36 37/37/37
f 38/38/38 39/39/39 36/36/36
f 39/39/39 40/40/40 36/36/36
f 36/36/36 40/40/40 34/34/34
f 40/40/40 41/41/41 34/34/34
f 44/44/44 43/43/43 42/42/42
f 45/45/45 44/44/44 42/42/42
f 45/45/45 42/42/42 46/46/46
f 47/47/47 45/45/45 46/46/46
f 47/47/47 46/46/46 48/48/48
f 49/49/49 47/47/47 48/48/48
f 49/49/49 48/48/48 50/50/50
f 51/51/51 49/49/49 50/50/50
f 54/54/54 53/53/53 52/52/52
f 55/55/55 54/54/54 52/52/52
f 52/52/52 53/53/53 56/56/56
f 53/53/53 57/57/57 56/56/56
f 52/52/52 56/56/56 58/58/58
f 59/59/59 52/52/52 58/58/58
f 55/55/55 52/52/52 59/59/59
f 60/60/60 55/55/55 59/59/59
f 58/58/58 56/56/56 61/61/61
f 56/56/56 62/62/62 61/61/61
f 56/56/56 57/57/57 62/62/62
f 57/57/57 63/63/63 62/62/62
f 62/62/62 63/63/63 64/64/64
f 63/63/63 65/65/65 64/64/64
f 62/62/62 64/64/64 66/66/66
f 61/61/61 62/62/62 66/66/66
f 61/61/61 66/66/66 67/67/67
f 68/68/68 61/61/61 67/67/67
f 58/58/58 61/61/61 68/68/68
f 68/68/68 67/67/67 69/69/69
f 70/70/70 68/68/68 69/69/69
f 71/71/71 68/68/68 70/70/70
f 71/71/71 58/58/58 68/68/68
f 59/59/59 58/58/58 71/71/71
f 72/72/72 71/71/71 70/70/70
f 73/73/73 71/71/71 72/72/72
f 60/60/60 59/59/59 73/73/73
f 73/73/73 59/59/59 71/71/71
f 74/74/74 73/73/73 72/72/72
f 75/75/75 73/73/73 74/74/74
f 75/75/75 60/60/60 73/73/73
f 76/76/76 75/75/75 74/74/74
f 79/79/79 78/78/78 77/77/77
f 80/80/80 79/79/79 77/77/77
f 80/80/80 77/77/77 81/81/81
f 82/82/82 80/80/80 81/81/81
f 81/81/81 77/77/77 83/83/83
f 77/77/77 84/84/84 83/83/83
f 77/77/77 78/78/78 84/84/84
f 83/83/83 84/84/84 85/85/85
f 84/84/84 86/86/86 85/85/85
f 85/85/85 86/86/86 87/87/87
f 86/86/86 88/88/88 87/87/87
f 86/86/86 89/89/89 88/88/88
f 89/89/89 90/90/90 88/88/88
f 91/91/91 89/89/89 86/86/86
f 84/84/84 91/91/91 86/86/86
f 78/78/78 91/91/91 84/84/84
f 94/94/94 93/93/93 92/92/92
f 95/95/95 94/94/94 92/92/92
f 96/96/96 94/94/94 95/95/95
f 97/97/97 96/96/96 95/95/95
f 92/92/92 93/93/93 98/98/98
f 93/93/93 99/99/99 98/98/98
f 98/98/98 99/99/99 100/100/100
f 99/99/99 101/101/101 100/100/100
f 104/104/104 103/103/103 102/102/102
f 105/105/105 104/104/104 102/102/102
f 102/102/102 103/103/103 106/106/106
f 103/103/103 107/107/107 106/106/106
f 106/106/106 107/107/107 108/108/108
f 107/107/107 109/109/109 108/108/108
f 108/108/108 109/109/109 110/110/110
f 109/109/109 111/111/111 110/110/110
f 103/103/103 112/112/112 107/107/107
f 112/112/112 113/113/113 107/107/107
f 107/107/107 113/113/113 109/109/109
f 113/113/113 114/114/114 109/109/109
f 109/109/109 114/114/114 111/111/111
f 115/115/115 112/112/112 103/103/103
f 104/104/104 115/115/115 103/103/103
f 114/114/114 116/116/116 111/111/111
