g Salad
v 4.4667234E-10 -0.037529323 -0.22590277
v 0.11295138 -0.037529323 -0.19563752
v 0.12271825 0.024773056 -0.21255426
v 6.4072264E-10 0.024773056 -0.2454365
v 0.11295138 -0.037529323 -0.19563752
v 0.19563752 -0.03752932 -0.11295139
v 0.21255426 0.024773056 -0.12271827
v 0.12271825 0.024773056 -0.21255426
v 0.19563752 -0.03752932 -0.11295139
v 0.22590277 -0.037529323 3.621111E-09
v 0.2454365 0.024773056 1.7582534E-09
v 0.21255426 0.024773056 -0.12271827
v 0.22590277 -0.037529323 3.621111E-09
v 0.19563752 -0.037529323 0.11295138
v 0.21255425 0.024773056 0.12271825
v 0.2454365 0.024773056 1.7582534E-09
v 0.19563752 -0.037529323 0.11295138
v 0.11295139 -0.03752932 0.19563752
v 0.12271827 0.024773056 0.21255425
v 0.21255425 0.024773056 0.12271825
v 0.11295139 -0.03752932 0.19563752
v 3.4557043E-08 -0.037529323 0.22590277
v 3.770061E-08 0.024773056 0.2454365
v 0.12271827 0.024773056 0.21255425
v 3.4557043E-08 -0.037529323 0.22590277
v -0.11295132 -0.037529323 0.19563752
v -0.1227182 0.024773056 0.21255426
v 3.770061E-08 0.024773056 0.2454365
v -0.11295132 -0.037529323 0.19563752
v -0.19563746 -0.03752932 0.11295145
v -0.2125542 0.024773056 0.12271831
v -0.1227182 0.024773056 0.21255426
v -0.19563746 -0.03752932 0.11295145
v -0.22590277 -0.037529323 9.877156E-08
v -0.2454365 0.024773056 1.0513633E-07
v -0.2125542 0.024773056 0.12271831
v -0.22590277 -0.037529323 9.877156E-08
v -0.1956376 -0.037529323 -0.11295128
v -0.21255434 0.024773056 -0.12271814
v -0.2454365 0.024773056 1.0513633E-07
v -0.2454365 0.024773056 1.0513633E-07
v -0.23039676 0.024773056 1.00748316E-07
v -0.1995294 0.024773056 0.11519845
v -0.2125542 0.024773056 0.12271831
v -0.11519832 0.024773056 0.19952945
v -0.1227182 0.024773056 0.21255426
v 3.416201E-08 0.024773056 0.23039676
v 3.770061E-08 0.024773056 0.2454365
v 0.11519839 0.024773056 0.19952944
v 0.12271827 0.024773056 0.21255425
v 0.19952944 0.024773056 0.11519839
v 0.21255425 0.024773056 0.12271825
v 0.23039676 0.024773056 3.7049974E-09
v 0.2454365 0.024773056 1.7582534E-09
v 0.19952945 0.024773056 -0.11519839
v 0.21255426 0.024773056 -0.12271827
v 0.11519838 0.024773056 -0.19952945
v 0.12271825 0.024773056 -0.21255426
v -6.269399E-10 0.024773056 -0.23039676
v 6.4072264E-10 0.024773056 -0.2454365
v -0.11519852 0.024773056 -0.19952938
v -0.12271841 0.024773056 -0.21255419
v -0.19952948 0.024773056 -0.11519827
v -0.21255434 0.024773056 -0.12271814
v -0.1956376 -0.037529323 -0.11295128
v -0.112951525 -0.037529323 -0.19563746
v -0.12271841 0.024773056 -0.21255419
v -0.21255434 0.024773056 -0.12271814
v -0.112951525 -0.037529323 -0.19563746
v 4.4667234E-10 -0.037529323 -0.22590277
v 6.4072264E-10 0.024773056 -0.2454365
v -0.12271841 0.024773056 -0.21255419
v 0.060804036 -0.18093926 -0.105315685
v -9.655182E-10 -0.18093926 -0.12160807
v -0.060804114 -0.18093926 -0.10531565
v 0.105315685 -0.18093926 -0.060804028
v -0.10531572 -0.18093926 -0.060803965
v 0.12160807 -0.18093926 1.3818034E-08
v -0.12160807 -0.18093926 6.5039465E-08
v 0.10531567 -0.18093926 0.06080405
v -0.10531566 -0.18093926 0.060804084
v 0.06080405 -0.18093926 0.105315685
v -0.060804017 -0.18093926 0.105315685
v 1.7396792E-08 -0.18093926 0.12160807
v -0.09487657 -0.106319204 -0.16433078
v -4.241574E-10 -0.106319204 -0.18975292
v 4.4667234E-10 -0.037529323 -0.22590277
v -0.112951525 -0.037529323 -0.19563746
v -0.1643309 -0.106319204 -0.09487637
v -0.09487657 -0.106319204 -0.16433078
v -0.112951525 -0.037529323 -0.19563746
v -0.1956376 -0.037529323 -0.11295128
v -0.18975292 -0.106319204 8.6992664E-08
v -0.1643309 -0.106319204 -0.09487637
v -0.1956376 -0.037529323 -0.11295128
v -0.22590277 -0.037529323 9.877156E-08
v -0.16433081 -0.106319204 0.094876505
v -0.18975292 -0.106319204 8.6992664E-08
v -0.22590277 -0.037529323 9.877156E-08
v -0.19563746 -0.03752932 0.11295145
v -0.09487642 -0.106319204 0.16433086
v -0.16433081 -0.106319204 0.094876505
v -0.19563746 -0.03752932 0.11295145
v -0.11295132 -0.037529323 0.19563752
v 2.8227738E-08 -0.106319204 0.18975292
v -0.09487642 -0.106319204 0.16433086
v -0.11295132 -0.037529323 0.19563752
v 3.4557043E-08 -0.037529323 0.22590277
v 0.09487647 -0.106319204 0.16433084
v 2.8227738E-08 -0.106319204 0.18975292
v 3.4557043E-08 -0.037529323 0.22590277
v 0.11295139 -0.03752932 0.19563752
v 0.16433084 -0.106319204 0.09487647
v 0.09487647 -0.106319204 0.16433084
v 0.11295139 -0.03752932 0.19563752
v 0.19563752 -0.037529323 0.11295138
v 0.18975292 -0.106319204 7.0685813E-09
v 0.16433084 -0.106319204 0.09487647
v 0.19563752 -0.037529323 0.11295138
v 0.22590277 -0.037529323 3.621111E-09
v 0.16433086 -0.106319204 -0.09487646
v 0.18975292 -0.106319204 7.0685813E-09
v 0.22590277 -0.037529323 3.621111E-09
v 0.19563752 -0.03752932 -0.11295139
v 0.09487646 -0.106319204 -0.16433086
v 0.16433086 -0.106319204 -0.09487646
v 0.19563752 -0.03752932 -0.11295139
v 0.11295138 -0.037529323 -0.19563752
v -4.241574E-10 -0.106319204 -0.18975292
v 0.09487646 -0.106319204 -0.16433086
v 0.11295138 -0.037529323 -0.19563752
v 4.4667234E-10 -0.037529323 -0.22590277
v -9.655182E-10 -0.18093926 -0.12160807
v 0.060804036 -0.18093926 -0.105315685
v 0.09487646 -0.106319204 -0.16433086
v -4.241574E-10 -0.106319204 -0.18975292
v 0.060804036 -0.18093926 -0.105315685
v 0.105315685 -0.18093926 -0.060804028
v 0.16433086 -0.106319204 -0.09487646
v 0.09487646 -0.106319204 -0.16433086
v 0.105315685 -0.18093926 -0.060804028
v 0.12160807 -0.18093926 1.3818034E-08
v 0.18975292 -0.106319204 7.0685813E-09
v 0.16433086 -0.106319204 -0.09487646
v 0.12160807 -0.18093926 1.3818034E-08
v 0.10531567 -0.18093926 0.06080405
v 0.16433084 -0.106319204 0.09487647
v 0.18975292 -0.106319204 7.0685813E-09
v 0.10531567 -0.18093926 0.06080405
v 0.06080405 -0.18093926 0.105315685
v 0.09487647 -0.106319204 0.16433084
v 0.16433084 -0.106319204 0.09487647
v 0.06080405 -0.18093926 0.105315685
v 1.7396792E-08 -0.18093926 0.12160807
v 2.8227738E-08 -0.106319204 0.18975292
v 0.09487647 -0.106319204 0.16433084
v 1.7396792E-08 -0.18093926 0.12160807
v -0.060804017 -0.18093926 0.105315685
v -0.09487642 -0.106319204 0.16433086
v 2.8227738E-08 -0.106319204 0.18975292
v -0.060804017 -0.18093926 0.105315685
v -0.10531566 -0.18093926 0.060804084
v -0.16433081 -0.106319204 0.094876505
v -0.09487642 -0.106319204 0.16433086
v -0.10531566 -0.18093926 0.060804084
v -0.12160807 -0.18093926 6.5039465E-08
v -0.18975292 -0.106319204 8.6992664E-08
v -0.16433081 -0.106319204 0.094876505
v -0.12160807 -0.18093926 6.5039465E-08
v -0.10531572 -0.18093926 -0.060803965
v -0.1643309 -0.106319204 -0.09487637
v -0.18975292 -0.106319204 8.6992664E-08
v -0.10531572 -0.18093926 -0.060803965
v -0.060804114 -0.18093926 -0.10531565
v -0.09487657 -0.106319204 -0.16433078
v -0.1643309 -0.106319204 -0.09487637
v -0.060804114 -0.18093926 -0.10531565
v -9.655182E-10 -0.18093926 -0.12160807
v -4.241574E-10 -0.106319204 -0.18975292
v -0.09487657 -0.106319204 -0.16433078
v 0.19952944 0.024773056 0.11519839
v 0.15685359 -0.035018925 0.09055949
v 0.18111894 -0.035018925 7.910376E-09
v 0.23039676 0.024773056 3.7049974E-09
v 0.15685359 -0.035018925 0.09055949
v 0.123775005 -0.08639016 0.071461566
v 0.14292307 -0.08639016 1.1517541E-08
v 0.18111894 -0.035018925 7.910376E-09
v -0.11519852 0.024773056 -0.19952938
v -0.090559594 -0.035018925 -0.15685356
v -0.15685368 -0.035018925 -0.09055939
v -0.19952948 0.024773056 -0.11519827
v 0.11519838 0.024773056 -0.19952945
v 0.09055946 -0.035018925 -0.15685362
v -2.6073081E-09 -0.035018925 -0.18111892
v -6.269399E-10 0.024773056 -0.23039676
v -0.1995294 0.024773056 0.11519845
v -0.15685359 -0.035018925 0.09055953
v -0.09055943 -0.035018925 0.15685363
v -0.11519832 0.024773056 0.19952945
v 0.11519839 0.024773056 0.19952944
v 0.09055947 -0.035018925 0.15685362
v 0.15685359 -0.035018925 0.09055949
v 0.19952944 0.024773056 0.11519839
v -6.269399E-10 0.024773056 -0.23039676
v -2.6073081E-09 -0.035018925 -0.18111892
v -0.090559594 -0.035018925 -0.15685356
v -6.269399E-10 0.024773056 -0.23039676
v -0.090559594 -0.035018925 -0.15685356
v -0.11519852 0.024773056 -0.19952938
v 0.19952945 0.024773056 -0.11519839
v 0.15685362 -0.035018925 -0.09055947
v 0.09055946 -0.035018925 -0.15685362
v 0.11519838 0.024773056 -0.19952945
v -0.23039676 0.024773056 1.00748316E-07
v -0.18111894 -0.035018925 8.4197836E-08
v -0.15685359 -0.035018925 0.09055953
v -0.1995294 0.024773056 0.11519845
v 3.416201E-08 0.024773056 0.23039676
v 2.4740896E-08 -0.035018925 0.18111894
v 0.09055947 -0.035018925 0.15685362
v 0.11519839 0.024773056 0.19952944
v 0.23039676 0.024773056 3.7049974E-09
v 0.18111894 -0.035018925 7.910376E-09
v 0.15685362 -0.035018925 -0.09055947
v 0.19952945 0.024773056 -0.11519839
v -0.19952948 0.024773056 -0.11519827
v -0.15685368 -0.035018925 -0.09055939
v -0.18111894 -0.035018925 8.4197836E-08
v -0.23039676 0.024773056 1.00748316E-07
v -0.11519832 0.024773056 0.19952945
v -0.09055943 -0.035018925 0.15685363
v 2.4740896E-08 -0.035018925 0.18111894
v 3.416201E-08 0.024773056 0.23039676
v -0.07146151 -0.08639016 0.12377505
v -0.02188892 -0.1576384 0.037912745
v -3.1540344E-09 -0.1576384 0.04377786
v -0.07146151 -0.08639016 0.12377505
v -3.1540344E-09 -0.1576384 0.04377786
v 2.0233877E-08 -0.08639016 0.1429231
v -0.090559594 -0.035018925 -0.15685356
v -0.07146164 -0.08639016 -0.12377498
v -0.12377509 -0.08639016 -0.071461484
v -0.15685368 -0.035018925 -0.09055939
v 0.09055946 -0.035018925 -0.15685362
v 0.07146154 -0.08639016 -0.12377504
v -1.3469131E-09 -0.08639016 -0.14292306
v -2.6073081E-09 -0.035018925 -0.18111892
v -0.15685359 -0.035018925 0.09055953
v -0.123775005 -0.08639016 0.071461596
v -0.07146151 -0.08639016 0.12377505
v -0.09055943 -0.035018925 0.15685363
v 0.09055947 -0.035018925 0.15685362
v 0.07146156 -0.08639016 0.12377502
v 0.123775005 -0.08639016 0.071461566
v 0.15685359 -0.035018925 0.09055949
v -2.6073081E-09 -0.035018925 -0.18111892
v -1.3469131E-09 -0.08639016 -0.14292306
v -0.07146164 -0.08639016 -0.12377498
v -0.090559594 -0.035018925 -0.15685356
v 0.15685362 -0.035018925 -0.09055947
v 0.12377504 -0.08639016 -0.07146154
v 0.07146154 -0.08639016 -0.12377504
v 0.09055946 -0.035018925 -0.15685362
v -0.18111894 -0.035018925 8.4197836E-08
v -0.1429231 -0.08639016 7.171687E-08
v -0.123775005 -0.08639016 0.071461596
v -0.15685359 -0.035018925 0.09055953
v 2.4740896E-08 -0.035018925 0.18111894
v 2.0233877E-08 -0.08639016 0.1429231
v 0.07146156 -0.08639016 0.12377502
v 0.09055947 -0.035018925 0.15685362
v 0.18111894 -0.035018925 7.910376E-09
v 0.14292307 -0.08639016 1.1517541E-08
v 0.12377504 -0.08639016 -0.07146154
v 0.15685362 -0.035018925 -0.09055947
v -0.15685368 -0.035018925 -0.09055939
v -0.12377509 -0.08639016 -0.071461484
v -0.1429231 -0.08639016 7.171687E-08
v -0.18111894 -0.035018925 8.4197836E-08
v -0.09055943 -0.035018925 0.15685363
v -0.07146151 -0.08639016 0.12377505
v 2.0233877E-08 -0.08639016 0.1429231
v 2.4740896E-08 -0.035018925 0.18111894
v -0.021888956 -0.1576384 -0.037912685
v -9.764304E-09 -0.1576384 -0.043777805
v 0.021888906 -0.1576384 -0.037912704
v 0.037912708 -0.1576384 -0.021888899
v -0.037912745 -0.1576384 -0.021888878
v 0.043777827 -0.1576384 2.3478243E-08
v -0.043777846 -0.1576384 4.1917506E-08
v 0.037912704 -0.1576384 0.021888947
v -0.03791272 -0.1576384 0.021888956
v 0.021888912 -0.1576384 0.03791274
v -0.02188892 -0.1576384 0.037912745
v -3.1540344E-09 -0.1576384 0.04377786
v 0.123775005 -0.08639016 0.071461566
v 0.037912704 -0.1576384 0.021888947
v 0.043777827 -0.1576384 2.3478243E-08
v 0.123775005 -0.08639016 0.071461566
v 0.043777827 -0.1576384 2.3478243E-08
v 0.14292307 -0.08639016 1.1517541E-08
v -0.07146164 -0.08639016 -0.12377498
v -0.021888956 -0.1576384 -0.037912685
v -0.037912745 -0.1576384 -0.021888878
v -0.07146164 -0.08639016 -0.12377498
v -0.037912745 -0.1576384 -0.021888878
v -0.12377509 -0.08639016 -0.071461484
v 0.07146154 -0.08639016 -0.12377504
v 0.021888906 -0.1576384 -0.037912704
v -9.764304E-09 -0.1576384 -0.043777805
v -1.3469131E-09 -0.08639016 -0.14292306
v -0.123775005 -0.08639016 0.071461596
v -0.03791272 -0.1576384 0.021888956
v -0.02188892 -0.1576384 0.037912745
v -0.07146151 -0.08639016 0.12377505
v 0.07146156 -0.08639016 0.12377502
v 0.021888912 -0.1576384 0.03791274
v 0.037912704 -0.1576384 0.021888947
v 0.123775005 -0.08639016 0.071461566
v -1.3469131E-09 -0.08639016 -0.14292306
v -9.764304E-09 -0.1576384 -0.043777805
v -0.021888956 -0.1576384 -0.037912685
v -0.07146164 -0.08639016 -0.12377498
v 0.12377504 -0.08639016 -0.07146154
v 0.037912708 -0.1576384 -0.021888899
v 0.021888906 -0.1576384 -0.037912704
v 0.07146154 -0.08639016 -0.12377504
v -0.1429231 -0.08639016 7.171687E-08
v -0.043777846 -0.1576384 4.1917506E-08
v -0.03791272 -0.1576384 0.021888956
v -0.123775005 -0.08639016 0.071461596
v 2.0233877E-08 -0.08639016 0.1429231
v -3.1540344E-09 -0.1576384 0.04377786
v 0.021888912 -0.1576384 0.03791274
v 0.07146156 -0.08639016 0.12377502
v 0.14292307 -0.08639016 1.1517541E-08
v 0.043777827 -0.1576384 2.3478243E-08
v 0.037912708 -0.1576384 -0.021888899
v 0.12377504 -0.08639016 -0.07146154
v -0.12377509 -0.08639016 -0.071461484
v -0.037912745 -0.1576384 -0.021888878
v -0.043777846 -0.1576384 4.1917506E-08
v -0.1429231 -0.08639016 7.171687E-08
vn 0.24770863 -0.28984758 -0.9244614
vn 0.24770863 -0.28984758 -0.9244614
vn 0.24770863 -0.28984758 -0.9244614
vn 0.24770863 -0.28984758 -0.9244614
vn 0.6767526 -0.28984764 -0.6767526
vn 0.6767526 -0.28984764 -0.6767526
vn 0.6767526 -0.28984764 -0.6767526
vn 0.6767526 -0.28984764 -0.6767526
vn 0.9244613 -0.2898476 -0.24770872
vn 0.9244613 -0.2898476 -0.24770872
vn 0.9244613 -0.2898476 -0.24770872
vn 0.9244613 -0.2898476 -0.24770872
vn 0.9244613 -0.2898476 0.24770886
vn 0.9244613 -0.2898476 0.24770886
vn 0.9244613 -0.2898476 0.24770886
vn 0.9244613 -0.2898476 0.24770886
vn 0.67675275 -0.28984752 0.67675257
vn 0.67675275 -0.28984752 0.67675257
vn 0.67675275 -0.28984752 0.67675257
vn 0.67675275 -0.28984752 0.67675257
vn 0.2477088 -0.28984758 0.9244613
vn 0.2477088 -0.28984758 0.9244613
vn 0.2477088 -0.28984758 0.9244613
vn 0.2477088 -0.28984758 0.9244613
vn -0.24770866 -0.2898473 0.9244614
vn -0.24770866 -0.2898473 0.9244614
vn -0.24770866 -0.2898473 0.9244614
vn -0.24770866 -0.2898473 0.9244614
vn -0.6767525 -0.28984752 0.6767529
vn -0.6767525 -0.28984752 0.6767529
vn -0.6767525 -0.28984752 0.6767529
vn -0.6767525 -0.28984752 0.6767529
vn -0.9244612 -0.28984764 0.24770923
vn -0.9244612 -0.28984764 0.24770923
vn -0.9244612 -0.28984764 0.24770923
vn -0.9244612 -0.28984764 0.24770923
vn -0.9244615 -0.28984758 -0.24770819
vn -0.9244615 -0.28984758 -0.24770819
vn -0.9244615 -0.28984758 -0.24770819
vn -0.9244615 -0.28984758 -0.24770819
vn -0 1 0
vn -0 1 0
vn -0 1 0
vn -0 1 0
vn -0 1 0
vn -0 1 0
vn -0 1 0
vn -0 1 0
vn -0 1 0
vn -0 1 0
vn -0 1 0
vn -0 1 0
vn -0 1 0
vn -0 1 0
vn -0 1 0
vn -0 1 0
vn -0 1 0
vn -0 1 0
vn -0 1 0
vn -0 1 0
vn -0 1 0
vn -0 1 0
vn -0 1 0
vn -0 1 0
vn -0.6767531 -0.2898477 -0.67675215
vn -0.6767531 -0.2898477 -0.67675215
vn -0.6767531 -0.2898477 -0.67675215
vn -0.6767531 -0.2898477 -0.67675215
vn -0.24770886 -0.28984755 -0.9244614
vn -0.24770886 -0.28984755 -0.9244614
vn -0.24770886 -0.28984755 -0.9244614
vn -0.24770886 -0.28984755 -0.9244614
vn -0 -1 0
vn -0 -1 0
vn -0 -1 0
vn -0 -1 0
vn -0 -1 0
vn -0 -1 0
vn -0 -1 0
vn -0 -1 0
vn -0 -1 0
vn -0 -1 0
vn -0 -1 0
vn -0 -1 0
vn -0.23078863 -0.45263022 -0.8613144
vn -0.23078863 -0.45263022 -0.8613144
vn -0.23078863 -0.45263022 -0.8613144
vn -0.23078863 -0.45263022 -0.8613144
vn -0.6305263 -0.45263043 -0.63052547
vn -0.6305263 -0.45263043 -0.63052547
vn -0.6305263 -0.45263043 -0.63052547
vn -0.6305263 -0.45263043 -0.63052547
vn -0.8613145 -0.4526304 -0.23078786
vn -0.8613145 -0.4526304 -0.23078786
vn -0.8613145 -0.4526304 -0.23078786
vn -0.8613145 -0.4526304 -0.23078786
vn -0.8613143 -0.45263016 0.2307889
vn -0.8613143 -0.45263016 0.2307889
vn -0.8613143 -0.45263016 0.2307889
vn -0.8613143 -0.45263016 0.2307889
vn -0.6305257 -0.4526302 0.6305262
vn -0.6305257 -0.4526302 0.6305262
vn -0.6305257 -0.4526302 0.6305262
vn -0.6305257 -0.4526302 0.6305262
vn -0.23078848 -0.4526303 0.8613144
vn -0.23078848 -0.4526303 0.8613144
vn -0.23078848 -0.4526303 0.8613144
vn -0.23078848 -0.4526303 0.8613144
vn 0.23078863 -0.45263037 0.8613144
vn 0.23078863 -0.45263037 0.8613144
vn 0.23078863 -0.45263037 0.8613144
vn 0.23078863 -0.45263037 0.8613144
vn 0.6305259 -0.45263034 0.6305259
vn 0.6305259 -0.45263034 0.6305259
vn 0.6305259 -0.45263034 0.6305259
vn 0.6305259 -0.45263034 0.6305259
vn 0.8613144 -0.45263022 0.23078856
vn 0.8613144 -0.45263022 0.23078856
vn 0.8613144 -0.45263022 0.23078856
vn 0.8613144 -0.45263022 0.23078856
vn 0.8613144 -0.4526303 -0.23078853
vn 0.8613144 -0.4526303 -0.23078853
vn 0.8613144 -0.4526303 -0.23078853
vn 0.8613144 -0.4526303 -0.23078853
vn 0.6305259 -0.45263016 -0.6305259
vn 0.6305259 -0.45263016 -0.6305259
vn 0.6305259 -0.45263016 -0.6305259
vn 0.6305259 -0.45263016 -0.6305259
vn 0.23078848 -0.45263022 -0.8613144
vn 0.23078848 -0.45263022 -0.8613144
vn 0.23078848 -0.45263022 -0.8613144
vn 0.23078848 -0.45263022 -0.8613144
vn 0.19409609 -0.6615179 -0.72437614
vn 0.19409609 -0.6615179 -0.72437614
vn 0.19409609 -0.6615179 -0.72437614
vn 0.19409609 -0.6615179 -0.72437614
vn 0.5302801 -0.661518 -0.53028005
vn 0.5302801 -0.661518 -0.53028005
vn 0.5302801 -0.661518 -0.53028005
vn 0.5302801 -0.661518 -0.53028005
vn 0.72437614 -0.66151786 -0.19409609
vn 0.72437614 -0.66151786 -0.19409609
vn 0.72437614 -0.66151786 -0.19409609
vn 0.72437614 -0.66151786 -0.19409609
vn 0.724376 -0.661518 0.19409612
vn 0.724376 -0.661518 0.19409612
vn 0.724376 -0.661518 0.19409612
vn 0.724376 -0.661518 0.19409612
vn 0.5302802 -0.6615178 0.5302802
vn 0.5302802 -0.6615178 0.5302802
vn 0.5302802 -0.6615178 0.5302802
vn 0.5302802 -0.6615178 0.5302802
vn 0.19409615 -0.66151786 0.7243762
vn 0.19409615 -0.66151786 0.7243762
vn 0.19409615 -0.66151786 0.7243762
vn 0.19409615 -0.66151786 0.7243762
vn -0.19409612 -0.6615179 0.72437614
vn -0.19409612 -0.6615179 0.72437614
vn -0.19409612 -0.6615179 0.72437614
vn -0.19409612 -0.6615179 0.72437614
vn -0.5302798 -0.661518 0.5302805
vn -0.5302798 -0.661518 0.5302805
vn -0.5302798 -0.661518 0.5302805
vn -0.5302798 -0.661518 0.5302805
vn -0.7243762 -0.66151774 0.19409639
vn -0.7243762 -0.66151774 0.19409639
vn -0.7243762 -0.66151774 0.19409639
vn -0.7243762 -0.66151774 0.19409639
vn -0.7243762 -0.661518 -0.1940957
vn -0.7243762 -0.661518 -0.1940957
vn -0.7243762 -0.661518 -0.1940957
vn -0.7243762 -0.661518 -0.1940957
vn -0.5302806 -0.66151786 -0.53027976
vn -0.5302806 -0.66151786 -0.53027976
vn -0.5302806 -0.66151786 -0.53027976
vn -0.5302806 -0.66151786 -0.53027976
vn -0.1940962 -0.6615179 -0.72437614
vn -0.1940962 -0.6615179 -0.72437614
vn -0.1940962 -0.6615179 -0.72437614
vn -0.1940962 -0.6615179 -0.72437614
vn -0.75570726 0.62281936 -0.20249127
vn -0.75570726 0.62281936 -0.20249127
vn -0.75570726 0.62281936 -0.20249127
vn -0.75570726 0.62281936 -0.20249127
vn -0.78455436 0.5833367 -0.21022084
vn -0.78455436 0.5833367 -0.21022084
vn -0.78455436 0.5833367 -0.21022084
vn -0.78455436 0.5833367 -0.21022084
vn 0.5532165 0.6228193 0.5532157
vn 0.5532165 0.6228193 0.5532157
vn 0.5532165 0.6228193 0.5532157
vn 0.5532165 0.6228193 0.5532157
vn -0.20249107 0.62281924 0.7557073
vn -0.20249107 0.62281924 0.7557073
vn -0.20249107 0.62281924 0.7557073
vn -0.20249107 0.62281924 0.7557073
vn 0.55321604 0.6228192 -0.5532163
vn 0.55321604 0.6228192 -0.5532163
vn 0.55321604 0.6228192 -0.5532163
vn 0.55321604 0.6228192 -0.5532163
vn -0.55321616 0.62281924 -0.5532161
vn -0.55321616 0.62281924 -0.5532161
vn -0.55321616 0.62281924 -0.5532161
vn -0.55321616 0.62281924 -0.5532161
vn 0.20249122 0.62281936 0.7557071
vn 0.20249122 0.62281936 0.7557071
vn 0.20249122 0.62281936 0.7557071
vn 0.20249122 0.62281936 0.7557071
vn 0.20249122 0.62281936 0.7557071
vn 0.20249122 0.62281936 0.7557071
vn -0.553216 0.62281936 0.5532161
vn -0.553216 0.62281936 0.5532161
vn -0.553216 0.62281936 0.5532161
vn -0.553216 0.62281936 0.5532161
vn 0.75570714 0.62281924 -0.20249157
vn 0.75570714 0.62281924 -0.20249157
vn 0.75570714 0.62281924 -0.20249157
vn 0.75570714 0.62281924 -0.20249157
vn -0.20249124 0.6228193 -0.75570726
vn -0.20249124 0.6228193 -0.75570726
vn -0.20249124 0.6228193 -0.75570726
vn -0.20249124 0.6228193 -0.75570726
vn -0.75570726 0.6228193 0.20249104
vn -0.75570726 0.6228193 0.20249104
vn -0.75570726 0.6228193 0.20249104
vn -0.75570726 0.6228193 0.20249104
vn 0.75570744 0.6228193 0.20249078
vn 0.75570744 0.6228193 0.20249078
vn 0.75570744 0.6228193 0.20249078
vn 0.75570744 0.6228193 0.20249078
vn 0.20249109 0.6228194 -0.75570726
vn 0.20249109 0.6228194 -0.75570726
vn 0.20249109 0.6228194 -0.75570726
vn 0.20249109 0.6228194 -0.75570726
vn 0.15448943 0.80231416 -0.576563
vn 0.15448943 0.80231416 -0.576563
vn 0.15448943 0.80231416 -0.576563
vn 0.15448943 0.80231416 -0.576563
vn 0.15448943 0.80231416 -0.576563
vn 0.15448943 0.80231416 -0.576563
vn 0.574334 0.5833365 0.5743334
vn 0.574334 0.5833365 0.5743334
vn 0.574334 0.5833365 0.5743334
vn 0.574334 0.5833365 0.5743334
vn -0.2102204 0.5833368 0.7845544
vn -0.2102204 0.5833368 0.7845544
vn -0.2102204 0.5833368 0.7845544
vn -0.2102204 0.5833368 0.7845544
vn 0.5743334 0.5833367 -0.57433385
vn 0.5743334 0.5833367 -0.57433385
vn 0.5743334 0.5833367 -0.57433385
vn 0.5743334 0.5833367 -0.57433385
vn -0.5743338 0.5833367 -0.5743335
vn -0.5743338 0.5833367 -0.5743335
vn -0.5743338 0.5833367 -0.5743335
vn -0.5743338 0.5833367 -0.5743335
vn 0.21022063 0.5833368 0.78455424
vn 0.21022063 0.5833368 0.78455424
vn 0.21022063 0.5833368 0.78455424
vn 0.21022063 0.5833368 0.78455424
vn -0.5743337 0.5833367 0.57433367
vn -0.5743337 0.5833367 0.57433367
vn -0.5743337 0.5833367 0.57433367
vn -0.5743337 0.5833367 0.57433367
vn 0.78455424 0.5833366 -0.2102211
vn 0.78455424 0.5833366 -0.2102211
vn 0.78455424 0.5833366 -0.2102211
vn 0.78455424 0.5833366 -0.2102211
vn -0.21022071 0.5833369 -0.7845542
vn -0.21022071 0.5833369 -0.7845542
vn -0.21022071 0.5833369 -0.7845542
vn -0.21022071 0.5833369 -0.7845542
vn -0.7845544 0.5833367 0.21022059
vn -0.7845544 0.5833367 0.21022059
vn -0.7845544 0.5833367 0.21022059
vn -0.7845544 0.5833367 0.21022059
vn 0.78455454 0.58333665 0.21022022
vn 0.78455454 0.58333665 0.21022022
vn 0.78455454 0.58333665 0.21022022
vn 0.78455454 0.58333665 0.21022022
vn 0.21022063 0.5833366 -0.7845544
vn 0.21022063 0.5833366 -0.7845544
vn 0.21022063 0.5833366 -0.7845544
vn 0.21022063 0.5833366 -0.7845544
vn -0 1 0
vn -0 1 0
vn -0 1 0
vn -0 1 0
vn -0 1 0
vn -0 1 0
vn -0 1 0
vn -0 1 0
vn -0 1 0
vn -0 1 0
vn -0 1 0
vn -0 1 0
vn -0.576563 0.80231416 -0.15448965
vn -0.576563 0.80231416 -0.15448965
vn -0.576563 0.80231416 -0.15448965
vn -0.576563 0.80231416 -0.15448965
vn -0.576563 0.80231416 -0.15448965
vn -0.576563 0.80231416 -0.15448965
vn 0.42207336 0.80231434 0.42207316
vn 0.42207336 0.80231434 0.42207316
vn 0.42207336 0.80231434 0.42207316
vn 0.42207336 0.80231434 0.42207316
vn 0.42207336 0.80231434 0.42207316
vn 0.42207336 0.80231434 0.42207316
vn -0.154489 0.8023143 0.57656306
vn -0.154489 0.8023143 0.57656306
vn -0.154489 0.8023143 0.57656306
vn -0.154489 0.8023143 0.57656306
vn 0.42207348 0.8023141 -0.42207357
vn 0.42207348 0.8023141 -0.42207357
vn 0.42207348 0.8023141 -0.42207357
vn 0.42207348 0.8023141 -0.42207357
vn -0.42207354 0.80231416 -0.4220733
vn -0.42207354 0.80231416 -0.4220733
vn -0.42207354 0.80231416 -0.4220733
vn -0.42207354 0.80231416 -0.4220733
vn 0.15448946 0.80231416 0.576563
vn 0.15448946 0.80231416 0.576563
vn 0.15448946 0.80231416 0.576563
vn 0.15448946 0.80231416 0.576563
vn -0.42207327 0.80231434 0.42207322
vn -0.42207327 0.80231434 0.42207322
vn -0.42207327 0.80231434 0.42207322
vn -0.42207327 0.80231434 0.42207322
vn 0.57656294 0.80231416 -0.15448985
vn 0.57656294 0.80231416 -0.15448985
vn 0.57656294 0.80231416 -0.15448985
vn 0.57656294 0.80231416 -0.15448985
vn -0.15448968 0.80231416 -0.576563
vn -0.15448968 0.80231416 -0.576563
vn -0.15448968 0.80231416 -0.576563
vn -0.15448968 0.80231416 -0.576563
vn -0.57656294 0.8023143 0.15448932
vn -0.57656294 0.8023143 0.15448932
vn -0.57656294 0.8023143 0.15448932
vn -0.57656294 0.8023143 0.15448932
vn 0.57656306 0.80231416 0.15448917
vn 0.57656306 0.80231416 0.15448917
vn 0.57656306 0.80231416 0.15448917
vn 0.57656306 0.80231416 0.15448917
g Salad_0
f 3/3/3 2/2/2 1/1/1
f 4/4/4 3/3/3 1/1/1
f 7/7/7 6/6/6 5/5/5
f 8/8/8 7/7/7 5/5/5
f 11/11/11 10/10/10 9/9/9
f 12/12/12 11/11/11 9/9/9
f 15/15/15 14/14/14 13/13/13
f 16/16/16 15/15/15 13/13/13
f 19/19/19 18/18/18 17/17/17
f 20/20/20 19/19/19 17/17/17
f 23/23/23 22/22/22 21/21/21
f 24/24/24 23/23/23 21/21/21
f 27/27/27 26/26/26 25/25/25
f 28/28/28 27/27/27 25/25/25
f 31/31/31 30/30/30 29/29/29
f 32/32/32 31/31/31 29/29/29
f 35/35/35 34/34/34 33/33/33
f 36/36/36 35/35/35 33/33/33
f 39/39/39 38/38/38 37/37/37
f 40/40/40 39/39/39 37/37/37
f 43/43/43 42/42/42 41/41/41
f 44/44/44 43/43/43 41/41/41
f 45/45/45 43/43/43 44/44/44
f 46/46/46 45/45/45 44/44/44
f 47/47/47 45/45/45 46/46/46
f 48/48/48 47/47/47 46/46/46
f 49/49/49 47/47/47 48/48/48
f 50/50/50 49/49/49 48/48/48
f 51/51/51 49/49/49 50/50/50
f 52/52/52 51/51/51 50/50/50
f 53/53/53 51/51/51 52/52/52
f 54/54/54 53/53/53 52/52/52
f 55/55/55 53/53/53 54/54/54
f 56/56/56 55/55/55 54/54/54
f 57/57/57 55/55/55 56/56/56
f 58/58/58 57/57/57 56/56/56
f 59/59/59 57/57/57 58/58/58
f 60/60/60 59/59/59 58/58/58
f 61/61/61 59/59/59 60/60/60
f 62/62/62 61/61/61 60/60/60
f 63/63/63 61/61/61 62/62/62
f 64/64/64 63/63/63 62/62/62
f 42/42/42 63/63/63 64/64/64
f 41/41/41 42/42/42 64/64/64
f 67/67/67 66/66/66 65/65/65
f 68/68/68 67/67/67 65/65/65
f 71/71/71 70/70/70 69/69/69
f 72/72/72 71/71/71 69/69/69
f 75/75/75 74/74/74 73/73/73
f 73/73/73 76/76/76 75/75/75
f 76/76/76 77/77/77 75/75/75
f 76/76/76 78/78/78 77/77/77
f 78/78/78 79/79/79 77/77/77
f 78/78/78 80/80/80 79/79/79
f 80/80/80 81/81/81 79/79/79
f 80/80/80 82/82/82 81/81/81
f 82/82/82 83/83/83 81/81/81
f 82/82/82 84/84/84 83/83/83
f 87/87/87 86/86/86 85/85/85
f 88/88/88 87/87/87 85/85/85
f 91/91/91 90/90/90 89/89/89
f 92/92/92 91/91/91 89/89/89
f 95/95/95 94/94/94 93/93/93
f 96/96/96 95/95/95 93/93/93
f 99/99/99 98/98/98 97/97/97
f 100/100/100 99/99/99 97/97/97
f 103/103/103 102/102/102 101/101/101
f 104/104/104 103/103/103 101/101/101
f 107/107/107 106/106/106 105/105/105
f 108/108/108 107/107/107 105/105/105
f 111/111/111 110/110/110 109/109/109
f 112/112/112 111/111/111 109/109/109
f 115/115/115 114/114/114 113/113/113
f 116/116/116 115/115/115 113/113/113
f 119/119/119 118/118/118 117/117/117
f 120/120/120 119/119/119 117/117/117
f 123/123/123 122/122/122 121/121/121
f 124/124/124 123/123/123 121/121/121
f 127/127/127 126/126/126 125/125/125
f 128/128/128 127/127/127 125/125/125
f 131/131/131 130/130/130 129/129/129
f 132/132/132 131/131/131 129/129/129
f 135/135/135 134/134/134 133/133/133
f 136/136/136 135/135/135 133/133/133
f 139/139/139 138/138/138 137/137/137
f 140/140/140 139/139/139 137/137/137
f 143/143/143 142/142/142 141/141/141
f 144/144/144 143/143/143 141/141/141
f 147/147/147 146/146/146 145/145/145
f 148/148/148 147/147/147 145/145/145
f 151/151/151 150/150/150 149/149/149
f 152/152/152 151/151/151 149/149/149
f 155/155/155 154/154/154 153/153/153
f 156/156/156 155/155/155 153/153/153
f 159/159/159 158/158/158 157/157/157
f 160/160/160 159/159/159 157/157/157
f 163/163/163 162/162/162 161/161/161
f 164/164/164 163/163/163 161/161/161
f 167/167/167 166/166/166 165/165/165
f 168/168/168 167/167/167 165/165/165
f 171/171/171 170/170/170 169/169/169
f 172/172/172 171/171/171 169/169/169
f 175/175/175 174/174/174 173/173/173
f 176/176/176 175/175/175 173/173/173
f 179/179/179 178/178/178 177/177/177
f 180/180/180 179/179/179 177/177/177
f 183/183/183 182/182/182 181/181/181
f 184/184/184 183/183/183 181/181/181
f 187/187/187 186/186/186 185/185/185
f 188/188/188 187/187/187 185/185/185
f 191/191/191 190/190/190 189/189/189
f 192/192/192 191/191/191 189/189/189
f 195/195/195 194/194/194 193/193/193
f 196/196/196 195/195/195 193/193/193
f 199/199/199 198/198/198 197/197/197
f 200/200/200 199/199/199 197/197/197
f 203/203/203 202/202/202 201/201/201
f 204/204/204 203/203/203 201/201/201
f 207/207/207 206/206/206 205/205/205
f 210/210/210 209/209/209 208/208/208
f 213/213/213 212/212/212 211/211/211
f 214/214/214 213/213/213 211/211/211
f 217/217/217 216/216/216 215/215/215
f 218/218/218 217/217/217 215/215/215
f 221/221/221 220/220/220 219/219/219
f 222/222/222 221/221/221 219/219/219
f 225/225/225 224/224/224 223/223/223
f 226/226/226 225/225/225 223/223/223
f 229/229/229 228/228/228 227/227/227
f 230/230/230 229/229/229 227/227/227
f 233/233/233 232/232/232 231/231/231
f 234/234/234 233/233/233 231/231/231
f 237/237/237 236/236/236 235/235/235
f 240/240/240 239/239/239 238/238/238
f 243/243/243 242/242/242 241/241/241
f 244/244/244 243/243/243 241/241/241
f 247/247/247 246/246/246 245/245/245
f 248/248/248 247/247/247 245/245/245
f 251/251/251 250/250/250 249/249/249
f 252/252/252 251/251/251 249/249/249
f 255/255/255 254/254/254 253/253/253
f 256/256/256 255/255/255 253/253/253
f 259/259/259 258/258/258 257/257/257
f 260/260/260 259/259/259 257/257/257
f 263/263/263 262/262/262 261/261/261
f 264/264/264 263/263/263 261/261/261
f 267/267/267 266/266/266 265/265/265
f 268/268/268 267/267/267 265/265/265
f 271/271/271 270/270/270 269/269/269
f 272/272/272 271/271/271 269/269/269
f 275/275/275 274/274/274 273/273/273
f 276/276/276 275/275/275 273/273/273
f 279/279/279 278/278/278 277/277/277
f 280/280/280 279/279/279 277/277/277
f 283/283/283 282/282/282 281/281/281
f 284/284/284 283/283/283 281/281/281
f 287/287/287 286/286/286 285/285/285
f 285/285/285 288/288/288 287/287/287
f 285/285/285 289/289/289 288/288/288
f 289/289/289 290/290/290 288/288/288
f 289/289/289 291/291/291 290/290/290
f 291/291/291 292/292/292 290/290/290
f 291/291/291 293/293/293 292/292/292
f 293/293/293 294/294/294 292/292/292
f 293/293/293 295/295/295 294/294/294
f 295/295/295 296/296/296 294/294/294
f 299/299/299 298/298/298 297/297/297
f 302/302/302 301/301/301 300/300/300
f 305/305/305 304/304/304 303/303/303
f 308/308/308 307/307/307 306/306/306
f 311/311/311 310/310/310 309/309/309
f 312/312/312 311/311/311 309/309/309
f 315/315/315 314/314/314 313/313/313
f 316/316/316 315/315/315 313/313/313
f 319/319/319 318/318/318 317/317/317
f 320/320/320 319/319/319 317/317/317
f 323/323/323 322/322/322 321/321/321
f 324/324/324 323/323/323 321/321/321
f 327/327/327 326/326/326 325/325/325
f 328/328/328 327/327/327 325/325/325
f 331/331/331 330/330/330 329/329/329
f 332/332/332 331/331/331 329/329/329
f 335/335/335 334/334/334 333/333/333
f 336/336/336 335/335/335 333/333/333
f 339/339/339 338/338/338 337/337/337
f 340/340/340 339/339/339 337/337/337
f 343/343/343 342/342/342 341/341/341
f 344/344/344 343/343/343 341/341/341
