g PlateWithFood
v 0.07796822 0.02601824 -0.1882319
v 0.05948166 -0.001117627 -0.14360142
v 0.10990777 -0.001117627 -0.10990777
v 0.14406647 0.02601824 -0.14406647
v 0.14406647 0.02601824 -0.14406647
v 0.10990777 -0.001117627 -0.10990777
v 0.14360142 -0.001117627 -0.05948166
v 0.1882319 0.02601824 -0.07796821
v 0.1882319 0.02601824 -0.07796821
v 0.14360142 -0.001117627 -0.05948166
v 0.15543306 -0.001117627 -8.014284E-09
v 0.20374076 0.02601824 -1.5382E-08
v 0.20374076 0.02601824 -1.5382E-08
v 0.15543306 -0.001117627 -8.014284E-09
v 0.14360143 -0.001117627 0.05948163
v 0.18823192 0.02601824 0.07796817
v 0.18823192 0.02601824 0.07796817
v 0.14360143 -0.001117627 0.05948163
v 0.10990777 -0.001117627 0.10990777
v 0.14406647 0.02601824 0.14406647
v 0.14406647 0.02601824 0.14406647
v 0.10990777 -0.001117627 0.10990777
v 0.05948163 -0.001117627 0.14360143
v 0.07796817 0.02601824 0.18823192
v 0.07796817 0.02601824 0.18823192
v 0.05948163 -0.001117627 0.14360143
v -5.425866E-08 -0.001117627 0.15543306
v -6.6387166E-08 0.02601824 0.20374076
v -6.6387166E-08 0.02601824 0.20374076
v -5.425866E-08 -0.001117627 0.15543306
v -0.05948173 -0.001117627 0.1436014
v -0.07796831 0.02601824 0.18823187
v -0.07796831 0.02601824 0.18823187
v -0.05948173 -0.001117627 0.1436014
v -0.10990784 -0.001117627 0.10990771
v -0.14406657 0.02601824 0.1440664
v -0.14406657 0.02601824 0.1440664
v -0.10990784 -0.001117627 0.10990771
v -0.14360146 -0.001117627 0.059481543
v -0.18823197 0.02601824 0.07796806
v -0.18823197 0.02601824 0.07796806
v -0.14360146 -0.001117627 0.059481543
v -0.15543307 -0.001117627 -1.5252562E-07
v -0.20374076 0.02601824 -1.967319E-07
v -0.20374076 0.02601824 -1.967319E-07
v -0.15543307 -0.001117627 -1.5252562E-07
v -0.14360136 -0.001117627 -0.05948182
v -0.18823183 0.02601824 -0.077968426
v -0.18823183 0.02601824 -0.077968426
v -0.14360136 -0.001117627 -0.05948182
v -0.109907635 -0.001117627 -0.10990791
v -0.14406629 0.02601824 -0.14406665
v -0.14406629 0.02601824 -0.14406665
v -0.109907635 -0.001117627 -0.10990791
v -0.05948145 -0.001117627 -0.1436015
v -0.077967934 0.02601824 -0.18823203
v -0.077967934 0.02601824 -0.18823203
v -0.05948145 -0.001117627 -0.1436015
v -2.1026219E-08 -0.001117627 -0.15543307
v -0 0.02601824 -0.20374076
v -0.14406657 0.02601824 0.1440664
v -0.1282707 0.02601824 0.12827054
v -0.06941964 0.02601824 0.16759358
v -0.07796831 0.02601824 0.18823187
v -0.18823197 0.02601824 0.07796806
v -0.1675937 0.02601824 0.06941942
v -0.18140204 0.02601824 -1.8152784E-07
v -0.20374076 0.02601824 -1.967319E-07
v -0.18823183 0.02601824 -0.077968426
v -0.16759355 0.02601824 -0.06941976
v -0.12827046 0.02601824 -0.12827079
v -0.14406629 0.02601824 -0.14406665
v -0.077967934 0.02601824 -0.18823203
v -0.06941931 0.02601824 -0.16759375
v -5.6455715E-08 0.02601824 0.18140203
v -6.6387166E-08 0.02601824 0.20374076
v 0.06941953 0.02601824 0.16759364
v 0.07796817 0.02601824 0.18823192
v 0.12827063 0.02601824 0.12827061
v 0.14406647 0.02601824 0.14406647
v 0.16759364 0.02601824 0.069419526
v 0.18823192 0.02601824 0.07796817
v 0.20374076 0.02601824 -1.5382E-08
v 0.18140204 0.02601824 -2.006166E-08
v 0.16759364 0.02601824 -0.06941956
v 0.1882319 0.02601824 -0.07796821
v 0.14406647 0.02601824 -0.14406647
v 0.12827063 0.02601824 -0.12827063
v 0.06941956 0.02601824 -0.16759364
v 0.07796822 0.02601824 -0.1882319
v -0 0.02601824 -0.20374076
v 2.6525784E-09 0.02601824 -0.18140204
v 0.05948166 -0.001117627 -0.14360142
v -2.1026219E-08 -0.001117627 -0.15543307
v -0.05948145 -0.001117627 -0.1436015
v -0.109907635 -0.001117627 -0.10990791
v 0.10990777 -0.001117627 -0.10990777
v -0.14360136 -0.001117627 -0.05948182
v 0.14360142 -0.001117627 -0.05948166
v -0.15543307 -0.001117627 -1.5252562E-07
v 0.15543306 -0.001117627 -8.014284E-09
v -0.14360146 -0.001117627 0.059481543
v 0.14360143 -0.001117627 0.05948163
v -0.10990784 -0.001117627 0.10990771
v 0.10990777 -0.001117627 0.10990777
v -0.05948173 -0.001117627 0.1436014
v 0.05948163 -0.001117627 0.14360143
v -5.425866E-08 -0.001117627 0.15543306
v -0.16759355 0.02601824 -0.06941976
v -0.12827046 0.02601824 -0.12827079
v -0.084366366 0.007591246 -0.08436663
v -0.11023008 0.007591246 -0.045658965
v 0.06941956 0.02601824 -0.16759364
v 0.045658827 0.007591246 -0.110230155
v 7.265119E-09 0.007591246 -0.119312264
v 2.6525784E-09 0.02601824 -0.18140204
v -0.045658644 0.007591246 -0.11023022
v 7.265119E-09 0.007591246 -0.119312264
v 0.045658827 0.007591246 -0.110230155
v -0.084366366 0.007591246 -0.08436663
v 0.08436651 0.007591246 -0.08436652
v -0.11023008 0.007591246 -0.045658965
v 0.11023014 0.007591246 -0.04565884
v -0.119312234 0.007591246 -1.4147682E-07
v 0.119312234 0.007591246 -3.5276845E-08
v -0.110230155 0.007591246 0.0456587
v 0.11023014 0.007591246 0.045658775
v -0.08436653 0.007591246 0.0843664
v 0.08436651 0.007591246 0.08436646
v -0.045658864 0.007591246 0.11023009
v 0.0456588 0.007591246 0.11023012
v -3.1611748E-08 0.007591246 0.119312204
v -5.6455715E-08 0.02601824 0.18140203
v -3.1611748E-08 0.007591246 0.119312204
v 0.0456588 0.007591246 0.11023012
v 0.06941953 0.02601824 0.16759364
v -0.06941931 0.02601824 -0.16759375
v -0.045658644 0.007591246 -0.11023022
v -0.084366366 0.007591246 -0.08436663
v -0.12827046 0.02601824 -0.12827079
v 0.12827063 0.02601824 -0.12827063
v 0.08436651 0.007591246 -0.08436652
v 0.045658827 0.007591246 -0.110230155
v 0.06941956 0.02601824 -0.16759364
v -0.06941964 0.02601824 0.16759358
v -0.045658864 0.007591246 0.11023009
v -3.1611748E-08 0.007591246 0.119312204
v -5.6455715E-08 0.02601824 0.18140203
v 2.6525784E-09 0.02601824 -0.18140204
v 7.265119E-09 0.007591246 -0.119312264
v -0.045658644 0.007591246 -0.11023022
v -0.06941931 0.02601824 -0.16759375
v 0.16759364 0.02601824 -0.06941956
v 0.11023014 0.007591246 -0.04565884
v 0.08436651 0.007591246 -0.08436652
v 0.12827063 0.02601824 -0.12827063
v -0.1282707 0.02601824 0.12827054
v -0.08436653 0.007591246 0.0843664
v -0.045658864 0.007591246 0.11023009
v -0.06941964 0.02601824 0.16759358
v 0.18140204 0.02601824 -2.006166E-08
v 0.119312234 0.007591246 -3.5276845E-08
v 0.11023014 0.007591246 -0.04565884
v 0.16759364 0.02601824 -0.06941956
v -0.1675937 0.02601824 0.06941942
v -0.110230155 0.007591246 0.0456587
v -0.08436653 0.007591246 0.0843664
v -0.1282707 0.02601824 0.12827054
v 0.16759364 0.02601824 0.069419526
v 0.11023014 0.007591246 0.045658775
v 0.119312234 0.007591246 -3.5276845E-08
v 0.18140204 0.02601824 -2.006166E-08
v -0.18140204 0.02601824 -1.8152784E-07
v -0.119312234 0.007591246 -1.4147682E-07
v -0.110230155 0.007591246 0.0456587
v -0.1675937 0.02601824 0.06941942
v 0.12827063 0.02601824 0.12827061
v 0.08436651 0.007591246 0.08436646
v 0.11023014 0.007591246 0.045658775
v 0.16759364 0.02601824 0.069419526
v -0.16759355 0.02601824 -0.06941976
v -0.11023008 0.007591246 -0.045658965
v -0.119312234 0.007591246 -1.4147682E-07
v -0.18140204 0.02601824 -1.8152784E-07
v 0.06941953 0.02601824 0.16759364
v 0.0456588 0.007591246 0.11023012
v 0.08436651 0.007591246 0.08436646
v 0.12827063 0.02601824 0.12827061
v -0 0.02601824 -0.20374076
v -2.1026219E-08 -0.001117627 -0.15543307
v 0.05948166 -0.001117627 -0.14360142
v 0.07796822 0.02601824 -0.1882319
vn 0.27611452 -0.8677546 -0.41323453
vn 0.27611452 -0.8677546 -0.41323453
vn 0.27611452 -0.8677546 -0.41323453
vn 0.27611452 -0.8677546 -0.41323453
vn 0.41323465 -0.8677545 -0.27611455
vn 0.41323465 -0.8677545 -0.27611455
vn 0.41323465 -0.8677545 -0.27611455
vn 0.41323465 -0.8677545 -0.27611455
vn 0.48744345 -0.8677545 -0.09695863
vn 0.48744345 -0.8677545 -0.09695863
vn 0.48744345 -0.8677545 -0.09695863
vn 0.48744345 -0.8677545 -0.09695863
vn 0.48744345 -0.8677545 0.09695852
vn 0.48744345 -0.8677545 0.09695852
vn 0.48744345 -0.8677545 0.09695852
vn 0.48744345 -0.8677545 0.09695852
vn 0.41323468 -0.8677545 0.27611455
vn 0.41323468 -0.8677545 0.27611455
vn 0.41323468 -0.8677545 0.27611455
vn 0.41323468 -0.8677545 0.27611455
vn 0.27611455 -0.8677545 0.41323465
vn 0.27611455 -0.8677545 0.41323465
vn 0.27611455 -0.8677545 0.41323465
vn 0.27611455 -0.8677545 0.41323465
vn 0.09695839 -0.8677546 0.4874433
vn 0.09695839 -0.8677546 0.4874433
vn 0.09695839 -0.8677546 0.4874433
vn 0.09695839 -0.8677546 0.4874433
vn -0.09695878 -0.8677544 0.48744354
vn -0.09695878 -0.8677544 0.48744354
vn -0.09695878 -0.8677544 0.48744354
vn -0.09695878 -0.8677544 0.48744354
vn -0.27611476 -0.8677545 0.41323465
vn -0.27611476 -0.8677545 0.41323465
vn -0.27611476 -0.8677545 0.41323465
vn -0.27611476 -0.8677545 0.41323465
vn -0.41323483 -0.8677546 0.27611405
vn -0.41323483 -0.8677546 0.27611405
vn -0.41323483 -0.8677546 0.27611405
vn -0.41323483 -0.8677546 0.27611405
vn -0.48744345 -0.8677545 0.09695821
vn -0.48744345 -0.8677545 0.09695821
vn -0.48744345 -0.8677545 0.09695821
vn -0.48744345 -0.8677545 0.09695821
vn -0.4874435 -0.8677545 -0.09695909
vn -0.4874435 -0.8677545 -0.09695909
vn -0.4874435 -0.8677545 -0.09695909
vn -0.4874435 -0.8677545 -0.09695909
vn -0.4132344 -0.8677545 -0.27611515
vn -0.4132344 -0.8677545 -0.27611515
vn -0.4132344 -0.8677545 -0.27611515
vn -0.4132344 -0.8677545 -0.27611515
vn -0.27611393 -0.8677545 -0.41323492
vn -0.27611393 -0.8677545 -0.41323492
vn -0.27611393 -0.8677545 -0.41323492
vn -0.27611393 -0.8677545 -0.41323492
vn -0.09695821 -0.8677545 -0.48744345
vn -0.09695821 -0.8677545 -0.48744345
vn -0.09695821 -0.8677545 -0.48744345
vn -0.09695821 -0.8677545 -0.48744345
vn -0 1 0
vn -0 1 0
vn -0 1 0
vn -0 1 0
vn -0 1 0
vn -0 1 0
vn -0 1 0
vn -0 1 0
vn -0 1 0
vn -0 1 0
vn -0 1 0
vn -0 1 0
vn -0 1 0
vn -0 1 0
vn -0 1 0
vn -0 1 0
vn -0 1 0
vn -0 1 0
vn -0 1 0
vn -0 1 0
vn -1.0607474E-07 1 0
vn -1.0607474E-07 1 0
vn -1.0607474E-07 1 0
vn -1.0607474E-07 1 0
vn -0 1 0
vn -0 1 0
vn -0 1 0
vn -0 1 0
vn -0 1 0
vn -0 1 0
vn -0 1 0
vn -0 1 0
vn -0 -1 0
vn -0 -1 0
vn -0 -1 0
vn -0 -1 0
vn -0 -1 0
vn -0 -1 0
vn -0 -1 0
vn -0 -1 0
vn -0 -1 0
vn -0 -1 0
vn -0 -1 0
vn -0 -1 0
vn -0 -1 0
vn -0 -1 0
vn -0 -1 0
vn -0 -1 0
vn 0.24081406 0.95714027 0.16090721
vn 0.24081406 0.95714027 0.16090721
vn 0.24081406 0.95714027 0.16090721
vn 0.24081406 0.95714027 0.16090721
vn -0.056503087 0.95714015 0.28405997
vn -0.056503087 0.95714015 0.28405997
vn -0.056503087 0.95714015 0.28405997
vn -0.056503087 0.95714015 0.28405997
vn -0 1 0
vn -0 1 0
vn -0 1 0
vn -0 1 0
vn -0 1 0
vn -0 1 0
vn -0 1 0
vn -0 1 0
vn -0 1 0
vn -0 1 0
vn -0 1 0
vn -0 1 0
vn -0 1 0
vn -0 1 0
vn -0 1 0
vn -0 1 0
vn -0.0565029 0.95714027 -0.2840597
vn -0.0565029 0.95714027 -0.2840597
vn -0.0565029 0.95714027 -0.2840597
vn -0.0565029 0.95714027 -0.2840597
vn 0.16090663 0.95714015 0.24081458
vn 0.16090663 0.95714015 0.24081458
vn 0.16090663 0.95714015 0.24081458
vn 0.16090663 0.95714015 0.24081458
vn -0.16090688 0.95714027 0.2408143
vn -0.16090688 0.95714027 0.2408143
vn -0.16090688 0.95714027 0.2408143
vn -0.16090688 0.95714027 0.2408143
vn 0.056503117 0.95714027 -0.28405982
vn 0.056503117 0.95714027 -0.28405982
vn 0.056503117 0.95714027 -0.28405982
vn 0.056503117 0.95714027 -0.28405982
vn 0.056502845 0.95714015 0.2840599
vn 0.056502845 0.95714015 0.2840599
vn 0.056502845 0.95714015 0.2840599
vn 0.056502845 0.95714015 0.2840599
vn -0.24081437 0.95714015 0.16090691
vn -0.24081437 0.95714015 0.16090691
vn -0.24081437 0.95714015 0.16090691
vn -0.24081437 0.95714015 0.16090691
vn 0.16090705 0.95714027 -0.24081412
vn 0.16090705 0.95714027 -0.24081412
vn 0.16090705 0.95714027 -0.24081412
vn 0.16090705 0.95714027 -0.24081412
vn -0.28405982 0.95714027 0.056503095
vn -0.28405982 0.95714027 0.056503095
vn -0.28405982 0.95714027 0.056503095
vn -0.28405982 0.95714027 0.056503095
vn 0.24081424 0.95714027 -0.1609067
vn 0.24081424 0.95714027 -0.1609067
vn 0.24081424 0.95714027 -0.1609067
vn 0.24081424 0.95714027 -0.1609067
vn -0.28405982 0.95714027 -0.056502968
vn -0.28405982 0.95714027 -0.056502968
vn -0.28405982 0.95714027 -0.056502968
vn -0.28405982 0.95714027 -0.056502968
vn 0.28405973 0.95714027 -0.056502726
vn 0.28405973 0.95714027 -0.056502726
vn 0.28405973 0.95714027 -0.056502726
vn 0.28405973 0.95714027 -0.056502726
vn -0.24081427 0.95714027 -0.16090696
vn -0.24081427 0.95714027 -0.16090696
vn -0.24081427 0.95714027 -0.16090696
vn -0.24081427 0.95714027 -0.16090696
vn 0.28405976 0.95714027 0.056503378
vn 0.28405976 0.95714027 0.056503378
vn 0.28405976 0.95714027 0.056503378
vn 0.28405976 0.95714027 0.056503378
vn -0.16090687 0.95714027 -0.24081415
vn -0.16090687 0.95714027 -0.24081415
vn -0.16090687 0.95714027 -0.24081415
vn -0.16090687 0.95714027 -0.24081415
vn 0.09695863 -0.8677545 -0.48744357
vn 0.09695863 -0.8677545 -0.48744357
vn 0.09695863 -0.8677545 -0.48744357
vn 0.09695863 -0.8677545 -0.48744357
g PlateWithFood_0
f 3/3/3 2/2/2 1/1/1
f 4/4/4 3/3/3 1/1/1
f 7/7/7 6/6/6 5/5/5
f 8/8/8 7/7/7 5/5/5
f 11/11/11 10/10/10 9/9/9
f 12/12/12 11/11/11 9/9/9
f 15/15/15 14/14/14 13/13/13
f 16/16/16 15/15/15 13/13/13
f 19/19/19 18/18/18 17/17/17
f 20/20/20 19/19/19 17/17/17
f 23/23/23 22/22/22 21/21/21
f 24/24/24 23/23/23 21/21/21
f 27/27/27 26/26/26 25/25/25
f 28/28/28 27/27/27 25/25/25
f 31/31/31 30/30/30 29/29/29
f 32/32/32 31/31/31 29/29/29
f 35/35/35 34/34/34 33/33/33
f 36/36/36 35/35/35 33/33/33
f 39/39/39 38/38/38 37/37/37
f 40/40/40 39/39/39 37/37/37
f 43/43/43 42/42/42 41/41/41
f 44/44/44 43/43/43 41/41/41
f 47/47/47 46/46/46 45/45/45
f 48/48/48 47/47/47 45/45/45
f 51/51/51 50/50/50 49/49/49
f 52/52/52 51/51/51 49/49/49
f 55/55/55 54/54/54 53/53/53
f 56/56/56 55/55/55 53/53/53
f 59/59/59 58/58/58 57/57/57
f 60/60/60 59/59/59 57/57/57
f 63/63/63 62/62/62 61/61/61
f 64/64/64 63/63/63 61/61/61
f 61/61/61 62/62/62 65/65/65
f 62/62/62 66/66/66 65/65/65
f 66/66/66 67/67/67 65/65/65
f 67/67/67 68/68/68 65/65/65
f 68/68/68 67/67/67 69/69/69
f 67/67/67 70/70/70 69/69/69
f 70/70/70 71/71/71 69/69/69
f 71/71/71 72/72/72 69/69/69
f 72/72/72 71/71/71 73/73/73
f 71/71/71 74/74/74 73/73/73
f 75/75/75 63/63/63 64/64/64
f 76/76/76 75/75/75 64/64/64
f 77/77/77 75/75/75 76/76/76
f 78/78/78 77/77/77 76/76/76
f 79/79/79 77/77/77 78/78/78
f 80/80/80 79/79/79 78/78/78
f 81/81/81 79/79/79 80/80/80
f 82/82/82 81/81/81 80/80/80
f 81/81/81 82/82/82 83/83/83
f 84/84/84 81/81/81 83/83/83
f 85/85/85 84/84/84 83/83/83
f 86/86/86 85/85/85 83/83/83
f 85/85/85 86/86/86 87/87/87
f 88/88/88 85/85/85 87/87/87
f 89/89/89 88/88/88 87/87/87
f 90/90/90 89/89/89 87/87/87
f 89/89/89 90/90/90 91/91/91
f 92/92/92 89/89/89 91/91/91
f 74/74/74 92/92/92 91/91/91
f 73/73/73 74/74/74 91/91/91
f 95/95/95 94/94/94 93/93/93
f 93/93/93 96/96/96 95/95/95
f 93/93/93 97/97/97 96/96/96
f 97/97/97 98/98/98 96/96/96
f 97/97/97 99/99/99 98/98/98
f 99/99/99 100/100/100 98/98/98
f 99/99/99 101/101/101 100/100/100
f 101/101/101 102/102/102 100/100/100
f 101/101/101 103/103/103 102/102/102
f 103/103/103 104/104/104 102/102/102
f 103/103/103 105/105/105 104/104/104
f 105/105/105 106/106/106 104/104/104
f 105/105/105 107/107/107 106/106/106
f 107/107/107 108/108/108 106/106/106
f 111/111/111 110/110/110 109/109/109
f 112/112/112 111/111/111 109/109/109
f 115/115/115 114/114/114 113/113/113
f 116/116/116 115/115/115 113/113/113
f 119/119/119 118/118/118 117/117/117
f 117/117/117 120/120/120 119/119/119
f 120/120/120 121/121/121 119/119/119
f 120/120/120 122/122/122 121/121/121
f 122/122/122 123/123/123 121/121/121
f 122/122/122 124/124/124 123/123/123
f 124/124/124 125/125/125 123/123/123
f 124/124/124 126/126/126 125/125/125
f 126/126/126 127/127/127 125/125/125
f 126/126/126 128/128/128 127/127/127
f 128/128/128 129/129/129 127/127/127
f 128/128/128 130/130/130 129/129/129
f 130/130/130 131/131/131 129/129/129
f 130/130/130 132/132/132 131/131/131
f 135/135/135 134/134/134 133/133/133
f 136/136/136 135/135/135 133/133/133
f 139/139/139 138/138/138 137/137/137
f 140/140/140 139/139/139 137/137/137
f 143/143/143 142/142/142 141/141/141
f 144/144/144 143/143/143 141/141/141
f 147/147/147 146/146/146 145/145/145
f 148/148/148 147/147/147 145/145/145
f 151/151/151 150/150/150 149/149/149
f 152/152/152 151/151/151 149/149/149
f 155/155/155 154/154/154 153/153/153
f 156/156/156 155/155/155 153/153/153
f 159/159/159 158/158/158 157/157/157
f 160/160/160 159/159/159 157/157/157
f 163/163/163 162/162/162 161/161/161
f 164/164/164 163/163/163 161/161/161
f 167/167/167 166/166/166 165/165/165
f 168/168/168 167/167/167 165/165/165
f 171/171/171 170/170/170 169/169/169
f 172/172/172 171/171/171 169/169/169
f 175/175/175 174/174/174 173/173/173
f 176/176/176 175/175/175 173/173/173
f 179/179/179 178/178/178 177/177/177
f 180/180/180 179/179/179 177/177/177
f 183/183/183 182/182/182 181/181/181
f 184/184/184 183/183/183 181/181/181
f 187/187/187 186/186/186 185/185/185
f 188/188/188 187/187/187 185/185/185
f 191/191/191 190/190/190 189/189/189
f 192/192/192 191/191/191 189/189/189
