g Lid
v -3.6455756E-08 0.0037412827 -0.19725876
v 0.09862935 0.0037412827 -0.17083101
v 0.09075404 0.020014144 -0.15719056
v -3.662975E-08 0.020014144 -0.18150812
v 0.09862935 0.0037412827 -0.17083101
v 0.17083122 0.0037412827 -0.09862928
v 0.15719076 0.020014144 -0.09075397
v 0.09075404 0.020014144 -0.15719056
v 0.17083122 0.0037412827 -0.09862928
v 0.19725883 0.0037412827 1.4832399E-07
v 0.1815082 0.020014144 1.4988399E-07
v 0.15719076 0.020014144 -0.09075397
v 0.19725883 0.0037412827 1.4832399E-07
v 0.17083122 0.0037412827 0.09862958
v 0.15719076 0.020014144 0.090754256
v 0.1815082 0.020014144 1.4988399E-07
v 0.17083122 0.0037412827 0.09862958
v 0.09862942 0.0037412827 0.17083137
v 0.09075411 0.020014144 0.1571909
v 0.15719076 0.020014144 0.090754256
v 0.09862942 0.0037412827 0.17083137
v -6.670492E-09 0.0037412827 0.19725898
v -9.222769E-09 0.020014144 0.18150835
v 0.09075411 0.020014144 0.1571909
v -6.670492E-09 0.0037412827 0.19725898
v -0.098629445 0.0037412827 0.17083137
v -0.09075413 0.020014144 0.1571909
v -9.222769E-09 0.020014144 0.18150835
v -0.098629445 0.0037412827 0.17083137
v -0.17083116 0.0037412827 0.098629676
v -0.15719073 0.020014144 0.09075435
v -0.09075413 0.020014144 0.1571909
v -0.17083116 0.0037412827 0.098629676
v -0.19725892 0.0037412827 2.314096E-07
v -0.18150829 0.020014144 2.2633544E-07
v -0.15719073 0.020014144 0.09075435
v -0.19725892 0.0037412827 2.314096E-07
v -0.17083131 0.0037412827 -0.098629214
v -0.15719087 0.020014144 -0.09075391
v -0.18150829 0.020014144 2.2633544E-07
v -0.18150829 0.020014144 2.2633544E-07
v -0.1454397 0.03864149 2.1415973E-07
v -0.1259544 0.03864149 0.07272003
v -0.15719073 0.020014144 0.09075435
v -0.17083131 0.0037412827 -0.098629214
v -0.098629616 0.0037412827 -0.17083101
v -0.09075428 0.020014144 -0.15719056
v -0.15719087 0.020014144 -0.09075391
v -0.098629616 0.0037412827 -0.17083101
v -3.6455756E-08 0.0037412827 -0.19725876
v -3.662975E-08 0.020014144 -0.18150812
v -0.09075428 0.020014144 -0.15719056
v 0.09862935 0.0037412827 -0.17083101
v -3.6455756E-08 0.0037412827 -0.19725876
v -0.098629616 0.0037412827 -0.17083101
v 0.17083122 0.0037412827 -0.09862928
v -0.17083131 0.0037412827 -0.098629214
v 0.19725883 0.0037412827 1.4832399E-07
v -0.19725892 0.0037412827 2.314096E-07
v 0.17083122 0.0037412827 0.09862958
v -0.17083116 0.0037412827 0.098629676
v 0.09862942 0.0037412827 0.17083137
v -0.098629445 0.0037412827 0.17083137
v -6.670492E-09 0.0037412827 0.19725898
v 0.07271975 0.03864149 -0.12595424
v 0.038601328 0.05016414 -0.06685937
v -3.541376E-08 0.05016414 -0.07720261
v -3.704141E-08 0.03864149 -0.14543952
v -0.15719073 0.020014144 0.09075435
v -0.1259544 0.03864149 0.07272003
v -0.07271983 0.03864149 0.12595458
v -0.09075413 0.020014144 0.1571909
v -0.09075413 0.020014144 0.1571909
v -0.07271983 0.03864149 0.12595458
v -1.5080635E-08 0.03864149 0.14543973
v -9.222769E-09 0.020014144 0.18150835
v -9.222769E-09 0.020014144 0.18150835
v -1.5080635E-08 0.03864149 0.14543973
v 0.072719805 0.03864149 0.12595458
v 0.09075411 0.020014144 0.1571909
v 0.09075411 0.020014144 0.1571909
v 0.072719805 0.03864149 0.12595458
v 0.12595442 0.03864149 0.07271998
v 0.15719076 0.020014144 0.090754256
v 0.15719076 0.020014144 0.090754256
v 0.12595442 0.03864149 0.07271998
v 0.14543961 0.03864149 1.5290041E-07
v 0.1815082 0.020014144 1.4988399E-07
v -3.662975E-08 0.020014144 -0.18150812
v -3.704141E-08 0.03864149 -0.14543952
v -0.072719954 0.03864149 -0.12595424
v -0.09075428 0.020014144 -0.15719056
v 0.09075404 0.020014144 -0.15719056
v 0.07271975 0.03864149 -0.12595424
v -3.704141E-08 0.03864149 -0.14543952
v -3.662975E-08 0.020014144 -0.18150812
v 0.1815082 0.020014144 1.4988399E-07
v 0.14543961 0.03864149 1.5290041E-07
v 0.12595442 0.03864149 -0.07271967
v 0.15719076 0.020014144 -0.09075397
v -0.09075428 0.020014144 -0.15719056
v -0.072719954 0.03864149 -0.12595424
v -0.12595452 0.03864149 -0.072719626
v -0.15719087 0.020014144 -0.09075391
v 0.15719076 0.020014144 -0.09075397
v 0.12595442 0.03864149 -0.07271967
v 0.07271975 0.03864149 -0.12595424
v 0.09075404 0.020014144 -0.15719056
v -0.15719087 0.020014144 -0.09075391
v -0.12595452 0.03864149 -0.072719626
v -0.1454397 0.03864149 2.1415973E-07
v -0.18150829 0.020014144 2.2633544E-07
v -0.038601466 0.05016414 -0.06685937
v -0.012002802 0.050164144 -0.020789206
v -0.020789426 0.050164144 -0.012002583
v -0.06685962 0.05016414 -0.038601197
v -3.541376E-08 0.05016414 -0.07720261
v -3.5911977E-08 0.050164144 -0.024005344
v 0.038601328 0.05016414 -0.06685937
v 0.012002711 0.050164144 -0.020789206
v 0.06685953 0.05016414 -0.03860122
v 0.020789346 0.050164144 -0.012002588
v 0.07720272 0.05016414 1.5948214E-07
v 0.024005467 0.050164144 1.6493455E-07
v -0.024005543 0.050164144 1.750457E-07
v -0.0772028 0.05016414 1.9200002E-07
v -0.020789405 0.050164144 0.012002925
v -0.06685955 0.05016414 0.03860157
v -0.012002784 0.050164144 0.020789545
v -0.0386014 0.05016414 0.066859715
v -3.2287243E-08 0.050164144 0.024005663
v -2.3756467E-08 0.05016414 0.077202894
v 0.01200272 0.050164144 0.020789545
v 0.038601354 0.05016414 0.066859715
v 0.020789346 0.050164144 0.012002917
v 0.06685953 0.05016414 0.03860154
v -0.1259544 0.03864149 0.07272003
v -0.06685955 0.05016414 0.03860157
v -0.0386014 0.05016414 0.066859715
v -0.07271983 0.03864149 0.12595458
v 0.072719805 0.03864149 0.12595458
v 0.038601354 0.05016414 0.066859715
v 0.06685953 0.05016414 0.03860154
v 0.12595442 0.03864149 0.07271998
v -3.704141E-08 0.03864149 -0.14543952
v -3.541376E-08 0.05016414 -0.07720261
v -0.038601466 0.05016414 -0.06685937
v -0.072719954 0.03864149 -0.12595424
v 0.12595442 0.03864149 -0.07271967
v 0.06685953 0.05016414 -0.03860122
v 0.038601328 0.05016414 -0.06685937
v 0.07271975 0.03864149 -0.12595424
v -0.1454397 0.03864149 2.1415973E-07
v -0.0772028 0.05016414 1.9200002E-07
v -0.06685955 0.05016414 0.03860157
v -0.1259544 0.03864149 0.07272003
v -1.5080635E-08 0.03864149 0.14543973
v -2.3756467E-08 0.05016414 0.077202894
v 0.038601354 0.05016414 0.066859715
v 0.072719805 0.03864149 0.12595458
v 0.14543961 0.03864149 1.5290041E-07
v 0.07720272 0.05016414 1.5948214E-07
v 0.06685953 0.05016414 -0.03860122
v 0.12595442 0.03864149 -0.07271967
v -0.12595452 0.03864149 -0.072719626
v -0.06685962 0.05016414 -0.038601197
v -0.0772028 0.05016414 1.9200002E-07
v -0.1454397 0.03864149 2.1415973E-07
v -0.07271983 0.03864149 0.12595458
v -0.0386014 0.05016414 0.066859715
v -2.3756467E-08 0.05016414 0.077202894
v -1.5080635E-08 0.03864149 0.14543973
v 0.12595442 0.03864149 0.07271998
v 0.06685953 0.05016414 0.03860154
v 0.07720272 0.05016414 1.5948214E-07
v 0.14543961 0.03864149 1.5290041E-07
v -0.072719954 0.03864149 -0.12595424
v -0.038601466 0.05016414 -0.06685937
v -0.06685962 0.05016414 -0.038601197
v -0.12595452 0.03864149 -0.072719626
v 0.020789346 0.050164144 0.012002917
v 0.020789346 0.06922618 0.012002917
v 0.024005467 0.06922618 1.6493455E-07
v 0.024005467 0.050164144 1.6493455E-07
v -0.012002802 0.06922618 -0.020789206
v -3.5911977E-08 0.06922618 -0.024005344
v 0.012002711 0.06922618 -0.020789206
v -0.020789426 0.06922618 -0.012002583
v 0.020789346 0.06922618 -0.012002588
v 0.024005467 0.06922618 1.6493455E-07
v -0.024005543 0.06922618 1.750457E-07
v 0.020789346 0.06922618 0.012002917
v -0.020789405 0.06922618 0.012002925
v 0.01200272 0.06922618 0.020789545
v -0.012002784 0.06922618 0.020789545
v -3.2287243E-08 0.06922618 0.024005663
v -0.012002802 0.050164144 -0.020789206
v -0.012002802 0.06922618 -0.020789206
v -0.020789426 0.06922618 -0.012002583
v -0.020789426 0.050164144 -0.012002583
v 0.012002711 0.050164144 -0.020789206
v 0.012002711 0.06922618 -0.020789206
v -3.5911977E-08 0.06922618 -0.024005344
v -3.5911977E-08 0.050164144 -0.024005344
v -0.020789405 0.050164144 0.012002925
v -0.020789405 0.06922618 0.012002925
v -0.012002784 0.06922618 0.020789545
v -0.012002784 0.050164144 0.020789545
v 0.01200272 0.050164144 0.020789545
v 0.01200272 0.06922618 0.020789545
v 0.020789346 0.06922618 0.012002917
v 0.020789346 0.050164144 0.012002917
v -3.5911977E-08 0.050164144 -0.024005344
v -3.5911977E-08 0.06922618 -0.024005344
v -0.012002802 0.06922618 -0.020789206
v -0.012002802 0.050164144 -0.020789206
v 0.020789346 0.050164144 -0.012002588
v 0.020789346 0.06922618 -0.012002588
v 0.012002711 0.06922618 -0.020789206
v 0.012002711 0.050164144 -0.020789206
v -0.024005543 0.050164144 1.750457E-07
v -0.024005543 0.06922618 1.750457E-07
v -0.020789405 0.06922618 0.012002925
v -0.020789405 0.050164144 0.012002925
v -3.2287243E-08 0.050164144 0.024005663
v -3.2287243E-08 0.06922618 0.024005663
v 0.01200272 0.06922618 0.020789545
v 0.01200272 0.050164144 0.020789545
v 0.024005467 0.050164144 1.6493455E-07
v 0.024005467 0.06922618 1.6493455E-07
v 0.020789346 0.06922618 -0.012002588
v 0.020789346 0.050164144 -0.012002588
v -0.020789426 0.050164144 -0.012002583
v -0.020789426 0.06922618 -0.012002583
v -0.024005543 0.06922618 1.750457E-07
v -0.024005543 0.050164144 1.750457E-07
v -0.012002784 0.050164144 0.020789545
v -0.012002784 0.06922618 0.020789545
v -3.2287243E-08 0.06922618 0.024005663
v -3.2287243E-08 0.050164144 0.024005663
vn 0.18906127 0.6829401 -0.705584
vn 0.18906127 0.6829401 -0.705584
vn 0.18906127 0.6829401 -0.705584
vn 0.18906127 0.6829401 -0.705584
vn 0.5165228 0.68294024 -0.51652384
vn 0.5165228 0.68294024 -0.51652384
vn 0.5165228 0.68294024 -0.51652384
vn 0.5165228 0.68294024 -0.51652384
vn 0.70558393 0.68294054 -0.18906012
vn 0.70558393 0.68294054 -0.18906012
vn 0.70558393 0.68294054 -0.18906012
vn 0.70558393 0.68294054 -0.18906012
vn 0.70558393 0.68294054 0.18906014
vn 0.70558393 0.68294054 0.18906014
vn 0.70558393 0.68294054 0.18906014
vn 0.70558393 0.68294054 0.18906014
vn 0.516523 0.68294066 0.516523
vn 0.516523 0.68294066 0.516523
vn 0.516523 0.68294066 0.516523
vn 0.516523 0.68294066 0.516523
vn 0.18906023 0.6829404 0.70558393
vn 0.18906023 0.6829404 0.70558393
vn 0.18906023 0.6829404 0.70558393
vn 0.18906023 0.6829404 0.70558393
vn -0.18906033 0.68294 0.70558435
vn -0.18906033 0.68294 0.70558435
vn -0.18906033 0.68294 0.70558435
vn -0.18906033 0.68294 0.70558435
vn -0.5165231 0.6829403 0.5165234
vn -0.5165231 0.6829403 0.5165234
vn -0.5165231 0.6829403 0.5165234
vn -0.5165231 0.6829403 0.5165234
vn -0.70558393 0.6829401 0.18906139
vn -0.70558393 0.6829401 0.18906139
vn -0.70558393 0.6829401 0.18906139
vn -0.70558393 0.6829401 0.18906139
vn -0.7055841 0.68294024 -0.18906036
vn -0.7055841 0.68294024 -0.18906036
vn -0.7055841 0.68294024 -0.18906036
vn -0.7055841 0.68294024 -0.18906036
vn -0.45543283 0.8818667 0.12203327
vn -0.45543283 0.8818667 0.12203327
vn -0.45543283 0.8818667 0.12203327
vn -0.45543283 0.8818667 0.12203327
vn -0.5165235 0.6829404 -0.5165229
vn -0.5165235 0.6829404 -0.5165229
vn -0.5165235 0.6829404 -0.5165229
vn -0.5165235 0.6829404 -0.5165229
vn -0.18906094 0.68294024 -0.705584
vn -0.18906094 0.68294024 -0.705584
vn -0.18906094 0.68294024 -0.705584
vn -0.18906094 0.68294024 -0.705584
vn -0 -1 0
vn -0 -1 0
vn -0 -1 0
vn -0 -1 0
vn -0 -1 0
vn -0 -1 0
vn -0 -1 0
vn -0 -1 0
vn -0 -1 0
vn -0 -1 0
vn -0 -1 0
vn -0 -1 0
vn 0.044570714 0.98506063 -0.16633971
vn 0.044570714 0.98506063 -0.16633971
vn 0.044570714 0.98506063 -0.16633971
vn 0.044570714 0.98506063 -0.16633971
vn -0.33340007 0.88186663 0.33340028
vn -0.33340007 0.88186663 0.33340028
vn -0.33340007 0.88186663 0.33340028
vn -0.33340007 0.88186663 0.33340028
vn -0.122032635 0.88186663 0.45543307
vn -0.122032635 0.88186663 0.45543307
vn -0.122032635 0.88186663 0.45543307
vn -0.122032635 0.88186663 0.45543307
vn 0.12203267 0.88186663 0.45543322
vn 0.12203267 0.88186663 0.45543322
vn 0.12203267 0.88186663 0.45543322
vn 0.12203267 0.88186663 0.45543322
vn 0.3334001 0.88186663 0.3334002
vn 0.3334001 0.88186663 0.3334002
vn 0.3334001 0.88186663 0.3334002
vn 0.3334001 0.88186663 0.3334002
vn 0.45543313 0.88186663 0.122032724
vn 0.45543313 0.88186663 0.122032724
vn 0.45543313 0.88186663 0.122032724
vn 0.45543313 0.88186663 0.122032724
vn -0.12203312 0.88186663 -0.45543307
vn -0.12203312 0.88186663 -0.45543307
vn -0.12203312 0.88186663 -0.45543307
vn -0.12203312 0.88186663 -0.45543307
vn 0.12203334 0.88186663 -0.45543298
vn 0.12203334 0.88186663 -0.45543298
vn 0.12203334 0.88186663 -0.45543298
vn 0.12203334 0.88186663 -0.45543298
vn 0.4554332 0.88186663 -0.122032695
vn 0.4554332 0.88186663 -0.122032695
vn 0.4554332 0.88186663 -0.122032695
vn 0.4554332 0.88186663 -0.122032695
vn -0.33340025 0.8818667 -0.33339992
vn -0.33340025 0.8818667 -0.33339992
vn -0.33340025 0.8818667 -0.33339992
vn -0.33340025 0.8818667 -0.33339992
vn 0.33339977 0.88186663 -0.33340043
vn 0.33339977 0.88186663 -0.33340043
vn 0.33339977 0.88186663 -0.33340043
vn 0.33339977 0.88186663 -0.33340043
vn -0.455433 0.8818667 -0.122032575
vn -0.455433 0.8818667 -0.122032575
vn -0.455433 0.8818667 -0.122032575
vn -0.455433 0.8818667 -0.122032575
vn -1.9460211E-07 1 -1.02527885E-07
vn -1.9460211E-07 1 -1.02527885E-07
vn -1.9460211E-07 1 -1.02527885E-07
vn -1.9460211E-07 1 -1.02527885E-07
vn -0 1 -1.400557E-07
vn -0 1 -1.400557E-07
vn -0 1 -1.400557E-07
vn -0 1 -1.400557E-07
vn -0 1 -1.0252801E-07
vn -0 1 -1.0252801E-07
vn 1.2973472E-07 1 0
vn 1.2973472E-07 1 0
vn -2.1622452E-07 1 0
vn -2.1622452E-07 1 0
vn -1.08112374E-07 1 1.0252796E-07
vn -1.08112374E-07 1 1.0252796E-07
vn -1.08112374E-07 1 1.0252796E-07
vn -1.08112374E-07 1 1.0252796E-07
vn -0 1 1.4005579E-07
vn -0 1 1.4005579E-07
vn 1.729796E-07 1 1.0252791E-07
vn 1.729796E-07 1 1.0252791E-07
vn 1.729796E-07 1 1.0252791E-07
vn 1.729796E-07 1 1.0252791E-07
vn -0.121769175 0.98506063 0.12176923
vn -0.121769175 0.98506063 0.12176923
vn -0.121769175 0.98506063 0.12176923
vn -0.121769175 0.98506063 0.12176923
vn 0.121769145 0.98506063 0.121769175
vn 0.121769145 0.98506063 0.121769175
vn 0.121769145 0.98506063 0.121769175
vn 0.121769145 0.98506063 0.121769175
vn -0.044570632 0.98506063 -0.1663397
vn -0.044570632 0.98506063 -0.1663397
vn -0.044570632 0.98506063 -0.1663397
vn -0.044570632 0.98506063 -0.1663397
vn 0.12176908 0.98506063 -0.121769294
vn 0.12176908 0.98506063 -0.121769294
vn 0.12176908 0.98506063 -0.121769294
vn 0.12176908 0.98506063 -0.121769294
vn -0.16633978 0.98506063 0.04457075
vn -0.16633978 0.98506063 0.04457075
vn -0.16633978 0.98506063 0.04457075
vn -0.16633978 0.98506063 0.04457075
vn 0.044570517 0.98506063 0.16633989
vn 0.044570517 0.98506063 0.16633989
vn 0.044570517 0.98506063 0.16633989
vn 0.044570517 0.98506063 0.16633989
vn 0.16633978 0.98506063 -0.04457055
vn 0.16633978 0.98506063 -0.04457055
vn 0.16633978 0.98506063 -0.04457055
vn 0.16633978 0.98506063 -0.04457055
vn -0.16633978 0.98506063 -0.04457047
vn -0.16633978 0.98506063 -0.04457047
vn -0.16633978 0.98506063 -0.04457047
vn -0.16633978 0.98506063 -0.04457047
vn -0.044570517 0.98506063 0.16633989
vn -0.044570517 0.98506063 0.16633989
vn -0.044570517 0.98506063 0.16633989
vn -0.044570517 0.98506063 0.16633989
vn 0.16633983 0.98506063 0.04457055
vn 0.16633983 0.98506063 0.04457055
vn 0.16633983 0.98506063 0.04457055
vn 0.16633983 0.98506063 0.04457055
vn -0.121769175 0.98506063 -0.121769086
vn -0.121769175 0.98506063 -0.121769086
vn -0.121769175 0.98506063 -0.121769086
vn -0.121769175 0.98506063 -0.121769086
vn 0.96592593 0 0.2588185
vn 0.96592593 0 0.2588185
vn 0.96592593 0 0.2588185
vn 0.96592593 0 0.2588185
vn -0 1 0
vn -0 1 0
vn -0 1 0
vn -0 1 0
vn -0 1 0
vn -0 1 0
vn -0 1 0
vn -0 1 0
vn -0 1 0
vn -0 1 0
vn -0 1 0
vn -0 1 0
vn -0.7071069 0 -0.70710665
vn -0.7071069 0 -0.70710665
vn -0.7071069 0 -0.70710665
vn -0.7071069 0 -0.70710665
vn 0.25881997 0 -0.96592563
vn 0.25881997 0 -0.96592563
vn 0.25881997 0 -0.96592563
vn 0.25881997 0 -0.96592563
vn -0.70710665 0 0.7071069
vn -0.70710665 0 0.7071069
vn -0.70710665 0 0.7071069
vn -0.70710665 0 0.7071069
vn 0.70710677 0 0.7071068
vn 0.70710677 0 0.7071068
vn 0.70710677 0 0.7071068
vn 0.70710677 0 0.7071068
vn -0.25881952 0 -0.9659257
vn -0.25881952 0 -0.9659257
vn -0.25881952 0 -0.9659257
vn -0.25881952 0 -0.9659257
vn 0.70710605 0 -0.70710754
vn 0.70710605 0 -0.70710754
vn 0.70710605 0 -0.70710754
vn 0.70710605 0 -0.70710754
vn -0.96592563 0 0.25882
vn -0.96592563 0 0.25882
vn -0.96592563 0 0.25882
vn -0.96592563 0 0.25882
vn 0.25881833 0 0.96592605
vn 0.25881833 0 0.96592605
vn 0.25881833 0 0.96592605
vn 0.25881833 0 0.96592605
vn 0.96592593 0 -0.2588185
vn 0.96592593 0 -0.2588185
vn 0.96592593 0 -0.2588185
vn 0.96592593 0 -0.2588185
vn -0.96592593 0 -0.25881836
vn -0.96592593 0 -0.25881836
vn -0.96592593 0 -0.25881836
vn -0.96592593 0 -0.25881836
vn -0.25881833 0 0.96592605
vn -0.25881833 0 0.96592605
vn -0.25881833 0 0.96592605
vn -0.25881833 0 0.96592605
g Lid_0
f 3/3/3 2/2/2 1/1/1
f 4/4/4 3/3/3 1/1/1
f 7/7/7 6/6/6 5/5/5
f 8/8/8 7/7/7 5/5/5
f 11/11/11 10/10/10 9/9/9
f 12/12/12 11/11/11 9/9/9
f 15/15/15 14/14/14 13/13/13
f 16/16/16 15/15/15 13/13/13
f 19/19/19 18/18/18 17/17/17
f 20/20/20 19/19/19 17/17/17
f 23/23/23 22/22/22 21/21/21
f 24/24/24 23/23/23 21/21/21
f 27/27/27 26/26/26 25/25/25
f 28/28/28 27/27/27 25/25/25
f 31/31/31 30/30/30 29/29/29
f 32/32/32 31/31/31 29/29/29
f 35/35/35 34/34/34 33/33/33
f 36/36/36 35/35/35 33/33/33
f 39/39/39 38/38/38 37/37/37
f 40/40/40 39/39/39 37/37/37
f 43/43/43 42/42/42 41/41/41
f 44/44/44 43/43/43 41/41/41
f 47/47/47 46/46/46 45/45/45
f 48/48/48 47/47/47 45/45/45
f 51/51/51 50/50/50 49/49/49
f 52/52/52 51/51/51 49/49/49
f 55/55/55 54/54/54 53/53/53
f 53/53/53 56/56/56 55/55/55
f 56/56/56 57/57/57 55/55/55
f 56/56/56 58/58/58 57/57/57
f 58/58/58 59/59/59 57/57/57
f 58/58/58 60/60/60 59/59/59
f 60/60/60 61/61/61 59/59/59
f 60/60/60 62/62/62 61/61/61
f 62/62/62 63/63/63 61/61/61
f 62/62/62 64/64/64 63/63/63
f 67/67/67 66/66/66 65/65/65
f 68/68/68 67/67/67 65/65/65
f 71/71/71 70/70/70 69/69/69
f 72/72/72 71/71/71 69/69/69
f 75/75/75 74/74/74 73/73/73
f 76/76/76 75/75/75 73/73/73
f 79/79/79 78/78/78 77/77/77
f 80/80/80 79/79/79 77/77/77
f 83/83/83 82/82/82 81/81/81
f 84/84/84 83/83/83 81/81/81
f 87/87/87 86/86/86 85/85/85
f 88/88/88 87/87/87 85/85/85
f 91/91/91 90/90/90 89/89/89
f 92/92/92 91/91/91 89/89/89
f 95/95/95 94/94/94 93/93/93
f 96/96/96 95/95/95 93/93/93
f 99/99/99 98/98/98 97/97/97
f 100/100/100 99/99/99 97/97/97
f 103/103/103 102/102/102 101/101/101
f 104/104/104 103/103/103 101/101/101
f 107/107/107 106/106/106 105/105/105
f 108/108/108 107/107/107 105/105/105
f 111/111/111 110/110/110 109/109/109
f 112/112/112 111/111/111 109/109/109
f 115/115/115 114/114/114 113/113/113
f 116/116/116 115/115/115 113/113/113
f 113/113/113 114/114/114 117/117/117
f 114/114/114 118/118/118 117/117/117
f 117/117/117 118/118/118 119/119/119
f 118/118/118 120/120/120 119/119/119
f 119/119/119 120/120/120 121/121/121
f 120/120/120 122/122/122 121/121/121
f 121/121/121 122/122/122 123/123/123
f 122/122/122 124/124/124 123/123/123
f 125/125/125 115/115/115 116/116/116
f 126/126/126 125/125/125 116/116/116
f 127/127/127 125/125/125 126/126/126
f 128/128/128 127/127/127 126/126/126
f 129/129/129 127/127/127 128/128/128
f 130/130/130 129/129/129 128/128/128
f 131/131/131 129/129/129 130/130/130
f 132/132/132 131/131/131 130/130/130
f 133/133/133 131/131/131 132/132/132
f 134/134/134 133/133/133 132/132/132
f 135/135/135 133/133/133 134/134/134
f 136/136/136 135/135/135 134/134/134
f 124/124/124 135/135/135 136/136/136
f 123/123/123 124/124/124 136/136/136
f 139/139/139 138/138/138 137/137/137
f 140/140/140 139/139/139 137/137/137
f 143/143/143 142/142/142 141/141/141
f 144/144/144 143/143/143 141/141/141
f 147/147/147 146/146/146 145/145/145
f 148/148/148 147/147/147 145/145/145
f 151/151/151 150/150/150 149/149/149
f 152/152/152 151/151/151 149/149/149
f 155/155/155 154/154/154 153/153/153
f 156/156/156 155/155/155 153/153/153
f 159/159/159 158/158/158 157/157/157
f 160/160/160 159/159/159 157/157/157
f 163/163/163 162/162/162 161/161/161
f 164/164/164 163/163/163 161/161/161
f 167/167/167 166/166/166 165/165/165
f 168/168/168 167/167/167 165/165/165
f 171/171/171 170/170/170 169/169/169
f 172/172/172 171/171/171 169/169/169
f 175/175/175 174/174/174 173/173/173
f 176/176/176 175/175/175 173/173/173
f 179/179/179 178/178/178 177/177/177
f 180/180/180 179/179/179 177/177/177
f 183/183/183 182/182/182 181/181/181
f 184/184/184 183/183/183 181/181/181
f 187/187/187 186/186/186 185/185/185
f 185/185/185 188/188/188 187/187/187
f 188/188/188 189/189/189 187/187/187
f 188/188/188 190/190/190 189/189/189
f 188/188/188 191/191/191 190/190/190
f 191/191/191 192/192/192 190/190/190
f 191/191/191 193/193/193 192/192/192
f 193/193/193 194/194/194 192/192/192
f 193/193/193 195/195/195 194/194/194
f 195/195/195 196/196/196 194/194/194
f 199/199/199 198/198/198 197/197/197
f 200/200/200 199/199/199 197/197/197
f 203/203/203 202/202/202 201/201/201
f 204/204/204 203/203/203 201/201/201
f 207/207/207 206/206/206 205/205/205
f 208/208/208 207/207/207 205/205/205
f 211/211/211 210/210/210 209/209/209
f 212/212/212 211/211/211 209/209/209
f 215/215/215 214/214/214 213/213/213
f 216/216/216 215/215/215 213/213/213
f 219/219/219 218/218/218 217/217/217
f 220/220/220 219/219/219 217/217/217
f 223/223/223 222/222/222 221/221/221
f 224/224/224 223/223/223 221/221/221
f 227/227/227 226/226/226 225/225/225
f 228/228/228 227/227/227 225/225/225
f 231/231/231 230/230/230 229/229/229
f 232/232/232 231/231/231 229/229/229
f 235/235/235 234/234/234 233/233/233
f 236/236/236 235/235/235 233/233/233
f 239/239/239 238/238/238 237/237/237
f 240/240/240 239/239/239 237/237/237
