g WineGlass
v 0.022935435 0.12607555 -0.055371035
v 0.022935435 0.007351001 -0.055371035
v 0.042379156 0.007351001 -0.042379156
v 0.042379156 0.12607555 -0.042379156
v 0.042379156 0.12607555 -0.042379156
v 0.042379156 0.007351001 -0.042379156
v 0.055371035 0.007351001 -0.022935433
v 0.055371035 0.12607555 -0.022935433
v 0.055371035 0.12607555 -0.022935433
v 0.055371035 0.007351001 -0.022935433
v 0.059933174 0.007351001 -4.524829E-09
v 0.059933174 0.12607555 -4.524829E-09
v 0.059933174 0.12607555 -4.524829E-09
v 0.059933174 0.007351001 -4.524829E-09
v 0.055371035 0.007351001 0.022935426
v 0.055371035 0.12607555 0.022935426
v 0.055371035 0.12607555 0.022935426
v 0.055371035 0.007351001 0.022935426
v 0.042379156 0.007351001 0.042379156
v 0.042379156 0.12607555 0.042379156
v 0.042379156 0.12607555 0.042379156
v 0.042379156 0.007351001 0.042379156
v 0.022935426 0.007351001 0.05537104
v 0.022935426 0.12607555 0.05537104
v 0.022935426 0.12607555 0.05537104
v 0.022935426 0.007351001 0.05537104
v -1.952871E-08 0.007351001 0.059933174
v -1.952871E-08 0.12607555 0.059933174
v -1.952871E-08 0.12607555 0.059933174
v -1.952871E-08 0.007351001 0.059933174
v -0.022935461 0.007351001 0.05537102
v -0.022935461 0.12607555 0.05537102
v -0.022935461 0.12607555 0.05537102
v -0.022935461 0.007351001 0.05537102
v -0.04237918 0.007351001 0.04237913
v -0.04237918 0.12607555 0.04237913
v -0.04237918 0.12607555 0.04237913
v -0.04237918 0.007351001 0.04237913
v -0.055371054 0.007351001 0.022935387
v -0.055371054 0.12607555 0.022935387
v -0.055371054 0.12607555 0.022935387
v -0.055371054 0.007351001 0.022935387
v -0.059933174 0.007351001 -5.7871425E-08
v -0.059933174 0.12607555 -5.7871425E-08
v -0.059933174 0.12607555 -5.7871425E-08
v -0.059933174 0.007351001 -5.7871425E-08
v -0.055371005 0.007351001 -0.022935497
v -0.055371005 0.12607555 -0.022935497
v -0.055371005 0.12607555 -0.022935497
v -0.055371005 0.007351001 -0.022935497
v -0.042379104 0.007351001 -0.042379208
v -0.042379104 0.12607555 -0.042379208
v -0.042379104 0.12607555 -0.042379208
v -0.042379104 0.007351001 -0.042379208
v -0.022935351 0.007351001 -0.05537107
v -0.022935351 0.12607555 -0.05537107
v -0.022935351 0.12607555 -0.05537107
v -0.022935351 0.007351001 -0.05537107
v -0 0.007351001 -0.059933174
v -0 0.12607555 -0.059933174
v 0.022935426 0.12607555 0.05537104
v -1.952871E-08 0.12607555 0.059933174
v -1.7252523E-08 0.12607555 0.054813374
v 0.020976163 0.12607555 0.050640963
v -0.022935461 0.12607555 0.05537102
v -0.020976195 0.12607555 0.050640944
v 0.03875891 0.12607555 0.038758907
v 0.042379156 0.12607555 0.042379156
v 0.055371035 0.12607555 0.022935426
v 0.050640963 0.12607555 0.020976162
v 0.054813374 0.12607555 -5.5973595E-09
v 0.059933174 0.12607555 -4.524829E-09
v 0.05064096 0.12607555 -0.020976173
v 0.055371035 0.12607555 -0.022935433
v 0.03875891 0.12607555 -0.03875891
v 0.042379156 0.12607555 -0.042379156
v 0.020976173 0.12607555 -0.05064096
v 0.022935435 0.12607555 -0.055371035
v 6.0794375E-10 0.12607555 -0.054813374
v -0 0.12607555 -0.059933174
v -0.020976096 0.12607555 -0.050640985
v -0.022935351 0.12607555 -0.05537107
v -0.042379104 0.12607555 -0.042379208
v -0.038758863 0.12607555 -0.038758963
v -0.05064093 0.12607555 -0.02097623
v -0.055371005 0.12607555 -0.022935497
v -0.054813374 0.12607555 -5.4386813E-08
v -0.059933174 0.12607555 -5.7871425E-08
v -0.050640974 0.12607555 0.02097613
v -0.055371054 0.12607555 0.022935387
v -0.038758937 0.12607555 0.03875889
v -0.04237918 0.12607555 0.04237913
v 5.643636E-09 -0.017821588 -0.012498299
v 0.004782893 -0.017821588 -0.011546924
v 0.022935435 0.007351001 -0.055371035
v -0 0.007351001 -0.059933174
v 0.022935435 -0.11035657 -0.055371035
v -0 -0.11035657 -0.059933174
v -0.022935351 -0.11035657 -0.05537107
v -0.042379104 -0.11035657 -0.042379208
v 0.042379156 -0.11035657 -0.042379156
v -0.055371005 -0.11035657 -0.022935497
v 0.055371035 -0.11035657 -0.022935433
v -0.059933174 -0.11035657 -5.7871425E-08
v 0.059933174 -0.11035657 -4.524829E-09
v -0.055371054 -0.11035657 0.022935387
v 0.055371035 -0.11035657 0.022935426
v -0.04237918 -0.11035657 0.04237913
v 0.042379156 -0.11035657 0.042379156
v -0.022935461 -0.11035657 0.05537102
v 0.022935426 -0.11035657 0.05537104
v -1.952871E-08 -0.11035657 0.059933174
v 5.643636E-09 -0.017821588 -0.012498299
v 5.643636E-09 -0.09881276 -0.012498299
v 0.004782893 -0.09881276 -0.011546924
v 0.004782893 -0.017821588 -0.011546924
v -0.004782865 -0.017821588 -0.011546932
v 5.643636E-09 -0.017821588 -0.012498299
v -0 0.007351001 -0.059933174
v -0.022935351 0.007351001 -0.05537107
v -0.008837606 -0.017821588 -0.008837649
v -0.004782865 -0.017821588 -0.011546932
v -0.022935351 0.007351001 -0.05537107
v -0.042379104 0.007351001 -0.042379208
v -0.011546899 -0.017821588 -0.004782914
v -0.008837606 -0.017821588 -0.008837649
v -0.042379104 0.007351001 -0.042379208
v -0.055371005 0.007351001 -0.022935497
v -0.012498281 -0.017821588 -2.6337565E-08
v -0.011546899 -0.017821588 -0.004782914
v -0.055371005 0.007351001 -0.022935497
v -0.059933174 0.007351001 -5.7871425E-08
v -0.011546911 -0.017821588 0.004782863
v -0.012498281 -0.017821588 -2.6337565E-08
v -0.059933174 0.007351001 -5.7871425E-08
v -0.055371054 0.007351001 0.022935387
v -0.008837624 -0.017821588 0.008837603
v -0.011546911 -0.017821588 0.004782863
v -0.055371054 0.007351001 0.022935387
v -0.04237918 0.007351001 0.04237913
v -0.0047828862 -0.017821588 0.011546892
v -0.008837624 -0.017821588 0.008837603
v -0.04237918 0.007351001 0.04237913
v -0.022935461 0.007351001 0.05537102
v 1.5711766E-09 -0.017821588 0.0124982735
v -0.0047828862 -0.017821588 0.011546892
v -0.022935461 0.007351001 0.05537102
v -1.952871E-08 0.007351001 0.059933174
v 0.0047828895 -0.017821588 0.011546895
v 1.5711766E-09 -0.017821588 0.0124982735
v -1.952871E-08 0.007351001 0.059933174
v 0.022935426 0.007351001 0.05537104
v 0.008837627 -0.017821588 0.00883761
v 0.0047828895 -0.017821588 0.011546895
v 0.022935426 0.007351001 0.05537104
v 0.042379156 0.007351001 0.042379156
v 0.011546916 -0.017821588 0.004782872
v 0.008837627 -0.017821588 0.00883761
v 0.042379156 0.007351001 0.042379156
v 0.055371035 0.007351001 0.022935426
v 0.012498291 -0.017821588 -1.5212825E-08
v 0.011546916 -0.017821588 0.004782872
v 0.055371035 0.007351001 0.022935426
v 0.059933174 0.007351001 -4.524829E-09
v 0.011546916 -0.017821588 -0.0047829
v 0.012498291 -0.017821588 -1.5212825E-08
v 0.059933174 0.007351001 -4.524829E-09
v 0.055371035 0.007351001 -0.022935433
v 0.008837627 -0.017821588 -0.008837635
v 0.011546916 -0.017821588 -0.0047829
v 0.055371035 0.007351001 -0.022935433
v 0.008837627 -0.017821588 -0.008837635
v 0.055371035 0.007351001 -0.022935433
v 0.042379156 0.007351001 -0.042379156
v 0.004782893 -0.017821588 -0.011546924
v 0.008837627 -0.017821588 -0.008837635
v 0.042379156 0.007351001 -0.042379156
v 0.022935435 0.007351001 -0.055371035
v 0.004782893 -0.017821588 -0.011546924
v 0.004782893 -0.09881276 -0.011546924
v 0.008837627 -0.09881276 -0.008837635
v 0.008837627 -0.017821588 -0.008837635
v 0.008837627 -0.017821588 -0.008837635
v 0.008837627 -0.09881276 -0.008837635
v 0.011546916 -0.09881276 -0.0047829
v 0.008837627 -0.017821588 -0.008837635
v 0.011546916 -0.09881276 -0.0047829
v 0.011546916 -0.017821588 -0.0047829
v 0.011546916 -0.017821588 -0.0047829
v 0.011546916 -0.09881276 -0.0047829
v 0.012498291 -0.09881276 -1.5212825E-08
v 0.012498291 -0.017821588 -1.5212825E-08
v 0.012498291 -0.017821588 -1.5212825E-08
v 0.012498291 -0.09881276 -1.5212825E-08
v 0.011546916 -0.09881276 0.004782872
v 0.011546916 -0.017821588 0.004782872
v 0.011546916 -0.017821588 0.004782872
v 0.011546916 -0.09881276 0.004782872
v 0.008837627 -0.09881276 0.00883761
v 0.008837627 -0.017821588 0.00883761
v 0.008837627 -0.017821588 0.00883761
v 0.008837627 -0.09881276 0.00883761
v 0.0047828895 -0.09881276 0.011546895
v 0.0047828895 -0.017821588 0.011546895
v 0.0047828895 -0.017821588 0.011546895
v 0.0047828895 -0.09881276 0.011546895
v 1.5711766E-09 -0.09881276 0.0124982735
v 1.5711766E-09 -0.017821588 0.0124982735
v 1.5711766E-09 -0.017821588 0.0124982735
v 1.5711766E-09 -0.09881276 0.0124982735
v -0.0047828862 -0.09881276 0.011546892
v -0.0047828862 -0.017821588 0.011546892
v -0.0047828862 -0.017821588 0.011546892
v -0.0047828862 -0.09881276 0.011546892
v -0.008837624 -0.09881276 0.008837603
v -0.008837624 -0.017821588 0.008837603
v -0.008837624 -0.017821588 0.008837603
v -0.008837624 -0.09881276 0.008837603
v -0.011546911 -0.09881276 0.004782863
v -0.011546911 -0.017821588 0.004782863
v -0.011546911 -0.017821588 0.004782863
v -0.011546911 -0.09881276 0.004782863
v -0.012498281 -0.09881276 -2.6337565E-08
v -0.012498281 -0.017821588 -2.6337565E-08
v -0.012498281 -0.017821588 -2.6337565E-08
v -0.012498281 -0.09881276 -2.6337565E-08
v -0.011546899 -0.09881276 -0.004782914
v -0.011546899 -0.017821588 -0.004782914
v -0.011546899 -0.017821588 -0.004782914
v -0.011546899 -0.09881276 -0.004782914
v -0.008837606 -0.09881276 -0.008837649
v -0.011546899 -0.017821588 -0.004782914
v -0.008837606 -0.09881276 -0.008837649
v -0.008837606 -0.017821588 -0.008837649
v -0.008837606 -0.017821588 -0.008837649
v -0.008837606 -0.09881276 -0.008837649
v -0.004782865 -0.09881276 -0.011546932
v -0.004782865 -0.017821588 -0.011546932
v -0.004782865 -0.017821588 -0.011546932
v -0.004782865 -0.09881276 -0.011546932
v 5.643636E-09 -0.09881276 -0.012498299
v 5.643636E-09 -0.017821588 -0.012498299
v -0 0.12607555 -0.059933174
v -0 0.007351001 -0.059933174
v 0.022935435 0.007351001 -0.055371035
v 0.022935435 0.12607555 -0.055371035
v -0.022935351 -0.11035657 -0.05537107
v -0 -0.11035657 -0.059933174
v 5.643636E-09 -0.09881276 -0.012498299
v -0.004782865 -0.09881276 -0.011546932
v -0.042379104 -0.11035657 -0.042379208
v -0.022935351 -0.11035657 -0.05537107
v -0.004782865 -0.09881276 -0.011546932
v -0.008837606 -0.09881276 -0.008837649
v -0.055371005 -0.11035657 -0.022935497
v -0.042379104 -0.11035657 -0.042379208
v -0.008837606 -0.09881276 -0.008837649
v -0.011546899 -0.09881276 -0.004782914
v -0.059933174 -0.11035657 -5.7871425E-08
v -0.055371005 -0.11035657 -0.022935497
v -0.011546899 -0.09881276 -0.004782914
v -0.012498281 -0.09881276 -2.6337565E-08
v -0.055371054 -0.11035657 0.022935387
v -0.059933174 -0.11035657 -5.7871425E-08
v -0.012498281 -0.09881276 -2.6337565E-08
v -0.011546911 -0.09881276 0.004782863
v -0.04237918 -0.11035657 0.04237913
v -0.055371054 -0.11035657 0.022935387
v -0.011546911 -0.09881276 0.004782863
v -0.008837624 -0.09881276 0.008837603
v -0.022935461 -0.11035657 0.05537102
v -0.04237918 -0.11035657 0.04237913
v -0.008837624 -0.09881276 0.008837603
v -0.0047828862 -0.09881276 0.011546892
v -1.952871E-08 -0.11035657 0.059933174
v -0.022935461 -0.11035657 0.05537102
v -0.0047828862 -0.09881276 0.011546892
v 1.5711766E-09 -0.09881276 0.0124982735
v 0.022935426 -0.11035657 0.05537104
v -1.952871E-08 -0.11035657 0.059933174
v 1.5711766E-09 -0.09881276 0.0124982735
v 0.0047828895 -0.09881276 0.011546895
v 0.042379156 -0.11035657 0.042379156
v 0.022935426 -0.11035657 0.05537104
v 0.0047828895 -0.09881276 0.011546895
v 0.008837627 -0.09881276 0.00883761
v 0.055371035 -0.11035657 0.022935426
v 0.042379156 -0.11035657 0.042379156
v 0.008837627 -0.09881276 0.00883761
v 0.011546916 -0.09881276 0.004782872
v 0.059933174 -0.11035657 -4.524829E-09
v 0.055371035 -0.11035657 0.022935426
v 0.011546916 -0.09881276 0.004782872
v 0.012498291 -0.09881276 -1.5212825E-08
v 0.055371035 -0.11035657 -0.022935433
v 0.059933174 -0.11035657 -4.524829E-09
v 0.012498291 -0.09881276 -1.5212825E-08
v 0.011546916 -0.09881276 -0.0047829
v 0.042379156 -0.11035657 -0.042379156
v 0.055371035 -0.11035657 -0.022935433
v 0.011546916 -0.09881276 -0.0047829
v 0.008837627 -0.09881276 -0.008837635
v 0.022935435 -0.11035657 -0.055371035
v 0.042379156 -0.11035657 -0.042379156
v 0.008837627 -0.09881276 -0.008837635
v 0.004782893 -0.09881276 -0.011546924
v 0.020976173 0.12607555 -0.05064096
v 0.020976173 0.02027579 -0.05064096
v 6.0794375E-10 0.02027579 -0.054813374
v 6.0794375E-10 0.12607555 -0.054813374
v 0.03875891 0.12607555 0.038758907
v 0.020976163 0.12607555 0.050640963
v 0.020976163 0.02027579 0.050640963
v 0.03875891 0.02027579 0.038758907
v 0.020976173 0.02027579 -0.05064096
v 0.03875891 0.02027579 -0.03875891
v 0.008867052 0.020275785 -0.008867062
v 0.004798817 0.020275785 -0.011585369
v -0.008867031 0.020275785 -0.008867074
v -0.004798788 0.020275785 -0.011585377
v 5.7352683E-09 0.020275785 -0.012539912
v -0.011585344 0.020275785 -0.00479884
v 0.0115853585 0.020275785 -0.0047988277
v -0.012539894 0.020275785 -2.785335E-08
v 0.012539902 0.020275785 -1.669157E-08
v -0.011585352 0.020275785 0.0047987862
v 0.0115853585 0.020275785 0.0047987937
v -0.008867047 0.020275785 0.008867027
v 0.008867052 0.020275785 0.008867031
v -0.0047988114 0.020275785 0.011585337
v 0.004798815 0.020275785 0.01158534
v 1.6492521E-09 0.020275785 0.012539882
v -0.020976195 0.02027579 0.050640944
v -1.7252523E-08 0.02027579 0.054813374
v 6.0794375E-10 0.02027579 -0.054813374
v -0.020976096 0.02027579 -0.050640985
v -0.038758937 0.02027579 0.03875889
v 0.054813374 0.02027579 -5.5973595E-09
v 0.05064096 0.02027579 -0.020976173
v -0.050640974 0.02027579 0.02097613
v 0.050640963 0.02027579 0.020976162
v 0.03875891 0.02027579 0.038758907
v 0.020976163 0.02027579 0.050640963
v -0.054813374 0.02027579 -5.4386813E-08
v -0.05064093 0.02027579 -0.02097623
v -0.038758863 0.02027579 -0.038758963
v -0.05064093 0.12607555 -0.02097623
v -0.038758863 0.12607555 -0.038758963
v -0.038758863 0.02027579 -0.038758963
v -0.05064093 0.02027579 -0.02097623
v -1.7252523E-08 0.12607555 0.054813374
v -1.7252523E-08 0.02027579 0.054813374
v 0.020976163 0.02027579 0.050640963
v 0.020976163 0.12607555 0.050640963
v -0.020976096 0.12607555 -0.050640985
v -0.020976096 0.02027579 -0.050640985
v -0.038758863 0.02027579 -0.038758963
v -0.038758863 0.12607555 -0.038758963
v 0.03875891 0.12607555 -0.03875891
v 0.03875891 0.02027579 -0.03875891
v 0.020976173 0.02027579 -0.05064096
v 0.020976173 0.12607555 -0.05064096
v -0.020976195 0.12607555 0.050640944
v -0.020976195 0.02027579 0.050640944
v -1.7252523E-08 0.02027579 0.054813374
v -0.020976195 0.12607555 0.050640944
v -1.7252523E-08 0.02027579 0.054813374
v -1.7252523E-08 0.12607555 0.054813374
v 6.0794375E-10 0.12607555 -0.054813374
v 6.0794375E-10 0.02027579 -0.054813374
v -0.020976096 0.02027579 -0.050640985
v -0.020976096 0.12607555 -0.050640985
v 0.05064096 0.12607555 -0.020976173
v 0.05064096 0.02027579 -0.020976173
v 0.03875891 0.02027579 -0.03875891
v 0.05064096 0.12607555 -0.020976173
v 0.03875891 0.02027579 -0.03875891
v 0.03875891 0.12607555 -0.03875891
v -0.038758937 0.12607555 0.03875889
v -0.038758937 0.02027579 0.03875889
v -0.020976195 0.02027579 0.050640944
v -0.020976195 0.12607555 0.050640944
v 0.054813374 0.12607555 -5.5973595E-09
v 0.054813374 0.02027579 -5.5973595E-09
v 0.05064096 0.02027579 -0.020976173
v 0.05064096 0.12607555 -0.020976173
v -0.050640974 0.12607555 0.02097613
v -0.050640974 0.02027579 0.02097613
v -0.038758937 0.02027579 0.03875889
v -0.038758937 0.12607555 0.03875889
v 0.050640963 0.12607555 0.020976162
v 0.050640963 0.02027579 0.020976162
v 0.054813374 0.02027579 -5.5973595E-09
v 0.054813374 0.12607555 -5.5973595E-09
v -0.054813374 0.12607555 -5.4386813E-08
v -0.054813374 0.02027579 -5.4386813E-08
v -0.050640974 0.02027579 0.02097613
v -0.050640974 0.12607555 0.02097613
v 0.03875891 0.12607555 0.038758907
v 0.03875891 0.02027579 0.038758907
v 0.050640963 0.02027579 0.020976162
v 0.050640963 0.12607555 0.020976162
v -0.05064093 0.12607555 -0.02097623
v -0.05064093 0.02027579 -0.02097623
v -0.054813374 0.02027579 -5.4386813E-08
v -0.054813374 0.12607555 -5.4386813E-08
v -0 -0.11035657 -0.059933174
v 0.022935435 -0.11035657 -0.055371035
v 0.004782893 -0.09881276 -0.011546924
v 5.643636E-09 -0.09881276 -0.012498299
vn 0.55557024 0 -0.8314696
vn 0.55557024 0 -0.8314696
vn 0.55557024 0 -0.8314696
vn 0.55557024 0 -0.8314696
vn 0.8314696 0 -0.5555702
vn 0.8314696 0 -0.5555702
vn 0.8314696 0 -0.5555702
vn 0.8314696 0 -0.5555702
vn 0.98078525 0 -0.19509049
vn 0.98078525 0 -0.19509049
vn 0.98078525 0 -0.19509049
vn 0.98078525 0 -0.19509049
vn 0.98078525 0 0.19509032
vn 0.98078525 0 0.19509032
vn 0.98078525 0 0.19509032
vn 0.98078525 0 0.19509032
vn 0.8314696 0 0.5555702
vn 0.8314696 0 0.5555702
vn 0.8314696 0 0.5555702
vn 0.8314696 0 0.5555702
vn 0.55557024 0 0.83146954
vn 0.55557024 0 0.83146954
vn 0.55557024 0 0.83146954
vn 0.55557024 0 0.83146954
vn 0.19508998 0 0.98078537
vn 0.19508998 0 0.98078537
vn 0.19508998 0 0.98078537
vn 0.19508998 0 0.98078537
vn -0.1950908 0 0.98078525
vn -0.1950908 0 0.98078525
vn -0.1950908 0 0.98078525
vn -0.1950908 0 0.98078525
vn -0.55557066 0 0.8314693
vn -0.55557066 0 0.8314693
vn -0.55557066 0 0.8314693
vn -0.55557066 0 0.8314693
vn -0.83147 0 0.5555695
vn -0.83147 0 0.5555695
vn -0.83147 0 0.5555695
vn -0.83147 0 0.5555695
vn -0.9807854 0 0.19508937
vn -0.9807854 0 0.19508937
vn -0.9807854 0 0.19508937
vn -0.9807854 0 0.19508937
vn -0.980785 0 -0.19509155
vn -0.980785 0 -0.19509155
vn -0.980785 0 -0.19509155
vn -0.980785 0 -0.19509155
vn -0.83146906 0 -0.5555712
vn -0.83146906 0 -0.5555712
vn -0.83146906 0 -0.5555712
vn -0.83146906 0 -0.5555712
vn -0.55556923 0 -0.83147025
vn -0.55556923 0 -0.83147025
vn -0.55556923 0 -0.83147025
vn -0.55556923 0 -0.83147025
vn -0.19508952 0 -0.9807854
vn -0.19508952 0 -0.9807854
vn -0.19508952 0 -0.9807854
vn -0.19508952 0 -0.9807854
vn -0 1 0
vn -0 1 0
vn -0 1 0
vn -0 1 0
vn -0 1 0
vn -0 1 0
vn 1.2945463E-06 1 0
vn 1.2945463E-06 1 0
vn 1.2945463E-06 1 0
vn 1.2945463E-06 1 0
vn -0 1 0
vn -0 1 0
vn -0 1 0
vn -0 1 0
vn -0 1 0
vn -0 1 0
vn -0 1 0
vn -0 1 0
vn -0 1 0
vn -0 1 0
vn -0 1 0
vn -0 1 0
vn -0 1 0
vn -0 1 0
vn -2.0712746E-06 1 0
vn -2.0712746E-06 1 0
vn -2.0712746E-06 1 0
vn -2.0712746E-06 1 0
vn 2.0712741E-06 1 0
vn 2.0712741E-06 1 0
vn 2.0712741E-06 1 0
vn 2.0712741E-06 1 0
vn 0.09283954 -0.87951046 -0.46673572
vn 0.09283954 -0.87951046 -0.46673572
vn 0.09283954 -0.87951046 -0.46673572
vn 0.09283954 -0.87951046 -0.46673572
vn -0 -1 0
vn -0 -1 0
vn -0 -1 0
vn -0 -1 0
vn -0 -1 0
vn -0 -1 0
vn -0 -1 0
vn -0 -1 0
vn -0 -1 0
vn -0 -1 0
vn -0 -1 0
vn -0 -1 0
vn -0 -1 0
vn -0 -1 0
vn -0 -1 0
vn -0 -1 0
vn 0.19509001 0 -0.98078537
vn 0.19509001 0 -0.98078537
vn 0.19509001 0 -0.98078537
vn 0.19509001 0 -0.98078537
vn -0.09283912 -0.87951046 -0.46673572
vn -0.09283912 -0.87951046 -0.46673572
vn -0.09283912 -0.87951046 -0.46673572
vn -0.09283912 -0.87951046 -0.46673572
vn -0.26438406 -0.87951046 -0.3956798
vn -0.26438406 -0.87951046 -0.3956798
vn -0.26438406 -0.87951046 -0.3956798
vn -0.26438406 -0.87951046 -0.3956798
vn -0.39567918 -0.87951046 -0.26438507
vn -0.39567918 -0.87951046 -0.26438507
vn -0.39567918 -0.87951046 -0.26438507
vn -0.39567918 -0.87951046 -0.26438507
vn -0.46673548 -0.87951046 -0.09283994
vn -0.46673548 -0.87951046 -0.09283994
vn -0.46673548 -0.87951046 -0.09283994
vn -0.46673548 -0.87951046 -0.09283994
vn -0.46673572 -0.87951046 0.092838936
vn -0.46673572 -0.87951046 0.092838936
vn -0.46673572 -0.87951046 0.092838936
vn -0.46673572 -0.87951046 0.092838936
vn -0.39567953 -0.87951046 0.26438418
vn -0.39567953 -0.87951046 0.26438418
vn -0.39567953 -0.87951046 0.26438418
vn -0.39567953 -0.87951046 0.26438418
vn -0.26438454 -0.8795105 0.3956791
vn -0.26438454 -0.8795105 0.3956791
vn -0.26438454 -0.8795105 0.3956791
vn -0.26438454 -0.8795105 0.3956791
vn -0.092839785 -0.8795105 0.4667355
vn -0.092839785 -0.8795105 0.4667355
vn -0.092839785 -0.8795105 0.4667355
vn -0.092839785 -0.8795105 0.4667355
vn 0.0928394 -0.87951046 0.46673563
vn 0.0928394 -0.87951046 0.46673563
vn 0.0928394 -0.87951046 0.46673563
vn 0.0928394 -0.87951046 0.46673563
vn 0.26438442 -0.8795105 0.3956793
vn 0.26438442 -0.8795105 0.3956793
vn 0.26438442 -0.8795105 0.3956793
vn 0.26438442 -0.8795105 0.3956793
vn 0.3956793 -0.87951046 0.2643844
vn 0.3956793 -0.87951046 0.2643844
vn 0.3956793 -0.87951046 0.2643844
vn 0.3956793 -0.87951046 0.2643844
vn 0.46673563 -0.87951046 0.09283946
vn 0.46673563 -0.87951046 0.09283946
vn 0.46673563 -0.87951046 0.09283946
vn 0.46673563 -0.87951046 0.09283946
vn 0.46673572 -0.87951046 -0.09283948
vn 0.46673572 -0.87951046 -0.09283948
vn 0.46673572 -0.87951046 -0.09283948
vn 0.46673572 -0.87951046 -0.09283948
vn 0.39567944 -0.87951046 -0.26438463
vn 0.39567944 -0.87951046 -0.26438463
vn 0.39567944 -0.87951046 -0.26438463
vn 0.39567944 -0.87951046 -0.26438463
vn 0.39567944 -0.87951046 -0.26438463
vn 0.39567944 -0.87951046 -0.26438463
vn 0.26438463 -0.87951046 -0.3956795
vn 0.26438463 -0.87951046 -0.3956795
vn 0.26438463 -0.87951046 -0.3956795
vn 0.26438463 -0.87951046 -0.3956795
vn 0.5555707 0 -0.8314693
vn 0.5555707 0 -0.8314693
vn 0.5555707 0 -0.8314693
vn 0.5555707 0 -0.8314693
vn 0.83146936 0 -0.55557066
vn 0.83146936 0 -0.55557066
vn 0.83146936 0 -0.55557066
vn 0.83146936 0 -0.55557066
vn 0.83146936 0 -0.55557066
vn 0.83146936 0 -0.55557066
vn 0.98078537 0 -0.19509019
vn 0.98078537 0 -0.19509019
vn 0.98078537 0 -0.19509019
vn 0.98078537 0 -0.19509019
vn 0.98078537 0 0.1950901
vn 0.98078537 0 0.1950901
vn 0.98078537 0 0.1950901
vn 0.98078537 0 0.1950901
vn 0.83146954 0 0.55557036
vn 0.83146954 0 0.55557036
vn 0.83146954 0 0.55557036
vn 0.83146954 0 0.55557036
vn 0.5555699 0 0.8314699
vn 0.5555699 0 0.8314699
vn 0.5555699 0 0.8314699
vn 0.5555699 0 0.8314699
vn 0.19509076 0 0.98078525
vn 0.19509076 0 0.98078525
vn 0.19509076 0 0.98078525
vn 0.19509076 0 0.98078525
vn -0.19509147 0 0.980785
vn -0.19509147 0 0.980785
vn -0.19509147 0 0.980785
vn -0.19509147 0 0.980785
vn -0.5555702 0 0.8314696
vn -0.5555702 0 0.8314696
vn -0.5555702 0 0.8314696
vn -0.5555702 0 0.8314696
vn -0.83147013 0 0.5555696
vn -0.83147013 0 0.5555696
vn -0.83147013 0 0.5555696
vn -0.83147013 0 0.5555696
vn -0.9807854 0 0.19508928
vn -0.9807854 0 0.19508928
vn -0.9807854 0 0.19508928
vn -0.9807854 0 0.19508928
vn -0.980785 0 -0.19509147
vn -0.980785 0 -0.19509147
vn -0.980785 0 -0.19509147
vn -0.980785 0 -0.19509147
vn -0.8314689 0 -0.5555713
vn -0.8314689 0 -0.5555713
vn -0.8314689 0 -0.5555713
vn -0.8314689 0 -0.5555713
vn -0.8314689 0 -0.5555713
vn -0.8314689 0 -0.5555713
vn -0.5555691 0 -0.83147025
vn -0.5555691 0 -0.83147025
vn -0.5555691 0 -0.83147025
vn -0.5555691 0 -0.83147025
vn -0.19508922 0 -0.9807854
vn -0.19508922 0 -0.9807854
vn -0.19508922 0 -0.9807854
vn -0.19508922 0 -0.9807854
vn 0.19509037 0 -0.98078525
vn 0.19509037 0 -0.98078525
vn 0.19509037 0 -0.98078525
vn 0.19509037 0 -0.98078525
vn -0.04698271 0.9705683 -0.23619868
vn -0.04698271 0.9705683 -0.23619868
vn -0.04698271 0.9705683 -0.23619868
vn -0.04698271 0.9705683 -0.23619868
vn -0.133795 0.97056836 -0.20023976
vn -0.133795 0.97056836 -0.20023976
vn -0.133795 0.97056836 -0.20023976
vn -0.133795 0.97056836 -0.20023976
vn -0.20023948 0.9705683 -0.13379605
vn -0.20023948 0.9705683 -0.13379605
vn -0.20023948 0.9705683 -0.13379605
vn -0.20023948 0.9705683 -0.13379605
vn -0.23619862 0.9705683 -0.0469831
vn -0.23619862 0.9705683 -0.0469831
vn -0.23619862 0.9705683 -0.0469831
vn -0.23619862 0.9705683 -0.0469831
vn -0.23619868 0.9705683 0.04698259
vn -0.23619868 0.9705683 0.04698259
vn -0.23619868 0.9705683 0.04698259
vn -0.23619868 0.9705683 0.04698259
vn -0.20023948 0.9705683 0.1337956
vn -0.20023948 0.9705683 0.1337956
vn -0.20023948 0.9705683 0.1337956
vn -0.20023948 0.9705683 0.1337956
vn -0.13379559 0.97056836 0.20023938
vn -0.13379559 0.97056836 0.20023938
vn -0.13379559 0.97056836 0.20023938
vn -0.13379559 0.97056836 0.20023938
vn -0.04698318 0.9705683 0.23619851
vn -0.04698318 0.9705683 0.23619851
vn -0.04698318 0.9705683 0.23619851
vn -0.04698318 0.9705683 0.23619851
vn 0.04698319 0.9705683 0.2361986
vn 0.04698319 0.9705683 0.2361986
vn 0.04698319 0.9705683 0.2361986
vn 0.04698319 0.9705683 0.2361986
vn 0.13379562 0.9705683 0.20023946
vn 0.13379562 0.9705683 0.20023946
vn 0.13379562 0.9705683 0.20023946
vn 0.13379562 0.9705683 0.20023946
vn 0.20023902 0.97056836 0.13379575
vn 0.20023902 0.97056836 0.13379575
vn 0.20023902 0.97056836 0.13379575
vn 0.20023902 0.97056836 0.13379575
vn 0.2361986 0.9705683 0.046982788
vn 0.2361986 0.9705683 0.046982788
vn 0.2361986 0.9705683 0.046982788
vn 0.2361986 0.9705683 0.046982788
vn 0.2361988 0.9705683 -0.046982802
vn 0.2361988 0.9705683 -0.046982802
vn 0.2361988 0.9705683 -0.046982802
vn 0.2361988 0.9705683 -0.046982802
vn 0.20023936 0.9705683 -0.13379586
vn 0.20023936 0.9705683 -0.13379586
vn 0.20023936 0.9705683 -0.13379586
vn 0.20023936 0.9705683 -0.13379586
vn 0.13379611 0.9705683 -0.2002396
vn 0.13379611 0.9705683 -0.2002396
vn 0.13379611 0.9705683 -0.2002396
vn 0.13379611 0.9705683 -0.2002396
vn -0.1950902 0 0.98078537
vn -0.1950902 0 0.98078537
vn -0.1950902 0 0.98078537
vn -0.1950902 0 0.98078537
vn -0.55557036 0 -0.83146954
vn -0.55557036 0 -0.83146954
vn -0.55557036 0 -0.83146954
vn -0.55557036 0 -0.83146954
vn -0 1 0
vn -0 1 0
vn -0 1 0
vn -0 1 0
vn -0 1 0
vn -0 1 0
vn -0 1 0
vn -0 1 0
vn -0 1 0
vn -0 1 0
vn -0 1 0
vn -0 1 0
vn -0 1 0
vn -0 1 0
vn -0 1 0
vn -0 1 0
vn -0 1 0
vn -0 1 0
vn -0 1 0
vn -0 1 0
vn -0 1 0
vn -0 1 0
vn -0 1 0
vn -0 1 0
vn -1.3355309E-07 1 0
vn -0 1 0
vn -1.0684246E-07 1 0
vn -0 1 0
vn -0 1 0
vn 1.4690823E-07 1 0
vn 1.4690826E-07 1 0
vn -0 1 0
vn 0.83146906 0 0.5555712
vn 0.83146906 0 0.5555712
vn 0.83146906 0 0.5555712
vn 0.83146906 0 0.5555712
vn -0.1950898 0 -0.98078537
vn -0.1950898 0 -0.98078537
vn -0.1950898 0 -0.98078537
vn -0.1950898 0 -0.98078537
vn 0.555569 0 0.83147043
vn 0.555569 0 0.83147043
vn 0.555569 0 0.83147043
vn 0.555569 0 0.83147043
vn -0.55557036 0 0.83146954
vn -0.55557036 0 0.83146954
vn -0.55557036 0 0.83146954
vn -0.55557036 0 0.83146954
vn 0.19509068 0 -0.98078525
vn 0.19509068 0 -0.98078525
vn 0.19509068 0 -0.98078525
vn 0.19509068 0 -0.98078525
vn 0.19509068 0 -0.98078525
vn 0.19509068 0 -0.98078525
vn 0.19508956 0 0.9807854
vn 0.19508956 0 0.9807854
vn 0.19508956 0 0.9807854
vn 0.19508956 0 0.9807854
vn -0.8314696 0 0.55557024
vn -0.8314696 0 0.55557024
vn -0.8314696 0 0.55557024
vn -0.8314696 0 0.55557024
vn -0.8314696 0 0.55557024
vn -0.8314696 0 0.55557024
vn 0.5555705 0 -0.8314695
vn 0.5555705 0 -0.8314695
vn 0.5555705 0 -0.8314695
vn 0.5555705 0 -0.8314695
vn -0.98078525 0 0.1950903
vn -0.98078525 0 0.1950903
vn -0.98078525 0 0.1950903
vn -0.98078525 0 0.1950903
vn 0.83147013 0 -0.5555696
vn 0.83147013 0 -0.5555696
vn 0.83147013 0 -0.5555696
vn 0.83147013 0 -0.5555696
vn -0.98078537 0 -0.19509012
vn -0.98078537 0 -0.19509012
vn -0.98078537 0 -0.19509012
vn -0.98078537 0 -0.19509012
vn 0.9807854 0 -0.19508933
vn 0.9807854 0 -0.19508933
vn 0.9807854 0 -0.19508933
vn 0.9807854 0 -0.19508933
vn -0.8314696 0 -0.55557024
vn -0.8314696 0 -0.55557024
vn -0.8314696 0 -0.55557024
vn -0.8314696 0 -0.55557024
vn 0.98078513 0 0.19509138
vn 0.98078513 0 0.19509138
vn 0.98078513 0 0.19509138
vn 0.98078513 0 0.19509138
vn 0.046982534 0.9705683 -0.23619866
vn 0.046982534 0.9705683 -0.23619866
vn 0.046982534 0.9705683 -0.23619866
vn 0.046982534 0.9705683 -0.23619866
g WineGlass_0
f 3/3/3 2/2/2 1/1/1
f 4/4/4 3/3/3 1/1/1
f 7/7/7 6/6/6 5/5/5
f 8/8/8 7/7/7 5/5/5
f 11/11/11 10/10/10 9/9/9
f 12/12/12 11/11/11 9/9/9
f 15/15/15 14/14/14 13/13/13
f 16/16/16 15/15/15 13/13/13
f 19/19/19 18/18/18 17/17/17
f 20/20/20 19/19/19 17/17/17
f 23/23/23 22/22/22 21/21/21
f 24/24/24 23/23/23 21/21/21
f 27/27/27 26/26/26 25/25/25
f 28/28/28 27/27/27 25/25/25
f 31/31/31 30/30/30 29/29/29
f 32/32/32 31/31/31 29/29/29
f 35/35/35 34/34/34 33/33/33
f 36/36/36 35/35/35 33/33/33
f 39/39/39 38/38/38 37/37/37
f 40/40/40 39/39/39 37/37/37
f 43/43/43 42/42/42 41/41/41
f 44/44/44 43/43/43 41/41/41
f 47/47/47 46/46/46 45/45/45
f 48/48/48 47/47/47 45/45/45
f 51/51/51 50/50/50 49/49/49
f 52/52/52 51/51/51 49/49/49
f 55/55/55 54/54/54 53/53/53
f 56/56/56 55/55/55 53/53/53
f 59/59/59 58/58/58 57/57/57
f 60/60/60 59/59/59 57/57/57
f 63/63/63 62/62/62 61/61/61
f 64/64/64 63/63/63 61/61/61
f 62/62/62 63/63/63 65/65/65
f 63/63/63 66/66/66 65/65/65
f 67/67/67 64/64/64 61/61/61
f 68/68/68 67/67/67 61/61/61
f 67/67/67 68/68/68 69/69/69
f 70/70/70 67/67/67 69/69/69
f 71/71/71 70/70/70 69/69/69
f 72/72/72 71/71/71 69/69/69
f 73/73/73 71/71/71 72/72/72
f 74/74/74 73/73/73 72/72/72
f 75/75/75 73/73/73 74/74/74
f 76/76/76 75/75/75 74/74/74
f 77/77/77 75/75/75 76/76/76
f 78/78/78 77/77/77 76/76/76
f 79/79/79 77/77/77 78/78/78
f 80/80/80 79/79/79 78/78/78
f 81/81/81 79/79/79 80/80/80
f 82/82/82 81/81/81 80/80/80
f 81/81/81 82/82/82 83/83/83
f 84/84/84 81/81/81 83/83/83
f 85/85/85 84/84/84 83/83/83
f 86/86/86 85/85/85 83/83/83
f 87/87/87 85/85/85 86/86/86
f 88/88/88 87/87/87 86/86/86
f 89/89/89 87/87/87 88/88/88
f 90/90/90 89/89/89 88/88/88
f 91/91/91 89/89/89 90/90/90
f 92/92/92 91/91/91 90/90/90
f 66/66/66 91/91/91 92/92/92
f 65/65/65 66/66/66 92/92/92
f 95/95/95 94/94/94 93/93/93
f 96/96/96 95/95/95 93/93/93
f 99/99/99 98/98/98 97/97/97
f 97/97/97 100/100/100 99/99/99
f 97/97/97 101/101/101 100/100/100
f 101/101/101 102/102/102 100/100/100
f 101/101/101 103/103/103 102/102/102
f 103/103/103 104/104/104 102/102/102
f 103/103/103 105/105/105 104/104/104
f 105/105/105 106/106/106 104/104/104
f 105/105/105 107/107/107 106/106/106
f 107/107/107 108/108/108 106/106/106
f 107/107/107 109/109/109 108/108/108
f 109/109/109 110/110/110 108/108/108
f 109/109/109 111/111/111 110/110/110
f 111/111/111 112/112/112 110/110/110
f 115/115/115 114/114/114 113/113/113
f 116/116/116 115/115/115 113/113/113
f 119/119/119 118/118/118 117/117/117
f 120/120/120 119/119/119 117/117/117
f 123/123/123 122/122/122 121/121/121
f 124/124/124 123/123/123 121/121/121
f 127/127/127 126/126/126 125/125/125
f 128/128/128 127/127/127 125/125/125
f 131/131/131 130/130/130 129/129/129
f 132/132/132 131/131/131 129/129/129
f 135/135/135 134/134/134 133/133/133
f 136/136/136 135/135/135 133/133/133
f 139/139/139 138/138/138 137/137/137
f 140/140/140 139/139/139 137/137/137
f 143/143/143 142/142/142 141/141/141
f 144/144/144 143/143/143 141/141/141
f 147/147/147 146/146/146 145/145/145
f 148/148/148 147/147/147 145/145/145
f 151/151/151 150/150/150 149/149/149
f 152/152/152 151/151/151 149/149/149
f 155/155/155 154/154/154 153/153/153
f 156/156/156 155/155/155 153/153/153
f 159/159/159 158/158/158 157/157/157
f 160/160/160 159/159/159 157/157/157
f 163/163/163 162/162/162 161/161/161
f 164/164/164 163/163/163 161/161/161
f 167/167/167 166/166/166 165/165/165
f 168/168/168 167/167/167 165/165/165
f 171/171/171 170/170/170 169/169/169
f 174/174/174 173/173/173 172/172/172
f 177/177/177 176/176/176 175/175/175
f 178/178/178 177/177/177 175/175/175
f 181/181/181 180/180/180 179/179/179
f 182/182/182 181/181/181 179/179/179
f 185/185/185 184/184/184 183/183/183
f 188/188/188 187/187/187 186/186/186
f 191/191/191 190/190/190 189/189/189
f 192/192/192 191/191/191 189/189/189
f 195/195/195 194/194/194 193/193/193
f 196/196/196 195/195/195 193/193/193
f 199/199/199 198/198/198 197/197/197
f 200/200/200 199/199/199 197/197/197
f 203/203/203 202/202/202 201/201/201
f 204/204/204 203/203/203 201/201/201
f 207/207/207 206/206/206 205/205/205
f 208/208/208 207/207/207 205/205/205
f 211/211/211 210/210/210 209/209/209
f 212/212/212 211/211/211 209/209/209
f 215/215/215 214/214/214 213/213/213
f 216/216/216 215/215/215 213/213/213
f 219/219/219 218/218/218 217/217/217
f 220/220/220 219/219/219 217/217/217
f 223/223/223 222/222/222 221/221/221
f 224/224/224 223/223/223 221/221/221
f 227/227/227 226/226/226 225/225/225
f 228/228/228 227/227/227 225/225/225
f 231/231/231 230/230/230 229/229/229
f 234/234/234 233/233/233 232/232/232
f 237/237/237 236/236/236 235/235/235
f 238/238/238 237/237/237 235/235/235
f 241/241/241 240/240/240 239/239/239
f 242/242/242 241/241/241 239/239/239
f 245/245/245 244/244/244 243/243/243
f 246/246/246 245/245/245 243/243/243
f 249/249/249 248/248/248 247/247/247
f 250/250/250 249/249/249 247/247/247
f 253/253/253 252/252/252 251/251/251
f 254/254/254 253/253/253 251/251/251
f 257/257/257 256/256/256 255/255/255
f 258/258/258 257/257/257 255/255/255
f 261/261/261 260/260/260 259/259/259
f 262/262/262 261/261/261 259/259/259
f 265/265/265 264/264/264 263/263/263
f 266/266/266 265/265/265 263/263/263
f 269/269/269 268/268/268 267/267/267
f 270/270/270 269/269/269 267/267/267
f 273/273/273 272/272/272 271/271/271
f 274/274/274 273/273/273 271/271/271
f 277/277/277 276/276/276 275/275/275
f 278/278/278 277/277/277 275/275/275
f 281/281/281 280/280/280 279/279/279
f 282/282/282 281/281/281 279/279/279
f 285/285/285 284/284/284 283/283/283
f 286/286/286 285/285/285 283/283/283
f 289/289/289 288/288/288 287/287/287
f 290/290/290 289/289/289 287/287/287
f 293/293/293 292/292/292 291/291/291
f 294/294/294 293/293/293 291/291/291
f 297/297/297 296/296/296 295/295/295
f 298/298/298 297/297/297 295/295/295
f 301/301/301 300/300/300 299/299/299
f 302/302/302 301/301/301 299/299/299
f 305/305/305 304/304/304 303/303/303
f 306/306/306 305/305/305 303/303/303
f 309/309/309 308/308/308 307/307/307
f 310/310/310 309/309/309 307/307/307
f 313/313/313 312/312/312 311/311/311
f 314/314/314 313/313/313 311/311/311
f 317/317/317 316/316/316 315/315/315
f 318/318/318 317/317/317 315/315/315
f 319/319/319 317/317/317 318/318/318
f 320/320/320 319/319/319 318/318/318
f 318/318/318 321/321/321 320/320/320
f 321/321/321 318/318/318 315/315/315
f 319/319/319 322/322/322 317/317/317
f 322/322/322 323/323/323 317/317/317
f 322/322/322 324/324/324 323/323/323
f 324/324/324 325/325/325 323/323/323
f 324/324/324 326/326/326 325/325/325
f 326/326/326 327/327/327 325/325/325
f 326/326/326 328/328/328 327/327/327
f 328/328/328 329/329/329 327/327/327
f 328/328/328 330/330/330 329/329/329
f 330/330/330 331/331/331 329/329/329
f 330/330/330 332/332/332 331/331/331
f 332/332/332 330/330/330 333/333/333
f 334/334/334 332/332/332 333/333/333
f 331/331/331 332/332/332 334/334/334
f 320/320/320 321/321/321 335/335/335
f 336/336/336 320/320/320 335/335/335
f 330/330/330 328/328/328 337/337/337
f 333/333/333 330/330/330 337/337/337
f 323/323/323 325/325/325 338/338/338
f 339/339/339 323/323/323 338/338/338
f 328/328/328 326/326/326 340/340/340
f 337/337/337 328/328/328 340/340/340
f 325/325/325 327/327/327 341/341/341
f 338/338/338 325/325/325 341/341/341
f 327/327/327 329/329/329 342/342/342
f 341/341/341 327/327/327 342/342/342
f 329/329/329 331/331/331 343/343/343
f 342/342/342 329/329/329 343/343/343
f 343/343/343 331/331/331 334/334/334
f 317/317/317 323/323/323 339/339/339
f 316/316/316 317/317/317 339/339/339
f 340/340/340 326/326/326 344/344/344
f 326/326/326 324/324/324 344/344/344
f 344/344/344 324/324/324 345/345/345
f 324/324/324 322/322/322 345/345/345
f 345/345/345 322/322/322 346/346/346
f 322/322/322 319/319/319 346/346/346
f 346/346/346 319/319/319 336/336/336
f 319/319/319 320/320/320 336/336/336
f 349/349/349 348/348/348 347/347/347
f 350/350/350 349/349/349 347/347/347
f 353/353/353 352/352/352 351/351/351
f 354/354/354 353/353/353 351/351/351
f 357/357/357 356/356/356 355/355/355
f 358/358/358 357/357/357 355/355/355
f 361/361/361 360/360/360 359/359/359
f 362/362/362 361/361/361 359/359/359
f 365/365/365 364/364/364 363/363/363
f 368/368/368 367/367/367 366/366/366
f 371/371/371 370/370/370 369/369/369
f 372/372/372 371/371/371 369/369/369
f 375/375/375 374/374/374 373/373/373
f 378/378/378 377/377/377 376/376/376
f 381/381/381 380/380/380 379/379/379
f 382/382/382 381/381/381 379/379/379
f 385/385/385 384/384/384 383/383/383
f 386/386/386 385/385/385 383/383/383
f 389/389/389 388/388/388 387/387/387
f 390/390/390 389/389/389 387/387/387
f 393/393/393 392/392/392 391/391/391
f 394/394/394 393/393/393 391/391/391
f 397/397/397 396/396/396 395/395/395
f 398/398/398 397/397/397 395/395/395
f 401/401/401 400/400/400 399/399/399
f 402/402/402 401/401/401 399/399/399
f 405/405/405 404/404/404 403/403/403
f 406/406/406 405/405/405 403/403/403
f 335/335/335 321/321/321 315/315/315
f 409/409/409 408/408/408 407/407/407
f 410/410/410 409/409/409 407/407/407
