g Wine
v -9.648237E-10 0.23486938 -0.02835745
v 0.014178729 0.23486938 -0.024558267
v 0.010487062 0.24413131 -0.01816411
v -7.000745E-10 0.24413131 -0.02097411
v 0.014178729 0.23486938 -0.024558267
v 0.02455828 0.23486938 -0.014178717
v 0.018164124 0.24413131 -0.01048705
v 0.010487062 0.24413131 -0.01816411
v 0.02455828 0.23486938 -0.014178717
v 0.028357456 0.23486938 1.08877085E-08
v 0.02097412 0.24413131 1.16419585E-08
v 0.018164124 0.24413131 -0.01048705
v 0.028357456 0.23486938 1.08877085E-08
v 0.024558276 0.23486938 0.014178738
v 0.018164122 0.24413131 0.010487071
v 0.02097412 0.24413131 1.16419585E-08
v 0.024558276 0.23486938 0.014178738
v 0.01417873 0.23486938 0.024558285
v 0.010487063 0.24413131 0.018164136
v 0.018164122 0.24413131 0.010487071
v 0.01417873 0.23486938 0.024558285
v 3.6795755E-09 0.23486938 0.028357463
v 2.721902E-09 0.24413131 0.02097413
v 0.010487063 0.24413131 0.018164136
v 3.6795755E-09 0.23486938 0.028357463
v -0.01417872 0.23486938 0.024558293
v -0.010487055 0.24413131 0.01816414
v 2.721902E-09 0.24413131 0.02097413
v -0.01417872 0.23486938 0.024558293
v -0.024558272 0.23486938 0.014178746
v -0.018164117 0.24413131 0.010487077
v -0.010487055 0.24413131 0.01816414
v -0.024558272 0.23486938 0.014178746
v -0.028357457 0.23486938 2.2863642E-08
v -0.020974124 0.24413131 2.0527883E-08
v -0.018164117 0.24413131 0.010487077
v -0.028357457 0.23486938 2.2863642E-08
v -0.024558283 0.23486938 -0.014178704
v -0.018164128 0.24413131 -0.0104870405
v -0.020974124 0.24413131 2.0527883E-08
v -0.010487072 0.24413131 -0.018164106
v -7.000745E-10 0.24413131 -0.02097411
v 0.010487062 0.24413131 -0.01816411
v 0.018164124 0.24413131 -0.01048705
v -0.018164128 0.24413131 -0.0104870405
v 0.02097412 0.24413131 1.16419585E-08
v -0.020974124 0.24413131 2.0527883E-08
v 0.018164122 0.24413131 0.010487071
v -0.018164117 0.24413131 0.010487077
v 0.010487063 0.24413131 0.018164136
v -0.010487055 0.24413131 0.01816414
v 2.721902E-09 0.24413131 0.02097413
v -0.024558283 0.23486938 -0.014178704
v -0.014178743 0.23486938 -0.02455826
v -0.010487072 0.24413131 -0.018164106
v -0.018164128 0.24413131 -0.0104870405
v -0.014178743 0.23486938 -0.02455826
v -9.648237E-10 0.23486938 -0.02835745
v -7.000745E-10 0.24413131 -0.02097411
v -0.010487072 0.24413131 -0.018164106
v 0.03756142 -0.24020498 -0.06505828
v -2.04572E-10 -0.24020498 -0.07512284
v -0.03756147 -0.24020498 -0.06505826
v 0.0650583 -0.24020498 -0.037561417
v -0.06505831 -0.24020498 -0.037561383
v 0.07512284 -0.24020498 5.043043E-09
v -0.07512284 -0.24020498 3.6684852E-08
v 0.06505828 -0.24020498 0.037561428
v -0.065058276 -0.24020498 0.037561443
v 0.037561424 -0.24020498 0.06505828
v -0.037561405 -0.24020498 0.0650583
v 1.1138662E-08 -0.24020498 0.07512284
v -0.03281404 0.08838631 -0.0568355
v -2.9889466E-10 0.08838631 -0.065628
v -1.8942192E-09 0.14483567 -0.028704537
v -0.01435229 0.14483567 -0.024858845
v -0.056835543 0.08838631 -0.03281397
v -0.03281404 0.08838631 -0.0568355
v -0.01435229 0.14483567 -0.024858845
v -0.024858871 0.14483567 -0.01435225
v -0.065628015 0.08838631 3.3685428E-08
v -0.056835543 0.08838631 -0.03281397
v -0.024858871 0.14483567 -0.01435225
v -0.065628015 0.08838631 3.3685428E-08
v -0.024858871 0.14483567 -0.01435225
v -0.02870455 0.14483567 2.3013401E-08
v -0.056835514 0.08838631 0.032814026
v -0.065628015 0.08838631 3.3685428E-08
v -0.02870455 0.14483567 2.3013401E-08
v -0.02485886 0.14483567 0.014352292
v -0.032813992 0.08838631 0.056835525
v -0.056835514 0.08838631 0.032814026
v -0.02485886 0.14483567 0.014352292
v -0.032813992 0.08838631 0.056835525
v -0.02485886 0.14483567 0.014352292
v -0.014352267 0.14483567 0.024858879
v 9.610661E-09 0.08838631 0.065628015
v -0.032813992 0.08838631 0.056835525
v -0.014352267 0.14483567 0.024858879
v 2.9799798E-09 0.14483567 0.028704554
v 0.032814007 0.08838631 0.056835525
v 9.610661E-09 0.08838631 0.065628015
v 2.9799798E-09 0.14483567 0.028704554
v 0.014352275 0.14483567 0.024858877
v 0.05683552 0.08838631 0.03281401
v 0.032814007 0.08838631 0.056835525
v 0.014352275 0.14483567 0.024858877
v 0.024858868 0.14483567 0.014352284
v 0.065628015 0.08838631 6.042851E-09
v 0.05683552 0.08838631 0.03281401
v 0.024858868 0.14483567 0.014352284
v 0.028704545 0.14483567 1.126008E-08
v 0.05683552 0.08838631 -0.032814
v 0.065628015 0.08838631 6.042851E-09
v 0.028704545 0.14483567 1.126008E-08
v 0.05683552 0.08838631 -0.032814
v 0.028704545 0.14483567 1.126008E-08
v 0.024858868 0.14483567 -0.014352262
v 0.032814004 0.08838631 -0.05683552
v 0.05683552 0.08838631 -0.032814
v 0.024858868 0.14483567 -0.014352262
v 0.014352275 0.14483567 -0.024858853
v -2.9889466E-10 0.08838631 -0.065628
v 0.032814004 0.08838631 -0.05683552
v 0.014352275 0.14483567 -0.024858853
v -1.8942192E-09 0.14483567 -0.028704537
v -2.04572E-10 0.057165273 -0.07512284
v 0.03756142 0.057165265 -0.06505828
v 0.032814004 0.08838631 -0.05683552
v -2.9889466E-10 0.08838631 -0.065628
v 0.03756142 0.057165265 -0.06505828
v 0.0650583 0.057165265 -0.037561417
v 0.05683552 0.08838631 -0.032814
v 0.032814004 0.08838631 -0.05683552
v 0.0650583 0.057165265 -0.037561417
v 0.07512284 0.057165265 5.043043E-09
v 0.065628015 0.08838631 6.042851E-09
v 0.05683552 0.08838631 -0.032814
v 0.07512284 0.057165265 5.043043E-09
v 0.06505828 0.057165265 0.037561428
v 0.05683552 0.08838631 0.03281401
v 0.065628015 0.08838631 6.042851E-09
v 0.06505828 0.057165265 0.037561428
v 0.037561424 0.057165265 0.06505828
v 0.032814007 0.08838631 0.056835525
v 0.05683552 0.08838631 0.03281401
v 0.037561424 0.057165265 0.06505828
v 1.1138662E-08 0.057165265 0.07512284
v 9.610661E-09 0.08838631 0.065628015
v 0.032814007 0.08838631 0.056835525
v 1.1138662E-08 0.057165265 0.07512284
v -0.037561405 0.057165265 0.0650583
v -0.032813992 0.08838631 0.056835525
v 9.610661E-09 0.08838631 0.065628015
v -0.037561405 0.057165265 0.0650583
v -0.065058276 0.057165265 0.037561443
v -0.056835514 0.08838631 0.032814026
v -0.032813992 0.08838631 0.056835525
v -0.065058276 0.057165265 0.037561443
v -0.07512284 0.057165265 3.6684852E-08
v -0.065628015 0.08838631 3.3685428E-08
v -0.056835514 0.08838631 0.032814026
v -0.07512284 0.057165265 3.6684852E-08
v -0.06505831 0.057165265 -0.037561383
v -0.056835543 0.08838631 -0.03281397
v -0.065628015 0.08838631 3.3685428E-08
v -0.06505831 0.057165265 -0.037561383
v -0.03756147 0.057165265 -0.06505826
v -0.03281404 0.08838631 -0.0568355
v -0.056835543 0.08838631 -0.03281397
v -0.03756147 0.057165265 -0.06505826
v -2.04572E-10 0.057165273 -0.07512284
v -2.9889466E-10 0.08838631 -0.065628
v -0.03281404 0.08838631 -0.0568355
v -0.03756147 -0.24020498 -0.06505826
v -2.04572E-10 -0.24020498 -0.07512284
v -2.04572E-10 0.057165273 -0.07512284
v -0.03756147 0.057165265 -0.06505826
v -0.06505831 -0.24020498 -0.037561383
v -0.03756147 -0.24020498 -0.06505826
v -0.03756147 0.057165265 -0.06505826
v -0.06505831 0.057165265 -0.037561383
v -0.07512284 -0.24020498 3.6684852E-08
v -0.06505831 -0.24020498 -0.037561383
v -0.06505831 0.057165265 -0.037561383
v -0.07512284 0.057165265 3.6684852E-08
v -0.065058276 -0.24020498 0.037561443
v -0.07512284 -0.24020498 3.6684852E-08
v -0.07512284 0.057165265 3.6684852E-08
v -0.065058276 0.057165265 0.037561443
v -0.037561405 -0.24020498 0.0650583
v -0.065058276 -0.24020498 0.037561443
v -0.065058276 0.057165265 0.037561443
v -0.037561405 0.057165265 0.0650583
v 1.1138662E-08 -0.24020498 0.07512284
v -0.037561405 -0.24020498 0.0650583
v -0.037561405 0.057165265 0.0650583
v 1.1138662E-08 0.057165265 0.07512284
v 0.037561424 -0.24020498 0.06505828
v 1.1138662E-08 -0.24020498 0.07512284
v 1.1138662E-08 0.057165265 0.07512284
v 0.037561424 0.057165265 0.06505828
v 0.06505828 -0.24020498 0.037561428
v 0.037561424 -0.24020498 0.06505828
v 0.037561424 0.057165265 0.06505828
v 0.06505828 0.057165265 0.037561428
v 0.07512284 -0.24020498 5.043043E-09
v 0.06505828 -0.24020498 0.037561428
v 0.06505828 0.057165265 0.037561428
v 0.07512284 0.057165265 5.043043E-09
v 0.0650583 -0.24020498 -0.037561417
v 0.07512284 -0.24020498 5.043043E-09
v 0.07512284 0.057165265 5.043043E-09
v 0.0650583 0.057165265 -0.037561417
v 0.03756142 -0.24020498 -0.06505828
v 0.0650583 -0.24020498 -0.037561417
v 0.0650583 0.057165265 -0.037561417
v 0.03756142 0.057165265 -0.06505828
v -2.04572E-10 -0.24020498 -0.07512284
v 0.03756142 -0.24020498 -0.06505828
v 0.03756142 0.057165265 -0.06505828
v -2.04572E-10 0.057165273 -0.07512284
v -0.01435229 0.14483567 -0.024858845
v -1.8942192E-09 0.14483567 -0.028704537
v -1.230186E-09 0.20916282 -0.028456548
v -0.014228295 0.20916282 -0.024644086
v -9.648237E-10 0.23486938 -0.02835745
v -0.014178743 0.23486938 -0.02455826
v -0.024858871 0.14483567 -0.01435225
v -0.01435229 0.14483567 -0.024858845
v -0.014228295 0.20916282 -0.024644086
v -0.024644107 0.20916282 -0.0142282555
v -0.014178743 0.23486938 -0.02455826
v -0.024558283 0.23486938 -0.014178704
v -0.02870455 0.14483567 2.3013401E-08
v -0.024858871 0.14483567 -0.01435225
v -0.024644107 0.20916282 -0.0142282555
v -0.028456556 0.20916282 2.2906399E-08
v -0.024558283 0.23486938 -0.014178704
v -0.028357457 0.23486938 2.2863642E-08
v -0.02485886 0.14483567 0.014352292
v -0.02870455 0.14483567 2.3013401E-08
v -0.028456556 0.20916282 2.2906399E-08
v -0.024644095 0.20916282 0.014228297
v -0.028357457 0.23486938 2.2863642E-08
v -0.024558272 0.23486938 0.014178746
v -0.014352267 0.14483567 0.024858879
v -0.02485886 0.14483567 0.014352292
v -0.024644095 0.20916282 0.014228297
v -0.014228271 0.20916282 0.024644114
v -0.024558272 0.23486938 0.014178746
v -0.01417872 0.23486938 0.024558293
v 2.9799798E-09 0.14483567 0.028704554
v -0.014352267 0.14483567 0.024858879
v -0.014228271 0.20916282 0.024644114
v 3.4798262E-09 0.20916282 0.028456563
v -0.01417872 0.23486938 0.024558293
v 3.6795755E-09 0.23486938 0.028357463
v 0.014352275 0.14483567 0.024858877
v 2.9799798E-09 0.14483567 0.028704554
v 3.4798262E-09 0.20916282 0.028456563
v 0.014228281 0.20916282 0.024644112
v 3.6795755E-09 0.23486938 0.028357463
v 0.01417873 0.23486938 0.024558285
v 0.024858868 0.14483567 0.014352284
v 0.014352275 0.14483567 0.024858877
v 0.014228281 0.20916282 0.024644112
v 0.024644101 0.20916282 0.014228289
v 0.01417873 0.23486938 0.024558285
v 0.024558276 0.23486938 0.014178738
v 0.028704545 0.14483567 1.126008E-08
v 0.024858868 0.14483567 0.014352284
v 0.024644101 0.20916282 0.014228289
v 0.028456556 0.20916282 1.0994027E-08
v 0.024558276 0.23486938 0.014178738
v 0.028357456 0.23486938 1.08877085E-08
v 0.024858868 0.14483567 -0.014352262
v 0.028704545 0.14483567 1.126008E-08
v 0.028456556 0.20916282 1.0994027E-08
v 0.024644103 0.20916282 -0.014228268
v 0.028357456 0.23486938 1.08877085E-08
v 0.02455828 0.23486938 -0.014178717
v 0.014352275 0.14483567 -0.024858853
v 0.024858868 0.14483567 -0.014352262
v 0.024644103 0.20916282 -0.014228268
v 0.014228278 0.20916282 -0.024644088
v 0.02455828 0.23486938 -0.014178717
v 0.014178729 0.23486938 -0.024558267
v -1.8942192E-09 0.14483567 -0.028704537
v 0.014352275 0.14483567 -0.024858853
v 0.014228278 0.20916282 -0.024644088
v -1.230186E-09 0.20916282 -0.028456548
v 0.014178729 0.23486938 -0.024558267
v -9.648237E-10 0.23486938 -0.02835745
vn 0.2050698 0.61009705 -0.7653287
vn 0.2050698 0.61009705 -0.7653287
vn 0.2050698 0.61009705 -0.7653287
vn 0.2050698 0.61009705 -0.7653287
vn 0.56026 0.61009675 -0.5602595
vn 0.56026 0.61009675 -0.5602595
vn 0.56026 0.61009675 -0.5602595
vn 0.56026 0.61009675 -0.5602595
vn 0.765329 0.6100969 -0.20506904
vn 0.765329 0.6100969 -0.20506904
vn 0.765329 0.6100969 -0.20506904
vn 0.765329 0.6100969 -0.20506904
vn 0.76532876 0.61009705 0.20506936
vn 0.76532876 0.61009705 0.20506936
vn 0.76532876 0.61009705 0.20506936
vn 0.76532876 0.61009705 0.20506936
vn 0.5602604 0.6100966 0.5602592
vn 0.5602604 0.6100966 0.5602592
vn 0.5602604 0.6100966 0.5602592
vn 0.5602604 0.6100966 0.5602592
vn 0.20506911 0.61009693 0.76532894
vn 0.20506911 0.61009693 0.76532894
vn 0.20506911 0.61009693 0.76532894
vn 0.20506911 0.61009693 0.76532894
vn -0.20506774 0.61009693 0.7653294
vn -0.20506774 0.61009693 0.7653294
vn -0.20506774 0.61009693 0.7653294
vn -0.20506774 0.61009693 0.7653294
vn -0.56025946 0.61009693 0.56025976
vn -0.56025946 0.61009693 0.56025976
vn -0.56025946 0.61009693 0.56025976
vn -0.56025946 0.61009693 0.56025976
vn -0.76532924 0.6100964 0.20506951
vn -0.76532924 0.6100964 0.20506951
vn -0.76532924 0.6100964 0.20506951
vn -0.76532924 0.6100964 0.20506951
vn -0.7653283 0.61009765 -0.20506926
vn -0.7653283 0.61009765 -0.20506926
vn -0.7653283 0.61009765 -0.20506926
vn -0.7653283 0.61009765 -0.20506926
vn -1.7642142E-07 1 0
vn -1.7642142E-07 1 0
vn -1.7642142E-07 1 0
vn -1.7642142E-07 1 0
vn -1.7642142E-07 1 0
vn -1.7642142E-07 1 0
vn -1.7642142E-07 1 0
vn -1.7642142E-07 1 0
vn -1.7642142E-07 1 0
vn -1.7642142E-07 1 0
vn -1.7642142E-07 1 0
vn -1.7642142E-07 1 0
vn -0.56025934 0.61009735 -0.56025946
vn -0.56025934 0.61009735 -0.56025946
vn -0.56025934 0.61009735 -0.56025946
vn -0.56025934 0.61009735 -0.56025946
vn -0.2050696 0.6100971 -0.76532865
vn -0.2050696 0.6100971 -0.76532865
vn -0.2050696 0.6100971 -0.76532865
vn -0.2050696 0.6100971 -0.76532865
vn -0 -1 0
vn -0 -1 0
vn -0 -1 0
vn -0 -1 0
vn -0 -1 0
vn -0 -1 0
vn -0 -1 0
vn -0 -1 0
vn -0 -1 0
vn -0 -1 0
vn -0 -1 0
vn -0 -1 0
vn -0.21880576 0.5341333 -0.8165938
vn -0.21880576 0.5341333 -0.8165938
vn -0.21880576 0.5341333 -0.8165938
vn -0.21880576 0.5341333 -0.8165938
vn -0.5977884 0.53413343 -0.597788
vn -0.5977884 0.53413343 -0.597788
vn -0.5977884 0.53413343 -0.597788
vn -0.5977884 0.53413343 -0.597788
vn -0.81659406 0.5341334 -0.21880518
vn -0.81659406 0.5341334 -0.21880518
vn -0.81659406 0.5341334 -0.21880518
vn -0.81659406 0.5341334 -0.21880518
vn -0.81659406 0.5341334 -0.21880518
vn -0.81659406 0.5341334 -0.21880518
vn -0.8165938 0.5341333 0.21880622
vn -0.8165938 0.5341333 0.21880622
vn -0.8165938 0.5341333 0.21880622
vn -0.8165938 0.5341333 0.21880622
vn -0.5977882 0.53413326 0.5977884
vn -0.5977882 0.53413326 0.5977884
vn -0.5977882 0.53413326 0.5977884
vn -0.5977882 0.53413326 0.5977884
vn -0.5977882 0.53413326 0.5977884
vn -0.5977882 0.53413326 0.5977884
vn -0.21880563 0.53413326 0.816594
vn -0.21880563 0.53413326 0.816594
vn -0.21880563 0.53413326 0.816594
vn -0.21880563 0.53413326 0.816594
vn 0.2188058 0.53413314 0.816594
vn 0.2188058 0.53413314 0.816594
vn 0.2188058 0.53413314 0.816594
vn 0.2188058 0.53413314 0.816594
vn 0.5977881 0.5341334 0.5977883
vn 0.5977881 0.5341334 0.5977883
vn 0.5977881 0.5341334 0.5977883
vn 0.5977881 0.5341334 0.5977883
vn 0.816594 0.5341333 0.2188057
vn 0.816594 0.5341333 0.2188057
vn 0.816594 0.5341333 0.2188057
vn 0.816594 0.5341333 0.2188057
vn 0.8165938 0.5341333 -0.21880576
vn 0.8165938 0.5341333 -0.21880576
vn 0.8165938 0.5341333 -0.21880576
vn 0.8165938 0.5341333 -0.21880576
vn 0.8165938 0.5341333 -0.21880576
vn 0.8165938 0.5341333 -0.21880576
vn 0.5977882 0.5341335 -0.59778816
vn 0.5977882 0.5341335 -0.59778816
vn 0.5977882 0.5341335 -0.59778816
vn 0.5977882 0.5341335 -0.59778816
vn 0.21880543 0.5341333 -0.816594
vn 0.21880543 0.5341333 -0.816594
vn 0.21880543 0.5341333 -0.816594
vn 0.21880543 0.5341333 -0.816594
vn 0.24832632 0.28184497 -0.9267672
vn 0.24832632 0.28184497 -0.9267672
vn 0.24832632 0.28184497 -0.9267672
vn 0.24832632 0.28184497 -0.9267672
vn 0.67844075 0.28184506 -0.6784405
vn 0.67844075 0.28184506 -0.6784405
vn 0.67844075 0.28184506 -0.6784405
vn 0.67844075 0.28184506 -0.6784405
vn 0.9267672 0.28184497 -0.2483264
vn 0.9267672 0.28184497 -0.2483264
vn 0.9267672 0.28184497 -0.2483264
vn 0.9267672 0.28184497 -0.2483264
vn 0.9267672 0.281845 0.2483266
vn 0.9267672 0.281845 0.2483266
vn 0.9267672 0.281845 0.2483266
vn 0.9267672 0.281845 0.2483266
vn 0.6784405 0.28184497 0.6784407
vn 0.6784405 0.28184497 0.6784407
vn 0.6784405 0.28184497 0.6784407
vn 0.6784405 0.28184497 0.6784407
vn 0.24832657 0.28184506 0.9267672
vn 0.24832657 0.28184506 0.9267672
vn 0.24832657 0.28184506 0.9267672
vn 0.24832657 0.28184506 0.9267672
vn -0.24832644 0.28184497 0.9267672
vn -0.24832644 0.28184497 0.9267672
vn -0.24832644 0.28184497 0.9267672
vn -0.24832644 0.28184497 0.9267672
vn -0.6784404 0.28184494 0.6784409
vn -0.6784404 0.28184494 0.6784409
vn -0.6784404 0.28184494 0.6784409
vn -0.6784404 0.28184494 0.6784409
vn -0.92676705 0.28184494 0.24832693
vn -0.92676705 0.28184494 0.24832693
vn -0.92676705 0.28184494 0.24832693
vn -0.92676705 0.28184494 0.24832693
vn -0.9267673 0.28184494 -0.24832605
vn -0.9267673 0.28184494 -0.24832605
vn -0.9267673 0.28184494 -0.24832605
vn -0.9267673 0.28184494 -0.24832605
vn -0.678441 0.28184512 -0.6784403
vn -0.678441 0.28184512 -0.6784403
vn -0.678441 0.28184512 -0.6784403
vn -0.678441 0.28184512 -0.6784403
vn -0.24832684 0.2818449 -0.92676705
vn -0.24832684 0.2818449 -0.92676705
vn -0.24832684 0.2818449 -0.92676705
vn -0.24832684 0.2818449 -0.92676705
vn -0.25881937 0 -0.9659257
vn -0.25881937 0 -0.9659257
vn -0.25881937 0 -0.9659257
vn -0.25881937 0 -0.9659257
vn -0.70710725 0 -0.7071063
vn -0.70710725 0 -0.7071063
vn -0.70710725 0 -0.7071063
vn -0.70710725 0 -0.7071063
vn -0.96592593 0 -0.25881842
vn -0.96592593 0 -0.25881842
vn -0.96592593 0 -0.25881842
vn -0.96592593 0 -0.25881842
vn -0.9659257 0 0.2588194
vn -0.9659257 0 0.2588194
vn -0.9659257 0 0.2588194
vn -0.9659257 0 0.2588194
vn -0.7071066 0 0.70710695
vn -0.7071066 0 0.70710695
vn -0.7071066 0 0.70710695
vn -0.7071066 0 0.70710695
vn -0.2588188 0 0.9659258
vn -0.2588188 0 0.9659258
vn -0.2588188 0 0.9659258
vn -0.2588188 0 0.9659258
vn 0.258819 0 0.9659258
vn 0.258819 0 0.9659258
vn 0.258819 0 0.9659258
vn 0.258819 0 0.9659258
vn 0.70710677 0 0.7071068
vn 0.70710677 0 0.7071068
vn 0.70710677 0 0.7071068
vn 0.70710677 0 0.7071068
vn 0.9659258 0 0.2588188
vn 0.9659258 0 0.2588188
vn 0.9659258 0 0.2588188
vn 0.9659258 0 0.2588188
vn 0.96592593 0 -0.2588187
vn 0.96592593 0 -0.2588187
vn 0.96592593 0 -0.2588187
vn 0.96592593 0 -0.2588187
vn 0.70710665 0 -0.7071069
vn 0.70710665 0 -0.7071069
vn 0.70710665 0 -0.7071069
vn 0.70710665 0 -0.7071069
vn 0.25881898 0 -0.9659258
vn 0.25881898 0 -0.9659258
vn 0.25881898 0 -0.9659258
vn 0.25881898 0 -0.9659258
vn -0.25881758 0.0037236859 -0.965919
vn -0.25881758 0.0037236859 -0.965919
vn -0.25881758 0.0037236859 -0.965919
vn -0.25881758 0.0037236859 -0.965919
vn -0.25881758 0.0037237864 -0.965919
vn -0.25881758 0.0037237864 -0.965919
vn -0.7071024 0.0037237355 -0.7071013
vn -0.7071024 0.0037237355 -0.7071013
vn -0.7071024 0.0037237355 -0.7071013
vn -0.7071024 0.0037237355 -0.7071013
vn -0.7071025 0.0037237299 -0.70710117
vn -0.7071025 0.0037237299 -0.70710117
vn -0.96591926 0.0037237622 -0.25881687
vn -0.96591926 0.0037237622 -0.25881687
vn -0.96591926 0.0037237622 -0.25881687
vn -0.96591926 0.0037237622 -0.25881687
vn -0.96591926 0.003723675 -0.25881687
vn -0.96591926 0.003723675 -0.25881687
vn -0.96591896 0.0037237606 0.25881788
vn -0.96591896 0.0037237606 0.25881788
vn -0.96591896 0.0037237606 0.25881788
vn -0.96591896 0.0037237606 0.25881788
vn -0.965919 0.0037236805 0.25881782
vn -0.965919 0.0037236805 0.25881782
vn -0.7071017 0.0037237518 0.70710194
vn -0.7071017 0.0037237518 0.70710194
vn -0.7071017 0.0037237518 0.70710194
vn -0.7071017 0.0037237518 0.70710194
vn -0.7071017 0.0037236742 0.707102
vn -0.7071017 0.0037236742 0.707102
vn -0.25881687 0.003723749 0.96591926
vn -0.25881687 0.003723749 0.96591926
vn -0.25881687 0.003723749 0.96591926
vn -0.25881687 0.003723749 0.96591926
vn -0.25881687 0.003723693 0.96591926
vn -0.25881687 0.003723693 0.96591926
vn 0.25881708 0.0037237476 0.96591914
vn 0.25881708 0.0037237476 0.96591914
vn 0.25881708 0.0037237476 0.96591914
vn 0.25881708 0.0037237476 0.96591914
vn 0.25881702 0.0037236793 0.96591914
vn 0.25881702 0.0037236793 0.96591914
vn 0.7071019 0.003723752 0.7071018
vn 0.7071019 0.003723752 0.7071018
vn 0.7071019 0.003723752 0.7071018
vn 0.7071019 0.003723752 0.7071018
vn 0.707102 0.0037237504 0.7071017
vn 0.707102 0.0037237504 0.7071017
vn 0.96591914 0.00372375 0.25881714
vn 0.96591914 0.00372375 0.25881714
vn 0.96591914 0.00372375 0.25881714
vn 0.96591914 0.00372375 0.25881714
vn 0.96591914 0.0037237084 0.2588173
vn 0.96591914 0.0037237084 0.2588173
vn 0.96591914 0.0037237348 -0.2588171
vn 0.96591914 0.0037237348 -0.2588171
vn 0.96591914 0.0037237348 -0.2588171
vn 0.96591914 0.0037237348 -0.2588171
vn 0.96591926 0.0037236712 -0.2588169
vn 0.96591926 0.0037236712 -0.2588169
vn 0.7071018 0.0037237427 -0.7071019
vn 0.7071018 0.0037237427 -0.7071019
vn 0.7071018 0.0037237427 -0.7071019
vn 0.7071018 0.0037237427 -0.7071019
vn 0.7071017 0.0037236426 -0.707102
vn 0.7071017 0.0037236426 -0.707102
vn 0.25881746 0.003723756 -0.965919
vn 0.25881746 0.003723756 -0.965919
vn 0.25881746 0.003723756 -0.965919
vn 0.25881746 0.003723756 -0.965919
vn 0.2588175 0.0037236777 -0.965919
vn 0.2588175 0.0037236777 -0.965919
g Wine_0
f 3/3/3 2/2/2 1/1/1
f 4/4/4 3/3/3 1/1/1
f 7/7/7 6/6/6 5/5/5
f 8/8/8 7/7/7 5/5/5
f 11/11/11 10/10/10 9/9/9
f 12/12/12 11/11/11 9/9/9
f 15/15/15 14/14/14 13/13/13
f 16/16/16 15/15/15 13/13/13
f 19/19/19 18/18/18 17/17/17
f 20/20/20 19/19/19 17/17/17
f 23/23/23 22/22/22 21/21/21
f 24/24/24 23/23/23 21/21/21
f 27/27/27 26/26/26 25/25/25
f 28/28/28 27/27/27 25/25/25
f 31/31/31 30/30/30 29/29/29
f 32/32/32 31/31/31 29/29/29
f 35/35/35 34/34/34 33/33/33
f 36/36/36 35/35/35 33/33/33
f 39/39/39 38/38/38 37/37/37
f 40/40/40 39/39/39 37/37/37
f 43/43/43 42/42/42 41/41/41
f 41/41/41 44/44/44 43/43/43
f 41/41/41 45/45/45 44/44/44
f 45/45/45 46/46/46 44/44/44
f 45/45/45 47/47/47 46/46/46
f 47/47/47 48/48/48 46/46/46
f 47/47/47 49/49/49 48/48/48
f 49/49/49 50/50/50 48/48/48
f 49/49/49 51/51/51 50/50/50
f 51/51/51 52/52/52 50/50/50
f 55/55/55 54/54/54 53/53/53
f 56/56/56 55/55/55 53/53/53
f 59/59/59 58/58/58 57/57/57
f 60/60/60 59/59/59 57/57/57
f 63/63/63 62/62/62 61/61/61
f 61/61/61 64/64/64 63/63/63
f 64/64/64 65/65/65 63/63/63
f 64/64/64 66/66/66 65/65/65
f 66/66/66 67/67/67 65/65/65
f 66/66/66 68/68/68 67/67/67
f 68/68/68 69/69/69 67/67/67
f 68/68/68 70/70/70 69/69/69
f 70/70/70 71/71/71 69/69/69
f 70/70/70 72/72/72 71/71/71
f 75/75/75 74/74/74 73/73/73
f 76/76/76 75/75/75 73/73/73
f 79/79/79 78/78/78 77/77/77
f 80/80/80 79/79/79 77/77/77
f 83/83/83 82/82/82 81/81/81
f 86/86/86 85/85/85 84/84/84
f 89/89/89 88/88/88 87/87/87
f 90/90/90 89/89/89 87/87/87
f 93/93/93 92/92/92 91/91/91
f 96/96/96 95/95/95 94/94/94
f 99/99/99 98/98/98 97/97/97
f 100/100/100 99/99/99 97/97/97
f 103/103/103 102/102/102 101/101/101
f 104/104/104 103/103/103 101/101/101
f 107/107/107 106/106/106 105/105/105
f 108/108/108 107/107/107 105/105/105
f 111/111/111 110/110/110 109/109/109
f 112/112/112 111/111/111 109/109/109
f 115/115/115 114/114/114 113/113/113
f 118/118/118 117/117/117 116/116/116
f 121/121/121 120/120/120 119/119/119
f 122/122/122 121/121/121 119/119/119
f 125/125/125 124/124/124 123/123/123
f 126/126/126 125/125/125 123/123/123
f 129/129/129 128/128/128 127/127/127
f 130/130/130 129/129/129 127/127/127
f 133/133/133 132/132/132 131/131/131
f 134/134/134 133/133/133 131/131/131
f 137/137/137 136/136/136 135/135/135
f 138/138/138 137/137/137 135/135/135
f 141/141/141 140/140/140 139/139/139
f 142/142/142 141/141/141 139/139/139
f 145/145/145 144/144/144 143/143/143
f 146/146/146 145/145/145 143/143/143
f 149/149/149 148/148/148 147/147/147
f 150/150/150 149/149/149 147/147/147
f 153/153/153 152/152/152 151/151/151
f 154/154/154 153/153/153 151/151/151
f 157/157/157 156/156/156 155/155/155
f 158/158/158 157/157/157 155/155/155
f 161/161/161 160/160/160 159/159/159
f 162/162/162 161/161/161 159/159/159
f 165/165/165 164/164/164 163/163/163
f 166/166/166 165/165/165 163/163/163
f 169/169/169 168/168/168 167/167/167
f 170/170/170 169/169/169 167/167/167
f 173/173/173 172/172/172 171/171/171
f 174/174/174 173/173/173 171/171/171
f 177/177/177 176/176/176 175/175/175
f 178/178/178 177/177/177 175/175/175
f 181/181/181 180/180/180 179/179/179
f 182/182/182 181/181/181 179/179/179
f 185/185/185 184/184/184 183/183/183
f 186/186/186 185/185/185 183/183/183
f 189/189/189 188/188/188 187/187/187
f 190/190/190 189/189/189 187/187/187
f 193/193/193 192/192/192 191/191/191
f 194/194/194 193/193/193 191/191/191
f 197/197/197 196/196/196 195/195/195
f 198/198/198 197/197/197 195/195/195
f 201/201/201 200/200/200 199/199/199
f 202/202/202 201/201/201 199/199/199
f 205/205/205 204/204/204 203/203/203
f 206/206/206 205/205/205 203/203/203
f 209/209/209 208/208/208 207/207/207
f 210/210/210 209/209/209 207/207/207
f 213/213/213 212/212/212 211/211/211
f 214/214/214 213/213/213 211/211/211
f 217/217/217 216/216/216 215/215/215
f 218/218/218 217/217/217 215/215/215
f 221/221/221 220/220/220 219/219/219
f 222/222/222 221/221/221 219/219/219
f 225/225/225 224/224/224 223/223/223
f 226/226/226 225/225/225 223/223/223
f 227/227/227 225/225/225 226/226/226
f 228/228/228 227/227/227 226/226/226
f 231/231/231 230/230/230 229/229/229
f 232/232/232 231/231/231 229/229/229
f 233/233/233 231/231/231 232/232/232
f 234/234/234 233/233/233 232/232/232
f 237/237/237 236/236/236 235/235/235
f 238/238/238 237/237/237 235/235/235
f 239/239/239 237/237/237 238/238/238
f 240/240/240 239/239/239 238/238/238
f 243/243/243 242/242/242 241/241/241
f 244/244/244 243/243/243 241/241/241
f 245/245/245 243/243/243 244/244/244
f 246/246/246 245/245/245 244/244/244
f 249/249/249 248/248/248 247/247/247
f 250/250/250 249/249/249 247/247/247
f 251/251/251 249/249/249 250/250/250
f 252/252/252 251/251/251 250/250/250
f 255/255/255 254/254/254 253/253/253
f 256/256/256 255/255/255 253/253/253
f 257/257/257 255/255/255 256/256/256
f 258/258/258 257/257/257 256/256/256
f 261/261/261 260/260/260 259/259/259
f 262/262/262 261/261/261 259/259/259
f 263/263/263 261/261/261 262/262/262
f 264/264/264 263/263/263 262/262/262
f 267/267/267 266/266/266 265/265/265
f 268/268/268 267/267/267 265/265/265
f 269/269/269 267/267/267 268/268/268
f 270/270/270 269/269/269 268/268/268
f 273/273/273 272/272/272 271/271/271
f 274/274/274 273/273/273 271/271/271
f 275/275/275 273/273/273 274/274/274
f 276/276/276 275/275/275 274/274/274
f 279/279/279 278/278/278 277/277/277
f 280/280/280 279/279/279 277/277/277
f 281/281/281 279/279/279 280/280/280
f 282/282/282 281/281/281 280/280/280
f 285/285/285 284/284/284 283/283/283
f 286/286/286 285/285/285 283/283/283
f 287/287/287 285/285/285 286/286/286
f 288/288/288 287/287/287 286/286/286
f 291/291/291 290/290/290 289/289/289
f 292/292/292 291/291/291 289/289/289
f 293/293/293 291/291/291 292/292/292
f 294/294/294 293/293/293 292/292/292
