# Blender 4.0.2
# www.blender.org
mtllib casa.mtl
o Plane
v -2.044025 0.002836 0.850254
v -2.014578 0.002836 0.850254
v -2.044025 0.002836 -0.431177
v -2.014578 0.002836 -0.431177
v -2.044025 0.002836 0.878349
v -2.014578 0.002836 0.878349
v -2.044025 0.002836 0.878349
v -2.014578 0.002836 0.878349
v -0.708261 0.002836 0.850254
v -0.708261 0.002836 0.878349
v -0.678505 0.002836 0.850254
v -0.678505 0.002836 0.878349
v 1.887957 0.002836 0.850254
v 1.887957 0.002836 0.878349
v -0.708261 0.002836 -0.106393
v -0.678505 0.002836 -0.106393
v 1.917968 0.002836 0.850254
v 1.917968 0.002836 0.878349
v 1.887957 0.002836 -0.132173
v 1.917968 0.002836 -0.132173
v -2.044025 0.002836 -0.460742
v -2.014578 0.002836 -0.460742
v -2.044025 0.002836 -1.028743
v -2.014578 0.002836 -1.028743
v -1.494782 0.002836 -0.431177
v -1.494782 0.002836 -0.460742
v -2.044025 0.002836 -1.058474
v -2.014578 0.002836 -1.058474
v -0.708323 0.002836 -1.028743
v -0.708323 0.002836 -1.058474
v -1.186522 0.002836 -0.431177
v -1.186522 0.002836 -0.460742
v -0.709823 0.002836 -0.431177
v -0.709823 0.002836 -0.460742
v -0.708261 0.002836 -0.389715
v -0.678505 0.002836 -0.389715
v -0.708261 0.002836 -0.431202
v -0.678505 0.002836 -0.431202
v -0.678574 0.002836 -1.028743
v -0.678574 0.002836 -1.058474
v 0.606910 0.002836 -1.028743
v 0.606910 0.002836 -1.058474
v 1.887957 0.002836 -0.419575
v 1.917968 0.002836 -0.419575
v 1.887957 0.002836 -0.431345
v 1.917968 0.002836 -0.431345
v 1.887957 0.002836 -0.460623
v 1.917968 0.002836 -0.460623
v -0.708261 0.002836 -0.460717
v -0.678505 0.002836 -0.460717
v -0.708261 0.002836 -0.481551
v -0.678505 0.002836 -0.481551
v -0.603381 0.002836 -0.431202
v -0.603381 0.002836 -0.460717
v -0.316214 0.002836 -0.431202
v -0.316214 0.002836 -0.460717
v 0.636572 0.002836 -1.028743
v 0.636572 0.002836 -1.058474
v 1.887308 0.002836 -1.028743
v 1.887308 0.002836 -1.058474
v 0.606910 0.002836 -0.460995
v 0.636572 0.002836 -0.460995
v 0.606910 0.002836 -0.431682
v 0.636572 0.002836 -0.431682
v 0.606910 0.002836 -0.431682
v 0.636572 0.002836 -0.431682
v 0.606910 0.002836 -0.460995
v 0.606910 0.002836 -0.431682
v 1.918017 0.002836 -1.028743
v 1.918017 0.002836 -1.058474
v 1.887308 0.002836 -1.028743
v 1.918017 0.002836 -1.028743
v -1.617906 0.002836 0.850254
v -1.617906 0.002836 0.878349
v -1.090939 0.002836 0.878349
v -1.090939 0.002836 0.850254
v -0.311106 0.002836 0.850254
v -0.311106 0.002836 0.878349
v 0.326805 0.002836 0.878349
v 0.326805 0.002836 0.850254
v -2.044025 0.700560 -0.431177
v -2.044025 0.700560 0.850254
v -2.014578 0.700560 0.850254
v -2.014578 0.700560 -0.431177
v -2.044025 0.700560 0.878349
v -2.014578 0.700560 0.878349
v -2.044025 0.700560 0.878349
v -2.014578 0.700560 0.878349
v -0.708261 0.700560 0.878349
v -0.708261 0.700560 0.850254
v -1.617906 0.700560 0.850254
v -1.090939 0.700560 0.878349
v -0.678505 0.700560 0.878349
v -0.678505 0.700560 0.850254
v 1.887957 0.700560 0.878349
v 1.887957 0.700560 0.850254
v -0.311106 0.700560 0.850254
v 0.326805 0.700560 0.878349
v -0.678505 0.700560 -0.106393
v -0.708261 0.700560 -0.106393
v 1.917968 0.700560 0.878349
v 1.917968 0.700560 0.850254
v 1.917968 0.700560 -0.132173
v 1.887957 0.700560 -0.132173
v -2.014578 0.700560 -0.460742
v -2.044025 0.700560 -0.460742
v -2.014578 0.700560 -1.028743
v -2.044025 0.700560 -1.028743
v -1.494782 0.700560 -0.431177
v -1.494782 0.700560 -0.460742
v -2.014578 0.700560 -1.058474
v -2.044025 0.700560 -1.058474
v -0.708323 0.700560 -1.028743
v -0.708323 0.700560 -1.058474
v -1.186522 0.700560 -0.431177
v -1.186522 0.700560 -0.460742
v -0.709823 0.700560 -0.431177
v -0.709823 0.700560 -0.460742
v -0.678505 0.700560 -0.389715
v -0.708261 0.700560 -0.389715
v -0.678505 0.700560 -0.431202
v -0.708261 0.700560 -0.431202
v -0.678574 0.700560 -1.028743
v -0.678574 0.700560 -1.058474
v 0.606910 0.700560 -1.028743
v 0.606910 0.700560 -1.058474
v 1.917968 0.700560 -0.419575
v 1.887957 0.700560 -0.419575
v 1.917968 0.700560 -0.431345
v 1.887957 0.700560 -0.431345
v 1.917968 0.700560 -0.460623
v 1.887957 0.700560 -0.460623
v -0.678505 0.700560 -0.460717
v -0.708261 0.700560 -0.460717
v -0.678505 0.700560 -0.481551
v -0.708261 0.700560 -0.481551
v -0.603381 0.700560 -0.431202
v -0.603381 0.700560 -0.460717
v -0.316214 0.700560 -0.431202
v -0.316214 0.700560 -0.460717
v 0.606910 0.700560 -0.460995
v 0.606910 0.700560 -0.431682
v 0.636572 0.700560 -1.028743
v 0.636572 0.700560 -1.058474
v 1.887308 0.700560 -1.028743
v 1.887308 0.700560 -1.058474
v 0.606910 0.700560 -0.460995
v 0.636572 0.700560 -0.460995
v 0.606910 0.700560 -0.431682
v 0.636572 0.700560 -0.431682
v 0.606910 0.700560 -0.431682
v 0.636572 0.700560 -0.431682
v 1.918017 0.700560 -1.028743
v 1.918017 0.700560 -1.058474
v 1.887308 0.700560 -1.028743
v 1.918017 0.700560 -1.028743
v -1.617906 0.700560 0.878349
v -1.090939 0.700560 0.850254
v -0.311106 0.700560 0.878349
v 0.326805 0.700560 0.850254
v -0.311106 0.222646 0.878349
v -0.311106 0.222646 0.850254
v 0.326805 0.222646 0.878349
v 0.326805 0.222646 0.850254
v -0.311106 0.500895 0.878349
v -0.311106 0.500895 0.850254
v 0.326805 0.500895 0.878349
v 0.326805 0.500895 0.850254
v -0.311106 0.700935 0.878349
v -0.311106 0.700935 0.850254
v 0.326805 0.700935 0.878349
v 0.326805 0.700935 0.850254
v -1.617906 0.178700 0.929568
v -1.617906 0.178700 0.797122
v -1.090939 0.178700 0.929568
v -1.090939 0.178700 0.797122
v -1.617906 0.489746 0.878349
v -1.617906 0.489746 0.850254
v -1.090939 0.489746 0.878349
v -1.090939 0.489746 0.850254
v -1.617906 0.698815 0.878349
v -1.617906 0.698815 0.850254
v -1.090939 0.698815 0.878349
v -1.090939 0.698815 0.850254
v -1.494782 0.602836 -0.431177
v -1.494782 0.602836 -0.460742
v -1.186522 0.602836 -0.431177
v -1.186522 0.602836 -0.460742
v -1.494782 0.701759 -0.431177
v -1.494782 0.701759 -0.460742
v -1.186522 0.701759 -0.431177
v -1.186522 0.701759 -0.460742
v -0.678505 0.602836 -0.106393
v -0.708261 0.602836 -0.106393
v -0.678505 0.602836 -0.389715
v -0.708261 0.602836 -0.389715
v -0.678505 0.702836 -0.106393
v -0.708261 0.702836 -0.106393
v -0.678505 0.702836 -0.389715
v -0.708261 0.702836 -0.389715
v -0.603381 0.602836 -0.431202
v -0.603381 0.602836 -0.460717
v -0.316214 0.602836 -0.431202
v -0.316214 0.602836 -0.460717
v -0.603381 0.702836 -0.431202
v -0.603381 0.702836 -0.460717
v -0.316214 0.702836 -0.431202
v -0.316214 0.702836 -0.460717
v 1.917968 0.602836 -0.132173
v 1.887957 0.602836 -0.132173
v 1.917968 0.602836 -0.419575
v 1.887957 0.602836 -0.419575
v 1.917968 0.702836 -0.132173
v 1.887957 0.702836 -0.132173
v 1.917968 0.702836 -0.419575
v 1.887957 0.702836 -0.419575
v 1.200262 0.002836 -0.431345
v 1.200262 0.002836 -0.460623
v 1.887957 0.198766 -0.460623
v 1.887957 0.198766 -0.431345
v 1.200262 0.198766 -0.460623
v 1.200262 0.198766 -0.431345
v -1.617906 0.178002 0.878349
v -1.617906 0.178002 0.850254
v -1.090939 0.178002 0.878349
v -1.090939 0.178002 0.850254
v -1.617906 0.489746 0.959979
v -1.090939 0.489746 0.959979
v -1.617906 0.178002 0.959979
v -1.090939 0.178002 0.959979
v -1.579668 0.467125 0.959979
v -1.129178 0.467125 0.959979
v -1.579668 0.200624 0.959979
v -1.129178 0.200624 0.959979
v -1.579668 0.467125 0.979343
v -1.129178 0.467125 0.979343
v -1.579668 0.200624 0.979343
v -1.129178 0.200624 0.979343
v -1.364739 0.200624 0.959979
v -1.344107 0.200624 0.959979
v -1.364739 0.200624 0.979343
v -1.344107 0.200624 0.979343
v -1.364739 0.468238 0.959979
v -1.344107 0.468238 0.959979
v -1.364739 0.468238 0.979343
v -1.344107 0.468238 0.979343
v -1.129178 0.343433 0.959979
v -1.129178 0.324315 0.959979
v -1.129178 0.343433 0.979343
v -1.129178 0.324315 0.979343
v -1.580768 0.343433 0.959979
v -1.580768 0.324315 0.959979
v -1.580768 0.343433 0.979343
v -1.580768 0.324315 0.979343
v -0.311106 0.222646 0.966289
v 0.326805 0.222646 0.966289
v -0.311106 0.500895 0.966289
v 0.326805 0.500895 0.966289
v -0.277295 0.245839 0.966289
v 0.292993 0.245839 0.966289
v -0.277295 0.479724 0.966289
v 0.292993 0.479724 0.966289
v -0.277295 0.245839 0.986519
v 0.292993 0.245839 0.986519
v -0.277295 0.479724 0.986519
v 0.292993 0.479724 0.986519
v -0.311106 0.002836 0.850254
v 0.326805 0.002836 0.850254
v -0.311106 0.222646 0.786875
v 0.326805 0.222646 0.786875
v 0.292993 0.374064 0.966289
v 0.292993 0.351498 0.966289
v 0.292993 0.374064 0.986519
v 0.292993 0.351498 0.986519
v -0.278538 0.374064 0.966289
v -0.278538 0.351498 0.966289
v -0.278538 0.374064 0.986519
v -0.278538 0.351498 0.986519
v -0.002083 0.245839 0.966289
v 0.017781 0.245839 0.966289
v -0.002083 0.245839 0.986519
v 0.017781 0.245839 0.986519
v -0.002083 0.480862 0.966289
v 0.017781 0.480862 0.966289
v -0.002083 0.480862 0.986519
v 0.017781 0.480862 0.986519
vn -0.0000 -1.0000 -0.0000
vn -0.0000 1.0000 -0.0000
vn -1.0000 -0.0000 -0.0000
vn -0.0000 -0.0000 1.0000
vn 1.0000 -0.0000 -0.0000
vn -0.0000 -0.0000 -1.0000
vn -1.0000 -0.0000 0.0001
vn 1.0000 -0.0000 -0.0001
vn 0.0161 -0.0000 0.9999
vn 0.0160 -0.0000 -0.9999
vn -0.0003 -0.0000 -1.0000
vn 0.0005 -0.0000 1.0000
vn 1.0000 -0.0000 0.0001
vn -1.0000 -0.0000 0.0011
vn -0.0000 -0.2892 -0.9573
vn -0.0000 -0.2796 0.9601
vn -0.0000 -0.2770 -0.9609
vt 0.000000 0.000000
vt 0.000000 1.000000
vt 1.000000 1.000000
vt 1.000000 0.000000
s 0
usemtl Material.001
f 1/1/1 3/2/1 4/3/1 2/4/1
f 2/4/1 6/4/1 5/1/1 1/1/1
f 6/4/2 8/4/2 7/1/2 5/1/2
f 76/4/1 9/4/1 10/4/1 75/4/1
f 9/4/1 11/4/1 12/4/1 10/4/1
f 80/4/1 13/4/1 14/4/1 79/4/1
f 9/4/1 15/4/1 16/4/1 11/4/1
f 13/4/1 17/4/1 18/4/1 14/4/1
f 13/4/1 19/4/1 20/4/1 17/4/1
f 3/2/1 21/2/1 22/3/1 4/3/1
f 21/2/1 23/2/1 24/3/1 22/3/1
f 22/3/1 26/3/1 25/3/1 4/3/1
f 23/2/1 27/2/1 28/3/1 24/3/1
f 28/3/1 30/3/1 29/3/1 24/3/1
f 32/3/1 34/3/1 33/3/1 31/3/1
f 35/4/1 37/4/1 38/4/1 36/4/1
f 30/3/1 40/3/1 39/3/1 29/3/1
f 40/3/1 42/3/1 41/3/1 39/3/1
f 43/4/1 45/4/1 46/4/1 44/4/1
f 45/4/1 47/4/1 48/4/1 46/4/1
f 37/4/1 49/4/1 50/4/1 38/4/1
f 49/4/1 51/4/1 52/4/1 50/4/1
f 29/3/1 39/3/1 52/4/1 51/4/1
f 37/4/1 33/3/1 34/3/1 49/4/1
f 50/4/1 54/4/1 53/4/1 38/4/1
f 68/3/1 55/4/1 56/4/1 67/3/1
f 42/3/1 58/3/1 57/3/1 41/3/1
f 58/3/1 60/3/1 59/3/1 57/3/1
f 57/3/1 62/3/1 61/3/1 41/3/1
f 62/3/1 64/3/1 63/3/1 61/3/1
f 64/3/2 66/3/2 65/3/2 63/3/2
f 63/3/2 68/3/2 67/3/2 61/3/2
f 60/3/1 70/3/1 69/3/1 59/3/1
f 69/3/2 72/3/2 71/3/2 59/3/2
f 72/3/1 48/4/1 47/4/1 71/3/1
f 2/4/1 73/4/1 74/4/1 6/4/1
f 83/4/2 82/1/2 85/1/2 86/4/2
f 11/4/1 77/4/1 78/4/1 12/4/1
f 82/1/2 83/4/2 84/3/2 81/2/2
f 86/4/2 85/1/2 87/1/2 88/4/2
f 158/4/2 92/4/2 89/4/2 90/4/2
f 90/4/2 89/4/2 93/4/2 94/4/2
f 160/4/2 98/4/2 95/4/2 96/4/2
f 90/4/2 94/4/2 99/4/2 100/4/2
f 96/4/2 95/4/2 101/4/2 102/4/2
f 96/4/2 102/4/2 103/4/2 104/4/2
f 81/2/2 84/3/2 105/3/2 106/2/2
f 106/2/2 105/3/2 107/3/2 108/2/2
f 105/3/2 84/3/2 109/3/2 110/3/2
f 108/2/2 107/3/2 111/3/2 112/2/2
f 111/3/2 107/3/2 113/3/2 114/3/2
f 116/3/2 115/3/2 117/3/2 118/3/2
f 120/4/2 119/4/2 121/4/2 122/4/2
f 114/3/2 113/3/2 123/3/2 124/3/2
f 124/3/2 123/3/2 125/3/2 126/3/2
f 128/4/2 127/4/2 129/4/2 130/4/2
f 130/4/2 129/4/2 131/4/2 132/4/2
f 122/4/2 121/4/2 133/4/2 134/4/2
f 134/4/2 133/4/2 135/4/2 136/4/2
f 113/3/2 136/4/2 135/4/2 123/3/2
f 122/4/2 134/4/2 118/3/2 117/3/2
f 133/4/2 121/4/2 137/4/2 138/4/2
f 142/3/2 141/3/2 140/4/2 139/4/2
f 45/4/3 130/4/3 132/4/3 47/4/3
f 126/3/2 125/3/2 143/3/2 144/3/2
f 144/3/2 143/3/2 145/3/2 146/3/2
f 143/3/2 125/3/2 147/3/2 148/3/2
f 148/3/2 147/3/2 149/3/2 150/3/2
f 150/3/2 149/3/2 151/3/2 152/3/2
f 149/3/2 147/3/2 141/3/2 142/3/2
f 146/3/2 145/3/2 153/3/2 154/3/2
f 153/3/2 145/3/2 155/3/2 156/3/2
f 156/3/2 155/3/2 132/4/2 131/4/2
f 83/4/2 86/4/2 157/4/2 91/4/2
f 94/4/2 93/4/2 159/4/2 97/4/2
f 51/4/3 49/4/3 134/4/3 136/4/3
f 24/3/4 29/3/4 113/3/4 107/3/4
f 65/3/4 66/3/4 152/3/4 151/3/4
f 50/4/5 52/4/5 135/4/5 133/4/5
f 32/3/3 31/3/3 115/3/3 116/3/3
f 77/4/6 11/4/6 94/4/6 97/4/6
f 66/3/2 64/3/2 150/3/2 152/3/2
f 29/3/7 51/4/7 136/4/7 113/3/7
f 79/4/4 14/4/4 95/4/4 98/4/4
f 63/3/2 65/3/2 151/3/2 149/3/2
f 52/4/8 39/3/8 123/3/8 135/4/8
f 34/3/6 32/3/6 116/3/6 118/3/6
f 16/4/6 15/4/6 100/4/6 99/4/6
f 33/3/9 37/4/9 122/4/9 117/3/9
f 31/3/4 33/3/4 117/3/4 115/3/4
f 15/4/3 9/4/3 90/4/3 100/4/3
f 68/3/2 63/3/2 149/3/2 142/3/2
f 49/4/10 34/3/10 118/3/10 134/4/10
f 35/4/4 36/4/4 119/4/4 120/4/4
f 11/4/5 16/4/5 99/4/5 94/4/5
f 61/3/2 67/3/2 141/3/2 147/3/2
f 53/4/5 54/4/5 138/4/5 137/4/5
f 18/4/5 17/4/5 102/4/5 101/4/5
f 69/3/5 70/3/5 154/3/5 153/3/5
f 54/4/6 50/4/6 133/4/6 138/4/6
f 37/4/3 35/4/3 120/4/3 122/4/3
f 70/3/6 60/3/6 146/3/6 154/3/6
f 38/4/4 53/4/4 137/4/4 121/4/4
f 36/4/5 38/4/5 121/4/5 119/4/5
f 14/4/4 18/4/4 101/4/4 95/4/4
f 56/4/3 55/4/3 139/4/3 140/4/3
f 20/4/6 19/4/6 104/4/6 103/4/6
f 67/3/11 56/4/11 140/4/11 141/3/11
f 40/3/6 30/3/6 114/3/6 124/3/6
f 19/4/3 13/4/3 96/4/3 104/4/3
f 3/2/3 1/1/3 82/1/3 81/2/3
f 72/3/2 69/3/2 153/3/2 156/3/2
f 55/4/12 68/3/12 142/3/12 139/4/12
f 17/4/5 20/4/5 103/4/5 102/4/5
f 59/3/2 71/3/2 155/3/2 145/3/2
f 2/4/5 4/3/5 84/3/5 83/4/5
f 48/4/13 72/3/13 156/3/13 131/4/13
f 42/3/6 40/3/6 124/3/6 126/3/6
f 21/2/3 3/2/3 81/2/3 106/2/3
f 71/3/14 47/4/14 132/4/14 155/3/14
f 39/3/4 41/3/4 125/3/4 123/3/4
f 43/4/4 44/4/4 127/4/4 128/4/4
f 6/4/4 74/4/4 157/4/4 86/4/4
f 58/3/6 42/3/6 126/3/6 144/3/6
f 23/2/3 21/2/3 106/2/3 108/2/3
f 1/1/3 5/1/3 85/1/3 82/1/3
f 74/4/5 73/4/5 91/4/5 157/4/5
f 45/4/3 43/4/3 128/4/3 130/4/3
f 22/3/5 24/3/5 107/3/5 105/3/5
f 7/1/4 8/4/4 88/4/4 87/1/4
f 44/4/5 46/4/5 129/4/5 127/4/5
f 25/3/5 26/3/5 110/3/5 109/3/5
f 8/4/2 6/4/2 86/4/2 88/4/2
f 9/4/6 76/4/6 158/4/6 90/4/6
f 60/3/6 58/3/6 144/3/6 146/3/6
f 26/3/6 22/3/6 105/3/6 110/3/6
f 5/1/2 7/1/2 87/1/2 85/1/2
f 76/4/3 75/4/3 92/4/3 158/4/3
f 57/3/4 59/3/4 145/3/4 143/3/4
f 4/3/4 25/3/4 109/3/4 84/3/4
f 46/4/5 48/4/5 131/4/5 129/4/5
f 28/3/6 27/2/6 112/2/6 111/3/6
f 73/4/6 2/4/6 83/4/6 91/4/6
f 12/4/4 78/4/4 159/4/4 93/4/4
f 62/3/5 57/3/5 143/3/5 148/3/5
f 27/2/3 23/2/3 108/2/3 112/2/3
f 75/4/4 10/4/4 89/4/4 92/4/4
f 78/4/5 77/4/5 97/4/5 159/4/5
f 41/3/3 61/3/3 147/3/3 125/3/3
f 13/4/6 80/4/6 160/4/6 96/4/6
f 64/3/5 62/3/5 148/3/5 150/3/5
f 30/3/6 28/3/6 111/3/6 114/3/6
f 10/4/4 12/4/4 93/4/4 89/4/4
f 80/4/3 79/4/3 98/4/3 160/4/3
f 80/4/5 164/4/5 163/4/5 79/4/5
f 168/1/1 258/1/1 257/1/1 166/1/1
f 79/1/4 163/1/4 161/1/4 78/1/4
f 78/4/3 161/4/3 162/4/3 77/4/3
f 80/4/5 268/4/5 270/4/5 164/4/5
f 166/1/6 170/1/6 172/1/6 168/1/6
f 164/4/5 168/4/5 167/4/5 163/4/5
f 161/4/3 165/4/3 166/4/3 162/4/3
f 172/4/2 170/4/2 169/4/2 171/4/2
f 165/4/3 169/4/3 170/4/3 166/4/3
f 167/1/4 171/1/4 169/1/4 165/1/4
f 168/4/5 172/4/5 171/4/5 167/4/5
f 73/4/3 74/4/3 173/4/3 174/4/3
f 176/1/2 174/1/2 173/4/2 175/1/2
f 76/1/15 73/1/15 174/1/15 176/1/15
f 75/4/5 76/4/5 176/4/5 175/4/5
f 74/1/16 75/1/16 175/1/16 173/1/16
f 177/1/4 179/1/4 183/1/4 181/1/4
f 184/4/2 182/4/2 181/4/2 183/4/2
f 178/4/3 177/4/3 181/4/3 182/4/3
f 180/1/6 178/1/6 182/1/6 184/1/6
f 179/4/5 180/4/5 184/4/5 183/4/5
f 187/1/1 185/1/1 186/3/1 188/1/1
f 185/1/4 187/1/4 191/1/4 189/1/4
f 26/3/5 186/3/5 185/3/5 25/3/5
f 31/3/3 187/3/3 188/3/3 32/3/3
f 36/4/4 195/4/4 196/4/4 35/4/4
f 189/3/2 191/3/2 192/3/2 190/3/2
f 186/3/3 185/3/3 189/3/3 190/3/3
f 188/1/6 186/1/6 190/1/6 192/1/6
f 187/3/5 188/3/5 192/3/5 191/3/5
f 193/1/5 195/1/5 199/1/5 197/1/5
f 195/1/1 193/1/1 194/4/1 196/1/1
f 15/4/6 194/4/6 193/4/6 16/4/6
f 201/4/1 202/4/1 204/1/1 203/4/1
f 200/4/2 198/4/2 197/4/2 199/4/2
f 195/4/6 196/4/6 200/4/6 199/4/6
f 196/1/3 194/1/3 198/1/3 200/1/3
f 194/4/4 193/4/4 197/4/4 198/4/4
f 204/1/6 202/1/6 206/1/6 208/1/6
f 54/4/5 202/4/5 201/4/5 53/4/5
f 55/4/5 56/4/5 204/4/5 203/4/5
f 206/4/2 205/4/2 207/4/2 208/4/2
f 203/4/5 204/4/5 208/4/5 207/4/5
f 201/1/4 203/1/4 207/1/4 205/1/4
f 202/4/3 201/4/3 205/4/3 206/4/3
f 19/4/6 210/4/6 209/4/6 20/4/6
f 209/1/5 211/1/5 215/1/5 213/1/5
f 209/4/1 210/4/1 212/1/1 211/4/1
f 44/4/6 43/4/6 212/4/6 211/4/6
f 214/4/2 213/4/2 215/4/2 216/4/2
f 210/4/4 209/4/4 213/4/4 214/4/4
f 212/1/3 210/1/3 214/1/3 216/1/3
f 211/4/6 212/4/6 216/4/6 215/4/6
f 45/4/5 47/4/5 219/4/5 220/4/5
f 220/4/2 219/4/2 221/4/2 222/4/2
f 217/1/4 45/1/4 220/1/4 222/1/4
f 47/1/6 218/1/6 221/1/6 219/1/6
f 218/1/3 217/1/3 222/1/3 221/1/3
f 224/1/1 226/1/1 225/4/1 223/1/1
f 177/4/3 178/4/3 224/4/3 223/4/3
f 178/1/1 180/1/1 228/1/1 227/1/1
f 180/4/5 179/4/5 225/4/5 226/4/5
f 180/4/3 226/4/3 230/4/3 228/4/3
f 226/1/2 224/1/2 229/1/2 230/1/2
f 224/4/5 178/4/5 227/4/5 229/4/5
f 231/1/1 232/1/1 236/1/1 235/1/1
f 237/1/1 238/4/1 242/4/1 241/1/1
f 234/1/2 233/1/2 239/1/2 240/1/2
f 244/1/2 243/1/2 245/1/2 246/1/2
f 241/1/4 242/4/4 246/4/4 245/1/4
f 248/4/1 250/4/1 254/4/1 252/4/1
f 238/4/6 236/4/6 249/4/6 250/4/6
f 232/4/4 234/4/4 248/4/4 247/4/4
f 251/4/3 252/4/3 254/4/3 253/4/3
f 250/4/4 249/4/4 253/4/4 254/4/4
f 166/4/5 257/4/5 255/4/5 162/4/5
f 162/1/2 255/1/2 256/1/2 164/1/2
f 164/4/3 256/4/3 258/4/3 168/4/3
f 264/1/2 282/1/2 281/1/2 263/1/2
f 267/1/17 269/1/17 270/1/17 268/1/17
f 164/1/2 270/1/2 269/1/2 162/1/2
f 77/1/2 267/1/2 268/1/2 80/1/2
f 162/4/3 269/4/3 267/4/3 77/4/3
f 274/1/1 278/1/1 276/1/1 272/1/1
f 266/1/2 273/1/2 274/1/2 264/1/2
f 260/4/2 272/4/2 271/4/2 262/4/2
f 276/4/3 278/4/3 277/4/3 275/4/3
f 273/1/4 277/1/4 278/1/4 274/1/4
f 282/1/4 286/1/4 285/1/4 281/1/4
f 259/1/2 279/1/2 280/1/2 260/1/2
f 283/1/2 285/1/2 286/1/2 284/1/2
f 281/4/3 285/4/3 283/4/3 279/4/3
usemtl Material.003
f 261/4/5 265/4/5 263/4/5 259/4/5
f 228/4/6 230/4/6 234/4/6 232/4/6
f 233/4/5 231/4/5 235/4/5 237/4/5
f 230/1/6 229/1/6 233/1/6 234/1/6
f 229/4/6 227/4/6 231/4/6 233/4/6
f 227/1/6 228/1/6 232/1/6 231/1/6
f 234/4/3 238/4/3 250/4/3 248/4/3
f 238/4/2 234/4/2 240/4/2 242/4/2
f 240/1/6 239/1/6 243/1/6 244/1/6
f 233/4/2 237/4/2 241/4/2 239/4/2
f 242/4/5 240/4/5 244/4/5 246/4/5
f 239/4/3 241/4/3 245/4/3 243/4/3
f 236/1/3 232/1/3 247/1/3 249/1/3
f 249/1/2 247/1/2 251/1/2 253/1/2
f 247/4/6 248/4/6 252/4/6 251/4/6
f 256/4/6 260/4/6 262/4/6 258/4/6
f 255/1/6 259/1/6 260/1/6 256/1/6
f 257/4/6 261/4/6 259/4/6 255/4/6
f 258/1/6 262/1/6 261/1/6 257/1/6
f 262/1/1 266/1/1 265/1/1 261/1/1
f 262/1/3 271/1/3 273/1/3 266/1/3
f 264/1/3 274/1/3 272/1/3 260/1/3
f 271/1/2 275/1/2 277/1/2 273/1/2
f 272/4/6 276/4/6 275/4/6 271/4/6
f 260/1/2 280/1/2 282/1/2 264/1/2
f 263/4/2 281/4/2 279/4/2 259/4/2
f 279/1/6 283/1/6 284/1/6 280/1/6
f 280/1/5 284/1/5 286/1/5 282/1/5
