# Blender 4.0.2
# www.blender.org
mtllib casafinal3corjanelaa.mtl
o Plane
v -1.889619 0.002836 0.963254
v -1.864589 0.002836 0.963254
v -1.889619 0.002836 -0.125962
v -1.864589 0.002836 -0.125962
v -1.889619 0.002836 0.987135
v -1.864589 0.002836 0.987135
v -1.889619 0.002836 0.987135
v -1.864589 0.002836 0.987135
v -0.754220 0.002836 0.963254
v -0.754220 0.002836 0.987135
v -0.728927 0.002836 0.963254
v -0.728927 0.002836 0.987135
v 1.452566 0.002836 0.963254
v 1.452566 0.002836 0.987135
v -0.754220 0.002836 0.150104
v -0.728927 0.002836 0.150104
v 1.478076 0.002836 0.963254
v 1.478076 0.002836 0.987135
v 1.452566 0.002836 0.128191
v 1.478076 0.002836 0.128191
v -1.889619 0.002836 -0.151093
v -1.864589 0.002836 -0.151093
v -1.889619 0.002836 -1.058299
v -1.864589 0.002836 -1.058299
v -1.422762 0.002836 -0.125962
v -1.422762 0.002836 -0.151093
v -1.889619 0.002836 -1.083570
v -1.864589 0.002836 -1.083570
v -0.754272 0.002836 -1.058299
v -0.754272 0.002836 -1.083570
v -1.160742 0.002836 -0.125962
v -1.160742 0.002836 -0.151093
v -0.755548 0.002836 -0.125962
v -0.755548 0.002836 -0.151093
v -0.754220 0.002836 -0.090719
v -0.728927 0.002836 -0.090719
v -0.754220 0.002836 -0.125984
v -0.728927 0.002836 -0.125984
v -0.728986 0.002836 -1.058299
v -0.728986 0.002836 -1.083570
v 0.363676 0.002836 -1.058299
v 0.363676 0.002836 -1.083570
v 1.452566 0.002836 -0.116100
v 1.478076 0.002836 -0.116100
v 1.452566 0.002836 -0.126105
v 1.478076 0.002836 -0.126105
v 1.452566 0.002836 -0.150991
v 1.478076 0.002836 -0.150991
v -0.754220 0.002836 -0.151071
v -0.728927 0.002836 -0.151071
v -0.754220 0.002836 -0.168780
v -0.728927 0.002836 -0.168780
v -0.665072 0.002836 -0.125984
v -0.665072 0.002836 -0.151071
v -0.420979 0.002836 -0.125984
v -0.420979 0.002836 -0.151071
v 0.388888 0.002836 -1.058299
v 0.388888 0.002836 -1.083570
v 1.452014 0.002836 -1.058299
v 1.452014 0.002836 -1.083570
v 0.363676 0.002836 -0.151307
v 0.388888 0.002836 -0.151307
v 0.363676 0.002836 -0.126391
v 0.388888 0.002836 -0.126391
v 0.363676 0.002836 -0.126391
v 0.388888 0.002836 -0.126391
v 0.363676 0.002836 -0.151307
v 0.363676 0.002836 -0.126391
v 1.478117 0.002836 -1.058299
v 1.478117 0.002836 -1.083570
v 1.452014 0.002836 -0.633893
v 1.478117 0.002836 -0.633893
v -1.527418 0.002836 0.963254
v -1.527418 0.002836 0.987135
v -1.079496 0.002836 0.987135
v -1.079496 0.002836 0.963254
v -0.416638 0.002836 0.963254
v -0.416638 0.002836 0.987135
v 0.125586 0.002836 0.987135
v 0.125586 0.002836 0.963254
v -1.889619 0.700560 -0.125962
v -1.889619 0.700560 0.963254
v -1.864589 0.700560 0.963254
v -1.864589 0.700560 -0.125962
v -1.889619 0.700560 0.987135
v -1.864589 0.700560 0.987135
v -1.889619 0.700560 0.987135
v -1.864589 0.700560 0.987135
v -0.754220 0.700560 0.987135
v -0.754220 0.700560 0.963254
v -1.527418 0.700560 0.963254
v -1.079496 0.700560 0.987135
v -0.728927 0.700560 0.987135
v -0.728927 0.700560 0.963254
v 1.452566 0.700560 0.987135
v 1.452566 0.700560 0.963254
v -0.416638 0.700560 0.963254
v 0.125586 0.700560 0.987135
v -0.728927 0.700560 0.150104
v -0.754220 0.700560 0.150104
v 1.478076 0.700560 0.987135
v 1.478076 0.700560 0.963254
v 1.478076 0.700560 0.128191
v 1.452566 0.700560 0.128191
v -1.864589 0.700560 -0.151093
v -1.889619 0.700560 -0.151093
v -1.864589 0.700560 -1.058299
v -1.889619 0.700560 -1.058299
v -1.422762 0.700560 -0.125962
v -1.422762 0.700560 -0.151093
v -1.864589 0.700560 -1.083570
v -1.889619 0.700560 -1.083570
v -0.754272 0.700560 -1.058299
v -0.754272 0.700560 -1.083570
v -1.160742 0.700560 -0.125962
v -1.160742 0.700560 -0.151093
v -0.755548 0.700560 -0.125962
v -0.755548 0.700560 -0.151093
v -0.728927 0.700560 -0.090719
v -0.754220 0.700560 -0.090719
v -0.728927 0.700560 -0.125984
v -0.754220 0.700560 -0.125984
v -0.728986 0.700560 -1.058299
v -0.728986 0.700560 -1.083570
v 0.363676 0.700560 -1.058299
v 0.363676 0.700560 -1.083570
v 1.478076 0.700560 -0.116100
v 1.452566 0.700560 -0.116100
v 1.478076 0.700560 -0.126105
v 1.452566 0.700560 -0.126105
v 1.478076 0.700560 -0.150991
v 1.452566 0.700560 -0.150991
v -0.728927 0.700560 -0.151071
v -0.754220 0.700560 -0.151071
v -0.728927 0.700560 -0.168780
v -0.754220 0.700560 -0.168780
v -0.665072 0.700560 -0.125984
v -0.665072 0.700560 -0.151071
v -0.420979 0.700560 -0.125984
v -0.420979 0.700560 -0.151071
v 0.363676 0.700560 -0.151307
v 0.363676 0.700560 -0.126391
v 0.388888 0.700560 -1.058299
v 0.388888 0.700560 -1.083570
v 1.452014 0.700560 -1.058299
v 1.452014 0.700560 -1.083570
v 0.363676 0.700560 -0.151307
v 0.388888 0.700560 -0.151307
v 0.363676 0.700560 -0.126391
v 0.388888 0.700560 -0.126391
v 0.363676 0.700560 -0.126391
v 0.388888 0.700560 -0.126391
v 1.478117 0.700560 -1.058299
v 1.478117 0.700560 -1.083570
v 1.452014 0.700560 -0.633893
v 1.478117 0.700560 -0.633893
v -1.527418 0.700560 0.987135
v -1.079496 0.700560 0.963254
v -0.416638 0.700560 0.987135
v 0.125586 0.700560 0.963254
v -0.416638 0.222646 0.987135
v -0.416638 0.222646 0.963254
v 0.125586 0.222646 0.987135
v 0.125586 0.222646 0.963254
v -0.416638 0.500895 0.987135
v -0.416638 0.500895 0.963254
v 0.125586 0.500895 0.987135
v 0.125586 0.500895 0.963254
v -0.416638 0.700935 0.987135
v -0.416638 0.700935 0.963254
v 0.125586 0.700935 0.987135
v 0.125586 0.700935 0.963254
v -1.527418 0.178700 1.030671
v -1.527418 0.178700 0.918092
v -1.079496 0.178700 1.030671
v -1.079496 0.178700 0.918092
v -1.527418 0.489746 0.987135
v -1.527418 0.489746 0.963254
v -1.079496 0.489746 0.987135
v -1.079496 0.489746 0.963254
v -1.527418 0.698815 0.987135
v -1.527418 0.698815 0.963254
v -1.079496 0.698815 0.987135
v -1.079496 0.698815 0.963254
v -1.422762 0.602836 -0.125962
v -1.422762 0.602836 -0.151093
v -1.160742 0.602836 -0.125962
v -1.160742 0.602836 -0.151093
v -1.422762 0.701759 -0.125962
v -1.422762 0.701759 -0.151093
v -1.160742 0.701759 -0.125962
v -1.160742 0.701759 -0.151093
v -0.728927 0.602836 0.150104
v -0.754220 0.602836 0.150104
v -0.728927 0.602836 -0.090719
v -0.754220 0.602836 -0.090719
v -0.728927 0.702836 0.150104
v -0.754220 0.702836 0.150104
v -0.728927 0.702836 -0.090719
v -0.754220 0.702836 -0.090719
v -0.665072 0.602836 -0.125984
v -0.665072 0.602836 -0.151071
v -0.420979 0.602836 -0.125984
v -0.420979 0.602836 -0.151071
v -0.665072 0.702836 -0.125984
v -0.665072 0.702836 -0.151071
v -0.420979 0.702836 -0.125984
v -0.420979 0.702836 -0.151071
v 1.478076 0.602836 0.128191
v 1.452566 0.602836 0.128191
v 1.478076 0.602836 -0.116100
v 1.452566 0.602836 -0.116100
v 1.478076 0.702836 0.128191
v 1.452566 0.702836 0.128191
v 1.478076 0.702836 -0.116100
v 1.452566 0.702836 -0.116100
v 1.452566 0.198766 -0.150991
v 1.452566 0.198766 -0.126105
v -1.527418 0.178002 0.987135
v -1.527418 0.178002 0.963254
v -1.079496 0.178002 0.987135
v -1.079496 0.178002 0.963254
v -1.527418 0.489746 1.056521
v -1.079496 0.489746 1.056521
v -1.527418 0.178002 1.056521
v -1.079496 0.178002 1.056521
v -0.416638 0.222646 1.061884
v 0.125586 0.222646 1.061884
v -0.416638 0.500895 1.061884
v 0.125586 0.500895 1.061884
v -0.416638 0.002836 0.963254
v 0.125586 0.002836 0.963254
v -0.416638 0.222646 0.909382
v 0.125586 0.222646 0.909382
v 0.096847 0.374064 1.079079
v 1.478084 0.002836 -0.252401
v 1.452450 0.002836 -0.252401
v 1.478084 0.700560 -0.252401
v 1.452450 0.700560 -0.252401
v 1.478095 0.002836 -0.374712
v 1.478095 0.700560 -0.374712
v 1.452311 0.002836 -0.374712
v 1.452311 0.700560 -0.374712
v -0.754220 0.199064 -0.151071
v -0.754220 0.199064 -0.168780
v -0.754272 0.199064 -1.058299
v -1.864589 0.199064 -1.058299
v 0.388888 0.199064 -0.126391
v 0.363676 0.199064 -0.126391
v -0.728927 0.199064 -0.168780
v -0.728927 0.199064 -0.151071
v -1.160742 0.199064 -0.125962
v -1.160742 0.199064 -0.151093
v 0.388888 0.199064 -0.126391
v 0.363676 0.199064 -0.126391
v -0.728986 0.199064 -1.058299
v -0.755548 0.199064 -0.151093
v -0.754220 0.199064 -0.125984
v -0.755548 0.199064 -0.125962
v 0.363676 0.199064 -0.126391
v -0.728927 0.199064 -0.090719
v -0.754220 0.199064 -0.090719
v 0.363676 0.199064 -0.151307
v 0.363676 0.199064 -0.151307
v -0.665072 0.199064 -0.151071
v -0.665072 0.199064 -0.125984
v 1.478117 0.199064 -1.083570
v 1.478117 0.199064 -1.058299
v 1.452014 0.199064 -1.083570
v -0.728927 0.199064 -0.125984
v -0.420979 0.199064 -0.125984
v -0.420979 0.199064 -0.151071
v -0.754272 0.199064 -1.083570
v -0.728986 0.199064 -1.083570
v -1.889619 0.199064 0.963254
v -1.889619 0.199064 -0.125962
v 1.478117 0.199064 -0.633893
v 1.452014 0.199064 -0.633893
v 1.452014 0.199064 -1.058299
v -1.864589 0.199064 -0.125962
v -1.864589 0.199064 0.963254
v 1.478076 0.199064 -0.150991
v 1.452566 0.199064 -0.126105
v 0.363676 0.199064 -1.083570
v -1.889619 0.199064 -0.151093
v 1.452566 0.199064 -0.150991
v 0.363676 0.199064 -1.058299
v 1.478076 0.199064 -0.116100
v 1.452566 0.199064 -0.116100
v -1.527418 0.199064 0.987135
v -1.864589 0.199064 0.987135
v 0.388888 0.199064 -1.083570
v -1.889619 0.199064 -1.058299
v -1.889619 0.199064 0.987135
v -1.527418 0.199064 0.963254
v -1.864589 0.199064 -0.151093
v -1.864589 0.199064 0.987135
v -1.889619 0.199064 0.987135
v 1.478076 0.199064 -0.126105
v -1.422762 0.199064 -0.151093
v -1.422762 0.199064 -0.125962
v 0.388888 0.199064 -1.058299
v -1.889619 0.199064 -1.083570
v -1.864589 0.199064 -1.083570
v 0.388888 0.199064 -0.151307
v 1.452450 0.199064 -0.252401
v 1.478084 0.199064 -0.252401
v 1.452311 0.199064 -0.374712
v 1.478095 0.199064 -0.374712
v 0.861726 0.002836 -0.374712
v 0.861866 0.002836 -0.252401
v 0.861866 0.199064 -0.252401
v 0.861726 0.199064 -0.374712
v 1.452450 0.232394 -0.208096
v 1.452311 0.232394 -0.419016
v 0.836158 0.232394 -0.208096
v 0.836018 0.232394 -0.419016
v 1.478076 0.522836 0.128191
v 1.452566 0.522836 0.128191
v 1.478076 0.522836 -0.116100
v 1.452566 0.522836 -0.116100
v -0.728927 0.522836 0.150104
v -0.754220 0.522836 0.150104
v -0.728927 0.522836 -0.090719
v -0.754220 0.522836 -0.090719
v -0.665072 0.522836 -0.125984
v -0.665072 0.522836 -0.151071
v -0.420979 0.522836 -0.125984
v -0.420979 0.522836 -0.151071
v -1.422762 0.522836 -0.125962
v -1.422762 0.522836 -0.151093
v -1.160742 0.522836 -0.125962
v -1.160742 0.522836 -0.151093
v -0.420822 0.502694 1.081785
v -0.420822 0.221939 1.081785
v 0.128777 0.502694 1.081785
v 0.128777 0.221939 1.081785
v -0.420822 0.221939 1.036467
v 0.128777 0.221939 1.036467
v 0.128777 0.502694 1.036467
v -0.420822 0.502694 1.036467
v -0.403428 0.487285 1.036467
v -0.420822 0.502694 1.036467
v -0.403428 0.230824 1.036467
v -0.420822 0.221939 1.036467
v 0.128777 0.502694 1.036467
v 0.111384 0.487285 1.036467
v 0.128777 0.221939 1.036467
v 0.111384 0.230824 1.036467
v 0.111384 0.230824 1.079806
v -0.403428 0.230824 1.079806
v 0.111384 0.487285 1.079806
v -0.403428 0.487285 1.079806
v -0.398026 0.489517 1.071612
v 0.096374 0.481895 1.066840
v -0.398026 0.227927 1.071612
v 0.096374 0.235550 1.066840
v 0.111296 0.489517 1.071612
v -0.383105 0.235550 1.066840
v 0.111296 0.227927 1.071612
v -0.383105 0.481895 1.066840
v -0.383105 0.481895 1.043362
v -0.398026 0.489517 1.044592
v -0.383105 0.235550 1.043362
v -0.398026 0.227927 1.044592
v 0.096374 0.481895 1.043362
v 0.111296 0.489517 1.044592
v 0.096374 0.235550 1.043362
v 0.111296 0.227927 1.044592
v -0.050708 0.480535 1.060460
v -0.050708 0.483615 1.046297
v -0.050708 0.234460 1.060461
v -0.050708 0.234460 1.046299
v -0.035400 0.480535 1.060460
v -0.035400 0.483615 1.046297
v -0.035400 0.234460 1.060461
v -0.035400 0.234460 1.046299
v -0.253689 0.482339 1.059383
v -0.253689 0.482339 1.045220
v -0.255013 0.234456 1.059384
v -0.255013 0.234456 1.045222
v -0.238381 0.480505 1.059383
v -0.238381 0.480505 1.045220
v -0.239705 0.234430 1.059384
v -0.239705 0.234430 1.045222
v 0.092731 0.465838 1.067632
v 0.092731 0.482307 1.054523
v 0.092731 0.464010 1.063389
v 0.092731 0.475276 1.045918
v -0.038721 0.475304 1.052476
v -0.038721 0.460510 1.064361
v 0.098536 0.475304 1.052476
v 0.098536 0.460510 1.064361
v -0.038721 0.475261 1.052474
v -0.038721 0.489592 1.065862
v 0.098536 0.475261 1.052474
v 0.098536 0.489592 1.065862
v -0.031784 0.458340 1.072276
v -0.038386 0.487928 1.064273
v -0.031784 0.448800 1.077304
v -0.038386 0.226600 1.062773
v 0.087943 0.458340 1.078805
v 0.097226 0.487928 1.064273
v 0.087943 0.448800 1.077304
v 0.097226 0.226600 1.062773
v -0.037805 0.439510 1.054879
v -0.037805 0.424717 1.066764
v 0.099452 0.439510 1.054879
v 0.099452 0.424717 1.066764
v -0.037805 0.439467 1.054877
v -0.037805 0.453798 1.068265
v 0.099452 0.439467 1.054877
v 0.099452 0.453798 1.068265
v -0.037751 0.400430 1.053402
v -0.037751 0.385636 1.065287
v 0.099506 0.400430 1.053402
v 0.099506 0.385636 1.065287
v -0.037751 0.400387 1.053400
v -0.037751 0.414718 1.066788
v 0.099506 0.400387 1.053400
v 0.099506 0.414718 1.066788
v -0.037455 0.361071 1.051334
v -0.037455 0.346277 1.063218
v 0.099803 0.361071 1.051334
v 0.099803 0.346277 1.063218
v -0.037455 0.361028 1.051331
v -0.037455 0.375359 1.064720
v 0.099803 0.361028 1.051331
v 0.099803 0.375359 1.064720
v -0.037134 0.323802 1.050164
v -0.037134 0.309009 1.062049
v 0.101607 0.323802 1.050164
v 0.101607 0.309009 1.062049
v -0.037134 0.323759 1.050162
v -0.037134 0.338090 1.063550
v 0.101607 0.323759 1.050162
v 0.101607 0.338090 1.063550
v -0.037365 0.284924 1.050175
v -0.037365 0.270130 1.062060
v 0.101376 0.284924 1.050175
v 0.101376 0.270130 1.062060
v -0.037365 0.284881 1.050172
v -0.037365 0.299212 1.063561
v 0.101376 0.284881 1.050172
v 0.101376 0.299212 1.063561
v -0.035708 0.249353 1.049097
v -0.035708 0.236226 1.060982
v 0.102109 0.249353 1.049097
v 0.102109 0.236226 1.060982
v -0.035862 0.249315 1.049095
v -0.035862 0.262033 1.062483
v 0.102109 0.249315 1.049095
v 0.102109 0.262033 1.062483
v -0.380218 0.466246 1.053877
v -0.380218 0.451547 1.065762
v -0.258845 0.466246 1.053877
v -0.258845 0.451547 1.065762
v -0.380218 0.466203 1.053875
v -0.380218 0.480441 1.067263
v -0.258845 0.466203 1.053875
v -0.258845 0.480441 1.067263
v -0.379883 0.451326 1.065675
v -0.380463 0.439704 1.074064
v -0.379883 0.441848 1.064174
v -0.260156 0.451326 1.065675
v -0.260736 0.439705 1.074064
v -0.260156 0.441848 1.064174
v -0.379302 0.430682 1.056280
v -0.379302 0.415984 1.068165
v -0.257929 0.430682 1.056280
v -0.257929 0.415984 1.068165
v -0.379302 0.430640 1.056278
v -0.379302 0.444878 1.069667
v -0.257929 0.430640 1.056278
v -0.257929 0.444878 1.069667
v -0.379309 0.415763 1.068078
v -0.379309 0.406285 1.066577
v -0.259582 0.415763 1.068078
v -0.259582 0.406285 1.066577
v -0.379248 0.391854 1.054803
v -0.379248 0.377156 1.066688
v -0.257875 0.391854 1.054803
v -0.257875 0.377156 1.066688
v -0.379248 0.391811 1.054801
v -0.379248 0.406050 1.068190
v -0.257875 0.391811 1.054801
v -0.257875 0.406050 1.068190
v -0.377635 0.376935 1.066601
v -0.377635 0.367456 1.065100
v -0.257908 0.376935 1.066601
v -0.257908 0.367456 1.065100
v -0.378951 0.352749 1.052735
v -0.378951 0.338051 1.064620
v -0.257579 0.352749 1.052735
v -0.257579 0.338051 1.064620
v -0.378951 0.352706 1.052733
v -0.378951 0.366945 1.066121
v -0.257579 0.352706 1.052733
v -0.257579 0.366945 1.066121
v -0.377300 0.337830 1.064532
v -0.377300 0.328351 1.063032
v -0.257573 0.337830 1.064532
v -0.257573 0.328351 1.063032
v -0.377147 0.315721 1.051565
v -0.377147 0.301023 1.063450
v -0.255774 0.315721 1.051565
v -0.255774 0.301023 1.063450
v -0.377147 0.315678 1.051563
v -0.377147 0.329917 1.064952
v -0.255774 0.315678 1.051563
v -0.255774 0.329917 1.064952
v -0.375491 0.300801 1.063363
v -0.375491 0.291323 1.061862
v -0.255764 0.300801 1.063363
v -0.255764 0.291323 1.061862
v -0.377378 0.277093 1.051576
v -0.377378 0.262395 1.063461
v -0.256006 0.277093 1.051576
v -0.256006 0.262395 1.063461
v -0.377378 0.277050 1.051574
v -0.377378 0.291289 1.064962
v -0.256006 0.277050 1.051574
v -0.256006 0.291289 1.064962
v -0.375723 0.262174 1.063374
v -0.375723 0.252695 1.061873
v -0.255996 0.262174 1.063373
v -0.255996 0.252696 1.061873
v -0.376645 0.234240 1.045857
v -0.376645 0.227130 1.057742
v -0.255272 0.234240 1.045857
v -0.255272 0.227130 1.057742
v -0.376645 0.241714 1.050496
v -0.376645 0.254350 1.063884
v -0.255272 0.241714 1.050496
v -0.255272 0.254350 1.063884
v -0.051742 0.378928 1.057535
v -0.051742 0.378928 1.044676
v -0.051742 0.361064 1.057535
v -0.051742 0.361064 1.044676
v -0.036767 0.378928 1.057535
v -0.036767 0.378928 1.044676
v -0.036767 0.361064 1.057535
v -0.036767 0.361064 1.044676
v -0.253308 0.377163 1.056167
v -0.253308 0.377163 1.043308
v -0.253308 0.359299 1.056167
v -0.253308 0.359299 1.043308
v -0.238334 0.377163 1.056167
v -0.238334 0.377163 1.043308
v -0.238334 0.359299 1.056167
v -0.238334 0.359299 1.043308
v -0.054115 0.370849 1.037312
v -0.053961 0.371523 1.037253
v -0.053507 0.372170 1.037196
v -0.052769 0.372768 1.037144
v -0.051776 0.373291 1.037099
v -0.050566 0.373720 1.037061
v -0.049185 0.374039 1.037033
v -0.047687 0.374236 1.037016
v -0.046129 0.374302 1.037010
v -0.044571 0.374236 1.037016
v -0.043074 0.374039 1.037033
v -0.041693 0.373720 1.037061
v -0.040483 0.373291 1.037099
v -0.039490 0.372768 1.037144
v -0.038752 0.372170 1.047666
v -0.038297 0.371523 1.047722
v -0.038144 0.370849 1.037312
v -0.038297 0.370175 1.037370
v -0.038752 0.369528 1.037427
v -0.039490 0.368931 1.037479
v -0.040483 0.368407 1.037525
v -0.041693 0.367978 1.037562
v -0.043074 0.367659 1.037590
v -0.044571 0.367462 1.037607
v -0.046129 0.367396 1.037613
v -0.047687 0.367462 1.037607
v -0.049185 0.367659 1.037590
v -0.050566 0.367978 1.037562
v -0.051776 0.368407 1.037525
v -0.052769 0.368931 1.037479
v -0.053507 0.369528 1.037427
v -0.053961 0.370175 1.037370
v -0.044752 0.370851 1.055823
v -0.253865 0.368614 1.038363
v -0.253712 0.369288 1.038304
v -0.253258 0.369936 1.038248
v -0.252519 0.370533 1.038195
v -0.251526 0.371056 1.038150
v -0.250316 0.371486 1.038112
v -0.248936 0.371805 1.038085
v -0.247438 0.372001 1.038067
v -0.245880 0.372068 1.038062
v -0.244322 0.372001 1.038067
v -0.242824 0.371805 1.038085
v -0.241443 0.371486 1.038112
v -0.240233 0.371056 1.038150
v -0.239240 0.370533 1.038195
v -0.238502 0.369936 1.038248
v -0.238048 0.369288 1.038304
v -0.237894 0.368614 1.038363
v -0.238048 0.367941 1.038422
v -0.238502 0.367293 1.038478
v -0.239240 0.366696 1.038530
v -0.240233 0.366173 1.038576
v -0.241443 0.365743 1.038614
v -0.242824 0.365424 1.038641
v -0.244322 0.365228 1.038658
v -0.245880 0.365161 1.038664
v -0.247438 0.365228 1.038658
v -0.248936 0.365424 1.038641
v -0.250316 0.365743 1.038614
v -0.251526 0.366173 1.038576
v -0.252519 0.366696 1.038530
v -0.253258 0.367293 1.038478
v -0.253712 0.367941 1.038422
v -0.419367 0.222221 1.038597
v -0.419367 0.222221 1.079286
v -0.235388 0.221939 1.036467
v -0.235388 0.502694 1.081785
v -0.235388 0.502694 1.036467
v -0.235388 0.221939 1.036467
v -0.229732 0.230824 1.036467
v -0.235388 0.502694 1.036467
v -0.229732 0.487285 1.036467
v -0.229732 0.487285 1.079806
v -0.053305 0.221939 1.036467
v -0.053305 0.502694 1.081785
v -0.053305 0.221939 1.036467
v -0.059174 0.487285 1.036467
v -0.059174 0.487285 1.079806
v -0.053305 0.502694 1.036467
v -0.059174 0.230824 1.036467
v -0.053305 0.502694 1.036467
v -0.420822 0.479537 1.081785
v 0.128777 0.479537 1.036467
v 0.128777 0.479537 1.081785
v -0.420822 0.479537 1.036467
v 0.128777 0.479537 1.036467
v 0.111384 0.466132 1.036467
v -0.420822 0.479537 1.036467
v -0.403428 0.466132 1.036467
v 0.111384 0.466132 1.079806
v -0.403428 0.466132 1.079806
v -0.044618 0.227927 1.071612
v -0.050404 0.481895 1.066840
v -0.050404 0.235550 1.066840
v -0.044618 0.489517 1.071612
v -0.050404 0.235550 1.043362
v -0.044618 0.227927 1.044592
v -0.050404 0.481895 1.043362
v -0.044618 0.489517 1.044592
v -0.241942 0.227927 1.071612
v -0.236166 0.481895 1.066840
v -0.241942 0.227927 1.044592
v -0.236166 0.481895 1.043362
v -0.236166 0.235550 1.066840
v -0.241942 0.489517 1.071612
v -0.236166 0.235550 1.043362
v -0.241942 0.489517 1.044592
v -0.398026 0.488550 1.071612
v -0.383105 0.480984 1.066840
v 0.111296 0.488550 1.071612
v 0.096374 0.480984 1.066840
v -0.383105 0.480984 1.043362
v -0.398026 0.488550 1.044592
v 0.096374 0.480984 1.043362
v 0.114286 0.488550 1.044592
v -0.383105 0.239306 1.066840
v 0.111296 0.231916 1.071612
v -0.383105 0.239306 1.043362
v 0.114286 0.231916 1.044592
v -0.398026 0.231916 1.071612
v 0.096374 0.239306 1.066840
v -0.398026 0.231916 1.044592
v 0.096374 0.239306 1.043362
v -0.419367 0.479820 1.038597
v -0.419367 0.479820 1.079286
v 0.132087 0.231064 1.066804
v 0.132087 0.500819 1.066804
v -0.418593 0.231064 1.066804
v -0.418593 0.500819 1.066804
v 0.132087 0.221179 1.081211
v 0.132087 0.500819 1.081211
v -0.418593 0.222897 1.081211
v -0.418593 0.500819 1.081211
v -0.231641 0.231064 1.066804
v -0.231641 0.500819 1.066804
v -0.231641 0.223634 1.081211
v -0.231641 0.500819 1.081211
v -0.049777 0.231064 1.066804
v -0.049777 0.500819 1.081211
v -0.049777 0.500819 1.066804
v -0.049777 0.221893 1.081211
v 0.132087 0.479610 1.066804
v -0.418593 0.479610 1.066804
v -0.418593 0.476279 1.081211
v 0.132087 0.479610 1.081211
v -0.231641 0.476279 1.081211
v -0.231641 0.479610 1.066804
v -0.049777 0.479610 1.066804
v -0.049777 0.476537 1.081211
v -0.418593 0.236511 1.066804
v -0.418593 0.236674 1.081211
v 0.132087 0.236511 1.081211
v -0.231641 0.236674 1.081211
v -0.231641 0.236511 1.066804
v -0.049777 0.236511 1.066804
v -0.049777 0.236511 1.081211
v 0.132087 0.236511 1.066804
v -0.050975 0.229273 1.047487
v -0.050969 0.229280 1.076557
v -0.050975 0.482935 1.047356
v -0.050969 0.482942 1.076427
v -0.055580 0.229273 1.049107
v -0.055574 0.229280 1.079920
v -0.055580 0.482935 1.048969
v -0.055574 0.482942 1.079782
v -0.219720 0.234978 1.076961
v -0.224611 0.234995 1.063450
v -0.217280 0.481050 1.077031
v -0.222171 0.481067 1.063520
v -0.269147 0.480262 1.069126
v -0.233234 0.480150 1.057526
v -0.235644 0.237055 1.057458
v -0.271558 0.237167 1.069057
v -0.230170 0.229835 1.048076
v -0.227610 0.483493 1.048271
v -0.219779 0.229793 1.073970
v -0.230422 0.229837 1.044574
v -0.217217 0.483450 1.074173
v -0.227859 0.483494 1.044777
v -0.229185 0.482973 1.077683
v -0.214794 0.482918 1.074379
v -0.237985 0.482973 1.048629
v -0.223594 0.482918 1.045325
v -0.230550 0.231069 1.077992
v -0.216158 0.231014 1.074687
v -0.239350 0.231069 1.048938
v -0.224959 0.231015 1.045633
v -0.232772 0.486470 1.072691
v -0.232772 0.235957 1.076336
v -0.213863 0.486470 1.077408
v -0.213862 0.245577 1.077408
v -0.232772 0.482573 1.040156
v -0.232772 0.235957 1.043801
v -0.213863 0.482573 1.052015
v -0.213862 0.245577 1.052015
v -0.388276 0.475474 1.049924
v -0.388276 0.490995 1.061809
v -0.251230 0.475474 1.049924
v -0.251230 0.490995 1.061809
v -0.388276 0.475431 1.049922
v -0.388276 0.489762 1.063311
v -0.251230 0.475431 1.049922
v -0.251230 0.489762 1.063311
v -0.387941 0.460458 1.061722
v -0.380030 0.448970 1.074753
v -0.387941 0.230876 1.060221
v -0.252541 0.460458 1.061722
v -0.260303 0.448970 1.074753
v -0.252541 0.230876 1.060221
v -0.387360 0.439680 1.052328
v -0.387360 0.424887 1.064212
v -0.250314 0.439680 1.052328
v -0.250314 0.424887 1.064212
v -0.387360 0.439637 1.052325
v -0.387360 0.453968 1.065714
v -0.250314 0.439637 1.052325
v -0.250314 0.453968 1.065714
v -0.387306 0.400600 1.050851
v -0.387306 0.385807 1.062735
v -0.250260 0.400600 1.050851
v -0.250260 0.385807 1.062735
v -0.387306 0.400557 1.050848
v -0.387306 0.414888 1.064237
v -0.250260 0.400557 1.050848
v -0.250260 0.414888 1.064237
v -0.387010 0.361241 1.048782
v -0.387010 0.346448 1.060667
v -0.249964 0.361241 1.048782
v -0.249964 0.346448 1.060667
v -0.387010 0.361198 1.048780
v -0.387010 0.375529 1.062168
v -0.249964 0.361198 1.048780
v -0.249964 0.375529 1.062168
v -0.385205 0.323973 1.047613
v -0.385205 0.309179 1.059497
v -0.248159 0.323973 1.047613
v -0.248159 0.309179 1.059497
v -0.385205 0.323930 1.047610
v -0.385205 0.338260 1.060999
v -0.248159 0.323930 1.047610
v -0.248159 0.338260 1.060999
v -0.385437 0.285094 1.047623
v -0.385437 0.270301 1.059508
v -0.248391 0.285094 1.047623
v -0.248391 0.270301 1.059508
v -0.385437 0.285051 1.047621
v -0.385437 0.299382 1.061009
v -0.248391 0.285051 1.047621
v -0.248391 0.299382 1.061009
v -0.384703 0.249524 1.046545
v -0.384703 0.236396 1.058430
v -0.247657 0.249524 1.046545
v -0.247657 0.236396 1.058430
v -0.384703 0.249485 1.046543
v -0.384703 0.262203 1.059932
v -0.247657 0.249485 1.046543
v -0.247657 0.262203 1.059932
v -0.216159 0.231234 1.064253
v -0.398023 0.231234 1.064253
v -0.398023 0.236682 1.064253
v -0.216159 0.236682 1.064253
v -0.418593 0.231064 1.066804
v -0.231641 0.231064 1.066804
v -0.422896 0.222714 1.060987
v -0.235944 0.222714 1.060987
v -1.533533 0.493514 1.081785
v -1.533533 0.172902 1.081785
v -1.069513 0.493514 1.081785
v -1.069513 0.172902 1.081785
v -1.533533 0.172902 1.036467
v -1.069513 0.172902 1.036467
v -1.069513 0.493514 1.036467
v -1.533533 0.493514 1.036467
v -1.518848 0.475918 1.036467
v -1.533533 0.493514 1.036467
v -1.518848 0.183049 1.036467
v -1.533533 0.172902 1.036467
v -1.069513 0.493514 1.036467
v -1.084198 0.475918 1.036467
v -1.069513 0.172902 1.036467
v -1.084198 0.183049 1.036467
v -1.084198 0.183049 1.079806
v -1.518848 0.183049 1.079806
v -1.084198 0.475918 1.079806
v -1.518848 0.475918 1.079806
v -1.514287 0.478467 1.071612
v -1.096870 0.469762 1.066840
v -1.514287 0.179741 1.071612
v -1.096870 0.188446 1.066840
v -1.084272 0.478467 1.071612
v -1.501689 0.188446 1.066840
v -1.084272 0.179741 1.071612
v -1.501689 0.469762 1.066840
v -1.501689 0.469762 1.043362
v -1.514287 0.478467 1.044592
v -1.501689 0.188446 1.043362
v -1.514287 0.179741 1.044592
v -1.096870 0.469762 1.043362
v -1.084272 0.478467 1.044592
v -1.096870 0.188446 1.043362
v -1.084272 0.179741 1.044592
v -1.221050 0.468210 1.060460
v -1.221050 0.468210 1.046297
v -1.221050 0.187201 1.060461
v -1.221050 0.187201 1.046299
v -1.208126 0.468210 1.060460
v -1.208126 0.468210 1.046297
v -1.208126 0.187201 1.060461
v -1.208126 0.187201 1.046299
v -1.392425 0.468205 1.059383
v -1.392425 0.468205 1.045220
v -1.393543 0.187197 1.059384
v -1.393543 0.187197 1.045222
v -1.379500 0.468175 1.059383
v -1.379500 0.468175 1.045220
v -1.380619 0.187167 1.059384
v -1.380618 0.187167 1.045222
v -1.099947 0.451426 1.067632
v -1.099947 0.470233 1.054523
v -1.206021 0.451426 1.067632
v -1.206021 0.470233 1.054523
v -1.099947 0.449339 1.063389
v -1.099947 0.462203 1.045918
v -1.206021 0.449339 1.063389
v -1.206021 0.462203 1.045918
v -1.211883 0.462236 1.052476
v -1.211883 0.445342 1.064361
v -1.093820 0.462236 1.052476
v -1.093820 0.445342 1.064361
v -1.211883 0.462186 1.052474
v -1.211883 0.478552 1.065862
v -1.093820 0.462186 1.052474
v -1.093820 0.478552 1.065862
v -1.205073 0.442863 1.072276
v -1.211600 0.445087 1.064273
v -1.205073 0.431969 1.077304
v -1.211600 0.434193 1.062773
v -1.103989 0.442863 1.078805
v -1.094926 0.445087 1.064273
v -1.103989 0.431969 1.077304
v -1.094926 0.434193 1.062773
v -1.211109 0.421360 1.054879
v -1.211109 0.404467 1.066764
v -1.093046 0.421360 1.054879
v -1.093046 0.404467 1.066764
v -1.211109 0.421311 1.054877
v -1.211109 0.437677 1.068265
v -1.093046 0.421311 1.054877
v -1.093046 0.437677 1.068265
v -1.211063 0.376732 1.053402
v -1.211063 0.359839 1.065287
v -1.093000 0.376732 1.053402
v -1.093000 0.359839 1.065287
v -1.211063 0.376683 1.053400
v -1.211063 0.393048 1.066788
v -1.093000 0.376683 1.053400
v -1.093000 0.393048 1.066788
v -1.210813 0.331786 1.051334
v -1.210813 0.314892 1.063218
v -1.092750 0.331786 1.051334
v -1.092750 0.314892 1.063218
v -1.210813 0.331737 1.051331
v -1.210813 0.348102 1.064720
v -1.092750 0.331737 1.051331
v -1.092750 0.348102 1.064720
v -1.209290 0.289227 1.050164
v -1.209290 0.272333 1.062049
v -1.091227 0.289227 1.050164
v -1.091227 0.272333 1.062049
v -1.209290 0.289177 1.050162
v -1.209290 0.305543 1.063550
v -1.091227 0.289177 1.050162
v -1.091227 0.305543 1.063550
v -1.209485 0.244829 1.050175
v -1.209485 0.227935 1.062060
v -1.091422 0.244829 1.050175
v -1.091422 0.227935 1.062060
v -1.209485 0.244780 1.050172
v -1.209485 0.261145 1.063561
v -1.091422 0.244780 1.050172
v -1.091422 0.261145 1.063561
v -1.208866 0.204209 1.049097
v -1.208866 0.189217 1.060982
v -1.090803 0.204209 1.049097
v -1.090803 0.189217 1.060982
v -1.208866 0.204165 1.049095
v -1.208866 0.218688 1.062483
v -1.090803 0.204165 1.049095
v -1.090803 0.218688 1.062483
v -1.499252 0.451891 1.053877
v -1.499252 0.435107 1.065762
v -1.396778 0.451891 1.053877
v -1.396778 0.435107 1.065762
v -1.499252 0.451843 1.053875
v -1.499252 0.468102 1.067263
v -1.396778 0.451843 1.053875
v -1.396778 0.468102 1.067263
v -1.498969 0.434854 1.065675
v -1.499459 0.421583 1.074064
v -1.498969 0.424030 1.064174
v -1.397885 0.434854 1.065675
v -1.398374 0.421583 1.074064
v -1.397885 0.424030 1.064174
v -1.498478 0.411280 1.056280
v -1.498478 0.394495 1.068165
v -1.396004 0.411280 1.056280
v -1.396004 0.394495 1.068165
v -1.498478 0.411231 1.056278
v -1.498478 0.427491 1.069667
v -1.396004 0.411231 1.056278
v -1.396004 0.427491 1.069667
v -1.498484 0.394242 1.068078
v -1.498484 0.383418 1.066577
v -1.397400 0.394242 1.068078
v -1.397400 0.383418 1.066577
v -1.498433 0.366939 1.054803
v -1.498433 0.350155 1.066688
v -1.395959 0.366939 1.054803
v -1.395959 0.350155 1.066688
v -1.498433 0.366890 1.054801
v -1.498433 0.383150 1.068190
v -1.395959 0.366890 1.054801
v -1.395959 0.383150 1.068190
v -1.497071 0.349902 1.066601
v -1.497071 0.339078 1.065100
v -1.395987 0.349902 1.066601
v -1.395987 0.339078 1.065100
v -1.498182 0.322283 1.052735
v -1.498182 0.305498 1.064620
v -1.395709 0.322283 1.052735
v -1.395709 0.305498 1.064620
v -1.498182 0.322234 1.052733
v -1.498182 0.338494 1.066121
v -1.395709 0.322234 1.052733
v -1.395709 0.338494 1.066121
v -1.496788 0.305245 1.064532
v -1.496788 0.294421 1.063032
v -1.395704 0.305245 1.064532
v -1.395704 0.294421 1.063032
v -1.496659 0.279998 1.051565
v -1.496659 0.263213 1.063450
v -1.394185 0.279998 1.051565
v -1.394185 0.263213 1.063450
v -1.496659 0.279949 1.051563
v -1.496659 0.296209 1.064952
v -1.394185 0.279949 1.051563
v -1.394185 0.296209 1.064952
v -1.495261 0.262960 1.063363
v -1.495261 0.252137 1.061862
v -1.394177 0.262960 1.063363
v -1.394177 0.252137 1.061862
v -1.496854 0.235887 1.051576
v -1.496854 0.219102 1.063461
v -1.394381 0.235887 1.051576
v -1.394381 0.219102 1.063461
v -1.496854 0.235838 1.051574
v -1.496854 0.252098 1.064962
v -1.394381 0.235838 1.051574
v -1.394381 0.252098 1.064962
v -1.495456 0.218849 1.063374
v -1.495456 0.208025 1.061873
v -1.394372 0.218849 1.063373
v -1.394372 0.208025 1.061873
v -1.496235 0.195485 1.050496
v -1.496235 0.209914 1.063884
v -1.393761 0.195485 1.050496
v -1.393761 0.209914 1.063884
v -1.221923 0.352178 1.057535
v -1.221923 0.352178 1.044676
v -1.221923 0.331779 1.057535
v -1.221923 0.331778 1.044676
v -1.209280 0.352178 1.057535
v -1.209280 0.352178 1.044676
v -1.209280 0.331779 1.057535
v -1.209280 0.331778 1.044676
v -1.392103 0.350162 1.056167
v -1.392103 0.350162 1.043308
v -1.392103 0.329762 1.056167
v -1.392103 0.329762 1.043308
v -1.379461 0.350162 1.056167
v -1.379461 0.350162 1.043308
v -1.379461 0.329762 1.056167
v -1.379461 0.329762 1.043308
v -1.223927 0.342952 1.037312
v -1.223797 0.343722 1.037253
v -1.223414 0.344461 1.037196
v -1.222791 0.345143 1.037144
v -1.221952 0.345741 1.037099
v -1.220930 0.346231 1.037061
v -1.219765 0.346595 1.037033
v -1.218500 0.346820 1.037016
v -1.217185 0.346896 1.037010
v -1.215869 0.346820 1.037016
v -1.214605 0.346595 1.037033
v -1.213439 0.346231 1.037061
v -1.212417 0.345741 1.037099
v -1.211579 0.345143 1.037144
v -1.210956 0.344461 1.047666
v -1.210572 0.343722 1.047722
v -1.210443 0.342952 1.037312
v -1.210572 0.342183 1.037370
v -1.210956 0.341443 1.037427
v -1.211579 0.340761 1.037479
v -1.212417 0.340164 1.037525
v -1.213439 0.339673 1.037562
v -1.214605 0.339309 1.037590
v -1.215869 0.339085 1.037607
v -1.217185 0.339009 1.037613
v -1.218500 0.339085 1.037607
v -1.219765 0.339309 1.037590
v -1.220930 0.339673 1.037562
v -1.221952 0.340164 1.037525
v -1.222791 0.340761 1.037479
v -1.223414 0.341443 1.037427
v -1.223797 0.342183 1.037370
v -1.216022 0.342955 1.055823
v -1.392574 0.340400 1.038363
v -1.392444 0.341170 1.038304
v -1.392061 0.341909 1.038248
v -1.391438 0.342591 1.038195
v -1.390599 0.343189 1.038150
v -1.389577 0.343679 1.038112
v -1.388412 0.344044 1.038085
v -1.387147 0.344268 1.038067
v -1.385832 0.344344 1.038062
v -1.384516 0.344268 1.038067
v -1.383252 0.344044 1.038085
v -1.382086 0.343679 1.038112
v -1.381064 0.343189 1.038150
v -1.380226 0.342591 1.038195
v -1.379603 0.341909 1.038248
v -1.379219 0.341170 1.038304
v -1.379090 0.340400 1.038363
v -1.379219 0.339631 1.038422
v -1.379603 0.338891 1.038478
v -1.380226 0.338210 1.038530
v -1.381064 0.337612 1.038576
v -1.382086 0.337122 1.038614
v -1.383252 0.336757 1.038641
v -1.384516 0.336533 1.038658
v -1.385832 0.336457 1.038664
v -1.387147 0.336533 1.038658
v -1.388412 0.336757 1.038641
v -1.389577 0.337122 1.038614
v -1.390599 0.337612 1.038576
v -1.391438 0.338210 1.038530
v -1.392061 0.338891 1.038478
v -1.392444 0.339631 1.038422
v -1.532305 0.173225 1.038597
v -1.532305 0.173225 1.079286
v -1.376974 0.172902 1.036467
v -1.376974 0.493514 1.081785
v -1.376974 0.493514 1.036467
v -1.376974 0.172902 1.036467
v -1.372198 0.183049 1.036467
v -1.376974 0.493514 1.036467
v -1.372198 0.475918 1.036467
v -1.372198 0.475918 1.079806
v -1.223243 0.172902 1.036467
v -1.223243 0.493514 1.081785
v -1.223243 0.172902 1.036467
v -1.228198 0.475918 1.036467
v -1.228198 0.475918 1.079806
v -1.223243 0.493514 1.036467
v -1.228198 0.183049 1.036467
v -1.223243 0.493514 1.036467
v -1.533533 0.467070 1.081785
v -1.069513 0.467070 1.036467
v -1.069513 0.467070 1.081785
v -1.533533 0.467070 1.036467
v -1.069513 0.467070 1.036467
v -1.084198 0.451762 1.036467
v -1.533533 0.467070 1.036467
v -1.518848 0.451762 1.036467
v -1.084198 0.451762 1.079806
v -1.518848 0.451762 1.079806
v -1.215909 0.179741 1.071612
v -1.220794 0.469762 1.066840
v -1.220794 0.188446 1.066840
v -1.215909 0.478467 1.071612
v -1.220794 0.188446 1.043362
v -1.215909 0.179741 1.044592
v -1.220794 0.469762 1.043362
v -1.215909 0.478467 1.044592
v -1.382507 0.179741 1.071612
v -1.377631 0.469762 1.066840
v -1.382507 0.179741 1.044592
v -1.377631 0.469762 1.043362
v -1.377631 0.188446 1.066840
v -1.382507 0.478467 1.071612
v -1.377631 0.188446 1.043362
v -1.382507 0.478467 1.044592
v -1.514287 0.477362 1.071612
v -1.501689 0.468722 1.066840
v -1.084272 0.477362 1.071612
v -1.096870 0.468722 1.066840
v -1.501689 0.468722 1.043362
v -1.514287 0.477362 1.044592
v -1.096870 0.468722 1.043362
v -1.084272 0.477362 1.044592
v -1.501689 0.192735 1.066840
v -1.084272 0.184296 1.071612
v -1.501689 0.192735 1.043362
v -1.084272 0.184296 1.044592
v -1.514287 0.184296 1.071612
v -1.096870 0.192735 1.066840
v -1.514287 0.184296 1.044592
v -1.096870 0.192735 1.043362
v -1.532305 0.467393 1.038597
v -1.532305 0.467393 1.079286
v -1.066719 0.183322 1.066804
v -1.066719 0.491373 1.066804
v -1.531652 0.183322 1.066804
v -1.531652 0.491373 1.066804
v -1.066719 0.172035 1.081211
v -1.066719 0.491373 1.081211
v -1.531652 0.173996 1.081211
v -1.531652 0.491373 1.081211
v -1.373810 0.183322 1.066804
v -1.373810 0.491373 1.066804
v -1.373810 0.174838 1.081211
v -1.373810 0.491373 1.081211
v -1.220265 0.183322 1.066804
v -1.220265 0.491373 1.081211
v -1.220265 0.491373 1.066804
v -1.220265 0.172850 1.081211
v -1.066719 0.467153 1.066804
v -1.531652 0.467153 1.066804
v -1.531652 0.463349 1.081211
v -1.066719 0.467153 1.081211
v -1.373810 0.463349 1.081211
v -1.373810 0.467153 1.066804
v -1.220265 0.467153 1.066804
v -1.220265 0.463643 1.081211
v -1.531652 0.189544 1.066804
v -1.531652 0.189729 1.081211
v -1.066719 0.189544 1.081211
v -1.373810 0.189729 1.081211
v -1.373810 0.187150 1.066804
v -1.220265 0.187150 1.066804
v -1.220265 0.189544 1.081211
v -1.066719 0.189544 1.066804
v -1.221276 0.181278 1.047487
v -1.221271 0.181286 1.076557
v -1.221276 0.470950 1.047356
v -1.221271 0.470958 1.076427
v -1.225164 0.181278 1.049107
v -1.225159 0.181286 1.079920
v -1.225164 0.470950 1.048969
v -1.225159 0.470958 1.079782
v -1.363746 0.187793 1.076961
v -1.367875 0.187813 1.063450
v -1.361685 0.468798 1.077031
v -1.365814 0.468817 1.063520
v -1.398149 0.467898 1.069126
v -1.374022 0.467770 1.057526
v -1.376057 0.190165 1.057458
v -1.400184 0.190293 1.069057
v -1.373559 0.181872 1.075809
v -1.372568 0.181920 1.048076
v -1.371398 0.471539 1.076004
v -1.370406 0.471587 1.048271
v -1.363795 0.181871 1.073970
v -1.372781 0.181921 1.044574
v -1.361632 0.471538 1.074173
v -1.370617 0.471588 1.044777
v -1.371737 0.470993 1.077683
v -1.359586 0.470931 1.074379
v -1.379166 0.470993 1.048629
v -1.367016 0.470931 1.045325
v -1.372889 0.183329 1.077992
v -1.360738 0.183266 1.074687
v -1.380319 0.183329 1.048938
v -1.368168 0.183266 1.045633
v -1.373791 0.474987 1.072691
v -1.373791 0.181815 1.072691
v -1.358800 0.474987 1.077408
v -1.358800 0.199896 1.077408
v -1.373791 0.474987 1.048189
v -1.373791 0.183714 1.048189
v -1.358800 0.474987 1.052015
v -1.358800 0.199896 1.052015
v -1.507660 0.462430 1.049924
v -1.507660 0.445537 1.061809
v -1.390114 0.462430 1.049924
v -1.390114 0.445537 1.061809
v -1.507660 0.462381 1.049922
v -1.507660 0.478746 1.063311
v -1.390114 0.462381 1.049922
v -1.390114 0.478746 1.063311
v -1.499093 0.432164 1.074753
v -1.507377 0.434388 1.060221
v -1.398009 0.432164 1.074753
v -1.391220 0.434388 1.060221
v -1.506886 0.421555 1.052328
v -1.506886 0.404661 1.064212
v -1.389340 0.421555 1.052328
v -1.389340 0.404661 1.064212
v -1.506886 0.421506 1.052325
v -1.506886 0.437871 1.065714
v -1.389340 0.421506 1.052325
v -1.389340 0.437871 1.065714
v -1.506841 0.376927 1.050851
v -1.506841 0.360033 1.062735
v -1.389294 0.376927 1.050851
v -1.389294 0.360033 1.062735
v -1.506841 0.376878 1.050848
v -1.506841 0.393243 1.064237
v -1.389294 0.376878 1.050848
v -1.389294 0.393243 1.064237
v -1.506591 0.331980 1.048782
v -1.506591 0.315087 1.060667
v -1.389044 0.331980 1.048782
v -1.389044 0.315087 1.060667
v -1.506591 0.331931 1.048780
v -1.506591 0.348297 1.062168
v -1.389044 0.331931 1.048780
v -1.389044 0.348297 1.062168
v -1.505067 0.289421 1.047613
v -1.505067 0.272528 1.059497
v -1.387520 0.289421 1.047613
v -1.387520 0.272528 1.059497
v -1.505067 0.289372 1.047610
v -1.505067 0.305737 1.060999
v -1.387520 0.289372 1.047610
v -1.387520 0.305737 1.060999
v -1.505262 0.245023 1.047623
v -1.505262 0.228130 1.059508
v -1.387716 0.245023 1.047623
v -1.387716 0.228130 1.059508
v -1.505262 0.244974 1.047621
v -1.505262 0.261340 1.061009
v -1.387716 0.244974 1.047621
v -1.387716 0.261340 1.061009
v -1.504643 0.204403 1.046545
v -1.504643 0.189412 1.058430
v -1.387097 0.204403 1.046545
v -1.387097 0.189412 1.058430
v -1.504643 0.204360 1.046543
v -1.504643 0.218882 1.059932
v -1.387097 0.204360 1.046543
v -1.387097 0.218882 1.059932
v -1.374619 0.183517 1.064253
v -1.514285 0.183517 1.064253
v -1.514285 0.189738 1.064253
v -1.374619 0.189738 1.064253
v -1.531652 0.183322 1.066804
v -1.373810 0.183322 1.066804
v -1.535284 0.173787 1.060987
v -1.377443 0.173787 1.060987
v -0.405897 0.227927 1.044592
v -0.405897 0.488550 1.044592
v -0.405897 0.231916 1.044592
v -0.035400 0.480535 1.074058
v -0.035400 0.234460 1.074059
v -0.253689 0.480531 1.074223
v -0.255013 0.234456 1.074224
v 0.111384 0.230824 1.051020
v 0.111296 0.227927 1.059145
v -0.059174 0.230824 1.051020
v -0.044618 0.227927 1.059145
v -0.229732 0.230824 1.048370
v -0.059174 0.230824 1.048370
v -0.403428 0.230824 1.051479
v -0.229732 0.230824 1.051479
v -1.084198 0.183049 1.053326
v -1.228198 0.183049 1.053326
v -1.372198 0.183049 1.054461
v -1.228198 0.183049 1.054461
v -1.518848 0.183049 1.063643
v -1.372198 0.183049 1.063643
v -1.524252 0.477362 1.045010
v -1.524252 0.184296 1.045010
v -1.208126 0.468210 1.075443
v -1.208126 0.187201 1.075444
vn -0.0000 -1.0000 -0.0000
vn -0.0000 1.0000 -0.0000
vn -1.0000 -0.0000 -0.0000
vn -0.0000 -0.0000 1.0000
vn 1.0000 -0.0000 -0.0000
vn -0.0000 -0.0000 -1.0000
vn -1.0000 -0.0000 0.0001
vn 1.0000 -0.0000 -0.0001
vn 0.0161 -0.0000 0.9999
vn 0.0160 -0.0000 -0.9999
vn -0.0003 -0.0000 -1.0000
vn 0.0005 -0.0000 1.0000
vn 1.0000 -0.0000 0.0001
vn -1.0000 -0.0000 0.0011
vn -0.0000 -0.2487 -0.9686
vn -0.0000 -0.2403 0.9707
vn -0.0000 -0.2380 -0.9713
vn -0.0000 -0.7991 0.6012
vn 1.0000 -0.0000 -0.0008
vn -0.7918 -0.6107 0.0007
vn -0.0000 -0.7991 -0.6012
vn 0.5430 0.8392 0.0300
vn -0.0822 -0.0000 -0.9966
vn -0.0000 -0.1593 -0.9872
vn 0.0430 0.0685 -0.9967
vn -0.0000 0.1594 -0.9872
vn -0.0000 0.9772 0.2125
vn -1.0000 0.0053 -0.0000
vn -0.0000 -0.0517 0.9987
vn -0.0000 -0.0516 0.9987
vn -0.0000 -0.6263 -0.7796
vn -0.0000 0.6827 -0.7307
vn -0.8846 0.0061 0.4664
vn -0.0000 -0.0653 0.9979
vn 0.8233 -0.0063 0.5676
vn -0.0239 0.3567 0.9339
vn -0.0268 0.1818 0.9830
vn -0.0000 0.0057 -1.0000
vn -0.0000 -0.6711 -0.7413
vn -0.0000 0.7250 -0.6887
vn -0.8672 0.2359 0.4386
vn -0.7388 0.5521 0.3864
vn -0.5807 0.7461 0.3258
vn -0.4381 0.8555 0.2758
vn -0.3182 0.9174 0.2389
vn -0.2160 0.9530 0.2127
vn -0.1254 0.9728 0.1946
vn -0.0411 0.9822 0.1832
vn 0.0412 0.9833 0.1774
vn 0.1261 0.9761 0.1769
vn 0.2179 0.9588 0.1822
vn 0.3227 0.9263 0.1943
vn 0.4475 0.8680 0.2151
vn -0.1289 0.9895 0.0652
vn 0.6531 0.5071 0.5625
vn 0.1851 -0.9805 0.0662
vn 0.9260 -0.1822 0.3306
vn 0.7938 -0.5307 0.2971
vn 0.6189 -0.7428 0.2553
vn 0.4624 -0.8583 0.2225
vn 0.3331 -0.9213 0.2008
vn 0.2248 -0.9561 0.1881
vn 0.1299 -0.9746 0.1826
vn 0.0425 -0.9822 0.1831
vn -0.0425 -0.9810 0.1894
vn -0.1296 -0.9709 0.2015
vn -0.2239 -0.9493 0.2207
vn -0.3307 -0.9104 0.2485
vn -0.4567 -0.8418 0.2878
vn -0.6059 -0.7192 0.3401
vn 0.1542 0.0220 -0.9878
vn -0.7661 -0.5025 0.4007
vn -0.8806 -0.1618 0.4454
vn -0.0000 -0.0869 -0.9962
vn -0.0000 0.1593 -0.9872
vn -0.0000 -0.1594 -0.9872
vn 0.0685 -0.0000 -0.9976
vn 0.9939 -0.0000 0.1100
vn 0.9351 -0.3505 0.0517
vn 0.0636 -0.0245 -0.9977
vn 0.0016 0.8341 0.5516
vn -0.0017 0.8794 0.4760
vn 0.0041 0.8665 0.4992
vn -0.3073 0.0033 -0.9516
vn -0.9894 -0.0000 0.1451
vn -0.0000 -0.6080 0.7940
vn -0.0000 -0.0665 0.9978
vn -0.0000 0.0065 -1.0000
vn -0.0000 -0.5716 0.8205
vn -0.0972 -0.0000 -0.9953
vn -0.0000 -0.1400 -0.9902
vn 0.0972 -0.0000 -0.9953
vn -0.0000 0.1400 -0.9902
vn -1.0000 0.0040 -0.0000
vn -0.0000 -0.0444 0.9990
vn -0.0000 -0.0452 0.9990
vn -0.0000 -0.5754 -0.8179
vn -0.0000 0.6332 -0.7740
vn -0.8551 0.0829 0.5117
vn -0.0000 -0.9885 -0.1513
vn 0.8512 -0.0716 0.5199
vn -0.0058 0.9812 0.1930
vn -0.0319 0.1598 0.9866
vn -0.0000 0.1365 -0.9906
vn -0.0000 -0.0460 0.9989
vn -0.0000 -0.6212 -0.7836
vn -0.0000 0.6778 -0.7352
vn -0.9043 0.1818 0.3862
vn -0.8165 0.4510 0.3605
vn -0.6856 0.6515 0.3248
vn -0.5450 0.7868 0.2897
vn -0.4101 0.8742 0.2600
vn -0.2847 0.9289 0.2367
vn -0.1675 0.9611 0.2196
vn -0.0554 0.9766 0.2080
vn 0.0555 0.9779 0.2014
vn 0.1685 0.9653 0.1997
vn 0.2877 0.9359 0.2031
vn 0.4166 0.8841 0.2117
vn 0.5572 0.7990 0.2262
vn -0.1731 0.9821 0.0739
vn 0.7336 0.4212 0.5334
vn 0.2466 -0.9662 0.0745
vn 0.9483 -0.1378 0.2858
vn 0.8625 -0.4265 0.2725
vn 0.7238 -0.6423 0.2521
vn 0.5729 -0.7859 0.2327
vn 0.4288 -0.8766 0.2182
vn 0.2964 -0.9318 0.2094
vn 0.1737 -0.9630 0.2060
vn 0.0571 -0.9765 0.2079
vn -0.0571 -0.9750 0.2149
vn -0.1731 -0.9583 0.2272
vn -0.2946 -0.9236 0.2452
vn -0.4248 -0.8643 0.2695
vn -0.5645 -0.7689 0.3002
vn -0.7080 -0.6215 0.3355
vn 0.1817 0.0191 -0.9832
vn -0.8362 -0.4054 0.3693
vn -0.9126 -0.1239 0.3897
vn -0.0000 -0.0762 -0.9971
vn 0.0021 0.7980 0.6027
vn -0.0023 0.8506 0.5258
vn 0.0054 0.8354 0.5496
vn -0.4333 0.0034 -0.9013
vn -0.0000 -0.5208 0.8537
vn -1.0000 0.0054 0.0003
vn -0.1483 -0.0069 -0.9889
vn 0.0004 1.0000 -0.0056
vn 0.0007 -0.9896 -0.1435
vn -0.0419 -0.0000 -0.9991
vn 0.1529 -0.0003 -0.9882
vn -0.9993 -0.0000 0.0378
vn 0.9252 -0.0033 -0.3795
vn 0.0006 0.9854 -0.1701
vn 0.0009 -0.9693 -0.2460
vn 0.9699 -0.0038 0.2434
vt 0.000000 0.000000
vt 0.000000 1.000000
vt 1.000000 1.000000
vt 1.000000 0.000000
vt 1.000000 0.210000
vt 1.000000 0.210000
vt 1.000000 0.210000
vt 1.000000 1.000000
vt 1.000000 0.463284
vt 1.000000 0.463284
vt 0.625000 0.667175
vt 0.625000 0.750000
vt 0.875000 0.750000
vt 0.875000 0.667175
vt 0.604380 0.750000
vt 0.604380 1.000000
vt 0.625000 1.000000
vt 0.625000 0.082825
vt 0.625000 0.000000
vt 0.625000 0.082825
vt 0.604380 0.250000
vt 0.625000 0.250000
vt 0.625000 0.500000
vt 0.604380 0.500000
vt 0.604380 0.000000
vt 0.375000 0.000000
vt 0.605258 0.000000
vt 0.375000 0.165650
vt 0.375000 0.250000
vt 0.375000 0.165650
vt 0.375000 0.082825
vt 0.382912 0.085495
vt 0.382912 0.007912
vt 0.597773 0.007912
vt 0.617088 0.007912
vt 0.597774 0.242088
vt 0.382912 0.242088
vt 0.625000 0.165650
vt 0.617088 0.163077
vt 0.617088 0.242088
vt 0.597773 0.007912
vt 0.597773 0.242088
vt 0.795551 0.507285
vt 0.867676 0.507285
vt 0.795551 0.507285
vt 0.375000 0.749075
vt 0.614111 0.749076
vt 0.614111 0.750000
vt 0.375000 0.750000
vt 0.375000 0.246188
vt 0.614111 0.246188
vt 0.614111 0.250000
vt 0.375000 0.423470
vt 0.614111 0.423470
vt 0.614111 0.500000
vt 0.375000 0.500000
vt 0.867676 0.510874
vt 0.875000 0.500000
vt 0.875000 0.503812
vt 0.704370 0.507285
vt 0.632324 0.507285
vt 0.701530 0.500000
vt 0.632324 0.741844
vt 0.632324 0.742715
vt 0.795551 0.742715
vt 0.867676 0.742715
vt 0.798386 0.750000
vt 0.375000 0.923386
vt 0.614111 0.923386
vt 0.614111 1.000000
vt 0.375000 1.000000
vt 0.632324 0.510874
vt 0.632324 0.510874
vt 0.867676 0.741845
vt 0.867676 0.741844
vt 0.704370 0.742715
vt 0.704370 0.742715
vt 0.125000 0.500000
vt 0.125000 0.750000
vt 0.750000 0.490000
vt 0.750000 0.250000
vt 0.796822 0.485388
vt 0.841844 0.471731
vt 0.883337 0.449553
vt 0.919706 0.419706
vt 0.949553 0.383337
vt 0.971731 0.341844
vt 0.985388 0.296822
vt 0.990000 0.250000
vt 0.985388 0.203178
vt 0.971731 0.158156
vt 0.949553 0.116663
vt 0.919706 0.080294
vt 0.883337 0.050447
vt 0.841844 0.028269
vt 0.796822 0.014612
vt 0.750000 0.010000
vt 0.703178 0.014612
vt 0.658156 0.028269
vt 0.616663 0.050447
vt 0.580294 0.080294
vt 0.550447 0.116663
vt 0.528269 0.158156
vt 0.514612 0.203178
vt 0.510000 0.250000
vt 0.514612 0.296822
vt 0.528269 0.341844
vt 0.550447 0.383337
vt 0.580294 0.419706
vt 0.616663 0.449553
vt 0.658156 0.471731
vt 0.250000 0.490000
vt 0.296822 0.485388
vt 0.341844 0.471731
vt 0.383337 0.449553
vt 0.419706 0.419706
vt 0.449553 0.383337
vt 0.471731 0.341844
vt 0.485388 0.296822
vt 0.490000 0.250000
vt 0.485388 0.203178
vt 0.471731 0.158156
vt 0.449553 0.116663
vt 0.419706 0.080294
vt 0.383337 0.050447
vt 0.341844 0.028269
vt 0.296822 0.014612
vt 0.250000 0.010000
vt 0.203178 0.014612
vt 0.158156 0.028269
vt 0.116663 0.050447
vt 0.080294 0.080294
vt 0.050447 0.116663
vt 0.028269 0.158156
vt 0.014612 0.203178
vt 0.010000 0.250000
vt 0.014612 0.296822
vt 0.028269 0.341844
vt 0.050447 0.383337
vt 0.080294 0.419706
vt 0.116663 0.449553
vt 0.158156 0.471731
vt 0.203178 0.485388
vt 0.703178 0.485388
vt 0.617088 0.085495
vt 0.617088 0.085495
vt 0.382912 0.163077
vt 0.625000 0.584350
vt 0.875000 0.584350
vt 0.614111 0.750000
vt 0.614111 0.826530
vt 0.375000 0.826530
vt 0.701530 0.750000
vt 0.798387 0.500000
vt 0.375000 0.326614
vt 0.614111 0.326613
vt 0.614111 0.250000
vt 0.867676 0.510874
vt 0.632324 0.741844
vt 0.614111 0.503812
vt 0.875000 0.749075
vt 0.614111 0.000000
vt 0.614111 0.000925
vt 0.375000 0.000925
vt 0.375000 0.503812
vt 0.614111 0.500000
vt 0.605344 0.165127
vt 0.625000 0.165127
vt 0.605344 0.250000
vt 0.605344 0.500000
vt 0.605344 0.667437
vt 0.605344 0.750000
vt 0.625000 0.667437
vt 0.605344 1.000000
vt 0.125000 0.667437
vt 0.375000 0.667437
vt 0.875000 0.667437
vt 0.875000 0.584873
vt 0.625000 0.584873
vt 0.375000 0.584873
vt 0.125000 0.584873
vt 0.605344 0.584873
vt 0.605344 0.082563
vt 0.625000 0.082563
vt 0.605344 0.000000
vt 0.380049 0.000000
vt 0.380049 0.082563
vt 0.380049 0.500000
vt 0.380049 0.584873
vt 0.380049 0.750000
vt 0.380049 1.000000
vt 0.380049 0.667437
vt 0.380049 0.250000
vt 0.380049 0.165127
vt 0.375000 0.165127
vt 0.375000 0.082563
s 0
usemtl Material.001
f 220/1/1 222/1/1 221/4/1 219/1/1
usemtl fora
f 628/11/2 336/12/2 340/13/2 632/14/2
f 637/15/5 636/16/5 340/17/5 336/12/5
f 634/18/2 346/19/2 340/19/2 632/20/2
f 638/21/5 341/22/5 334/23/5 635/24/5
f 639/25/2 348/26/2 339/26/2 636/27/2
f 622/28/2 345/29/2 338/29/2 619/30/2
f 629/31/6 633/32/6 349/33/6 348/26/6
f 639/25/6 640/34/6 347/35/6 346/19/6
f 641/21/6 642/36/6 344/37/6 345/29/6
f 624/38/6 625/39/6 342/40/6 343/22/6
f 641/21/2 343/22/2 341/22/2 638/21/2
f 640/34/3 643/41/3 352/35/3 347/35/3
f 625/39/1 626/39/1 353/40/1 342/40/1
f 642/36/5 644/42/5 351/37/5 344/37/5
f 659/43/2 364/44/2 359/44/2 657/45/2
f 663/46/22 668/47/22 367/48/22 358/49/22
f 673/50/3 675/51/3 365/52/3 356/29/3
f 645/53/1 650/54/1 369/55/1 360/56/1
f 671/57/23 364/44/23 365/58/23 675/59/23
f 649/60/24 368/61/24 369/23/24 650/62/24
f 667/63/25 366/64/25 367/48/25 668/47/25
f 656/65/26 362/66/26 363/13/26 660/67/26
f 658/68/2 660/69/2 363/70/2 354/71/2
f 676/72/3 368/61/3 357/61/3 674/73/3
f 665/74/5 362/66/5 361/66/5 662/75/5
f 651/76/1 366/64/1 355/64/1 646/77/1
f 370/26/3 371/19/3 373/22/3 372/29/3
f 372/29/1 373/22/1 377/23/1 376/56/1
f 376/56/5 377/23/5 375/12/5 374/49/5
f 374/49/27 375/12/27 371/17/27 370/71/27
f 372/78/4 376/56/4 374/49/4 370/79/4
f 377/23/6 373/58/6 371/13/6 375/12/6
f 378/26/28 379/19/28 381/22/28 380/29/28
f 745/49/5 741/71/5 742/17/5 746/12/5
f 393/26/5 392/19/5 396/22/5 397/29/5
f 390/29/29 394/22/29 396/23/29 392/56/29
f 395/56/30 391/23/30 393/12/30 397/49/30
f 395/78/3 394/56/3 390/49/3 391/79/3
f 398/26/33 399/19/33 401/22/33 400/29/33
f 400/29/34 401/22/34 405/23/34 404/56/34
f 404/56/35 405/23/35 403/12/35 402/49/35
f 402/49/36 403/12/36 399/17/36 398/71/36
f 400/78/37 404/56/37 402/49/37 398/79/37
f 406/29/30 410/22/30 412/23/30 408/56/30
f 536/26/3 537/19/3 539/22/3 538/29/3
f 538/29/1 539/22/1 543/23/1 542/56/1
f 542/56/5 543/23/5 541/12/5 540/49/5
f 540/49/2 541/12/2 537/17/2 536/71/2
f 538/78/4 542/56/4 540/49/4 536/79/4
f 544/26/3 545/19/3 547/22/3 546/29/3
f 546/29/1 547/22/1 551/23/1 550/56/1
f 550/56/5 551/23/5 549/12/5 548/49/5
f 548/49/2 549/12/2 545/17/2 544/71/2
f 546/78/4 550/56/4 548/49/4 544/79/4
f 552/80/41 584/81/41 553/82/41
f 553/82/42 584/81/42 554/83/42
f 554/83/43 584/81/43 555/84/43
f 555/84/44 584/81/44 556/85/44
f 556/85/45 584/81/45 557/86/45
f 557/86/46 584/81/46 558/87/46
f 558/87/47 584/81/47 559/88/47
f 559/88/48 584/81/48 560/89/48
f 560/89/49 584/81/49 561/90/49
f 561/90/50 584/81/50 562/91/50
f 562/91/51 584/81/51 563/92/51
f 563/92/52 584/81/52 564/93/52
f 564/93/53 584/81/53 565/94/53
f 565/94/54 584/81/54 566/95/54
f 566/95/55 584/81/55 567/96/55
f 567/96/56 584/81/56 568/97/56
f 568/97/57 584/81/57 569/98/57
f 569/98/58 584/81/58 570/99/58
f 570/99/59 584/81/59 571/100/59
f 571/100/60 584/81/60 572/101/60
f 572/101/61 584/81/61 573/102/61
f 573/102/62 584/81/62 574/103/62
f 574/103/63 584/81/63 575/104/63
f 575/104/64 584/81/64 576/105/64
f 576/105/65 584/81/65 577/106/65
f 577/106/66 584/81/66 578/107/66
f 578/107/67 584/81/67 579/108/67
f 579/108/68 584/81/68 580/109/68
f 580/109/69 584/81/69 581/110/69
f 581/110/70 584/81/70 582/111/70
f 582/111/72 584/81/72 583/144/72
f 583/144/73 584/81/73 552/80/73
f 618/49/3 678/15/3 677/16/3 617/71/3
f 630/145/1 631/146/1 626/39/1 625/39/1
f 634/18/6 630/145/6 625/39/6 624/38/6
f 345/29/6 344/37/6 623/147/6 622/28/6
f 629/31/2 622/28/2 619/28/2 627/31/2
f 343/22/2 624/38/2 621/38/2 341/22/2
f 334/23/2 620/148/2 621/149/2 341/58/2
f 348/26/2 629/31/2 627/31/2 339/26/2
f 346/19/6 347/35/6 630/145/6 634/18/6
f 347/35/1 352/35/1 631/146/1 630/145/1
f 622/28/6 623/147/6 633/32/6 629/31/6
f 624/38/2 634/18/2 632/20/2 621/38/2
f 620/148/2 628/11/2 632/14/2 621/149/2
f 342/40/5 353/40/5 644/42/5 642/36/5
f 349/33/3 350/33/3 643/41/3 640/34/3
f 345/29/2 641/21/2 638/21/2 338/29/2
f 343/22/6 342/40/6 642/36/6 641/21/6
f 348/26/6 349/33/6 640/34/6 639/25/6
f 346/19/2 639/25/2 636/27/2 340/19/2
f 337/49/5 339/71/5 636/16/5 637/15/5
f 656/65/1 651/76/1 646/77/1 654/65/1
f 358/49/2 367/150/2 652/151/2 648/152/2
f 366/64/75 651/76/75 652/153/75 367/12/75
f 659/43/24 649/60/24 650/62/24 655/154/24
f 653/155/1 655/156/1 650/54/1 645/53/1
f 368/61/2 649/60/2 647/60/2 357/61/2
f 356/29/1 365/157/1 655/156/1 653/155/1
f 364/44/76 659/43/76 655/154/76 365/58/76
f 362/66/1 656/65/1 654/65/1 361/66/1
f 648/152/2 652/151/2 660/69/2 658/68/2
f 651/76/75 656/65/75 660/67/75 652/153/75
f 649/60/2 659/43/2 657/45/2 647/60/2
f 671/57/5 665/74/5 662/75/5 669/158/5
f 366/64/3 667/63/3 664/159/3 355/64/3
f 676/72/77 667/63/77 668/47/77 672/160/77
f 362/66/23 665/74/23 666/161/23 363/13/23
f 354/26/3 363/162/3 666/163/3 661/164/3
f 670/165/78 672/160/78 668/47/78 663/46/78
f 360/56/79 369/166/79 672/160/79 670/165/79
f 368/61/80 676/72/80 672/160/80 369/166/80
f 364/44/5 671/57/5 669/158/5 359/44/5
f 667/63/3 676/72/3 674/73/3 664/159/3
f 665/74/23 671/57/23 675/59/23 666/161/23
f 661/164/3 666/163/3 675/51/3 673/50/3
f 700/167/4 688/168/4 682/22/4 696/169/4
f 696/169/5 682/22/5 686/23/5 697/170/5
f 702/171/4 698/172/4 684/12/4 692/173/4
f 698/172/5 695/174/5 680/17/5 684/12/5
f 691/175/81 694/176/81 683/49/81 679/79/81
f 692/173/1 693/177/1 680/13/1 684/12/1
f 686/23/1 682/58/1 688/178/1 690/179/1
f 681/78/82 685/56/82 689/180/82 687/181/82
f 697/170/4 699/182/4 690/179/4 686/23/4
f 701/183/4 693/184/4 688/168/4 700/167/4
f 695/185/4 680/19/4 693/184/4 701/183/4
f 690/179/1 688/178/1 693/177/1 692/173/1
f 687/181/83 689/180/83 694/176/83 691/175/83
f 699/182/4 702/171/4 692/173/4 690/179/4
f 710/186/4 695/185/4 701/183/4 708/187/4
f 704/188/6 697/170/6 699/182/6 706/189/6
f 705/190/5 710/191/5 695/174/5 698/172/5
f 709/192/4 705/190/4 698/172/4 702/171/4
f 703/193/5 696/169/5 697/170/5 704/188/5
f 707/194/6 703/193/6 696/169/6 700/167/6
f 687/195/4 707/194/4 703/193/4 681/29/4
f 681/29/5 703/193/5 704/188/5 685/56/5
f 694/176/4 683/49/4 705/190/4 709/192/4
f 683/49/5 679/71/5 710/191/5 705/190/5
f 685/56/4 689/180/4 706/189/4 704/188/4
f 691/196/4 708/187/4 707/194/4 687/195/4
f 679/26/4 710/186/4 708/187/4 691/196/4
f 689/180/4 694/176/4 709/192/4 706/189/4
f 726/186/84 723/185/84 724/183/84 725/187/84
f 370/26/85 372/29/85 708/187/85 701/183/85
f 758/29/87 759/22/87 762/23/87 761/56/87
f 811/26/4 814/186/4 813/187/4 812/196/4
f 687/181/2 681/78/2 815/78/2 816/181/2
f 816/181/89 815/78/89 817/78/89 818/181/89
f 675/51/6 365/52/6 1304/52/6 1306/51/6
f 675/59/6 1306/59/6 1305/161/6 666/161/6
f 374/49/5 1307/49/5 1308/56/5 376/56/5
f 378/26/147 380/29/147 1310/29/147 1309/26/147
f 379/19/148 745/49/148 746/12/148 381/22/148
f 708/187/149 707/194/149 706/189/149 709/192/149
f 708/187/3 709/192/3 702/171/3 701/183/3
f 651/76/150 702/171/150 699/182/150 656/65/150
f 650/54/1 369/55/1 1312/55/1 1314/54/1
f 633/32/2 1313/32/2 1311/33/2 349/33/2
f 623/147/2 1315/147/2 1316/32/2 633/32/2
f 344/37/2 1317/37/2 1318/147/2 623/147/2
usemtl dentro
f 397/23/32 396/58/32 394/13/32 395/12/32
f 405/23/38 401/58/38 399/13/38 403/12/38
f 447/49/39 446/12/39 448/17/39 449/71/39
f 756/23/32 755/58/32 753/13/32 754/12/32
f 762/23/88 759/58/88 757/13/88 760/12/88
f 804/49/39 803/12/39 805/17/39 806/71/39
usemtl FORA2
f 391/49/31 390/12/31 392/17/31 393/71/31
f 407/49/31 406/12/31 408/17/31 409/71/31
f 413/23/32 412/58/32 410/13/32 411/12/32
f 415/49/31 414/12/31 416/17/31 417/71/31
f 421/23/32 420/58/32 418/13/32 419/12/32
f 423/49/31 422/12/31 424/17/31 425/71/31
f 429/23/32 428/58/32 426/13/32 427/12/32
f 431/49/31 430/12/31 432/17/31 433/71/31
f 437/23/32 436/58/32 434/13/32 435/12/32
f 439/49/31 438/12/31 440/17/31 441/71/31
f 445/23/32 444/58/32 442/13/32 443/12/32
f 453/23/40 452/58/40 450/13/40 451/12/40
f 750/49/86 749/12/86 751/17/86 752/71/86
f 764/49/31 763/12/31 765/17/31 766/71/31
f 770/23/32 769/58/32 767/13/32 768/12/32
f 772/49/31 771/12/31 773/17/31 774/71/31
f 778/23/32 777/58/32 775/13/32 776/12/32
f 780/49/31 779/12/31 781/17/31 782/71/31
f 786/23/32 785/58/32 783/13/32 784/12/32
f 788/49/31 787/12/31 789/17/31 790/71/31
f 794/23/32 793/58/32 791/13/32 792/12/32
f 796/49/31 795/12/31 797/17/31 798/71/31
f 802/23/32 801/58/32 799/13/32 800/12/32
f 810/23/40 809/58/40 807/13/40 808/12/40
usemtl TRINCO
f 543/23/6 539/58/6 537/13/6 541/12/6
f 551/23/6 547/58/6 545/13/6 549/12/6
usemtl bola
f 552/112/71 553/113/71 554/114/71 555/115/71 556/116/71 557/117/71 558/118/71 559/119/71 560/120/71 561/121/71 562/122/71 563/123/71 564/124/71 565/125/71 566/126/71 567/127/71 568/128/71 569/129/71 570/130/71 571/131/71 572/132/71 573/133/71 574/134/71 575/135/71 576/136/71 577/137/71 578/138/71 579/139/71 580/140/71 581/141/71 582/142/71 583/143/71
f 585/112/74 586/113/74 587/114/74 588/115/74 589/116/74 590/117/74 591/118/74 592/119/74 593/120/74 594/121/74 595/122/74 596/123/74 597/124/74 598/125/74 599/126/74 600/127/74 601/128/74 602/129/74 603/130/74 604/131/74 605/132/74 606/133/74 607/134/74 608/135/74 609/136/74 610/137/74 611/138/74 612/139/74 613/140/74 614/141/74 615/142/74 616/143/74
usemtl fora.002
f 1113/11/2 821/12/2 825/13/2 1117/14/2
f 1122/15/5 1121/16/5 825/17/5 821/12/5
f 1119/18/2 831/19/2 825/19/2 1117/20/2
f 1123/21/3 1120/24/3 819/23/3 826/22/3
f 1124/25/2 833/26/2 824/26/2 1121/27/2
f 1107/28/2 830/29/2 823/29/2 1104/30/2
f 1114/31/6 1118/32/6 834/33/6 833/26/6
f 1124/25/6 1125/34/6 832/35/6 831/19/6
f 1126/21/6 1127/36/6 829/37/6 830/29/6
f 1109/38/6 1110/39/6 827/40/6 828/22/6
f 1126/21/2 828/22/2 826/22/2 1123/21/2
f 1125/34/3 1128/41/3 837/35/3 832/35/3
f 1110/39/1 1111/39/1 838/40/1 827/40/1
f 1127/36/5 1129/42/5 836/37/5 829/37/5
f 1144/43/2 849/44/2 844/44/2 1142/45/2
f 1148/46/5 1153/47/5 852/48/5 843/49/5
f 1158/50/3 1160/51/3 850/52/3 841/29/3
f 1130/53/1 1135/54/1 854/55/1 845/56/1
f 1156/57/90 849/44/90 850/58/90 1160/59/90
f 1134/60/91 853/61/91 854/23/91 1135/62/91
f 1152/63/92 851/64/92 852/48/92 1153/47/92
f 1141/65/93 847/66/93 848/13/93 1145/67/93
f 1143/68/2 1145/69/2 848/70/2 839/71/2
f 1161/72/3 853/61/3 842/61/3 1159/73/3
f 1150/74/5 847/66/5 846/66/5 1147/75/5
f 1136/76/1 851/64/1 840/64/1 1131/77/1
f 855/26/3 856/19/3 858/22/3 857/29/3
f 857/29/1 858/22/1 862/23/1 861/56/1
f 861/56/5 862/23/5 860/12/5 859/49/5
f 859/49/2 860/12/2 856/17/2 855/71/2
f 857/78/4 861/56/4 859/49/4 855/79/4
f 862/23/6 858/58/6 856/13/6 860/12/6
f 863/26/94 864/19/94 866/22/94 865/29/94
f 1232/49/5 1228/71/5 1229/17/5 1233/12/5
f 882/26/5 881/19/5 885/22/5 886/29/5
f 879/29/95 883/22/95 885/23/95 881/56/95
f 884/56/96 880/23/96 882/12/96 886/49/96
f 884/78/3 883/56/3 879/49/3 880/79/3
f 887/26/99 888/19/99 890/22/99 889/29/99
f 889/29/100 890/22/100 894/23/100 893/56/100
f 893/56/101 894/23/101 892/12/101 891/49/101
f 891/49/102 892/12/102 888/17/102 887/71/102
f 889/78/103 893/56/103 891/49/103 887/79/103
f 895/29/105 899/22/105 901/23/105 897/56/105
f 1021/26/3 1022/19/3 1024/22/3 1023/29/3
f 1023/29/1 1024/22/1 1028/23/1 1027/56/1
f 1027/56/5 1028/23/5 1026/12/5 1025/49/5
f 1025/49/2 1026/12/2 1022/17/2 1021/71/2
f 1023/78/4 1027/56/4 1025/49/4 1021/79/4
f 1029/26/3 1030/19/3 1032/22/3 1031/29/3
f 1031/29/1 1032/22/1 1036/23/1 1035/56/1
f 1035/56/5 1036/23/5 1034/12/5 1033/49/5
f 1033/49/2 1034/12/2 1030/17/2 1029/71/2
f 1031/78/4 1035/56/4 1033/49/4 1029/79/4
f 1037/80/108 1069/81/108 1038/82/108
f 1038/82/109 1069/81/109 1039/83/109
f 1039/83/110 1069/81/110 1040/84/110
f 1040/84/111 1069/81/111 1041/85/111
f 1041/85/112 1069/81/112 1042/86/112
f 1042/86/113 1069/81/113 1043/87/113
f 1043/87/114 1069/81/114 1044/88/114
f 1044/88/115 1069/81/115 1045/89/115
f 1045/89/116 1069/81/116 1046/90/116
f 1046/90/117 1069/81/117 1047/91/117
f 1047/91/118 1069/81/118 1048/92/118
f 1048/92/119 1069/81/119 1049/93/119
f 1049/93/120 1069/81/120 1050/94/120
f 1050/94/121 1069/81/121 1051/95/121
f 1051/95/122 1069/81/122 1052/96/122
f 1052/96/123 1069/81/123 1053/97/123
f 1053/97/124 1069/81/124 1054/98/124
f 1054/98/125 1069/81/125 1055/99/125
f 1055/99/126 1069/81/126 1056/100/126
f 1056/100/127 1069/81/127 1057/101/127
f 1057/101/128 1069/81/128 1058/102/128
f 1058/102/129 1069/81/129 1059/103/129
f 1059/103/130 1069/81/130 1060/104/130
f 1060/104/131 1069/81/131 1061/105/131
f 1061/105/132 1069/81/132 1062/106/132
f 1062/106/133 1069/81/133 1063/107/133
f 1063/107/134 1069/81/134 1064/108/134
f 1064/108/135 1069/81/135 1065/109/135
f 1065/109/136 1069/81/136 1066/110/136
f 1066/110/137 1069/81/137 1067/111/137
f 1067/111/139 1069/81/139 1068/144/139
f 1068/144/140 1069/81/140 1037/80/140
f 1103/49/3 1163/15/3 1162/16/3 1102/71/3
f 1115/145/1 1116/146/1 1111/39/1 1110/39/1
f 1119/18/6 1115/145/6 1110/39/6 1109/38/6
f 830/29/6 829/37/6 1108/147/6 1107/28/6
f 1114/31/2 1107/28/2 1104/28/2 1112/31/2
f 828/22/2 1109/38/2 1106/38/2 826/22/2
f 819/23/2 1105/148/2 1106/149/2 826/58/2
f 833/26/2 1114/31/2 1112/31/2 824/26/2
f 831/19/6 832/35/6 1115/145/6 1119/18/6
f 832/35/1 837/35/1 1116/146/1 1115/145/1
f 1107/28/6 1108/147/6 1118/32/6 1114/31/6
f 1109/38/2 1119/18/2 1117/20/2 1106/38/2
f 1105/148/2 1113/11/2 1117/14/2 1106/149/2
f 827/40/5 838/40/5 1129/42/5 1127/36/5
f 834/33/3 835/33/3 1128/41/3 1125/34/3
f 830/29/2 1126/21/2 1123/21/2 823/29/2
f 828/22/6 827/40/6 1127/36/6 1126/21/6
f 833/26/6 834/33/6 1125/34/6 1124/25/6
f 831/19/2 1124/25/2 1121/27/2 825/19/2
f 822/49/5 824/71/5 1121/16/5 1122/15/5
f 1141/65/1 1136/76/1 1131/77/1 1139/65/1
f 843/49/2 852/150/2 1137/151/2 1133/152/2
f 851/64/93 1136/76/93 1137/153/93 852/12/93
f 1144/43/91 1134/60/91 1135/62/91 1140/154/91
f 1138/155/1 1140/156/1 1135/54/1 1130/53/1
f 853/61/2 1134/60/2 1132/60/2 842/61/2
f 841/29/1 850/157/1 1140/156/1 1138/155/1
f 849/44/91 1144/43/91 1140/154/91 850/58/91
f 847/66/1 1141/65/1 1139/65/1 846/66/1
f 1133/152/2 1137/151/2 1145/69/2 1143/68/2
f 1136/76/93 1141/65/93 1145/67/93 1137/153/93
f 1134/60/2 1144/43/2 1142/45/2 1132/60/2
f 1156/57/5 1150/74/5 1147/75/5 1154/158/5
f 851/64/3 1152/63/3 1149/159/3 840/64/3
f 1161/72/92 1152/63/92 1153/47/92 1157/160/92
f 847/66/90 1150/74/90 1151/161/90 848/13/90
f 839/26/3 848/162/3 1151/163/3 1146/164/3
f 1155/165/5 1157/160/5 1153/47/5 1148/46/5
f 845/56/5 854/166/5 1157/160/5 1155/165/5
f 853/61/92 1161/72/92 1157/160/92 854/166/92
f 849/44/5 1156/57/5 1154/158/5 844/44/5
f 1152/63/3 1161/72/3 1159/73/3 1149/159/3
f 1150/74/90 1156/57/90 1160/59/90 1151/161/90
f 1146/164/3 1151/163/3 1160/51/3 1158/50/3
f 1185/167/4 1173/168/4 1167/22/4 1181/169/4
f 1181/169/3 1182/170/3 1171/23/3 1167/22/3
f 1187/171/4 1183/172/4 1169/12/4 1177/173/4
f 1183/172/5 1180/174/5 1165/17/5 1169/12/5
f 1176/175/142 1179/176/142 1168/49/142 1164/79/142
f 1177/173/2 1169/12/2 1165/13/2 1178/177/2
f 1171/23/2 1175/179/2 1173/178/2 1167/58/2
f 1166/78/143 1170/56/143 1174/180/143 1172/181/143
f 1182/170/4 1184/182/4 1175/179/4 1171/23/4
f 1186/183/6 1185/167/6 1173/168/6 1178/184/6
f 1180/185/4 1165/19/4 1178/184/4 1186/183/4
f 1175/179/2 1177/173/2 1178/177/2 1173/178/2
f 1172/181/144 1174/180/144 1179/176/144 1176/175/144
f 1184/182/4 1187/171/4 1177/173/4 1175/179/4
f 1195/186/4 1180/185/4 1186/183/4 1193/187/4
f 1189/188/4 1191/189/4 1184/182/4 1182/170/4
f 1190/190/5 1195/191/5 1180/174/5 1183/172/5
f 1194/192/4 1190/190/4 1183/172/4 1187/171/4
f 1188/193/3 1189/188/3 1182/170/3 1181/169/3
f 1192/194/4 1185/167/4 1181/169/4 1188/193/4
f 1172/195/4 1192/194/4 1188/193/4 1166/29/4
f 1166/29/5 1188/193/5 1189/188/5 1170/56/5
f 1179/176/4 1168/49/4 1190/190/4 1194/192/4
f 1168/49/5 1164/71/5 1195/191/5 1190/190/5
f 1170/56/4 1174/180/4 1191/189/4 1189/188/4
f 1176/196/4 1193/187/4 1192/194/4 1172/195/4
f 1164/26/4 1195/186/4 1193/187/4 1176/196/4
f 1174/180/4 1179/176/4 1194/192/4 1191/189/4
f 1211/186/145 1208/185/145 1209/183/145 1210/187/145
f 1244/29/100 1245/22/100 1247/23/100 1246/56/100
f 1296/26/4 1299/186/4 1298/187/4 1297/196/4
f 1172/181/2 1166/78/2 1300/78/2 1301/181/2
f 1301/181/146 1300/78/146 1302/78/146 1303/181/146
f 1118/32/2 1320/32/2 1319/33/2 834/33/2
f 1108/147/2 1321/147/2 1322/32/2 1118/32/2
f 829/37/2 1323/37/2 1324/147/2 1108/147/2
f 1160/59/151 1326/59/151 1325/161/151 1151/161/151
f 864/19/152 1232/49/152 1233/12/152 866/22/152
f 857/29/153 1194/192/153 1187/171/153 855/26/153
f 1229/17/154 1228/71/154 1214/1/154 1212/1/154
f 1193/187/155 1192/194/155 1191/189/155 1194/192/155
f 1184/182/156 1185/167/156 1186/183/156 1187/171/156
f 1191/189/157 1212/1/157 1214/1/157 1184/182/157
usemtl dentro.002
f 886/23/98 885/58/98 883/13/98 884/12/98
f 894/23/104 890/58/104 888/13/104 892/12/104
f 936/49/106 935/12/106 937/17/106 938/71/106
f 1243/23/98 1242/58/98 1240/13/98 1241/12/98
f 1289/49/106 1288/12/106 1290/17/106 1291/71/106
usemtl FORA2.002
f 880/49/97 879/12/97 881/17/97 882/71/97
f 896/49/97 895/12/97 897/17/97 898/71/97
f 902/23/98 901/58/98 899/13/98 900/12/98
f 904/49/97 903/12/97 905/17/97 906/71/97
f 910/23/98 909/58/98 907/13/98 908/12/98
f 912/49/97 911/12/97 913/17/97 914/71/97
f 918/23/98 917/58/98 915/13/98 916/12/98
f 920/49/97 919/12/97 921/17/97 922/71/97
f 926/23/98 925/58/98 923/13/98 924/12/98
f 928/49/97 927/12/97 929/17/97 930/71/97
f 934/23/98 933/58/98 931/13/98 932/12/98
f 942/23/107 941/58/107 939/13/107 940/12/107
f 1237/49/97 1236/12/97 1238/17/97 1239/71/97
f 1249/49/97 1248/12/97 1250/17/97 1251/71/97
f 1255/23/98 1254/58/98 1252/13/98 1253/12/98
f 1257/49/97 1256/12/97 1258/17/97 1259/71/97
f 1263/23/98 1262/58/98 1260/13/98 1261/12/98
f 1265/49/97 1264/12/97 1266/17/97 1267/71/97
f 1271/23/98 1270/58/98 1268/13/98 1269/12/98
f 1273/49/97 1272/12/97 1274/17/97 1275/71/97
f 1279/23/98 1278/58/98 1276/13/98 1277/12/98
f 1281/49/97 1280/12/97 1282/17/97 1283/71/97
f 1287/23/98 1286/58/98 1284/13/98 1285/12/98
f 1295/23/107 1294/58/107 1292/13/107 1293/12/107
usemtl TRINCO.002
f 1028/23/6 1024/58/6 1022/13/6 1026/12/6
f 1036/23/6 1032/58/6 1030/13/6 1034/12/6
usemtl bola.002
f 1037/112/138 1038/113/138 1039/114/138 1040/115/138 1041/116/138 1042/117/138 1043/118/138 1044/119/138 1045/120/138 1046/121/138 1047/122/138 1048/123/138 1049/124/138 1050/125/138 1051/126/138 1052/127/138 1053/128/138 1054/129/138 1055/130/138 1056/131/138 1057/132/138 1058/133/138 1059/134/138 1060/135/138 1061/136/138 1062/137/138 1063/138/138 1064/139/138 1065/140/138 1066/141/138 1067/142/138 1068/143/138
f 1070/112/141 1071/113/141 1072/114/141 1073/115/141 1074/116/141 1075/117/141 1076/118/141 1077/119/141 1078/120/141 1079/121/141 1080/122/141 1081/123/141 1082/124/141 1083/125/141 1084/126/141 1085/127/141 1086/128/141 1087/129/141 1088/130/141 1089/131/141 1090/132/141 1091/133/141 1092/134/141 1093/135/141 1094/136/141 1095/137/141 1096/138/141 1097/139/141 1098/140/141 1099/141/141 1100/142/141 1101/143/141
usemtl Material.006
f 1/1/1 3/2/1 4/3/1 2/4/1
f 2/4/1 6/4/1 5/1/1 1/1/1
f 6/4/2 8/4/2 7/1/2 5/1/2
f 76/4/1 9/4/1 10/4/1 75/4/1
f 9/4/1 11/4/1 12/4/1 10/4/1
f 80/4/1 13/4/1 14/4/1 79/4/1
f 9/4/1 15/4/1 16/4/1 11/4/1
f 13/4/1 17/4/1 18/4/1 14/4/1
f 13/4/1 19/4/1 20/4/1 17/4/1
f 3/2/1 21/2/1 22/3/1 4/3/1
f 21/2/1 23/2/1 24/3/1 22/3/1
f 22/3/1 26/3/1 25/3/1 4/3/1
f 23/2/1 27/2/1 28/3/1 24/3/1
f 28/3/1 30/3/1 29/3/1 24/3/1
f 32/3/1 34/3/1 33/3/1 31/3/1
f 35/4/1 37/4/1 38/4/1 36/4/1
f 30/3/1 40/3/1 39/3/1 29/3/1
f 40/3/1 42/3/1 41/3/1 39/3/1
f 43/4/1 45/4/1 46/4/1 44/4/1
f 45/4/1 47/4/1 48/4/1 46/4/1
f 37/4/1 49/4/1 50/4/1 38/4/1
f 49/4/1 51/4/1 52/4/1 50/4/1
f 29/3/1 39/3/1 52/4/1 51/4/1
f 37/4/1 33/3/1 34/3/1 49/4/1
f 50/4/1 54/4/1 53/4/1 38/4/1
f 68/3/1 55/4/1 56/4/1 67/3/1
f 42/3/1 58/3/1 57/3/1 41/3/1
f 58/3/1 60/3/1 59/3/1 57/3/1
f 57/3/1 62/3/1 61/3/1 41/3/1
f 62/3/1 64/3/1 63/3/1 61/3/1
f 64/3/2 66/3/2 65/3/2 63/3/2
f 63/3/2 68/3/2 67/3/2 61/3/2
f 60/3/1 70/3/1 69/3/1 59/3/1
f 69/3/1 72/3/1 71/3/1 59/3/1
f 236/5/1 48/4/1 47/4/1 237/6/1
f 2/4/1 73/4/1 74/4/1 6/4/1
f 83/4/2 82/1/2 85/1/2 86/4/2
f 11/4/1 77/4/1 78/4/1 12/4/1
f 82/1/2 83/4/2 84/3/2 81/2/2
f 86/4/2 85/1/2 87/1/2 88/4/2
f 158/4/2 92/4/2 89/4/2 90/4/2
f 90/4/2 89/4/2 93/4/2 94/4/2
f 160/4/2 98/4/2 95/4/2 96/4/2
f 90/4/2 94/4/2 99/4/2 100/4/2
f 96/4/2 95/4/2 101/4/2 102/4/2
f 96/4/2 102/4/2 103/4/2 104/4/2
f 81/2/2 84/3/2 105/3/2 106/2/2
f 106/2/2 105/3/2 107/3/2 108/2/2
f 105/3/2 84/3/2 109/3/2 110/3/2
f 108/2/2 107/3/2 111/3/2 112/2/2
f 111/3/2 107/3/2 113/3/2 114/3/2
f 116/3/2 115/3/2 117/3/2 118/3/2
f 120/4/2 119/4/2 121/4/2 122/4/2
f 114/3/2 113/3/2 123/3/2 124/3/2
f 124/3/2 123/3/2 125/3/2 126/3/2
f 128/4/2 127/4/2 129/4/2 130/4/2
f 130/4/2 129/4/2 131/4/2 132/4/2
f 122/4/2 121/4/2 133/4/2 134/4/2
f 134/4/2 133/4/2 135/4/2 136/4/2
f 113/3/2 136/4/2 135/4/2 123/3/2
f 122/4/2 134/4/2 118/3/2 117/3/2
f 133/4/2 121/4/2 137/4/2 138/4/2
f 142/3/2 141/3/2 140/4/2 139/4/2
f 283/4/3 130/4/3 132/4/3 286/4/3
f 126/3/2 125/3/2 143/3/2 144/3/2
f 144/3/2 143/3/2 145/3/2 146/3/2
f 143/3/2 125/3/2 147/3/2 148/3/2
f 148/3/2 147/3/2 149/3/2 150/3/2
f 150/3/2 149/3/2 151/3/2 152/3/2
f 149/3/2 147/3/2 141/3/2 142/3/2
f 146/3/2 145/3/2 153/3/2 154/3/2
f 153/3/2 145/3/2 155/3/2 156/3/2
f 238/5/2 239/7/2 132/4/2 131/4/2
f 83/4/2 86/4/2 157/4/2 91/4/2
f 94/4/2 93/4/2 159/4/2 97/4/2
f 245/4/3 244/4/3 134/4/3 136/4/3
f 247/8/4 246/3/4 113/3/4 107/3/4
f 249/3/4 248/3/4 152/3/4 151/3/4
f 251/4/5 250/4/5 135/4/5 133/4/5
f 253/3/3 252/3/3 115/3/3 116/3/3
f 77/4/6 11/4/6 94/4/6 97/4/6
f 248/3/2 254/3/2 150/3/2 152/3/2
f 246/3/7 245/4/7 136/4/7 113/3/7
f 79/4/4 14/4/4 95/4/4 98/4/4
f 255/3/2 249/3/2 151/3/2 149/3/2
f 250/4/8 256/3/8 123/3/8 135/4/8
f 257/3/6 253/3/6 116/3/6 118/3/6
f 16/4/6 15/4/6 100/4/6 99/4/6
f 259/3/9 258/4/9 122/4/9 117/3/9
f 252/3/4 259/3/4 117/3/4 115/3/4
f 15/4/3 9/4/3 90/4/3 100/4/3
f 260/3/2 255/3/2 149/3/2 142/3/2
f 244/4/10 257/3/10 118/3/10 134/4/10
f 262/4/4 261/4/4 119/4/4 120/4/4
f 11/4/5 16/4/5 99/4/5 94/4/5
f 264/3/2 263/3/2 141/3/2 147/3/2
f 266/4/5 265/4/5 138/4/5 137/4/5
f 18/4/5 17/4/5 102/4/5 101/4/5
f 268/3/5 267/3/5 154/3/5 153/3/5
f 265/4/6 251/4/6 133/4/6 138/4/6
f 258/4/3 262/4/3 120/4/3 122/4/3
f 267/3/6 269/3/6 146/3/6 154/3/6
f 270/4/4 266/4/4 137/4/4 121/4/4
f 261/4/5 270/4/5 121/4/5 119/4/5
f 14/4/4 18/4/4 101/4/4 95/4/4
f 272/4/3 271/4/3 139/4/3 140/4/3
f 20/4/6 19/4/6 104/4/6 103/4/6
f 263/3/11 272/4/11 140/4/11 141/3/11
f 274/3/6 273/3/6 114/3/6 124/3/6
f 19/4/3 13/4/3 96/4/3 104/4/3
f 276/2/3 275/1/3 82/1/3 81/2/3
f 277/3/5 268/3/5 153/3/5 156/3/5
f 271/4/12 260/3/12 142/3/12 139/4/12
f 17/4/5 20/4/5 103/4/5 102/4/5
f 279/3/3 278/3/3 155/3/3 145/3/3
f 281/4/5 280/3/5 84/3/5 83/4/5
f 309/9/13 277/3/13 156/3/13 241/9/13
f 284/3/6 274/3/6 124/3/6 126/3/6
f 285/2/3 276/2/3 81/2/3 106/2/3
f 306/6/14 286/4/14 132/4/14 239/7/14
f 256/3/4 287/3/4 125/3/4 123/3/4
f 289/4/4 288/4/4 127/4/4 128/4/4
f 291/4/4 290/4/4 157/4/4 86/4/4
f 292/3/6 284/3/6 126/3/6 144/3/6
f 293/2/3 285/2/3 106/2/3 108/2/3
f 275/1/3 294/1/3 85/1/3 82/1/3
f 290/4/5 295/4/5 91/4/5 157/4/5
f 283/4/3 289/4/3 128/4/3 130/4/3
f 296/3/5 247/8/5 107/3/5 105/3/5
f 298/1/4 297/4/4 88/4/4 87/1/4
f 288/4/5 299/4/5 129/4/5 127/4/5
f 301/3/5 300/3/5 110/3/5 109/3/5
f 297/4/2 291/4/2 86/4/2 88/4/2
f 9/4/6 76/4/6 158/4/6 90/4/6
f 269/3/6 292/3/6 144/3/6 146/3/6
f 300/3/6 296/3/6 105/3/6 110/3/6
f 294/1/2 298/1/2 87/1/2 85/1/2
f 76/4/3 75/4/3 92/4/3 158/4/3
f 302/3/4 279/3/4 145/3/4 143/3/4
f 280/3/4 301/3/4 109/3/4 84/3/4
f 299/4/5 282/4/5 131/4/5 129/4/5
f 304/3/6 303/2/6 112/2/6 111/3/6
f 295/4/6 281/4/6 83/4/6 91/4/6
f 12/4/4 78/4/4 159/4/4 93/4/4
f 305/3/5 302/3/5 143/3/5 148/3/5
f 303/2/3 293/2/3 108/2/3 112/2/3
f 75/4/4 10/4/4 89/4/4 92/4/4
f 78/4/5 77/4/5 97/4/5 159/4/5
f 287/3/3 264/3/3 147/3/3 125/3/3
f 13/4/6 80/4/6 160/4/6 96/4/6
f 254/3/5 305/3/5 148/3/5 150/3/5
f 273/3/6 304/3/6 111/3/6 114/3/6
f 10/4/4 12/4/4 93/4/4 89/4/4
f 80/4/3 79/4/3 98/4/3 160/4/3
f 80/4/5 164/4/5 163/4/5 79/4/5
f 168/1/1 230/1/1 229/1/1 166/1/1
f 79/1/4 163/1/4 161/1/4 78/1/4
f 78/4/3 161/4/3 162/4/3 77/4/3
f 80/4/5 232/4/5 234/4/5 164/4/5
f 166/1/6 170/1/6 172/1/6 168/1/6
f 164/4/5 168/4/5 167/4/5 163/4/5
f 161/4/3 165/4/3 166/4/3 162/4/3
f 172/4/2 170/4/2 169/4/2 171/4/2
f 165/4/3 169/4/3 170/4/3 166/4/3
f 167/1/4 171/1/4 169/1/4 165/1/4
f 168/4/5 172/4/5 171/4/5 167/4/5
f 73/4/3 74/4/3 173/4/3 174/4/3
f 176/1/2 174/1/2 173/4/2 175/1/2
f 76/1/15 73/1/15 174/1/15 176/1/15
f 75/4/5 76/4/5 176/4/5 175/4/5
f 74/1/16 75/1/16 175/1/16 173/1/16
f 177/1/4 179/1/4 183/1/4 181/1/4
f 184/4/2 182/4/2 181/4/2 183/4/2
f 178/4/3 177/4/3 181/4/3 182/4/3
f 180/1/6 178/1/6 182/1/6 184/1/6
f 179/4/5 180/4/5 184/4/5 183/4/5
f 187/1/4 185/1/4 330/1/4 332/1/4
f 185/1/4 187/1/4 191/1/4 189/1/4
f 26/3/5 186/3/5 185/3/5 25/3/5
f 31/3/3 187/3/3 188/3/3 32/3/3
f 36/4/4 195/4/4 196/4/4 35/4/4
f 189/3/2 191/3/2 192/3/2 190/3/2
f 186/3/3 185/3/3 189/3/3 190/3/3
f 188/1/6 186/1/6 190/1/6 192/1/6
f 187/3/5 188/3/5 192/3/5 191/3/5
f 193/1/5 195/1/5 199/1/5 197/1/5
f 196/4/6 195/4/6 324/4/6 325/4/6
f 15/4/6 194/4/6 193/4/6 16/4/6
f 202/1/6 204/1/6 329/1/6 327/1/6
f 200/4/2 198/4/2 197/4/2 199/4/2
f 195/4/6 196/4/6 200/4/6 199/4/6
f 196/1/3 194/1/3 198/1/3 200/1/3
f 194/4/4 193/4/4 197/4/4 198/4/4
f 204/1/6 202/1/6 206/1/6 208/1/6
f 54/4/5 202/4/5 201/4/5 53/4/5
f 55/4/5 56/4/5 204/4/5 203/4/5
f 206/4/2 205/4/2 207/4/2 208/4/2
f 203/4/5 204/4/5 208/4/5 207/4/5
f 201/1/4 203/1/4 207/1/4 205/1/4
f 202/4/3 201/4/3 205/4/3 206/4/3
f 19/4/6 210/4/6 209/4/6 20/4/6
f 209/1/5 211/1/5 215/1/5 213/1/5
f 209/4/4 210/4/4 319/4/4 318/4/4
f 44/4/6 43/4/6 212/4/6 211/4/6
f 214/4/2 213/4/2 215/4/2 216/4/2
f 210/4/4 209/4/4 213/4/4 214/4/4
f 212/1/3 210/1/3 214/1/3 216/1/3
f 211/4/6 212/4/6 216/4/6 215/4/6
f 45/4/5 47/4/5 217/4/5 218/4/5
f 177/4/3 178/4/3 220/4/3 219/4/3
f 178/1/1 180/1/1 224/1/1 223/1/1
f 180/4/5 179/4/5 221/4/5 222/4/5
f 180/4/3 222/4/3 226/4/3 224/4/3
f 222/1/2 220/1/2 225/1/2 226/1/2
f 220/4/5 178/4/5 223/4/5 225/4/5
f 166/4/5 229/4/5 227/4/5 162/4/5
f 162/1/2 227/1/2 228/1/2 164/1/2
f 164/4/3 228/4/3 230/4/3 168/4/3
f 231/1/17 233/1/17 234/1/17 232/1/17
f 164/1/2 234/1/2 233/1/2 162/1/2
f 77/1/2 231/1/2 232/1/2 80/1/2
f 162/4/3 233/4/3 231/4/3 77/4/3
f 308/10/14 306/6/14 239/7/14 243/10/14
f 282/4/13 307/5/13 238/5/13 131/4/13
f 241/9/2 243/10/2 239/7/2 238/5/2
f 240/9/1 236/5/1 237/6/1 242/10/1
f 72/3/1 240/9/1 242/10/1 71/3/1
f 156/3/2 155/3/2 243/10/2 241/9/2
f 278/3/14 308/10/14 243/10/14 155/3/14
f 307/5/13 309/9/13 241/9/13 238/5/13
f 236/5/13 240/9/13 309/9/13 307/5/13
f 71/3/14 242/10/14 308/10/14 278/3/14
f 48/4/13 236/5/13 307/5/13 282/4/13
f 312/6/18 306/6/18 314/6/18 316/6/18
f 30/3/6 28/3/6 304/3/6 273/3/6
f 64/3/5 62/3/5 305/3/5 254/3/5
f 41/3/3 61/3/3 264/3/3 287/3/3
f 27/2/3 23/2/3 293/2/3 303/2/3
f 62/3/5 57/3/5 302/3/5 305/3/5
f 73/4/6 2/4/6 281/4/6 295/4/6
f 28/3/6 27/2/6 303/2/6 304/3/6
f 46/4/5 48/4/5 282/4/5 299/4/5
f 4/3/4 25/3/4 301/3/4 280/3/4
f 57/3/4 59/3/4 279/3/4 302/3/4
f 5/1/2 7/1/2 298/1/2 294/1/2
f 26/3/6 22/3/6 296/3/6 300/3/6
f 60/3/6 58/3/6 292/3/6 269/3/6
f 8/4/2 6/4/2 291/4/2 297/4/2
f 25/3/5 26/3/5 300/3/5 301/3/5
f 44/4/5 46/4/5 299/4/5 288/4/5
f 7/1/4 8/4/4 297/4/4 298/1/4
f 22/3/5 24/3/5 247/8/5 296/3/5
f 45/4/3 43/4/3 289/4/3 283/4/3
f 74/4/5 73/4/5 295/4/5 290/4/5
f 1/1/3 5/1/3 294/1/3 275/1/3
f 23/2/3 21/2/3 285/2/3 293/2/3
f 58/3/6 42/3/6 284/3/6 292/3/6
f 6/4/4 74/4/4 290/4/4 291/4/4
f 43/4/4 44/4/4 288/4/4 289/4/4
f 39/3/4 41/3/4 287/3/4 256/3/4
f 237/6/14 47/4/14 286/4/14 306/6/14
f 21/2/3 3/2/3 276/2/3 285/2/3
f 42/3/6 40/3/6 274/3/6 284/3/6
f 240/9/13 72/3/13 277/3/13 309/9/13
f 2/4/5 4/3/5 280/3/5 281/4/5
f 59/3/3 71/3/3 278/3/3 279/3/3
f 55/4/12 68/3/12 260/3/12 271/4/12
f 72/3/5 69/3/5 268/3/5 277/3/5
f 3/2/3 1/1/3 275/1/3 276/2/3
f 40/3/6 30/3/6 273/3/6 274/3/6
f 67/3/11 56/4/11 272/4/11 263/3/11
f 56/4/3 55/4/3 271/4/3 272/4/3
f 36/4/5 38/4/5 270/4/5 261/4/5
f 38/4/4 53/4/4 266/4/4 270/4/4
f 70/3/6 60/3/6 269/3/6 267/3/6
f 37/4/3 35/4/3 262/4/3 258/4/3
f 54/4/6 50/4/6 251/4/6 265/4/6
f 69/3/5 70/3/5 267/3/5 268/3/5
f 53/4/5 54/4/5 265/4/5 266/4/5
f 61/3/2 67/3/2 263/3/2 264/3/2
f 35/4/4 36/4/4 261/4/4 262/4/4
f 49/4/10 34/3/10 257/3/10 244/4/10
f 68/3/2 63/3/2 255/3/2 260/3/2
f 31/3/4 33/3/4 259/3/4 252/3/4
f 33/3/9 37/4/9 258/4/9 259/3/9
f 34/3/6 32/3/6 253/3/6 257/3/6
f 52/4/8 39/3/8 256/3/8 250/4/8
f 63/3/2 65/3/2 249/3/2 255/3/2
f 29/3/7 51/4/7 245/4/7 246/3/7
f 66/3/2 64/3/2 254/3/2 248/3/2
f 32/3/3 31/3/3 252/3/3 253/3/3
f 50/4/5 52/4/5 250/4/5 251/4/5
f 65/3/4 66/3/4 248/3/4 249/3/4
f 24/3/4 29/3/4 246/3/4 247/8/4
f 51/4/3 49/4/3 244/4/3 245/4/3
f 45/4/3 283/4/3 286/4/3 47/4/3
f 310/10/14 311/6/14 312/6/14 313/10/14
f 308/10/6 242/10/6 310/10/6 313/10/6
f 242/10/1 237/6/1 311/6/1 310/10/1
f 237/6/4 306/6/4 312/6/4 311/6/4
f 314/6/2 315/10/2 317/10/2 316/6/2
f 306/6/19 308/10/19 315/10/19 314/6/19
f 313/10/20 312/6/20 316/6/20 317/10/20
f 308/10/21 313/10/21 317/10/21 315/10/21
f 318/4/1 319/4/1 321/1/1 320/4/1
f 210/1/3 212/1/3 321/1/3 319/1/3
f 212/4/6 211/4/6 320/4/6 321/4/6
f 211/1/5 209/1/5 318/1/5 320/1/5
f 324/1/1 322/1/1 323/4/1 325/1/1
f 194/1/3 196/1/3 325/1/3 323/1/3
f 193/4/4 194/4/4 323/4/4 322/4/4
f 195/1/5 193/1/5 322/1/5 324/1/5
f 326/4/1 327/4/1 329/1/1 328/4/1
f 204/4/5 203/4/5 328/4/5 329/4/5
f 203/1/4 201/1/4 326/1/4 328/1/4
f 201/4/3 202/4/3 327/4/3 326/4/3
f 332/1/1 330/1/1 331/3/1 333/1/1
f 185/3/3 186/3/3 331/3/3 330/3/3
f 186/1/6 188/1/6 333/1/6 331/1/6
f 188/3/5 187/3/5 332/3/5 333/3/5
f 859/49/5 1327/49/5 1328/56/5 861/56/5
l 335 338
l 635 335
l 384 380
l 381 385
l 745 747
l 378 382
l 383 379
l 386 387
l 389 388
l 389 387
l 464 463
l 466 463
l 467 466
l 531 530
l 529 531
l 528 529
l 717 713
l 714 718
l 711 715
l 716 712
l 742 744
l 743 741
l 727 728
l 728 732
l 736 735
l 733 734
l 730 727
l 740 739
l 738 737
l 748 746
l 820 823
l 1120 820
l 869 865
l 866 870
l 1232 1234
l 863 867
l 868 864
l 871 872
l 874 873
l 874 878
l 878 877
l 876 875
l 876 872
l 953 952
l 955 952
l 956 955
l 1202 1198
l 1199 1203
l 1196 1200
l 1201 1197
l 1229 1231
l 1230 1228
l 1213 1215
l 1218 1214
l 1215 1219
l 1223 1222
l 1220 1221
l 1212 1216
l 1217 1213
l 1227 1226
l 1225 1224
l 1235 1233
