# Blender 4.0.2
# www.blender.org
mtllib casafinal.mtl
o Plane
v -1.889619 0.002836 0.963254
v -1.864589 0.002836 0.963254
v -1.889619 0.002836 -0.125962
v -1.864589 0.002836 -0.125962
v -1.889619 0.002836 0.987135
v -1.864589 0.002836 0.987135
v -1.889619 0.002836 0.987135
v -1.864589 0.002836 0.987135
v -0.754220 0.002836 0.963254
v -0.754220 0.002836 0.987135
v -0.728927 0.002836 0.963254
v -0.728927 0.002836 0.987135
v 1.452566 0.002836 0.963254
v 1.452566 0.002836 0.987135
v -0.754220 0.002836 0.150104
v -0.728927 0.002836 0.150104
v 1.478076 0.002836 0.963254
v 1.478076 0.002836 0.987135
v 1.452566 0.002836 0.128191
v 1.478076 0.002836 0.128191
v -1.889619 0.002836 -0.151093
v -1.864589 0.002836 -0.151093
v -1.889619 0.002836 -1.058299
v -1.864589 0.002836 -1.058299
v -1.422762 0.002836 -0.125962
v -1.422762 0.002836 -0.151093
v -1.889619 0.002836 -1.083570
v -1.864589 0.002836 -1.083570
v -0.754272 0.002836 -1.058299
v -0.754272 0.002836 -1.083570
v -1.160742 0.002836 -0.125962
v -1.160742 0.002836 -0.151093
v -0.755548 0.002836 -0.125962
v -0.755548 0.002836 -0.151093
v -0.754220 0.002836 -0.090719
v -0.728927 0.002836 -0.090719
v -0.754220 0.002836 -0.125984
v -0.728927 0.002836 -0.125984
v -0.728986 0.002836 -1.058299
v -0.728986 0.002836 -1.083570
v 0.363676 0.002836 -1.058299
v 0.363676 0.002836 -1.083570
v 1.452566 0.002836 -0.116100
v 1.478076 0.002836 -0.116100
v 1.452566 0.002836 -0.126105
v 1.478076 0.002836 -0.126105
v 1.452566 0.002836 -0.150991
v 1.478076 0.002836 -0.150991
v -0.754220 0.002836 -0.151071
v -0.728927 0.002836 -0.151071
v -0.754220 0.002836 -0.168780
v -0.728927 0.002836 -0.168780
v -0.665072 0.002836 -0.125984
v -0.665072 0.002836 -0.151071
v -0.420979 0.002836 -0.125984
v -0.420979 0.002836 -0.151071
v 0.388888 0.002836 -1.058299
v 0.388888 0.002836 -1.083570
v 1.452014 0.002836 -1.058299
v 1.452014 0.002836 -1.083570
v 0.363676 0.002836 -0.151307
v 0.388888 0.002836 -0.151307
v 0.363676 0.002836 -0.126391
v 0.388888 0.002836 -0.126391
v 0.363676 0.002836 -0.126391
v 0.388888 0.002836 -0.126391
v 0.363676 0.002836 -0.151307
v 0.363676 0.002836 -0.126391
v 1.478117 0.002836 -1.058299
v 1.478117 0.002836 -1.083570
v 1.452014 0.002836 -0.633893
v 1.478117 0.002836 -0.633893
v -1.527418 0.002836 0.963254
v -1.527418 0.002836 0.987135
v -1.079496 0.002836 0.987135
v -1.079496 0.002836 0.963254
v -0.416638 0.002836 0.963254
v -0.416638 0.002836 0.987135
v 0.125586 0.002836 0.987135
v 0.125586 0.002836 0.963254
v -1.889619 0.700560 -0.125962
v -1.889619 0.700560 0.963254
v -1.864589 0.700560 0.963254
v -1.864589 0.700560 -0.125962
v -1.889619 0.700560 0.987135
v -1.864589 0.700560 0.987135
v -1.889619 0.700560 0.987135
v -1.864589 0.700560 0.987135
v -0.754220 0.700560 0.987135
v -0.754220 0.700560 0.963254
v -1.527418 0.700560 0.963254
v -1.079496 0.700560 0.987135
v -0.728927 0.700560 0.987135
v -0.728927 0.700560 0.963254
v 1.452566 0.700560 0.987135
v 1.452566 0.700560 0.963254
v -0.416638 0.700560 0.963254
v 0.125586 0.700560 0.987135
v -0.728927 0.700560 0.150104
v -0.754220 0.700560 0.150104
v 1.478076 0.700560 0.987135
v 1.478076 0.700560 0.963254
v 1.478076 0.700560 0.128191
v 1.452566 0.700560 0.128191
v -1.864589 0.700560 -0.151093
v -1.889619 0.700560 -0.151093
v -1.864589 0.700560 -1.058299
v -1.889619 0.700560 -1.058299
v -1.422762 0.700560 -0.125962
v -1.422762 0.700560 -0.151093
v -1.864589 0.700560 -1.083570
v -1.889619 0.700560 -1.083570
v -0.754272 0.700560 -1.058299
v -0.754272 0.700560 -1.083570
v -1.160742 0.700560 -0.125962
v -1.160742 0.700560 -0.151093
v -0.755548 0.700560 -0.125962
v -0.755548 0.700560 -0.151093
v -0.728927 0.700560 -0.090719
v -0.754220 0.700560 -0.090719
v -0.728927 0.700560 -0.125984
v -0.754220 0.700560 -0.125984
v -0.728986 0.700560 -1.058299
v -0.728986 0.700560 -1.083570
v 0.363676 0.700560 -1.058299
v 0.363676 0.700560 -1.083570
v 1.478076 0.700560 -0.116100
v 1.452566 0.700560 -0.116100
v 1.478076 0.700560 -0.126105
v 1.452566 0.700560 -0.126105
v 1.478076 0.700560 -0.150991
v 1.452566 0.700560 -0.150991
v -0.728927 0.700560 -0.151071
v -0.754220 0.700560 -0.151071
v -0.728927 0.700560 -0.168780
v -0.754220 0.700560 -0.168780
v -0.665072 0.700560 -0.125984
v -0.665072 0.700560 -0.151071
v -0.420979 0.700560 -0.125984
v -0.420979 0.700560 -0.151071
v 0.363676 0.700560 -0.151307
v 0.363676 0.700560 -0.126391
v 0.388888 0.700560 -1.058299
v 0.388888 0.700560 -1.083570
v 1.452014 0.700560 -1.058299
v 1.452014 0.700560 -1.083570
v 0.363676 0.700560 -0.151307
v 0.388888 0.700560 -0.151307
v 0.363676 0.700560 -0.126391
v 0.388888 0.700560 -0.126391
v 0.363676 0.700560 -0.126391
v 0.388888 0.700560 -0.126391
v 1.478117 0.700560 -1.058299
v 1.478117 0.700560 -1.083570
v 1.452014 0.700560 -0.633893
v 1.478117 0.700560 -0.633893
v -1.527418 0.700560 0.987135
v -1.079496 0.700560 0.963254
v -0.416638 0.700560 0.987135
v 0.125586 0.700560 0.963254
v -0.416638 0.222646 0.987135
v -0.416638 0.222646 0.963254
v 0.125586 0.222646 0.987135
v 0.125586 0.222646 0.963254
v -0.416638 0.500895 0.987135
v -0.416638 0.500895 0.963254
v 0.125586 0.500895 0.987135
v 0.125586 0.500895 0.963254
v -0.416638 0.700935 0.987135
v -0.416638 0.700935 0.963254
v 0.125586 0.700935 0.987135
v 0.125586 0.700935 0.963254
v -1.527418 0.178700 1.030671
v -1.527418 0.178700 0.918092
v -1.079496 0.178700 1.030671
v -1.079496 0.178700 0.918092
v -1.527418 0.489746 0.987135
v -1.527418 0.489746 0.963254
v -1.079496 0.489746 0.987135
v -1.079496 0.489746 0.963254
v -1.527418 0.698815 0.987135
v -1.527418 0.698815 0.963254
v -1.079496 0.698815 0.987135
v -1.079496 0.698815 0.963254
v -1.422762 0.602836 -0.125962
v -1.422762 0.602836 -0.151093
v -1.160742 0.602836 -0.125962
v -1.160742 0.602836 -0.151093
v -1.422762 0.701759 -0.125962
v -1.422762 0.701759 -0.151093
v -1.160742 0.701759 -0.125962
v -1.160742 0.701759 -0.151093
v -0.728927 0.602836 0.150104
v -0.754220 0.602836 0.150104
v -0.728927 0.602836 -0.090719
v -0.754220 0.602836 -0.090719
v -0.728927 0.702836 0.150104
v -0.754220 0.702836 0.150104
v -0.728927 0.702836 -0.090719
v -0.754220 0.702836 -0.090719
v -0.665072 0.602836 -0.125984
v -0.665072 0.602836 -0.151071
v -0.420979 0.602836 -0.125984
v -0.420979 0.602836 -0.151071
v -0.665072 0.702836 -0.125984
v -0.665072 0.702836 -0.151071
v -0.420979 0.702836 -0.125984
v -0.420979 0.702836 -0.151071
v 1.478076 0.602836 0.128191
v 1.452566 0.602836 0.128191
v 1.478076 0.602836 -0.116100
v 1.452566 0.602836 -0.116100
v 1.478076 0.702836 0.128191
v 1.452566 0.702836 0.128191
v 1.478076 0.702836 -0.116100
v 1.452566 0.702836 -0.116100
v 1.452566 0.198766 -0.150991
v 1.452566 0.198766 -0.126105
v -1.527418 0.178002 0.987135
v -1.527418 0.178002 0.963254
v -1.079496 0.178002 0.987135
v -1.079496 0.178002 0.963254
v -1.527418 0.489746 1.056521
v -1.079496 0.489746 1.056521
v -1.527418 0.178002 1.056521
v -1.079496 0.178002 1.056521
v -0.416638 0.222646 1.061884
v 0.125586 0.222646 1.061884
v -0.416638 0.500895 1.061884
v 0.125586 0.500895 1.061884
v -0.416638 0.002836 0.963254
v 0.125586 0.002836 0.963254
v -0.416638 0.222646 0.909382
v 0.125586 0.222646 0.909382
v 0.096847 0.374064 1.079079
v 1.478084 0.002836 -0.252401
v 1.452450 0.002836 -0.252401
v 1.478084 0.700560 -0.252401
v 1.452450 0.700560 -0.252401
v 1.478095 0.002836 -0.374712
v 1.478095 0.700560 -0.374712
v 1.452311 0.002836 -0.374712
v 1.452311 0.700560 -0.374712
v -0.754220 0.199064 -0.151071
v -0.754220 0.199064 -0.168780
v -0.754272 0.199064 -1.058299
v -1.864589 0.199064 -1.058299
v 0.388888 0.199064 -0.126391
v 0.363676 0.199064 -0.126391
v -0.728927 0.199064 -0.168780
v -0.728927 0.199064 -0.151071
v -1.160742 0.199064 -0.125962
v -1.160742 0.199064 -0.151093
v 0.388888 0.199064 -0.126391
v 0.363676 0.199064 -0.126391
v -0.728986 0.199064 -1.058299
v -0.755548 0.199064 -0.151093
v -0.754220 0.199064 -0.125984
v -0.755548 0.199064 -0.125962
v 0.363676 0.199064 -0.126391
v -0.728927 0.199064 -0.090719
v -0.754220 0.199064 -0.090719
v 0.363676 0.199064 -0.151307
v 0.363676 0.199064 -0.151307
v -0.665072 0.199064 -0.151071
v -0.665072 0.199064 -0.125984
v 1.478117 0.199064 -1.083570
v 1.478117 0.199064 -1.058299
v 1.452014 0.199064 -1.083570
v -0.728927 0.199064 -0.125984
v -0.420979 0.199064 -0.125984
v -0.420979 0.199064 -0.151071
v -0.754272 0.199064 -1.083570
v -0.728986 0.199064 -1.083570
v -1.889619 0.199064 0.963254
v -1.889619 0.199064 -0.125962
v 1.478117 0.199064 -0.633893
v 1.452014 0.199064 -0.633893
v 1.452014 0.199064 -1.058299
v -1.864589 0.199064 -0.125962
v -1.864589 0.199064 0.963254
v 1.478076 0.199064 -0.150991
v 1.452566 0.199064 -0.126105
v 0.363676 0.199064 -1.083570
v -1.889619 0.199064 -0.151093
v 1.452566 0.199064 -0.150991
v 0.363676 0.199064 -1.058299
v 1.478076 0.199064 -0.116100
v 1.452566 0.199064 -0.116100
v -1.527418 0.199064 0.987135
v -1.864589 0.199064 0.987135
v 0.388888 0.199064 -1.083570
v -1.889619 0.199064 -1.058299
v -1.889619 0.199064 0.987135
v -1.527418 0.199064 0.963254
v -1.864589 0.199064 -0.151093
v -1.864589 0.199064 0.987135
v -1.889619 0.199064 0.987135
v 1.478076 0.199064 -0.126105
v -1.422762 0.199064 -0.151093
v -1.422762 0.199064 -0.125962
v 0.388888 0.199064 -1.058299
v -1.889619 0.199064 -1.083570
v -1.864589 0.199064 -1.083570
v 0.388888 0.199064 -0.151307
v 1.452450 0.199064 -0.252401
v 1.478084 0.199064 -0.252401
v 1.452311 0.199064 -0.374712
v 1.478095 0.199064 -0.374712
v 0.861726 0.002836 -0.374712
v 0.861866 0.002836 -0.252401
v 0.861866 0.199064 -0.252401
v 0.861726 0.199064 -0.374712
v 1.452450 0.232394 -0.208096
v 1.452311 0.232394 -0.419016
v 0.836158 0.232394 -0.208096
v 0.836018 0.232394 -0.419016
v 1.478076 0.522836 0.128191
v 1.452566 0.522836 0.128191
v 1.478076 0.522836 -0.116100
v 1.452566 0.522836 -0.116100
v -0.728927 0.522836 0.150104
v -0.754220 0.522836 0.150104
v -0.728927 0.522836 -0.090719
v -0.754220 0.522836 -0.090719
v -0.665072 0.522836 -0.125984
v -0.665072 0.522836 -0.151071
v -0.420979 0.522836 -0.125984
v -0.420979 0.522836 -0.151071
v -1.422762 0.522836 -0.125962
v -1.422762 0.522836 -0.151093
v -1.160742 0.522836 -0.125962
v -1.160742 0.522836 -0.151093
v -0.420822 0.502694 1.081785
v -0.420822 0.221939 1.081785
v 0.128777 0.502694 1.081785
v 0.128777 0.221939 1.081785
v -0.420822 0.221939 1.036467
v 0.128777 0.221939 1.036467
v 0.128777 0.502694 1.036467
v -0.420822 0.502694 1.036467
v -0.403428 0.487285 1.036467
v -0.420822 0.502694 1.036467
v -0.403428 0.230824 1.036467
v -0.420822 0.221939 1.036467
v 0.128777 0.502694 1.036467
v 0.111384 0.487285 1.036467
v 0.128777 0.221939 1.036467
v 0.111384 0.230824 1.036467
v 0.111384 0.230824 1.079806
v -0.403428 0.230824 1.079806
v 0.111384 0.487285 1.079806
v -0.403428 0.487285 1.079806
v -0.398026 0.489517 1.071612
v 0.096374 0.481895 1.066840
v -0.398026 0.227927 1.071612
v 0.096374 0.235550 1.066840
v 0.111296 0.489517 1.071612
v -0.383105 0.235550 1.066840
v 0.111296 0.227927 1.071612
v -0.383105 0.481895 1.066840
v -0.383105 0.481895 1.043362
v -0.398026 0.489517 1.044592
v -0.383105 0.235550 1.043362
v -0.398026 0.227927 1.044592
v 0.096374 0.481895 1.043362
v 0.111296 0.489517 1.044592
v 0.096374 0.235550 1.043362
v 0.111296 0.227927 1.044592
v -0.050708 0.480535 1.060460
v -0.050708 0.483615 1.046297
v -0.050708 0.234460 1.060461
v -0.050708 0.234460 1.046299
v -0.035400 0.480535 1.060460
v -0.035400 0.483615 1.046297
v -0.035400 0.234460 1.060461
v -0.035400 0.234460 1.046299
v -0.253689 0.482339 1.059383
v -0.253689 0.482339 1.045220
v -0.255013 0.234456 1.059384
v -0.255013 0.234456 1.045222
v -0.238381 0.480505 1.059383
v -0.238381 0.480505 1.045220
v -0.239705 0.234430 1.059384
v -0.239705 0.234430 1.045222
v 0.092731 0.465838 1.067632
v 0.092731 0.482307 1.054523
v 0.092731 0.464010 1.063389
v 0.092731 0.475276 1.045918
v -0.038721 0.475304 1.052476
v -0.038721 0.460510 1.064361
v 0.098536 0.475304 1.052476
v 0.098536 0.460510 1.064361
v -0.038721 0.475261 1.052474
v -0.038721 0.489592 1.065862
v 0.098536 0.475261 1.052474
v 0.098536 0.489592 1.065862
v -0.031784 0.458340 1.072276
v -0.038386 0.460287 1.064273
v -0.031784 0.448800 1.077304
v -0.038386 0.450748 1.062773
v 0.087943 0.458340 1.078805
v 0.097226 0.460287 1.064273
v 0.087943 0.448800 1.077304
v 0.097226 0.450748 1.062773
v -0.037805 0.439510 1.054879
v -0.037805 0.424717 1.066764
v 0.099452 0.439510 1.054879
v 0.099452 0.424717 1.066764
v -0.037805 0.439467 1.054877
v -0.037805 0.453798 1.068265
v 0.099452 0.439467 1.054877
v 0.099452 0.453798 1.068265
v -0.037812 0.424493 1.066677
v -0.037812 0.414954 1.065176
v 0.097799 0.424493 1.066677
v 0.097799 0.414954 1.065176
v -0.037751 0.400430 1.053402
v -0.037751 0.385636 1.065287
v 0.099506 0.400430 1.053402
v 0.099506 0.385636 1.065287
v -0.037751 0.400387 1.053400
v -0.037751 0.414718 1.066788
v 0.099506 0.400387 1.053400
v 0.099506 0.414718 1.066788
v -0.036138 0.385413 1.065200
v -0.036138 0.375874 1.063699
v 0.099473 0.385413 1.065200
v 0.099473 0.375874 1.063699
v -0.037455 0.361071 1.051334
v -0.037455 0.346277 1.063218
v 0.099803 0.361071 1.051334
v 0.099803 0.346277 1.063218
v -0.037455 0.361028 1.051331
v -0.037455 0.375359 1.064720
v 0.099803 0.361028 1.051331
v 0.099803 0.375359 1.064720
v -0.037287 0.346054 1.063131
v -0.037287 0.336515 1.061630
v 0.099809 0.346054 1.063131
v 0.099809 0.336515 1.061630
v -0.037134 0.323802 1.050164
v -0.037134 0.309009 1.062049
v 0.101607 0.323802 1.050164
v 0.101607 0.309009 1.062049
v -0.037134 0.323759 1.050162
v -0.037134 0.338090 1.063550
v 0.101607 0.323759 1.050162
v 0.101607 0.338090 1.063550
v -0.035478 0.308786 1.061962
v -0.035478 0.299246 1.060461
v 0.101617 0.308786 1.061962
v 0.101617 0.299246 1.060461
v -0.037365 0.284924 1.050175
v -0.037365 0.270130 1.062060
v 0.101376 0.284924 1.050175
v 0.101376 0.270130 1.062060
v -0.037365 0.284881 1.050172
v -0.037365 0.299212 1.063561
v 0.101376 0.284881 1.050172
v 0.101376 0.299212 1.063561
v -0.035710 0.269907 1.061972
v -0.035710 0.260368 1.060472
v 0.101386 0.269907 1.061972
v 0.101386 0.260368 1.060472
v -0.035708 0.249353 1.049097
v -0.035708 0.236226 1.060982
v 0.102109 0.249353 1.049097
v 0.102109 0.236226 1.060982
v -0.035862 0.249315 1.049095
v -0.035862 0.262033 1.062483
v 0.102109 0.249315 1.049095
v 0.102109 0.262033 1.062483
v -0.380218 0.466246 1.053877
v -0.380218 0.451547 1.065762
v -0.258845 0.466246 1.053877
v -0.258845 0.451547 1.065762
v -0.380218 0.466203 1.053875
v -0.380218 0.480441 1.067263
v -0.258845 0.466203 1.053875
v -0.258845 0.480441 1.067263
v -0.379883 0.451326 1.065675
v -0.380463 0.439704 1.074064
v -0.379883 0.441848 1.064174
v -0.260156 0.451326 1.065675
v -0.260736 0.439705 1.074064
v -0.260156 0.441848 1.064174
v -0.379302 0.430682 1.056280
v -0.379302 0.415984 1.068165
v -0.257929 0.430682 1.056280
v -0.257929 0.415984 1.068165
v -0.379302 0.430640 1.056278
v -0.379302 0.444878 1.069667
v -0.257929 0.430640 1.056278
v -0.257929 0.444878 1.069667
v -0.379309 0.415763 1.068078
v -0.379309 0.406285 1.066577
v -0.259582 0.415763 1.068078
v -0.259582 0.406285 1.066577
v -0.379248 0.391854 1.054803
v -0.379248 0.377156 1.066688
v -0.257875 0.391854 1.054803
v -0.257875 0.377156 1.066688
v -0.379248 0.391811 1.054801
v -0.379248 0.406050 1.068190
v -0.257875 0.391811 1.054801
v -0.257875 0.406050 1.068190
v -0.377635 0.376935 1.066601
v -0.377635 0.367456 1.065100
v -0.257908 0.376935 1.066601
v -0.257908 0.367456 1.065100
v -0.378951 0.352749 1.052735
v -0.378951 0.338051 1.064620
v -0.257579 0.352749 1.052735
v -0.257579 0.338051 1.064620
v -0.378951 0.352706 1.052733
v -0.378951 0.366945 1.066121
v -0.257579 0.352706 1.052733
v -0.257579 0.366945 1.066121
v -0.377300 0.337830 1.064532
v -0.377300 0.328351 1.063032
v -0.257573 0.337830 1.064532
v -0.257573 0.328351 1.063032
v -0.377147 0.315721 1.051565
v -0.377147 0.301023 1.063450
v -0.255774 0.315721 1.051565
v -0.255774 0.301023 1.063450
v -0.377147 0.315678 1.051563
v -0.377147 0.329917 1.064952
v -0.255774 0.315678 1.051563
v -0.255774 0.329917 1.064952
v -0.375491 0.300801 1.063363
v -0.375491 0.291323 1.061862
v -0.255764 0.300801 1.063363
v -0.255764 0.291323 1.061862
v -0.377378 0.277093 1.051576
v -0.377378 0.262395 1.063461
v -0.256006 0.277093 1.051576
v -0.256006 0.262395 1.063461
v -0.377378 0.277050 1.051574
v -0.377378 0.291289 1.064962
v -0.256006 0.277050 1.051574
v -0.256006 0.291289 1.064962
v -0.375723 0.262174 1.063374
v -0.375723 0.252695 1.061873
v -0.255996 0.262174 1.063373
v -0.255996 0.252696 1.061873
v -0.376645 0.234240 1.045857
v -0.376645 0.227130 1.057742
v -0.255272 0.234240 1.045857
v -0.255272 0.227130 1.057742
v -0.376645 0.241714 1.050496
v -0.376645 0.254350 1.063884
v -0.255272 0.241714 1.050496
v -0.255272 0.254350 1.063884
v -0.051742 0.378928 1.057535
v -0.051742 0.378928 1.044676
v -0.051742 0.361064 1.057535
v -0.051742 0.361064 1.044676
v -0.036767 0.378928 1.057535
v -0.036767 0.378928 1.044676
v -0.036767 0.361064 1.057535
v -0.036767 0.361064 1.044676
v -0.253308 0.377163 1.056167
v -0.253308 0.377163 1.043308
v -0.253308 0.359299 1.056167
v -0.253308 0.359299 1.043308
v -0.238334 0.377163 1.056167
v -0.238334 0.377163 1.043308
v -0.238334 0.359299 1.056167
v -0.238334 0.359299 1.043308
v -0.054115 0.370849 1.037312
v -0.053961 0.371523 1.037253
v -0.053507 0.372170 1.037196
v -0.052769 0.372768 1.037144
v -0.051776 0.373291 1.037099
v -0.050566 0.373720 1.037061
v -0.049185 0.374039 1.037033
v -0.047687 0.374236 1.037016
v -0.046129 0.374302 1.037010
v -0.044571 0.374236 1.037016
v -0.043074 0.374039 1.037033
v -0.041693 0.373720 1.037061
v -0.040483 0.373291 1.037099
v -0.039490 0.372768 1.037144
v -0.038752 0.372170 1.047666
v -0.038297 0.371523 1.047722
v -0.038144 0.370849 1.037312
v -0.038297 0.370175 1.037370
v -0.038752 0.369528 1.037427
v -0.039490 0.368931 1.037479
v -0.040483 0.368407 1.037525
v -0.041693 0.367978 1.037562
v -0.043074 0.367659 1.037590
v -0.044571 0.367462 1.037607
v -0.046129 0.367396 1.037613
v -0.047687 0.367462 1.037607
v -0.049185 0.367659 1.037590
v -0.050566 0.367978 1.037562
v -0.051776 0.368407 1.037525
v -0.052769 0.368931 1.037479
v -0.053507 0.369528 1.037427
v -0.053961 0.370175 1.037370
v -0.044752 0.370851 1.055823
v -0.253865 0.368614 1.038363
v -0.253712 0.369288 1.038304
v -0.253258 0.369936 1.038248
v -0.252519 0.370533 1.038195
v -0.251526 0.371056 1.038150
v -0.250316 0.371486 1.038112
v -0.248936 0.371805 1.038085
v -0.247438 0.372001 1.038067
v -0.245880 0.372068 1.038062
v -0.244322 0.372001 1.038067
v -0.242824 0.371805 1.038085
v -0.241443 0.371486 1.038112
v -0.240233 0.371056 1.038150
v -0.239240 0.370533 1.038195
v -0.238502 0.369936 1.038248
v -0.238048 0.369288 1.038304
v -0.237894 0.368614 1.038363
v -0.238048 0.367941 1.038422
v -0.238502 0.367293 1.038478
v -0.239240 0.366696 1.038530
v -0.240233 0.366173 1.038576
v -0.241443 0.365743 1.038614
v -0.242824 0.365424 1.038641
v -0.244322 0.365228 1.038658
v -0.245880 0.365161 1.038664
v -0.247438 0.365228 1.038658
v -0.248936 0.365424 1.038641
v -0.250316 0.365743 1.038614
v -0.251526 0.366173 1.038576
v -0.252519 0.366696 1.038530
v -0.253258 0.367293 1.038478
v -0.253712 0.367941 1.038422
v -0.419367 0.222221 1.038597
v -0.419367 0.222221 1.079286
v -0.235388 0.221939 1.036467
v -0.235388 0.502694 1.081785
v -0.235388 0.502694 1.036467
v -0.235388 0.221939 1.036467
v -0.229732 0.230824 1.036467
v -0.235388 0.502694 1.036467
v -0.229732 0.487285 1.036467
v -0.229732 0.487285 1.079806
v -0.053305 0.221939 1.036467
v -0.053305 0.502694 1.081785
v -0.053305 0.221939 1.036467
v -0.059174 0.487285 1.036467
v -0.059174 0.487285 1.079806
v -0.053305 0.502694 1.036467
v -0.059174 0.230824 1.036467
v -0.053305 0.502694 1.036467
v -0.420822 0.479537 1.081785
v 0.128777 0.479537 1.036467
v 0.128777 0.479537 1.081785
v -0.420822 0.479537 1.036467
v 0.128777 0.479537 1.036467
v 0.111384 0.466132 1.036467
v -0.420822 0.479537 1.036467
v -0.403428 0.466132 1.036467
v 0.111384 0.466132 1.079806
v -0.403428 0.466132 1.079806
v -0.044618 0.227927 1.071612
v -0.050404 0.481895 1.066840
v -0.050404 0.235550 1.066840
v -0.044618 0.489517 1.071612
v -0.050404 0.235550 1.043362
v -0.044618 0.227927 1.044592
v -0.050404 0.481895 1.043362
v -0.044618 0.489517 1.044592
v -0.241942 0.227927 1.071612
v -0.236166 0.481895 1.066840
v -0.241942 0.227927 1.044592
v -0.236166 0.481895 1.043362
v -0.236166 0.235550 1.066840
v -0.241942 0.489517 1.071612
v -0.236166 0.235550 1.043362
v -0.241942 0.489517 1.044592
v -0.398026 0.488550 1.071612
v -0.383105 0.480984 1.066840
v 0.111296 0.488550 1.071612
v 0.096374 0.480984 1.066840
v -0.383105 0.480984 1.043362
v -0.398026 0.488550 1.044592
v 0.096374 0.480984 1.043362
v 0.114286 0.488550 1.044592
v -0.383105 0.239306 1.066840
v 0.111296 0.231916 1.071612
v -0.383105 0.239306 1.043362
v 0.114286 0.231916 1.044592
v -0.398026 0.231916 1.071612
v 0.096374 0.239306 1.066840
v -0.398026 0.231916 1.044592
v 0.096374 0.239306 1.043362
v -0.419367 0.479820 1.038597
v -0.419367 0.479820 1.079286
v 0.132087 0.231064 1.066804
v 0.132087 0.500819 1.066804
v -0.418593 0.231064 1.066804
v -0.418593 0.500819 1.066804
v 0.132087 0.221179 1.081211
v 0.132087 0.500819 1.081211
v -0.418593 0.222897 1.081211
v -0.418593 0.500819 1.081211
v -0.231641 0.231064 1.066804
v -0.231641 0.500819 1.066804
v -0.231641 0.223634 1.081211
v -0.231641 0.500819 1.081211
v -0.049777 0.231064 1.066804
v -0.049777 0.500819 1.081211
v -0.049777 0.500819 1.066804
v -0.049777 0.221893 1.081211
v 0.132087 0.479610 1.066804
v -0.418593 0.479610 1.066804
v -0.418593 0.476279 1.081211
v 0.132087 0.479610 1.081211
v -0.231641 0.476279 1.081211
v -0.231641 0.479610 1.066804
v -0.049777 0.479610 1.066804
v -0.049777 0.476537 1.081211
v -0.418593 0.236511 1.066804
v -0.418593 0.236674 1.081211
v 0.132087 0.236511 1.081211
v -0.231641 0.236674 1.081211
v -0.231641 0.236511 1.066804
v -0.049777 0.236511 1.066804
v -0.049777 0.236511 1.081211
v 0.132087 0.236511 1.066804
v -0.050975 0.229273 1.047487
v -0.050969 0.229280 1.076557
v -0.050975 0.482935 1.047356
v -0.050969 0.482942 1.076427
v -0.055580 0.229273 1.049107
v -0.055574 0.229280 1.079920
v -0.055580 0.482935 1.048969
v -0.055574 0.482942 1.079782
v -0.219720 0.234978 1.076961
v -0.224611 0.234995 1.063450
v -0.217280 0.481050 1.077031
v -0.222171 0.481067 1.063520
v -0.269147 0.480262 1.069126
v -0.233234 0.480150 1.057526
v -0.235644 0.237055 1.057458
v -0.271558 0.237167 1.069057
v -0.230170 0.229835 1.048076
v -0.227610 0.483493 1.048271
v -0.219779 0.229793 1.073970
v -0.230422 0.229837 1.044574
v -0.217217 0.483450 1.074173
v -0.227859 0.483494 1.044777
v -0.229185 0.482973 1.077683
v -0.214794 0.482918 1.074379
v -0.237985 0.482973 1.048629
v -0.223594 0.482918 1.045325
v -0.230550 0.231069 1.077992
v -0.216158 0.231014 1.074687
v -0.239350 0.231069 1.048938
v -0.224959 0.231015 1.045633
v -0.232772 0.486470 1.072691
v -0.232772 0.235957 1.076336
v -0.213863 0.486470 1.077408
v -0.213862 0.245577 1.077408
v -0.232772 0.482573 1.040156
v -0.232772 0.235957 1.043801
v -0.213863 0.482573 1.052015
v -0.213862 0.245577 1.052015
v -0.388276 0.475474 1.049924
v -0.388276 0.460681 1.061809
v -0.251230 0.475474 1.049924
v -0.251230 0.460681 1.061809
v -0.388276 0.475431 1.049922
v -0.388276 0.489762 1.063311
v -0.251230 0.475431 1.049922
v -0.251230 0.489762 1.063311
v -0.387941 0.460458 1.061722
v -0.380030 0.448970 1.074753
v -0.387941 0.450918 1.060221
v -0.252541 0.460458 1.061722
v -0.260303 0.448970 1.074753
v -0.252541 0.450918 1.060221
v -0.387360 0.439680 1.052328
v -0.387360 0.424887 1.064212
v -0.250314 0.439680 1.052328
v -0.250314 0.424887 1.064212
v -0.387360 0.439637 1.052325
v -0.387360 0.453968 1.065714
v -0.250314 0.439637 1.052325
v -0.250314 0.453968 1.065714
v -0.387367 0.424664 1.064125
v -0.387367 0.415124 1.062625
v -0.251967 0.424664 1.064125
v -0.251967 0.415124 1.062625
v -0.387306 0.400600 1.050851
v -0.387306 0.385807 1.062735
v -0.250260 0.400600 1.050851
v -0.250260 0.385807 1.062735
v -0.387306 0.400557 1.050848
v -0.387306 0.414888 1.064237
v -0.250260 0.400557 1.050848
v -0.250260 0.414888 1.064237
v -0.385693 0.385584 1.062648
v -0.385693 0.376044 1.061148
v -0.250293 0.385584 1.062648
v -0.250293 0.376044 1.061147
v -0.387010 0.361241 1.048782
v -0.387010 0.346448 1.060667
v -0.249964 0.361241 1.048782
v -0.249964 0.346448 1.060667
v -0.387010 0.361198 1.048780
v -0.387010 0.375529 1.062168
v -0.249964 0.361198 1.048780
v -0.249964 0.375529 1.062168
v -0.385358 0.346225 1.060580
v -0.385358 0.336685 1.059079
v -0.249958 0.346225 1.060580
v -0.249958 0.336685 1.059079
v -0.385205 0.323973 1.047613
v -0.385205 0.309179 1.059497
v -0.248159 0.323973 1.047613
v -0.248159 0.309179 1.059497
v -0.385205 0.323930 1.047610
v -0.385205 0.338260 1.060999
v -0.248159 0.323930 1.047610
v -0.248159 0.338260 1.060999
v -0.383549 0.308956 1.059410
v -0.383549 0.299416 1.057909
v -0.248149 0.308956 1.059410
v -0.248149 0.299416 1.057909
v -0.385437 0.285094 1.047623
v -0.385437 0.270301 1.059508
v -0.248391 0.285094 1.047623
v -0.248391 0.270301 1.059508
v -0.385437 0.285051 1.047621
v -0.385437 0.299382 1.061009
v -0.248391 0.285051 1.047621
v -0.248391 0.299382 1.061009
v -0.383781 0.270078 1.059421
v -0.383781 0.260538 1.057920
v -0.248381 0.270078 1.059421
v -0.248381 0.260538 1.057920
v -0.384703 0.249524 1.046545
v -0.384703 0.236396 1.058430
v -0.247657 0.249524 1.046545
v -0.247657 0.236396 1.058430
v -0.384703 0.249485 1.046543
v -0.384703 0.262203 1.059932
v -0.247657 0.249485 1.046543
v -0.247657 0.262203 1.059932
v -0.216159 0.231234 1.064253
v -0.398023 0.231234 1.064253
v -0.398023 0.236682 1.064253
v -0.216159 0.236682 1.064253
v -0.418593 0.231064 1.066804
v -0.231641 0.231064 1.066804
v -0.422896 0.222714 1.060987
v -0.235944 0.222714 1.060987
v -1.533533 0.493514 1.081785
v -1.533533 0.172902 1.081785
v -1.069513 0.493514 1.081785
v -1.069513 0.172902 1.081785
v -1.533533 0.172902 1.036467
v -1.069513 0.172902 1.036467
v -1.069513 0.493514 1.036467
v -1.533533 0.493514 1.036467
v -1.518848 0.475918 1.036467
v -1.533533 0.493514 1.036467
v -1.518848 0.183049 1.036467
v -1.533533 0.172902 1.036467
v -1.069513 0.493514 1.036467
v -1.084198 0.475918 1.036467
v -1.069513 0.172902 1.036467
v -1.084198 0.183049 1.036467
v -1.084198 0.183049 1.079806
v -1.518848 0.183049 1.079806
v -1.084198 0.475918 1.079806
v -1.518848 0.475918 1.079806
v -1.514287 0.478467 1.071612
v -1.096870 0.469762 1.066840
v -1.514287 0.179741 1.071612
v -1.096870 0.188446 1.066840
v -1.084272 0.478467 1.071612
v -1.501689 0.188446 1.066840
v -1.084272 0.179741 1.071612
v -1.501689 0.469762 1.066840
v -1.501689 0.469762 1.043362
v -1.514287 0.478467 1.044592
v -1.501689 0.188446 1.043362
v -1.514287 0.179741 1.044592
v -1.096870 0.469762 1.043362
v -1.084272 0.478467 1.044592
v -1.096870 0.188446 1.043362
v -1.084272 0.179741 1.044592
v -1.221050 0.468210 1.060460
v -1.221050 0.468210 1.046297
v -1.221050 0.187201 1.060461
v -1.221050 0.187201 1.046299
v -1.208126 0.468210 1.060460
v -1.208126 0.468210 1.046297
v -1.208126 0.187201 1.060461
v -1.208126 0.187201 1.046299
v -1.392425 0.468205 1.059383
v -1.392425 0.468205 1.045220
v -1.393543 0.187197 1.059384
v -1.393543 0.187197 1.045222
v -1.379500 0.468175 1.059383
v -1.379500 0.468175 1.045220
v -1.380619 0.187167 1.059384
v -1.380618 0.187167 1.045222
v -1.099947 0.451426 1.067632
v -1.099947 0.470233 1.054523
v -1.206021 0.451426 1.067632
v -1.206021 0.470233 1.054523
v -1.099947 0.449339 1.063389
v -1.099947 0.462203 1.045918
v -1.206021 0.449339 1.063389
v -1.206021 0.462203 1.045918
v -1.211883 0.462236 1.052476
v -1.211883 0.445342 1.064361
v -1.093820 0.462236 1.052476
v -1.093820 0.445342 1.064361
v -1.211883 0.462186 1.052474
v -1.211883 0.478552 1.065862
v -1.093820 0.462186 1.052474
v -1.093820 0.478552 1.065862
v -1.205073 0.442863 1.072276
v -1.211600 0.445087 1.064273
v -1.205073 0.431969 1.077304
v -1.211600 0.434193 1.062773
v -1.103989 0.442863 1.078805
v -1.094926 0.445087 1.064273
v -1.103989 0.431969 1.077304
v -1.094926 0.434193 1.062773
v -1.211109 0.421360 1.054879
v -1.211109 0.404467 1.066764
v -1.093046 0.421360 1.054879
v -1.093046 0.404467 1.066764
v -1.211109 0.421311 1.054877
v -1.211109 0.437677 1.068265
v -1.093046 0.421311 1.054877
v -1.093046 0.437677 1.068265
v -1.211115 0.404212 1.066677
v -1.211115 0.393318 1.065176
v -1.094442 0.404212 1.066677
v -1.094442 0.393318 1.065176
v -1.211063 0.376732 1.053402
v -1.211063 0.359839 1.065287
v -1.093000 0.376732 1.053402
v -1.093000 0.359839 1.065287
v -1.211063 0.376683 1.053400
v -1.211063 0.393048 1.066788
v -1.093000 0.376683 1.053400
v -1.093000 0.393048 1.066788
v -1.209702 0.359584 1.065200
v -1.209702 0.348690 1.063699
v -1.093028 0.359584 1.065200
v -1.093028 0.348690 1.063699
v -1.210813 0.331786 1.051334
v -1.210813 0.314892 1.063218
v -1.092750 0.331786 1.051334
v -1.092750 0.314892 1.063218
v -1.210813 0.331737 1.051331
v -1.210813 0.348102 1.064720
v -1.092750 0.331737 1.051331
v -1.092750 0.348102 1.064720
v -1.209419 0.314638 1.063131
v -1.209419 0.303744 1.061630
v -1.092745 0.314638 1.063131
v -1.092745 0.303744 1.061630
v -1.209290 0.289227 1.050164
v -1.209290 0.272333 1.062049
v -1.091227 0.289227 1.050164
v -1.091227 0.272333 1.062049
v -1.209290 0.289177 1.050162
v -1.209290 0.305543 1.063550
v -1.091227 0.289177 1.050162
v -1.091227 0.305543 1.063550
v -1.207892 0.272078 1.061962
v -1.207892 0.261184 1.060461
v -1.091218 0.272078 1.061962
v -1.091218 0.261184 1.060461
v -1.209485 0.244829 1.050175
v -1.209485 0.227935 1.062060
v -1.091422 0.244829 1.050175
v -1.091422 0.227935 1.062060
v -1.209485 0.244780 1.050172
v -1.209485 0.261145 1.063561
v -1.091422 0.244780 1.050172
v -1.091422 0.261145 1.063561
v -1.208087 0.227681 1.061972
v -1.208087 0.216787 1.060472
v -1.091414 0.227681 1.061972
v -1.091414 0.216787 1.060472
v -1.208866 0.204209 1.049097
v -1.208866 0.189217 1.060982
v -1.090803 0.204209 1.049097
v -1.090803 0.189217 1.060982
v -1.208866 0.204165 1.049095
v -1.208866 0.218688 1.062483
v -1.090803 0.204165 1.049095
v -1.090803 0.218688 1.062483
v -1.499252 0.451891 1.053877
v -1.499252 0.435107 1.065762
v -1.396778 0.451891 1.053877
v -1.396778 0.435107 1.065762
v -1.499252 0.451843 1.053875
v -1.499252 0.468102 1.067263
v -1.396778 0.451843 1.053875
v -1.396778 0.468102 1.067263
v -1.498969 0.434854 1.065675
v -1.499459 0.421583 1.074064
v -1.498969 0.424030 1.064174
v -1.397885 0.434854 1.065675
v -1.398374 0.421583 1.074064
v -1.397885 0.424030 1.064174
v -1.498478 0.411280 1.056280
v -1.498478 0.394495 1.068165
v -1.396004 0.411280 1.056280
v -1.396004 0.394495 1.068165
v -1.498478 0.411231 1.056278
v -1.498478 0.427491 1.069667
v -1.396004 0.411231 1.056278
v -1.396004 0.427491 1.069667
v -1.498484 0.394242 1.068078
v -1.498484 0.383418 1.066577
v -1.397400 0.394242 1.068078
v -1.397400 0.383418 1.066577
v -1.498433 0.366939 1.054803
v -1.498433 0.350155 1.066688
v -1.395959 0.366939 1.054803
v -1.395959 0.350155 1.066688
v -1.498433 0.366890 1.054801
v -1.498433 0.383150 1.068190
v -1.395959 0.366890 1.054801
v -1.395959 0.383150 1.068190
v -1.497071 0.349902 1.066601
v -1.497071 0.339078 1.065100
v -1.395987 0.349902 1.066601
v -1.395987 0.339078 1.065100
v -1.498182 0.322283 1.052735
v -1.498182 0.305498 1.064620
v -1.395709 0.322283 1.052735
v -1.395709 0.305498 1.064620
v -1.498182 0.322234 1.052733
v -1.498182 0.338494 1.066121
v -1.395709 0.322234 1.052733
v -1.395709 0.338494 1.066121
v -1.496788 0.305245 1.064532
v -1.496788 0.294421 1.063032
v -1.395704 0.305245 1.064532
v -1.395704 0.294421 1.063032
v -1.496659 0.279998 1.051565
v -1.496659 0.263213 1.063450
v -1.394185 0.279998 1.051565
v -1.394185 0.263213 1.063450
v -1.496659 0.279949 1.051563
v -1.496659 0.296209 1.064952
v -1.394185 0.279949 1.051563
v -1.394185 0.296209 1.064952
v -1.495261 0.262960 1.063363
v -1.495261 0.252137 1.061862
v -1.394177 0.262960 1.063363
v -1.394177 0.252137 1.061862
v -1.496854 0.235887 1.051576
v -1.496854 0.219102 1.063461
v -1.394381 0.235887 1.051576
v -1.394381 0.219102 1.063461
v -1.496854 0.235838 1.051574
v -1.496854 0.252098 1.064962
v -1.394381 0.235838 1.051574
v -1.394381 0.252098 1.064962
v -1.495456 0.218849 1.063374
v -1.495456 0.208025 1.061873
v -1.394372 0.218849 1.063373
v -1.394372 0.208025 1.061873
v -1.496235 0.195485 1.050496
v -1.496235 0.209914 1.063884
v -1.393761 0.195485 1.050496
v -1.393761 0.209914 1.063884
v -1.221923 0.352178 1.057535
v -1.221923 0.352178 1.044676
v -1.221923 0.331779 1.057535
v -1.221923 0.331778 1.044676
v -1.209280 0.352178 1.057535
v -1.209280 0.352178 1.044676
v -1.209280 0.331779 1.057535
v -1.209280 0.331778 1.044676
v -1.392103 0.350162 1.056167
v -1.392103 0.350162 1.043308
v -1.392103 0.329762 1.056167
v -1.392103 0.329762 1.043308
v -1.379461 0.350162 1.056167
v -1.379461 0.350162 1.043308
v -1.379461 0.329762 1.056167
v -1.379461 0.329762 1.043308
v -1.223927 0.342952 1.037312
v -1.223797 0.343722 1.037253
v -1.223414 0.344461 1.037196
v -1.222791 0.345143 1.037144
v -1.221952 0.345741 1.037099
v -1.220930 0.346231 1.037061
v -1.219765 0.346595 1.037033
v -1.218500 0.346820 1.037016
v -1.217185 0.346896 1.037010
v -1.215869 0.346820 1.037016
v -1.214605 0.346595 1.037033
v -1.213439 0.346231 1.037061
v -1.212417 0.345741 1.037099
v -1.211579 0.345143 1.037144
v -1.210956 0.344461 1.047666
v -1.210572 0.343722 1.047722
v -1.210443 0.342952 1.037312
v -1.210572 0.342183 1.037370
v -1.210956 0.341443 1.037427
v -1.211579 0.340761 1.037479
v -1.212417 0.340164 1.037525
v -1.213439 0.339673 1.037562
v -1.214605 0.339309 1.037590
v -1.215869 0.339085 1.037607
v -1.217185 0.339009 1.037613
v -1.218500 0.339085 1.037607
v -1.219765 0.339309 1.037590
v -1.220930 0.339673 1.037562
v -1.221952 0.340164 1.037525
v -1.222791 0.340761 1.037479
v -1.223414 0.341443 1.037427
v -1.223797 0.342183 1.037370
v -1.216022 0.342955 1.055823
v -1.392574 0.340400 1.038363
v -1.392444 0.341170 1.038304
v -1.392061 0.341909 1.038248
v -1.391438 0.342591 1.038195
v -1.390599 0.343189 1.038150
v -1.389577 0.343679 1.038112
v -1.388412 0.344044 1.038085
v -1.387147 0.344268 1.038067
v -1.385832 0.344344 1.038062
v -1.384516 0.344268 1.038067
v -1.383252 0.344044 1.038085
v -1.382086 0.343679 1.038112
v -1.381064 0.343189 1.038150
v -1.380226 0.342591 1.038195
v -1.379603 0.341909 1.038248
v -1.379219 0.341170 1.038304
v -1.379090 0.340400 1.038363
v -1.379219 0.339631 1.038422
v -1.379603 0.338891 1.038478
v -1.380226 0.338210 1.038530
v -1.381064 0.337612 1.038576
v -1.382086 0.337122 1.038614
v -1.383252 0.336757 1.038641
v -1.384516 0.336533 1.038658
v -1.385832 0.336457 1.038664
v -1.387147 0.336533 1.038658
v -1.388412 0.336757 1.038641
v -1.389577 0.337122 1.038614
v -1.390599 0.337612 1.038576
v -1.391438 0.338210 1.038530
v -1.392061 0.338891 1.038478
v -1.392444 0.339631 1.038422
v -1.532305 0.173225 1.038597
v -1.532305 0.173225 1.079286
v -1.376974 0.172902 1.036467
v -1.376974 0.493514 1.081785
v -1.376974 0.493514 1.036467
v -1.376974 0.172902 1.036467
v -1.372198 0.183049 1.036467
v -1.376974 0.493514 1.036467
v -1.372198 0.475918 1.036467
v -1.372198 0.475918 1.079806
v -1.223243 0.172902 1.036467
v -1.223243 0.493514 1.081785
v -1.223243 0.172902 1.036467
v -1.228198 0.475918 1.036467
v -1.228198 0.475918 1.079806
v -1.223243 0.493514 1.036467
v -1.228198 0.183049 1.036467
v -1.223243 0.493514 1.036467
v -1.533533 0.467070 1.081785
v -1.069513 0.467070 1.036467
v -1.069513 0.467070 1.081785
v -1.533533 0.467070 1.036467
v -1.069513 0.467070 1.036467
v -1.084198 0.451762 1.036467
v -1.533533 0.467070 1.036467
v -1.518848 0.451762 1.036467
v -1.084198 0.451762 1.079806
v -1.518848 0.451762 1.079806
v -1.215909 0.179741 1.071612
v -1.220794 0.469762 1.066840
v -1.220794 0.188446 1.066840
v -1.215909 0.478467 1.071612
v -1.220794 0.188446 1.043362
v -1.215909 0.179741 1.044592
v -1.220794 0.469762 1.043362
v -1.215909 0.478467 1.044592
v -1.382507 0.179741 1.071612
v -1.377631 0.469762 1.066840
v -1.382507 0.179741 1.044592
v -1.377631 0.469762 1.043362
v -1.377631 0.188446 1.066840
v -1.382507 0.478467 1.071612
v -1.377631 0.188446 1.043362
v -1.382507 0.478467 1.044592
v -1.514287 0.477362 1.071612
v -1.501689 0.468722 1.066840
v -1.084272 0.477362 1.071612
v -1.096870 0.468722 1.066840
v -1.501689 0.468722 1.043362
v -1.514287 0.477362 1.044592
v -1.096870 0.468722 1.043362
v -1.084272 0.477362 1.044592
v -1.501689 0.192735 1.066840
v -1.084272 0.184296 1.071612
v -1.501689 0.192735 1.043362
v -1.084272 0.184296 1.044592
v -1.514287 0.184296 1.071612
v -1.096870 0.192735 1.066840
v -1.514287 0.184296 1.044592
v -1.096870 0.192735 1.043362
v -1.532305 0.467393 1.038597
v -1.532305 0.467393 1.079286
v -1.066719 0.183322 1.066804
v -1.066719 0.491373 1.066804
v -1.531652 0.183322 1.066804
v -1.531652 0.491373 1.066804
v -1.066719 0.172035 1.081211
v -1.066719 0.491373 1.081211
v -1.531652 0.173996 1.081211
v -1.531652 0.491373 1.081211
v -1.373810 0.183322 1.066804
v -1.373810 0.491373 1.066804
v -1.373810 0.174838 1.081211
v -1.373810 0.491373 1.081211
v -1.220265 0.183322 1.066804
v -1.220265 0.491373 1.081211
v -1.220265 0.491373 1.066804
v -1.220265 0.172850 1.081211
v -1.066719 0.467153 1.066804
v -1.531652 0.467153 1.066804
v -1.531652 0.463349 1.081211
v -1.066719 0.467153 1.081211
v -1.373810 0.463349 1.081211
v -1.373810 0.467153 1.066804
v -1.220265 0.467153 1.066804
v -1.220265 0.463643 1.081211
v -1.531652 0.189544 1.066804
v -1.531652 0.189729 1.081211
v -1.066719 0.189544 1.081211
v -1.373810 0.189729 1.081211
v -1.373810 0.187150 1.066804
v -1.220265 0.187150 1.066804
v -1.220265 0.189544 1.081211
v -1.066719 0.189544 1.066804
v -1.221276 0.181278 1.047487
v -1.221271 0.181286 1.076557
v -1.221276 0.470950 1.047356
v -1.221271 0.470958 1.076427
v -1.225164 0.181278 1.049107
v -1.225159 0.181286 1.079920
v -1.225164 0.470950 1.048969
v -1.225159 0.470958 1.079782
v -1.363746 0.187793 1.076961
v -1.367875 0.187813 1.063450
v -1.361685 0.468798 1.077031
v -1.365814 0.468817 1.063520
v -1.398149 0.467898 1.069126
v -1.374022 0.467770 1.057526
v -1.376057 0.190165 1.057458
v -1.400184 0.190293 1.069057
v -1.373559 0.181872 1.075809
v -1.372568 0.181920 1.048076
v -1.371398 0.471539 1.076004
v -1.370406 0.471587 1.048271
v -1.363795 0.181871 1.073970
v -1.372781 0.181921 1.044574
v -1.361632 0.471538 1.074173
v -1.370617 0.471588 1.044777
v -1.371737 0.470993 1.077683
v -1.359586 0.470931 1.074379
v -1.379166 0.470993 1.048629
v -1.367016 0.470931 1.045325
v -1.372889 0.183329 1.077992
v -1.360738 0.183266 1.074687
v -1.380319 0.183329 1.048938
v -1.368168 0.183266 1.045633
v -1.373791 0.474987 1.072691
v -1.373791 0.181815 1.072691
v -1.358800 0.474987 1.077408
v -1.358800 0.199896 1.077408
v -1.373791 0.474987 1.048189
v -1.373791 0.183714 1.048189
v -1.358800 0.474987 1.052015
v -1.358800 0.199896 1.052015
v -1.507660 0.462430 1.049924
v -1.507660 0.445537 1.061809
v -1.390114 0.462430 1.049924
v -1.390114 0.445537 1.061809
v -1.507660 0.462381 1.049922
v -1.507660 0.478746 1.063311
v -1.390114 0.462381 1.049922
v -1.390114 0.478746 1.063311
v -1.507377 0.445282 1.061722
v -1.499093 0.432164 1.074753
v -1.507377 0.434388 1.060221
v -1.391220 0.445282 1.061722
v -1.398009 0.432164 1.074753
v -1.391220 0.434388 1.060221
v -1.506886 0.421555 1.052328
v -1.506886 0.404661 1.064212
v -1.389340 0.421555 1.052328
v -1.389340 0.404661 1.064212
v -1.506886 0.421506 1.052325
v -1.506886 0.437871 1.065714
v -1.389340 0.421506 1.052325
v -1.389340 0.437871 1.065714
v -1.506893 0.404407 1.064125
v -1.506893 0.393513 1.062625
v -1.390736 0.404407 1.064125
v -1.390736 0.393513 1.062625
v -1.506841 0.376927 1.050851
v -1.506841 0.360033 1.062735
v -1.389294 0.376927 1.050851
v -1.389294 0.360033 1.062735
v -1.506841 0.376878 1.050848
v -1.506841 0.393243 1.064237
v -1.389294 0.376878 1.050848
v -1.389294 0.393243 1.064237
v -1.505479 0.359778 1.062648
v -1.505479 0.348885 1.061148
v -1.389322 0.359778 1.062648
v -1.389322 0.348885 1.061147
v -1.506591 0.331980 1.048782
v -1.506591 0.315087 1.060667
v -1.389044 0.331980 1.048782
v -1.389044 0.315087 1.060667
v -1.506591 0.331931 1.048780
v -1.506591 0.348297 1.062168
v -1.389044 0.331931 1.048780
v -1.389044 0.348297 1.062168
v -1.505196 0.314832 1.060580
v -1.505196 0.303938 1.059079
v -1.389039 0.314832 1.060580
v -1.389039 0.303938 1.059079
v -1.505067 0.289421 1.047613
v -1.505067 0.272528 1.059497
v -1.387520 0.289421 1.047613
v -1.387520 0.272528 1.059497
v -1.505067 0.289372 1.047610
v -1.505067 0.305737 1.060999
v -1.387520 0.289372 1.047610
v -1.387520 0.305737 1.060999
v -1.503669 0.272273 1.059410
v -1.503669 0.261379 1.057909
v -1.387512 0.272273 1.059410
v -1.387512 0.261379 1.057909
v -1.505262 0.245023 1.047623
v -1.505262 0.228130 1.059508
v -1.387716 0.245023 1.047623
v -1.387716 0.228130 1.059508
v -1.505262 0.244974 1.047621
v -1.505262 0.261340 1.061009
v -1.387716 0.244974 1.047621
v -1.387716 0.261340 1.061009
v -1.503865 0.227875 1.059421
v -1.503865 0.216981 1.057920
v -1.387708 0.227875 1.059421
v -1.387708 0.216981 1.057920
v -1.504643 0.204403 1.046545
v -1.504643 0.189412 1.058430
v -1.387097 0.204403 1.046545
v -1.387097 0.189412 1.058430
v -1.504643 0.204360 1.046543
v -1.504643 0.218882 1.059932
v -1.387097 0.204360 1.046543
v -1.387097 0.218882 1.059932
v -1.374619 0.183517 1.064253
v -1.514285 0.183517 1.064253
v -1.514285 0.189738 1.064253
v -1.374619 0.189738 1.064253
v -1.531652 0.183322 1.066804
v -1.373810 0.183322 1.066804
v -1.535284 0.173787 1.060987
v -1.377443 0.173787 1.060987
v -0.405897 0.227927 1.044592
v -0.405897 0.488550 1.044592
v -0.405897 0.231916 1.044592
v -0.035400 0.480535 1.074058
v -0.035400 0.234460 1.074059
v -0.253689 0.480531 1.074223
v -0.255013 0.234456 1.074224
v 0.111384 0.230824 1.051020
v 0.111296 0.227927 1.059145
v -0.059174 0.230824 1.051020
v -0.044618 0.227927 1.059145
v -0.229732 0.230824 1.048370
v -0.059174 0.230824 1.048370
v -0.403428 0.230824 1.051479
v -0.229732 0.230824 1.051479
v -1.084198 0.183049 1.053326
v -1.228198 0.183049 1.053326
v -1.372198 0.183049 1.054461
v -1.228198 0.183049 1.054461
v -1.518848 0.183049 1.063643
v -1.372198 0.183049 1.063643
v -1.524252 0.477362 1.045010
v -1.524252 0.184296 1.045010
v -1.208126 0.468210 1.075443
v -1.208126 0.187201 1.075444
vn -0.0000 -1.0000 -0.0000
vn -0.0000 1.0000 -0.0000
vn -1.0000 -0.0000 -0.0000
vn -0.0000 -0.0000 1.0000
vn 1.0000 -0.0000 -0.0000
vn -0.0000 -0.0000 -1.0000
vn -1.0000 -0.0000 0.0001
vn 1.0000 -0.0000 -0.0001
vn 0.0161 -0.0000 0.9999
vn 0.0160 -0.0000 -0.9999
vn -0.0003 -0.0000 -1.0000
vn 0.0005 -0.0000 1.0000
vn 1.0000 -0.0000 0.0001
vn -1.0000 -0.0000 0.0011
vn -0.0000 -0.2487 -0.9686
vn -0.0000 -0.2403 0.9707
vn -0.0000 -0.2380 -0.9713
vn -0.0000 -0.7991 0.6012
vn 1.0000 -0.0000 -0.0008
vn -0.7918 -0.6107 0.0007
vn -0.0000 -0.7991 -0.6012
vn 0.5430 0.8392 0.0300
vn -0.0822 -0.0000 -0.9966
vn -0.0000 -0.1593 -0.9872
vn 0.0430 0.0685 -0.9967
vn -0.0000 0.1594 -0.9872
vn -0.0000 0.9772 0.2125
vn -1.0000 0.0053 -0.0000
vn -0.0000 -0.0517 0.9987
vn -0.0000 -0.0516 0.9987
vn -0.0000 -0.6263 -0.7796
vn -0.0000 0.6827 -0.7307
vn -0.8516 0.0953 0.5155
vn -0.0000 -0.9911 -0.1328
vn 0.8448 -0.0831 0.5285
vn -0.0043 0.9855 0.1698
vn -0.0268 0.1818 0.9830
vn -0.0000 0.1554 -0.9879
vn -0.0000 -0.6711 -0.7413
vn -0.0000 0.7250 -0.6887
vn -0.8672 0.2359 0.4386
vn -0.7388 0.5521 0.3864
vn -0.5807 0.7461 0.3258
vn -0.4381 0.8555 0.2758
vn -0.3182 0.9174 0.2389
vn -0.2160 0.9530 0.2127
vn -0.1254 0.9728 0.1946
vn -0.0411 0.9822 0.1832
vn 0.0412 0.9833 0.1774
vn 0.1261 0.9761 0.1769
vn 0.2179 0.9588 0.1822
vn 0.3227 0.9263 0.1943
vn 0.4475 0.8680 0.2151
vn -0.1289 0.9895 0.0652
vn 0.6531 0.5071 0.5625
vn 0.1851 -0.9805 0.0662
vn 0.9260 -0.1822 0.3306
vn 0.7938 -0.5307 0.2971
vn 0.6189 -0.7428 0.2553
vn 0.4624 -0.8583 0.2225
vn 0.3331 -0.9213 0.2008
vn 0.2248 -0.9561 0.1881
vn 0.1299 -0.9746 0.1826
vn 0.0425 -0.9822 0.1831
vn -0.0425 -0.9810 0.1894
vn -0.1296 -0.9709 0.2015
vn -0.2239 -0.9493 0.2207
vn -0.3307 -0.9104 0.2485
vn -0.4567 -0.8418 0.2878
vn -0.6059 -0.7192 0.3401
vn 0.1542 0.0220 -0.9878
vn -0.7661 -0.5025 0.4007
vn -0.8806 -0.1618 0.4454
vn -0.0000 -0.0869 -0.9962
vn -0.0000 0.1593 -0.9872
vn -0.0000 -0.1594 -0.9872
vn 0.0685 -0.0000 -0.9976
vn 0.9939 -0.0000 0.1100
vn 0.9351 -0.3505 0.0517
vn 0.0636 -0.0245 -0.9977
vn 0.0016 0.8341 0.5516
vn -0.0017 0.8794 0.4760
vn 0.0041 0.8665 0.4992
vn -0.3073 0.0033 -0.9516
vn -0.9894 -0.0000 0.1451
vn -0.0000 -0.5716 0.8205
vn -0.0972 -0.0000 -0.9953
vn -0.0000 -0.1400 -0.9902
vn 0.0972 -0.0000 -0.9953
vn -0.0000 0.1400 -0.9902
vn -1.0000 0.0040 -0.0000
vn -0.0000 -0.0444 0.9990
vn -0.0000 -0.0452 0.9990
vn -0.0000 -0.5754 -0.8179
vn -0.0000 0.6332 -0.7740
vn -0.8551 0.0829 0.5117
vn -0.0000 -0.9885 -0.1513
vn 0.8512 -0.0716 0.5199
vn -0.0058 0.9812 0.1930
vn -0.0319 0.1598 0.9866
vn -0.0000 0.1365 -0.9906
vn -0.0000 -0.0460 0.9989
vn -0.0000 -0.6212 -0.7836
vn -0.0000 0.6778 -0.7352
vn -0.9043 0.1818 0.3862
vn -0.8165 0.4510 0.3605
vn -0.6856 0.6515 0.3248
vn -0.5450 0.7868 0.2897
vn -0.4101 0.8742 0.2600
vn -0.2847 0.9289 0.2367
vn -0.1675 0.9611 0.2196
vn -0.0554 0.9766 0.2080
vn 0.0555 0.9779 0.2014
vn 0.1685 0.9653 0.1997
vn 0.2877 0.9359 0.2031
vn 0.4166 0.8841 0.2117
vn 0.5572 0.7990 0.2262
vn -0.1731 0.9821 0.0739
vn 0.7336 0.4212 0.5334
vn 0.2466 -0.9662 0.0745
vn 0.9483 -0.1378 0.2858
vn 0.8625 -0.4265 0.2725
vn 0.7238 -0.6423 0.2521
vn 0.5729 -0.7859 0.2327
vn 0.4288 -0.8766 0.2182
vn 0.2964 -0.9318 0.2094
vn 0.1737 -0.9630 0.2060
vn 0.0571 -0.9765 0.2079
vn -0.0571 -0.9750 0.2149
vn -0.1731 -0.9583 0.2272
vn -0.2946 -0.9236 0.2452
vn -0.4248 -0.8643 0.2695
vn -0.5645 -0.7689 0.3002
vn -0.7080 -0.6215 0.3355
vn 0.1817 0.0191 -0.9832
vn -0.8362 -0.4054 0.3693
vn -0.9126 -0.1239 0.3897
vn -0.0000 -0.0762 -0.9971
vn 0.0021 0.7980 0.6027
vn -0.0023 0.8506 0.5258
vn 0.0054 0.8354 0.5496
vn -0.4333 0.0034 -0.9013
vn -0.0000 -0.5208 0.8537
vn -1.0000 0.0054 0.0003
vn -0.1483 -0.0069 -0.9889
vn -0.0004 -1.0000 0.0056
vn -0.0007 0.9896 0.1435
vn 0.0419 -0.0000 0.9991
vn 0.1529 -0.0003 -0.9882
vn 0.9993 -0.0000 -0.0378
vn -0.9252 0.0033 0.3795
vn -0.0006 -0.9854 0.1701
vn -0.0009 0.9693 0.2460
vn -0.9699 0.0038 -0.2434
vt 0.000000 0.000000
vt 0.000000 1.000000
vt 1.000000 1.000000
vt 1.000000 0.000000
vt 1.000000 0.210000
vt 1.000000 0.210000
vt 1.000000 0.210000
vt 1.000000 1.000000
vt 1.000000 0.463284
vt 1.000000 0.463284
vt 0.625000 0.667175
vt 0.875000 0.667175
vt 0.875000 0.750000
vt 0.625000 0.750000
vt 0.604380 0.750000
vt 0.625000 1.000000
vt 0.604380 1.000000
vt 0.625000 0.082825
vt 0.625000 0.000000
vt 0.625000 0.082825
vt 0.604380 0.250000
vt 0.625000 0.250000
vt 0.625000 0.500000
vt 0.604380 0.500000
vt 0.604380 0.000000
vt 0.375000 0.000000
vt 0.605258 0.000000
vt 0.375000 0.165650
vt 0.375000 0.250000
vt 0.375000 0.165650
vt 0.375000 0.082825
vt 0.382912 0.007912
vt 0.382912 0.085495
vt 0.617088 0.007912
vt 0.597773 0.007912
vt 0.382912 0.242088
vt 0.597774 0.242088
vt 0.625000 0.165650
vt 0.617088 0.242088
vt 0.617088 0.163077
vt 0.597773 0.007912
vt 0.597773 0.242088
vt 0.795551 0.507285
vt 0.867676 0.507285
vt 0.795551 0.507285
vt 0.375000 0.749075
vt 0.614111 0.749076
vt 0.614111 0.750000
vt 0.375000 0.750000
vt 0.375000 0.246188
vt 0.614111 0.246188
vt 0.614111 0.250000
vt 0.375000 0.423470
vt 0.614111 0.423470
vt 0.614111 0.500000
vt 0.375000 0.500000
vt 0.867676 0.510874
vt 0.875000 0.500000
vt 0.875000 0.503812
vt 0.704370 0.507285
vt 0.632324 0.507285
vt 0.701530 0.500000
vt 0.632324 0.741844
vt 0.632324 0.742715
vt 0.795551 0.742715
vt 0.867676 0.742715
vt 0.798386 0.750000
vt 0.375000 0.923386
vt 0.614111 0.923386
vt 0.614111 1.000000
vt 0.375000 1.000000
vt 0.632324 0.510874
vt 0.632324 0.510874
vt 0.867676 0.741845
vt 0.867676 0.741844
vt 0.704370 0.742715
vt 0.704370 0.742715
vt 0.125000 0.500000
vt 0.125000 0.750000
vt 0.750000 0.490000
vt 0.750000 0.250000
vt 0.796822 0.485388
vt 0.841844 0.471731
vt 0.883337 0.449553
vt 0.919706 0.419706
vt 0.949553 0.383337
vt 0.971731 0.341844
vt 0.985388 0.296822
vt 0.990000 0.250000
vt 0.985388 0.203178
vt 0.971731 0.158156
vt 0.949553 0.116663
vt 0.919706 0.080294
vt 0.883337 0.050447
vt 0.841844 0.028269
vt 0.796822 0.014612
vt 0.750000 0.010000
vt 0.703178 0.014612
vt 0.658156 0.028269
vt 0.616663 0.050447
vt 0.580294 0.080294
vt 0.550447 0.116663
vt 0.528269 0.158156
vt 0.514612 0.203178
vt 0.510000 0.250000
vt 0.514612 0.296822
vt 0.528269 0.341844
vt 0.550447 0.383337
vt 0.580294 0.419706
vt 0.616663 0.449553
vt 0.658156 0.471731
vt 0.250000 0.490000
vt 0.296822 0.485388
vt 0.341844 0.471731
vt 0.383337 0.449553
vt 0.419706 0.419706
vt 0.449553 0.383337
vt 0.471731 0.341844
vt 0.485388 0.296822
vt 0.490000 0.250000
vt 0.485388 0.203178
vt 0.471731 0.158156
vt 0.449553 0.116663
vt 0.419706 0.080294
vt 0.383337 0.050447
vt 0.341844 0.028269
vt 0.296822 0.014612
vt 0.250000 0.010000
vt 0.203178 0.014612
vt 0.158156 0.028269
vt 0.116663 0.050447
vt 0.080294 0.080294
vt 0.050447 0.116663
vt 0.028269 0.158156
vt 0.014612 0.203178
vt 0.010000 0.250000
vt 0.014612 0.296822
vt 0.028269 0.341844
vt 0.050447 0.383337
vt 0.080294 0.419706
vt 0.116663 0.449553
vt 0.158156 0.471731
vt 0.203178 0.485388
vt 0.703178 0.485388
vt 0.617088 0.085495
vt 0.617088 0.085495
vt 0.382912 0.163077
vt 0.875000 0.584350
vt 0.625000 0.584350
vt 0.614111 0.750000
vt 0.614111 0.826530
vt 0.375000 0.826530
vt 0.701530 0.750000
vt 0.798387 0.500000
vt 0.375000 0.326614
vt 0.614111 0.326613
vt 0.614111 0.250000
vt 0.867676 0.510874
vt 0.632324 0.741844
vt 0.614111 0.503812
vt 0.875000 0.749075
vt 0.614111 0.000000
vt 0.614111 0.000925
vt 0.375000 0.000925
vt 0.375000 0.503812
vt 0.614111 0.500000
vt 0.605344 0.165127
vt 0.625000 0.165127
vt 0.605344 0.250000
vt 0.605344 0.500000
vt 0.605344 0.667437
vt 0.625000 0.667437
vt 0.605344 0.750000
vt 0.605344 1.000000
vt 0.125000 0.667437
vt 0.375000 0.667437
vt 0.875000 0.667437
vt 0.875000 0.584873
vt 0.625000 0.584873
vt 0.375000 0.584873
vt 0.125000 0.584873
vt 0.605344 0.584873
vt 0.605344 0.082563
vt 0.625000 0.082563
vt 0.605344 0.000000
vt 0.380049 0.000000
vt 0.380049 0.082563
vt 0.380049 0.500000
vt 0.380049 0.584873
vt 0.380049 0.750000
vt 0.380049 1.000000
vt 0.380049 0.667437
vt 0.380049 0.250000
vt 0.380049 0.165127
vt 0.375000 0.165127
vt 0.375000 0.082563
s 0
usemtl Material.001
f 1/1/1 3/2/1 4/3/1 2/4/1
f 2/4/1 6/4/1 5/1/1 1/1/1
f 6/4/2 8/4/2 7/1/2 5/1/2
f 76/4/1 9/4/1 10/4/1 75/4/1
f 9/4/1 11/4/1 12/4/1 10/4/1
f 80/4/1 13/4/1 14/4/1 79/4/1
f 9/4/1 15/4/1 16/4/1 11/4/1
f 13/4/1 17/4/1 18/4/1 14/4/1
f 13/4/1 19/4/1 20/4/1 17/4/1
f 3/2/1 21/2/1 22/3/1 4/3/1
f 21/2/1 23/2/1 24/3/1 22/3/1
f 22/3/1 26/3/1 25/3/1 4/3/1
f 23/2/1 27/2/1 28/3/1 24/3/1
f 28/3/1 30/3/1 29/3/1 24/3/1
f 32/3/1 34/3/1 33/3/1 31/3/1
f 35/4/1 37/4/1 38/4/1 36/4/1
f 30/3/1 40/3/1 39/3/1 29/3/1
f 40/3/1 42/3/1 41/3/1 39/3/1
f 43/4/1 45/4/1 46/4/1 44/4/1
f 45/4/1 47/4/1 48/4/1 46/4/1
f 37/4/1 49/4/1 50/4/1 38/4/1
f 49/4/1 51/4/1 52/4/1 50/4/1
f 29/3/1 39/3/1 52/4/1 51/4/1
f 37/4/1 33/3/1 34/3/1 49/4/1
f 50/4/1 54/4/1 53/4/1 38/4/1
f 68/3/1 55/4/1 56/4/1 67/3/1
f 42/3/1 58/3/1 57/3/1 41/3/1
f 58/3/1 60/3/1 59/3/1 57/3/1
f 57/3/1 62/3/1 61/3/1 41/3/1
f 62/3/1 64/3/1 63/3/1 61/3/1
f 64/3/2 66/3/2 65/3/2 63/3/2
f 63/3/2 68/3/2 67/3/2 61/3/2
f 60/3/1 70/3/1 69/3/1 59/3/1
f 69/3/1 72/3/1 71/3/1 59/3/1
f 236/5/1 48/4/1 47/4/1 237/6/1
f 2/4/1 73/4/1 74/4/1 6/4/1
f 83/4/2 82/1/2 85/1/2 86/4/2
f 11/4/1 77/4/1 78/4/1 12/4/1
f 82/1/2 83/4/2 84/3/2 81/2/2
f 86/4/2 85/1/2 87/1/2 88/4/2
f 158/4/2 92/4/2 89/4/2 90/4/2
f 90/4/2 89/4/2 93/4/2 94/4/2
f 160/4/2 98/4/2 95/4/2 96/4/2
f 90/4/2 94/4/2 99/4/2 100/4/2
f 96/4/2 95/4/2 101/4/2 102/4/2
f 96/4/2 102/4/2 103/4/2 104/4/2
f 81/2/2 84/3/2 105/3/2 106/2/2
f 106/2/2 105/3/2 107/3/2 108/2/2
f 105/3/2 84/3/2 109/3/2 110/3/2
f 108/2/2 107/3/2 111/3/2 112/2/2
f 111/3/2 107/3/2 113/3/2 114/3/2
f 116/3/2 115/3/2 117/3/2 118/3/2
f 120/4/2 119/4/2 121/4/2 122/4/2
f 114/3/2 113/3/2 123/3/2 124/3/2
f 124/3/2 123/3/2 125/3/2 126/3/2
f 128/4/2 127/4/2 129/4/2 130/4/2
f 130/4/2 129/4/2 131/4/2 132/4/2
f 122/4/2 121/4/2 133/4/2 134/4/2
f 134/4/2 133/4/2 135/4/2 136/4/2
f 113/3/2 136/4/2 135/4/2 123/3/2
f 122/4/2 134/4/2 118/3/2 117/3/2
f 133/4/2 121/4/2 137/4/2 138/4/2
f 142/3/2 141/3/2 140/4/2 139/4/2
f 283/4/3 130/4/3 132/4/3 286/4/3
f 126/3/2 125/3/2 143/3/2 144/3/2
f 144/3/2 143/3/2 145/3/2 146/3/2
f 143/3/2 125/3/2 147/3/2 148/3/2
f 148/3/2 147/3/2 149/3/2 150/3/2
f 150/3/2 149/3/2 151/3/2 152/3/2
f 149/3/2 147/3/2 141/3/2 142/3/2
f 146/3/2 145/3/2 153/3/2 154/3/2
f 153/3/2 145/3/2 155/3/2 156/3/2
f 238/5/2 239/7/2 132/4/2 131/4/2
f 83/4/2 86/4/2 157/4/2 91/4/2
f 94/4/2 93/4/2 159/4/2 97/4/2
f 245/4/3 244/4/3 134/4/3 136/4/3
f 247/8/4 246/3/4 113/3/4 107/3/4
f 249/3/4 248/3/4 152/3/4 151/3/4
f 251/4/5 250/4/5 135/4/5 133/4/5
f 253/3/3 252/3/3 115/3/3 116/3/3
f 77/4/6 11/4/6 94/4/6 97/4/6
f 248/3/2 254/3/2 150/3/2 152/3/2
f 246/3/7 245/4/7 136/4/7 113/3/7
f 79/4/4 14/4/4 95/4/4 98/4/4
f 255/3/2 249/3/2 151/3/2 149/3/2
f 250/4/8 256/3/8 123/3/8 135/4/8
f 257/3/6 253/3/6 116/3/6 118/3/6
f 16/4/6 15/4/6 100/4/6 99/4/6
f 259/3/9 258/4/9 122/4/9 117/3/9
f 252/3/4 259/3/4 117/3/4 115/3/4
f 15/4/3 9/4/3 90/4/3 100/4/3
f 260/3/2 255/3/2 149/3/2 142/3/2
f 244/4/10 257/3/10 118/3/10 134/4/10
f 262/4/4 261/4/4 119/4/4 120/4/4
f 11/4/5 16/4/5 99/4/5 94/4/5
f 264/3/2 263/3/2 141/3/2 147/3/2
f 266/4/5 265/4/5 138/4/5 137/4/5
f 18/4/5 17/4/5 102/4/5 101/4/5
f 268/3/5 267/3/5 154/3/5 153/3/5
f 265/4/6 251/4/6 133/4/6 138/4/6
f 258/4/3 262/4/3 120/4/3 122/4/3
f 267/3/6 269/3/6 146/3/6 154/3/6
f 270/4/4 266/4/4 137/4/4 121/4/4
f 261/4/5 270/4/5 121/4/5 119/4/5
f 14/4/4 18/4/4 101/4/4 95/4/4
f 272/4/3 271/4/3 139/4/3 140/4/3
f 20/4/6 19/4/6 104/4/6 103/4/6
f 263/3/11 272/4/11 140/4/11 141/3/11
f 274/3/6 273/3/6 114/3/6 124/3/6
f 19/4/3 13/4/3 96/4/3 104/4/3
f 276/2/3 275/1/3 82/1/3 81/2/3
f 277/3/5 268/3/5 153/3/5 156/3/5
f 271/4/12 260/3/12 142/3/12 139/4/12
f 17/4/5 20/4/5 103/4/5 102/4/5
f 279/3/3 278/3/3 155/3/3 145/3/3
f 281/4/5 280/3/5 84/3/5 83/4/5
f 309/9/13 277/3/13 156/3/13 241/9/13
f 284/3/6 274/3/6 124/3/6 126/3/6
f 285/2/3 276/2/3 81/2/3 106/2/3
f 306/6/14 286/4/14 132/4/14 239/7/14
f 256/3/4 287/3/4 125/3/4 123/3/4
f 289/4/4 288/4/4 127/4/4 128/4/4
f 291/4/4 290/4/4 157/4/4 86/4/4
f 292/3/6 284/3/6 126/3/6 144/3/6
f 293/2/3 285/2/3 106/2/3 108/2/3
f 275/1/3 294/1/3 85/1/3 82/1/3
f 290/4/5 295/4/5 91/4/5 157/4/5
f 283/4/3 289/4/3 128/4/3 130/4/3
f 296/3/5 247/8/5 107/3/5 105/3/5
f 298/1/4 297/4/4 88/4/4 87/1/4
f 288/4/5 299/4/5 129/4/5 127/4/5
f 301/3/5 300/3/5 110/3/5 109/3/5
f 297/4/2 291/4/2 86/4/2 88/4/2
f 9/4/6 76/4/6 158/4/6 90/4/6
f 269/3/6 292/3/6 144/3/6 146/3/6
f 300/3/6 296/3/6 105/3/6 110/3/6
f 294/1/2 298/1/2 87/1/2 85/1/2
f 76/4/3 75/4/3 92/4/3 158/4/3
f 302/3/4 279/3/4 145/3/4 143/3/4
f 280/3/4 301/3/4 109/3/4 84/3/4
f 299/4/5 282/4/5 131/4/5 129/4/5
f 304/3/6 303/2/6 112/2/6 111/3/6
f 295/4/6 281/4/6 83/4/6 91/4/6
f 12/4/4 78/4/4 159/4/4 93/4/4
f 305/3/5 302/3/5 143/3/5 148/3/5
f 303/2/3 293/2/3 108/2/3 112/2/3
f 75/4/4 10/4/4 89/4/4 92/4/4
f 78/4/5 77/4/5 97/4/5 159/4/5
f 287/3/3 264/3/3 147/3/3 125/3/3
f 13/4/6 80/4/6 160/4/6 96/4/6
f 254/3/5 305/3/5 148/3/5 150/3/5
f 273/3/6 304/3/6 111/3/6 114/3/6
f 10/4/4 12/4/4 93/4/4 89/4/4
f 80/4/3 79/4/3 98/4/3 160/4/3
f 80/4/5 164/4/5 163/4/5 79/4/5
f 168/1/1 230/1/1 229/1/1 166/1/1
f 79/1/4 163/1/4 161/1/4 78/1/4
f 78/4/3 161/4/3 162/4/3 77/4/3
f 80/4/5 232/4/5 234/4/5 164/4/5
f 166/1/6 170/1/6 172/1/6 168/1/6
f 164/4/5 168/4/5 167/4/5 163/4/5
f 161/4/3 165/4/3 166/4/3 162/4/3
f 172/4/2 170/4/2 169/4/2 171/4/2
f 165/4/3 169/4/3 170/4/3 166/4/3
f 167/1/4 171/1/4 169/1/4 165/1/4
f 168/4/5 172/4/5 171/4/5 167/4/5
f 73/4/3 74/4/3 173/4/3 174/4/3
f 176/1/2 174/1/2 173/4/2 175/1/2
f 76/1/15 73/1/15 174/1/15 176/1/15
f 75/4/5 76/4/5 176/4/5 175/4/5
f 74/1/16 75/1/16 175/1/16 173/1/16
f 177/1/4 179/1/4 183/1/4 181/1/4
f 184/4/2 182/4/2 181/4/2 183/4/2
f 178/4/3 177/4/3 181/4/3 182/4/3
f 180/1/6 178/1/6 182/1/6 184/1/6
f 179/4/5 180/4/5 184/4/5 183/4/5
f 187/1/4 185/1/4 330/1/4 332/1/4
f 185/1/4 187/1/4 191/1/4 189/1/4
f 26/3/5 186/3/5 185/3/5 25/3/5
f 31/3/3 187/3/3 188/3/3 32/3/3
f 36/4/4 195/4/4 196/4/4 35/4/4
f 189/3/2 191/3/2 192/3/2 190/3/2
f 186/3/3 185/3/3 189/3/3 190/3/3
f 188/1/6 186/1/6 190/1/6 192/1/6
f 187/3/5 188/3/5 192/3/5 191/3/5
f 193/1/5 195/1/5 199/1/5 197/1/5
f 196/4/6 195/4/6 324/4/6 325/4/6
f 15/4/6 194/4/6 193/4/6 16/4/6
f 202/1/6 204/1/6 329/1/6 327/1/6
f 200/4/2 198/4/2 197/4/2 199/4/2
f 195/4/6 196/4/6 200/4/6 199/4/6
f 196/1/3 194/1/3 198/1/3 200/1/3
f 194/4/4 193/4/4 197/4/4 198/4/4
f 204/1/6 202/1/6 206/1/6 208/1/6
f 54/4/5 202/4/5 201/4/5 53/4/5
f 55/4/5 56/4/5 204/4/5 203/4/5
f 206/4/2 205/4/2 207/4/2 208/4/2
f 203/4/5 204/4/5 208/4/5 207/4/5
f 201/1/4 203/1/4 207/1/4 205/1/4
f 202/4/3 201/4/3 205/4/3 206/4/3
f 19/4/6 210/4/6 209/4/6 20/4/6
f 209/1/5 211/1/5 215/1/5 213/1/5
f 209/4/4 210/4/4 319/4/4 318/4/4
f 44/4/6 43/4/6 212/4/6 211/4/6
f 214/4/2 213/4/2 215/4/2 216/4/2
f 210/4/4 209/4/4 213/4/4 214/4/4
f 212/1/3 210/1/3 214/1/3 216/1/3
f 211/4/6 212/4/6 216/4/6 215/4/6
f 45/4/5 47/4/5 217/4/5 218/4/5
f 220/1/1 222/1/1 221/4/1 219/1/1
f 177/4/3 178/4/3 220/4/3 219/4/3
f 178/1/1 180/1/1 224/1/1 223/1/1
f 180/4/5 179/4/5 221/4/5 222/4/5
f 180/4/3 222/4/3 226/4/3 224/4/3
f 222/1/2 220/1/2 225/1/2 226/1/2
f 220/4/5 178/4/5 223/4/5 225/4/5
f 166/4/5 229/4/5 227/4/5 162/4/5
f 162/1/2 227/1/2 228/1/2 164/1/2
f 164/4/3 228/4/3 230/4/3 168/4/3
f 231/1/17 233/1/17 234/1/17 232/1/17
f 164/1/2 234/1/2 233/1/2 162/1/2
f 77/1/2 231/1/2 232/1/2 80/1/2
f 162/4/3 233/4/3 231/4/3 77/4/3
f 308/10/14 306/6/14 239/7/14 243/10/14
f 282/4/13 307/5/13 238/5/13 131/4/13
f 241/9/2 243/10/2 239/7/2 238/5/2
f 240/9/1 236/5/1 237/6/1 242/10/1
f 72/3/1 240/9/1 242/10/1 71/3/1
f 156/3/2 155/3/2 243/10/2 241/9/2
f 278/3/14 308/10/14 243/10/14 155/3/14
f 307/5/13 309/9/13 241/9/13 238/5/13
f 236/5/13 240/9/13 309/9/13 307/5/13
f 71/3/14 242/10/14 308/10/14 278/3/14
f 48/4/13 236/5/13 307/5/13 282/4/13
f 312/6/18 306/6/18 314/6/18 316/6/18
f 30/3/6 28/3/6 304/3/6 273/3/6
f 64/3/5 62/3/5 305/3/5 254/3/5
f 41/3/3 61/3/3 264/3/3 287/3/3
f 27/2/3 23/2/3 293/2/3 303/2/3
f 62/3/5 57/3/5 302/3/5 305/3/5
f 73/4/6 2/4/6 281/4/6 295/4/6
f 28/3/6 27/2/6 303/2/6 304/3/6
f 46/4/5 48/4/5 282/4/5 299/4/5
f 4/3/4 25/3/4 301/3/4 280/3/4
f 57/3/4 59/3/4 279/3/4 302/3/4
f 5/1/2 7/1/2 298/1/2 294/1/2
f 26/3/6 22/3/6 296/3/6 300/3/6
f 60/3/6 58/3/6 292/3/6 269/3/6
f 8/4/2 6/4/2 291/4/2 297/4/2
f 25/3/5 26/3/5 300/3/5 301/3/5
f 44/4/5 46/4/5 299/4/5 288/4/5
f 7/1/4 8/4/4 297/4/4 298/1/4
f 22/3/5 24/3/5 247/8/5 296/3/5
f 45/4/3 43/4/3 289/4/3 283/4/3
f 74/4/5 73/4/5 295/4/5 290/4/5
f 1/1/3 5/1/3 294/1/3 275/1/3
f 23/2/3 21/2/3 285/2/3 293/2/3
f 58/3/6 42/3/6 284/3/6 292/3/6
f 6/4/4 74/4/4 290/4/4 291/4/4
f 43/4/4 44/4/4 288/4/4 289/4/4
f 39/3/4 41/3/4 287/3/4 256/3/4
f 237/6/14 47/4/14 286/4/14 306/6/14
f 21/2/3 3/2/3 276/2/3 285/2/3
f 42/3/6 40/3/6 274/3/6 284/3/6
f 240/9/13 72/3/13 277/3/13 309/9/13
f 2/4/5 4/3/5 280/3/5 281/4/5
f 59/3/3 71/3/3 278/3/3 279/3/3
f 55/4/12 68/3/12 260/3/12 271/4/12
f 72/3/5 69/3/5 268/3/5 277/3/5
f 3/2/3 1/1/3 275/1/3 276/2/3
f 40/3/6 30/3/6 273/3/6 274/3/6
f 67/3/11 56/4/11 272/4/11 263/3/11
f 56/4/3 55/4/3 271/4/3 272/4/3
f 36/4/5 38/4/5 270/4/5 261/4/5
f 38/4/4 53/4/4 266/4/4 270/4/4
f 70/3/6 60/3/6 269/3/6 267/3/6
f 37/4/3 35/4/3 262/4/3 258/4/3
f 54/4/6 50/4/6 251/4/6 265/4/6
f 69/3/5 70/3/5 267/3/5 268/3/5
f 53/4/5 54/4/5 265/4/5 266/4/5
f 61/3/2 67/3/2 263/3/2 264/3/2
f 35/4/4 36/4/4 261/4/4 262/4/4
f 49/4/10 34/3/10 257/3/10 244/4/10
f 68/3/2 63/3/2 255/3/2 260/3/2
f 31/3/4 33/3/4 259/3/4 252/3/4
f 33/3/9 37/4/9 258/4/9 259/3/9
f 34/3/6 32/3/6 253/3/6 257/3/6
f 52/4/8 39/3/8 256/3/8 250/4/8
f 63/3/2 65/3/2 249/3/2 255/3/2
f 29/3/7 51/4/7 245/4/7 246/3/7
f 66/3/2 64/3/2 254/3/2 248/3/2
f 32/3/3 31/3/3 252/3/3 253/3/3
f 50/4/5 52/4/5 250/4/5 251/4/5
f 65/3/4 66/3/4 248/3/4 249/3/4
f 24/3/4 29/3/4 246/3/4 247/8/4
f 51/4/3 49/4/3 244/4/3 245/4/3
f 45/4/3 283/4/3 286/4/3 47/4/3
f 310/10/14 311/6/14 312/6/14 313/10/14
f 308/10/6 242/10/6 310/10/6 313/10/6
f 242/10/1 237/6/1 311/6/1 310/10/1
f 237/6/4 306/6/4 312/6/4 311/6/4
f 314/6/2 315/10/2 317/10/2 316/6/2
f 306/6/19 308/10/19 315/10/19 314/6/19
f 313/10/20 312/6/20 316/6/20 317/10/20
f 308/10/21 313/10/21 317/10/21 315/10/21
f 318/4/1 319/4/1 321/1/1 320/4/1
f 210/1/3 212/1/3 321/1/3 319/1/3
f 212/4/6 211/4/6 320/4/6 321/4/6
f 211/1/5 209/1/5 318/1/5 320/1/5
f 324/1/1 322/1/1 323/4/1 325/1/1
f 194/1/3 196/1/3 325/1/3 323/1/3
f 193/4/4 194/4/4 323/4/4 322/4/4
f 195/1/5 193/1/5 322/1/5 324/1/5
f 326/4/1 327/4/1 329/1/1 328/4/1
f 204/4/5 203/4/5 328/4/5 329/4/5
f 203/1/4 201/1/4 326/1/4 328/1/4
f 201/4/3 202/4/3 327/4/3 326/4/3
f 332/1/1 330/1/1 331/3/1 333/1/1
f 185/3/3 186/3/3 331/3/3 330/3/3
f 186/1/6 188/1/6 333/1/6 331/1/6
f 188/3/5 187/3/5 332/3/5 333/3/5
usemtl fora
f 648/11/1 652/12/1 340/13/1 336/14/1
f 657/15/3 336/14/3 340/16/3 656/17/3
f 654/18/2 346/19/2 340/19/2 652/20/2
f 658/21/5 341/22/5 334/23/5 655/24/5
f 659/25/2 348/26/2 339/26/2 656/27/2
f 642/28/2 345/29/2 338/29/2 639/30/2
f 649/31/4 348/26/4 349/32/4 653/33/4
f 659/25/4 346/19/4 347/34/4 660/35/4
f 661/21/4 345/29/4 344/36/4 662/37/4
f 644/38/4 343/22/4 342/39/4 645/40/4
f 661/21/2 343/22/2 341/22/2 658/21/2
f 660/35/5 347/34/5 352/34/5 663/41/5
f 645/40/2 342/39/2 353/39/2 646/40/2
f 662/37/3 344/36/3 351/36/3 664/42/3
f 679/43/2 364/44/2 359/44/2 677/45/2
f 683/46/22 688/47/22 367/48/22 358/49/22
f 693/50/3 695/51/3 365/52/3 356/29/3
f 665/53/1 670/54/1 369/55/1 360/56/1
f 691/57/23 364/44/23 365/58/23 695/59/23
f 669/60/24 368/61/24 369/23/24 670/62/24
f 687/63/25 366/64/25 367/48/25 688/47/25
f 676/65/26 362/66/26 363/13/26 680/67/26
f 678/68/2 680/69/2 363/70/2 354/71/2
f 696/72/3 368/61/3 357/61/3 694/73/3
f 685/74/5 362/66/5 361/66/5 682/75/5
f 671/76/1 366/64/1 355/64/1 666/77/1
f 370/26/3 371/19/3 373/22/3 372/29/3
f 372/29/1 373/22/1 377/23/1 376/56/1
f 376/56/5 377/23/5 375/14/5 374/49/5
f 374/49/27 375/14/27 371/16/27 370/71/27
f 372/78/4 376/56/4 374/49/4 370/79/4
f 377/23/6 373/58/6 371/13/6 375/14/6
f 378/26/28 379/19/28 381/22/28 380/29/28
f 765/49/3 766/14/3 762/16/3 761/71/3
f 393/26/5 392/19/5 396/22/5 397/29/5
f 390/29/29 394/22/29 396/23/29 392/56/29
f 395/56/30 391/23/30 393/14/30 397/49/30
f 395/78/3 394/56/3 390/49/3 391/79/3
f 398/26/33 399/19/33 401/22/33 400/29/33
f 400/29/34 401/22/34 405/23/34 404/56/34
f 404/56/35 405/23/35 403/14/35 402/49/35
f 402/49/36 403/14/36 399/16/36 398/71/36
f 400/78/37 404/56/37 402/49/37 398/79/37
f 406/29/30 410/22/30 412/23/30 408/56/30
f 556/26/3 557/19/3 559/22/3 558/29/3
f 558/29/1 559/22/1 563/23/1 562/56/1
f 562/56/5 563/23/5 561/14/5 560/49/5
f 560/49/2 561/14/2 557/16/2 556/71/2
f 558/78/4 562/56/4 560/49/4 556/79/4
f 564/26/3 565/19/3 567/22/3 566/29/3
f 566/29/1 567/22/1 571/23/1 570/56/1
f 570/56/5 571/23/5 569/14/5 568/49/5
f 568/49/2 569/14/2 565/16/2 564/71/2
f 566/78/4 570/56/4 568/49/4 564/79/4
f 572/80/41 604/81/41 573/82/41
f 573/82/42 604/81/42 574/83/42
f 574/83/43 604/81/43 575/84/43
f 575/84/44 604/81/44 576/85/44
f 576/85/45 604/81/45 577/86/45
f 577/86/46 604/81/46 578/87/46
f 578/87/47 604/81/47 579/88/47
f 579/88/48 604/81/48 580/89/48
f 580/89/49 604/81/49 581/90/49
f 581/90/50 604/81/50 582/91/50
f 582/91/51 604/81/51 583/92/51
f 583/92/52 604/81/52 584/93/52
f 584/93/53 604/81/53 585/94/53
f 585/94/54 604/81/54 586/95/54
f 586/95/55 604/81/55 587/96/55
f 587/96/56 604/81/56 588/97/56
f 588/97/57 604/81/57 589/98/57
f 589/98/58 604/81/58 590/99/58
f 590/99/59 604/81/59 591/100/59
f 591/100/60 604/81/60 592/101/60
f 592/101/61 604/81/61 593/102/61
f 593/102/62 604/81/62 594/103/62
f 594/103/63 604/81/63 595/104/63
f 595/104/64 604/81/64 596/105/64
f 596/105/65 604/81/65 597/106/65
f 597/106/66 604/81/66 598/107/66
f 598/107/67 604/81/67 599/108/67
f 599/108/68 604/81/68 600/109/68
f 600/109/69 604/81/69 601/110/69
f 601/110/70 604/81/70 602/111/70
f 602/111/72 604/81/72 603/144/72
f 603/144/73 604/81/73 572/80/73
f 638/49/3 698/15/3 697/17/3 637/71/3
f 650/145/2 645/40/2 646/40/2 651/146/2
f 654/18/4 644/38/4 645/40/4 650/145/4
f 345/29/4 642/28/4 643/147/4 344/36/4
f 649/31/2 642/28/2 639/28/2 647/31/2
f 343/22/2 644/38/2 641/38/2 341/22/2
f 334/23/1 341/58/1 641/148/1 640/149/1
f 348/26/2 649/31/2 647/31/2 339/26/2
f 346/19/4 654/18/4 650/145/4 347/34/4
f 347/34/2 650/145/2 651/146/2 352/34/2
f 642/28/4 649/31/4 653/33/4 643/147/4
f 644/38/2 654/18/2 652/20/2 641/38/2
f 640/149/1 641/148/1 652/12/1 648/11/1
f 342/39/3 662/37/3 664/42/3 353/39/3
f 349/32/5 660/35/5 663/41/5 350/32/5
f 345/29/2 661/21/2 658/21/2 338/29/2
f 343/22/4 661/21/4 662/37/4 342/39/4
f 348/26/4 659/25/4 660/35/4 349/32/4
f 346/19/2 659/25/2 656/27/2 340/19/2
f 337/49/3 657/15/3 656/17/3 339/71/3
f 676/65/1 671/76/1 666/77/1 674/65/1
f 358/49/2 367/150/2 672/151/2 668/152/2
f 366/64/75 671/76/75 672/153/75 367/14/75
f 679/43/24 669/60/24 670/62/24 675/154/24
f 673/155/1 675/156/1 670/54/1 665/53/1
f 368/61/2 669/60/2 667/60/2 357/61/2
f 356/29/1 365/157/1 675/156/1 673/155/1
f 364/44/76 679/43/76 675/154/76 365/58/76
f 362/66/1 676/65/1 674/65/1 361/66/1
f 668/152/2 672/151/2 680/69/2 678/68/2
f 671/76/75 676/65/75 680/67/75 672/153/75
f 669/60/2 679/43/2 677/45/2 667/60/2
f 691/57/5 685/74/5 682/75/5 689/158/5
f 366/64/3 687/63/3 684/159/3 355/64/3
f 696/72/77 687/63/77 688/47/77 692/160/77
f 362/66/23 685/74/23 686/161/23 363/13/23
f 354/26/3 363/162/3 686/163/3 681/164/3
f 690/165/78 692/160/78 688/47/78 683/46/78
f 360/56/79 369/166/79 692/160/79 690/165/79
f 368/61/80 696/72/80 692/160/80 369/166/80
f 364/44/5 691/57/5 689/158/5 359/44/5
f 687/63/3 696/72/3 694/73/3 684/159/3
f 685/74/23 691/57/23 695/59/23 686/161/23
f 681/164/3 686/163/3 695/51/3 693/50/3
f 720/167/4 708/168/4 702/22/4 716/169/4
f 716/169/5 702/22/5 706/23/5 717/170/5
f 722/171/6 712/172/6 704/14/6 718/173/6
f 718/173/3 704/14/3 700/16/3 715/174/3
f 711/175/81 714/176/81 703/49/81 699/79/81
f 712/172/1 713/177/1 700/13/1 704/14/1
f 706/23/1 702/58/1 708/178/1 710/179/1
f 701/78/82 705/56/82 709/180/82 707/181/82
f 717/170/6 706/23/6 710/179/6 719/182/6
f 721/183/4 713/184/4 708/168/4 720/167/4
f 715/185/4 700/19/4 713/184/4 721/183/4
f 710/179/1 708/178/1 713/177/1 712/172/1
f 707/181/83 709/180/83 714/176/83 711/175/83
f 719/182/6 710/179/6 712/172/6 722/171/6
f 730/186/4 715/185/4 721/183/4 728/187/4
f 724/188/6 717/170/6 719/182/6 726/189/6
f 725/190/3 718/173/3 715/174/3 730/191/3
f 729/192/6 722/171/6 718/173/6 725/190/6
f 723/193/5 716/169/5 717/170/5 724/188/5
f 727/194/4 720/167/4 716/169/4 723/193/4
f 707/195/4 727/194/4 723/193/4 701/29/4
f 701/29/5 723/193/5 724/188/5 705/56/5
f 714/176/6 729/192/6 725/190/6 703/49/6
f 703/49/3 725/190/3 730/191/3 699/71/3
f 705/56/6 724/188/6 726/189/6 709/180/6
f 711/196/4 728/187/4 727/194/4 707/195/4
f 699/26/4 730/186/4 728/187/4 711/196/4
f 709/180/6 726/189/6 729/192/6 714/176/6
f 746/186/84 743/185/84 744/183/84 745/187/84
f 370/26/85 372/29/85 728/187/85 721/183/85
f 778/29/34 779/22/34 782/23/34 781/56/34
f 851/26/4 854/186/4 853/187/4 852/196/4
f 707/181/2 701/78/2 855/78/2 856/181/2
f 856/181/86 855/78/86 857/78/86 858/181/86
f 695/51/6 365/52/6 1386/52/6 1388/51/6
f 695/59/4 686/161/4 1387/161/4 1388/59/4
f 374/49/3 376/56/3 1390/56/3 1389/49/3
f 378/26/144 380/29/144 1392/29/144 1391/26/144
f 379/19/145 765/49/145 766/14/145 381/22/145
f 728/187/146 729/192/146 726/189/146 727/194/146
f 728/187/5 721/183/5 722/171/5 729/192/5
f 671/76/147 676/65/147 719/182/147 722/171/147
f 670/54/1 369/55/1 1394/55/1 1396/54/1
f 653/33/1 349/32/1 1393/32/1 1395/33/1
f 643/147/1 653/33/1 1398/33/1 1397/147/1
f 344/36/1 643/147/1 1400/147/1 1399/36/1
f 897/29/150 895/26/150 1247/171/150 1254/192/150
usemtl dentro
f 397/23/32 396/58/32 394/13/32 395/14/32
f 405/23/38 401/58/38 399/13/38 403/14/38
f 417/23/38 415/58/38 414/13/38 416/14/38
f 429/23/38 427/58/38 426/13/38 428/14/38
f 453/23/38 451/58/38 450/13/38 452/14/38
f 465/23/38 463/58/38 462/13/38 464/14/38
f 467/49/39 466/14/39 468/16/39 469/71/39
f 776/23/32 775/58/32 773/13/32 774/14/32
f 782/23/38 779/58/38 777/13/38 780/14/38
f 794/23/38 792/58/38 791/13/38 793/14/38
f 806/23/38 804/58/38 803/13/38 805/14/38
f 830/23/38 828/58/38 827/13/38 829/14/38
f 842/23/38 840/58/38 839/13/38 841/14/38
f 844/49/39 843/14/39 845/16/39 846/71/39
usemtl FORA2
f 391/49/31 390/14/31 392/16/31 393/71/31
f 407/49/31 406/14/31 408/16/31 409/71/31
f 413/23/32 412/58/32 410/13/32 411/14/32
f 419/49/31 418/14/31 420/16/31 421/71/31
f 425/23/32 424/58/32 422/13/32 423/14/32
f 431/49/31 430/14/31 432/16/31 433/71/31
f 437/23/32 436/58/32 434/13/32 435/14/32
f 441/23/38 439/58/38 438/13/38 440/14/38
f 443/49/31 442/14/31 444/16/31 445/71/31
f 449/23/32 448/58/32 446/13/32 447/14/32
f 455/49/31 454/14/31 456/16/31 457/71/31
f 461/23/32 460/58/32 458/13/32 459/14/32
f 473/23/40 472/58/40 470/13/40 471/14/40
f 770/49/31 769/14/31 771/16/31 772/71/31
f 784/49/31 783/14/31 785/16/31 786/71/31
f 790/23/32 789/58/32 787/13/32 788/14/32
f 796/49/31 795/14/31 797/16/31 798/71/31
f 802/23/32 801/58/32 799/13/32 800/14/32
f 808/49/31 807/14/31 809/16/31 810/71/31
f 814/23/32 813/58/32 811/13/32 812/14/32
f 818/23/38 816/58/38 815/13/38 817/14/38
f 820/49/31 819/14/31 821/16/31 822/71/31
f 826/23/32 825/58/32 823/13/32 824/14/32
f 832/49/31 831/14/31 833/16/31 834/71/31
f 838/23/32 837/58/32 835/13/32 836/14/32
f 850/23/40 849/58/40 847/13/40 848/14/40
usemtl TRINCO
f 563/23/6 559/58/6 557/13/6 561/14/6
f 571/23/6 567/58/6 565/13/6 569/14/6
usemtl bola
f 572/112/71 573/113/71 574/114/71 575/115/71 576/116/71 577/117/71 578/118/71 579/119/71 580/120/71 581/121/71 582/122/71 583/123/71 584/124/71 585/125/71 586/126/71 587/127/71 588/128/71 589/129/71 590/130/71 591/131/71 592/132/71 593/133/71 594/134/71 595/135/71 596/136/71 597/137/71 598/138/71 599/139/71 600/140/71 601/141/71 602/142/71 603/143/71
f 605/112/74 606/113/74 607/114/74 608/115/74 609/116/74 610/117/74 611/118/74 612/119/74 613/120/74 614/121/74 615/122/74 616/123/74 617/124/74 618/125/74 619/126/74 620/127/74 621/128/74 622/129/74 623/130/74 624/131/74 625/132/74 626/133/74 627/134/74 628/135/74 629/136/74 630/137/74 631/138/74 632/139/74 633/140/74 634/141/74 635/142/74 636/143/74
usemtl fora.002
f 1173/11/1 1177/12/1 865/13/1 861/14/1
f 1182/15/3 861/14/3 865/16/3 1181/17/3
f 1179/18/2 871/19/2 865/19/2 1177/20/2
f 1183/21/5 866/22/5 859/23/5 1180/24/5
f 1184/25/2 873/26/2 864/26/2 1181/27/2
f 1167/28/2 870/29/2 863/29/2 1164/30/2
f 1174/31/4 873/26/4 874/32/4 1178/33/4
f 1184/25/4 871/19/4 872/34/4 1185/35/4
f 1186/21/4 870/29/4 869/36/4 1187/37/4
f 1169/38/4 868/22/4 867/39/4 1170/40/4
f 1186/21/2 868/22/2 866/22/2 1183/21/2
f 1185/35/5 872/34/5 877/34/5 1188/41/5
f 1170/40/2 867/39/2 878/39/2 1171/40/2
f 1187/37/3 869/36/3 876/36/3 1189/42/3
f 1204/43/2 889/44/2 884/44/2 1202/45/2
f 1208/46/5 1213/47/5 892/48/5 883/49/5
f 1218/50/3 1220/51/3 890/52/3 881/29/3
f 1190/53/1 1195/54/1 894/55/1 885/56/1
f 1216/57/87 889/44/87 890/58/87 1220/59/87
f 1194/60/88 893/61/88 894/23/88 1195/62/88
f 1212/63/89 891/64/89 892/48/89 1213/47/89
f 1201/65/90 887/66/90 888/13/90 1205/67/90
f 1203/68/2 1205/69/2 888/70/2 879/71/2
f 1221/72/3 893/61/3 882/61/3 1219/73/3
f 1210/74/5 887/66/5 886/66/5 1207/75/5
f 1196/76/1 891/64/1 880/64/1 1191/77/1
f 895/26/3 896/19/3 898/22/3 897/29/3
f 897/29/1 898/22/1 902/23/1 901/56/1
f 901/56/5 902/23/5 900/14/5 899/49/5
f 899/49/2 900/14/2 896/16/2 895/71/2
f 897/78/4 901/56/4 899/49/4 895/79/4
f 902/23/6 898/58/6 896/13/6 900/14/6
f 903/26/91 904/19/91 906/22/91 905/29/91
f 1292/49/3 1293/14/3 1289/16/3 1288/71/3
f 922/26/5 921/19/5 925/22/5 926/29/5
f 919/29/92 923/22/92 925/23/92 921/56/92
f 924/56/93 920/23/93 922/14/93 926/49/93
f 924/78/3 923/56/3 919/49/3 920/79/3
f 927/26/96 928/19/96 930/22/96 929/29/96
f 929/29/97 930/22/97 934/23/97 933/56/97
f 933/56/98 934/23/98 932/14/98 931/49/98
f 931/49/99 932/14/99 928/16/99 927/71/99
f 929/78/100 933/56/100 931/49/100 927/79/100
f 935/29/102 939/22/102 941/23/102 937/56/102
f 1081/26/3 1082/19/3 1084/22/3 1083/29/3
f 1083/29/1 1084/22/1 1088/23/1 1087/56/1
f 1087/56/5 1088/23/5 1086/14/5 1085/49/5
f 1085/49/2 1086/14/2 1082/16/2 1081/71/2
f 1083/78/4 1087/56/4 1085/49/4 1081/79/4
f 1089/26/3 1090/19/3 1092/22/3 1091/29/3
f 1091/29/1 1092/22/1 1096/23/1 1095/56/1
f 1095/56/5 1096/23/5 1094/14/5 1093/49/5
f 1093/49/2 1094/14/2 1090/16/2 1089/71/2
f 1091/78/4 1095/56/4 1093/49/4 1089/79/4
f 1097/80/105 1129/81/105 1098/82/105
f 1098/82/106 1129/81/106 1099/83/106
f 1099/83/107 1129/81/107 1100/84/107
f 1100/84/108 1129/81/108 1101/85/108
f 1101/85/109 1129/81/109 1102/86/109
f 1102/86/110 1129/81/110 1103/87/110
f 1103/87/111 1129/81/111 1104/88/111
f 1104/88/112 1129/81/112 1105/89/112
f 1105/89/113 1129/81/113 1106/90/113
f 1106/90/114 1129/81/114 1107/91/114
f 1107/91/115 1129/81/115 1108/92/115
f 1108/92/116 1129/81/116 1109/93/116
f 1109/93/117 1129/81/117 1110/94/117
f 1110/94/118 1129/81/118 1111/95/118
f 1111/95/119 1129/81/119 1112/96/119
f 1112/96/120 1129/81/120 1113/97/120
f 1113/97/121 1129/81/121 1114/98/121
f 1114/98/122 1129/81/122 1115/99/122
f 1115/99/123 1129/81/123 1116/100/123
f 1116/100/124 1129/81/124 1117/101/124
f 1117/101/125 1129/81/125 1118/102/125
f 1118/102/126 1129/81/126 1119/103/126
f 1119/103/127 1129/81/127 1120/104/127
f 1120/104/128 1129/81/128 1121/105/128
f 1121/105/129 1129/81/129 1122/106/129
f 1122/106/130 1129/81/130 1123/107/130
f 1123/107/131 1129/81/131 1124/108/131
f 1124/108/132 1129/81/132 1125/109/132
f 1125/109/133 1129/81/133 1126/110/133
f 1126/110/134 1129/81/134 1127/111/134
f 1127/111/136 1129/81/136 1128/144/136
f 1128/144/137 1129/81/137 1097/80/137
f 1163/49/3 1223/15/3 1222/17/3 1162/71/3
f 1175/145/2 1170/40/2 1171/40/2 1176/146/2
f 1179/18/4 1169/38/4 1170/40/4 1175/145/4
f 870/29/4 1167/28/4 1168/147/4 869/36/4
f 1174/31/2 1167/28/2 1164/28/2 1172/31/2
f 868/22/2 1169/38/2 1166/38/2 866/22/2
f 859/23/1 866/58/1 1166/148/1 1165/149/1
f 873/26/2 1174/31/2 1172/31/2 864/26/2
f 871/19/4 1179/18/4 1175/145/4 872/34/4
f 872/34/2 1175/145/2 1176/146/2 877/34/2
f 1167/28/4 1174/31/4 1178/33/4 1168/147/4
f 1169/38/2 1179/18/2 1177/20/2 1166/38/2
f 1165/149/1 1166/148/1 1177/12/1 1173/11/1
f 867/39/3 1187/37/3 1189/42/3 878/39/3
f 874/32/5 1185/35/5 1188/41/5 875/32/5
f 870/29/2 1186/21/2 1183/21/2 863/29/2
f 868/22/4 1186/21/4 1187/37/4 867/39/4
f 873/26/4 1184/25/4 1185/35/4 874/32/4
f 871/19/2 1184/25/2 1181/27/2 865/19/2
f 862/49/3 1182/15/3 1181/17/3 864/71/3
f 1201/65/1 1196/76/1 1191/77/1 1199/65/1
f 883/49/2 892/150/2 1197/151/2 1193/152/2
f 891/64/90 1196/76/90 1197/153/90 892/14/90
f 1204/43/88 1194/60/88 1195/62/88 1200/154/88
f 1198/155/1 1200/156/1 1195/54/1 1190/53/1
f 893/61/2 1194/60/2 1192/60/2 882/61/2
f 881/29/1 890/157/1 1200/156/1 1198/155/1
f 889/44/88 1204/43/88 1200/154/88 890/58/88
f 887/66/1 1201/65/1 1199/65/1 886/66/1
f 1193/152/2 1197/151/2 1205/69/2 1203/68/2
f 1196/76/90 1201/65/90 1205/67/90 1197/153/90
f 1194/60/2 1204/43/2 1202/45/2 1192/60/2
f 1216/57/5 1210/74/5 1207/75/5 1214/158/5
f 891/64/3 1212/63/3 1209/159/3 880/64/3
f 1221/72/89 1212/63/89 1213/47/89 1217/160/89
f 887/66/87 1210/74/87 1211/161/87 888/13/87
f 879/26/3 888/162/3 1211/163/3 1206/164/3
f 1215/165/5 1217/160/5 1213/47/5 1208/46/5
f 885/56/5 894/166/5 1217/160/5 1215/165/5
f 893/61/89 1221/72/89 1217/160/89 894/166/89
f 889/44/5 1216/57/5 1214/158/5 884/44/5
f 1212/63/3 1221/72/3 1219/73/3 1209/159/3
f 1210/74/87 1216/57/87 1220/59/87 1211/161/87
f 1206/164/3 1211/163/3 1220/51/3 1218/50/3
f 1245/167/4 1233/168/4 1227/22/4 1241/169/4
f 1241/169/5 1227/22/5 1231/23/5 1242/170/5
f 1247/171/6 1237/172/6 1229/14/6 1243/173/6
f 1243/173/3 1229/14/3 1225/16/3 1240/174/3
f 1236/175/139 1239/176/139 1228/49/139 1224/79/139
f 1237/172/1 1238/177/1 1225/13/1 1229/14/1
f 1231/23/1 1227/58/1 1233/178/1 1235/179/1
f 1226/78/140 1230/56/140 1234/180/140 1232/181/140
f 1242/170/6 1231/23/6 1235/179/6 1244/182/6
f 1246/183/4 1238/184/4 1233/168/4 1245/167/4
f 1240/185/4 1225/19/4 1238/184/4 1246/183/4
f 1235/179/1 1233/178/1 1238/177/1 1237/172/1
f 1232/181/141 1234/180/141 1239/176/141 1236/175/141
f 1244/182/6 1235/179/6 1237/172/6 1247/171/6
f 1255/186/4 1240/185/4 1246/183/4 1253/187/4
f 1249/188/6 1242/170/6 1244/182/6 1251/189/6
f 1250/190/3 1243/173/3 1240/174/3 1255/191/3
f 1254/192/6 1247/171/6 1243/173/6 1250/190/6
f 1248/193/5 1241/169/5 1242/170/5 1249/188/5
f 1252/194/4 1245/167/4 1241/169/4 1248/193/4
f 1232/195/4 1252/194/4 1248/193/4 1226/29/4
f 1226/29/5 1248/193/5 1249/188/5 1230/56/5
f 1239/176/6 1254/192/6 1250/190/6 1228/49/6
f 1228/49/3 1250/190/3 1255/191/3 1224/71/3
f 1230/56/6 1249/188/6 1251/189/6 1234/180/6
f 1236/196/4 1253/187/4 1252/194/4 1232/195/4
f 1224/26/4 1255/186/4 1253/187/4 1236/196/4
f 1234/180/6 1251/189/6 1254/192/6 1239/176/6
f 1271/186/142 1268/185/142 1269/183/142 1270/187/142
f 1305/29/97 1306/22/97 1309/23/97 1308/56/97
f 1378/26/4 1381/186/4 1380/187/4 1379/196/4
f 1232/181/2 1226/78/2 1382/78/2 1383/181/2
f 1383/181/143 1382/78/143 1384/78/143 1385/181/143
f 1178/33/1 874/32/1 1401/32/1 1402/33/1
f 1168/147/1 1178/33/1 1404/33/1 1403/147/1
f 869/36/1 1168/147/1 1406/147/1 1405/36/1
f 1220/59/148 1211/161/148 1407/161/148 1408/59/148
f 899/49/3 901/56/3 1410/56/3 1409/49/3
f 904/19/149 1292/49/149 1293/14/149 906/22/149
f 1289/16/151 1272/1/151 1274/1/151 1288/71/151
f 1253/187/152 1254/192/152 1251/189/152 1252/194/152
f 1244/182/153 1247/171/153 1246/183/153 1245/167/153
f 1251/189/154 1244/182/154 1274/1/154 1272/1/154
usemtl dentro.002
f 926/23/95 925/58/95 923/13/95 924/14/95
f 934/23/101 930/58/101 928/13/101 932/14/101
f 946/23/101 944/58/101 943/13/101 945/14/101
f 958/23/101 956/58/101 955/13/101 957/14/101
f 982/23/101 980/58/101 979/13/101 981/14/101
f 994/23/101 992/58/101 991/13/101 993/14/101
f 996/49/103 995/14/103 997/16/103 998/71/103
f 1303/23/95 1302/58/95 1300/13/95 1301/14/95
f 1309/23/101 1306/58/101 1304/13/101 1307/14/101
f 1321/23/101 1319/58/101 1318/13/101 1320/14/101
f 1333/23/101 1331/58/101 1330/13/101 1332/14/101
f 1357/23/101 1355/58/101 1354/13/101 1356/14/101
f 1369/23/101 1367/58/101 1366/13/101 1368/14/101
f 1371/49/103 1370/14/103 1372/16/103 1373/71/103
usemtl FORA2.002
f 920/49/94 919/14/94 921/16/94 922/71/94
f 936/49/94 935/14/94 937/16/94 938/71/94
f 942/23/95 941/58/95 939/13/95 940/14/95
f 948/49/94 947/14/94 949/16/94 950/71/94
f 954/23/95 953/58/95 951/13/95 952/14/95
f 960/49/94 959/14/94 961/16/94 962/71/94
f 966/23/95 965/58/95 963/13/95 964/14/95
f 970/23/101 968/58/101 967/13/101 969/14/101
f 972/49/94 971/14/94 973/16/94 974/71/94
f 978/23/95 977/58/95 975/13/95 976/14/95
f 984/49/94 983/14/94 985/16/94 986/71/94
f 990/23/95 989/58/95 987/13/95 988/14/95
f 1002/23/104 1001/58/104 999/13/104 1000/14/104
f 1297/49/94 1296/14/94 1298/16/94 1299/71/94
f 1311/49/94 1310/14/94 1312/16/94 1313/71/94
f 1317/23/95 1316/58/95 1314/13/95 1315/14/95
f 1323/49/94 1322/14/94 1324/16/94 1325/71/94
f 1329/23/95 1328/58/95 1326/13/95 1327/14/95
f 1335/49/94 1334/14/94 1336/16/94 1337/71/94
f 1341/23/95 1340/58/95 1338/13/95 1339/14/95
f 1345/23/101 1343/58/101 1342/13/101 1344/14/101
f 1347/49/94 1346/14/94 1348/16/94 1349/71/94
f 1353/23/95 1352/58/95 1350/13/95 1351/14/95
f 1359/49/94 1358/14/94 1360/16/94 1361/71/94
f 1365/23/95 1364/58/95 1362/13/95 1363/14/95
f 1377/23/104 1376/58/104 1374/13/104 1375/14/104
usemtl TRINCO.002
f 1088/23/6 1084/58/6 1082/13/6 1086/14/6
f 1096/23/6 1092/58/6 1090/13/6 1094/14/6
usemtl bola.002
f 1097/112/135 1098/113/135 1099/114/135 1100/115/135 1101/116/135 1102/117/135 1103/118/135 1104/119/135 1105/120/135 1106/121/135 1107/122/135 1108/123/135 1109/124/135 1110/125/135 1111/126/135 1112/127/135 1113/128/135 1114/129/135 1115/130/135 1116/131/135 1117/132/135 1118/133/135 1119/134/135 1120/135/135 1121/136/135 1122/137/135 1123/138/135 1124/139/135 1125/140/135 1126/141/135 1127/142/135 1128/143/135
f 1130/112/138 1131/113/138 1132/114/138 1133/115/138 1134/116/138 1135/117/138 1136/118/138 1137/119/138 1138/120/138 1139/121/138 1140/122/138 1141/123/138 1142/124/138 1143/125/138 1144/126/138 1145/127/138 1146/128/138 1147/129/138 1148/130/138 1149/131/138 1150/132/138 1151/133/138 1152/134/138 1153/135/138 1154/136/138 1155/137/138 1156/138/138 1157/139/138 1158/140/138 1159/141/138 1160/142/138 1161/143/138
l 335 338
l 655 335
l 384 380
l 381 385
l 765 767
l 378 382
l 383 379
l 386 387
l 389 388
l 389 387
l 484 483
l 486 483
l 487 486
l 551 550
l 549 551
l 548 549
l 737 733
l 734 738
l 731 735
l 736 732
l 762 764
l 763 761
l 747 748
l 748 752
l 756 755
l 753 754
l 750 747
l 760 759
l 758 757
l 768 766
l 860 863
l 1180 860
l 909 905
l 906 910
l 1292 1294
l 903 907
l 908 904
l 911 912
l 914 913
l 914 918
l 918 917
l 916 915
l 916 912
l 1013 1012
l 1015 1012
l 1016 1015
l 1262 1258
l 1259 1263
l 1256 1260
l 1261 1257
l 1289 1291
l 1290 1288
l 1273 1275
l 1278 1274
l 1275 1279
l 1283 1282
l 1280 1281
l 1272 1276
l 1277 1273
l 1287 1286
l 1285 1284
l 1295 1293
