# Blender 4.0.2
# www.blender.org
mtllib casa3zero.mtl
o Plane
v -1.889619 0.002836 0.963254
v -1.864589 0.002836 0.963254
v -1.889619 0.002836 -0.125962
v -1.864589 0.002836 -0.125962
v -1.889619 0.002836 0.987135
v -1.864589 0.002836 0.987135
v -1.889619 0.002836 0.987135
v -1.864589 0.002836 0.987135
v -0.754220 0.002836 0.963254
v -0.754220 0.002836 0.987135
v -0.728927 0.002836 0.963254
v -0.728927 0.002836 0.987135
v 1.452566 0.002836 0.963254
v 1.452566 0.002836 0.987135
v -0.754220 0.002836 0.150104
v -0.728927 0.002836 0.150104
v 1.478076 0.002836 0.963254
v 1.478076 0.002836 0.987135
v 1.452566 0.002836 0.128191
v 1.478076 0.002836 0.128191
v -1.889619 0.002836 -0.151093
v -1.864589 0.002836 -0.151093
v -1.889619 0.002836 -1.058299
v -1.864589 0.002836 -1.058299
v -1.422762 0.002836 -0.125962
v -1.422762 0.002836 -0.151093
v -1.889619 0.002836 -1.083570
v -1.864589 0.002836 -1.083570
v -0.754272 0.002836 -1.058299
v -0.754272 0.002836 -1.083570
v -1.160742 0.002836 -0.125962
v -1.160742 0.002836 -0.151093
v -0.755548 0.002836 -0.125962
v -0.755548 0.002836 -0.151093
v -0.754220 0.002836 -0.090719
v -0.728927 0.002836 -0.090719
v -0.754220 0.002836 -0.125984
v -0.728927 0.002836 -0.125984
v -0.728986 0.002836 -1.058299
v -0.728986 0.002836 -1.083570
v 0.363676 0.002836 -1.058299
v 0.363676 0.002836 -1.083570
v 1.452566 0.002836 -0.116100
v 1.478076 0.002836 -0.116100
v 1.452566 0.002836 -0.126105
v 1.478076 0.002836 -0.126105
v 1.452566 0.002836 -0.150991
v 1.478076 0.002836 -0.150991
v -0.754220 0.002836 -0.151071
v -0.728927 0.002836 -0.151071
v -0.754220 0.002836 -0.168780
v -0.728927 0.002836 -0.168780
v -0.665072 0.002836 -0.125984
v -0.665072 0.002836 -0.151071
v -0.420979 0.002836 -0.125984
v -0.420979 0.002836 -0.151071
v 0.388888 0.002836 -1.058299
v 0.388888 0.002836 -1.083570
v 1.452014 0.002836 -1.058299
v 1.452014 0.002836 -1.083570
v 0.363676 0.002836 -0.151307
v 0.388888 0.002836 -0.151307
v 0.363676 0.002836 -0.126391
v 0.388888 0.002836 -0.126391
v 0.363676 0.002836 -0.126391
v 0.388888 0.002836 -0.126391
v 0.363676 0.002836 -0.151307
v 0.363676 0.002836 -0.126391
v 1.478117 0.002836 -1.058299
v 1.478117 0.002836 -1.083570
v 1.452014 0.002836 -0.633893
v 1.478117 0.002836 -0.633893
v -1.527418 0.002836 0.963254
v -1.527418 0.002836 0.987135
v -1.079496 0.002836 0.987135
v -1.079496 0.002836 0.963254
v -0.416638 0.002836 0.963254
v -0.416638 0.002836 0.987135
v 0.125586 0.002836 0.987135
v 0.125586 0.002836 0.963254
v -1.889619 0.700560 -0.125962
v -1.889619 0.700560 0.963254
v -1.864589 0.700560 0.963254
v -1.864589 0.700560 -0.125962
v -1.889619 0.700560 0.987135
v -1.864589 0.700560 0.987135
v -1.889619 0.700560 0.987135
v -1.864589 0.700560 0.987135
v -0.754220 0.700560 0.987135
v -0.754220 0.700560 0.963254
v -1.527418 0.700560 0.963254
v -1.079496 0.700560 0.987135
v -0.728927 0.700560 0.987135
v -0.728927 0.700560 0.963254
v 1.452566 0.700560 0.987135
v 1.452566 0.700560 0.963254
v -0.416638 0.700560 0.963254
v 0.125586 0.700560 0.987135
v -0.728927 0.700560 0.150104
v -0.754220 0.700560 0.150104
v 1.478076 0.700560 0.987135
v 1.478076 0.700560 0.963254
v 1.478076 0.700560 0.128191
v 1.452566 0.700560 0.128191
v -1.864589 0.700560 -0.151093
v -1.889619 0.700560 -0.151093
v -1.864589 0.700560 -1.058299
v -1.889619 0.700560 -1.058299
v -1.422762 0.700560 -0.125962
v -1.422762 0.700560 -0.151093
v -1.864589 0.700560 -1.083570
v -1.889619 0.700560 -1.083570
v -0.754272 0.700560 -1.058299
v -0.754272 0.700560 -1.083570
v -1.160742 0.700560 -0.125962
v -1.160742 0.700560 -0.151093
v -0.755548 0.700560 -0.125962
v -0.755548 0.700560 -0.151093
v -0.728927 0.700560 -0.090719
v -0.754220 0.700560 -0.090719
v -0.728927 0.700560 -0.125984
v -0.754220 0.700560 -0.125984
v -0.728986 0.700560 -1.058299
v -0.728986 0.700560 -1.083570
v 0.363676 0.700560 -1.058299
v 0.363676 0.700560 -1.083570
v 1.478076 0.700560 -0.116100
v 1.452566 0.700560 -0.116100
v 1.478076 0.700560 -0.126105
v 1.452566 0.700560 -0.126105
v 1.478076 0.700560 -0.150991
v 1.452566 0.700560 -0.150991
v -0.728927 0.700560 -0.151071
v -0.754220 0.700560 -0.151071
v -0.728927 0.700560 -0.168780
v -0.754220 0.700560 -0.168780
v -0.665072 0.700560 -0.125984
v -0.665072 0.700560 -0.151071
v -0.420979 0.700560 -0.125984
v -0.420979 0.700560 -0.151071
v 0.363676 0.700560 -0.151307
v 0.363676 0.700560 -0.126391
v 0.388888 0.700560 -1.058299
v 0.388888 0.700560 -1.083570
v 1.452014 0.700560 -1.058299
v 1.452014 0.700560 -1.083570
v 0.363676 0.700560 -0.151307
v 0.388888 0.700560 -0.151307
v 0.363676 0.700560 -0.126391
v 0.388888 0.700560 -0.126391
v 0.363676 0.700560 -0.126391
v 0.388888 0.700560 -0.126391
v 1.478117 0.700560 -1.058299
v 1.478117 0.700560 -1.083570
v 1.452014 0.700560 -0.633893
v 1.478117 0.700560 -0.633893
v -1.527418 0.700560 0.987135
v -1.079496 0.700560 0.963254
v -0.416638 0.700560 0.987135
v 0.125586 0.700560 0.963254
v -0.416638 0.222646 0.987135
v -0.416638 0.222646 0.963254
v 0.125586 0.222646 0.987135
v 0.125586 0.222646 0.963254
v -0.416638 0.500895 0.987135
v -0.416638 0.500895 0.963254
v 0.125586 0.500895 0.987135
v 0.125586 0.500895 0.963254
v -0.416638 0.700935 0.987135
v -0.416638 0.700935 0.963254
v 0.125586 0.700935 0.987135
v 0.125586 0.700935 0.963254
v -1.527418 0.178700 1.030671
v -1.527418 0.178700 0.918092
v -1.079496 0.178700 1.030671
v -1.079496 0.178700 0.918092
v -1.527418 0.489746 0.987135
v -1.527418 0.489746 0.963254
v -1.079496 0.489746 0.987135
v -1.079496 0.489746 0.963254
v -1.527418 0.698815 0.987135
v -1.527418 0.698815 0.963254
v -1.079496 0.698815 0.987135
v -1.079496 0.698815 0.963254
v -1.422762 0.602836 -0.125962
v -1.422762 0.602836 -0.151093
v -1.160742 0.602836 -0.125962
v -1.160742 0.602836 -0.151093
v -1.422762 0.701759 -0.125962
v -1.422762 0.701759 -0.151093
v -1.160742 0.701759 -0.125962
v -1.160742 0.701759 -0.151093
v -0.728927 0.602836 0.150104
v -0.754220 0.602836 0.150104
v -0.728927 0.602836 -0.090719
v -0.754220 0.602836 -0.090719
v -0.728927 0.702836 0.150104
v -0.754220 0.702836 0.150104
v -0.728927 0.702836 -0.090719
v -0.754220 0.702836 -0.090719
v -0.665072 0.602836 -0.125984
v -0.665072 0.602836 -0.151071
v -0.420979 0.602836 -0.125984
v -0.420979 0.602836 -0.151071
v -0.665072 0.702836 -0.125984
v -0.665072 0.702836 -0.151071
v -0.420979 0.702836 -0.125984
v -0.420979 0.702836 -0.151071
v 1.478076 0.602836 0.128191
v 1.452566 0.602836 0.128191
v 1.478076 0.602836 -0.116100
v 1.452566 0.602836 -0.116100
v 1.478076 0.702836 0.128191
v 1.452566 0.702836 0.128191
v 1.478076 0.702836 -0.116100
v 1.452566 0.702836 -0.116100
v 1.452566 0.198766 -0.150991
v 1.452566 0.198766 -0.126105
v -1.527418 0.178002 0.987135
v -1.527418 0.178002 0.963254
v -1.079496 0.178002 0.987135
v -1.079496 0.178002 0.963254
v -1.527418 0.489746 1.056521
v -1.079496 0.489746 1.056521
v -1.527418 0.178002 1.056521
v -1.079496 0.178002 1.056521
v -1.494915 0.467125 1.056521
v -1.111999 0.467125 1.056521
v -1.494915 0.200624 1.056521
v -1.111999 0.200624 1.056521
v -1.494915 0.467125 1.072980
v -1.111999 0.467125 1.072980
v -1.494915 0.200624 1.072980
v -1.111999 0.200624 1.072980
v -1.312225 0.200624 1.056521
v -1.294688 0.200624 1.056521
v -1.312225 0.200624 1.072980
v -1.294688 0.200624 1.072980
v -1.312225 0.468238 1.056521
v -1.294688 0.468238 1.056521
v -1.312225 0.468238 1.072980
v -1.294688 0.468238 1.072980
v -1.111999 0.343433 1.056521
v -1.111999 0.324315 1.056521
v -1.111999 0.343433 1.072980
v -1.111999 0.324315 1.072980
v -1.495851 0.343433 1.056521
v -1.495851 0.324315 1.056521
v -1.495851 0.343433 1.072980
v -1.495851 0.324315 1.072980
v -0.416638 0.222646 1.061884
v 0.125586 0.222646 1.061884
v -0.416638 0.500895 1.061884
v 0.125586 0.500895 1.061884
v -0.387898 0.245839 1.061884
v 0.096847 0.245839 1.061884
v -0.387898 0.479724 1.061884
v 0.096847 0.479724 1.061884
v -0.387898 0.245839 1.079079
v 0.096847 0.245839 1.079079
v -0.387898 0.479724 1.079079
v 0.096847 0.479724 1.079079
v -0.416638 0.002836 0.963254
v 0.125586 0.002836 0.963254
v -0.416638 0.222646 0.909382
v 0.125586 0.222646 0.909382
v 0.096847 0.374064 1.061884
v 0.096847 0.351498 1.061884
v 0.096847 0.374064 1.079079
v 0.096847 0.351498 1.079079
v -0.388955 0.374064 1.061884
v -0.388955 0.351498 1.061884
v -0.388955 0.374064 1.079079
v -0.388955 0.351498 1.079079
v -0.153968 0.245839 1.061884
v -0.137083 0.245839 1.061884
v -0.153968 0.245839 1.079079
v -0.137083 0.245839 1.079079
v -0.153968 0.480862 1.061884
v -0.137083 0.480862 1.061884
v -0.153968 0.480862 1.079079
v -0.137083 0.480862 1.079079
v 1.478084 0.002836 -0.252401
v 1.452450 0.002836 -0.252401
v 1.478084 0.700560 -0.252401
v 1.452450 0.700560 -0.252401
v 1.478095 0.002836 -0.374712
v 1.478095 0.700560 -0.374712
v 1.452311 0.002836 -0.374712
v 1.452311 0.700560 -0.374712
v -0.754220 0.199064 -0.151071
v -0.754220 0.199064 -0.168780
v -0.754272 0.199064 -1.058299
v -1.864589 0.199064 -1.058299
v 0.388888 0.199064 -0.126391
v 0.363676 0.199064 -0.126391
v -0.728927 0.199064 -0.168780
v -0.728927 0.199064 -0.151071
v -1.160742 0.199064 -0.125962
v -1.160742 0.199064 -0.151093
v 0.388888 0.199064 -0.126391
v 0.363676 0.199064 -0.126391
v -0.728986 0.199064 -1.058299
v -0.755548 0.199064 -0.151093
v -0.754220 0.199064 -0.125984
v -0.755548 0.199064 -0.125962
v 0.363676 0.199064 -0.126391
v -0.728927 0.199064 -0.090719
v -0.754220 0.199064 -0.090719
v 0.363676 0.199064 -0.151307
v 0.363676 0.199064 -0.151307
v -0.665072 0.199064 -0.151071
v -0.665072 0.199064 -0.125984
v 1.478117 0.199064 -1.083570
v 1.478117 0.199064 -1.058299
v 1.452014 0.199064 -1.083570
v -0.728927 0.199064 -0.125984
v -0.420979 0.199064 -0.125984
v -0.420979 0.199064 -0.151071
v -0.754272 0.199064 -1.083570
v -0.728986 0.199064 -1.083570
v -1.889619 0.199064 0.963254
v -1.889619 0.199064 -0.125962
v 1.478117 0.199064 -0.633893
v 1.452014 0.199064 -0.633893
v 1.452014 0.199064 -1.058299
v -1.864589 0.199064 -0.125962
v -1.864589 0.199064 0.963254
v 1.478076 0.199064 -0.150991
v 1.452566 0.199064 -0.126105
v 0.363676 0.199064 -1.083570
v -1.889619 0.199064 -0.151093
v 1.452566 0.199064 -0.150991
v 0.363676 0.199064 -1.058299
v 1.478076 0.199064 -0.116100
v 1.452566 0.199064 -0.116100
v -1.527418 0.199064 0.987135
v -1.864589 0.199064 0.987135
v 0.388888 0.199064 -1.083570
v -1.889619 0.199064 -1.058299
v -1.889619 0.199064 0.987135
v -1.527418 0.199064 0.963254
v -1.864589 0.199064 -0.151093
v -1.864589 0.199064 0.987135
v -1.889619 0.199064 0.987135
v 1.478076 0.199064 -0.126105
v -1.422762 0.199064 -0.151093
v -1.422762 0.199064 -0.125962
v 0.388888 0.199064 -1.058299
v -1.889619 0.199064 -1.083570
v -1.864589 0.199064 -1.083570
v 0.388888 0.199064 -0.151307
v 1.452450 0.199064 -0.252401
v 1.478084 0.199064 -0.252401
v 1.452311 0.199064 -0.374712
v 1.478095 0.199064 -0.374712
v 0.861726 0.002836 -0.374712
v 0.861866 0.002836 -0.252401
v 0.861866 0.199064 -0.252401
v 0.861726 0.199064 -0.374712
v 1.452450 0.232394 -0.208096
v 1.452311 0.232394 -0.419016
v 0.836158 0.232394 -0.208096
v 0.836018 0.232394 -0.419016
v 1.478076 0.522836 0.128191
v 1.452566 0.522836 0.128191
v 1.478076 0.522836 -0.116100
v 1.452566 0.522836 -0.116100
v -0.728927 0.522836 0.150104
v -0.754220 0.522836 0.150104
v -0.728927 0.522836 -0.090719
v -0.754220 0.522836 -0.090719
v -0.665072 0.522836 -0.125984
v -0.665072 0.522836 -0.151071
v -0.420979 0.522836 -0.125984
v -0.420979 0.522836 -0.151071
v -1.422762 0.522836 -0.125962
v -1.422762 0.522836 -0.151093
v -1.160742 0.522836 -0.125962
v -1.160742 0.522836 -0.151093
vn -0.0000 -1.0000 -0.0000
vn -0.0000 1.0000 -0.0000
vn -1.0000 -0.0000 -0.0000
vn -0.0000 -0.0000 1.0000
vn 1.0000 -0.0000 -0.0000
vn -0.0000 -0.0000 -1.0000
vn -1.0000 -0.0000 0.0001
vn 1.0000 -0.0000 -0.0001
vn 0.0161 -0.0000 0.9999
vn 0.0160 -0.0000 -0.9999
vn -0.0003 -0.0000 -1.0000
vn 0.0005 -0.0000 1.0000
vn 1.0000 -0.0000 0.0001
vn -1.0000 -0.0000 0.0011
vn -0.0000 -0.2487 -0.9686
vn -0.0000 -0.2403 0.9707
vn -0.0000 -0.2380 -0.9713
vn -0.0000 -0.7991 0.6012
vn 1.0000 -0.0000 -0.0008
vn -0.7918 -0.6107 0.0007
vn -0.0000 -0.7991 -0.6012
vt 0.000000 0.000000
vt 0.000000 1.000000
vt 1.000000 1.000000
vt 1.000000 0.000000
vt 1.000000 0.210000
vt 1.000000 0.210000
vt 1.000000 0.210000
vt 1.000000 1.000000
vt 1.000000 0.463284
vt 1.000000 0.463284
s 0
usemtl Material.001
f 1/1/1 3/2/1 4/3/1 2/4/1
f 2/4/1 6/4/1 5/1/1 1/1/1
f 6/4/2 8/4/2 7/1/2 5/1/2
f 76/4/1 9/4/1 10/4/1 75/4/1
f 9/4/1 11/4/1 12/4/1 10/4/1
f 80/4/1 13/4/1 14/4/1 79/4/1
f 9/4/1 15/4/1 16/4/1 11/4/1
f 13/4/1 17/4/1 18/4/1 14/4/1
f 13/4/1 19/4/1 20/4/1 17/4/1
f 3/2/1 21/2/1 22/3/1 4/3/1
f 21/2/1 23/2/1 24/3/1 22/3/1
f 22/3/1 26/3/1 25/3/1 4/3/1
f 23/2/1 27/2/1 28/3/1 24/3/1
f 28/3/1 30/3/1 29/3/1 24/3/1
f 32/3/1 34/3/1 33/3/1 31/3/1
f 35/4/1 37/4/1 38/4/1 36/4/1
f 30/3/1 40/3/1 39/3/1 29/3/1
f 40/3/1 42/3/1 41/3/1 39/3/1
f 43/4/1 45/4/1 46/4/1 44/4/1
f 45/4/1 47/4/1 48/4/1 46/4/1
f 37/4/1 49/4/1 50/4/1 38/4/1
f 49/4/1 51/4/1 52/4/1 50/4/1
f 29/3/1 39/3/1 52/4/1 51/4/1
f 37/4/1 33/3/1 34/3/1 49/4/1
f 50/4/1 54/4/1 53/4/1 38/4/1
f 68/3/1 55/4/1 56/4/1 67/3/1
f 42/3/1 58/3/1 57/3/1 41/3/1
f 58/3/1 60/3/1 59/3/1 57/3/1
f 57/3/1 62/3/1 61/3/1 41/3/1
f 62/3/1 64/3/1 63/3/1 61/3/1
f 64/3/2 66/3/2 65/3/2 63/3/2
f 63/3/2 68/3/2 67/3/2 61/3/2
f 60/3/1 70/3/1 69/3/1 59/3/1
f 69/3/1 72/3/1 71/3/1 59/3/1
f 283/5/1 48/4/1 47/4/1 284/6/1
f 2/4/1 73/4/1 74/4/1 6/4/1
f 83/4/2 82/1/2 85/1/2 86/4/2
f 11/4/1 77/4/1 78/4/1 12/4/1
f 82/1/2 83/4/2 84/3/2 81/2/2
f 86/4/2 85/1/2 87/1/2 88/4/2
f 158/4/2 92/4/2 89/4/2 90/4/2
f 90/4/2 89/4/2 93/4/2 94/4/2
f 160/4/2 98/4/2 95/4/2 96/4/2
f 90/4/2 94/4/2 99/4/2 100/4/2
f 96/4/2 95/4/2 101/4/2 102/4/2
f 96/4/2 102/4/2 103/4/2 104/4/2
f 81/2/2 84/3/2 105/3/2 106/2/2
f 106/2/2 105/3/2 107/3/2 108/2/2
f 105/3/2 84/3/2 109/3/2 110/3/2
f 108/2/2 107/3/2 111/3/2 112/2/2
f 111/3/2 107/3/2 113/3/2 114/3/2
f 116/3/2 115/3/2 117/3/2 118/3/2
f 120/4/2 119/4/2 121/4/2 122/4/2
f 114/3/2 113/3/2 123/3/2 124/3/2
f 124/3/2 123/3/2 125/3/2 126/3/2
f 128/4/2 127/4/2 129/4/2 130/4/2
f 130/4/2 129/4/2 131/4/2 132/4/2
f 122/4/2 121/4/2 133/4/2 134/4/2
f 134/4/2 133/4/2 135/4/2 136/4/2
f 113/3/2 136/4/2 135/4/2 123/3/2
f 122/4/2 134/4/2 118/3/2 117/3/2
f 133/4/2 121/4/2 137/4/2 138/4/2
f 142/3/2 141/3/2 140/4/2 139/4/2
f 330/4/3 130/4/3 132/4/3 333/4/3
f 126/3/2 125/3/2 143/3/2 144/3/2
f 144/3/2 143/3/2 145/3/2 146/3/2
f 143/3/2 125/3/2 147/3/2 148/3/2
f 148/3/2 147/3/2 149/3/2 150/3/2
f 150/3/2 149/3/2 151/3/2 152/3/2
f 149/3/2 147/3/2 141/3/2 142/3/2
f 146/3/2 145/3/2 153/3/2 154/3/2
f 153/3/2 145/3/2 155/3/2 156/3/2
f 285/5/2 286/7/2 132/4/2 131/4/2
f 83/4/2 86/4/2 157/4/2 91/4/2
f 94/4/2 93/4/2 159/4/2 97/4/2
f 292/4/3 291/4/3 134/4/3 136/4/3
f 294/8/4 293/3/4 113/3/4 107/3/4
f 296/3/4 295/3/4 152/3/4 151/3/4
f 298/4/5 297/4/5 135/4/5 133/4/5
f 300/3/3 299/3/3 115/3/3 116/3/3
f 77/4/6 11/4/6 94/4/6 97/4/6
f 295/3/2 301/3/2 150/3/2 152/3/2
f 293/3/7 292/4/7 136/4/7 113/3/7
f 79/4/4 14/4/4 95/4/4 98/4/4
f 302/3/2 296/3/2 151/3/2 149/3/2
f 297/4/8 303/3/8 123/3/8 135/4/8
f 304/3/6 300/3/6 116/3/6 118/3/6
f 16/4/6 15/4/6 100/4/6 99/4/6
f 306/3/9 305/4/9 122/4/9 117/3/9
f 299/3/4 306/3/4 117/3/4 115/3/4
f 15/4/3 9/4/3 90/4/3 100/4/3
f 307/3/2 302/3/2 149/3/2 142/3/2
f 291/4/10 304/3/10 118/3/10 134/4/10
f 309/4/4 308/4/4 119/4/4 120/4/4
f 11/4/5 16/4/5 99/4/5 94/4/5
f 311/3/2 310/3/2 141/3/2 147/3/2
f 313/4/5 312/4/5 138/4/5 137/4/5
f 18/4/5 17/4/5 102/4/5 101/4/5
f 315/3/5 314/3/5 154/3/5 153/3/5
f 312/4/6 298/4/6 133/4/6 138/4/6
f 305/4/3 309/4/3 120/4/3 122/4/3
f 314/3/6 316/3/6 146/3/6 154/3/6
f 317/4/4 313/4/4 137/4/4 121/4/4
f 308/4/5 317/4/5 121/4/5 119/4/5
f 14/4/4 18/4/4 101/4/4 95/4/4
f 319/4/3 318/4/3 139/4/3 140/4/3
f 20/4/6 19/4/6 104/4/6 103/4/6
f 310/3/11 319/4/11 140/4/11 141/3/11
f 321/3/6 320/3/6 114/3/6 124/3/6
f 19/4/3 13/4/3 96/4/3 104/4/3
f 323/2/3 322/1/3 82/1/3 81/2/3
f 324/3/5 315/3/5 153/3/5 156/3/5
f 318/4/12 307/3/12 142/3/12 139/4/12
f 17/4/5 20/4/5 103/4/5 102/4/5
f 326/3/3 325/3/3 155/3/3 145/3/3
f 328/4/5 327/3/5 84/3/5 83/4/5
f 356/9/13 324/3/13 156/3/13 288/9/13
f 331/3/6 321/3/6 124/3/6 126/3/6
f 332/2/3 323/2/3 81/2/3 106/2/3
f 353/6/14 333/4/14 132/4/14 286/7/14
f 303/3/4 334/3/4 125/3/4 123/3/4
f 336/4/4 335/4/4 127/4/4 128/4/4
f 338/4/4 337/4/4 157/4/4 86/4/4
f 339/3/6 331/3/6 126/3/6 144/3/6
f 340/2/3 332/2/3 106/2/3 108/2/3
f 322/1/3 341/1/3 85/1/3 82/1/3
f 337/4/5 342/4/5 91/4/5 157/4/5
f 330/4/3 336/4/3 128/4/3 130/4/3
f 343/3/5 294/8/5 107/3/5 105/3/5
f 345/1/4 344/4/4 88/4/4 87/1/4
f 335/4/5 346/4/5 129/4/5 127/4/5
f 348/3/5 347/3/5 110/3/5 109/3/5
f 344/4/2 338/4/2 86/4/2 88/4/2
f 9/4/6 76/4/6 158/4/6 90/4/6
f 316/3/6 339/3/6 144/3/6 146/3/6
f 347/3/6 343/3/6 105/3/6 110/3/6
f 341/1/2 345/1/2 87/1/2 85/1/2
f 76/4/3 75/4/3 92/4/3 158/4/3
f 349/3/4 326/3/4 145/3/4 143/3/4
f 327/3/4 348/3/4 109/3/4 84/3/4
f 346/4/5 329/4/5 131/4/5 129/4/5
f 351/3/6 350/2/6 112/2/6 111/3/6
f 342/4/6 328/4/6 83/4/6 91/4/6
f 12/4/4 78/4/4 159/4/4 93/4/4
f 352/3/5 349/3/5 143/3/5 148/3/5
f 350/2/3 340/2/3 108/2/3 112/2/3
f 75/4/4 10/4/4 89/4/4 92/4/4
f 78/4/5 77/4/5 97/4/5 159/4/5
f 334/3/3 311/3/3 147/3/3 125/3/3
f 13/4/6 80/4/6 160/4/6 96/4/6
f 301/3/5 352/3/5 148/3/5 150/3/5
f 320/3/6 351/3/6 111/3/6 114/3/6
f 10/4/4 12/4/4 93/4/4 89/4/4
f 80/4/3 79/4/3 98/4/3 160/4/3
f 80/4/5 164/4/5 163/4/5 79/4/5
f 168/1/1 254/1/1 253/1/1 166/1/1
f 79/1/4 163/1/4 161/1/4 78/1/4
f 78/4/3 161/4/3 162/4/3 77/4/3
f 80/4/5 264/4/5 266/4/5 164/4/5
f 166/1/6 170/1/6 172/1/6 168/1/6
f 164/4/5 168/4/5 167/4/5 163/4/5
f 161/4/3 165/4/3 166/4/3 162/4/3
f 172/4/2 170/4/2 169/4/2 171/4/2
f 165/4/3 169/4/3 170/4/3 166/4/3
f 167/1/4 171/1/4 169/1/4 165/1/4
f 168/4/5 172/4/5 171/4/5 167/4/5
f 73/4/3 74/4/3 173/4/3 174/4/3
f 176/1/2 174/1/2 173/4/2 175/1/2
f 76/1/15 73/1/15 174/1/15 176/1/15
f 75/4/5 76/4/5 176/4/5 175/4/5
f 74/1/16 75/1/16 175/1/16 173/1/16
f 177/1/4 179/1/4 183/1/4 181/1/4
f 184/4/2 182/4/2 181/4/2 183/4/2
f 178/4/3 177/4/3 181/4/3 182/4/3
f 180/1/6 178/1/6 182/1/6 184/1/6
f 179/4/5 180/4/5 184/4/5 183/4/5
f 187/1/4 185/1/4 377/1/4 379/1/4
f 185/1/4 187/1/4 191/1/4 189/1/4
f 26/3/5 186/3/5 185/3/5 25/3/5
f 31/3/3 187/3/3 188/3/3 32/3/3
f 36/4/4 195/4/4 196/4/4 35/4/4
f 189/3/2 191/3/2 192/3/2 190/3/2
f 186/3/3 185/3/3 189/3/3 190/3/3
f 188/1/6 186/1/6 190/1/6 192/1/6
f 187/3/5 188/3/5 192/3/5 191/3/5
f 193/1/5 195/1/5 199/1/5 197/1/5
f 196/4/6 195/4/6 371/4/6 372/4/6
f 15/4/6 194/4/6 193/4/6 16/4/6
f 202/1/6 204/1/6 376/1/6 374/1/6
f 200/4/2 198/4/2 197/4/2 199/4/2
f 195/4/6 196/4/6 200/4/6 199/4/6
f 196/1/3 194/1/3 198/1/3 200/1/3
f 194/4/4 193/4/4 197/4/4 198/4/4
f 204/1/6 202/1/6 206/1/6 208/1/6
f 54/4/5 202/4/5 201/4/5 53/4/5
f 55/4/5 56/4/5 204/4/5 203/4/5
f 206/4/2 205/4/2 207/4/2 208/4/2
f 203/4/5 204/4/5 208/4/5 207/4/5
f 201/1/4 203/1/4 207/1/4 205/1/4
f 202/4/3 201/4/3 205/4/3 206/4/3
f 19/4/6 210/4/6 209/4/6 20/4/6
f 209/1/5 211/1/5 215/1/5 213/1/5
f 209/4/4 210/4/4 366/4/4 365/4/4
f 44/4/6 43/4/6 212/4/6 211/4/6
f 214/4/2 213/4/2 215/4/2 216/4/2
f 210/4/4 209/4/4 213/4/4 214/4/4
f 212/1/3 210/1/3 214/1/3 216/1/3
f 211/4/6 212/4/6 216/4/6 215/4/6
f 45/4/5 47/4/5 217/4/5 218/4/5
f 220/1/1 222/1/1 221/4/1 219/1/1
f 177/4/3 178/4/3 220/4/3 219/4/3
f 178/1/1 180/1/1 224/1/1 223/1/1
f 180/4/5 179/4/5 221/4/5 222/4/5
f 180/4/3 222/4/3 226/4/3 224/4/3
f 222/1/2 220/1/2 225/1/2 226/1/2
f 220/4/5 178/4/5 223/4/5 225/4/5
f 227/1/1 228/1/1 232/1/1 231/1/1
f 233/1/1 234/4/1 238/4/1 237/1/1
f 230/1/2 229/1/2 235/1/2 236/1/2
f 240/1/2 239/1/2 241/1/2 242/1/2
f 237/1/4 238/4/4 242/4/4 241/1/4
f 244/4/1 246/4/1 250/4/1 248/4/1
f 234/4/6 232/4/6 245/4/6 246/4/6
f 228/4/4 230/4/4 244/4/4 243/4/4
f 247/4/3 248/4/3 250/4/3 249/4/3
f 246/4/4 245/4/4 249/4/4 250/4/4
f 166/4/5 253/4/5 251/4/5 162/4/5
f 162/1/2 251/1/2 252/1/2 164/1/2
f 164/4/3 252/4/3 254/4/3 168/4/3
f 260/1/2 278/1/2 277/1/2 259/1/2
f 263/1/17 265/1/17 266/1/17 264/1/17
f 164/1/2 266/1/2 265/1/2 162/1/2
f 77/1/2 263/1/2 264/1/2 80/1/2
f 162/4/3 265/4/3 263/4/3 77/4/3
f 270/1/1 274/1/1 272/1/1 268/1/1
f 262/1/2 269/1/2 270/1/2 260/1/2
f 256/4/2 268/4/2 267/4/2 258/4/2
f 272/4/3 274/4/3 273/4/3 271/4/3
f 269/1/4 273/1/4 274/1/4 270/1/4
f 278/1/4 282/1/4 281/1/4 277/1/4
f 255/1/2 275/1/2 276/1/2 256/1/2
f 279/1/2 281/1/2 282/1/2 280/1/2
f 277/4/3 281/4/3 279/4/3 275/4/3
f 355/10/14 353/6/14 286/7/14 290/10/14
f 329/4/13 354/5/13 285/5/13 131/4/13
f 288/9/2 290/10/2 286/7/2 285/5/2
f 287/9/1 283/5/1 284/6/1 289/10/1
f 72/3/1 287/9/1 289/10/1 71/3/1
f 156/3/2 155/3/2 290/10/2 288/9/2
f 325/3/14 355/10/14 290/10/14 155/3/14
f 354/5/13 356/9/13 288/9/13 285/5/13
f 283/5/13 287/9/13 356/9/13 354/5/13
f 71/3/14 289/10/14 355/10/14 325/3/14
f 48/4/13 283/5/13 354/5/13 329/4/13
f 359/6/18 353/6/18 361/6/18 363/6/18
f 30/3/6 28/3/6 351/3/6 320/3/6
f 64/3/5 62/3/5 352/3/5 301/3/5
f 41/3/3 61/3/3 311/3/3 334/3/3
f 27/2/3 23/2/3 340/2/3 350/2/3
f 62/3/5 57/3/5 349/3/5 352/3/5
f 73/4/6 2/4/6 328/4/6 342/4/6
f 28/3/6 27/2/6 350/2/6 351/3/6
f 46/4/5 48/4/5 329/4/5 346/4/5
f 4/3/4 25/3/4 348/3/4 327/3/4
f 57/3/4 59/3/4 326/3/4 349/3/4
f 5/1/2 7/1/2 345/1/2 341/1/2
f 26/3/6 22/3/6 343/3/6 347/3/6
f 60/3/6 58/3/6 339/3/6 316/3/6
f 8/4/2 6/4/2 338/4/2 344/4/2
f 25/3/5 26/3/5 347/3/5 348/3/5
f 44/4/5 46/4/5 346/4/5 335/4/5
f 7/1/4 8/4/4 344/4/4 345/1/4
f 22/3/5 24/3/5 294/8/5 343/3/5
f 45/4/3 43/4/3 336/4/3 330/4/3
f 74/4/5 73/4/5 342/4/5 337/4/5
f 1/1/3 5/1/3 341/1/3 322/1/3
f 23/2/3 21/2/3 332/2/3 340/2/3
f 58/3/6 42/3/6 331/3/6 339/3/6
f 6/4/4 74/4/4 337/4/4 338/4/4
f 43/4/4 44/4/4 335/4/4 336/4/4
f 39/3/4 41/3/4 334/3/4 303/3/4
f 284/6/14 47/4/14 333/4/14 353/6/14
f 21/2/3 3/2/3 323/2/3 332/2/3
f 42/3/6 40/3/6 321/3/6 331/3/6
f 287/9/13 72/3/13 324/3/13 356/9/13
f 2/4/5 4/3/5 327/3/5 328/4/5
f 59/3/3 71/3/3 325/3/3 326/3/3
f 55/4/12 68/3/12 307/3/12 318/4/12
f 72/3/5 69/3/5 315/3/5 324/3/5
f 3/2/3 1/1/3 322/1/3 323/2/3
f 40/3/6 30/3/6 320/3/6 321/3/6
f 67/3/11 56/4/11 319/4/11 310/3/11
f 56/4/3 55/4/3 318/4/3 319/4/3
f 36/4/5 38/4/5 317/4/5 308/4/5
f 38/4/4 53/4/4 313/4/4 317/4/4
f 70/3/6 60/3/6 316/3/6 314/3/6
f 37/4/3 35/4/3 309/4/3 305/4/3
f 54/4/6 50/4/6 298/4/6 312/4/6
f 69/3/5 70/3/5 314/3/5 315/3/5
f 53/4/5 54/4/5 312/4/5 313/4/5
f 61/3/2 67/3/2 310/3/2 311/3/2
f 35/4/4 36/4/4 308/4/4 309/4/4
f 49/4/10 34/3/10 304/3/10 291/4/10
f 68/3/2 63/3/2 302/3/2 307/3/2
f 31/3/4 33/3/4 306/3/4 299/3/4
f 33/3/9 37/4/9 305/4/9 306/3/9
f 34/3/6 32/3/6 300/3/6 304/3/6
f 52/4/8 39/3/8 303/3/8 297/4/8
f 63/3/2 65/3/2 296/3/2 302/3/2
f 29/3/7 51/4/7 292/4/7 293/3/7
f 66/3/2 64/3/2 301/3/2 295/3/2
f 32/3/3 31/3/3 299/3/3 300/3/3
f 50/4/5 52/4/5 297/4/5 298/4/5
f 65/3/4 66/3/4 295/3/4 296/3/4
f 24/3/4 29/3/4 293/3/4 294/8/4
f 51/4/3 49/4/3 291/4/3 292/4/3
f 45/4/3 330/4/3 333/4/3 47/4/3
f 357/10/14 358/6/14 359/6/14 360/10/14
f 355/10/6 289/10/6 357/10/6 360/10/6
f 289/10/1 284/6/1 358/6/1 357/10/1
f 284/6/4 353/6/4 359/6/4 358/6/4
f 361/6/2 362/10/2 364/10/2 363/6/2
f 353/6/19 355/10/19 362/10/19 361/6/19
f 360/10/20 359/6/20 363/6/20 364/10/20
f 355/10/21 360/10/21 364/10/21 362/10/21
f 365/4/1 366/4/1 368/1/1 367/4/1
f 210/1/3 212/1/3 368/1/3 366/1/3
f 212/4/6 211/4/6 367/4/6 368/4/6
f 211/1/5 209/1/5 365/1/5 367/1/5
f 371/1/1 369/1/1 370/4/1 372/1/1
f 194/1/3 196/1/3 372/1/3 370/1/3
f 193/4/4 194/4/4 370/4/4 369/4/4
f 195/1/5 193/1/5 369/1/5 371/1/5
f 373/4/1 374/4/1 376/1/1 375/4/1
f 204/4/5 203/4/5 375/4/5 376/4/5
f 203/1/4 201/1/4 373/1/4 375/1/4
f 201/4/3 202/4/3 374/4/3 373/4/3
f 379/1/1 377/1/1 378/3/1 380/1/1
f 185/3/3 186/3/3 378/3/3 377/3/3
f 186/1/6 188/1/6 380/1/6 378/1/6
f 188/3/5 187/3/5 379/3/5 380/3/5
usemtl Material.003
f 257/4/5 261/4/5 259/4/5 255/4/5
f 224/4/6 226/4/6 230/4/6 228/4/6
f 229/4/5 227/4/5 231/4/5 233/4/5
f 226/1/6 225/1/6 229/1/6 230/1/6
f 225/4/6 223/4/6 227/4/6 229/4/6
f 223/1/6 224/1/6 228/1/6 227/1/6
f 230/4/3 234/4/3 246/4/3 244/4/3
f 234/4/2 230/4/2 236/4/2 238/4/2
f 236/1/6 235/1/6 239/1/6 240/1/6
f 229/4/2 233/4/2 237/4/2 235/4/2
f 238/4/5 236/4/5 240/4/5 242/4/5
f 235/4/3 237/4/3 241/4/3 239/4/3
f 232/1/3 228/1/3 243/1/3 245/1/3
f 245/1/2 243/1/2 247/1/2 249/1/2
f 243/4/6 244/4/6 248/4/6 247/4/6
f 252/4/6 256/4/6 258/4/6 254/4/6
f 251/1/6 255/1/6 256/1/6 252/1/6
f 253/4/6 257/4/6 255/4/6 251/4/6
f 254/1/6 258/1/6 257/1/6 253/1/6
f 258/1/1 262/1/1 261/1/1 257/1/1
f 258/1/3 267/1/3 269/1/3 262/1/3
f 260/1/3 270/1/3 268/1/3 256/1/3
f 267/1/2 271/1/2 273/1/2 269/1/2
f 268/4/6 272/4/6 271/4/6 267/4/6
f 256/1/2 276/1/2 278/1/2 260/1/2
f 259/4/2 277/4/2 275/4/2 255/4/2
f 275/1/6 279/1/6 280/1/6 276/1/6
f 276/1/5 280/1/5 282/1/5 278/1/5
